ISO-10303-21;
HEADER;
/* Generated by software containing ST-Developer
 * from STEP Tools, Inc. (www.steptools.com) 
 */

FILE_DESCRIPTION(
/* description */ (''),
/* implementation_level */ '2;1');

FILE_NAME(
/* name */ 'zpos_3.step',
/* time_stamp */ '2025-08-04T20:19:43+01:00',
/* author */ (''),
/* organization */ (''),
/* preprocessor_version */ 'ST-DEVELOPER v20.1',
/* originating_system */ 'Autodesk Translation Framework v14.10.0.0',
/* authorisation */ '');

FILE_SCHEMA (('AUTOMOTIVE_DESIGN { 1 0 10303 214 3 1 1 }'));
ENDSEC;

DATA;
#10=MECHANICAL_DESIGN_GEOMETRIC_PRESENTATION_REPRESENTATION('',(#13),#1009);
#11=SHAPE_REPRESENTATION_RELATIONSHIP('SRR','None',#1016,#12);
#12=ADVANCED_BREP_SHAPE_REPRESENTATION('',(#14),#1008);
#13=STYLED_ITEM('',(#1026),#14);
#14=MANIFOLD_SOLID_BREP('Body2',#633);
#15=FACE_BOUND('',#86,.T.);
#16=FACE_BOUND('',#87,.T.);
#17=FACE_BOUND('',#88,.T.);
#18=FACE_BOUND('',#89,.T.);
#19=FACE_BOUND('',#90,.T.);
#20=FACE_BOUND('',#91,.T.);
#21=FACE_BOUND('',#92,.T.);
#22=FACE_BOUND('',#105,.T.);
#23=FACE_BOUND('',#106,.T.);
#24=FACE_BOUND('',#107,.T.);
#25=FACE_BOUND('',#108,.T.);
#26=FACE_BOUND('',#109,.T.);
#27=FACE_BOUND('',#110,.T.);
#28=FACE_BOUND('',#111,.T.);
#29=CIRCLE('',#664,24.);
#30=CIRCLE('',#665,24.);
#31=CIRCLE('',#667,0.999999999999996);
#32=CIRCLE('',#668,0.999999999999996);
#33=CIRCLE('',#675,0.999999999999996);
#34=CIRCLE('',#677,0.999999999999996);
#35=CYLINDRICAL_SURFACE('',#663,24.);
#36=CYLINDRICAL_SURFACE('',#674,0.999999999999996);
#37=CYLINDRICAL_SURFACE('',#676,0.999999999999996);
#38=FACE_OUTER_BOUND('',#68,.T.);
#39=FACE_OUTER_BOUND('',#69,.T.);
#40=FACE_OUTER_BOUND('',#70,.T.);
#41=FACE_OUTER_BOUND('',#71,.T.);
#42=FACE_OUTER_BOUND('',#72,.T.);
#43=FACE_OUTER_BOUND('',#73,.T.);
#44=FACE_OUTER_BOUND('',#74,.T.);
#45=FACE_OUTER_BOUND('',#75,.T.);
#46=FACE_OUTER_BOUND('',#76,.T.);
#47=FACE_OUTER_BOUND('',#77,.T.);
#48=FACE_OUTER_BOUND('',#78,.T.);
#49=FACE_OUTER_BOUND('',#79,.T.);
#50=FACE_OUTER_BOUND('',#80,.T.);
#51=FACE_OUTER_BOUND('',#81,.T.);
#52=FACE_OUTER_BOUND('',#82,.T.);
#53=FACE_OUTER_BOUND('',#83,.T.);
#54=FACE_OUTER_BOUND('',#84,.T.);
#55=FACE_OUTER_BOUND('',#85,.T.);
#56=FACE_OUTER_BOUND('',#93,.T.);
#57=FACE_OUTER_BOUND('',#94,.T.);
#58=FACE_OUTER_BOUND('',#95,.T.);
#59=FACE_OUTER_BOUND('',#96,.T.);
#60=FACE_OUTER_BOUND('',#97,.T.);
#61=FACE_OUTER_BOUND('',#98,.T.);
#62=FACE_OUTER_BOUND('',#99,.T.);
#63=FACE_OUTER_BOUND('',#100,.T.);
#64=FACE_OUTER_BOUND('',#101,.T.);
#65=FACE_OUTER_BOUND('',#102,.T.);
#66=FACE_OUTER_BOUND('',#103,.T.);
#67=FACE_OUTER_BOUND('',#104,.T.);
#68=EDGE_LOOP('',(#408,#409,#410,#411));
#69=EDGE_LOOP('',(#412,#413,#414,#415));
#70=EDGE_LOOP('',(#416,#417,#418,#419));
#71=EDGE_LOOP('',(#420,#421,#422,#423));
#72=EDGE_LOOP('',(#424,#425,#426,#427));
#73=EDGE_LOOP('',(#428,#429,#430,#431));
#74=EDGE_LOOP('',(#432,#433,#434,#435));
#75=EDGE_LOOP('',(#436,#437,#438,#439));
#76=EDGE_LOOP('',(#440,#441,#442,#443));
#77=EDGE_LOOP('',(#444,#445,#446,#447));
#78=EDGE_LOOP('',(#448,#449,#450,#451));
#79=EDGE_LOOP('',(#452,#453,#454,#455));
#80=EDGE_LOOP('',(#456,#457,#458,#459));
#81=EDGE_LOOP('',(#460,#461,#462,#463));
#82=EDGE_LOOP('',(#464,#465,#466,#467));
#83=EDGE_LOOP('',(#468,#469,#470,#471));
#84=EDGE_LOOP('',(#472,#473,#474,#475));
#85=EDGE_LOOP('',(#476,#477,#478,#479,#480,#481));
#86=EDGE_LOOP('',(#482,#483,#484,#485));
#87=EDGE_LOOP('',(#486,#487,#488,#489));
#88=EDGE_LOOP('',(#490,#491,#492,#493));
#89=EDGE_LOOP('',(#494,#495,#496,#497));
#90=EDGE_LOOP('',(#498,#499,#500,#501));
#91=EDGE_LOOP('',(#502));
#92=EDGE_LOOP('',(#503));
#93=EDGE_LOOP('',(#504,#505,#506,#507));
#94=EDGE_LOOP('',(#508,#509,#510,#511));
#95=EDGE_LOOP('',(#512,#513,#514,#515));
#96=EDGE_LOOP('',(#516,#517,#518,#519));
#97=EDGE_LOOP('',(#520,#521,#522,#523));
#98=EDGE_LOOP('',(#524,#525,#526,#527));
#99=EDGE_LOOP('',(#528,#529,#530,#531));
#100=EDGE_LOOP('',(#532,#533,#534,#535));
#101=EDGE_LOOP('',(#536,#537,#538,#539));
#102=EDGE_LOOP('',(#540,#541,#542,#543));
#103=EDGE_LOOP('',(#544,#545,#546,#547));
#104=EDGE_LOOP('',(#548,#549,#550,#551,#552,#553));
#105=EDGE_LOOP('',(#554,#555,#556,#557));
#106=EDGE_LOOP('',(#558,#559,#560,#561));
#107=EDGE_LOOP('',(#562,#563,#564,#565));
#108=EDGE_LOOP('',(#566,#567,#568,#569));
#109=EDGE_LOOP('',(#570,#571,#572,#573));
#110=EDGE_LOOP('',(#574));
#111=EDGE_LOOP('',(#575));
#112=LINE('',#839,#190);
#113=LINE('',#841,#191);
#114=LINE('',#843,#192);
#115=LINE('',#844,#193);
#116=LINE('',#847,#194);
#117=LINE('',#849,#195);
#118=LINE('',#850,#196);
#119=LINE('',#853,#197);
#120=LINE('',#855,#198);
#121=LINE('',#856,#199);
#122=LINE('',#858,#200);
#123=LINE('',#859,#201);
#124=LINE('',#863,#202);
#125=LINE('',#865,#203);
#126=LINE('',#867,#204);
#127=LINE('',#868,#205);
#128=LINE('',#871,#206);
#129=LINE('',#873,#207);
#130=LINE('',#874,#208);
#131=LINE('',#877,#209);
#132=LINE('',#879,#210);
#133=LINE('',#880,#211);
#134=LINE('',#882,#212);
#135=LINE('',#883,#213);
#136=LINE('',#887,#214);
#137=LINE('',#889,#215);
#138=LINE('',#891,#216);
#139=LINE('',#892,#217);
#140=LINE('',#895,#218);
#141=LINE('',#897,#219);
#142=LINE('',#898,#220);
#143=LINE('',#901,#221);
#144=LINE('',#903,#222);
#145=LINE('',#904,#223);
#146=LINE('',#906,#224);
#147=LINE('',#907,#225);
#148=LINE('',#911,#226);
#149=LINE('',#913,#227);
#150=LINE('',#915,#228);
#151=LINE('',#916,#229);
#152=LINE('',#919,#230);
#153=LINE('',#921,#231);
#154=LINE('',#922,#232);
#155=LINE('',#925,#233);
#156=LINE('',#927,#234);
#157=LINE('',#928,#235);
#158=LINE('',#930,#236);
#159=LINE('',#931,#237);
#160=LINE('',#937,#238);
#161=LINE('',#940,#239);
#162=LINE('',#944,#240);
#163=LINE('',#946,#241);
#164=LINE('',#947,#242);
#165=LINE('',#949,#243);
#166=LINE('',#950,#244);
#167=LINE('',#953,#245);
#168=LINE('',#955,#246);
#169=LINE('',#957,#247);
#170=LINE('',#958,#248);
#171=LINE('',#965,#249);
#172=LINE('',#967,#250);
#173=LINE('',#968,#251);
#174=LINE('',#971,#252);
#175=LINE('',#972,#253);
#176=LINE('',#975,#254);
#177=LINE('',#976,#255);
#178=LINE('',#979,#256);
#179=LINE('',#980,#257);
#180=LINE('',#983,#258);
#181=LINE('',#984,#259);
#182=LINE('',#988,#260);
#183=LINE('',#992,#261);
#184=LINE('',#995,#262);
#185=LINE('',#996,#263);
#186=LINE('',#998,#264);
#187=LINE('',#1001,#265);
#188=LINE('',#1002,#266);
#189=LINE('',#1004,#267);
#190=VECTOR('',#687,10.);
#191=VECTOR('',#688,10.);
#192=VECTOR('',#689,10.);
#193=VECTOR('',#690,10.);
#194=VECTOR('',#693,10.);
#195=VECTOR('',#694,10.);
#196=VECTOR('',#695,10.);
#197=VECTOR('',#698,10.);
#198=VECTOR('',#699,10.);
#199=VECTOR('',#700,10.);
#200=VECTOR('',#703,10.);
#201=VECTOR('',#704,10.);
#202=VECTOR('',#707,10.);
#203=VECTOR('',#708,10.);
#204=VECTOR('',#709,10.);
#205=VECTOR('',#710,10.);
#206=VECTOR('',#713,10.);
#207=VECTOR('',#714,10.);
#208=VECTOR('',#715,10.);
#209=VECTOR('',#718,10.);
#210=VECTOR('',#719,10.);
#211=VECTOR('',#720,10.);
#212=VECTOR('',#723,10.);
#213=VECTOR('',#724,10.);
#214=VECTOR('',#727,10.);
#215=VECTOR('',#728,10.);
#216=VECTOR('',#729,10.);
#217=VECTOR('',#730,10.);
#218=VECTOR('',#733,10.);
#219=VECTOR('',#734,10.);
#220=VECTOR('',#735,10.);
#221=VECTOR('',#738,10.);
#222=VECTOR('',#739,10.);
#223=VECTOR('',#740,10.);
#224=VECTOR('',#743,10.);
#225=VECTOR('',#744,10.);
#226=VECTOR('',#747,10.);
#227=VECTOR('',#748,10.);
#228=VECTOR('',#749,10.);
#229=VECTOR('',#750,10.);
#230=VECTOR('',#753,10.);
#231=VECTOR('',#754,10.);
#232=VECTOR('',#755,10.);
#233=VECTOR('',#758,10.);
#234=VECTOR('',#759,10.);
#235=VECTOR('',#760,10.);
#236=VECTOR('',#763,10.);
#237=VECTOR('',#764,10.);
#238=VECTOR('',#769,24.);
#239=VECTOR('',#772,10.);
#240=VECTOR('',#775,10.);
#241=VECTOR('',#776,10.);
#242=VECTOR('',#777,10.);
#243=VECTOR('',#778,10.);
#244=VECTOR('',#779,10.);
#245=VECTOR('',#780,10.);
#246=VECTOR('',#781,10.);
#247=VECTOR('',#782,10.);
#248=VECTOR('',#783,10.);
#249=VECTOR('',#790,10.);
#250=VECTOR('',#791,10.);
#251=VECTOR('',#792,10.);
#252=VECTOR('',#795,10.);
#253=VECTOR('',#796,10.);
#254=VECTOR('',#799,10.);
#255=VECTOR('',#800,10.);
#256=VECTOR('',#803,10.);
#257=VECTOR('',#804,10.);
#258=VECTOR('',#807,10.);
#259=VECTOR('',#808,10.);
#260=VECTOR('',#813,0.999999999999996);
#261=VECTOR('',#818,0.999999999999996);
#262=VECTOR('',#821,10.);
#263=VECTOR('',#822,10.);
#264=VECTOR('',#825,10.);
#265=VECTOR('',#828,10.);
#266=VECTOR('',#829,10.);
#267=VECTOR('',#832,10.);
#268=VERTEX_POINT('',#837);
#269=VERTEX_POINT('',#838);
#270=VERTEX_POINT('',#840);
#271=VERTEX_POINT('',#842);
#272=VERTEX_POINT('',#846);
#273=VERTEX_POINT('',#848);
#274=VERTEX_POINT('',#852);
#275=VERTEX_POINT('',#854);
#276=VERTEX_POINT('',#861);
#277=VERTEX_POINT('',#862);
#278=VERTEX_POINT('',#864);
#279=VERTEX_POINT('',#866);
#280=VERTEX_POINT('',#870);
#281=VERTEX_POINT('',#872);
#282=VERTEX_POINT('',#876);
#283=VERTEX_POINT('',#878);
#284=VERTEX_POINT('',#885);
#285=VERTEX_POINT('',#886);
#286=VERTEX_POINT('',#888);
#287=VERTEX_POINT('',#890);
#288=VERTEX_POINT('',#894);
#289=VERTEX_POINT('',#896);
#290=VERTEX_POINT('',#900);
#291=VERTEX_POINT('',#902);
#292=VERTEX_POINT('',#909);
#293=VERTEX_POINT('',#910);
#294=VERTEX_POINT('',#912);
#295=VERTEX_POINT('',#914);
#296=VERTEX_POINT('',#918);
#297=VERTEX_POINT('',#920);
#298=VERTEX_POINT('',#924);
#299=VERTEX_POINT('',#926);
#300=VERTEX_POINT('',#933);
#301=VERTEX_POINT('',#934);
#302=VERTEX_POINT('',#936);
#303=VERTEX_POINT('',#938);
#304=VERTEX_POINT('',#942);
#305=VERTEX_POINT('',#943);
#306=VERTEX_POINT('',#945);
#307=VERTEX_POINT('',#948);
#308=VERTEX_POINT('',#951);
#309=VERTEX_POINT('',#952);
#310=VERTEX_POINT('',#954);
#311=VERTEX_POINT('',#956);
#312=VERTEX_POINT('',#959);
#313=VERTEX_POINT('',#961);
#314=VERTEX_POINT('',#964);
#315=VERTEX_POINT('',#966);
#316=VERTEX_POINT('',#970);
#317=VERTEX_POINT('',#974);
#318=VERTEX_POINT('',#978);
#319=VERTEX_POINT('',#982);
#320=VERTEX_POINT('',#986);
#321=VERTEX_POINT('',#990);
#322=VERTEX_POINT('',#994);
#323=VERTEX_POINT('',#1000);
#324=EDGE_CURVE('',#268,#269,#112,.T.);
#325=EDGE_CURVE('',#268,#270,#113,.T.);
#326=EDGE_CURVE('',#271,#270,#114,.T.);
#327=EDGE_CURVE('',#269,#271,#115,.T.);
#328=EDGE_CURVE('',#272,#268,#116,.T.);
#329=EDGE_CURVE('',#272,#273,#117,.T.);
#330=EDGE_CURVE('',#270,#273,#118,.T.);
#331=EDGE_CURVE('',#274,#272,#119,.T.);
#332=EDGE_CURVE('',#274,#275,#120,.T.);
#333=EDGE_CURVE('',#273,#275,#121,.T.);
#334=EDGE_CURVE('',#269,#274,#122,.T.);
#335=EDGE_CURVE('',#275,#271,#123,.T.);
#336=EDGE_CURVE('',#276,#277,#124,.T.);
#337=EDGE_CURVE('',#276,#278,#125,.T.);
#338=EDGE_CURVE('',#279,#278,#126,.T.);
#339=EDGE_CURVE('',#277,#279,#127,.T.);
#340=EDGE_CURVE('',#280,#276,#128,.T.);
#341=EDGE_CURVE('',#280,#281,#129,.T.);
#342=EDGE_CURVE('',#278,#281,#130,.T.);
#343=EDGE_CURVE('',#282,#280,#131,.T.);
#344=EDGE_CURVE('',#282,#283,#132,.T.);
#345=EDGE_CURVE('',#281,#283,#133,.T.);
#346=EDGE_CURVE('',#277,#282,#134,.T.);
#347=EDGE_CURVE('',#283,#279,#135,.T.);
#348=EDGE_CURVE('',#284,#285,#136,.T.);
#349=EDGE_CURVE('',#284,#286,#137,.T.);
#350=EDGE_CURVE('',#287,#286,#138,.T.);
#351=EDGE_CURVE('',#285,#287,#139,.T.);
#352=EDGE_CURVE('',#288,#284,#140,.T.);
#353=EDGE_CURVE('',#288,#289,#141,.T.);
#354=EDGE_CURVE('',#286,#289,#142,.T.);
#355=EDGE_CURVE('',#290,#288,#143,.T.);
#356=EDGE_CURVE('',#290,#291,#144,.T.);
#357=EDGE_CURVE('',#289,#291,#145,.T.);
#358=EDGE_CURVE('',#285,#290,#146,.T.);
#359=EDGE_CURVE('',#291,#287,#147,.T.);
#360=EDGE_CURVE('',#292,#293,#148,.T.);
#361=EDGE_CURVE('',#292,#294,#149,.T.);
#362=EDGE_CURVE('',#295,#294,#150,.T.);
#363=EDGE_CURVE('',#293,#295,#151,.T.);
#364=EDGE_CURVE('',#296,#292,#152,.T.);
#365=EDGE_CURVE('',#296,#297,#153,.T.);
#366=EDGE_CURVE('',#294,#297,#154,.T.);
#367=EDGE_CURVE('',#298,#296,#155,.T.);
#368=EDGE_CURVE('',#298,#299,#156,.T.);
#369=EDGE_CURVE('',#297,#299,#157,.T.);
#370=EDGE_CURVE('',#293,#298,#158,.T.);
#371=EDGE_CURVE('',#299,#295,#159,.T.);
#372=EDGE_CURVE('',#300,#301,#29,.T.);
#373=EDGE_CURVE('',#301,#302,#160,.T.);
#374=EDGE_CURVE('',#303,#302,#30,.F.);
#375=EDGE_CURVE('',#303,#300,#161,.T.);
#376=EDGE_CURVE('',#304,#305,#162,.T.);
#377=EDGE_CURVE('',#306,#304,#163,.T.);
#378=EDGE_CURVE('',#303,#306,#164,.T.);
#379=EDGE_CURVE('',#307,#302,#165,.T.);
#380=EDGE_CURVE('',#305,#307,#166,.T.);
#381=EDGE_CURVE('',#308,#309,#167,.T.);
#382=EDGE_CURVE('',#310,#308,#168,.T.);
#383=EDGE_CURVE('',#311,#310,#169,.T.);
#384=EDGE_CURVE('',#309,#311,#170,.T.);
#385=EDGE_CURVE('',#312,#312,#31,.T.);
#386=EDGE_CURVE('',#313,#313,#32,.T.);
#387=EDGE_CURVE('',#308,#314,#171,.T.);
#388=EDGE_CURVE('',#315,#314,#172,.T.);
#389=EDGE_CURVE('',#310,#315,#173,.T.);
#390=EDGE_CURVE('',#309,#316,#174,.T.);
#391=EDGE_CURVE('',#314,#316,#175,.T.);
#392=EDGE_CURVE('',#306,#317,#176,.T.);
#393=EDGE_CURVE('',#300,#317,#177,.T.);
#394=EDGE_CURVE('',#304,#318,#178,.T.);
#395=EDGE_CURVE('',#317,#318,#179,.T.);
#396=EDGE_CURVE('',#305,#319,#180,.T.);
#397=EDGE_CURVE('',#318,#319,#181,.T.);
#398=EDGE_CURVE('',#320,#320,#33,.T.);
#399=EDGE_CURVE('',#320,#313,#182,.T.);
#400=EDGE_CURVE('',#321,#321,#34,.T.);
#401=EDGE_CURVE('',#321,#312,#183,.T.);
#402=EDGE_CURVE('',#322,#315,#184,.T.);
#403=EDGE_CURVE('',#311,#322,#185,.T.);
#404=EDGE_CURVE('',#316,#322,#186,.T.);
#405=EDGE_CURVE('',#323,#301,#187,.T.);
#406=EDGE_CURVE('',#307,#323,#188,.T.);
#407=EDGE_CURVE('',#319,#323,#189,.T.);
#408=ORIENTED_EDGE('',*,*,#324,.F.);
#409=ORIENTED_EDGE('',*,*,#325,.T.);
#410=ORIENTED_EDGE('',*,*,#326,.F.);
#411=ORIENTED_EDGE('',*,*,#327,.F.);
#412=ORIENTED_EDGE('',*,*,#328,.F.);
#413=ORIENTED_EDGE('',*,*,#329,.T.);
#414=ORIENTED_EDGE('',*,*,#330,.F.);
#415=ORIENTED_EDGE('',*,*,#325,.F.);
#416=ORIENTED_EDGE('',*,*,#331,.F.);
#417=ORIENTED_EDGE('',*,*,#332,.T.);
#418=ORIENTED_EDGE('',*,*,#333,.F.);
#419=ORIENTED_EDGE('',*,*,#329,.F.);
#420=ORIENTED_EDGE('',*,*,#334,.F.);
#421=ORIENTED_EDGE('',*,*,#327,.T.);
#422=ORIENTED_EDGE('',*,*,#335,.F.);
#423=ORIENTED_EDGE('',*,*,#332,.F.);
#424=ORIENTED_EDGE('',*,*,#336,.F.);
#425=ORIENTED_EDGE('',*,*,#337,.T.);
#426=ORIENTED_EDGE('',*,*,#338,.F.);
#427=ORIENTED_EDGE('',*,*,#339,.F.);
#428=ORIENTED_EDGE('',*,*,#340,.F.);
#429=ORIENTED_EDGE('',*,*,#341,.T.);
#430=ORIENTED_EDGE('',*,*,#342,.F.);
#431=ORIENTED_EDGE('',*,*,#337,.F.);
#432=ORIENTED_EDGE('',*,*,#343,.F.);
#433=ORIENTED_EDGE('',*,*,#344,.T.);
#434=ORIENTED_EDGE('',*,*,#345,.F.);
#435=ORIENTED_EDGE('',*,*,#341,.F.);
#436=ORIENTED_EDGE('',*,*,#346,.F.);
#437=ORIENTED_EDGE('',*,*,#339,.T.);
#438=ORIENTED_EDGE('',*,*,#347,.F.);
#439=ORIENTED_EDGE('',*,*,#344,.F.);
#440=ORIENTED_EDGE('',*,*,#348,.F.);
#441=ORIENTED_EDGE('',*,*,#349,.T.);
#442=ORIENTED_EDGE('',*,*,#350,.F.);
#443=ORIENTED_EDGE('',*,*,#351,.F.);
#444=ORIENTED_EDGE('',*,*,#352,.F.);
#445=ORIENTED_EDGE('',*,*,#353,.T.);
#446=ORIENTED_EDGE('',*,*,#354,.F.);
#447=ORIENTED_EDGE('',*,*,#349,.F.);
#448=ORIENTED_EDGE('',*,*,#355,.F.);
#449=ORIENTED_EDGE('',*,*,#356,.T.);
#450=ORIENTED_EDGE('',*,*,#357,.F.);
#451=ORIENTED_EDGE('',*,*,#353,.F.);
#452=ORIENTED_EDGE('',*,*,#358,.F.);
#453=ORIENTED_EDGE('',*,*,#351,.T.);
#454=ORIENTED_EDGE('',*,*,#359,.F.);
#455=ORIENTED_EDGE('',*,*,#356,.F.);
#456=ORIENTED_EDGE('',*,*,#360,.F.);
#457=ORIENTED_EDGE('',*,*,#361,.T.);
#458=ORIENTED_EDGE('',*,*,#362,.F.);
#459=ORIENTED_EDGE('',*,*,#363,.F.);
#460=ORIENTED_EDGE('',*,*,#364,.F.);
#461=ORIENTED_EDGE('',*,*,#365,.T.);
#462=ORIENTED_EDGE('',*,*,#366,.F.);
#463=ORIENTED_EDGE('',*,*,#361,.F.);
#464=ORIENTED_EDGE('',*,*,#367,.F.);
#465=ORIENTED_EDGE('',*,*,#368,.T.);
#466=ORIENTED_EDGE('',*,*,#369,.F.);
#467=ORIENTED_EDGE('',*,*,#365,.F.);
#468=ORIENTED_EDGE('',*,*,#370,.F.);
#469=ORIENTED_EDGE('',*,*,#363,.T.);
#470=ORIENTED_EDGE('',*,*,#371,.F.);
#471=ORIENTED_EDGE('',*,*,#368,.F.);
#472=ORIENTED_EDGE('',*,*,#372,.T.);
#473=ORIENTED_EDGE('',*,*,#373,.T.);
#474=ORIENTED_EDGE('',*,*,#374,.F.);
#475=ORIENTED_EDGE('',*,*,#375,.T.);
#476=ORIENTED_EDGE('',*,*,#376,.F.);
#477=ORIENTED_EDGE('',*,*,#377,.F.);
#478=ORIENTED_EDGE('',*,*,#378,.F.);
#479=ORIENTED_EDGE('',*,*,#374,.T.);
#480=ORIENTED_EDGE('',*,*,#379,.F.);
#481=ORIENTED_EDGE('',*,*,#380,.F.);
#482=ORIENTED_EDGE('',*,*,#324,.T.);
#483=ORIENTED_EDGE('',*,*,#334,.T.);
#484=ORIENTED_EDGE('',*,*,#331,.T.);
#485=ORIENTED_EDGE('',*,*,#328,.T.);
#486=ORIENTED_EDGE('',*,*,#336,.T.);
#487=ORIENTED_EDGE('',*,*,#346,.T.);
#488=ORIENTED_EDGE('',*,*,#343,.T.);
#489=ORIENTED_EDGE('',*,*,#340,.T.);
#490=ORIENTED_EDGE('',*,*,#348,.T.);
#491=ORIENTED_EDGE('',*,*,#358,.T.);
#492=ORIENTED_EDGE('',*,*,#355,.T.);
#493=ORIENTED_EDGE('',*,*,#352,.T.);
#494=ORIENTED_EDGE('',*,*,#360,.T.);
#495=ORIENTED_EDGE('',*,*,#370,.T.);
#496=ORIENTED_EDGE('',*,*,#367,.T.);
#497=ORIENTED_EDGE('',*,*,#364,.T.);
#498=ORIENTED_EDGE('',*,*,#381,.F.);
#499=ORIENTED_EDGE('',*,*,#382,.F.);
#500=ORIENTED_EDGE('',*,*,#383,.F.);
#501=ORIENTED_EDGE('',*,*,#384,.F.);
#502=ORIENTED_EDGE('',*,*,#385,.F.);
#503=ORIENTED_EDGE('',*,*,#386,.F.);
#504=ORIENTED_EDGE('',*,*,#382,.T.);
#505=ORIENTED_EDGE('',*,*,#387,.T.);
#506=ORIENTED_EDGE('',*,*,#388,.F.);
#507=ORIENTED_EDGE('',*,*,#389,.F.);
#508=ORIENTED_EDGE('',*,*,#381,.T.);
#509=ORIENTED_EDGE('',*,*,#390,.T.);
#510=ORIENTED_EDGE('',*,*,#391,.F.);
#511=ORIENTED_EDGE('',*,*,#387,.F.);
#512=ORIENTED_EDGE('',*,*,#378,.T.);
#513=ORIENTED_EDGE('',*,*,#392,.T.);
#514=ORIENTED_EDGE('',*,*,#393,.F.);
#515=ORIENTED_EDGE('',*,*,#375,.F.);
#516=ORIENTED_EDGE('',*,*,#377,.T.);
#517=ORIENTED_EDGE('',*,*,#394,.T.);
#518=ORIENTED_EDGE('',*,*,#395,.F.);
#519=ORIENTED_EDGE('',*,*,#392,.F.);
#520=ORIENTED_EDGE('',*,*,#376,.T.);
#521=ORIENTED_EDGE('',*,*,#396,.T.);
#522=ORIENTED_EDGE('',*,*,#397,.F.);
#523=ORIENTED_EDGE('',*,*,#394,.F.);
#524=ORIENTED_EDGE('',*,*,#398,.F.);
#525=ORIENTED_EDGE('',*,*,#399,.T.);
#526=ORIENTED_EDGE('',*,*,#386,.T.);
#527=ORIENTED_EDGE('',*,*,#399,.F.);
#528=ORIENTED_EDGE('',*,*,#400,.F.);
#529=ORIENTED_EDGE('',*,*,#401,.T.);
#530=ORIENTED_EDGE('',*,*,#385,.T.);
#531=ORIENTED_EDGE('',*,*,#401,.F.);
#532=ORIENTED_EDGE('',*,*,#383,.T.);
#533=ORIENTED_EDGE('',*,*,#389,.T.);
#534=ORIENTED_EDGE('',*,*,#402,.F.);
#535=ORIENTED_EDGE('',*,*,#403,.F.);
#536=ORIENTED_EDGE('',*,*,#384,.T.);
#537=ORIENTED_EDGE('',*,*,#403,.T.);
#538=ORIENTED_EDGE('',*,*,#404,.F.);
#539=ORIENTED_EDGE('',*,*,#390,.F.);
#540=ORIENTED_EDGE('',*,*,#373,.F.);
#541=ORIENTED_EDGE('',*,*,#405,.F.);
#542=ORIENTED_EDGE('',*,*,#406,.F.);
#543=ORIENTED_EDGE('',*,*,#379,.T.);
#544=ORIENTED_EDGE('',*,*,#380,.T.);
#545=ORIENTED_EDGE('',*,*,#406,.T.);
#546=ORIENTED_EDGE('',*,*,#407,.F.);
#547=ORIENTED_EDGE('',*,*,#396,.F.);
#548=ORIENTED_EDGE('',*,*,#397,.T.);
#549=ORIENTED_EDGE('',*,*,#407,.T.);
#550=ORIENTED_EDGE('',*,*,#405,.T.);
#551=ORIENTED_EDGE('',*,*,#372,.F.);
#552=ORIENTED_EDGE('',*,*,#393,.T.);
#553=ORIENTED_EDGE('',*,*,#395,.T.);
#554=ORIENTED_EDGE('',*,*,#326,.T.);
#555=ORIENTED_EDGE('',*,*,#330,.T.);
#556=ORIENTED_EDGE('',*,*,#333,.T.);
#557=ORIENTED_EDGE('',*,*,#335,.T.);
#558=ORIENTED_EDGE('',*,*,#338,.T.);
#559=ORIENTED_EDGE('',*,*,#342,.T.);
#560=ORIENTED_EDGE('',*,*,#345,.T.);
#561=ORIENTED_EDGE('',*,*,#347,.T.);
#562=ORIENTED_EDGE('',*,*,#350,.T.);
#563=ORIENTED_EDGE('',*,*,#354,.T.);
#564=ORIENTED_EDGE('',*,*,#357,.T.);
#565=ORIENTED_EDGE('',*,*,#359,.T.);
#566=ORIENTED_EDGE('',*,*,#362,.T.);
#567=ORIENTED_EDGE('',*,*,#366,.T.);
#568=ORIENTED_EDGE('',*,*,#369,.T.);
#569=ORIENTED_EDGE('',*,*,#371,.T.);
#570=ORIENTED_EDGE('',*,*,#391,.T.);
#571=ORIENTED_EDGE('',*,*,#404,.T.);
#572=ORIENTED_EDGE('',*,*,#402,.T.);
#573=ORIENTED_EDGE('',*,*,#388,.T.);
#574=ORIENTED_EDGE('',*,*,#400,.T.);
#575=ORIENTED_EDGE('',*,*,#398,.T.);
#576=PLANE('',#647);
#577=PLANE('',#648);
#578=PLANE('',#649);
#579=PLANE('',#650);
#580=PLANE('',#651);
#581=PLANE('',#652);
#582=PLANE('',#653);
#583=PLANE('',#654);
#584=PLANE('',#655);
#585=PLANE('',#656);
#586=PLANE('',#657);
#587=PLANE('',#658);
#588=PLANE('',#659);
#589=PLANE('',#660);
#590=PLANE('',#661);
#591=PLANE('',#662);
#592=PLANE('',#666);
#593=PLANE('',#669);
#594=PLANE('',#670);
#595=PLANE('',#671);
#596=PLANE('',#672);
#597=PLANE('',#673);
#598=PLANE('',#678);
#599=PLANE('',#679);
#600=PLANE('',#680);
#601=PLANE('',#681);
#602=PLANE('',#682);
#603=ADVANCED_FACE('',(#38),#576,.F.);
#604=ADVANCED_FACE('',(#39),#577,.F.);
#605=ADVANCED_FACE('',(#40),#578,.F.);
#606=ADVANCED_FACE('',(#41),#579,.F.);
#607=ADVANCED_FACE('',(#42),#580,.F.);
#608=ADVANCED_FACE('',(#43),#581,.F.);
#609=ADVANCED_FACE('',(#44),#582,.F.);
#610=ADVANCED_FACE('',(#45),#583,.F.);
#611=ADVANCED_FACE('',(#46),#584,.F.);
#612=ADVANCED_FACE('',(#47),#585,.F.);
#613=ADVANCED_FACE('',(#48),#586,.F.);
#614=ADVANCED_FACE('',(#49),#587,.F.);
#615=ADVANCED_FACE('',(#50),#588,.F.);
#616=ADVANCED_FACE('',(#51),#589,.F.);
#617=ADVANCED_FACE('',(#52),#590,.F.);
#618=ADVANCED_FACE('',(#53),#591,.F.);
#619=ADVANCED_FACE('',(#54),#35,.F.);
#620=ADVANCED_FACE('',(#55,#15,#16,#17,#18,#19,#20,#21),#592,.T.);
#621=ADVANCED_FACE('',(#56),#593,.T.);
#622=ADVANCED_FACE('',(#57),#594,.T.);
#623=ADVANCED_FACE('',(#58),#595,.T.);
#624=ADVANCED_FACE('',(#59),#596,.T.);
#625=ADVANCED_FACE('',(#60),#597,.T.);
#626=ADVANCED_FACE('',(#61),#36,.F.);
#627=ADVANCED_FACE('',(#62),#37,.F.);
#628=ADVANCED_FACE('',(#63),#598,.T.);
#629=ADVANCED_FACE('',(#64),#599,.T.);
#630=ADVANCED_FACE('',(#65),#600,.T.);
#631=ADVANCED_FACE('',(#66),#601,.T.);
#632=ADVANCED_FACE('',(#67,#22,#23,#24,#25,#26,#27,#28),#602,.F.);
#633=CLOSED_SHELL('',(#603,#604,#605,#606,#607,#608,#609,#610,#611,#612,
#613,#614,#615,#616,#617,#618,#619,#620,#621,#622,#623,#624,#625,#626,#627,
#628,#629,#630,#631,#632));
#634=DERIVED_UNIT_ELEMENT(#636,1.);
#635=DERIVED_UNIT_ELEMENT(#1011,-3.);
#636=(
MASS_UNIT()
NAMED_UNIT(*)
SI_UNIT(.KILO.,.GRAM.)
);
#637=DERIVED_UNIT((#634,#635));
#638=MEASURE_REPRESENTATION_ITEM('density measure',
POSITIVE_RATIO_MEASURE(7850.),#637);
#639=PROPERTY_DEFINITION_REPRESENTATION(#644,#641);
#640=PROPERTY_DEFINITION_REPRESENTATION(#645,#642);
#641=REPRESENTATION('material name',(#643),#1008);
#642=REPRESENTATION('density',(#638),#1008);
#643=DESCRIPTIVE_REPRESENTATION_ITEM('Steel','Steel');
#644=PROPERTY_DEFINITION('material property','material name',#1018);
#645=PROPERTY_DEFINITION('material property','density of part',#1018);
#646=AXIS2_PLACEMENT_3D('',#835,#683,#684);
#647=AXIS2_PLACEMENT_3D('',#836,#685,#686);
#648=AXIS2_PLACEMENT_3D('',#845,#691,#692);
#649=AXIS2_PLACEMENT_3D('',#851,#696,#697);
#650=AXIS2_PLACEMENT_3D('',#857,#701,#702);
#651=AXIS2_PLACEMENT_3D('',#860,#705,#706);
#652=AXIS2_PLACEMENT_3D('',#869,#711,#712);
#653=AXIS2_PLACEMENT_3D('',#875,#716,#717);
#654=AXIS2_PLACEMENT_3D('',#881,#721,#722);
#655=AXIS2_PLACEMENT_3D('',#884,#725,#726);
#656=AXIS2_PLACEMENT_3D('',#893,#731,#732);
#657=AXIS2_PLACEMENT_3D('',#899,#736,#737);
#658=AXIS2_PLACEMENT_3D('',#905,#741,#742);
#659=AXIS2_PLACEMENT_3D('',#908,#745,#746);
#660=AXIS2_PLACEMENT_3D('',#917,#751,#752);
#661=AXIS2_PLACEMENT_3D('',#923,#756,#757);
#662=AXIS2_PLACEMENT_3D('',#929,#761,#762);
#663=AXIS2_PLACEMENT_3D('',#932,#765,#766);
#664=AXIS2_PLACEMENT_3D('',#935,#767,#768);
#665=AXIS2_PLACEMENT_3D('',#939,#770,#771);
#666=AXIS2_PLACEMENT_3D('',#941,#773,#774);
#667=AXIS2_PLACEMENT_3D('',#960,#784,#785);
#668=AXIS2_PLACEMENT_3D('',#962,#786,#787);
#669=AXIS2_PLACEMENT_3D('',#963,#788,#789);
#670=AXIS2_PLACEMENT_3D('',#969,#793,#794);
#671=AXIS2_PLACEMENT_3D('',#973,#797,#798);
#672=AXIS2_PLACEMENT_3D('',#977,#801,#802);
#673=AXIS2_PLACEMENT_3D('',#981,#805,#806);
#674=AXIS2_PLACEMENT_3D('',#985,#809,#810);
#675=AXIS2_PLACEMENT_3D('',#987,#811,#812);
#676=AXIS2_PLACEMENT_3D('',#989,#814,#815);
#677=AXIS2_PLACEMENT_3D('',#991,#816,#817);
#678=AXIS2_PLACEMENT_3D('',#993,#819,#820);
#679=AXIS2_PLACEMENT_3D('',#997,#823,#824);
#680=AXIS2_PLACEMENT_3D('',#999,#826,#827);
#681=AXIS2_PLACEMENT_3D('',#1003,#830,#831);
#682=AXIS2_PLACEMENT_3D('',#1005,#833,#834);
#683=DIRECTION('axis',(0.,0.,1.));
#684=DIRECTION('refdir',(1.,0.,0.));
#685=DIRECTION('center_axis',(1.,0.,0.));
#686=DIRECTION('ref_axis',(0.,0.,-1.));
#687=DIRECTION('',(0.,0.,-1.));
#688=DIRECTION('',(0.,1.,0.));
#689=DIRECTION('',(0.,0.,1.));
#690=DIRECTION('',(0.,1.,0.));
#691=DIRECTION('center_axis',(0.,0.,1.));
#692=DIRECTION('ref_axis',(1.,0.,0.));
#693=DIRECTION('',(1.,0.,0.));
#694=DIRECTION('',(0.,1.,0.));
#695=DIRECTION('',(-1.,0.,0.));
#696=DIRECTION('center_axis',(-1.,0.,0.));
#697=DIRECTION('ref_axis',(0.,0.,1.));
#698=DIRECTION('',(0.,0.,1.));
#699=DIRECTION('',(0.,1.,0.));
#700=DIRECTION('',(0.,0.,-1.));
#701=DIRECTION('center_axis',(0.,0.,-1.));
#702=DIRECTION('ref_axis',(-1.,0.,0.));
#703=DIRECTION('',(-1.,0.,0.));
#704=DIRECTION('',(1.,0.,0.));
#705=DIRECTION('center_axis',(1.,0.,0.));
#706=DIRECTION('ref_axis',(0.,0.,-1.));
#707=DIRECTION('',(0.,0.,-1.));
#708=DIRECTION('',(0.,1.,0.));
#709=DIRECTION('',(0.,0.,1.));
#710=DIRECTION('',(0.,1.,0.));
#711=DIRECTION('center_axis',(0.,0.,1.));
#712=DIRECTION('ref_axis',(1.,0.,0.));
#713=DIRECTION('',(1.,0.,0.));
#714=DIRECTION('',(0.,1.,0.));
#715=DIRECTION('',(-1.,0.,0.));
#716=DIRECTION('center_axis',(-1.,0.,0.));
#717=DIRECTION('ref_axis',(0.,0.,1.));
#718=DIRECTION('',(0.,0.,1.));
#719=DIRECTION('',(0.,1.,0.));
#720=DIRECTION('',(0.,0.,-1.));
#721=DIRECTION('center_axis',(0.,0.,-1.));
#722=DIRECTION('ref_axis',(-1.,0.,0.));
#723=DIRECTION('',(-1.,0.,0.));
#724=DIRECTION('',(1.,0.,0.));
#725=DIRECTION('center_axis',(1.,0.,0.));
#726=DIRECTION('ref_axis',(0.,0.,-1.));
#727=DIRECTION('',(0.,0.,-1.));
#728=DIRECTION('',(0.,1.,0.));
#729=DIRECTION('',(0.,0.,1.));
#730=DIRECTION('',(0.,1.,0.));
#731=DIRECTION('center_axis',(0.,0.,1.));
#732=DIRECTION('ref_axis',(1.,0.,0.));
#733=DIRECTION('',(1.,0.,0.));
#734=DIRECTION('',(0.,1.,0.));
#735=DIRECTION('',(-1.,0.,0.));
#736=DIRECTION('center_axis',(-1.,0.,0.));
#737=DIRECTION('ref_axis',(0.,0.,1.));
#738=DIRECTION('',(0.,0.,1.));
#739=DIRECTION('',(0.,1.,0.));
#740=DIRECTION('',(0.,0.,-1.));
#741=DIRECTION('center_axis',(0.,0.,-1.));
#742=DIRECTION('ref_axis',(-1.,0.,0.));
#743=DIRECTION('',(-1.,0.,0.));
#744=DIRECTION('',(1.,0.,0.));
#745=DIRECTION('center_axis',(1.,0.,0.));
#746=DIRECTION('ref_axis',(0.,0.,-1.));
#747=DIRECTION('',(0.,0.,-1.));
#748=DIRECTION('',(0.,1.,0.));
#749=DIRECTION('',(0.,0.,1.));
#750=DIRECTION('',(0.,1.,0.));
#751=DIRECTION('center_axis',(0.,0.,1.));
#752=DIRECTION('ref_axis',(1.,0.,0.));
#753=DIRECTION('',(1.,0.,0.));
#754=DIRECTION('',(0.,1.,0.));
#755=DIRECTION('',(-1.,0.,0.));
#756=DIRECTION('center_axis',(-1.,0.,0.));
#757=DIRECTION('ref_axis',(0.,0.,1.));
#758=DIRECTION('',(0.,0.,1.));
#759=DIRECTION('',(0.,1.,0.));
#760=DIRECTION('',(0.,0.,-1.));
#761=DIRECTION('center_axis',(0.,0.,-1.));
#762=DIRECTION('ref_axis',(-1.,0.,0.));
#763=DIRECTION('',(-1.,0.,0.));
#764=DIRECTION('',(1.,0.,0.));
#765=DIRECTION('center_axis',(0.,1.,0.));
#766=DIRECTION('ref_axis',(-0.583333327124516,0.,-0.812232866526492));
#767=DIRECTION('center_axis',(0.,1.,0.));
#768=DIRECTION('ref_axis',(-0.583333327124516,0.,-0.812232866526492));
#769=DIRECTION('',(0.,-1.,0.));
#770=DIRECTION('center_axis',(0.,-1.,0.));
#771=DIRECTION('ref_axis',(-0.583333327124516,0.,-0.812232866526492));
#772=DIRECTION('',(0.,1.,0.));
#773=DIRECTION('center_axis',(0.,-1.,0.));
#774=DIRECTION('ref_axis',(1.,0.,0.));
#775=DIRECTION('',(0.,0.,1.));
#776=DIRECTION('',(-1.,0.,0.));
#777=DIRECTION('',(0.,0.,-1.));
#778=DIRECTION('',(0.,0.,-1.));
#779=DIRECTION('',(1.,0.,0.));
#780=DIRECTION('',(1.,0.,0.));
#781=DIRECTION('',(0.,0.,-1.));
#782=DIRECTION('',(-1.,0.,0.));
#783=DIRECTION('',(0.,0.,1.));
#784=DIRECTION('center_axis',(0.,-1.,0.));
#785=DIRECTION('ref_axis',(1.,0.,0.));
#786=DIRECTION('center_axis',(0.,-1.,0.));
#787=DIRECTION('ref_axis',(1.,0.,0.));
#788=DIRECTION('center_axis',(1.,0.,0.));
#789=DIRECTION('ref_axis',(0.,0.,-1.));
#790=DIRECTION('',(0.,1.,0.));
#791=DIRECTION('',(0.,0.,-1.));
#792=DIRECTION('',(0.,1.,0.));
#793=DIRECTION('center_axis',(0.,0.,1.));
#794=DIRECTION('ref_axis',(1.,0.,0.));
#795=DIRECTION('',(0.,1.,0.));
#796=DIRECTION('',(1.,0.,0.));
#797=DIRECTION('center_axis',(1.,0.,0.));
#798=DIRECTION('ref_axis',(0.,0.,-1.));
#799=DIRECTION('',(0.,1.,0.));
#800=DIRECTION('',(0.,0.,-1.));
#801=DIRECTION('center_axis',(0.,0.,-1.));
#802=DIRECTION('ref_axis',(-1.,0.,0.));
#803=DIRECTION('',(0.,1.,0.));
#804=DIRECTION('',(-1.,0.,0.));
#805=DIRECTION('center_axis',(-1.,0.,0.));
#806=DIRECTION('ref_axis',(0.,0.,1.));
#807=DIRECTION('',(0.,1.,0.));
#808=DIRECTION('',(0.,0.,1.));
#809=DIRECTION('center_axis',(0.,1.,0.));
#810=DIRECTION('ref_axis',(1.,0.,0.));
#811=DIRECTION('center_axis',(0.,-1.,0.));
#812=DIRECTION('ref_axis',(1.,0.,0.));
#813=DIRECTION('',(0.,-1.,0.));
#814=DIRECTION('center_axis',(0.,1.,0.));
#815=DIRECTION('ref_axis',(1.,0.,0.));
#816=DIRECTION('center_axis',(0.,-1.,0.));
#817=DIRECTION('ref_axis',(1.,0.,0.));
#818=DIRECTION('',(0.,-1.,0.));
#819=DIRECTION('center_axis',(0.,0.,-1.));
#820=DIRECTION('ref_axis',(-1.,0.,0.));
#821=DIRECTION('',(-1.,0.,0.));
#822=DIRECTION('',(0.,1.,0.));
#823=DIRECTION('center_axis',(-1.,0.,0.));
#824=DIRECTION('ref_axis',(0.,0.,1.));
#825=DIRECTION('',(0.,0.,1.));
#826=DIRECTION('center_axis',(1.,0.,0.));
#827=DIRECTION('ref_axis',(0.,0.,-1.));
#828=DIRECTION('',(0.,0.,-1.));
#829=DIRECTION('',(0.,1.,0.));
#830=DIRECTION('center_axis',(0.,0.,1.));
#831=DIRECTION('ref_axis',(1.,0.,0.));
#832=DIRECTION('',(1.,0.,0.));
#833=DIRECTION('center_axis',(0.,-1.,0.));
#834=DIRECTION('ref_axis',(1.,0.,0.));
#835=CARTESIAN_POINT('',(0.,0.,0.));
#836=CARTESIAN_POINT('Origin',(-45.8999989740551,-132.000002026558,161.099996518344));
#837=CARTESIAN_POINT('',(-45.8999989740551,-132.000002026558,161.099996518344));
#838=CARTESIAN_POINT('',(-45.8999989740551,-132.000002026558,158.899996567518));
#839=CARTESIAN_POINT('',(-45.8999989740551,-132.000002026558,168.299999566749));
#840=CARTESIAN_POINT('',(-45.8999989740551,-128.000002026558,161.099996518344));
#841=CARTESIAN_POINT('',(-45.8999989740551,-132.000002026558,161.099996518344));
#842=CARTESIAN_POINT('',(-45.8999989740551,-128.000002026558,158.899996567518));
#843=CARTESIAN_POINT('',(-45.8999989740551,-128.000002026558,168.299999566749));
#844=CARTESIAN_POINT('',(-45.8999989740551,-132.000002026558,158.899996567518));
#845=CARTESIAN_POINT('Origin',(-52.0999988354743,-132.000002026558,161.099996518344));
#846=CARTESIAN_POINT('',(-52.0999988354743,-132.000002026558,161.099996518344));
#847=CARTESIAN_POINT('',(-56.049999864772,-132.000002026558,161.099996518344));
#848=CARTESIAN_POINT('',(-52.0999988354743,-128.000002026558,161.099996518344));
#849=CARTESIAN_POINT('',(-52.0999988354743,-132.000002026558,161.099996518344));
#850=CARTESIAN_POINT('',(-56.049999864772,-128.000002026558,161.099996518344));
#851=CARTESIAN_POINT('Origin',(-52.0999988354743,-132.000002026558,158.899996567518));
#852=CARTESIAN_POINT('',(-52.0999988354743,-132.000002026558,158.899996567518));
#853=CARTESIAN_POINT('',(-52.0999988354743,-132.000002026558,167.199999591336));
#854=CARTESIAN_POINT('',(-52.0999988354743,-128.000002026558,158.899996567518));
#855=CARTESIAN_POINT('',(-52.0999988354743,-132.000002026558,158.899996567518));
#856=CARTESIAN_POINT('',(-52.0999988354743,-128.000002026558,167.199999591336));
#857=CARTESIAN_POINT('Origin',(-45.8999989740551,-132.000002026558,158.899996567518));
#858=CARTESIAN_POINT('',(-52.9499999340624,-132.000002026558,158.899996567518));
#859=CARTESIAN_POINT('',(-52.9499999340624,-128.000002026558,158.899996567518));
#860=CARTESIAN_POINT('Origin',(-45.8999989740551,-132.000002026558,146.09999685362));
#861=CARTESIAN_POINT('',(-45.8999989740551,-132.000002026558,146.09999685362));
#862=CARTESIAN_POINT('',(-45.8999989740551,-132.000002026558,143.899996902794));
#863=CARTESIAN_POINT('',(-45.8999989740551,-132.000002026558,160.799999734387));
#864=CARTESIAN_POINT('',(-45.8999989740551,-128.000002026558,146.09999685362));
#865=CARTESIAN_POINT('',(-45.8999989740551,-132.000002026558,146.09999685362));
#866=CARTESIAN_POINT('',(-45.8999989740551,-128.000002026558,143.899996902794));
#867=CARTESIAN_POINT('',(-45.8999989740551,-128.000002026558,160.799999734387));
#868=CARTESIAN_POINT('',(-45.8999989740551,-132.000002026558,143.899996902794));
#869=CARTESIAN_POINT('Origin',(-52.0999988354743,-132.000002026558,146.09999685362));
#870=CARTESIAN_POINT('',(-52.0999988354743,-132.000002026558,146.09999685362));
#871=CARTESIAN_POINT('',(-56.049999864772,-132.000002026558,146.09999685362));
#872=CARTESIAN_POINT('',(-52.0999988354743,-128.000002026558,146.09999685362));
#873=CARTESIAN_POINT('',(-52.0999988354743,-132.000002026558,146.09999685362));
#874=CARTESIAN_POINT('',(-56.049999864772,-128.000002026558,146.09999685362));
#875=CARTESIAN_POINT('Origin',(-52.0999988354743,-132.000002026558,143.899996902794));
#876=CARTESIAN_POINT('',(-52.0999988354743,-132.000002026558,143.899996902794));
#877=CARTESIAN_POINT('',(-52.0999988354743,-132.000002026558,159.699999758974));
#878=CARTESIAN_POINT('',(-52.0999988354743,-128.000002026558,143.899996902794));
#879=CARTESIAN_POINT('',(-52.0999988354743,-132.000002026558,143.899996902794));
#880=CARTESIAN_POINT('',(-52.0999988354743,-128.000002026558,159.699999758974));
#881=CARTESIAN_POINT('Origin',(-45.8999989740551,-132.000002026558,143.899996902794));
#882=CARTESIAN_POINT('',(-52.9499999340624,-132.000002026558,143.899996902794));
#883=CARTESIAN_POINT('',(-52.9499999340624,-128.000002026558,143.899996902794));
#884=CARTESIAN_POINT('Origin',(-67.8999984823167,-132.000002026558,161.099996518344));
#885=CARTESIAN_POINT('',(-67.8999984823167,-132.000002026558,161.099996518344));
#886=CARTESIAN_POINT('',(-67.8999984823167,-132.000002026558,158.899996567518));
#887=CARTESIAN_POINT('',(-67.8999984823167,-132.000002026558,168.299999566749));
#888=CARTESIAN_POINT('',(-67.8999984823167,-128.000002026558,161.099996518344));
#889=CARTESIAN_POINT('',(-67.8999984823167,-132.000002026558,161.099996518344));
#890=CARTESIAN_POINT('',(-67.8999984823167,-128.000002026558,158.899996567518));
#891=CARTESIAN_POINT('',(-67.8999984823167,-128.000002026558,168.299999566749));
#892=CARTESIAN_POINT('',(-67.8999984823167,-132.000002026558,158.899996567518));
#893=CARTESIAN_POINT('Origin',(-74.0999983437359,-132.000002026558,161.099996518344));
#894=CARTESIAN_POINT('',(-74.0999983437359,-132.000002026558,161.099996518344));
#895=CARTESIAN_POINT('',(-67.0499996189028,-132.000002026558,161.099996518344));
#896=CARTESIAN_POINT('',(-74.0999983437359,-128.000002026558,161.099996518344));
#897=CARTESIAN_POINT('',(-74.0999983437359,-132.000002026558,161.099996518344));
#898=CARTESIAN_POINT('',(-67.0499996189028,-128.000002026558,161.099996518344));
#899=CARTESIAN_POINT('Origin',(-74.0999983437359,-132.000002026558,158.899996567518));
#900=CARTESIAN_POINT('',(-74.0999983437359,-132.000002026558,158.899996567518));
#901=CARTESIAN_POINT('',(-74.0999983437359,-132.000002026558,167.199999591336));
#902=CARTESIAN_POINT('',(-74.0999983437359,-128.000002026558,158.899996567518));
#903=CARTESIAN_POINT('',(-74.0999983437359,-132.000002026558,158.899996567518));
#904=CARTESIAN_POINT('',(-74.0999983437359,-128.000002026558,167.199999591336));
#905=CARTESIAN_POINT('Origin',(-67.8999984823167,-132.000002026558,158.899996567518));
#906=CARTESIAN_POINT('',(-63.9499996881932,-132.000002026558,158.899996567518));
#907=CARTESIAN_POINT('',(-63.9499996881932,-128.000002026558,158.899996567518));
#908=CARTESIAN_POINT('Origin',(-67.8999984823167,-132.000002026558,146.09999685362));
#909=CARTESIAN_POINT('',(-67.8999984823167,-132.000002026558,146.09999685362));
#910=CARTESIAN_POINT('',(-67.8999984823167,-132.000002026558,143.899996902794));
#911=CARTESIAN_POINT('',(-67.8999984823167,-132.000002026558,160.799999734387));
#912=CARTESIAN_POINT('',(-67.8999984823167,-128.000002026558,146.09999685362));
#913=CARTESIAN_POINT('',(-67.8999984823167,-132.000002026558,146.09999685362));
#914=CARTESIAN_POINT('',(-67.8999984823167,-128.000002026558,143.899996902794));
#915=CARTESIAN_POINT('',(-67.8999984823167,-128.000002026558,160.799999734387));
#916=CARTESIAN_POINT('',(-67.8999984823167,-132.000002026558,143.899996902794));
#917=CARTESIAN_POINT('Origin',(-74.0999983437359,-132.000002026558,146.09999685362));
#918=CARTESIAN_POINT('',(-74.0999983437359,-132.000002026558,146.09999685362));
#919=CARTESIAN_POINT('',(-67.0499996189028,-132.000002026558,146.09999685362));
#920=CARTESIAN_POINT('',(-74.0999983437359,-128.000002026558,146.09999685362));
#921=CARTESIAN_POINT('',(-74.0999983437359,-132.000002026558,146.09999685362));
#922=CARTESIAN_POINT('',(-67.0499996189028,-128.000002026558,146.09999685362));
#923=CARTESIAN_POINT('Origin',(-74.0999983437359,-132.000002026558,143.899996902794));
#924=CARTESIAN_POINT('',(-74.0999983437359,-132.000002026558,143.899996902794));
#925=CARTESIAN_POINT('',(-74.0999983437359,-132.000002026558,159.699999758974));
#926=CARTESIAN_POINT('',(-74.0999983437359,-128.000002026558,143.899996902794));
#927=CARTESIAN_POINT('',(-74.0999983437359,-132.000002026558,143.899996902794));
#928=CARTESIAN_POINT('',(-74.0999983437359,-128.000002026558,159.699999758974));
#929=CARTESIAN_POINT('Origin',(-67.8999984823167,-132.000002026558,143.899996902794));
#930=CARTESIAN_POINT('',(-63.9499996881932,-132.000002026558,143.899996902794));
#931=CARTESIAN_POINT('',(-63.9499996881932,-128.000002026558,143.899996902794));
#932=CARTESIAN_POINT('Origin',(-30.0000008046627,-136.000002026558,184.993588796636));
#933=CARTESIAN_POINT('',(-44.0000006556511,-128.000002026558,165.5));
#934=CARTESIAN_POINT('',(-54.0000008046627,-128.000002026558,184.993588796636));
#935=CARTESIAN_POINT('Origin',(-30.0000008046627,-128.000002026558,184.993588796636));
#936=CARTESIAN_POINT('',(-54.0000008046627,-132.000002026558,184.993588796636));
#937=CARTESIAN_POINT('',(-54.0000008046627,-136.000002026558,184.993588796636));
#938=CARTESIAN_POINT('',(-44.0000006556511,-132.000002026558,165.5));
#939=CARTESIAN_POINT('Origin',(-30.0000008046627,-132.000002026558,184.993588796636));
#940=CARTESIAN_POINT('',(-44.0000006556511,-136.000002026558,165.5));
#941=CARTESIAN_POINT('Origin',(-60.0000008940697,-132.000002026558,175.500002615154));
#942=CARTESIAN_POINT('',(-76.0000011324883,-132.000002026558,140.000002086163));
#943=CARTESIAN_POINT('',(-76.0000011324883,-132.000002026558,211.000003144145));
#944=CARTESIAN_POINT('',(-76.0000011324883,-132.000002026558,157.750002350658));
#945=CARTESIAN_POINT('',(-44.0000006556511,-132.000002026558,140.000002086163));
#946=CARTESIAN_POINT('',(-52.0000007748604,-132.000002026558,140.000002086163));
#947=CARTESIAN_POINT('',(-44.0000006556511,-132.000002026558,170.500001307577));
#948=CARTESIAN_POINT('',(-54.0000008046627,-132.000002026558,211.000003144145));
#949=CARTESIAN_POINT('',(-54.0000008046627,-132.000002026558,193.250002879649));
#950=CARTESIAN_POINT('',(-68.000001013279,-132.000002026558,211.000003144145));
#951=CARTESIAN_POINT('',(-71.500001065433,-132.000002026558,182.500002719462));
#952=CARTESIAN_POINT('',(-58.5000008717179,-132.000002026558,182.500002719462));
#953=CARTESIAN_POINT('',(-65.7500009797513,-132.000002026558,182.500002719462));
#954=CARTESIAN_POINT('',(-71.500001065433,-132.000002026558,206.50000307709));
#955=CARTESIAN_POINT('',(-71.500001065433,-132.000002026558,191.000002846122));
#956=CARTESIAN_POINT('',(-58.5000008717179,-132.000002026558,206.50000307709));
#957=CARTESIAN_POINT('',(-59.2500008828938,-132.000002026558,206.50000307709));
#958=CARTESIAN_POINT('',(-58.5000008717179,-132.000002026558,179.000002667308));
#959=CARTESIAN_POINT('',(-65.9999985471368,-132.000002026558,208.599995337427));
#960=CARTESIAN_POINT('Origin',(-64.9999985471368,-132.000002026558,208.599995337427));
#961=CARTESIAN_POINT('',(-65.9999985471368,-132.000002026558,180.599995963275));
#962=CARTESIAN_POINT('Origin',(-64.9999985471368,-132.000002026558,180.599995963275));
#963=CARTESIAN_POINT('Origin',(-71.500001065433,-136.000002026558,206.50000307709));
#964=CARTESIAN_POINT('',(-71.500001065433,-128.000002026558,182.500002719462));
#965=CARTESIAN_POINT('',(-71.500001065433,-136.000002026558,182.500002719462));
#966=CARTESIAN_POINT('',(-71.500001065433,-128.000002026558,206.50000307709));
#967=CARTESIAN_POINT('',(-71.500001065433,-128.000002026558,182.500002719462));
#968=CARTESIAN_POINT('',(-71.500001065433,-136.000002026558,206.50000307709));
#969=CARTESIAN_POINT('Origin',(-71.500001065433,-136.000002026558,182.500002719462));
#970=CARTESIAN_POINT('',(-58.5000008717179,-128.000002026558,182.500002719462));
#971=CARTESIAN_POINT('',(-58.5000008717179,-136.000002026558,182.500002719462));
#972=CARTESIAN_POINT('',(-58.5000008717179,-128.000002026558,182.500002719462));
#973=CARTESIAN_POINT('Origin',(-44.0000006556511,-136.000002026558,165.5));
#974=CARTESIAN_POINT('',(-44.0000006556511,-128.000002026558,140.000002086163));
#975=CARTESIAN_POINT('',(-44.0000006556511,-136.000002026558,140.000002086163));
#976=CARTESIAN_POINT('',(-44.0000006556511,-128.000002026558,136.5));
#977=CARTESIAN_POINT('Origin',(-44.0000006556511,-136.000002026558,140.000002086163));
#978=CARTESIAN_POINT('',(-76.0000011324883,-128.000002026558,140.000002086163));
#979=CARTESIAN_POINT('',(-76.0000011324883,-136.000002026558,140.000002086163));
#980=CARTESIAN_POINT('',(-76.0000011324883,-128.000002026558,140.000002086163));
#981=CARTESIAN_POINT('Origin',(-76.0000011324883,-136.000002026558,140.000002086163));
#982=CARTESIAN_POINT('',(-76.0000011324883,-128.000002026558,211.000003144145));
#983=CARTESIAN_POINT('',(-76.0000011324883,-136.000002026558,211.000003144145));
#984=CARTESIAN_POINT('',(-76.0000011324883,-128.000002026558,211.000003144145));
#985=CARTESIAN_POINT('Origin',(-64.9999985471368,-136.000002026558,180.599995963275));
#986=CARTESIAN_POINT('',(-65.9999985471368,-128.000002026558,180.599995963275));
#987=CARTESIAN_POINT('Origin',(-64.9999985471368,-128.000002026558,180.599995963275));
#988=CARTESIAN_POINT('',(-65.9999985471368,-136.000002026558,180.599995963275));
#989=CARTESIAN_POINT('Origin',(-64.9999985471368,-136.000002026558,208.599995337427));
#990=CARTESIAN_POINT('',(-65.9999985471368,-128.000002026558,208.599995337427));
#991=CARTESIAN_POINT('Origin',(-64.9999985471368,-128.000002026558,208.599995337427));
#992=CARTESIAN_POINT('',(-65.9999985471368,-136.000002026558,208.599995337427));
#993=CARTESIAN_POINT('Origin',(-58.5000008717179,-136.000002026558,206.50000307709));
#994=CARTESIAN_POINT('',(-58.5000008717179,-128.000002026558,206.50000307709));
#995=CARTESIAN_POINT('',(-71.500001065433,-128.000002026558,206.50000307709));
#996=CARTESIAN_POINT('',(-58.5000008717179,-136.000002026558,206.50000307709));
#997=CARTESIAN_POINT('Origin',(-58.5000008717179,-136.000002026558,182.500002719462));
#998=CARTESIAN_POINT('',(-58.5000008717179,-128.000002026558,206.50000307709));
#999=CARTESIAN_POINT('Origin',(-54.0000008046627,-136.000002026558,211.000003144145));
#1000=CARTESIAN_POINT('',(-54.0000008046627,-128.000002026558,211.000003144145));
#1001=CARTESIAN_POINT('',(-54.0000008046627,-128.000002026558,165.5));
#1002=CARTESIAN_POINT('',(-54.0000008046627,-136.000002026558,211.000003144145));
#1003=CARTESIAN_POINT('Origin',(-76.0000011324883,-136.000002026558,211.000003144145));
#1004=CARTESIAN_POINT('',(-54.0000008046627,-128.000002026558,211.000003144145));
#1005=CARTESIAN_POINT('Origin',(-60.0000008940697,-128.000002026558,175.500002615154));
#1006=UNCERTAINTY_MEASURE_WITH_UNIT(LENGTH_MEASURE(0.01),#1010,
'DISTANCE_ACCURACY_VALUE',
'Maximum model space distance between geometric entities at asserted c
onnectivities');
#1007=UNCERTAINTY_MEASURE_WITH_UNIT(LENGTH_MEASURE(0.01),#1010,
'DISTANCE_ACCURACY_VALUE',
'Maximum model space distance between geometric entities at asserted c
onnectivities');
#1008=(
GEOMETRIC_REPRESENTATION_CONTEXT(3)
GLOBAL_UNCERTAINTY_ASSIGNED_CONTEXT((#1006))
GLOBAL_UNIT_ASSIGNED_CONTEXT((#1010,#1012,#1013))
REPRESENTATION_CONTEXT('','3D')
);
#1009=(
GEOMETRIC_REPRESENTATION_CONTEXT(3)
GLOBAL_UNCERTAINTY_ASSIGNED_CONTEXT((#1007))
GLOBAL_UNIT_ASSIGNED_CONTEXT((#1010,#1012,#1013))
REPRESENTATION_CONTEXT('','3D')
);
#1010=(
LENGTH_UNIT()
NAMED_UNIT(*)
SI_UNIT(.MILLI.,.METRE.)
);
#1011=(
LENGTH_UNIT()
NAMED_UNIT(*)
SI_UNIT($,.METRE.)
);
#1012=(
NAMED_UNIT(*)
PLANE_ANGLE_UNIT()
SI_UNIT($,.RADIAN.)
);
#1013=(
NAMED_UNIT(*)
SI_UNIT($,.STERADIAN.)
SOLID_ANGLE_UNIT()
);
#1014=SHAPE_DEFINITION_REPRESENTATION(#1015,#1016);
#1015=PRODUCT_DEFINITION_SHAPE('',$,#1018);
#1016=SHAPE_REPRESENTATION('',(#646),#1008);
#1017=PRODUCT_DEFINITION_CONTEXT('part definition',#1022,'design');
#1018=PRODUCT_DEFINITION('2025-08-04-20-19-43-362','zpos_3',#1019,#1017);
#1019=PRODUCT_DEFINITION_FORMATION('',$,#1024);
#1020=PRODUCT_RELATED_PRODUCT_CATEGORY('zpos_3','zpos_3',(#1024));
#1021=APPLICATION_PROTOCOL_DEFINITION('international standard',
'automotive_design',2009,#1022);
#1022=APPLICATION_CONTEXT(
'Core Data for Automotive Mechanical Design Process');
#1023=PRODUCT_CONTEXT('part definition',#1022,'mechanical');
#1024=PRODUCT('2025-08-04-20-19-43-362','zpos_3',$,(#1023));
#1025=PRESENTATION_STYLE_ASSIGNMENT((#1027));
#1026=PRESENTATION_STYLE_ASSIGNMENT((#1028));
#1027=SURFACE_STYLE_USAGE(.BOTH.,#1029);
#1028=SURFACE_STYLE_USAGE(.BOTH.,#1030);
#1029=SURFACE_SIDE_STYLE('',(#1031));
#1030=SURFACE_SIDE_STYLE('',(#1032));
#1031=SURFACE_STYLE_FILL_AREA(#1033);
#1032=SURFACE_STYLE_FILL_AREA(#1034);
#1033=FILL_AREA_STYLE('Steel - Satin',(#1035));
#1034=FILL_AREA_STYLE('Sunflower yellow PLA',(#1036));
#1035=FILL_AREA_STYLE_COLOUR('Steel - Satin',#1037);
#1036=FILL_AREA_STYLE_COLOUR('Sunflower yellow PLA',#1038);
#1037=COLOUR_RGB('Steel - Satin',0.627450980392157,0.627450980392157,0.627450980392157);
#1038=COLOUR_RGB('Sunflower yellow PLA',1.,0.733333333333333,0.);
ENDSEC;
END-ISO-10303-21;
