ISO-10303-21;
HEADER;
/* Generated by software containing ST-Developer
 * from STEP Tools, Inc. (www.steptools.com) 
 */

FILE_DESCRIPTION(
/* description */ (''),
/* implementation_level */ '2;1');

FILE_NAME(
/* name */ 'zpos_1.step',
/* time_stamp */ '2025-08-04T20:42:31+01:00',
/* author */ (''),
/* organization */ (''),
/* preprocessor_version */ 'ST-DEVELOPER v20.1',
/* originating_system */ 'Autodesk Translation Framework v14.10.0.0',
/* authorisation */ '');

FILE_SCHEMA (('AUTOMOTIVE_DESIGN { 1 0 10303 214 3 1 1 }'));
ENDSEC;

DATA;
#10=MECHANICAL_DESIGN_GEOMETRIC_PRESENTATION_REPRESENTATION('',(#17),#1358);
#11=ITEM_DEFINED_TRANSFORMATION($,$,#862,#906);
#12=(
REPRESENTATION_RELATIONSHIP($,$,#1369,#1368)
REPRESENTATION_RELATIONSHIP_WITH_TRANSFORMATION(#11)
SHAPE_REPRESENTATION_RELATIONSHIP()
);
#13=CONTEXT_DEPENDENT_SHAPE_REPRESENTATION(#12,#1367);
#14=NEXT_ASSEMBLY_USAGE_OCCURRENCE(
'Rack; Module: 3.00 mm; Num Teeth: 8; Pressure Angle: 20 deg; Backlash
: 0.00 mm; :1',
'Rack; Module: 3.00 mm; Num Teeth: 8; Pressure Angle: 20 deg; Backlash
: 0.00 mm; :1',
'Rack; Module: 3.00 mm; Num Teeth: 8; Pressure Angle: 20 deg; Backlash
: 0.00 mm; :1',#1371,#1372,
'Rack; Module: 3.00 mm; Num Teeth: 8; Pressure Angle: 20 deg; Backlash
: 0.00 mm; :1');
#15=SHAPE_REPRESENTATION_RELATIONSHIP('SRR','None',#1369,#16);
#16=ADVANCED_BREP_SHAPE_REPRESENTATION('',(#18),#1357);
#17=STYLED_ITEM('',(#1383),#18);
#18=MANIFOLD_SOLID_BREP('Body1',#848);
#19=FACE_BOUND('',#68,.T.);
#20=FACE_BOUND('',#70,.T.);
#21=CIRCLE('',#865,1.7);
#22=CIRCLE('',#866,1.7);
#23=CYLINDRICAL_SURFACE('',#864,1.7);
#24=FACE_OUTER_BOUND('',#65,.T.);
#25=FACE_OUTER_BOUND('',#66,.T.);
#26=FACE_OUTER_BOUND('',#67,.T.);
#27=FACE_OUTER_BOUND('',#69,.T.);
#28=FACE_OUTER_BOUND('',#71,.T.);
#29=FACE_OUTER_BOUND('',#72,.T.);
#30=FACE_OUTER_BOUND('',#73,.T.);
#31=FACE_OUTER_BOUND('',#74,.T.);
#32=FACE_OUTER_BOUND('',#75,.T.);
#33=FACE_OUTER_BOUND('',#76,.T.);
#34=FACE_OUTER_BOUND('',#77,.T.);
#35=FACE_OUTER_BOUND('',#78,.T.);
#36=FACE_OUTER_BOUND('',#79,.T.);
#37=FACE_OUTER_BOUND('',#80,.T.);
#38=FACE_OUTER_BOUND('',#81,.T.);
#39=FACE_OUTER_BOUND('',#82,.T.);
#40=FACE_OUTER_BOUND('',#83,.T.);
#41=FACE_OUTER_BOUND('',#84,.T.);
#42=FACE_OUTER_BOUND('',#85,.T.);
#43=FACE_OUTER_BOUND('',#86,.T.);
#44=FACE_OUTER_BOUND('',#87,.T.);
#45=FACE_OUTER_BOUND('',#88,.T.);
#46=FACE_OUTER_BOUND('',#89,.T.);
#47=FACE_OUTER_BOUND('',#90,.T.);
#48=FACE_OUTER_BOUND('',#91,.T.);
#49=FACE_OUTER_BOUND('',#92,.T.);
#50=FACE_OUTER_BOUND('',#93,.T.);
#51=FACE_OUTER_BOUND('',#94,.T.);
#52=FACE_OUTER_BOUND('',#95,.T.);
#53=FACE_OUTER_BOUND('',#96,.T.);
#54=FACE_OUTER_BOUND('',#97,.T.);
#55=FACE_OUTER_BOUND('',#98,.T.);
#56=FACE_OUTER_BOUND('',#99,.T.);
#57=FACE_OUTER_BOUND('',#100,.T.);
#58=FACE_OUTER_BOUND('',#101,.T.);
#59=FACE_OUTER_BOUND('',#102,.T.);
#60=FACE_OUTER_BOUND('',#103,.T.);
#61=FACE_OUTER_BOUND('',#104,.T.);
#62=FACE_OUTER_BOUND('',#105,.T.);
#63=FACE_OUTER_BOUND('',#106,.T.);
#64=FACE_OUTER_BOUND('',#107,.T.);
#65=EDGE_LOOP('',(#533,#534,#535,#536));
#66=EDGE_LOOP('',(#537,#538,#539,#540));
#67=EDGE_LOOP('',(#541,#542,#543,#544));
#68=EDGE_LOOP('',(#545));
#69=EDGE_LOOP('',(#546,#547,#548,#549));
#70=EDGE_LOOP('',(#550));
#71=EDGE_LOOP('',(#551,#552,#553,#554));
#72=EDGE_LOOP('',(#555,#556,#557,#558,#559,#560,#561,#562,#563,#564,#565,
#566,#567,#568,#569,#570,#571,#572,#573,#574,#575,#576,#577,#578,#579,#580,
#581,#582,#583,#584,#585,#586,#587,#588,#589,#590,#591,#592));
#73=EDGE_LOOP('',(#593,#594,#595,#596));
#74=EDGE_LOOP('',(#597,#598,#599,#600,#601,#602,#603,#604,#605,#606,#607,
#608,#609,#610,#611,#612,#613,#614,#615,#616,#617,#618,#619,#620,#621,#622,
#623,#624,#625,#626,#627,#628,#629,#630,#631,#632,#633,#634));
#75=EDGE_LOOP('',(#635,#636,#637,#638));
#76=EDGE_LOOP('',(#639,#640,#641,#642));
#77=EDGE_LOOP('',(#643,#644,#645,#646));
#78=EDGE_LOOP('',(#647,#648,#649,#650));
#79=EDGE_LOOP('',(#651,#652,#653,#654));
#80=EDGE_LOOP('',(#655,#656,#657,#658));
#81=EDGE_LOOP('',(#659,#660,#661,#662));
#82=EDGE_LOOP('',(#663,#664,#665,#666));
#83=EDGE_LOOP('',(#667,#668,#669,#670));
#84=EDGE_LOOP('',(#671,#672,#673,#674));
#85=EDGE_LOOP('',(#675,#676,#677,#678));
#86=EDGE_LOOP('',(#679,#680,#681,#682));
#87=EDGE_LOOP('',(#683,#684,#685,#686));
#88=EDGE_LOOP('',(#687,#688,#689,#690));
#89=EDGE_LOOP('',(#691,#692,#693,#694));
#90=EDGE_LOOP('',(#695,#696,#697,#698));
#91=EDGE_LOOP('',(#699,#700,#701,#702));
#92=EDGE_LOOP('',(#703,#704,#705,#706));
#93=EDGE_LOOP('',(#707,#708,#709,#710));
#94=EDGE_LOOP('',(#711,#712,#713,#714));
#95=EDGE_LOOP('',(#715,#716,#717,#718));
#96=EDGE_LOOP('',(#719,#720,#721,#722));
#97=EDGE_LOOP('',(#723,#724,#725,#726));
#98=EDGE_LOOP('',(#727,#728,#729,#730));
#99=EDGE_LOOP('',(#731,#732,#733,#734));
#100=EDGE_LOOP('',(#735,#736,#737,#738));
#101=EDGE_LOOP('',(#739,#740,#741,#742));
#102=EDGE_LOOP('',(#743,#744,#745,#746));
#103=EDGE_LOOP('',(#747,#748,#749,#750));
#104=EDGE_LOOP('',(#751,#752,#753,#754));
#105=EDGE_LOOP('',(#755,#756,#757,#758));
#106=EDGE_LOOP('',(#759,#760,#761,#762));
#107=EDGE_LOOP('',(#763,#764,#765,#766));
#108=LINE('',#1119,#223);
#109=LINE('',#1121,#224);
#110=LINE('',#1123,#225);
#111=LINE('',#1124,#226);
#112=LINE('',#1129,#227);
#113=LINE('',#1134,#228);
#114=LINE('',#1136,#229);
#115=LINE('',#1138,#230);
#116=LINE('',#1139,#231);
#117=LINE('',#1143,#232);
#118=LINE('',#1145,#233);
#119=LINE('',#1147,#234);
#120=LINE('',#1148,#235);
#121=LINE('',#1150,#236);
#122=LINE('',#1151,#237);
#123=LINE('',#1155,#238);
#124=LINE('',#1157,#239);
#125=LINE('',#1159,#240);
#126=LINE('',#1161,#241);
#127=LINE('',#1163,#242);
#128=LINE('',#1165,#243);
#129=LINE('',#1167,#244);
#130=LINE('',#1169,#245);
#131=LINE('',#1171,#246);
#132=LINE('',#1173,#247);
#133=LINE('',#1175,#248);
#134=LINE('',#1177,#249);
#135=LINE('',#1179,#250);
#136=LINE('',#1181,#251);
#137=LINE('',#1183,#252);
#138=LINE('',#1185,#253);
#139=LINE('',#1187,#254);
#140=LINE('',#1189,#255);
#141=LINE('',#1191,#256);
#142=LINE('',#1193,#257);
#143=LINE('',#1195,#258);
#144=LINE('',#1197,#259);
#145=LINE('',#1199,#260);
#146=LINE('',#1201,#261);
#147=LINE('',#1203,#262);
#148=LINE('',#1205,#263);
#149=LINE('',#1207,#264);
#150=LINE('',#1209,#265);
#151=LINE('',#1211,#266);
#152=LINE('',#1213,#267);
#153=LINE('',#1215,#268);
#154=LINE('',#1216,#269);
#155=LINE('',#1217,#270);
#156=LINE('',#1218,#271);
#157=LINE('',#1222,#272);
#158=LINE('',#1223,#273);
#159=LINE('',#1224,#274);
#160=LINE('',#1226,#275);
#161=LINE('',#1228,#276);
#162=LINE('',#1230,#277);
#163=LINE('',#1232,#278);
#164=LINE('',#1234,#279);
#165=LINE('',#1236,#280);
#166=LINE('',#1238,#281);
#167=LINE('',#1240,#282);
#168=LINE('',#1242,#283);
#169=LINE('',#1244,#284);
#170=LINE('',#1246,#285);
#171=LINE('',#1248,#286);
#172=LINE('',#1250,#287);
#173=LINE('',#1252,#288);
#174=LINE('',#1254,#289);
#175=LINE('',#1256,#290);
#176=LINE('',#1258,#291);
#177=LINE('',#1260,#292);
#178=LINE('',#1262,#293);
#179=LINE('',#1264,#294);
#180=LINE('',#1266,#295);
#181=LINE('',#1268,#296);
#182=LINE('',#1270,#297);
#183=LINE('',#1272,#298);
#184=LINE('',#1274,#299);
#185=LINE('',#1276,#300);
#186=LINE('',#1278,#301);
#187=LINE('',#1280,#302);
#188=LINE('',#1281,#303);
#189=LINE('',#1283,#304);
#190=LINE('',#1285,#305);
#191=LINE('',#1287,#306);
#192=LINE('',#1288,#307);
#193=LINE('',#1290,#308);
#194=LINE('',#1293,#309);
#195=LINE('',#1295,#310);
#196=LINE('',#1297,#311);
#197=LINE('',#1299,#312);
#198=LINE('',#1301,#313);
#199=LINE('',#1303,#314);
#200=LINE('',#1305,#315);
#201=LINE('',#1307,#316);
#202=LINE('',#1309,#317);
#203=LINE('',#1311,#318);
#204=LINE('',#1313,#319);
#205=LINE('',#1315,#320);
#206=LINE('',#1317,#321);
#207=LINE('',#1319,#322);
#208=LINE('',#1321,#323);
#209=LINE('',#1323,#324);
#210=LINE('',#1325,#325);
#211=LINE('',#1327,#326);
#212=LINE('',#1329,#327);
#213=LINE('',#1331,#328);
#214=LINE('',#1333,#329);
#215=LINE('',#1335,#330);
#216=LINE('',#1337,#331);
#217=LINE('',#1339,#332);
#218=LINE('',#1341,#333);
#219=LINE('',#1343,#334);
#220=LINE('',#1345,#335);
#221=LINE('',#1348,#336);
#222=LINE('',#1350,#337);
#223=VECTOR('',#913,10.);
#224=VECTOR('',#914,10.);
#225=VECTOR('',#915,10.);
#226=VECTOR('',#916,10.);
#227=VECTOR('',#921,1.7);
#228=VECTOR('',#926,10.);
#229=VECTOR('',#927,10.);
#230=VECTOR('',#928,10.);
#231=VECTOR('',#929,10.);
#232=VECTOR('',#932,10.);
#233=VECTOR('',#933,10.);
#234=VECTOR('',#934,10.);
#235=VECTOR('',#935,10.);
#236=VECTOR('',#938,10.);
#237=VECTOR('',#939,10.);
#238=VECTOR('',#942,10.);
#239=VECTOR('',#943,10.);
#240=VECTOR('',#944,10.);
#241=VECTOR('',#945,10.);
#242=VECTOR('',#946,10.);
#243=VECTOR('',#947,10.);
#244=VECTOR('',#948,10.);
#245=VECTOR('',#949,10.);
#246=VECTOR('',#950,10.);
#247=VECTOR('',#951,10.);
#248=VECTOR('',#952,10.);
#249=VECTOR('',#953,10.);
#250=VECTOR('',#954,10.);
#251=VECTOR('',#955,10.);
#252=VECTOR('',#956,10.);
#253=VECTOR('',#957,10.);
#254=VECTOR('',#958,10.);
#255=VECTOR('',#959,10.);
#256=VECTOR('',#960,10.);
#257=VECTOR('',#961,10.);
#258=VECTOR('',#962,10.);
#259=VECTOR('',#963,10.);
#260=VECTOR('',#964,10.);
#261=VECTOR('',#965,10.);
#262=VECTOR('',#966,10.);
#263=VECTOR('',#967,10.);
#264=VECTOR('',#968,10.);
#265=VECTOR('',#969,10.);
#266=VECTOR('',#970,10.);
#267=VECTOR('',#971,10.);
#268=VECTOR('',#972,10.);
#269=VECTOR('',#973,10.);
#270=VECTOR('',#974,10.);
#271=VECTOR('',#975,10.);
#272=VECTOR('',#978,10.);
#273=VECTOR('',#979,10.);
#274=VECTOR('',#980,10.);
#275=VECTOR('',#983,10.);
#276=VECTOR('',#984,10.);
#277=VECTOR('',#985,10.);
#278=VECTOR('',#986,10.);
#279=VECTOR('',#987,10.);
#280=VECTOR('',#988,10.);
#281=VECTOR('',#989,10.);
#282=VECTOR('',#990,10.);
#283=VECTOR('',#991,10.);
#284=VECTOR('',#992,10.);
#285=VECTOR('',#993,10.);
#286=VECTOR('',#994,10.);
#287=VECTOR('',#995,10.);
#288=VECTOR('',#996,10.);
#289=VECTOR('',#997,10.);
#290=VECTOR('',#998,10.);
#291=VECTOR('',#999,10.);
#292=VECTOR('',#1000,10.);
#293=VECTOR('',#1001,10.);
#294=VECTOR('',#1002,10.);
#295=VECTOR('',#1003,10.);
#296=VECTOR('',#1004,10.);
#297=VECTOR('',#1005,10.);
#298=VECTOR('',#1006,10.);
#299=VECTOR('',#1007,10.);
#300=VECTOR('',#1008,10.);
#301=VECTOR('',#1009,10.);
#302=VECTOR('',#1010,10.);
#303=VECTOR('',#1011,10.);
#304=VECTOR('',#1012,10.);
#305=VECTOR('',#1013,10.);
#306=VECTOR('',#1014,10.);
#307=VECTOR('',#1015,10.);
#308=VECTOR('',#1018,10.);
#309=VECTOR('',#1023,10.);
#310=VECTOR('',#1026,10.);
#311=VECTOR('',#1029,10.);
#312=VECTOR('',#1032,10.);
#313=VECTOR('',#1035,10.);
#314=VECTOR('',#1038,10.);
#315=VECTOR('',#1041,10.);
#316=VECTOR('',#1044,10.);
#317=VECTOR('',#1047,10.);
#318=VECTOR('',#1050,10.);
#319=VECTOR('',#1053,10.);
#320=VECTOR('',#1056,10.);
#321=VECTOR('',#1059,10.);
#322=VECTOR('',#1062,10.);
#323=VECTOR('',#1065,10.);
#324=VECTOR('',#1068,10.);
#325=VECTOR('',#1071,10.);
#326=VECTOR('',#1074,10.);
#327=VECTOR('',#1077,10.);
#328=VECTOR('',#1080,10.);
#329=VECTOR('',#1083,10.);
#330=VECTOR('',#1086,10.);
#331=VECTOR('',#1089,10.);
#332=VECTOR('',#1092,10.);
#333=VECTOR('',#1095,10.);
#334=VECTOR('',#1098,10.);
#335=VECTOR('',#1101,10.);
#336=VECTOR('',#1106,10.);
#337=VECTOR('',#1109,10.);
#338=VERTEX_POINT('',#1117);
#339=VERTEX_POINT('',#1118);
#340=VERTEX_POINT('',#1120);
#341=VERTEX_POINT('',#1122);
#342=VERTEX_POINT('',#1126);
#343=VERTEX_POINT('',#1128);
#344=VERTEX_POINT('',#1132);
#345=VERTEX_POINT('',#1133);
#346=VERTEX_POINT('',#1135);
#347=VERTEX_POINT('',#1137);
#348=VERTEX_POINT('',#1141);
#349=VERTEX_POINT('',#1142);
#350=VERTEX_POINT('',#1144);
#351=VERTEX_POINT('',#1146);
#352=VERTEX_POINT('',#1153);
#353=VERTEX_POINT('',#1154);
#354=VERTEX_POINT('',#1156);
#355=VERTEX_POINT('',#1158);
#356=VERTEX_POINT('',#1160);
#357=VERTEX_POINT('',#1162);
#358=VERTEX_POINT('',#1164);
#359=VERTEX_POINT('',#1166);
#360=VERTEX_POINT('',#1168);
#361=VERTEX_POINT('',#1170);
#362=VERTEX_POINT('',#1172);
#363=VERTEX_POINT('',#1174);
#364=VERTEX_POINT('',#1176);
#365=VERTEX_POINT('',#1178);
#366=VERTEX_POINT('',#1180);
#367=VERTEX_POINT('',#1182);
#368=VERTEX_POINT('',#1184);
#369=VERTEX_POINT('',#1186);
#370=VERTEX_POINT('',#1188);
#371=VERTEX_POINT('',#1190);
#372=VERTEX_POINT('',#1192);
#373=VERTEX_POINT('',#1194);
#374=VERTEX_POINT('',#1196);
#375=VERTEX_POINT('',#1198);
#376=VERTEX_POINT('',#1200);
#377=VERTEX_POINT('',#1202);
#378=VERTEX_POINT('',#1204);
#379=VERTEX_POINT('',#1206);
#380=VERTEX_POINT('',#1208);
#381=VERTEX_POINT('',#1210);
#382=VERTEX_POINT('',#1212);
#383=VERTEX_POINT('',#1214);
#384=VERTEX_POINT('',#1220);
#385=VERTEX_POINT('',#1221);
#386=VERTEX_POINT('',#1227);
#387=VERTEX_POINT('',#1229);
#388=VERTEX_POINT('',#1231);
#389=VERTEX_POINT('',#1233);
#390=VERTEX_POINT('',#1235);
#391=VERTEX_POINT('',#1237);
#392=VERTEX_POINT('',#1239);
#393=VERTEX_POINT('',#1241);
#394=VERTEX_POINT('',#1243);
#395=VERTEX_POINT('',#1245);
#396=VERTEX_POINT('',#1247);
#397=VERTEX_POINT('',#1249);
#398=VERTEX_POINT('',#1251);
#399=VERTEX_POINT('',#1253);
#400=VERTEX_POINT('',#1255);
#401=VERTEX_POINT('',#1257);
#402=VERTEX_POINT('',#1259);
#403=VERTEX_POINT('',#1261);
#404=VERTEX_POINT('',#1263);
#405=VERTEX_POINT('',#1265);
#406=VERTEX_POINT('',#1267);
#407=VERTEX_POINT('',#1269);
#408=VERTEX_POINT('',#1271);
#409=VERTEX_POINT('',#1273);
#410=VERTEX_POINT('',#1275);
#411=VERTEX_POINT('',#1277);
#412=VERTEX_POINT('',#1279);
#413=VERTEX_POINT('',#1282);
#414=VERTEX_POINT('',#1284);
#415=VERTEX_POINT('',#1286);
#416=EDGE_CURVE('',#338,#339,#108,.T.);
#417=EDGE_CURVE('',#339,#340,#109,.F.);
#418=EDGE_CURVE('',#340,#341,#110,.T.);
#419=EDGE_CURVE('',#341,#338,#111,.F.);
#420=EDGE_CURVE('',#342,#342,#21,.T.);
#421=EDGE_CURVE('',#342,#343,#112,.T.);
#422=EDGE_CURVE('',#343,#343,#22,.T.);
#423=EDGE_CURVE('',#344,#345,#113,.T.);
#424=EDGE_CURVE('',#346,#344,#114,.T.);
#425=EDGE_CURVE('',#346,#347,#115,.T.);
#426=EDGE_CURVE('',#345,#347,#116,.T.);
#427=EDGE_CURVE('',#348,#349,#117,.T.);
#428=EDGE_CURVE('',#350,#348,#118,.T.);
#429=EDGE_CURVE('',#351,#350,#119,.T.);
#430=EDGE_CURVE('',#349,#351,#120,.T.);
#431=EDGE_CURVE('',#347,#350,#121,.T.);
#432=EDGE_CURVE('',#351,#346,#122,.T.);
#433=EDGE_CURVE('',#352,#353,#123,.T.);
#434=EDGE_CURVE('',#353,#354,#124,.T.);
#435=EDGE_CURVE('',#354,#355,#125,.T.);
#436=EDGE_CURVE('',#355,#356,#126,.T.);
#437=EDGE_CURVE('',#356,#357,#127,.T.);
#438=EDGE_CURVE('',#357,#358,#128,.T.);
#439=EDGE_CURVE('',#358,#359,#129,.T.);
#440=EDGE_CURVE('',#359,#360,#130,.T.);
#441=EDGE_CURVE('',#360,#361,#131,.T.);
#442=EDGE_CURVE('',#361,#362,#132,.T.);
#443=EDGE_CURVE('',#362,#363,#133,.T.);
#444=EDGE_CURVE('',#363,#364,#134,.T.);
#445=EDGE_CURVE('',#364,#365,#135,.T.);
#446=EDGE_CURVE('',#365,#366,#136,.T.);
#447=EDGE_CURVE('',#366,#367,#137,.T.);
#448=EDGE_CURVE('',#367,#368,#138,.T.);
#449=EDGE_CURVE('',#368,#369,#139,.T.);
#450=EDGE_CURVE('',#369,#370,#140,.T.);
#451=EDGE_CURVE('',#370,#371,#141,.T.);
#452=EDGE_CURVE('',#371,#372,#142,.T.);
#453=EDGE_CURVE('',#372,#373,#143,.T.);
#454=EDGE_CURVE('',#373,#374,#144,.T.);
#455=EDGE_CURVE('',#374,#375,#145,.T.);
#456=EDGE_CURVE('',#375,#376,#146,.T.);
#457=EDGE_CURVE('',#376,#377,#147,.T.);
#458=EDGE_CURVE('',#377,#378,#148,.T.);
#459=EDGE_CURVE('',#378,#379,#149,.T.);
#460=EDGE_CURVE('',#379,#380,#150,.T.);
#461=EDGE_CURVE('',#380,#381,#151,.T.);
#462=EDGE_CURVE('',#381,#382,#152,.T.);
#463=EDGE_CURVE('',#382,#383,#153,.T.);
#464=EDGE_CURVE('',#383,#340,#154,.T.);
#465=EDGE_CURVE('',#345,#339,#155,.F.);
#466=EDGE_CURVE('',#348,#352,#156,.T.);
#467=EDGE_CURVE('',#384,#385,#157,.T.);
#468=EDGE_CURVE('',#384,#356,#158,.T.);
#469=EDGE_CURVE('',#385,#355,#159,.T.);
#470=EDGE_CURVE('',#344,#338,#160,.T.);
#471=EDGE_CURVE('',#386,#341,#161,.F.);
#472=EDGE_CURVE('',#386,#387,#162,.T.);
#473=EDGE_CURVE('',#387,#388,#163,.T.);
#474=EDGE_CURVE('',#388,#389,#164,.T.);
#475=EDGE_CURVE('',#389,#390,#165,.T.);
#476=EDGE_CURVE('',#390,#391,#166,.T.);
#477=EDGE_CURVE('',#391,#392,#167,.T.);
#478=EDGE_CURVE('',#392,#393,#168,.T.);
#479=EDGE_CURVE('',#393,#394,#169,.T.);
#480=EDGE_CURVE('',#394,#395,#170,.T.);
#481=EDGE_CURVE('',#395,#396,#171,.T.);
#482=EDGE_CURVE('',#396,#397,#172,.T.);
#483=EDGE_CURVE('',#397,#398,#173,.T.);
#484=EDGE_CURVE('',#398,#399,#174,.T.);
#485=EDGE_CURVE('',#399,#400,#175,.T.);
#486=EDGE_CURVE('',#400,#401,#176,.T.);
#487=EDGE_CURVE('',#401,#402,#177,.T.);
#488=EDGE_CURVE('',#402,#403,#178,.T.);
#489=EDGE_CURVE('',#403,#404,#179,.T.);
#490=EDGE_CURVE('',#404,#405,#180,.T.);
#491=EDGE_CURVE('',#405,#406,#181,.T.);
#492=EDGE_CURVE('',#406,#407,#182,.T.);
#493=EDGE_CURVE('',#407,#408,#183,.T.);
#494=EDGE_CURVE('',#408,#409,#184,.T.);
#495=EDGE_CURVE('',#409,#410,#185,.T.);
#496=EDGE_CURVE('',#410,#411,#186,.T.);
#497=EDGE_CURVE('',#411,#412,#187,.T.);
#498=EDGE_CURVE('',#412,#384,#188,.T.);
#499=EDGE_CURVE('',#385,#413,#189,.T.);
#500=EDGE_CURVE('',#413,#414,#190,.T.);
#501=EDGE_CURVE('',#414,#415,#191,.T.);
#502=EDGE_CURVE('',#415,#349,#192,.T.);
#503=EDGE_CURVE('',#352,#415,#193,.T.);
#504=EDGE_CURVE('',#386,#383,#194,.T.);
#505=EDGE_CURVE('',#387,#382,#195,.T.);
#506=EDGE_CURVE('',#388,#381,#196,.T.);
#507=EDGE_CURVE('',#389,#380,#197,.T.);
#508=EDGE_CURVE('',#390,#379,#198,.T.);
#509=EDGE_CURVE('',#391,#378,#199,.T.);
#510=EDGE_CURVE('',#392,#377,#200,.T.);
#511=EDGE_CURVE('',#393,#376,#201,.T.);
#512=EDGE_CURVE('',#394,#375,#202,.T.);
#513=EDGE_CURVE('',#395,#374,#203,.T.);
#514=EDGE_CURVE('',#396,#373,#204,.T.);
#515=EDGE_CURVE('',#397,#372,#205,.T.);
#516=EDGE_CURVE('',#398,#371,#206,.T.);
#517=EDGE_CURVE('',#399,#370,#207,.T.);
#518=EDGE_CURVE('',#400,#369,#208,.T.);
#519=EDGE_CURVE('',#401,#368,#209,.T.);
#520=EDGE_CURVE('',#402,#367,#210,.T.);
#521=EDGE_CURVE('',#403,#366,#211,.T.);
#522=EDGE_CURVE('',#404,#365,#212,.T.);
#523=EDGE_CURVE('',#405,#364,#213,.T.);
#524=EDGE_CURVE('',#406,#363,#214,.T.);
#525=EDGE_CURVE('',#407,#362,#215,.T.);
#526=EDGE_CURVE('',#408,#361,#216,.T.);
#527=EDGE_CURVE('',#409,#360,#217,.T.);
#528=EDGE_CURVE('',#410,#359,#218,.T.);
#529=EDGE_CURVE('',#411,#358,#219,.T.);
#530=EDGE_CURVE('',#412,#357,#220,.T.);
#531=EDGE_CURVE('',#413,#354,#221,.T.);
#532=EDGE_CURVE('',#414,#353,#222,.T.);
#533=ORIENTED_EDGE('',*,*,#416,.T.);
#534=ORIENTED_EDGE('',*,*,#417,.T.);
#535=ORIENTED_EDGE('',*,*,#418,.T.);
#536=ORIENTED_EDGE('',*,*,#419,.T.);
#537=ORIENTED_EDGE('',*,*,#420,.F.);
#538=ORIENTED_EDGE('',*,*,#421,.T.);
#539=ORIENTED_EDGE('',*,*,#422,.F.);
#540=ORIENTED_EDGE('',*,*,#421,.F.);
#541=ORIENTED_EDGE('',*,*,#423,.F.);
#542=ORIENTED_EDGE('',*,*,#424,.F.);
#543=ORIENTED_EDGE('',*,*,#425,.T.);
#544=ORIENTED_EDGE('',*,*,#426,.F.);
#545=ORIENTED_EDGE('',*,*,#420,.T.);
#546=ORIENTED_EDGE('',*,*,#427,.F.);
#547=ORIENTED_EDGE('',*,*,#428,.F.);
#548=ORIENTED_EDGE('',*,*,#429,.F.);
#549=ORIENTED_EDGE('',*,*,#430,.F.);
#550=ORIENTED_EDGE('',*,*,#422,.T.);
#551=ORIENTED_EDGE('',*,*,#429,.T.);
#552=ORIENTED_EDGE('',*,*,#431,.F.);
#553=ORIENTED_EDGE('',*,*,#425,.F.);
#554=ORIENTED_EDGE('',*,*,#432,.F.);
#555=ORIENTED_EDGE('',*,*,#433,.T.);
#556=ORIENTED_EDGE('',*,*,#434,.T.);
#557=ORIENTED_EDGE('',*,*,#435,.T.);
#558=ORIENTED_EDGE('',*,*,#436,.T.);
#559=ORIENTED_EDGE('',*,*,#437,.T.);
#560=ORIENTED_EDGE('',*,*,#438,.T.);
#561=ORIENTED_EDGE('',*,*,#439,.T.);
#562=ORIENTED_EDGE('',*,*,#440,.T.);
#563=ORIENTED_EDGE('',*,*,#441,.T.);
#564=ORIENTED_EDGE('',*,*,#442,.T.);
#565=ORIENTED_EDGE('',*,*,#443,.T.);
#566=ORIENTED_EDGE('',*,*,#444,.T.);
#567=ORIENTED_EDGE('',*,*,#445,.T.);
#568=ORIENTED_EDGE('',*,*,#446,.T.);
#569=ORIENTED_EDGE('',*,*,#447,.T.);
#570=ORIENTED_EDGE('',*,*,#448,.T.);
#571=ORIENTED_EDGE('',*,*,#449,.T.);
#572=ORIENTED_EDGE('',*,*,#450,.T.);
#573=ORIENTED_EDGE('',*,*,#451,.T.);
#574=ORIENTED_EDGE('',*,*,#452,.T.);
#575=ORIENTED_EDGE('',*,*,#453,.T.);
#576=ORIENTED_EDGE('',*,*,#454,.T.);
#577=ORIENTED_EDGE('',*,*,#455,.T.);
#578=ORIENTED_EDGE('',*,*,#456,.T.);
#579=ORIENTED_EDGE('',*,*,#457,.T.);
#580=ORIENTED_EDGE('',*,*,#458,.T.);
#581=ORIENTED_EDGE('',*,*,#459,.T.);
#582=ORIENTED_EDGE('',*,*,#460,.T.);
#583=ORIENTED_EDGE('',*,*,#461,.T.);
#584=ORIENTED_EDGE('',*,*,#462,.T.);
#585=ORIENTED_EDGE('',*,*,#463,.T.);
#586=ORIENTED_EDGE('',*,*,#464,.T.);
#587=ORIENTED_EDGE('',*,*,#417,.F.);
#588=ORIENTED_EDGE('',*,*,#465,.F.);
#589=ORIENTED_EDGE('',*,*,#426,.T.);
#590=ORIENTED_EDGE('',*,*,#431,.T.);
#591=ORIENTED_EDGE('',*,*,#428,.T.);
#592=ORIENTED_EDGE('',*,*,#466,.T.);
#593=ORIENTED_EDGE('',*,*,#467,.F.);
#594=ORIENTED_EDGE('',*,*,#468,.T.);
#595=ORIENTED_EDGE('',*,*,#436,.F.);
#596=ORIENTED_EDGE('',*,*,#469,.F.);
#597=ORIENTED_EDGE('',*,*,#470,.T.);
#598=ORIENTED_EDGE('',*,*,#419,.F.);
#599=ORIENTED_EDGE('',*,*,#471,.F.);
#600=ORIENTED_EDGE('',*,*,#472,.T.);
#601=ORIENTED_EDGE('',*,*,#473,.T.);
#602=ORIENTED_EDGE('',*,*,#474,.T.);
#603=ORIENTED_EDGE('',*,*,#475,.T.);
#604=ORIENTED_EDGE('',*,*,#476,.T.);
#605=ORIENTED_EDGE('',*,*,#477,.T.);
#606=ORIENTED_EDGE('',*,*,#478,.T.);
#607=ORIENTED_EDGE('',*,*,#479,.T.);
#608=ORIENTED_EDGE('',*,*,#480,.T.);
#609=ORIENTED_EDGE('',*,*,#481,.T.);
#610=ORIENTED_EDGE('',*,*,#482,.T.);
#611=ORIENTED_EDGE('',*,*,#483,.T.);
#612=ORIENTED_EDGE('',*,*,#484,.T.);
#613=ORIENTED_EDGE('',*,*,#485,.T.);
#614=ORIENTED_EDGE('',*,*,#486,.T.);
#615=ORIENTED_EDGE('',*,*,#487,.T.);
#616=ORIENTED_EDGE('',*,*,#488,.T.);
#617=ORIENTED_EDGE('',*,*,#489,.T.);
#618=ORIENTED_EDGE('',*,*,#490,.T.);
#619=ORIENTED_EDGE('',*,*,#491,.T.);
#620=ORIENTED_EDGE('',*,*,#492,.T.);
#621=ORIENTED_EDGE('',*,*,#493,.T.);
#622=ORIENTED_EDGE('',*,*,#494,.T.);
#623=ORIENTED_EDGE('',*,*,#495,.T.);
#624=ORIENTED_EDGE('',*,*,#496,.T.);
#625=ORIENTED_EDGE('',*,*,#497,.T.);
#626=ORIENTED_EDGE('',*,*,#498,.T.);
#627=ORIENTED_EDGE('',*,*,#467,.T.);
#628=ORIENTED_EDGE('',*,*,#499,.T.);
#629=ORIENTED_EDGE('',*,*,#500,.T.);
#630=ORIENTED_EDGE('',*,*,#501,.T.);
#631=ORIENTED_EDGE('',*,*,#502,.T.);
#632=ORIENTED_EDGE('',*,*,#430,.T.);
#633=ORIENTED_EDGE('',*,*,#432,.T.);
#634=ORIENTED_EDGE('',*,*,#424,.T.);
#635=ORIENTED_EDGE('',*,*,#503,.F.);
#636=ORIENTED_EDGE('',*,*,#466,.F.);
#637=ORIENTED_EDGE('',*,*,#427,.T.);
#638=ORIENTED_EDGE('',*,*,#502,.F.);
#639=ORIENTED_EDGE('',*,*,#423,.T.);
#640=ORIENTED_EDGE('',*,*,#465,.T.);
#641=ORIENTED_EDGE('',*,*,#416,.F.);
#642=ORIENTED_EDGE('',*,*,#470,.F.);
#643=ORIENTED_EDGE('',*,*,#464,.F.);
#644=ORIENTED_EDGE('',*,*,#504,.F.);
#645=ORIENTED_EDGE('',*,*,#471,.T.);
#646=ORIENTED_EDGE('',*,*,#418,.F.);
#647=ORIENTED_EDGE('',*,*,#504,.T.);
#648=ORIENTED_EDGE('',*,*,#463,.F.);
#649=ORIENTED_EDGE('',*,*,#505,.F.);
#650=ORIENTED_EDGE('',*,*,#472,.F.);
#651=ORIENTED_EDGE('',*,*,#505,.T.);
#652=ORIENTED_EDGE('',*,*,#462,.F.);
#653=ORIENTED_EDGE('',*,*,#506,.F.);
#654=ORIENTED_EDGE('',*,*,#473,.F.);
#655=ORIENTED_EDGE('',*,*,#506,.T.);
#656=ORIENTED_EDGE('',*,*,#461,.F.);
#657=ORIENTED_EDGE('',*,*,#507,.F.);
#658=ORIENTED_EDGE('',*,*,#474,.F.);
#659=ORIENTED_EDGE('',*,*,#507,.T.);
#660=ORIENTED_EDGE('',*,*,#460,.F.);
#661=ORIENTED_EDGE('',*,*,#508,.F.);
#662=ORIENTED_EDGE('',*,*,#475,.F.);
#663=ORIENTED_EDGE('',*,*,#508,.T.);
#664=ORIENTED_EDGE('',*,*,#459,.F.);
#665=ORIENTED_EDGE('',*,*,#509,.F.);
#666=ORIENTED_EDGE('',*,*,#476,.F.);
#667=ORIENTED_EDGE('',*,*,#509,.T.);
#668=ORIENTED_EDGE('',*,*,#458,.F.);
#669=ORIENTED_EDGE('',*,*,#510,.F.);
#670=ORIENTED_EDGE('',*,*,#477,.F.);
#671=ORIENTED_EDGE('',*,*,#510,.T.);
#672=ORIENTED_EDGE('',*,*,#457,.F.);
#673=ORIENTED_EDGE('',*,*,#511,.F.);
#674=ORIENTED_EDGE('',*,*,#478,.F.);
#675=ORIENTED_EDGE('',*,*,#511,.T.);
#676=ORIENTED_EDGE('',*,*,#456,.F.);
#677=ORIENTED_EDGE('',*,*,#512,.F.);
#678=ORIENTED_EDGE('',*,*,#479,.F.);
#679=ORIENTED_EDGE('',*,*,#512,.T.);
#680=ORIENTED_EDGE('',*,*,#455,.F.);
#681=ORIENTED_EDGE('',*,*,#513,.F.);
#682=ORIENTED_EDGE('',*,*,#480,.F.);
#683=ORIENTED_EDGE('',*,*,#513,.T.);
#684=ORIENTED_EDGE('',*,*,#454,.F.);
#685=ORIENTED_EDGE('',*,*,#514,.F.);
#686=ORIENTED_EDGE('',*,*,#481,.F.);
#687=ORIENTED_EDGE('',*,*,#514,.T.);
#688=ORIENTED_EDGE('',*,*,#453,.F.);
#689=ORIENTED_EDGE('',*,*,#515,.F.);
#690=ORIENTED_EDGE('',*,*,#482,.F.);
#691=ORIENTED_EDGE('',*,*,#515,.T.);
#692=ORIENTED_EDGE('',*,*,#452,.F.);
#693=ORIENTED_EDGE('',*,*,#516,.F.);
#694=ORIENTED_EDGE('',*,*,#483,.F.);
#695=ORIENTED_EDGE('',*,*,#516,.T.);
#696=ORIENTED_EDGE('',*,*,#451,.F.);
#697=ORIENTED_EDGE('',*,*,#517,.F.);
#698=ORIENTED_EDGE('',*,*,#484,.F.);
#699=ORIENTED_EDGE('',*,*,#517,.T.);
#700=ORIENTED_EDGE('',*,*,#450,.F.);
#701=ORIENTED_EDGE('',*,*,#518,.F.);
#702=ORIENTED_EDGE('',*,*,#485,.F.);
#703=ORIENTED_EDGE('',*,*,#518,.T.);
#704=ORIENTED_EDGE('',*,*,#449,.F.);
#705=ORIENTED_EDGE('',*,*,#519,.F.);
#706=ORIENTED_EDGE('',*,*,#486,.F.);
#707=ORIENTED_EDGE('',*,*,#519,.T.);
#708=ORIENTED_EDGE('',*,*,#448,.F.);
#709=ORIENTED_EDGE('',*,*,#520,.F.);
#710=ORIENTED_EDGE('',*,*,#487,.F.);
#711=ORIENTED_EDGE('',*,*,#520,.T.);
#712=ORIENTED_EDGE('',*,*,#447,.F.);
#713=ORIENTED_EDGE('',*,*,#521,.F.);
#714=ORIENTED_EDGE('',*,*,#488,.F.);
#715=ORIENTED_EDGE('',*,*,#521,.T.);
#716=ORIENTED_EDGE('',*,*,#446,.F.);
#717=ORIENTED_EDGE('',*,*,#522,.F.);
#718=ORIENTED_EDGE('',*,*,#489,.F.);
#719=ORIENTED_EDGE('',*,*,#522,.T.);
#720=ORIENTED_EDGE('',*,*,#445,.F.);
#721=ORIENTED_EDGE('',*,*,#523,.F.);
#722=ORIENTED_EDGE('',*,*,#490,.F.);
#723=ORIENTED_EDGE('',*,*,#523,.T.);
#724=ORIENTED_EDGE('',*,*,#444,.F.);
#725=ORIENTED_EDGE('',*,*,#524,.F.);
#726=ORIENTED_EDGE('',*,*,#491,.F.);
#727=ORIENTED_EDGE('',*,*,#524,.T.);
#728=ORIENTED_EDGE('',*,*,#443,.F.);
#729=ORIENTED_EDGE('',*,*,#525,.F.);
#730=ORIENTED_EDGE('',*,*,#492,.F.);
#731=ORIENTED_EDGE('',*,*,#525,.T.);
#732=ORIENTED_EDGE('',*,*,#442,.F.);
#733=ORIENTED_EDGE('',*,*,#526,.F.);
#734=ORIENTED_EDGE('',*,*,#493,.F.);
#735=ORIENTED_EDGE('',*,*,#526,.T.);
#736=ORIENTED_EDGE('',*,*,#441,.F.);
#737=ORIENTED_EDGE('',*,*,#527,.F.);
#738=ORIENTED_EDGE('',*,*,#494,.F.);
#739=ORIENTED_EDGE('',*,*,#527,.T.);
#740=ORIENTED_EDGE('',*,*,#440,.F.);
#741=ORIENTED_EDGE('',*,*,#528,.F.);
#742=ORIENTED_EDGE('',*,*,#495,.F.);
#743=ORIENTED_EDGE('',*,*,#528,.T.);
#744=ORIENTED_EDGE('',*,*,#439,.F.);
#745=ORIENTED_EDGE('',*,*,#529,.F.);
#746=ORIENTED_EDGE('',*,*,#496,.F.);
#747=ORIENTED_EDGE('',*,*,#529,.T.);
#748=ORIENTED_EDGE('',*,*,#438,.F.);
#749=ORIENTED_EDGE('',*,*,#530,.F.);
#750=ORIENTED_EDGE('',*,*,#497,.F.);
#751=ORIENTED_EDGE('',*,*,#530,.T.);
#752=ORIENTED_EDGE('',*,*,#437,.F.);
#753=ORIENTED_EDGE('',*,*,#468,.F.);
#754=ORIENTED_EDGE('',*,*,#498,.F.);
#755=ORIENTED_EDGE('',*,*,#469,.T.);
#756=ORIENTED_EDGE('',*,*,#435,.F.);
#757=ORIENTED_EDGE('',*,*,#531,.F.);
#758=ORIENTED_EDGE('',*,*,#499,.F.);
#759=ORIENTED_EDGE('',*,*,#531,.T.);
#760=ORIENTED_EDGE('',*,*,#434,.F.);
#761=ORIENTED_EDGE('',*,*,#532,.F.);
#762=ORIENTED_EDGE('',*,*,#500,.F.);
#763=ORIENTED_EDGE('',*,*,#532,.T.);
#764=ORIENTED_EDGE('',*,*,#433,.F.);
#765=ORIENTED_EDGE('',*,*,#503,.T.);
#766=ORIENTED_EDGE('',*,*,#501,.F.);
#767=PLANE('',#863);
#768=PLANE('',#867);
#769=PLANE('',#868);
#770=PLANE('',#869);
#771=PLANE('',#870);
#772=PLANE('',#871);
#773=PLANE('',#872);
#774=PLANE('',#873);
#775=PLANE('',#874);
#776=PLANE('',#875);
#777=PLANE('',#876);
#778=PLANE('',#877);
#779=PLANE('',#878);
#780=PLANE('',#879);
#781=PLANE('',#880);
#782=PLANE('',#881);
#783=PLANE('',#882);
#784=PLANE('',#883);
#785=PLANE('',#884);
#786=PLANE('',#885);
#787=PLANE('',#886);
#788=PLANE('',#887);
#789=PLANE('',#888);
#790=PLANE('',#889);
#791=PLANE('',#890);
#792=PLANE('',#891);
#793=PLANE('',#892);
#794=PLANE('',#893);
#795=PLANE('',#894);
#796=PLANE('',#895);
#797=PLANE('',#896);
#798=PLANE('',#897);
#799=PLANE('',#898);
#800=PLANE('',#899);
#801=PLANE('',#900);
#802=PLANE('',#901);
#803=PLANE('',#902);
#804=PLANE('',#903);
#805=PLANE('',#904);
#806=PLANE('',#905);
#807=ADVANCED_FACE('',(#24),#767,.T.);
#808=ADVANCED_FACE('',(#25),#23,.F.);
#809=ADVANCED_FACE('',(#26,#19),#768,.T.);
#810=ADVANCED_FACE('',(#27,#20),#769,.T.);
#811=ADVANCED_FACE('',(#28),#770,.T.);
#812=ADVANCED_FACE('',(#29),#771,.T.);
#813=ADVANCED_FACE('',(#30),#772,.T.);
#814=ADVANCED_FACE('',(#31),#773,.T.);
#815=ADVANCED_FACE('',(#32),#774,.T.);
#816=ADVANCED_FACE('',(#33),#775,.T.);
#817=ADVANCED_FACE('',(#34),#776,.T.);
#818=ADVANCED_FACE('',(#35),#777,.T.);
#819=ADVANCED_FACE('',(#36),#778,.T.);
#820=ADVANCED_FACE('',(#37),#779,.T.);
#821=ADVANCED_FACE('',(#38),#780,.T.);
#822=ADVANCED_FACE('',(#39),#781,.T.);
#823=ADVANCED_FACE('',(#40),#782,.T.);
#824=ADVANCED_FACE('',(#41),#783,.T.);
#825=ADVANCED_FACE('',(#42),#784,.T.);
#826=ADVANCED_FACE('',(#43),#785,.T.);
#827=ADVANCED_FACE('',(#44),#786,.T.);
#828=ADVANCED_FACE('',(#45),#787,.T.);
#829=ADVANCED_FACE('',(#46),#788,.T.);
#830=ADVANCED_FACE('',(#47),#789,.T.);
#831=ADVANCED_FACE('',(#48),#790,.T.);
#832=ADVANCED_FACE('',(#49),#791,.T.);
#833=ADVANCED_FACE('',(#50),#792,.T.);
#834=ADVANCED_FACE('',(#51),#793,.T.);
#835=ADVANCED_FACE('',(#52),#794,.T.);
#836=ADVANCED_FACE('',(#53),#795,.T.);
#837=ADVANCED_FACE('',(#54),#796,.T.);
#838=ADVANCED_FACE('',(#55),#797,.T.);
#839=ADVANCED_FACE('',(#56),#798,.T.);
#840=ADVANCED_FACE('',(#57),#799,.T.);
#841=ADVANCED_FACE('',(#58),#800,.T.);
#842=ADVANCED_FACE('',(#59),#801,.T.);
#843=ADVANCED_FACE('',(#60),#802,.T.);
#844=ADVANCED_FACE('',(#61),#803,.T.);
#845=ADVANCED_FACE('',(#62),#804,.T.);
#846=ADVANCED_FACE('',(#63),#805,.T.);
#847=ADVANCED_FACE('',(#64),#806,.T.);
#848=CLOSED_SHELL('',(#807,#808,#809,#810,#811,#812,#813,#814,#815,#816,
#817,#818,#819,#820,#821,#822,#823,#824,#825,#826,#827,#828,#829,#830,#831,
#832,#833,#834,#835,#836,#837,#838,#839,#840,#841,#842,#843,#844,#845,#846,
#847));
#849=DERIVED_UNIT_ELEMENT(#851,1.);
#850=DERIVED_UNIT_ELEMENT(#1360,-3.);
#851=(
MASS_UNIT()
NAMED_UNIT(*)
SI_UNIT(.KILO.,.GRAM.)
);
#852=DERIVED_UNIT((#849,#850));
#853=MEASURE_REPRESENTATION_ITEM('density measure',
POSITIVE_RATIO_MEASURE(7850.),#852);
#854=PROPERTY_DEFINITION_REPRESENTATION(#859,#856);
#855=PROPERTY_DEFINITION_REPRESENTATION(#860,#857);
#856=REPRESENTATION('material name',(#858),#1357);
#857=REPRESENTATION('density',(#853),#1357);
#858=DESCRIPTIVE_REPRESENTATION_ITEM('Steel','Steel');
#859=PROPERTY_DEFINITION('material property','material name',#1372);
#860=PROPERTY_DEFINITION('material property','density of part',#1372);
#861=AXIS2_PLACEMENT_3D('',#1114,#907,#908);
#862=AXIS2_PLACEMENT_3D('',#1115,#909,#910);
#863=AXIS2_PLACEMENT_3D('',#1116,#911,#912);
#864=AXIS2_PLACEMENT_3D('',#1125,#917,#918);
#865=AXIS2_PLACEMENT_3D('',#1127,#919,#920);
#866=AXIS2_PLACEMENT_3D('',#1130,#922,#923);
#867=AXIS2_PLACEMENT_3D('',#1131,#924,#925);
#868=AXIS2_PLACEMENT_3D('',#1140,#930,#931);
#869=AXIS2_PLACEMENT_3D('',#1149,#936,#937);
#870=AXIS2_PLACEMENT_3D('',#1152,#940,#941);
#871=AXIS2_PLACEMENT_3D('',#1219,#976,#977);
#872=AXIS2_PLACEMENT_3D('',#1225,#981,#982);
#873=AXIS2_PLACEMENT_3D('',#1289,#1016,#1017);
#874=AXIS2_PLACEMENT_3D('',#1291,#1019,#1020);
#875=AXIS2_PLACEMENT_3D('',#1292,#1021,#1022);
#876=AXIS2_PLACEMENT_3D('',#1294,#1024,#1025);
#877=AXIS2_PLACEMENT_3D('',#1296,#1027,#1028);
#878=AXIS2_PLACEMENT_3D('',#1298,#1030,#1031);
#879=AXIS2_PLACEMENT_3D('',#1300,#1033,#1034);
#880=AXIS2_PLACEMENT_3D('',#1302,#1036,#1037);
#881=AXIS2_PLACEMENT_3D('',#1304,#1039,#1040);
#882=AXIS2_PLACEMENT_3D('',#1306,#1042,#1043);
#883=AXIS2_PLACEMENT_3D('',#1308,#1045,#1046);
#884=AXIS2_PLACEMENT_3D('',#1310,#1048,#1049);
#885=AXIS2_PLACEMENT_3D('',#1312,#1051,#1052);
#886=AXIS2_PLACEMENT_3D('',#1314,#1054,#1055);
#887=AXIS2_PLACEMENT_3D('',#1316,#1057,#1058);
#888=AXIS2_PLACEMENT_3D('',#1318,#1060,#1061);
#889=AXIS2_PLACEMENT_3D('',#1320,#1063,#1064);
#890=AXIS2_PLACEMENT_3D('',#1322,#1066,#1067);
#891=AXIS2_PLACEMENT_3D('',#1324,#1069,#1070);
#892=AXIS2_PLACEMENT_3D('',#1326,#1072,#1073);
#893=AXIS2_PLACEMENT_3D('',#1328,#1075,#1076);
#894=AXIS2_PLACEMENT_3D('',#1330,#1078,#1079);
#895=AXIS2_PLACEMENT_3D('',#1332,#1081,#1082);
#896=AXIS2_PLACEMENT_3D('',#1334,#1084,#1085);
#897=AXIS2_PLACEMENT_3D('',#1336,#1087,#1088);
#898=AXIS2_PLACEMENT_3D('',#1338,#1090,#1091);
#899=AXIS2_PLACEMENT_3D('',#1340,#1093,#1094);
#900=AXIS2_PLACEMENT_3D('',#1342,#1096,#1097);
#901=AXIS2_PLACEMENT_3D('',#1344,#1099,#1100);
#902=AXIS2_PLACEMENT_3D('',#1346,#1102,#1103);
#903=AXIS2_PLACEMENT_3D('',#1347,#1104,#1105);
#904=AXIS2_PLACEMENT_3D('',#1349,#1107,#1108);
#905=AXIS2_PLACEMENT_3D('',#1351,#1110,#1111);
#906=AXIS2_PLACEMENT_3D('',#1352,#1112,#1113);
#907=DIRECTION('axis',(0.,0.,1.));
#908=DIRECTION('refdir',(1.,0.,0.));
#909=DIRECTION('axis',(0.,0.,1.));
#910=DIRECTION('refdir',(1.,0.,0.));
#911=DIRECTION('center_axis',(0.,1.,0.));
#912=DIRECTION('ref_axis',(0.,0.,1.));
#913=DIRECTION('',(0.,0.,1.));
#914=DIRECTION('',(-1.,0.,0.));
#915=DIRECTION('',(0.,0.,-1.));
#916=DIRECTION('',(1.,0.,0.));
#917=DIRECTION('center_axis',(0.,-1.,0.));
#918=DIRECTION('ref_axis',(-1.,0.,1.35585468084861E-31));
#919=DIRECTION('center_axis',(-6.20930098103149E-17,-1.,0.));
#920=DIRECTION('ref_axis',(-1.,0.,1.35585468084861E-31));
#921=DIRECTION('',(0.,-1.,0.));
#922=DIRECTION('center_axis',(0.,1.,0.));
#923=DIRECTION('ref_axis',(-1.,0.,1.35585468084861E-31));
#924=DIRECTION('center_axis',(6.20930098103149E-17,1.,0.));
#925=DIRECTION('ref_axis',(-1.,6.20930098103149E-17,1.23160997841048E-47));
#926=DIRECTION('',(0.,0.,1.));
#927=DIRECTION('',(1.,-6.20930098103149E-17,0.));
#928=DIRECTION('',(0.,0.,1.));
#929=DIRECTION('',(-1.,6.20930098103149E-17,0.));
#930=DIRECTION('center_axis',(0.,-1.,0.));
#931=DIRECTION('ref_axis',(1.,0.,-1.23160997841048E-47));
#932=DIRECTION('',(0.,0.,-1.));
#933=DIRECTION('',(1.,0.,0.));
#934=DIRECTION('',(0.,0.,1.));
#935=DIRECTION('',(-1.,0.,0.));
#936=DIRECTION('center_axis',(-1.,-1.66060780246866E-141,0.));
#937=DIRECTION('ref_axis',(1.66060780246866E-141,-1.,1.34832279015135E-94));
#938=DIRECTION('',(1.66060780246866E-141,-1.,0.));
#939=DIRECTION('',(-1.66060780246866E-141,1.,0.));
#940=DIRECTION('center_axis',(0.,0.,1.));
#941=DIRECTION('ref_axis',(1.,0.,0.));
#942=DIRECTION('',(0.939692573293995,0.342020273808601,0.));
#943=DIRECTION('',(0.,1.,0.));
#944=DIRECTION('',(-0.939692573293995,0.342020273808601,0.));
#945=DIRECTION('',(0.,1.,0.));
#946=DIRECTION('',(0.939692573293995,0.342020273808601,0.));
#947=DIRECTION('',(0.,1.,0.));
#948=DIRECTION('',(-0.939692573293995,0.342020273808601,0.));
#949=DIRECTION('',(0.,1.,0.));
#950=DIRECTION('',(0.939692573293995,0.342020273808601,0.));
#951=DIRECTION('',(0.,1.,0.));
#952=DIRECTION('',(-0.939692573293995,0.342020273808601,0.));
#953=DIRECTION('',(0.,1.,0.));
#954=DIRECTION('',(0.939692573293995,0.342020273808601,0.));
#955=DIRECTION('',(0.,1.,0.));
#956=DIRECTION('',(-0.939692573293995,0.342020273808601,0.));
#957=DIRECTION('',(0.,1.,0.));
#958=DIRECTION('',(0.939692573293995,0.342020273808601,0.));
#959=DIRECTION('',(0.,1.,0.));
#960=DIRECTION('',(-0.939692573293995,0.342020273808601,0.));
#961=DIRECTION('',(0.,1.,0.));
#962=DIRECTION('',(0.939692573293995,0.3420202738086,0.));
#963=DIRECTION('',(0.,1.,0.));
#964=DIRECTION('',(-0.939692573293995,0.342020273808601,0.));
#965=DIRECTION('',(0.,1.,0.));
#966=DIRECTION('',(0.939692573293995,0.3420202738086,0.));
#967=DIRECTION('',(0.,1.,0.));
#968=DIRECTION('',(-0.939692573293995,0.342020273808601,0.));
#969=DIRECTION('',(0.,1.,0.));
#970=DIRECTION('',(0.939692573293995,0.3420202738086,0.));
#971=DIRECTION('',(0.,1.,0.));
#972=DIRECTION('',(-0.939692573293995,0.342020273808601,0.));
#973=DIRECTION('',(0.,1.,0.));
#974=DIRECTION('',(0.,-1.,0.));
#975=DIRECTION('',(0.,1.,0.));
#976=DIRECTION('center_axis',(1.,0.,0.));
#977=DIRECTION('ref_axis',(0.,1.,0.));
#978=DIRECTION('',(0.,-1.,0.));
#979=DIRECTION('',(0.,0.,1.));
#980=DIRECTION('',(0.,0.,1.));
#981=DIRECTION('center_axis',(0.,0.,-1.));
#982=DIRECTION('ref_axis',(-1.,0.,0.));
#983=DIRECTION('',(0.,1.,0.));
#984=DIRECTION('',(0.,-1.,0.));
#985=DIRECTION('',(0.939692573293995,-0.342020273808601,0.));
#986=DIRECTION('',(0.,-1.,0.));
#987=DIRECTION('',(-0.939692573293995,-0.3420202738086,0.));
#988=DIRECTION('',(0.,-1.,0.));
#989=DIRECTION('',(0.939692573293995,-0.342020273808601,0.));
#990=DIRECTION('',(0.,-1.,0.));
#991=DIRECTION('',(-0.939692573293995,-0.3420202738086,0.));
#992=DIRECTION('',(0.,-1.,0.));
#993=DIRECTION('',(0.939692573293995,-0.342020273808601,0.));
#994=DIRECTION('',(0.,-1.,0.));
#995=DIRECTION('',(-0.939692573293995,-0.3420202738086,0.));
#996=DIRECTION('',(0.,-1.,0.));
#997=DIRECTION('',(0.939692573293995,-0.342020273808601,0.));
#998=DIRECTION('',(0.,-1.,0.));
#999=DIRECTION('',(-0.939692573293995,-0.342020273808601,0.));
#1000=DIRECTION('',(0.,-1.,0.));
#1001=DIRECTION('',(0.939692573293995,-0.342020273808601,0.));
#1002=DIRECTION('',(0.,-1.,0.));
#1003=DIRECTION('',(-0.939692573293995,-0.342020273808601,0.));
#1004=DIRECTION('',(0.,-1.,0.));
#1005=DIRECTION('',(0.939692573293995,-0.342020273808601,0.));
#1006=DIRECTION('',(0.,-1.,0.));
#1007=DIRECTION('',(-0.939692573293995,-0.342020273808601,0.));
#1008=DIRECTION('',(0.,-1.,0.));
#1009=DIRECTION('',(0.939692573293995,-0.342020273808601,0.));
#1010=DIRECTION('',(0.,-1.,0.));
#1011=DIRECTION('',(-0.939692573293995,-0.342020273808601,0.));
#1012=DIRECTION('',(0.939692573293995,-0.342020273808601,0.));
#1013=DIRECTION('',(0.,-1.,0.));
#1014=DIRECTION('',(-0.939692573293995,-0.342020273808601,0.));
#1015=DIRECTION('',(0.,-1.,0.));
#1016=DIRECTION('center_axis',(1.,0.,0.));
#1017=DIRECTION('ref_axis',(0.,1.,0.));
#1018=DIRECTION('',(0.,0.,-1.));
#1019=DIRECTION('center_axis',(-1.,0.,0.));
#1020=DIRECTION('ref_axis',(0.,-1.,0.));
#1021=DIRECTION('center_axis',(1.,0.,0.));
#1022=DIRECTION('ref_axis',(0.,1.,0.));
#1023=DIRECTION('',(0.,0.,1.));
#1024=DIRECTION('center_axis',(0.342020273808601,0.939692573293995,0.));
#1025=DIRECTION('ref_axis',(-0.939692573293995,0.342020273808601,0.));
#1026=DIRECTION('',(0.,0.,1.));
#1027=DIRECTION('center_axis',(1.,0.,0.));
#1028=DIRECTION('ref_axis',(0.,1.,0.));
#1029=DIRECTION('',(0.,0.,1.));
#1030=DIRECTION('center_axis',(0.3420202738086,-0.939692573293995,0.));
#1031=DIRECTION('ref_axis',(0.939692573293995,0.3420202738086,0.));
#1032=DIRECTION('',(0.,0.,1.));
#1033=DIRECTION('center_axis',(1.,0.,0.));
#1034=DIRECTION('ref_axis',(0.,1.,0.));
#1035=DIRECTION('',(0.,0.,1.));
#1036=DIRECTION('center_axis',(0.342020273808601,0.939692573293995,0.));
#1037=DIRECTION('ref_axis',(-0.939692573293995,0.342020273808601,0.));
#1038=DIRECTION('',(0.,0.,1.));
#1039=DIRECTION('center_axis',(1.,0.,0.));
#1040=DIRECTION('ref_axis',(0.,1.,0.));
#1041=DIRECTION('',(0.,0.,1.));
#1042=DIRECTION('center_axis',(0.3420202738086,-0.939692573293995,0.));
#1043=DIRECTION('ref_axis',(0.939692573293995,0.3420202738086,0.));
#1044=DIRECTION('',(0.,0.,1.));
#1045=DIRECTION('center_axis',(1.,0.,0.));
#1046=DIRECTION('ref_axis',(0.,1.,0.));
#1047=DIRECTION('',(0.,0.,1.));
#1048=DIRECTION('center_axis',(0.342020273808601,0.939692573293995,0.));
#1049=DIRECTION('ref_axis',(-0.939692573293995,0.342020273808601,0.));
#1050=DIRECTION('',(0.,0.,1.));
#1051=DIRECTION('center_axis',(1.,0.,0.));
#1052=DIRECTION('ref_axis',(0.,1.,0.));
#1053=DIRECTION('',(0.,0.,1.));
#1054=DIRECTION('center_axis',(0.3420202738086,-0.939692573293995,0.));
#1055=DIRECTION('ref_axis',(0.939692573293995,0.3420202738086,0.));
#1056=DIRECTION('',(0.,0.,1.));
#1057=DIRECTION('center_axis',(1.,0.,0.));
#1058=DIRECTION('ref_axis',(0.,1.,0.));
#1059=DIRECTION('',(0.,0.,1.));
#1060=DIRECTION('center_axis',(0.342020273808601,0.939692573293995,0.));
#1061=DIRECTION('ref_axis',(-0.939692573293995,0.342020273808601,0.));
#1062=DIRECTION('',(0.,0.,1.));
#1063=DIRECTION('center_axis',(1.,0.,0.));
#1064=DIRECTION('ref_axis',(0.,1.,0.));
#1065=DIRECTION('',(0.,0.,1.));
#1066=DIRECTION('center_axis',(0.342020273808601,-0.939692573293995,0.));
#1067=DIRECTION('ref_axis',(0.939692573293995,0.342020273808601,0.));
#1068=DIRECTION('',(0.,0.,1.));
#1069=DIRECTION('center_axis',(1.,0.,0.));
#1070=DIRECTION('ref_axis',(0.,1.,0.));
#1071=DIRECTION('',(0.,0.,1.));
#1072=DIRECTION('center_axis',(0.342020273808601,0.939692573293995,0.));
#1073=DIRECTION('ref_axis',(-0.939692573293995,0.342020273808601,0.));
#1074=DIRECTION('',(0.,0.,1.));
#1075=DIRECTION('center_axis',(1.,0.,0.));
#1076=DIRECTION('ref_axis',(0.,1.,0.));
#1077=DIRECTION('',(0.,0.,1.));
#1078=DIRECTION('center_axis',(0.342020273808601,-0.939692573293995,0.));
#1079=DIRECTION('ref_axis',(0.939692573293995,0.342020273808601,0.));
#1080=DIRECTION('',(0.,0.,1.));
#1081=DIRECTION('center_axis',(1.,0.,0.));
#1082=DIRECTION('ref_axis',(0.,1.,0.));
#1083=DIRECTION('',(0.,0.,1.));
#1084=DIRECTION('center_axis',(0.342020273808601,0.939692573293995,0.));
#1085=DIRECTION('ref_axis',(-0.939692573293995,0.342020273808601,0.));
#1086=DIRECTION('',(0.,0.,1.));
#1087=DIRECTION('center_axis',(1.,0.,0.));
#1088=DIRECTION('ref_axis',(0.,1.,0.));
#1089=DIRECTION('',(0.,0.,1.));
#1090=DIRECTION('center_axis',(0.342020273808601,-0.939692573293995,0.));
#1091=DIRECTION('ref_axis',(0.939692573293995,0.342020273808601,0.));
#1092=DIRECTION('',(0.,0.,1.));
#1093=DIRECTION('center_axis',(1.,0.,0.));
#1094=DIRECTION('ref_axis',(0.,1.,0.));
#1095=DIRECTION('',(0.,0.,1.));
#1096=DIRECTION('center_axis',(0.342020273808601,0.939692573293995,0.));
#1097=DIRECTION('ref_axis',(-0.939692573293995,0.342020273808601,0.));
#1098=DIRECTION('',(0.,0.,1.));
#1099=DIRECTION('center_axis',(1.,0.,0.));
#1100=DIRECTION('ref_axis',(0.,1.,0.));
#1101=DIRECTION('',(0.,0.,1.));
#1102=DIRECTION('center_axis',(0.342020273808601,-0.939692573293995,0.));
#1103=DIRECTION('ref_axis',(0.939692573293995,0.342020273808601,0.));
#1104=DIRECTION('center_axis',(0.342020273808601,0.939692573293995,0.));
#1105=DIRECTION('ref_axis',(-0.939692573293995,0.342020273808601,0.));
#1106=DIRECTION('',(0.,0.,1.));
#1107=DIRECTION('center_axis',(1.,0.,0.));
#1108=DIRECTION('ref_axis',(0.,1.,0.));
#1109=DIRECTION('',(0.,0.,1.));
#1110=DIRECTION('center_axis',(0.342020273808601,-0.939692573293995,0.));
#1111=DIRECTION('ref_axis',(0.939692573293995,0.342020273808601,0.));
#1112=DIRECTION('',(0.,0.,1.));
#1113=DIRECTION('',(1.,0.,0.));
#1114=CARTESIAN_POINT('',(0.,0.,0.));
#1115=CARTESIAN_POINT('',(0.,0.,0.));
#1116=CARTESIAN_POINT('Origin',(-3.62,76.7998347057704,0.));
#1117=CARTESIAN_POINT('',(-8.62,76.7998347057704,-4.9));
#1118=CARTESIAN_POINT('',(-8.62,76.7998347057704,4.9));
#1119=CARTESIAN_POINT('',(-8.62,76.7998347057704,0.));
#1120=CARTESIAN_POINT('',(-3.62,76.7998347057704,4.9));
#1121=CARTESIAN_POINT('',(-3.215,76.7998347057704,4.9));
#1122=CARTESIAN_POINT('',(-3.62,76.7998347057704,-4.9));
#1123=CARTESIAN_POINT('',(-3.62,76.7998347057704,0.));
#1124=CARTESIAN_POINT('',(-3.215,76.7998347057704,-4.9));
#1125=CARTESIAN_POINT('Origin',(-16.6999996267259,4.69999989494681,-5.32907051820075E-14));
#1126=CARTESIAN_POINT('',(-14.9999996267259,4.69999989494681,-5.34988951378626E-14));
#1127=CARTESIAN_POINT('Origin',(-16.6999996267259,4.69999989494681,-5.32907051820075E-14));
#1128=CARTESIAN_POINT('',(-14.9999996267259,-4.71250022383174,-5.34988951378626E-14));
#1129=CARTESIAN_POINT('',(-14.9999996267259,4.69999989494681,-5.30825152261525E-14));
#1130=CARTESIAN_POINT('Origin',(-16.6999996267259,-4.71250022383174,-5.32907051820075E-14));
#1131=CARTESIAN_POINT('Origin',(-3.62000017194077,4.69999989494681,-1.77635683940025E-14));
#1132=CARTESIAN_POINT('',(-8.62,4.69999989494681,-4.9));
#1133=CARTESIAN_POINT('',(-8.62,4.69999989494681,4.9));
#1134=CARTESIAN_POINT('',(-8.62,4.69999989494681,-8.88178419700125E-15));
#1135=CARTESIAN_POINT('',(-21.500000320375,4.69999989494681,-4.9));
#1136=CARTESIAN_POINT('',(-3.21500008597039,4.69999989494681,-4.9));
#1137=CARTESIAN_POINT('',(-21.500000320375,4.69999989494681,4.9));
#1138=CARTESIAN_POINT('',(-21.500000320375,4.69999989494681,-1.77635683940025E-14));
#1139=CARTESIAN_POINT('',(-3.21500008597039,4.69999989494681,4.9));
#1140=CARTESIAN_POINT('Origin',(-21.500000320375,-4.71250022383174,-1.77635683940025E-14));
#1141=CARTESIAN_POINT('',(-3.62000017194077,-4.71250022383174,4.9));
#1142=CARTESIAN_POINT('',(-3.62000017194077,-4.71250022383174,-4.9));
#1143=CARTESIAN_POINT('',(-3.62000017194077,-4.71250022383174,-1.77635683940025E-14));
#1144=CARTESIAN_POINT('',(-21.500000320375,-4.71250022383174,4.9));
#1145=CARTESIAN_POINT('',(-12.1550001601875,-4.71250022383174,4.9));
#1146=CARTESIAN_POINT('',(-21.500000320375,-4.71250022383174,-4.9));
#1147=CARTESIAN_POINT('',(-21.500000320375,-4.71250022383174,-1.77635683940025E-14));
#1148=CARTESIAN_POINT('',(-12.1550001601875,-4.71250022383174,-4.9));
#1149=CARTESIAN_POINT('Origin',(-21.500000320375,4.69999989494681,-1.77635683940025E-14));
#1150=CARTESIAN_POINT('',(-21.500000320375,18.8433613788198,4.9));
#1151=CARTESIAN_POINT('',(-21.500000320375,18.8433613788198,-4.9));
#1152=CARTESIAN_POINT('Origin',(-2.81,32.9867228626928,4.9));
#1153=CARTESIAN_POINT('',(-3.62,-3.67376730748838,4.9));
#1154=CARTESIAN_POINT('',(3.,-1.26428331563762,4.9));
#1155=CARTESIAN_POINT('',(2.62885312499009,-1.39936978904575,4.9));
#1156=CARTESIAN_POINT('',(3.,1.26428331563762,4.9));
#1157=CARTESIAN_POINT('',(3.,15.8612197735276,4.9));
#1158=CARTESIAN_POINT('',(-3.62,3.67376730748838,4.9));
#1159=CARTESIAN_POINT('',(-4.66287875398041,4.05334429588069,4.9));
#1160=CARTESIAN_POINT('',(-3.62,5.75101065328099,4.9));
#1161=CARTESIAN_POINT('',(-3.62,18.3302450850906,4.9));
#1162=CARTESIAN_POINT('',(3.,8.16049464513176,4.9));
#1163=CARTESIAN_POINT('',(1.11431999942287,7.47416295704359,4.9));
#1164=CARTESIAN_POINT('',(3.,10.689061276407,4.9));
#1165=CARTESIAN_POINT('',(3.,20.5736087539123,4.9));
#1166=CARTESIAN_POINT('',(-3.62,13.0985452682578,4.9));
#1167=CARTESIAN_POINT('',(-3.1483456284132,12.92687704197,4.9));
#1168=CARTESIAN_POINT('',(-3.62,15.1757886140504,4.9));
#1169=CARTESIAN_POINT('',(-3.62,23.0426340654753,4.9));
#1170=CARTESIAN_POINT('',(3.,17.5852726059011,4.9));
#1171=CARTESIAN_POINT('',(-0.40021312614434,16.3476957031329,4.9));
#1172=CARTESIAN_POINT('',(3.,20.1138392371764,4.9));
#1173=CARTESIAN_POINT('',(3.,25.285997734297,4.9));
#1174=CARTESIAN_POINT('',(-3.62,22.5233232290271,4.9));
#1175=CARTESIAN_POINT('',(-1.63381250284598,21.8004097880594,4.9));
#1176=CARTESIAN_POINT('',(-3.62,24.6005665748198,4.9));
#1177=CARTESIAN_POINT('',(-3.62,27.75502304586,4.9));
#1178=CARTESIAN_POINT('',(3.,27.0100505666705,4.9));
#1179=CARTESIAN_POINT('',(-1.91474625171155,25.2212284492223,4.9));
#1180=CARTESIAN_POINT('',(3.,29.5386171979458,4.9));
#1181=CARTESIAN_POINT('',(3.,29.9983867146817,4.9));
#1182=CARTESIAN_POINT('',(-3.62,31.9481011897965,4.9));
#1183=CARTESIAN_POINT('',(-0.11927937727877,30.6739425341487,4.9));
#1184=CARTESIAN_POINT('',(-3.62,34.0253445355891,4.9));
#1185=CARTESIAN_POINT('',(-3.62,32.4674120262447,4.9));
#1186=CARTESIAN_POINT('',(3.,36.4348285274399,4.9));
#1187=CARTESIAN_POINT('',(-3.42927937727877,34.0947611953116,4.9));
#1188=CARTESIAN_POINT('',(3.,38.9633951587151,4.9));
#1189=CARTESIAN_POINT('',(3.,34.7107756950664,4.9));
#1190=CARTESIAN_POINT('',(-3.62,41.3728791505659,4.9));
#1191=CARTESIAN_POINT('',(1.39525374828845,39.547475280238,4.9));
#1192=CARTESIAN_POINT('',(-3.62,43.4501224963585,4.9));
#1193=CARTESIAN_POINT('',(-3.62,37.1798010066294,4.9));
#1194=CARTESIAN_POINT('',(3.,45.8596064882093,4.9));
#1195=CARTESIAN_POINT('',(-4.94381250284598,42.9682939414009,4.9));
#1196=CARTESIAN_POINT('',(3.,48.3881731194845,4.9));
#1197=CARTESIAN_POINT('',(3.,39.4231646754511,4.9));
#1198=CARTESIAN_POINT('',(-3.62,50.7976571113353,4.9));
#1199=CARTESIAN_POINT('',(2.90978687385566,48.4210080263274,4.9));
#1200=CARTESIAN_POINT('',(-3.62,52.8749004571279,4.9));
#1201=CARTESIAN_POINT('',(-3.62,41.8921899870141,4.9));
#1202=CARTESIAN_POINT('',(3.,55.2843844489787,4.9));
#1203=CARTESIAN_POINT('',(-6.45834562841319,51.8418266874903,4.9));
#1204=CARTESIAN_POINT('',(3.,57.8129510802539,4.9));
#1205=CARTESIAN_POINT('',(3.,44.1355536558357,4.9));
#1206=CARTESIAN_POINT('',(-3.62,60.2224350721047,4.9));
#1207=CARTESIAN_POINT('',(4.42431999942288,57.2945407724167,4.9));
#1208=CARTESIAN_POINT('',(-3.62,62.2996784178973,4.9));
#1209=CARTESIAN_POINT('',(-3.62,46.6045789673988,4.9));
#1210=CARTESIAN_POINT('',(3.,64.709162409748,4.9));
#1211=CARTESIAN_POINT('',(-7.9728787539804,60.7153594335796,4.9));
#1212=CARTESIAN_POINT('',(3.,67.2377290410233,4.9));
#1213=CARTESIAN_POINT('',(3.,48.8479426362204,4.9));
#1214=CARTESIAN_POINT('',(-3.62,69.647213032874,4.9));
#1215=CARTESIAN_POINT('',(5.93885312499009,66.168073518506,4.9));
#1216=CARTESIAN_POINT('',(-3.62,51.3169679477834,4.9));
#1217=CARTESIAN_POINT('',(-8.62,51.8362787842316,4.9));
#1218=CARTESIAN_POINT('',(-3.62,14.1371669411541,4.9));
#1219=CARTESIAN_POINT('Origin',(-3.62,3.67376730748838,0.));
#1220=CARTESIAN_POINT('',(-3.62,5.75101065328099,-4.9));
#1221=CARTESIAN_POINT('',(-3.62,3.67376730748838,-4.9));
#1222=CARTESIAN_POINT('',(-3.62,18.3302450850906,-4.9));
#1223=CARTESIAN_POINT('',(-3.62,5.751010653281,0.));
#1224=CARTESIAN_POINT('',(-3.62,3.67376730748838,0.));
#1225=CARTESIAN_POINT('Origin',(-2.81,32.9867228626928,-4.9));
#1226=CARTESIAN_POINT('',(-8.62,51.8362787842316,-4.9));
#1227=CARTESIAN_POINT('',(-3.62,69.647213032874,-4.9));
#1228=CARTESIAN_POINT('',(-3.62,51.3169679477834,-4.9));
#1229=CARTESIAN_POINT('',(3.,67.2377290410233,-4.9));
#1230=CARTESIAN_POINT('',(5.93885312499009,66.168073518506,-4.9));
#1231=CARTESIAN_POINT('',(3.,64.709162409748,-4.9));
#1232=CARTESIAN_POINT('',(3.,48.8479426362204,-4.9));
#1233=CARTESIAN_POINT('',(-3.62,62.2996784178973,-4.9));
#1234=CARTESIAN_POINT('',(-7.9728787539804,60.7153594335796,-4.9));
#1235=CARTESIAN_POINT('',(-3.62,60.2224350721047,-4.9));
#1236=CARTESIAN_POINT('',(-3.62,46.6045789673988,-4.9));
#1237=CARTESIAN_POINT('',(3.,57.8129510802539,-4.9));
#1238=CARTESIAN_POINT('',(4.42431999942288,57.2945407724167,-4.9));
#1239=CARTESIAN_POINT('',(3.,55.2843844489787,-4.9));
#1240=CARTESIAN_POINT('',(3.,44.1355536558357,-4.9));
#1241=CARTESIAN_POINT('',(-3.62,52.8749004571279,-4.9));
#1242=CARTESIAN_POINT('',(-6.45834562841319,51.8418266874903,-4.9));
#1243=CARTESIAN_POINT('',(-3.62,50.7976571113353,-4.9));
#1244=CARTESIAN_POINT('',(-3.62,41.8921899870141,-4.9));
#1245=CARTESIAN_POINT('',(3.,48.3881731194845,-4.9));
#1246=CARTESIAN_POINT('',(2.90978687385566,48.4210080263274,-4.9));
#1247=CARTESIAN_POINT('',(3.,45.8596064882093,-4.9));
#1248=CARTESIAN_POINT('',(3.,39.4231646754511,-4.9));
#1249=CARTESIAN_POINT('',(-3.62,43.4501224963585,-4.9));
#1250=CARTESIAN_POINT('',(-4.94381250284598,42.9682939414009,-4.9));
#1251=CARTESIAN_POINT('',(-3.62,41.3728791505659,-4.9));
#1252=CARTESIAN_POINT('',(-3.62,37.1798010066294,-4.9));
#1253=CARTESIAN_POINT('',(3.,38.9633951587151,-4.9));
#1254=CARTESIAN_POINT('',(1.39525374828845,39.547475280238,-4.9));
#1255=CARTESIAN_POINT('',(3.,36.4348285274399,-4.9));
#1256=CARTESIAN_POINT('',(3.,34.7107756950664,-4.9));
#1257=CARTESIAN_POINT('',(-3.62,34.0253445355891,-4.9));
#1258=CARTESIAN_POINT('',(-3.42927937727877,34.0947611953116,-4.9));
#1259=CARTESIAN_POINT('',(-3.62,31.9481011897965,-4.9));
#1260=CARTESIAN_POINT('',(-3.62,32.4674120262447,-4.9));
#1261=CARTESIAN_POINT('',(3.,29.5386171979458,-4.9));
#1262=CARTESIAN_POINT('',(-0.11927937727877,30.6739425341487,-4.9));
#1263=CARTESIAN_POINT('',(3.,27.0100505666705,-4.9));
#1264=CARTESIAN_POINT('',(3.,29.9983867146817,-4.9));
#1265=CARTESIAN_POINT('',(-3.62,24.6005665748198,-4.9));
#1266=CARTESIAN_POINT('',(-1.91474625171155,25.2212284492223,-4.9));
#1267=CARTESIAN_POINT('',(-3.62,22.5233232290271,-4.9));
#1268=CARTESIAN_POINT('',(-3.62,27.75502304586,-4.9));
#1269=CARTESIAN_POINT('',(3.,20.1138392371764,-4.9));
#1270=CARTESIAN_POINT('',(-1.63381250284598,21.8004097880594,-4.9));
#1271=CARTESIAN_POINT('',(3.,17.5852726059011,-4.9));
#1272=CARTESIAN_POINT('',(3.,25.285997734297,-4.9));
#1273=CARTESIAN_POINT('',(-3.62,15.1757886140504,-4.9));
#1274=CARTESIAN_POINT('',(-0.40021312614434,16.3476957031329,-4.9));
#1275=CARTESIAN_POINT('',(-3.62,13.0985452682578,-4.9));
#1276=CARTESIAN_POINT('',(-3.62,23.0426340654753,-4.9));
#1277=CARTESIAN_POINT('',(3.,10.689061276407,-4.9));
#1278=CARTESIAN_POINT('',(-3.1483456284132,12.92687704197,-4.9));
#1279=CARTESIAN_POINT('',(3.,8.16049464513176,-4.9));
#1280=CARTESIAN_POINT('',(3.,20.5736087539123,-4.9));
#1281=CARTESIAN_POINT('',(1.11431999942287,7.47416295704359,-4.9));
#1282=CARTESIAN_POINT('',(3.,1.26428331563762,-4.9));
#1283=CARTESIAN_POINT('',(-4.66287875398041,4.05334429588069,-4.9));
#1284=CARTESIAN_POINT('',(3.,-1.26428331563762,-4.9));
#1285=CARTESIAN_POINT('',(3.,15.8612197735276,-4.9));
#1286=CARTESIAN_POINT('',(-3.62,-3.67376730748838,-4.9));
#1287=CARTESIAN_POINT('',(2.62885312499009,-1.39936978904575,-4.9));
#1288=CARTESIAN_POINT('',(-3.62,14.1371669411541,-4.9));
#1289=CARTESIAN_POINT('Origin',(-3.62,-4.71238898038469,0.));
#1290=CARTESIAN_POINT('',(-3.62,-3.67376730748838,0.));
#1291=CARTESIAN_POINT('Origin',(-8.62,70.6858347057704,0.));
#1292=CARTESIAN_POINT('Origin',(-3.62,69.647213032874,0.));
#1293=CARTESIAN_POINT('',(-3.62,69.647213032874,0.));
#1294=CARTESIAN_POINT('Origin',(3.,67.2377290410233,0.));
#1295=CARTESIAN_POINT('',(3.,67.2377290410233,0.));
#1296=CARTESIAN_POINT('Origin',(3.,64.709162409748,0.));
#1297=CARTESIAN_POINT('',(3.,64.709162409748,0.));
#1298=CARTESIAN_POINT('Origin',(-3.62,62.2996784178973,0.));
#1299=CARTESIAN_POINT('',(-3.62,62.2996784178973,0.));
#1300=CARTESIAN_POINT('Origin',(-3.62,60.2224350721047,0.));
#1301=CARTESIAN_POINT('',(-3.62,60.2224350721047,0.));
#1302=CARTESIAN_POINT('Origin',(3.,57.8129510802539,0.));
#1303=CARTESIAN_POINT('',(3.,57.8129510802539,0.));
#1304=CARTESIAN_POINT('Origin',(3.,55.2843844489787,0.));
#1305=CARTESIAN_POINT('',(3.,55.2843844489787,0.));
#1306=CARTESIAN_POINT('Origin',(-3.62,52.8749004571279,0.));
#1307=CARTESIAN_POINT('',(-3.62,52.8749004571279,0.));
#1308=CARTESIAN_POINT('Origin',(-3.62,50.7976571113353,0.));
#1309=CARTESIAN_POINT('',(-3.62,50.7976571113353,0.));
#1310=CARTESIAN_POINT('Origin',(3.,48.3881731194845,0.));
#1311=CARTESIAN_POINT('',(3.,48.3881731194845,0.));
#1312=CARTESIAN_POINT('Origin',(3.,45.8596064882093,0.));
#1313=CARTESIAN_POINT('',(3.,45.8596064882093,0.));
#1314=CARTESIAN_POINT('Origin',(-3.62,43.4501224963585,0.));
#1315=CARTESIAN_POINT('',(-3.62,43.4501224963585,0.));
#1316=CARTESIAN_POINT('Origin',(-3.62,41.3728791505659,0.));
#1317=CARTESIAN_POINT('',(-3.62,41.3728791505659,0.));
#1318=CARTESIAN_POINT('Origin',(3.,38.9633951587151,0.));
#1319=CARTESIAN_POINT('',(3.,38.9633951587151,0.));
#1320=CARTESIAN_POINT('Origin',(3.,36.4348285274399,0.));
#1321=CARTESIAN_POINT('',(3.,36.4348285274399,0.));
#1322=CARTESIAN_POINT('Origin',(-3.62,34.0253445355891,0.));
#1323=CARTESIAN_POINT('',(-3.62,34.0253445355891,0.));
#1324=CARTESIAN_POINT('Origin',(-3.62,31.9481011897965,0.));
#1325=CARTESIAN_POINT('',(-3.62,31.9481011897965,0.));
#1326=CARTESIAN_POINT('Origin',(3.,29.5386171979458,0.));
#1327=CARTESIAN_POINT('',(3.,29.5386171979458,0.));
#1328=CARTESIAN_POINT('Origin',(3.,27.0100505666705,0.));
#1329=CARTESIAN_POINT('',(3.,27.0100505666705,0.));
#1330=CARTESIAN_POINT('Origin',(-3.62,24.6005665748198,0.));
#1331=CARTESIAN_POINT('',(-3.62,24.6005665748198,0.));
#1332=CARTESIAN_POINT('Origin',(-3.62,22.5233232290271,0.));
#1333=CARTESIAN_POINT('',(-3.62,22.5233232290271,0.));
#1334=CARTESIAN_POINT('Origin',(3.,20.1138392371764,0.));
#1335=CARTESIAN_POINT('',(3.,20.1138392371764,0.));
#1336=CARTESIAN_POINT('Origin',(3.,17.5852726059011,0.));
#1337=CARTESIAN_POINT('',(3.,17.5852726059011,0.));
#1338=CARTESIAN_POINT('Origin',(-3.62,15.1757886140504,0.));
#1339=CARTESIAN_POINT('',(-3.62,15.1757886140504,0.));
#1340=CARTESIAN_POINT('Origin',(-3.62,13.0985452682578,0.));
#1341=CARTESIAN_POINT('',(-3.62,13.0985452682578,0.));
#1342=CARTESIAN_POINT('Origin',(3.,10.689061276407,0.));
#1343=CARTESIAN_POINT('',(3.,10.689061276407,0.));
#1344=CARTESIAN_POINT('Origin',(3.,8.16049464513176,0.));
#1345=CARTESIAN_POINT('',(3.,8.16049464513176,0.));
#1346=CARTESIAN_POINT('Origin',(-3.62,5.751010653281,0.));
#1347=CARTESIAN_POINT('Origin',(3.,1.26428331563762,0.));
#1348=CARTESIAN_POINT('',(3.,1.26428331563762,0.));
#1349=CARTESIAN_POINT('Origin',(3.,-1.26428331563762,0.));
#1350=CARTESIAN_POINT('',(3.,-1.26428331563762,0.));
#1351=CARTESIAN_POINT('Origin',(-3.62,-3.67376730748838,0.));
#1352=CARTESIAN_POINT('',(0.,0.,0.));
#1353=UNCERTAINTY_MEASURE_WITH_UNIT(LENGTH_MEASURE(0.01),#1359,
'DISTANCE_ACCURACY_VALUE',
'Maximum model space distance between geometric entities at asserted c
onnectivities');
#1354=UNCERTAINTY_MEASURE_WITH_UNIT(LENGTH_MEASURE(0.01),#1359,
'DISTANCE_ACCURACY_VALUE',
'Maximum model space distance between geometric entities at asserted c
onnectivities');
#1355=UNCERTAINTY_MEASURE_WITH_UNIT(LENGTH_MEASURE(0.01),#1359,
'DISTANCE_ACCURACY_VALUE',
'Maximum model space distance between geometric entities at asserted c
onnectivities');
#1356=(
GEOMETRIC_REPRESENTATION_CONTEXT(3)
GLOBAL_UNCERTAINTY_ASSIGNED_CONTEXT((#1353))
GLOBAL_UNIT_ASSIGNED_CONTEXT((#1359,#1361,#1362))
REPRESENTATION_CONTEXT('','3D')
);
#1357=(
GEOMETRIC_REPRESENTATION_CONTEXT(3)
GLOBAL_UNCERTAINTY_ASSIGNED_CONTEXT((#1354))
GLOBAL_UNIT_ASSIGNED_CONTEXT((#1359,#1361,#1362))
REPRESENTATION_CONTEXT('','3D')
);
#1358=(
GEOMETRIC_REPRESENTATION_CONTEXT(3)
GLOBAL_UNCERTAINTY_ASSIGNED_CONTEXT((#1355))
GLOBAL_UNIT_ASSIGNED_CONTEXT((#1359,#1361,#1362))
REPRESENTATION_CONTEXT('','3D')
);
#1359=(
LENGTH_UNIT()
NAMED_UNIT(*)
SI_UNIT(.MILLI.,.METRE.)
);
#1360=(
LENGTH_UNIT()
NAMED_UNIT(*)
SI_UNIT($,.METRE.)
);
#1361=(
NAMED_UNIT(*)
PLANE_ANGLE_UNIT()
SI_UNIT($,.RADIAN.)
);
#1362=(
NAMED_UNIT(*)
SI_UNIT($,.STERADIAN.)
SOLID_ANGLE_UNIT()
);
#1363=SHAPE_DEFINITION_REPRESENTATION(#1365,#1368);
#1364=SHAPE_DEFINITION_REPRESENTATION(#1366,#1369);
#1365=PRODUCT_DEFINITION_SHAPE('',$,#1371);
#1366=PRODUCT_DEFINITION_SHAPE('',$,#1372);
#1367=PRODUCT_DEFINITION_SHAPE($,$,#14);
#1368=SHAPE_REPRESENTATION('',(#861,#906),#1356);
#1369=SHAPE_REPRESENTATION('',(#862),#1357);
#1370=PRODUCT_DEFINITION_CONTEXT('part definition',#1378,'design');
#1371=PRODUCT_DEFINITION('2025-08-04-20-42-31-071','zpos_1',#1373,#1370);
#1372=PRODUCT_DEFINITION('2025-08-04-20-42-31-072',
'Rack; Module: 3.00 mm; Num Teeth: 8; Pressure Angle: 20 deg; Backlash
: 0.00 mm; ',#1374,#1370);
#1373=PRODUCT_DEFINITION_FORMATION('',$,#1380);
#1374=PRODUCT_DEFINITION_FORMATION('',$,#1381);
#1375=PRODUCT_RELATED_PRODUCT_CATEGORY('zpos_1','zpos_1',(#1380));
#1376=PRODUCT_RELATED_PRODUCT_CATEGORY(
'Rack; Module: 3.00 mm; Num Teeth: 8; Pressure Angle: 20 deg; Backlash
: 0.00 mm; ',
'Rack; Module: 3.00 mm; Num Teeth: 8; Pressure Angle: 20 deg; Backlash
: 0.00 mm; ',(#1381));
#1377=APPLICATION_PROTOCOL_DEFINITION('international standard',
'automotive_design',2009,#1378);
#1378=APPLICATION_CONTEXT(
'Core Data for Automotive Mechanical Design Process');
#1379=PRODUCT_CONTEXT('part definition',#1378,'mechanical');
#1380=PRODUCT('2025-08-04-20-42-31-071','zpos_1',$,(#1379));
#1381=PRODUCT('2025-08-04-20-42-31-072',
'Rack; Module: 3.00 mm; Num Teeth: 8; Pressure Angle: 20 deg; Backlash
: 0.00 mm; ',
'Rack; Module: 3.00 mm; Num Teeth: 8; Pressure Angle: 20 deg; Backlash
: 0.00 mm; ',(#1379));
#1382=PRESENTATION_STYLE_ASSIGNMENT((#1384));
#1383=PRESENTATION_STYLE_ASSIGNMENT((#1385));
#1384=SURFACE_STYLE_USAGE(.BOTH.,#1386);
#1385=SURFACE_STYLE_USAGE(.BOTH.,#1387);
#1386=SURFACE_SIDE_STYLE('',(#1388));
#1387=SURFACE_SIDE_STYLE('',(#1389));
#1388=SURFACE_STYLE_FILL_AREA(#1390);
#1389=SURFACE_STYLE_FILL_AREA(#1391);
#1390=FILL_AREA_STYLE('Steel - Satin',(#1392));
#1391=FILL_AREA_STYLE('Sunflower yellow PLA',(#1393));
#1392=FILL_AREA_STYLE_COLOUR('Steel - Satin',#1394);
#1393=FILL_AREA_STYLE_COLOUR('Sunflower yellow PLA',#1395);
#1394=COLOUR_RGB('Steel - Satin',0.627450980392157,0.627450980392157,0.627450980392157);
#1395=COLOUR_RGB('Sunflower yellow PLA',1.,0.733333333333333,0.);
ENDSEC;
END-ISO-10303-21;
