ISO-10303-21;
HEADER;
/* Generated by software containing ST-Developer
 * from STEP Tools, Inc. (www.steptools.com) 
 */

FILE_DESCRIPTION(
/* description */ (''),
/* implementation_level */ '2;1');

FILE_NAME(
/* name */ 'zpos_0.step',
/* time_stamp */ '2025-08-05T22:17:29+01:00',
/* author */ (''),
/* organization */ (''),
/* preprocessor_version */ 'ST-DEVELOPER v20.1',
/* originating_system */ 'Autodesk Translation Framework v14.10.0.0',
/* authorisation */ '');

FILE_SCHEMA (('AUTOMOTIVE_DESIGN { 1 0 10303 214 3 1 1 }'));
ENDSEC;

DATA;
#10=MECHANICAL_DESIGN_GEOMETRIC_PRESENTATION_REPRESENTATION('',(#13),#1310);
#11=SHAPE_REPRESENTATION_RELATIONSHIP('SRR','None',#1317,#12);
#12=ADVANCED_BREP_SHAPE_REPRESENTATION('',(#14),#1309);
#13=STYLED_ITEM('',(#1327),#14);
#14=MANIFOLD_SOLID_BREP('Body1',#758);
#15=FACE_BOUND('',#127,.T.);
#16=FACE_BOUND('',#128,.T.);
#17=FACE_BOUND('',#129,.T.);
#18=FACE_BOUND('',#138,.T.);
#19=FACE_BOUND('',#139,.T.);
#20=FACE_BOUND('',#140,.T.);
#21=FACE_BOUND('',#141,.T.);
#22=FACE_BOUND('',#142,.T.);
#23=FACE_BOUND('',#156,.T.);
#24=FACE_BOUND('',#157,.T.);
#25=FACE_BOUND('',#158,.T.);
#26=FACE_BOUND('',#159,.T.);
#27=FACE_BOUND('',#160,.T.);
#28=FACE_BOUND('',#171,.T.);
#29=CYLINDRICAL_SURFACE('',#786,9.00000013411045);
#30=CYLINDRICAL_SURFACE('',#820,1.05);
#31=CYLINDRICAL_SURFACE('',#822,1.05);
#32=CYLINDRICAL_SURFACE('',#824,1.05);
#33=CYLINDRICAL_SURFACE('',#826,1.05);
#34=CYLINDRICAL_SURFACE('',#829,1.19999997317791);
#35=CYLINDRICAL_SURFACE('',#832,4.8);
#36=CYLINDRICAL_SURFACE('',#835,1.19999997317791);
#37=CYLINDRICAL_SURFACE('',#838,4.8);
#38=CYLINDRICAL_SURFACE('',#843,1.19999997317791);
#39=CYLINDRICAL_SURFACE('',#846,4.80000000000014);
#40=CYLINDRICAL_SURFACE('',#849,1.19999997317791);
#41=CYLINDRICAL_SURFACE('',#852,4.80000000000014);
#42=CYLINDRICAL_SURFACE('',#854,1.5);
#43=CIRCLE('',#778,9.00000013411045);
#44=CIRCLE('',#782,9.00000013411045);
#45=CIRCLE('',#787,9.00000013411045);
#46=CIRCLE('',#789,9.00000013411045);
#47=CIRCLE('',#790,9.00000013411045);
#48=CIRCLE('',#791,9.00000013411045);
#49=CIRCLE('',#794,9.00000013411045);
#50=CIRCLE('',#801,1.05);
#51=CIRCLE('',#802,1.05);
#52=CIRCLE('',#808,1.05);
#53=CIRCLE('',#809,1.05);
#54=CIRCLE('',#810,1.05);
#55=CIRCLE('',#811,1.05);
#56=CIRCLE('',#812,4.8);
#57=CIRCLE('',#813,1.19999997317791);
#58=CIRCLE('',#814,4.8);
#59=CIRCLE('',#815,1.19999997317791);
#60=CIRCLE('',#816,4.80000000000014);
#61=CIRCLE('',#817,1.19999997317791);
#62=CIRCLE('',#818,4.80000000000014);
#63=CIRCLE('',#819,1.19999997317791);
#64=CIRCLE('',#821,1.05);
#65=CIRCLE('',#823,1.05);
#66=CIRCLE('',#825,1.05);
#67=CIRCLE('',#827,1.05);
#68=CIRCLE('',#830,1.19999997317791);
#69=CIRCLE('',#833,4.8);
#70=CIRCLE('',#836,1.19999997317791);
#71=CIRCLE('',#839,4.8);
#72=CIRCLE('',#841,1.5);
#73=CIRCLE('',#844,1.19999997317791);
#74=CIRCLE('',#847,4.80000000000014);
#75=CIRCLE('',#850,1.19999997317791);
#76=CIRCLE('',#853,4.80000000000014);
#77=CIRCLE('',#855,1.5);
#78=FACE_OUTER_BOUND('',#118,.T.);
#79=FACE_OUTER_BOUND('',#119,.T.);
#80=FACE_OUTER_BOUND('',#120,.T.);
#81=FACE_OUTER_BOUND('',#121,.T.);
#82=FACE_OUTER_BOUND('',#122,.T.);
#83=FACE_OUTER_BOUND('',#123,.T.);
#84=FACE_OUTER_BOUND('',#124,.T.);
#85=FACE_OUTER_BOUND('',#125,.T.);
#86=FACE_OUTER_BOUND('',#126,.T.);
#87=FACE_OUTER_BOUND('',#130,.T.);
#88=FACE_OUTER_BOUND('',#131,.T.);
#89=FACE_OUTER_BOUND('',#132,.T.);
#90=FACE_OUTER_BOUND('',#133,.T.);
#91=FACE_OUTER_BOUND('',#134,.T.);
#92=FACE_OUTER_BOUND('',#135,.T.);
#93=FACE_OUTER_BOUND('',#136,.T.);
#94=FACE_OUTER_BOUND('',#137,.T.);
#95=FACE_OUTER_BOUND('',#143,.T.);
#96=FACE_OUTER_BOUND('',#144,.T.);
#97=FACE_OUTER_BOUND('',#145,.T.);
#98=FACE_OUTER_BOUND('',#146,.T.);
#99=FACE_OUTER_BOUND('',#147,.T.);
#100=FACE_OUTER_BOUND('',#148,.T.);
#101=FACE_OUTER_BOUND('',#149,.T.);
#102=FACE_OUTER_BOUND('',#150,.T.);
#103=FACE_OUTER_BOUND('',#151,.T.);
#104=FACE_OUTER_BOUND('',#152,.T.);
#105=FACE_OUTER_BOUND('',#153,.T.);
#106=FACE_OUTER_BOUND('',#154,.T.);
#107=FACE_OUTER_BOUND('',#155,.T.);
#108=FACE_OUTER_BOUND('',#161,.T.);
#109=FACE_OUTER_BOUND('',#162,.T.);
#110=FACE_OUTER_BOUND('',#163,.T.);
#111=FACE_OUTER_BOUND('',#164,.T.);
#112=FACE_OUTER_BOUND('',#165,.T.);
#113=FACE_OUTER_BOUND('',#166,.T.);
#114=FACE_OUTER_BOUND('',#167,.T.);
#115=FACE_OUTER_BOUND('',#168,.T.);
#116=FACE_OUTER_BOUND('',#169,.T.);
#117=FACE_OUTER_BOUND('',#170,.T.);
#118=EDGE_LOOP('',(#480,#481,#482,#483));
#119=EDGE_LOOP('',(#484,#485,#486,#487));
#120=EDGE_LOOP('',(#488,#489,#490));
#121=EDGE_LOOP('',(#491,#492,#493,#494));
#122=EDGE_LOOP('',(#495,#496,#497,#498));
#123=EDGE_LOOP('',(#499,#500,#501,#502));
#124=EDGE_LOOP('',(#503,#504,#505,#506));
#125=EDGE_LOOP('',(#507,#508,#509));
#126=EDGE_LOOP('',(#510,#511,#512,#513,#514,#515,#516,#517,#518,#519));
#127=EDGE_LOOP('',(#520,#521,#522));
#128=EDGE_LOOP('',(#523,#524,#525));
#129=EDGE_LOOP('',(#526,#527,#528));
#130=EDGE_LOOP('',(#529,#530,#531,#532));
#131=EDGE_LOOP('',(#533,#534,#535,#536));
#132=EDGE_LOOP('',(#537,#538,#539,#540));
#133=EDGE_LOOP('',(#541,#542,#543));
#134=EDGE_LOOP('',(#544,#545,#546,#547,#548,#549));
#135=EDGE_LOOP('',(#550,#551,#552,#553));
#136=EDGE_LOOP('',(#554,#555,#556,#557));
#137=EDGE_LOOP('',(#558));
#138=EDGE_LOOP('',(#559));
#139=EDGE_LOOP('',(#560));
#140=EDGE_LOOP('',(#561));
#141=EDGE_LOOP('',(#562));
#142=EDGE_LOOP('',(#563,#564,#565,#566,#567,#568,#569,#570,#571,#572,#573,
#574,#575,#576,#577,#578));
#143=EDGE_LOOP('',(#579,#580,#581,#582));
#144=EDGE_LOOP('',(#583,#584,#585,#586,#587,#588,#589,#590,#591,#592));
#145=EDGE_LOOP('',(#593,#594,#595,#596));
#146=EDGE_LOOP('',(#597,#598,#599,#600));
#147=EDGE_LOOP('',(#601,#602,#603,#604));
#148=EDGE_LOOP('',(#605,#606,#607,#608));
#149=EDGE_LOOP('',(#609,#610,#611,#612));
#150=EDGE_LOOP('',(#613,#614,#615,#616));
#151=EDGE_LOOP('',(#617,#618,#619,#620));
#152=EDGE_LOOP('',(#621,#622,#623,#624));
#153=EDGE_LOOP('',(#625,#626,#627,#628));
#154=EDGE_LOOP('',(#629,#630,#631,#632));
#155=EDGE_LOOP('',(#633));
#156=EDGE_LOOP('',(#634));
#157=EDGE_LOOP('',(#635));
#158=EDGE_LOOP('',(#636));
#159=EDGE_LOOP('',(#637));
#160=EDGE_LOOP('',(#638));
#161=EDGE_LOOP('',(#639,#640,#641,#642));
#162=EDGE_LOOP('',(#643,#644,#645,#646));
#163=EDGE_LOOP('',(#647,#648,#649,#650));
#164=EDGE_LOOP('',(#651,#652,#653,#654));
#165=EDGE_LOOP('',(#655,#656,#657,#658));
#166=EDGE_LOOP('',(#659,#660,#661,#662));
#167=EDGE_LOOP('',(#663,#664,#665,#666));
#168=EDGE_LOOP('',(#667,#668,#669,#670));
#169=EDGE_LOOP('',(#671,#672,#673,#674));
#170=EDGE_LOOP('',(#675,#676,#677,#678,#679,#680,#681,#682,#683,#684,#685,
#686,#687,#688,#689,#690));
#171=EDGE_LOOP('',(#691));
#172=LINE('',#1096,#233);
#173=LINE('',#1098,#234);
#174=LINE('',#1099,#235);
#175=LINE('',#1104,#236);
#176=LINE('',#1105,#237);
#177=LINE('',#1107,#238);
#178=LINE('',#1115,#239);
#179=LINE('',#1117,#240);
#180=LINE('',#1118,#241);
#181=LINE('',#1123,#242);
#182=LINE('',#1124,#243);
#183=LINE('',#1127,#244);
#184=LINE('',#1133,#245);
#185=LINE('',#1139,#246);
#186=LINE('',#1152,#247);
#187=LINE('',#1154,#248);
#188=LINE('',#1155,#249);
#189=LINE('',#1158,#250);
#190=LINE('',#1159,#251);
#191=LINE('',#1161,#252);
#192=LINE('',#1167,#253);
#193=LINE('',#1169,#254);
#194=LINE('',#1174,#255);
#195=LINE('',#1188,#256);
#196=LINE('',#1192,#257);
#197=LINE('',#1196,#258);
#198=LINE('',#1200,#259);
#199=LINE('',#1204,#260);
#200=LINE('',#1208,#261);
#201=LINE('',#1212,#262);
#202=LINE('',#1216,#263);
#203=LINE('',#1220,#264);
#204=LINE('',#1223,#265);
#205=LINE('',#1225,#266);
#206=LINE('',#1229,#267);
#207=LINE('',#1233,#268);
#208=LINE('',#1237,#269);
#209=LINE('',#1239,#270);
#210=LINE('',#1240,#271);
#211=LINE('',#1243,#272);
#212=LINE('',#1247,#273);
#213=LINE('',#1248,#274);
#214=LINE('',#1251,#275);
#215=LINE('',#1255,#276);
#216=LINE('',#1256,#277);
#217=LINE('',#1259,#278);
#218=LINE('',#1263,#279);
#219=LINE('',#1264,#280);
#220=LINE('',#1267,#281);
#221=LINE('',#1274,#282);
#222=LINE('',#1275,#283);
#223=LINE('',#1278,#284);
#224=LINE('',#1282,#285);
#225=LINE('',#1283,#286);
#226=LINE('',#1286,#287);
#227=LINE('',#1290,#288);
#228=LINE('',#1291,#289);
#229=LINE('',#1294,#290);
#230=LINE('',#1298,#291);
#231=LINE('',#1299,#292);
#232=LINE('',#1305,#293);
#233=VECTOR('',#863,10.);
#234=VECTOR('',#864,10.);
#235=VECTOR('',#865,10.);
#236=VECTOR('',#870,10.);
#237=VECTOR('',#871,10.);
#238=VECTOR('',#874,10.);
#239=VECTOR('',#883,10.);
#240=VECTOR('',#884,10.);
#241=VECTOR('',#885,10.);
#242=VECTOR('',#890,10.);
#243=VECTOR('',#891,10.);
#244=VECTOR('',#896,10.);
#245=VECTOR('',#903,9.00000013411045);
#246=VECTOR('',#908,9.00000013411045);
#247=VECTOR('',#923,10.);
#248=VECTOR('',#924,10.);
#249=VECTOR('',#925,10.);
#250=VECTOR('',#928,10.);
#251=VECTOR('',#929,10.);
#252=VECTOR('',#932,10.);
#253=VECTOR('',#939,10.);
#254=VECTOR('',#940,10.);
#255=VECTOR('',#947,10.);
#256=VECTOR('',#962,10.);
#257=VECTOR('',#965,10.);
#258=VECTOR('',#968,10.);
#259=VECTOR('',#971,10.);
#260=VECTOR('',#974,10.);
#261=VECTOR('',#977,10.);
#262=VECTOR('',#980,10.);
#263=VECTOR('',#983,10.);
#264=VECTOR('',#988,1.05);
#265=VECTOR('',#993,1.05);
#266=VECTOR('',#994,1.05);
#267=VECTOR('',#999,1.05);
#268=VECTOR('',#1004,1.05);
#269=VECTOR('',#1009,10.);
#270=VECTOR('',#1010,10.);
#271=VECTOR('',#1011,10.);
#272=VECTOR('',#1014,10.);
#273=VECTOR('',#1019,10.);
#274=VECTOR('',#1020,10.);
#275=VECTOR('',#1023,10.);
#276=VECTOR('',#1028,10.);
#277=VECTOR('',#1029,10.);
#278=VECTOR('',#1032,10.);
#279=VECTOR('',#1037,10.);
#280=VECTOR('',#1038,10.);
#281=VECTOR('',#1041,10.);
#282=VECTOR('',#1050,10.);
#283=VECTOR('',#1051,10.);
#284=VECTOR('',#1054,10.);
#285=VECTOR('',#1059,10.);
#286=VECTOR('',#1060,10.);
#287=VECTOR('',#1063,10.);
#288=VECTOR('',#1068,10.);
#289=VECTOR('',#1069,10.);
#290=VECTOR('',#1072,10.);
#291=VECTOR('',#1077,10.);
#292=VECTOR('',#1078,10.);
#293=VECTOR('',#1087,1.5);
#294=ELLIPSE('',#773,28.4604993656099,9.00000013411045);
#295=ELLIPSE('',#775,28.4604993656099,9.00000013411045);
#296=ELLIPSE('',#780,28.4604993656099,9.00000013411045);
#297=ELLIPSE('',#784,28.4604993656099,9.00000013411045);
#298=ELLIPSE('',#788,28.4604993656099,9.00000013411045);
#299=ELLIPSE('',#792,28.4604993656099,9.00000013411045);
#300=ELLIPSE('',#793,28.4604993656099,9.00000013411045);
#301=ELLIPSE('',#795,28.4604993656099,9.00000013411045);
#302=ELLIPSE('',#804,3.32039154317681,1.05);
#303=ELLIPSE('',#806,3.32039154317681,1.05);
#304=VERTEX_POINT('',#1092);
#305=VERTEX_POINT('',#1093);
#306=VERTEX_POINT('',#1095);
#307=VERTEX_POINT('',#1097);
#308=VERTEX_POINT('',#1101);
#309=VERTEX_POINT('',#1103);
#310=VERTEX_POINT('',#1111);
#311=VERTEX_POINT('',#1112);
#312=VERTEX_POINT('',#1114);
#313=VERTEX_POINT('',#1116);
#314=VERTEX_POINT('',#1120);
#315=VERTEX_POINT('',#1122);
#316=VERTEX_POINT('',#1130);
#317=VERTEX_POINT('',#1132);
#318=VERTEX_POINT('',#1134);
#319=VERTEX_POINT('',#1136);
#320=VERTEX_POINT('',#1138);
#321=VERTEX_POINT('',#1141);
#322=VERTEX_POINT('',#1144);
#323=VERTEX_POINT('',#1145);
#324=VERTEX_POINT('',#1147);
#325=VERTEX_POINT('',#1151);
#326=VERTEX_POINT('',#1153);
#327=VERTEX_POINT('',#1157);
#328=VERTEX_POINT('',#1164);
#329=VERTEX_POINT('',#1165);
#330=VERTEX_POINT('',#1168);
#331=VERTEX_POINT('',#1172);
#332=VERTEX_POINT('',#1178);
#333=VERTEX_POINT('',#1180);
#334=VERTEX_POINT('',#1182);
#335=VERTEX_POINT('',#1184);
#336=VERTEX_POINT('',#1186);
#337=VERTEX_POINT('',#1187);
#338=VERTEX_POINT('',#1189);
#339=VERTEX_POINT('',#1191);
#340=VERTEX_POINT('',#1193);
#341=VERTEX_POINT('',#1195);
#342=VERTEX_POINT('',#1197);
#343=VERTEX_POINT('',#1199);
#344=VERTEX_POINT('',#1201);
#345=VERTEX_POINT('',#1203);
#346=VERTEX_POINT('',#1205);
#347=VERTEX_POINT('',#1207);
#348=VERTEX_POINT('',#1209);
#349=VERTEX_POINT('',#1211);
#350=VERTEX_POINT('',#1213);
#351=VERTEX_POINT('',#1215);
#352=VERTEX_POINT('',#1219);
#353=VERTEX_POINT('',#1224);
#354=VERTEX_POINT('',#1228);
#355=VERTEX_POINT('',#1232);
#356=VERTEX_POINT('',#1236);
#357=VERTEX_POINT('',#1238);
#358=VERTEX_POINT('',#1242);
#359=VERTEX_POINT('',#1246);
#360=VERTEX_POINT('',#1250);
#361=VERTEX_POINT('',#1254);
#362=VERTEX_POINT('',#1258);
#363=VERTEX_POINT('',#1262);
#364=VERTEX_POINT('',#1266);
#365=VERTEX_POINT('',#1270);
#366=VERTEX_POINT('',#1273);
#367=VERTEX_POINT('',#1277);
#368=VERTEX_POINT('',#1281);
#369=VERTEX_POINT('',#1285);
#370=VERTEX_POINT('',#1289);
#371=VERTEX_POINT('',#1293);
#372=VERTEX_POINT('',#1297);
#373=VERTEX_POINT('',#1303);
#374=EDGE_CURVE('',#304,#305,#294,.T.);
#375=EDGE_CURVE('',#306,#304,#172,.T.);
#376=EDGE_CURVE('',#307,#306,#173,.T.);
#377=EDGE_CURVE('',#307,#305,#174,.T.);
#378=EDGE_CURVE('',#305,#308,#295,.T.);
#379=EDGE_CURVE('',#309,#307,#175,.T.);
#380=EDGE_CURVE('',#309,#308,#176,.T.);
#381=EDGE_CURVE('',#306,#309,#177,.T.);
#382=EDGE_CURVE('',#308,#304,#43,.T.);
#383=EDGE_CURVE('',#310,#311,#296,.T.);
#384=EDGE_CURVE('',#310,#312,#178,.T.);
#385=EDGE_CURVE('',#312,#313,#179,.T.);
#386=EDGE_CURVE('',#311,#313,#180,.T.);
#387=EDGE_CURVE('',#314,#310,#44,.T.);
#388=EDGE_CURVE('',#314,#315,#181,.T.);
#389=EDGE_CURVE('',#315,#312,#182,.T.);
#390=EDGE_CURVE('',#311,#314,#297,.T.);
#391=EDGE_CURVE('',#313,#315,#183,.T.);
#392=EDGE_CURVE('',#316,#316,#45,.T.);
#393=EDGE_CURVE('',#316,#317,#184,.T.);
#394=EDGE_CURVE('',#317,#318,#298,.T.);
#395=EDGE_CURVE('',#318,#319,#46,.T.);
#396=EDGE_CURVE('',#319,#320,#185,.T.);
#397=EDGE_CURVE('',#320,#320,#47,.T.);
#398=EDGE_CURVE('',#319,#321,#48,.T.);
#399=EDGE_CURVE('',#321,#317,#299,.T.);
#400=EDGE_CURVE('',#322,#323,#300,.T.);
#401=EDGE_CURVE('',#323,#324,#49,.T.);
#402=EDGE_CURVE('',#324,#322,#301,.T.);
#403=EDGE_CURVE('',#324,#325,#186,.T.);
#404=EDGE_CURVE('',#325,#326,#187,.T.);
#405=EDGE_CURVE('',#322,#326,#188,.T.);
#406=EDGE_CURVE('',#326,#327,#189,.T.);
#407=EDGE_CURVE('',#323,#327,#190,.T.);
#408=EDGE_CURVE('',#327,#325,#191,.T.);
#409=EDGE_CURVE('',#328,#329,#50,.T.);
#410=EDGE_CURVE('',#328,#321,#192,.T.);
#411=EDGE_CURVE('',#330,#318,#193,.T.);
#412=EDGE_CURVE('',#329,#330,#51,.T.);
#413=EDGE_CURVE('',#330,#331,#302,.T.);
#414=EDGE_CURVE('',#331,#317,#194,.T.);
#415=EDGE_CURVE('',#331,#328,#303,.T.);
#416=EDGE_CURVE('',#332,#332,#52,.T.);
#417=EDGE_CURVE('',#333,#333,#53,.T.);
#418=EDGE_CURVE('',#334,#334,#54,.T.);
#419=EDGE_CURVE('',#335,#335,#55,.T.);
#420=EDGE_CURVE('',#336,#337,#195,.T.);
#421=EDGE_CURVE('',#338,#336,#56,.T.);
#422=EDGE_CURVE('',#339,#338,#196,.T.);
#423=EDGE_CURVE('',#340,#339,#57,.T.);
#424=EDGE_CURVE('',#341,#340,#197,.T.);
#425=EDGE_CURVE('',#342,#341,#58,.T.);
#426=EDGE_CURVE('',#343,#342,#198,.T.);
#427=EDGE_CURVE('',#344,#343,#59,.T.);
#428=EDGE_CURVE('',#345,#344,#199,.T.);
#429=EDGE_CURVE('',#346,#345,#60,.T.);
#430=EDGE_CURVE('',#347,#346,#200,.T.);
#431=EDGE_CURVE('',#348,#347,#61,.T.);
#432=EDGE_CURVE('',#349,#348,#201,.T.);
#433=EDGE_CURVE('',#350,#349,#62,.T.);
#434=EDGE_CURVE('',#351,#350,#202,.T.);
#435=EDGE_CURVE('',#337,#351,#63,.T.);
#436=EDGE_CURVE('',#332,#352,#203,.T.);
#437=EDGE_CURVE('',#352,#352,#64,.T.);
#438=EDGE_CURVE('',#333,#331,#204,.T.);
#439=EDGE_CURVE('',#329,#353,#205,.T.);
#440=EDGE_CURVE('',#353,#353,#65,.T.);
#441=EDGE_CURVE('',#334,#354,#206,.T.);
#442=EDGE_CURVE('',#354,#354,#66,.T.);
#443=EDGE_CURVE('',#335,#355,#207,.T.);
#444=EDGE_CURVE('',#355,#355,#67,.T.);
#445=EDGE_CURVE('',#344,#356,#208,.T.);
#446=EDGE_CURVE('',#357,#356,#209,.T.);
#447=EDGE_CURVE('',#345,#357,#210,.T.);
#448=EDGE_CURVE('',#343,#358,#211,.T.);
#449=EDGE_CURVE('',#356,#358,#68,.T.);
#450=EDGE_CURVE('',#342,#359,#212,.T.);
#451=EDGE_CURVE('',#358,#359,#213,.T.);
#452=EDGE_CURVE('',#341,#360,#214,.T.);
#453=EDGE_CURVE('',#359,#360,#69,.T.);
#454=EDGE_CURVE('',#340,#361,#215,.T.);
#455=EDGE_CURVE('',#360,#361,#216,.T.);
#456=EDGE_CURVE('',#339,#362,#217,.T.);
#457=EDGE_CURVE('',#361,#362,#70,.T.);
#458=EDGE_CURVE('',#338,#363,#218,.T.);
#459=EDGE_CURVE('',#362,#363,#219,.T.);
#460=EDGE_CURVE('',#336,#364,#220,.T.);
#461=EDGE_CURVE('',#363,#364,#71,.T.);
#462=EDGE_CURVE('',#365,#365,#72,.T.);
#463=EDGE_CURVE('',#337,#366,#221,.T.);
#464=EDGE_CURVE('',#364,#366,#222,.T.);
#465=EDGE_CURVE('',#351,#367,#223,.T.);
#466=EDGE_CURVE('',#366,#367,#73,.T.);
#467=EDGE_CURVE('',#350,#368,#224,.T.);
#468=EDGE_CURVE('',#367,#368,#225,.T.);
#469=EDGE_CURVE('',#349,#369,#226,.T.);
#470=EDGE_CURVE('',#368,#369,#74,.T.);
#471=EDGE_CURVE('',#348,#370,#227,.T.);
#472=EDGE_CURVE('',#369,#370,#228,.T.);
#473=EDGE_CURVE('',#347,#371,#229,.T.);
#474=EDGE_CURVE('',#370,#371,#75,.T.);
#475=EDGE_CURVE('',#346,#372,#230,.T.);
#476=EDGE_CURVE('',#371,#372,#231,.T.);
#477=EDGE_CURVE('',#372,#357,#76,.T.);
#478=EDGE_CURVE('',#373,#373,#77,.T.);
#479=EDGE_CURVE('',#373,#365,#232,.T.);
#480=ORIENTED_EDGE('',*,*,#374,.F.);
#481=ORIENTED_EDGE('',*,*,#375,.F.);
#482=ORIENTED_EDGE('',*,*,#376,.F.);
#483=ORIENTED_EDGE('',*,*,#377,.T.);
#484=ORIENTED_EDGE('',*,*,#378,.F.);
#485=ORIENTED_EDGE('',*,*,#377,.F.);
#486=ORIENTED_EDGE('',*,*,#379,.F.);
#487=ORIENTED_EDGE('',*,*,#380,.T.);
#488=ORIENTED_EDGE('',*,*,#379,.T.);
#489=ORIENTED_EDGE('',*,*,#376,.T.);
#490=ORIENTED_EDGE('',*,*,#381,.T.);
#491=ORIENTED_EDGE('',*,*,#382,.F.);
#492=ORIENTED_EDGE('',*,*,#380,.F.);
#493=ORIENTED_EDGE('',*,*,#381,.F.);
#494=ORIENTED_EDGE('',*,*,#375,.T.);
#495=ORIENTED_EDGE('',*,*,#383,.F.);
#496=ORIENTED_EDGE('',*,*,#384,.T.);
#497=ORIENTED_EDGE('',*,*,#385,.T.);
#498=ORIENTED_EDGE('',*,*,#386,.F.);
#499=ORIENTED_EDGE('',*,*,#387,.F.);
#500=ORIENTED_EDGE('',*,*,#388,.T.);
#501=ORIENTED_EDGE('',*,*,#389,.T.);
#502=ORIENTED_EDGE('',*,*,#384,.F.);
#503=ORIENTED_EDGE('',*,*,#390,.F.);
#504=ORIENTED_EDGE('',*,*,#386,.T.);
#505=ORIENTED_EDGE('',*,*,#391,.T.);
#506=ORIENTED_EDGE('',*,*,#388,.F.);
#507=ORIENTED_EDGE('',*,*,#385,.F.);
#508=ORIENTED_EDGE('',*,*,#389,.F.);
#509=ORIENTED_EDGE('',*,*,#391,.F.);
#510=ORIENTED_EDGE('',*,*,#392,.F.);
#511=ORIENTED_EDGE('',*,*,#393,.T.);
#512=ORIENTED_EDGE('',*,*,#394,.T.);
#513=ORIENTED_EDGE('',*,*,#395,.T.);
#514=ORIENTED_EDGE('',*,*,#396,.T.);
#515=ORIENTED_EDGE('',*,*,#397,.T.);
#516=ORIENTED_EDGE('',*,*,#396,.F.);
#517=ORIENTED_EDGE('',*,*,#398,.T.);
#518=ORIENTED_EDGE('',*,*,#399,.T.);
#519=ORIENTED_EDGE('',*,*,#393,.F.);
#520=ORIENTED_EDGE('',*,*,#382,.T.);
#521=ORIENTED_EDGE('',*,*,#374,.T.);
#522=ORIENTED_EDGE('',*,*,#378,.T.);
#523=ORIENTED_EDGE('',*,*,#390,.T.);
#524=ORIENTED_EDGE('',*,*,#387,.T.);
#525=ORIENTED_EDGE('',*,*,#383,.T.);
#526=ORIENTED_EDGE('',*,*,#400,.T.);
#527=ORIENTED_EDGE('',*,*,#401,.T.);
#528=ORIENTED_EDGE('',*,*,#402,.T.);
#529=ORIENTED_EDGE('',*,*,#402,.F.);
#530=ORIENTED_EDGE('',*,*,#403,.T.);
#531=ORIENTED_EDGE('',*,*,#404,.T.);
#532=ORIENTED_EDGE('',*,*,#405,.F.);
#533=ORIENTED_EDGE('',*,*,#400,.F.);
#534=ORIENTED_EDGE('',*,*,#405,.T.);
#535=ORIENTED_EDGE('',*,*,#406,.T.);
#536=ORIENTED_EDGE('',*,*,#407,.F.);
#537=ORIENTED_EDGE('',*,*,#401,.F.);
#538=ORIENTED_EDGE('',*,*,#407,.T.);
#539=ORIENTED_EDGE('',*,*,#408,.T.);
#540=ORIENTED_EDGE('',*,*,#403,.F.);
#541=ORIENTED_EDGE('',*,*,#406,.F.);
#542=ORIENTED_EDGE('',*,*,#404,.F.);
#543=ORIENTED_EDGE('',*,*,#408,.F.);
#544=ORIENTED_EDGE('',*,*,#409,.F.);
#545=ORIENTED_EDGE('',*,*,#410,.T.);
#546=ORIENTED_EDGE('',*,*,#398,.F.);
#547=ORIENTED_EDGE('',*,*,#395,.F.);
#548=ORIENTED_EDGE('',*,*,#411,.F.);
#549=ORIENTED_EDGE('',*,*,#412,.F.);
#550=ORIENTED_EDGE('',*,*,#413,.F.);
#551=ORIENTED_EDGE('',*,*,#411,.T.);
#552=ORIENTED_EDGE('',*,*,#394,.F.);
#553=ORIENTED_EDGE('',*,*,#414,.F.);
#554=ORIENTED_EDGE('',*,*,#415,.F.);
#555=ORIENTED_EDGE('',*,*,#414,.T.);
#556=ORIENTED_EDGE('',*,*,#399,.F.);
#557=ORIENTED_EDGE('',*,*,#410,.F.);
#558=ORIENTED_EDGE('',*,*,#392,.T.);
#559=ORIENTED_EDGE('',*,*,#416,.T.);
#560=ORIENTED_EDGE('',*,*,#417,.T.);
#561=ORIENTED_EDGE('',*,*,#418,.T.);
#562=ORIENTED_EDGE('',*,*,#419,.T.);
#563=ORIENTED_EDGE('',*,*,#420,.F.);
#564=ORIENTED_EDGE('',*,*,#421,.F.);
#565=ORIENTED_EDGE('',*,*,#422,.F.);
#566=ORIENTED_EDGE('',*,*,#423,.F.);
#567=ORIENTED_EDGE('',*,*,#424,.F.);
#568=ORIENTED_EDGE('',*,*,#425,.F.);
#569=ORIENTED_EDGE('',*,*,#426,.F.);
#570=ORIENTED_EDGE('',*,*,#427,.F.);
#571=ORIENTED_EDGE('',*,*,#428,.F.);
#572=ORIENTED_EDGE('',*,*,#429,.F.);
#573=ORIENTED_EDGE('',*,*,#430,.F.);
#574=ORIENTED_EDGE('',*,*,#431,.F.);
#575=ORIENTED_EDGE('',*,*,#432,.F.);
#576=ORIENTED_EDGE('',*,*,#433,.F.);
#577=ORIENTED_EDGE('',*,*,#434,.F.);
#578=ORIENTED_EDGE('',*,*,#435,.F.);
#579=ORIENTED_EDGE('',*,*,#416,.F.);
#580=ORIENTED_EDGE('',*,*,#436,.T.);
#581=ORIENTED_EDGE('',*,*,#437,.T.);
#582=ORIENTED_EDGE('',*,*,#436,.F.);
#583=ORIENTED_EDGE('',*,*,#417,.F.);
#584=ORIENTED_EDGE('',*,*,#438,.T.);
#585=ORIENTED_EDGE('',*,*,#415,.T.);
#586=ORIENTED_EDGE('',*,*,#409,.T.);
#587=ORIENTED_EDGE('',*,*,#439,.T.);
#588=ORIENTED_EDGE('',*,*,#440,.T.);
#589=ORIENTED_EDGE('',*,*,#439,.F.);
#590=ORIENTED_EDGE('',*,*,#412,.T.);
#591=ORIENTED_EDGE('',*,*,#413,.T.);
#592=ORIENTED_EDGE('',*,*,#438,.F.);
#593=ORIENTED_EDGE('',*,*,#418,.F.);
#594=ORIENTED_EDGE('',*,*,#441,.T.);
#595=ORIENTED_EDGE('',*,*,#442,.T.);
#596=ORIENTED_EDGE('',*,*,#441,.F.);
#597=ORIENTED_EDGE('',*,*,#419,.F.);
#598=ORIENTED_EDGE('',*,*,#443,.T.);
#599=ORIENTED_EDGE('',*,*,#444,.T.);
#600=ORIENTED_EDGE('',*,*,#443,.F.);
#601=ORIENTED_EDGE('',*,*,#428,.T.);
#602=ORIENTED_EDGE('',*,*,#445,.T.);
#603=ORIENTED_EDGE('',*,*,#446,.F.);
#604=ORIENTED_EDGE('',*,*,#447,.F.);
#605=ORIENTED_EDGE('',*,*,#427,.T.);
#606=ORIENTED_EDGE('',*,*,#448,.T.);
#607=ORIENTED_EDGE('',*,*,#449,.F.);
#608=ORIENTED_EDGE('',*,*,#445,.F.);
#609=ORIENTED_EDGE('',*,*,#426,.T.);
#610=ORIENTED_EDGE('',*,*,#450,.T.);
#611=ORIENTED_EDGE('',*,*,#451,.F.);
#612=ORIENTED_EDGE('',*,*,#448,.F.);
#613=ORIENTED_EDGE('',*,*,#425,.T.);
#614=ORIENTED_EDGE('',*,*,#452,.T.);
#615=ORIENTED_EDGE('',*,*,#453,.F.);
#616=ORIENTED_EDGE('',*,*,#450,.F.);
#617=ORIENTED_EDGE('',*,*,#424,.T.);
#618=ORIENTED_EDGE('',*,*,#454,.T.);
#619=ORIENTED_EDGE('',*,*,#455,.F.);
#620=ORIENTED_EDGE('',*,*,#452,.F.);
#621=ORIENTED_EDGE('',*,*,#423,.T.);
#622=ORIENTED_EDGE('',*,*,#456,.T.);
#623=ORIENTED_EDGE('',*,*,#457,.F.);
#624=ORIENTED_EDGE('',*,*,#454,.F.);
#625=ORIENTED_EDGE('',*,*,#422,.T.);
#626=ORIENTED_EDGE('',*,*,#458,.T.);
#627=ORIENTED_EDGE('',*,*,#459,.F.);
#628=ORIENTED_EDGE('',*,*,#456,.F.);
#629=ORIENTED_EDGE('',*,*,#421,.T.);
#630=ORIENTED_EDGE('',*,*,#460,.T.);
#631=ORIENTED_EDGE('',*,*,#461,.F.);
#632=ORIENTED_EDGE('',*,*,#458,.F.);
#633=ORIENTED_EDGE('',*,*,#397,.F.);
#634=ORIENTED_EDGE('',*,*,#444,.F.);
#635=ORIENTED_EDGE('',*,*,#442,.F.);
#636=ORIENTED_EDGE('',*,*,#440,.F.);
#637=ORIENTED_EDGE('',*,*,#437,.F.);
#638=ORIENTED_EDGE('',*,*,#462,.F.);
#639=ORIENTED_EDGE('',*,*,#420,.T.);
#640=ORIENTED_EDGE('',*,*,#463,.T.);
#641=ORIENTED_EDGE('',*,*,#464,.F.);
#642=ORIENTED_EDGE('',*,*,#460,.F.);
#643=ORIENTED_EDGE('',*,*,#435,.T.);
#644=ORIENTED_EDGE('',*,*,#465,.T.);
#645=ORIENTED_EDGE('',*,*,#466,.F.);
#646=ORIENTED_EDGE('',*,*,#463,.F.);
#647=ORIENTED_EDGE('',*,*,#434,.T.);
#648=ORIENTED_EDGE('',*,*,#467,.T.);
#649=ORIENTED_EDGE('',*,*,#468,.F.);
#650=ORIENTED_EDGE('',*,*,#465,.F.);
#651=ORIENTED_EDGE('',*,*,#433,.T.);
#652=ORIENTED_EDGE('',*,*,#469,.T.);
#653=ORIENTED_EDGE('',*,*,#470,.F.);
#654=ORIENTED_EDGE('',*,*,#467,.F.);
#655=ORIENTED_EDGE('',*,*,#432,.T.);
#656=ORIENTED_EDGE('',*,*,#471,.T.);
#657=ORIENTED_EDGE('',*,*,#472,.F.);
#658=ORIENTED_EDGE('',*,*,#469,.F.);
#659=ORIENTED_EDGE('',*,*,#431,.T.);
#660=ORIENTED_EDGE('',*,*,#473,.T.);
#661=ORIENTED_EDGE('',*,*,#474,.F.);
#662=ORIENTED_EDGE('',*,*,#471,.F.);
#663=ORIENTED_EDGE('',*,*,#430,.T.);
#664=ORIENTED_EDGE('',*,*,#475,.T.);
#665=ORIENTED_EDGE('',*,*,#476,.F.);
#666=ORIENTED_EDGE('',*,*,#473,.F.);
#667=ORIENTED_EDGE('',*,*,#429,.T.);
#668=ORIENTED_EDGE('',*,*,#447,.T.);
#669=ORIENTED_EDGE('',*,*,#477,.F.);
#670=ORIENTED_EDGE('',*,*,#475,.F.);
#671=ORIENTED_EDGE('',*,*,#478,.F.);
#672=ORIENTED_EDGE('',*,*,#479,.T.);
#673=ORIENTED_EDGE('',*,*,#462,.T.);
#674=ORIENTED_EDGE('',*,*,#479,.F.);
#675=ORIENTED_EDGE('',*,*,#477,.T.);
#676=ORIENTED_EDGE('',*,*,#446,.T.);
#677=ORIENTED_EDGE('',*,*,#449,.T.);
#678=ORIENTED_EDGE('',*,*,#451,.T.);
#679=ORIENTED_EDGE('',*,*,#453,.T.);
#680=ORIENTED_EDGE('',*,*,#455,.T.);
#681=ORIENTED_EDGE('',*,*,#457,.T.);
#682=ORIENTED_EDGE('',*,*,#459,.T.);
#683=ORIENTED_EDGE('',*,*,#461,.T.);
#684=ORIENTED_EDGE('',*,*,#464,.T.);
#685=ORIENTED_EDGE('',*,*,#466,.T.);
#686=ORIENTED_EDGE('',*,*,#468,.T.);
#687=ORIENTED_EDGE('',*,*,#470,.T.);
#688=ORIENTED_EDGE('',*,*,#472,.T.);
#689=ORIENTED_EDGE('',*,*,#474,.T.);
#690=ORIENTED_EDGE('',*,*,#476,.T.);
#691=ORIENTED_EDGE('',*,*,#478,.T.);
#692=PLANE('',#772);
#693=PLANE('',#774);
#694=PLANE('',#776);
#695=PLANE('',#777);
#696=PLANE('',#779);
#697=PLANE('',#781);
#698=PLANE('',#783);
#699=PLANE('',#785);
#700=PLANE('',#796);
#701=PLANE('',#797);
#702=PLANE('',#798);
#703=PLANE('',#799);
#704=PLANE('',#800);
#705=PLANE('',#803);
#706=PLANE('',#805);
#707=PLANE('',#807);
#708=PLANE('',#828);
#709=PLANE('',#831);
#710=PLANE('',#834);
#711=PLANE('',#837);
#712=PLANE('',#840);
#713=PLANE('',#842);
#714=PLANE('',#845);
#715=PLANE('',#848);
#716=PLANE('',#851);
#717=PLANE('',#856);
#718=ADVANCED_FACE('',(#78),#692,.F.);
#719=ADVANCED_FACE('',(#79),#693,.F.);
#720=ADVANCED_FACE('',(#80),#694,.T.);
#721=ADVANCED_FACE('',(#81),#695,.F.);
#722=ADVANCED_FACE('',(#82),#696,.F.);
#723=ADVANCED_FACE('',(#83),#697,.F.);
#724=ADVANCED_FACE('',(#84),#698,.F.);
#725=ADVANCED_FACE('',(#85),#699,.F.);
#726=ADVANCED_FACE('',(#86,#15,#16,#17),#29,.T.);
#727=ADVANCED_FACE('',(#87),#700,.F.);
#728=ADVANCED_FACE('',(#88),#701,.F.);
#729=ADVANCED_FACE('',(#89),#702,.F.);
#730=ADVANCED_FACE('',(#90),#703,.F.);
#731=ADVANCED_FACE('',(#91),#704,.F.);
#732=ADVANCED_FACE('',(#92),#705,.F.);
#733=ADVANCED_FACE('',(#93),#706,.F.);
#734=ADVANCED_FACE('',(#94,#18,#19,#20,#21,#22),#707,.T.);
#735=ADVANCED_FACE('',(#95),#30,.F.);
#736=ADVANCED_FACE('',(#96),#31,.F.);
#737=ADVANCED_FACE('',(#97),#32,.F.);
#738=ADVANCED_FACE('',(#98),#33,.F.);
#739=ADVANCED_FACE('',(#99),#708,.T.);
#740=ADVANCED_FACE('',(#100),#34,.F.);
#741=ADVANCED_FACE('',(#101),#709,.T.);
#742=ADVANCED_FACE('',(#102),#35,.T.);
#743=ADVANCED_FACE('',(#103),#710,.T.);
#744=ADVANCED_FACE('',(#104),#36,.F.);
#745=ADVANCED_FACE('',(#105),#711,.T.);
#746=ADVANCED_FACE('',(#106),#37,.T.);
#747=ADVANCED_FACE('',(#107,#23,#24,#25,#26,#27),#712,.F.);
#748=ADVANCED_FACE('',(#108),#713,.T.);
#749=ADVANCED_FACE('',(#109),#38,.F.);
#750=ADVANCED_FACE('',(#110),#714,.T.);
#751=ADVANCED_FACE('',(#111),#39,.T.);
#752=ADVANCED_FACE('',(#112),#715,.T.);
#753=ADVANCED_FACE('',(#113),#40,.F.);
#754=ADVANCED_FACE('',(#114),#716,.T.);
#755=ADVANCED_FACE('',(#115),#41,.T.);
#756=ADVANCED_FACE('',(#116),#42,.F.);
#757=ADVANCED_FACE('',(#117,#28),#717,.T.);
#758=CLOSED_SHELL('',(#718,#719,#720,#721,#722,#723,#724,#725,#726,#727,
#728,#729,#730,#731,#732,#733,#734,#735,#736,#737,#738,#739,#740,#741,#742,
#743,#744,#745,#746,#747,#748,#749,#750,#751,#752,#753,#754,#755,#756,#757));
#759=DERIVED_UNIT_ELEMENT(#761,1.);
#760=DERIVED_UNIT_ELEMENT(#1312,-3.);
#761=(
MASS_UNIT()
NAMED_UNIT(*)
SI_UNIT(.KILO.,.GRAM.)
);
#762=DERIVED_UNIT((#759,#760));
#763=MEASURE_REPRESENTATION_ITEM('density measure',
POSITIVE_RATIO_MEASURE(7850.),#762);
#764=PROPERTY_DEFINITION_REPRESENTATION(#769,#766);
#765=PROPERTY_DEFINITION_REPRESENTATION(#770,#767);
#766=REPRESENTATION('material name',(#768),#1309);
#767=REPRESENTATION('density',(#763),#1309);
#768=DESCRIPTIVE_REPRESENTATION_ITEM('Steel','Steel');
#769=PROPERTY_DEFINITION('material property','material name',#1319);
#770=PROPERTY_DEFINITION('material property','density of part',#1319);
#771=AXIS2_PLACEMENT_3D('',#1090,#857,#858);
#772=AXIS2_PLACEMENT_3D('',#1091,#859,#860);
#773=AXIS2_PLACEMENT_3D('',#1094,#861,#862);
#774=AXIS2_PLACEMENT_3D('',#1100,#866,#867);
#775=AXIS2_PLACEMENT_3D('',#1102,#868,#869);
#776=AXIS2_PLACEMENT_3D('',#1106,#872,#873);
#777=AXIS2_PLACEMENT_3D('',#1108,#875,#876);
#778=AXIS2_PLACEMENT_3D('',#1109,#877,#878);
#779=AXIS2_PLACEMENT_3D('',#1110,#879,#880);
#780=AXIS2_PLACEMENT_3D('',#1113,#881,#882);
#781=AXIS2_PLACEMENT_3D('',#1119,#886,#887);
#782=AXIS2_PLACEMENT_3D('',#1121,#888,#889);
#783=AXIS2_PLACEMENT_3D('',#1125,#892,#893);
#784=AXIS2_PLACEMENT_3D('',#1126,#894,#895);
#785=AXIS2_PLACEMENT_3D('',#1128,#897,#898);
#786=AXIS2_PLACEMENT_3D('',#1129,#899,#900);
#787=AXIS2_PLACEMENT_3D('',#1131,#901,#902);
#788=AXIS2_PLACEMENT_3D('',#1135,#904,#905);
#789=AXIS2_PLACEMENT_3D('',#1137,#906,#907);
#790=AXIS2_PLACEMENT_3D('',#1140,#909,#910);
#791=AXIS2_PLACEMENT_3D('',#1142,#911,#912);
#792=AXIS2_PLACEMENT_3D('',#1143,#913,#914);
#793=AXIS2_PLACEMENT_3D('',#1146,#915,#916);
#794=AXIS2_PLACEMENT_3D('',#1148,#917,#918);
#795=AXIS2_PLACEMENT_3D('',#1149,#919,#920);
#796=AXIS2_PLACEMENT_3D('',#1150,#921,#922);
#797=AXIS2_PLACEMENT_3D('',#1156,#926,#927);
#798=AXIS2_PLACEMENT_3D('',#1160,#930,#931);
#799=AXIS2_PLACEMENT_3D('',#1162,#933,#934);
#800=AXIS2_PLACEMENT_3D('',#1163,#935,#936);
#801=AXIS2_PLACEMENT_3D('',#1166,#937,#938);
#802=AXIS2_PLACEMENT_3D('',#1170,#941,#942);
#803=AXIS2_PLACEMENT_3D('',#1171,#943,#944);
#804=AXIS2_PLACEMENT_3D('',#1173,#945,#946);
#805=AXIS2_PLACEMENT_3D('',#1175,#948,#949);
#806=AXIS2_PLACEMENT_3D('',#1176,#950,#951);
#807=AXIS2_PLACEMENT_3D('',#1177,#952,#953);
#808=AXIS2_PLACEMENT_3D('',#1179,#954,#955);
#809=AXIS2_PLACEMENT_3D('',#1181,#956,#957);
#810=AXIS2_PLACEMENT_3D('',#1183,#958,#959);
#811=AXIS2_PLACEMENT_3D('',#1185,#960,#961);
#812=AXIS2_PLACEMENT_3D('',#1190,#963,#964);
#813=AXIS2_PLACEMENT_3D('',#1194,#966,#967);
#814=AXIS2_PLACEMENT_3D('',#1198,#969,#970);
#815=AXIS2_PLACEMENT_3D('',#1202,#972,#973);
#816=AXIS2_PLACEMENT_3D('',#1206,#975,#976);
#817=AXIS2_PLACEMENT_3D('',#1210,#978,#979);
#818=AXIS2_PLACEMENT_3D('',#1214,#981,#982);
#819=AXIS2_PLACEMENT_3D('',#1217,#984,#985);
#820=AXIS2_PLACEMENT_3D('',#1218,#986,#987);
#821=AXIS2_PLACEMENT_3D('',#1221,#989,#990);
#822=AXIS2_PLACEMENT_3D('',#1222,#991,#992);
#823=AXIS2_PLACEMENT_3D('',#1226,#995,#996);
#824=AXIS2_PLACEMENT_3D('',#1227,#997,#998);
#825=AXIS2_PLACEMENT_3D('',#1230,#1000,#1001);
#826=AXIS2_PLACEMENT_3D('',#1231,#1002,#1003);
#827=AXIS2_PLACEMENT_3D('',#1234,#1005,#1006);
#828=AXIS2_PLACEMENT_3D('',#1235,#1007,#1008);
#829=AXIS2_PLACEMENT_3D('',#1241,#1012,#1013);
#830=AXIS2_PLACEMENT_3D('',#1244,#1015,#1016);
#831=AXIS2_PLACEMENT_3D('',#1245,#1017,#1018);
#832=AXIS2_PLACEMENT_3D('',#1249,#1021,#1022);
#833=AXIS2_PLACEMENT_3D('',#1252,#1024,#1025);
#834=AXIS2_PLACEMENT_3D('',#1253,#1026,#1027);
#835=AXIS2_PLACEMENT_3D('',#1257,#1030,#1031);
#836=AXIS2_PLACEMENT_3D('',#1260,#1033,#1034);
#837=AXIS2_PLACEMENT_3D('',#1261,#1035,#1036);
#838=AXIS2_PLACEMENT_3D('',#1265,#1039,#1040);
#839=AXIS2_PLACEMENT_3D('',#1268,#1042,#1043);
#840=AXIS2_PLACEMENT_3D('',#1269,#1044,#1045);
#841=AXIS2_PLACEMENT_3D('',#1271,#1046,#1047);
#842=AXIS2_PLACEMENT_3D('',#1272,#1048,#1049);
#843=AXIS2_PLACEMENT_3D('',#1276,#1052,#1053);
#844=AXIS2_PLACEMENT_3D('',#1279,#1055,#1056);
#845=AXIS2_PLACEMENT_3D('',#1280,#1057,#1058);
#846=AXIS2_PLACEMENT_3D('',#1284,#1061,#1062);
#847=AXIS2_PLACEMENT_3D('',#1287,#1064,#1065);
#848=AXIS2_PLACEMENT_3D('',#1288,#1066,#1067);
#849=AXIS2_PLACEMENT_3D('',#1292,#1070,#1071);
#850=AXIS2_PLACEMENT_3D('',#1295,#1073,#1074);
#851=AXIS2_PLACEMENT_3D('',#1296,#1075,#1076);
#852=AXIS2_PLACEMENT_3D('',#1300,#1079,#1080);
#853=AXIS2_PLACEMENT_3D('',#1301,#1081,#1082);
#854=AXIS2_PLACEMENT_3D('',#1302,#1083,#1084);
#855=AXIS2_PLACEMENT_3D('',#1304,#1085,#1086);
#856=AXIS2_PLACEMENT_3D('',#1306,#1088,#1089);
#857=DIRECTION('axis',(0.,0.,1.));
#858=DIRECTION('refdir',(1.,0.,0.));
#859=DIRECTION('center_axis',(-0.948683298050514,0.,0.316227766016838));
#860=DIRECTION('ref_axis',(-0.316227766016838,0.,-0.948683298050514));
#861=DIRECTION('center_axis',(-0.948683298050514,0.,0.316227766016838));
#862=DIRECTION('ref_axis',(0.316227766016838,0.,0.948683298050514));
#863=DIRECTION('',(0.,-1.,0.));
#864=DIRECTION('',(-0.316227766016838,0.,-0.948683298050514));
#865=DIRECTION('',(0.,-1.,0.));
#866=DIRECTION('center_axis',(0.948683298050514,0.,0.316227766016838));
#867=DIRECTION('ref_axis',(-0.316227766016838,0.,0.948683298050514));
#868=DIRECTION('center_axis',(0.948683298050514,0.,0.316227766016838));
#869=DIRECTION('ref_axis',(0.316227766016838,0.,-0.948683298050514));
#870=DIRECTION('',(-0.316227766016838,0.,0.948683298050514));
#871=DIRECTION('',(0.,-1.,0.));
#872=DIRECTION('center_axis',(0.,-1.,0.));
#873=DIRECTION('ref_axis',(0.,0.,-1.));
#874=DIRECTION('',(1.,0.,0.));
#875=DIRECTION('center_axis',(0.,0.,-1.));
#876=DIRECTION('ref_axis',(1.,0.,0.));
#877=DIRECTION('center_axis',(0.,0.,-1.));
#878=DIRECTION('ref_axis',(1.,0.,0.));
#879=DIRECTION('center_axis',(0.948683298050514,0.,0.316227766016838));
#880=DIRECTION('ref_axis',(-0.316227766016838,0.,0.948683298050514));
#881=DIRECTION('center_axis',(0.948683298050514,0.,0.316227766016838));
#882=DIRECTION('ref_axis',(0.316227766016838,0.,-0.948683298050514));
#883=DIRECTION('',(0.,-1.,0.));
#884=DIRECTION('',(-0.316227766016838,0.,0.948683298050514));
#885=DIRECTION('',(0.,-1.,0.));
#886=DIRECTION('center_axis',(0.,0.,-1.));
#887=DIRECTION('ref_axis',(1.,0.,0.));
#888=DIRECTION('center_axis',(0.,0.,-1.));
#889=DIRECTION('ref_axis',(1.,0.,0.));
#890=DIRECTION('',(0.,-1.,0.));
#891=DIRECTION('',(1.,0.,0.));
#892=DIRECTION('center_axis',(-0.948683298050514,0.,0.316227766016838));
#893=DIRECTION('ref_axis',(-0.316227766016838,0.,-0.948683298050514));
#894=DIRECTION('center_axis',(-0.948683298050514,0.,0.316227766016838));
#895=DIRECTION('ref_axis',(0.316227766016838,0.,0.948683298050514));
#896=DIRECTION('',(-0.316227766016838,0.,-0.948683298050514));
#897=DIRECTION('center_axis',(0.,-1.,0.));
#898=DIRECTION('ref_axis',(0.,0.,-1.));
#899=DIRECTION('center_axis',(0.,0.,1.));
#900=DIRECTION('ref_axis',(1.,0.,0.));
#901=DIRECTION('center_axis',(0.,0.,1.));
#902=DIRECTION('ref_axis',(1.,0.,0.));
#903=DIRECTION('',(0.,0.,-1.));
#904=DIRECTION('center_axis',(0.,-0.948683298050514,0.316227766016838));
#905=DIRECTION('ref_axis',(0.,0.316227766016838,0.948683298050514));
#906=DIRECTION('center_axis',(0.,0.,-1.));
#907=DIRECTION('ref_axis',(1.,0.,0.));
#908=DIRECTION('',(0.,0.,-1.));
#909=DIRECTION('center_axis',(0.,0.,1.));
#910=DIRECTION('ref_axis',(1.,0.,0.));
#911=DIRECTION('center_axis',(0.,0.,-1.));
#912=DIRECTION('ref_axis',(1.,0.,0.));
#913=DIRECTION('center_axis',(0.,0.948683298050514,0.316227766016838));
#914=DIRECTION('ref_axis',(0.,0.316227766016838,-0.948683298050514));
#915=DIRECTION('center_axis',(0.,0.948683298050514,0.316227766016838));
#916=DIRECTION('ref_axis',(0.,0.316227766016838,-0.948683298050514));
#917=DIRECTION('center_axis',(0.,0.,-1.));
#918=DIRECTION('ref_axis',(1.,0.,0.));
#919=DIRECTION('center_axis',(0.,-0.948683298050514,0.316227766016838));
#920=DIRECTION('ref_axis',(0.,0.316227766016838,0.948683298050514));
#921=DIRECTION('center_axis',(0.,-0.948683298050514,0.316227766016838));
#922=DIRECTION('ref_axis',(0.,0.316227766016838,0.948683298050514));
#923=DIRECTION('',(-1.,0.,0.));
#924=DIRECTION('',(0.,0.316227766016838,0.948683298050514));
#925=DIRECTION('',(-1.,0.,0.));
#926=DIRECTION('center_axis',(0.,0.948683298050514,0.316227766016838));
#927=DIRECTION('ref_axis',(0.,0.316227766016838,-0.948683298050514));
#928=DIRECTION('',(0.,0.316227766016838,-0.948683298050514));
#929=DIRECTION('',(-1.,0.,0.));
#930=DIRECTION('center_axis',(0.,0.,-1.));
#931=DIRECTION('ref_axis',(0.,-1.,0.));
#932=DIRECTION('',(0.,-1.,0.));
#933=DIRECTION('center_axis',(-1.,0.,0.));
#934=DIRECTION('ref_axis',(0.,0.,1.));
#935=DIRECTION('center_axis',(0.,0.,-1.));
#936=DIRECTION('ref_axis',(0.,-1.,0.));
#937=DIRECTION('center_axis',(0.,0.,1.));
#938=DIRECTION('ref_axis',(1.,0.,0.));
#939=DIRECTION('',(-1.,0.,0.));
#940=DIRECTION('',(-1.,0.,0.));
#941=DIRECTION('center_axis',(0.,0.,1.));
#942=DIRECTION('ref_axis',(1.,0.,0.));
#943=DIRECTION('center_axis',(0.,-0.948683298050514,0.316227766016838));
#944=DIRECTION('ref_axis',(0.,0.316227766016838,0.948683298050514));
#945=DIRECTION('center_axis',(0.,0.948683298050514,-0.316227766016838));
#946=DIRECTION('ref_axis',(0.,0.316227766016838,0.948683298050514));
#947=DIRECTION('',(-1.,0.,0.));
#948=DIRECTION('center_axis',(0.,0.948683298050514,0.316227766016838));
#949=DIRECTION('ref_axis',(0.,0.316227766016838,-0.948683298050514));
#950=DIRECTION('center_axis',(0.,-0.948683298050514,-0.316227766016838));
#951=DIRECTION('ref_axis',(0.,0.316227766016838,-0.948683298050514));
#952=DIRECTION('center_axis',(0.,0.,1.));
#953=DIRECTION('ref_axis',(1.,0.,0.));
#954=DIRECTION('center_axis',(0.,0.,-1.));
#955=DIRECTION('ref_axis',(1.,0.,0.));
#956=DIRECTION('center_axis',(0.,0.,-1.));
#957=DIRECTION('ref_axis',(1.,0.,0.));
#958=DIRECTION('center_axis',(0.,0.,-1.));
#959=DIRECTION('ref_axis',(1.,0.,0.));
#960=DIRECTION('center_axis',(0.,0.,-1.));
#961=DIRECTION('ref_axis',(1.,0.,0.));
#962=DIRECTION('',(0.,1.,0.));
#963=DIRECTION('center_axis',(0.,0.,1.));
#964=DIRECTION('ref_axis',(-0.968246088480019,-0.249999024284383,0.));
#965=DIRECTION('',(-1.,0.,0.));
#966=DIRECTION('center_axis',(0.,0.,-1.));
#967=DIRECTION('ref_axis',(0.,-1.,0.));
#968=DIRECTION('',(1.,0.,0.));
#969=DIRECTION('center_axis',(0.,0.,1.));
#970=DIRECTION('ref_axis',(-0.249999218309919,0.968246038383029,0.));
#971=DIRECTION('',(0.,1.,0.));
#972=DIRECTION('center_axis',(0.,0.,-1.));
#973=DIRECTION('ref_axis',(-1.,0.,0.));
#974=DIRECTION('',(0.,-1.,0.));
#975=DIRECTION('center_axis',(0.,0.,1.));
#976=DIRECTION('ref_axis',(0.968245587508252,0.250000964539739,0.));
#977=DIRECTION('',(1.,0.,0.));
#978=DIRECTION('center_axis',(0.,0.,-1.));
#979=DIRECTION('ref_axis',(0.,1.,0.));
#980=DIRECTION('',(-1.,0.,0.));
#981=DIRECTION('center_axis',(0.,0.,1.));
#982=DIRECTION('ref_axis',(0.250000770514203,-0.968245637605615,0.));
#983=DIRECTION('',(0.,-1.,0.));
#984=DIRECTION('center_axis',(0.,0.,-1.));
#985=DIRECTION('ref_axis',(1.,0.,0.));
#986=DIRECTION('center_axis',(0.,0.,1.));
#987=DIRECTION('ref_axis',(1.,0.,0.));
#988=DIRECTION('',(0.,0.,-1.));
#989=DIRECTION('center_axis',(0.,0.,-1.));
#990=DIRECTION('ref_axis',(1.,0.,0.));
#991=DIRECTION('center_axis',(0.,0.,1.));
#992=DIRECTION('ref_axis',(1.,0.,0.));
#993=DIRECTION('',(0.,0.,-1.));
#994=DIRECTION('',(0.,0.,-1.));
#995=DIRECTION('center_axis',(0.,0.,-1.));
#996=DIRECTION('ref_axis',(1.,0.,0.));
#997=DIRECTION('center_axis',(0.,0.,1.));
#998=DIRECTION('ref_axis',(1.,0.,0.));
#999=DIRECTION('',(0.,0.,-1.));
#1000=DIRECTION('center_axis',(0.,0.,-1.));
#1001=DIRECTION('ref_axis',(1.,0.,0.));
#1002=DIRECTION('center_axis',(0.,0.,1.));
#1003=DIRECTION('ref_axis',(1.,0.,0.));
#1004=DIRECTION('',(0.,0.,-1.));
#1005=DIRECTION('center_axis',(0.,0.,-1.));
#1006=DIRECTION('ref_axis',(1.,0.,0.));
#1007=DIRECTION('center_axis',(-1.,0.,0.));
#1008=DIRECTION('ref_axis',(0.,-1.,0.));
#1009=DIRECTION('',(0.,0.,1.));
#1010=DIRECTION('',(0.,-1.,0.));
#1011=DIRECTION('',(0.,0.,1.));
#1012=DIRECTION('center_axis',(0.,0.,1.));
#1013=DIRECTION('ref_axis',(-1.,0.,0.));
#1014=DIRECTION('',(0.,0.,1.));
#1015=DIRECTION('center_axis',(0.,0.,-1.));
#1016=DIRECTION('ref_axis',(-1.,0.,0.));
#1017=DIRECTION('center_axis',(1.,0.,0.));
#1018=DIRECTION('ref_axis',(0.,1.,0.));
#1019=DIRECTION('',(0.,0.,1.));
#1020=DIRECTION('',(0.,1.,0.));
#1021=DIRECTION('center_axis',(0.,0.,1.));
#1022=DIRECTION('ref_axis',(-0.249999218309919,0.968246038383029,0.));
#1023=DIRECTION('',(0.,0.,1.));
#1024=DIRECTION('center_axis',(0.,0.,1.));
#1025=DIRECTION('ref_axis',(-0.249999218309919,0.968246038383029,0.));
#1026=DIRECTION('center_axis',(0.,-1.,0.));
#1027=DIRECTION('ref_axis',(1.,0.,0.));
#1028=DIRECTION('',(0.,0.,1.));
#1029=DIRECTION('',(1.,0.,0.));
#1030=DIRECTION('center_axis',(0.,0.,1.));
#1031=DIRECTION('ref_axis',(0.,-1.,0.));
#1032=DIRECTION('',(0.,0.,1.));
#1033=DIRECTION('center_axis',(0.,0.,-1.));
#1034=DIRECTION('ref_axis',(0.,-1.,0.));
#1035=DIRECTION('center_axis',(0.,1.,0.));
#1036=DIRECTION('ref_axis',(-1.,0.,0.));
#1037=DIRECTION('',(0.,0.,1.));
#1038=DIRECTION('',(-1.,0.,0.));
#1039=DIRECTION('center_axis',(0.,0.,1.));
#1040=DIRECTION('ref_axis',(-0.968246088480019,-0.249999024284383,0.));
#1041=DIRECTION('',(0.,0.,1.));
#1042=DIRECTION('center_axis',(0.,0.,1.));
#1043=DIRECTION('ref_axis',(-0.968246088480019,-0.249999024284383,0.));
#1044=DIRECTION('center_axis',(0.,0.,1.));
#1045=DIRECTION('ref_axis',(1.,0.,0.));
#1046=DIRECTION('center_axis',(0.,0.,-1.));
#1047=DIRECTION('ref_axis',(1.,0.,0.));
#1048=DIRECTION('center_axis',(1.,0.,0.));
#1049=DIRECTION('ref_axis',(0.,1.,0.));
#1050=DIRECTION('',(0.,0.,1.));
#1051=DIRECTION('',(0.,1.,0.));
#1052=DIRECTION('center_axis',(0.,0.,1.));
#1053=DIRECTION('ref_axis',(1.,0.,0.));
#1054=DIRECTION('',(0.,0.,1.));
#1055=DIRECTION('center_axis',(0.,0.,-1.));
#1056=DIRECTION('ref_axis',(1.,0.,0.));
#1057=DIRECTION('center_axis',(-1.,0.,0.));
#1058=DIRECTION('ref_axis',(0.,-1.,0.));
#1059=DIRECTION('',(0.,0.,1.));
#1060=DIRECTION('',(0.,-1.,0.));
#1061=DIRECTION('center_axis',(0.,0.,1.));
#1062=DIRECTION('ref_axis',(0.250000770514203,-0.968245637605615,0.));
#1063=DIRECTION('',(0.,0.,1.));
#1064=DIRECTION('center_axis',(0.,0.,1.));
#1065=DIRECTION('ref_axis',(0.250000770514203,-0.968245637605615,0.));
#1066=DIRECTION('center_axis',(0.,1.,0.));
#1067=DIRECTION('ref_axis',(-1.,0.,0.));
#1068=DIRECTION('',(0.,0.,1.));
#1069=DIRECTION('',(-1.,0.,0.));
#1070=DIRECTION('center_axis',(0.,0.,1.));
#1071=DIRECTION('ref_axis',(0.,1.,0.));
#1072=DIRECTION('',(0.,0.,1.));
#1073=DIRECTION('center_axis',(0.,0.,-1.));
#1074=DIRECTION('ref_axis',(0.,1.,0.));
#1075=DIRECTION('center_axis',(0.,-1.,0.));
#1076=DIRECTION('ref_axis',(1.,0.,0.));
#1077=DIRECTION('',(0.,0.,1.));
#1078=DIRECTION('',(1.,0.,0.));
#1079=DIRECTION('center_axis',(0.,0.,1.));
#1080=DIRECTION('ref_axis',(0.968245587508252,0.250000964539739,0.));
#1081=DIRECTION('center_axis',(0.,0.,1.));
#1082=DIRECTION('ref_axis',(0.968245587508252,0.250000964539739,0.));
#1083=DIRECTION('center_axis',(0.,0.,1.));
#1084=DIRECTION('ref_axis',(1.,0.,0.));
#1085=DIRECTION('center_axis',(0.,0.,-1.));
#1086=DIRECTION('ref_axis',(1.,0.,0.));
#1087=DIRECTION('',(0.,0.,-1.));
#1088=DIRECTION('center_axis',(0.,0.,1.));
#1089=DIRECTION('ref_axis',(1.,0.,0.));
#1090=CARTESIAN_POINT('',(0.,0.,0.));
#1091=CARTESIAN_POINT('Origin',(-100.000001490116,0.,44.0000006556511));
#1092=CARTESIAN_POINT('',(-101.000001505017,-133.944273905924,41.0000006109476));
#1093=CARTESIAN_POINT('',(-100.000001490116,-134.,44.0000006556511));
#1094=CARTESIAN_POINT('Origin',(-100.000001490116,-125.000001862645,44.0000006556511));
#1095=CARTESIAN_POINT('',(-101.000001505017,-133.5,41.0000006109476));
#1096=CARTESIAN_POINT('',(-101.000001505017,0.,41.0000006109476));
#1097=CARTESIAN_POINT('',(-100.000001490116,-133.5,44.0000006556511));
#1098=CARTESIAN_POINT('',(-100.225001493469,-133.5,43.3250006455928));
#1099=CARTESIAN_POINT('',(-100.000001490116,0.,44.0000006556511));
#1100=CARTESIAN_POINT('Origin',(-99.000001475215,0.,41.0000006109476));
#1101=CARTESIAN_POINT('',(-99.000001475215,-133.944273905924,41.0000006109476));
#1102=CARTESIAN_POINT('Origin',(-100.000001490116,-125.000001862645,44.0000006556511));
#1103=CARTESIAN_POINT('',(-99.000001475215,-133.5,41.0000006109476));
#1104=CARTESIAN_POINT('',(-99.2750014793128,-133.5,41.8250006232411));
#1105=CARTESIAN_POINT('',(-99.000001475215,0.,41.0000006109476));
#1106=CARTESIAN_POINT('Origin',(-100.000001490116,-133.5,42.5000006332994));
#1107=CARTESIAN_POINT('',(-100.500001497567,-133.5,41.0000006109476));
#1108=CARTESIAN_POINT('Origin',(-101.000001505017,0.,41.0000006109476));
#1109=CARTESIAN_POINT('Origin',(-100.000001490116,-125.000001862645,41.0000006109476));
#1110=CARTESIAN_POINT('Origin',(-99.000001475215,0.,41.0000006109476));
#1111=CARTESIAN_POINT('',(-99.000001475215,-116.055729819366,41.0000006109476));
#1112=CARTESIAN_POINT('',(-100.000001490116,-116.,44.0000006556511));
#1113=CARTESIAN_POINT('Origin',(-100.000001490116,-125.000001862645,44.0000006556511));
#1114=CARTESIAN_POINT('',(-99.000001475215,-116.5,41.0000006109476));
#1115=CARTESIAN_POINT('',(-99.000001475215,0.,41.0000006109476));
#1116=CARTESIAN_POINT('',(-100.000001490116,-116.5,44.0000006556511));
#1117=CARTESIAN_POINT('',(-100.000001490116,-116.5,44.0000006556511));
#1118=CARTESIAN_POINT('',(-100.000001490116,0.,44.0000006556511));
#1119=CARTESIAN_POINT('Origin',(-101.000001505017,0.,41.0000006109476));
#1120=CARTESIAN_POINT('',(-101.000001505017,-116.055729819366,41.0000006109476));
#1121=CARTESIAN_POINT('Origin',(-100.000001490116,-125.000001862645,41.0000006109476));
#1122=CARTESIAN_POINT('',(-101.000001505017,-116.5,41.0000006109476));
#1123=CARTESIAN_POINT('',(-101.000001505017,0.,41.0000006109476));
#1124=CARTESIAN_POINT('',(-99.000001475215,-116.5,41.0000006109476));
#1125=CARTESIAN_POINT('Origin',(-100.000001490116,0.,44.0000006556511));
#1126=CARTESIAN_POINT('Origin',(-100.000001490116,-125.000001862645,44.0000006556511));
#1127=CARTESIAN_POINT('',(-101.000001505017,-116.5,41.0000006109476));
#1128=CARTESIAN_POINT('Origin',(-100.000001490116,-116.5,42.5000006332994));
#1129=CARTESIAN_POINT('Origin',(-100.000001490116,-125.000001862645,0.));
#1130=CARTESIAN_POINT('',(-109.000001624227,-125.000001862645,45.));
#1131=CARTESIAN_POINT('Origin',(-100.000001490116,-125.000001862645,45.));
#1132=CARTESIAN_POINT('',(-109.,-125.000001862645,44.0000006556511));
#1133=CARTESIAN_POINT('',(-109.000001624227,-125.000001862645,0.));
#1134=CARTESIAN_POINT('',(-108.944273533395,-126.000001877546,41.0000006109476));
#1135=CARTESIAN_POINT('Origin',(-100.000001490116,-125.000001862645,44.0000006556511));
#1136=CARTESIAN_POINT('',(-109.000001624227,-125.000001862645,41.0000006109476));
#1137=CARTESIAN_POINT('Origin',(-100.000001490116,-125.000001862645,41.0000006109476));
#1138=CARTESIAN_POINT('',(-109.000001624227,-125.000001862645,40.));
#1139=CARTESIAN_POINT('',(-109.000001624227,-125.000001862645,0.));
#1140=CARTESIAN_POINT('Origin',(-100.000001490116,-125.000001862645,40.));
#1141=CARTESIAN_POINT('',(-108.944273533395,-124.000001847744,41.0000006109476));
#1142=CARTESIAN_POINT('Origin',(-100.000001490116,-125.000001862645,41.0000006109476));
#1143=CARTESIAN_POINT('Origin',(-100.000001490116,-125.000001862645,44.0000006556511));
#1144=CARTESIAN_POINT('',(-91.,-125.000001862645,44.0000006556511));
#1145=CARTESIAN_POINT('',(-91.0557294468369,-124.000001847744,41.0000006109476));
#1146=CARTESIAN_POINT('Origin',(-100.000001490116,-125.000001862645,44.0000006556511));
#1147=CARTESIAN_POINT('',(-91.0557294468369,-126.000001877546,41.0000006109476));
#1148=CARTESIAN_POINT('Origin',(-100.000001490116,-125.000001862645,41.0000006109476));
#1149=CARTESIAN_POINT('Origin',(-100.000001490116,-125.000001862645,44.0000006556511));
#1150=CARTESIAN_POINT('Origin',(0.,-126.000001877546,41.0000006109476));
#1151=CARTESIAN_POINT('',(-91.5,-126.000001877546,41.0000006109476));
#1152=CARTESIAN_POINT('',(0.,-126.000001877546,41.0000006109476));
#1153=CARTESIAN_POINT('',(-91.5,-125.000001862645,44.0000006556511));
#1154=CARTESIAN_POINT('',(-91.5,-125.000001862645,44.0000006556511));
#1155=CARTESIAN_POINT('',(0.,-125.000001862645,44.0000006556511));
#1156=CARTESIAN_POINT('Origin',(0.,-125.000001862645,44.0000006556511));
#1157=CARTESIAN_POINT('',(-91.5,-124.000001847744,41.0000006109476));
#1158=CARTESIAN_POINT('',(-91.5,-124.000001847744,41.0000006109476));
#1159=CARTESIAN_POINT('',(0.,-124.000001847744,41.0000006109476));
#1160=CARTESIAN_POINT('Origin',(0.,-124.000001847744,41.0000006109476));
#1161=CARTESIAN_POINT('',(-91.5,-126.000001877546,41.0000006109476));
#1162=CARTESIAN_POINT('Origin',(-91.5,-125.000001862645,42.5000006332994));
#1163=CARTESIAN_POINT('Origin',(0.,-124.000001847744,41.0000006109476));
#1164=CARTESIAN_POINT('',(-107.320157759752,-124.000001847744,41.0000006109476));
#1165=CARTESIAN_POINT('',(-108.050001594424,-125.000001862645,41.0000006109476));
#1166=CARTESIAN_POINT('Origin',(-107.000001594424,-125.000001862645,41.0000006109476));
#1167=CARTESIAN_POINT('',(0.,-124.000001847744,41.0000006109476));
#1168=CARTESIAN_POINT('',(-107.320157759752,-126.000001877546,41.0000006109476));
#1169=CARTESIAN_POINT('',(0.,-126.000001877546,41.0000006109476));
#1170=CARTESIAN_POINT('Origin',(-107.000001594424,-125.000001862645,41.0000006109476));
#1171=CARTESIAN_POINT('Origin',(0.,-126.000001877546,41.0000006109476));
#1172=CARTESIAN_POINT('',(-108.050001594424,-125.000001862645,44.0000006556511));
#1173=CARTESIAN_POINT('Origin',(-107.000001594424,-125.000001862645,44.0000006556511));
#1174=CARTESIAN_POINT('',(0.,-125.000001862645,44.0000006556511));
#1175=CARTESIAN_POINT('Origin',(0.,-125.000001862645,44.0000006556511));
#1176=CARTESIAN_POINT('Origin',(-107.000001594424,-125.000001862645,44.0000006556511));
#1177=CARTESIAN_POINT('Origin',(-100.000001490116,-125.000001862645,45.));
#1178=CARTESIAN_POINT('',(-94.050001385808,-125.000001862645,45.));
#1179=CARTESIAN_POINT('Origin',(-93.000001385808,-125.000001862645,45.));
#1180=CARTESIAN_POINT('',(-108.050001594424,-125.000001862645,45.));
#1181=CARTESIAN_POINT('Origin',(-107.000001594424,-125.000001862645,45.));
#1182=CARTESIAN_POINT('',(-101.050001490116,-118.000001758337,45.));
#1183=CARTESIAN_POINT('Origin',(-100.000001490116,-118.000001758337,45.));
#1184=CARTESIAN_POINT('',(-101.050001490116,-132.000001966953,45.));
#1185=CARTESIAN_POINT('Origin',(-100.000001490116,-132.000001966953,45.));
#1186=CARTESIAN_POINT('',(-101.199997738004,-129.647582846884,45.));
#1187=CARTESIAN_POINT('',(-101.199997738004,-128.999997116625,45.));
#1188=CARTESIAN_POINT('',(-101.199997738004,-127.323792354764,45.));
#1189=CARTESIAN_POINT('',(-104.64758271482,-126.19999717921,45.));
#1190=CARTESIAN_POINT('Origin',(-100.000001490116,-125.000001862645,45.));
#1191=CARTESIAN_POINT('',(-103.999997675419,-126.19999717921,45.));
#1192=CARTESIAN_POINT('',(-101.999999582767,-126.19999717921,45.));
#1193=CARTESIAN_POINT('',(-103.999997675419,-123.799997232854,45.));
#1194=CARTESIAN_POINT('Origin',(-103.999997675419,-124.999997206032,45.));
#1195=CARTESIAN_POINT('',(-104.647580310156,-123.799997232854,45.));
#1196=CARTESIAN_POINT('',(-102.323790900136,-123.799997232854,45.));
#1197=CARTESIAN_POINT('',(-101.199997738004,-120.352420878407,45.));
#1198=CARTESIAN_POINT('Origin',(-100.000001490116,-125.000001862645,45.));
#1199=CARTESIAN_POINT('',(-101.199997738004,-120.999997295439,45.));
#1200=CARTESIAN_POINT('',(-101.199997738004,-122.999999579042,45.));
#1201=CARTESIAN_POINT('',(-98.7999977916479,-120.999997295439,45.));
#1202=CARTESIAN_POINT('Origin',(-99.9999977648258,-120.999997295439,45.));
#1203=CARTESIAN_POINT('',(-98.7999977916479,-120.352422802138,45.));
#1204=CARTESIAN_POINT('',(-98.7999977916479,-122.676212332392,45.));
#1205=CARTESIAN_POINT('',(-95.3524226700764,-123.799997232854,45.));
#1206=CARTESIAN_POINT('Origin',(-100.000001490116,-125.000001862645,45.));
#1207=CARTESIAN_POINT('',(-95.9999978542328,-123.799997232854,45.));
#1208=CARTESIAN_POINT('',(-97.9999996721745,-123.799997232854,45.));
#1209=CARTESIAN_POINT('',(-95.9999978542328,-126.19999717921,45.));
#1210=CARTESIAN_POINT('Origin',(-95.9999978542328,-124.999997206032,45.));
#1211=CARTESIAN_POINT('',(-95.3524202654119,-126.19999717921,45.));
#1212=CARTESIAN_POINT('',(-97.676210877764,-126.19999717921,45.));
#1213=CARTESIAN_POINT('',(-98.7999977916479,-129.647580923152,45.));
#1214=CARTESIAN_POINT('Origin',(-100.000001490116,-125.000001862645,45.));
#1215=CARTESIAN_POINT('',(-98.7999977916479,-128.999997116625,45.));
#1216=CARTESIAN_POINT('',(-98.7999977916479,-126.999999489635,45.));
#1217=CARTESIAN_POINT('Origin',(-99.9999977648258,-128.999997116625,45.));
#1218=CARTESIAN_POINT('Origin',(-93.000001385808,-125.000001862645,0.));
#1219=CARTESIAN_POINT('',(-94.050001385808,-125.000001862645,40.));
#1220=CARTESIAN_POINT('',(-94.050001385808,-125.000001862645,0.));
#1221=CARTESIAN_POINT('Origin',(-93.000001385808,-125.000001862645,40.));
#1222=CARTESIAN_POINT('Origin',(-107.000001594424,-125.000001862645,0.));
#1223=CARTESIAN_POINT('',(-108.050001594424,-125.000001862645,0.));
#1224=CARTESIAN_POINT('',(-108.050001594424,-125.000001862645,40.));
#1225=CARTESIAN_POINT('',(-108.050001594424,-125.000001862645,0.));
#1226=CARTESIAN_POINT('Origin',(-107.000001594424,-125.000001862645,40.));
#1227=CARTESIAN_POINT('Origin',(-100.000001490116,-118.000001758337,0.));
#1228=CARTESIAN_POINT('',(-101.050001490116,-118.000001758337,40.));
#1229=CARTESIAN_POINT('',(-101.050001490116,-118.000001758337,0.));
#1230=CARTESIAN_POINT('Origin',(-100.000001490116,-118.000001758337,40.));
#1231=CARTESIAN_POINT('Origin',(-100.000001490116,-132.000001966953,0.));
#1232=CARTESIAN_POINT('',(-101.050001490116,-132.000001966953,40.));
#1233=CARTESIAN_POINT('',(-101.050001490116,-132.000001966953,0.));
#1234=CARTESIAN_POINT('Origin',(-100.000001490116,-132.000001966953,40.));
#1235=CARTESIAN_POINT('Origin',(-98.7999977916479,-120.352422802138,0.));
#1236=CARTESIAN_POINT('',(-98.7999977916479,-120.999997295439,143.));
#1237=CARTESIAN_POINT('',(-98.7999977916479,-120.999997295439,0.));
#1238=CARTESIAN_POINT('',(-98.7999977916479,-120.352422802138,143.));
#1239=CARTESIAN_POINT('',(-98.7999977916479,-120.999997295439,143.));
#1240=CARTESIAN_POINT('',(-98.7999977916479,-120.352422802138,0.));
#1241=CARTESIAN_POINT('Origin',(-99.9999977648258,-120.999997295439,0.));
#1242=CARTESIAN_POINT('',(-101.199997738004,-120.999997295439,143.));
#1243=CARTESIAN_POINT('',(-101.199997738004,-120.999997295439,0.));
#1244=CARTESIAN_POINT('Origin',(-99.9999977648258,-120.999997295439,143.));
#1245=CARTESIAN_POINT('Origin',(-101.199997738004,-120.999997295439,0.));
#1246=CARTESIAN_POINT('',(-101.199997738004,-120.352420878407,143.));
#1247=CARTESIAN_POINT('',(-101.199997738004,-120.352420878407,0.));
#1248=CARTESIAN_POINT('',(-101.199997738004,-120.352420878407,143.));
#1249=CARTESIAN_POINT('Origin',(-100.000001490116,-125.000001862645,0.));
#1250=CARTESIAN_POINT('',(-104.647580310156,-123.799997232854,143.));
#1251=CARTESIAN_POINT('',(-104.647580310156,-123.799997232854,0.));
#1252=CARTESIAN_POINT('Origin',(-100.000001490116,-125.000001862645,143.));
#1253=CARTESIAN_POINT('Origin',(-104.647580310156,-123.799997232854,0.));
#1254=CARTESIAN_POINT('',(-103.999997675419,-123.799997232854,143.));
#1255=CARTESIAN_POINT('',(-103.999997675419,-123.799997232854,0.));
#1256=CARTESIAN_POINT('',(-103.999997675419,-123.799997232854,143.));
#1257=CARTESIAN_POINT('Origin',(-103.999997675419,-124.999997206032,0.));
#1258=CARTESIAN_POINT('',(-103.999997675419,-126.19999717921,143.));
#1259=CARTESIAN_POINT('',(-103.999997675419,-126.19999717921,0.));
#1260=CARTESIAN_POINT('Origin',(-103.999997675419,-124.999997206032,143.));
#1261=CARTESIAN_POINT('Origin',(-103.999997675419,-126.19999717921,0.));
#1262=CARTESIAN_POINT('',(-104.64758271482,-126.19999717921,143.));
#1263=CARTESIAN_POINT('',(-104.64758271482,-126.19999717921,0.));
#1264=CARTESIAN_POINT('',(-104.64758271482,-126.19999717921,143.));
#1265=CARTESIAN_POINT('Origin',(-100.000001490116,-125.000001862645,0.));
#1266=CARTESIAN_POINT('',(-101.199997738004,-129.647582846884,143.));
#1267=CARTESIAN_POINT('',(-101.199997738004,-129.647582846884,0.));
#1268=CARTESIAN_POINT('Origin',(-100.000001490116,-125.000001862645,143.));
#1269=CARTESIAN_POINT('Origin',(-100.000001490116,-125.000001862645,40.));
#1270=CARTESIAN_POINT('',(-101.500001490116,-125.000001862645,40.));
#1271=CARTESIAN_POINT('Origin',(-100.000001490116,-125.000001862645,40.));
#1272=CARTESIAN_POINT('Origin',(-101.199997738004,-129.647582846884,0.));
#1273=CARTESIAN_POINT('',(-101.199997738004,-128.999997116625,143.));
#1274=CARTESIAN_POINT('',(-101.199997738004,-128.999997116625,0.));
#1275=CARTESIAN_POINT('',(-101.199997738004,-129.647582846884,143.));
#1276=CARTESIAN_POINT('Origin',(-99.9999977648258,-128.999997116625,0.));
#1277=CARTESIAN_POINT('',(-98.7999977916479,-128.999997116625,143.));
#1278=CARTESIAN_POINT('',(-98.7999977916479,-128.999997116625,0.));
#1279=CARTESIAN_POINT('Origin',(-99.9999977648258,-128.999997116625,143.));
#1280=CARTESIAN_POINT('Origin',(-98.7999977916479,-128.999997116625,0.));
#1281=CARTESIAN_POINT('',(-98.7999977916479,-129.647580923152,143.));
#1282=CARTESIAN_POINT('',(-98.7999977916479,-129.647580923152,0.));
#1283=CARTESIAN_POINT('',(-98.7999977916479,-128.999997116625,143.));
#1284=CARTESIAN_POINT('Origin',(-100.000001490116,-125.000001862645,0.));
#1285=CARTESIAN_POINT('',(-95.3524202654119,-126.19999717921,143.));
#1286=CARTESIAN_POINT('',(-95.3524202654119,-126.19999717921,0.));
#1287=CARTESIAN_POINT('Origin',(-100.000001490116,-125.000001862645,143.));
#1288=CARTESIAN_POINT('Origin',(-95.3524202654119,-126.19999717921,0.));
#1289=CARTESIAN_POINT('',(-95.9999978542328,-126.19999717921,143.));
#1290=CARTESIAN_POINT('',(-95.9999978542328,-126.19999717921,0.));
#1291=CARTESIAN_POINT('',(-95.9999978542328,-126.19999717921,143.));
#1292=CARTESIAN_POINT('Origin',(-95.9999978542328,-124.999997206032,0.));
#1293=CARTESIAN_POINT('',(-95.9999978542328,-123.799997232854,143.));
#1294=CARTESIAN_POINT('',(-95.9999978542328,-123.799997232854,0.));
#1295=CARTESIAN_POINT('Origin',(-95.9999978542328,-124.999997206032,143.));
#1296=CARTESIAN_POINT('Origin',(-95.9999978542328,-123.799997232854,0.));
#1297=CARTESIAN_POINT('',(-95.3524226700764,-123.799997232854,143.));
#1298=CARTESIAN_POINT('',(-95.3524226700764,-123.799997232854,0.));
#1299=CARTESIAN_POINT('',(-95.3524226700764,-123.799997232854,143.));
#1300=CARTESIAN_POINT('Origin',(-100.000001490116,-125.000001862645,0.));
#1301=CARTESIAN_POINT('Origin',(-100.000001490116,-125.000001862645,143.));
#1302=CARTESIAN_POINT('Origin',(-100.000001490116,-125.000001862645,0.));
#1303=CARTESIAN_POINT('',(-101.500001490116,-125.000001862645,143.));
#1304=CARTESIAN_POINT('Origin',(-100.000001490116,-125.000001862645,143.));
#1305=CARTESIAN_POINT('',(-101.500001490116,-125.000001862645,0.));
#1306=CARTESIAN_POINT('Origin',(-100.000001490116,-125.000001862645,143.));
#1307=UNCERTAINTY_MEASURE_WITH_UNIT(LENGTH_MEASURE(0.01),#1311,
'DISTANCE_ACCURACY_VALUE',
'Maximum model space distance between geometric entities at asserted c
onnectivities');
#1308=UNCERTAINTY_MEASURE_WITH_UNIT(LENGTH_MEASURE(0.01),#1311,
'DISTANCE_ACCURACY_VALUE',
'Maximum model space distance between geometric entities at asserted c
onnectivities');
#1309=(
GEOMETRIC_REPRESENTATION_CONTEXT(3)
GLOBAL_UNCERTAINTY_ASSIGNED_CONTEXT((#1307))
GLOBAL_UNIT_ASSIGNED_CONTEXT((#1311,#1313,#1314))
REPRESENTATION_CONTEXT('','3D')
);
#1310=(
GEOMETRIC_REPRESENTATION_CONTEXT(3)
GLOBAL_UNCERTAINTY_ASSIGNED_CONTEXT((#1308))
GLOBAL_UNIT_ASSIGNED_CONTEXT((#1311,#1313,#1314))
REPRESENTATION_CONTEXT('','3D')
);
#1311=(
LENGTH_UNIT()
NAMED_UNIT(*)
SI_UNIT(.MILLI.,.METRE.)
);
#1312=(
LENGTH_UNIT()
NAMED_UNIT(*)
SI_UNIT($,.METRE.)
);
#1313=(
NAMED_UNIT(*)
PLANE_ANGLE_UNIT()
SI_UNIT($,.RADIAN.)
);
#1314=(
NAMED_UNIT(*)
SI_UNIT($,.STERADIAN.)
SOLID_ANGLE_UNIT()
);
#1315=SHAPE_DEFINITION_REPRESENTATION(#1316,#1317);
#1316=PRODUCT_DEFINITION_SHAPE('',$,#1319);
#1317=SHAPE_REPRESENTATION('',(#771),#1309);
#1318=PRODUCT_DEFINITION_CONTEXT('part definition',#1323,'design');
#1319=PRODUCT_DEFINITION('2025-08-05-22-17-29-606','zpos_0',#1320,#1318);
#1320=PRODUCT_DEFINITION_FORMATION('',$,#1325);
#1321=PRODUCT_RELATED_PRODUCT_CATEGORY('zpos_0','zpos_0',(#1325));
#1322=APPLICATION_PROTOCOL_DEFINITION('international standard',
'automotive_design',2009,#1323);
#1323=APPLICATION_CONTEXT(
'Core Data for Automotive Mechanical Design Process');
#1324=PRODUCT_CONTEXT('part definition',#1323,'mechanical');
#1325=PRODUCT('2025-08-05-22-17-29-606','zpos_0',$,(#1324));
#1326=PRESENTATION_STYLE_ASSIGNMENT((#1328));
#1327=PRESENTATION_STYLE_ASSIGNMENT((#1329));
#1328=SURFACE_STYLE_USAGE(.BOTH.,#1330);
#1329=SURFACE_STYLE_USAGE(.BOTH.,#1331);
#1330=SURFACE_SIDE_STYLE('',(#1332));
#1331=SURFACE_SIDE_STYLE('',(#1333));
#1332=SURFACE_STYLE_FILL_AREA(#1334);
#1333=SURFACE_STYLE_FILL_AREA(#1335);
#1334=FILL_AREA_STYLE('Steel - Satin',(#1336));
#1335=FILL_AREA_STYLE('Powder Coat - Rough (Black)',(#1337));
#1336=FILL_AREA_STYLE_COLOUR('Steel - Satin',#1338);
#1337=FILL_AREA_STYLE_COLOUR('Powder Coat - Rough (Black)',#1339);
#1338=COLOUR_RGB('Steel - Satin',0.627450980392157,0.627450980392157,0.627450980392157);
#1339=COLOUR_RGB('Powder Coat - Rough (Black)',0.0980392156862745,0.0980392156862745,
0.0980392156862745);
ENDSEC;
END-ISO-10303-21;
