ISO-10303-21;
HEADER;
/* Generated by software containing ST-Developer
 * from STEP Tools, Inc. (www.steptools.com) 
 */

FILE_DESCRIPTION(
/* description */ (''),
/* implementation_level */ '2;1');

FILE_NAME(
/* name */ 'zpos_2.step',
/* time_stamp */ '2025-08-01T13:33:04+01:00',
/* author */ (''),
/* organization */ (''),
/* preprocessor_version */ 'ST-DEVELOPER v20.1',
/* originating_system */ 'Autodesk Translation Framework v14.10.0.0',
/* authorisation */ '');

FILE_SCHEMA (('AUTOMOTIVE_DESIGN { 1 0 10303 214 3 1 1 }'));
ENDSEC;

DATA;
#10=MECHANICAL_DESIGN_GEOMETRIC_PRESENTATION_REPRESENTATION('',(#13),#1677);
#11=SHAPE_REPRESENTATION_RELATIONSHIP('SRR','None',#1684,#12);
#12=ADVANCED_BREP_SHAPE_REPRESENTATION('',(#14),#1676);
#13=STYLED_ITEM('',(#1694),#14);
#14=MANIFOLD_SOLID_BREP('Body1',#977);
#15=ELLIPSE('',#1054,50.,29.9999985843897);
#16=ELLIPSE('',#1055,50.,29.9999985843897);
#17=ELLIPSE('',#1073,50.,29.9999985843897);
#18=ELLIPSE('',#1074,50.,29.9999985843897);
#19=(
BOUNDED_SURFACE()
B_SPLINE_SURFACE(1,2,((#1589,#1590,#1591),(#1592,#1593,#1594)),
 .UNSPECIFIED.,.F.,.F.,.F.)
B_SPLINE_SURFACE_WITH_KNOTS((2,2),(3,3),(0.,0.1),(0.732187912153808,0.767958671722864),
 .UNSPECIFIED.)
GEOMETRIC_REPRESENTATION_ITEM()
RATIONAL_B_SPLINE_SURFACE(((1.,0.999840060858585,1.),(1.,0.999840060858585,
1.)))
REPRESENTATION_ITEM('')
SURFACE()
);
#20=(
BOUNDED_SURFACE()
B_SPLINE_SURFACE(1,2,((#1636,#1637,#1638),(#1639,#1640,#1641)),
 .UNSPECIFIED.,.F.,.F.,.F.)
B_SPLINE_SURFACE_WITH_KNOTS((2,2),(3,3),(0.,0.1),(-0.767958290014965,-0.732188193526125),
 .UNSPECIFIED.)
GEOMETRIC_REPRESENTATION_ITEM()
RATIONAL_B_SPLINE_SURFACE(((1.,0.999840066787935,1.),(1.,0.999840066787935,
1.)))
REPRESENTATION_ITEM('')
SURFACE()
);
#21=B_SPLINE_CURVE_WITH_KNOTS('',3,(#1533,#1534,#1535,#1536,#1537,#1538,
#1539,#1540),.UNSPECIFIED.,.F.,.F.,(4,2,2,4),(2.92492670387391,3.2233679073321,
3.55545921666964,3.68923059753182),.UNSPECIFIED.);
#22=FACE_BOUND('',#129,.T.);
#23=FACE_BOUND('',#130,.T.);
#24=FACE_BOUND('',#131,.T.);
#25=FACE_BOUND('',#132,.T.);
#26=FACE_BOUND('',#138,.T.);
#27=FACE_BOUND('',#140,.T.);
#28=FACE_BOUND('',#141,.T.);
#29=FACE_BOUND('',#142,.T.);
#30=FACE_BOUND('',#143,.T.);
#31=FACE_BOUND('',#151,.T.);
#32=FACE_BOUND('',#162,.T.);
#33=FACE_BOUND('',#166,.T.);
#34=FACE_BOUND('',#167,.T.);
#35=FACE_BOUND('',#168,.T.);
#36=FACE_BOUND('',#169,.T.);
#37=FACE_BOUND('',#174,.T.);
#38=PLANE('',#994);
#39=PLANE('',#998);
#40=PLANE('',#1013);
#41=PLANE('',#1014);
#42=PLANE('',#1017);
#43=PLANE('',#1020);
#44=PLANE('',#1021);
#45=PLANE('',#1025);
#46=PLANE('',#1030);
#47=PLANE('',#1042);
#48=PLANE('',#1045);
#49=PLANE('',#1046);
#50=PLANE('',#1050);
#51=PLANE('',#1059);
#52=PLANE('',#1062);
#53=PLANE('',#1065);
#54=PLANE('',#1069);
#55=PLANE('',#1078);
#56=PLANE('',#1079);
#57=PLANE('',#1080);
#58=PLANE('',#1081);
#59=PLANE('',#1086);
#60=PLANE('',#1089);
#61=FACE_OUTER_BOUND('',#110,.T.);
#62=FACE_OUTER_BOUND('',#111,.T.);
#63=FACE_OUTER_BOUND('',#112,.T.);
#64=FACE_OUTER_BOUND('',#113,.T.);
#65=FACE_OUTER_BOUND('',#114,.T.);
#66=FACE_OUTER_BOUND('',#115,.T.);
#67=FACE_OUTER_BOUND('',#116,.T.);
#68=FACE_OUTER_BOUND('',#117,.T.);
#69=FACE_OUTER_BOUND('',#118,.T.);
#70=FACE_OUTER_BOUND('',#119,.T.);
#71=FACE_OUTER_BOUND('',#120,.T.);
#72=FACE_OUTER_BOUND('',#121,.T.);
#73=FACE_OUTER_BOUND('',#122,.T.);
#74=FACE_OUTER_BOUND('',#123,.T.);
#75=FACE_OUTER_BOUND('',#124,.T.);
#76=FACE_OUTER_BOUND('',#125,.T.);
#77=FACE_OUTER_BOUND('',#126,.T.);
#78=FACE_OUTER_BOUND('',#127,.T.);
#79=FACE_OUTER_BOUND('',#128,.T.);
#80=FACE_OUTER_BOUND('',#133,.T.);
#81=FACE_OUTER_BOUND('',#134,.T.);
#82=FACE_OUTER_BOUND('',#135,.T.);
#83=FACE_OUTER_BOUND('',#136,.T.);
#84=FACE_OUTER_BOUND('',#137,.T.);
#85=FACE_OUTER_BOUND('',#139,.T.);
#86=FACE_OUTER_BOUND('',#144,.T.);
#87=FACE_OUTER_BOUND('',#145,.T.);
#88=FACE_OUTER_BOUND('',#146,.T.);
#89=FACE_OUTER_BOUND('',#147,.T.);
#90=FACE_OUTER_BOUND('',#148,.T.);
#91=FACE_OUTER_BOUND('',#149,.T.);
#92=FACE_OUTER_BOUND('',#150,.T.);
#93=FACE_OUTER_BOUND('',#152,.T.);
#94=FACE_OUTER_BOUND('',#153,.T.);
#95=FACE_OUTER_BOUND('',#154,.T.);
#96=FACE_OUTER_BOUND('',#155,.T.);
#97=FACE_OUTER_BOUND('',#156,.T.);
#98=FACE_OUTER_BOUND('',#157,.T.);
#99=FACE_OUTER_BOUND('',#158,.T.);
#100=FACE_OUTER_BOUND('',#159,.T.);
#101=FACE_OUTER_BOUND('',#160,.T.);
#102=FACE_OUTER_BOUND('',#161,.T.);
#103=FACE_OUTER_BOUND('',#163,.T.);
#104=FACE_OUTER_BOUND('',#164,.T.);
#105=FACE_OUTER_BOUND('',#165,.T.);
#106=FACE_OUTER_BOUND('',#170,.T.);
#107=FACE_OUTER_BOUND('',#171,.T.);
#108=FACE_OUTER_BOUND('',#172,.T.);
#109=FACE_OUTER_BOUND('',#173,.T.);
#110=EDGE_LOOP('',(#626,#627,#628,#629));
#111=EDGE_LOOP('',(#630,#631,#632,#633,#634,#635,#636,#637,#638,#639,#640,
#641));
#112=EDGE_LOOP('',(#642,#643,#644,#645));
#113=EDGE_LOOP('',(#646,#647,#648,#649));
#114=EDGE_LOOP('',(#650,#651,#652,#653));
#115=EDGE_LOOP('',(#654,#655,#656,#657));
#116=EDGE_LOOP('',(#658,#659,#660,#661));
#117=EDGE_LOOP('',(#662,#663,#664,#665));
#118=EDGE_LOOP('',(#666,#667,#668,#669));
#119=EDGE_LOOP('',(#670,#671,#672,#673));
#120=EDGE_LOOP('',(#674,#675,#676,#677,#678));
#121=EDGE_LOOP('',(#679,#680,#681,#682));
#122=EDGE_LOOP('',(#683,#684,#685,#686,#687));
#123=EDGE_LOOP('',(#688,#689,#690,#691));
#124=EDGE_LOOP('',(#692,#693,#694,#695,#696,#697));
#125=EDGE_LOOP('',(#698,#699,#700,#701));
#126=EDGE_LOOP('',(#702,#703,#704,#705,#706,#707,#708,#709,#710,#711));
#127=EDGE_LOOP('',(#712,#713,#714,#715));
#128=EDGE_LOOP('',(#716,#717,#718,#719,#720,#721,#722,#723,#724,#725,#726,
#727,#728));
#129=EDGE_LOOP('',(#729));
#130=EDGE_LOOP('',(#730));
#131=EDGE_LOOP('',(#731));
#132=EDGE_LOOP('',(#732));
#133=EDGE_LOOP('',(#733,#734,#735,#736,#737));
#134=EDGE_LOOP('',(#738,#739,#740,#741));
#135=EDGE_LOOP('',(#742,#743,#744,#745));
#136=EDGE_LOOP('',(#746,#747,#748,#749,#750));
#137=EDGE_LOOP('',(#751,#752,#753,#754,#755));
#138=EDGE_LOOP('',(#756));
#139=EDGE_LOOP('',(#757,#758,#759,#760,#761));
#140=EDGE_LOOP('',(#762));
#141=EDGE_LOOP('',(#763));
#142=EDGE_LOOP('',(#764));
#143=EDGE_LOOP('',(#765));
#144=EDGE_LOOP('',(#766,#767,#768,#769));
#145=EDGE_LOOP('',(#770,#771,#772,#773));
#146=EDGE_LOOP('',(#774,#775,#776,#777));
#147=EDGE_LOOP('',(#778,#779,#780,#781));
#148=EDGE_LOOP('',(#782,#783,#784,#785));
#149=EDGE_LOOP('',(#786,#787,#788,#789));
#150=EDGE_LOOP('',(#790,#791,#792,#793,#794,#795));
#151=EDGE_LOOP('',(#796));
#152=EDGE_LOOP('',(#797,#798,#799,#800));
#153=EDGE_LOOP('',(#801,#802,#803,#804,#805));
#154=EDGE_LOOP('',(#806,#807,#808,#809));
#155=EDGE_LOOP('',(#810,#811,#812,#813));
#156=EDGE_LOOP('',(#814,#815,#816,#817));
#157=EDGE_LOOP('',(#818,#819,#820,#821));
#158=EDGE_LOOP('',(#822,#823,#824,#825));
#159=EDGE_LOOP('',(#826,#827,#828,#829));
#160=EDGE_LOOP('',(#830,#831,#832,#833));
#161=EDGE_LOOP('',(#834,#835,#836,#837,#838,#839));
#162=EDGE_LOOP('',(#840));
#163=EDGE_LOOP('',(#841,#842,#843,#844,#845,#846));
#164=EDGE_LOOP('',(#847,#848,#849,#850));
#165=EDGE_LOOP('',(#851,#852,#853,#854,#855,#856,#857,#858,#859,#860,#861,
#862,#863,#864,#865,#866,#867,#868,#869,#870,#871,#872,#873,#874,#875,#876,
#877,#878,#879,#880));
#166=EDGE_LOOP('',(#881));
#167=EDGE_LOOP('',(#882));
#168=EDGE_LOOP('',(#883));
#169=EDGE_LOOP('',(#884));
#170=EDGE_LOOP('',(#885,#886,#887,#888));
#171=EDGE_LOOP('',(#889,#890,#891,#892,#893,#894));
#172=EDGE_LOOP('',(#895,#896,#897,#898));
#173=EDGE_LOOP('',(#899,#900,#901,#902));
#174=EDGE_LOOP('',(#903));
#175=LINE('',#1382,#261);
#176=LINE('',#1385,#262);
#177=LINE('',#1388,#263);
#178=LINE('',#1392,#264);
#179=LINE('',#1394,#265);
#180=LINE('',#1398,#266);
#181=LINE('',#1400,#267);
#182=LINE('',#1402,#268);
#183=LINE('',#1406,#269);
#184=LINE('',#1407,#270);
#185=LINE('',#1410,#271);
#186=LINE('',#1411,#272);
#187=LINE('',#1415,#273);
#188=LINE('',#1420,#274);
#189=LINE('',#1426,#275);
#190=LINE('',#1432,#276);
#191=LINE('',#1438,#277);
#192=LINE('',#1442,#278);
#193=LINE('',#1444,#279);
#194=LINE('',#1445,#280);
#195=LINE('',#1448,#281);
#196=LINE('',#1450,#282);
#197=LINE('',#1451,#283);
#198=LINE('',#1454,#284);
#199=LINE('',#1458,#285);
#200=LINE('',#1459,#286);
#201=LINE('',#1462,#287);
#202=LINE('',#1463,#288);
#203=LINE('',#1466,#289);
#204=LINE('',#1468,#290);
#205=LINE('',#1471,#291);
#206=LINE('',#1474,#292);
#207=LINE('',#1475,#293);
#208=LINE('',#1478,#294);
#209=LINE('',#1479,#295);
#210=LINE('',#1485,#296);
#211=LINE('',#1488,#297);
#212=LINE('',#1493,#298);
#213=LINE('',#1494,#299);
#214=LINE('',#1496,#300);
#215=LINE('',#1498,#301);
#216=LINE('',#1499,#302);
#217=LINE('',#1505,#303);
#218=LINE('',#1508,#304);
#219=LINE('',#1511,#305);
#220=LINE('',#1513,#306);
#221=LINE('',#1514,#307);
#222=LINE('',#1516,#308);
#223=LINE('',#1518,#309);
#224=LINE('',#1520,#310);
#225=LINE('',#1522,#311);
#226=LINE('',#1524,#312);
#227=LINE('',#1531,#313);
#228=LINE('',#1545,#314);
#229=LINE('',#1550,#315);
#230=LINE('',#1554,#316);
#231=LINE('',#1557,#317);
#232=LINE('',#1559,#318);
#233=LINE('',#1565,#319);
#234=LINE('',#1567,#320);
#235=LINE('',#1568,#321);
#236=LINE('',#1570,#322);
#237=LINE('',#1575,#323);
#238=LINE('',#1579,#324);
#239=LINE('',#1581,#325);
#240=LINE('',#1582,#326);
#241=LINE('',#1587,#327);
#242=LINE('',#1599,#328);
#243=LINE('',#1606,#329);
#244=LINE('',#1610,#330);
#245=LINE('',#1611,#331);
#246=LINE('',#1614,#332);
#247=LINE('',#1617,#333);
#248=LINE('',#1622,#334);
#249=LINE('',#1626,#335);
#250=LINE('',#1628,#336);
#251=LINE('',#1629,#337);
#252=LINE('',#1635,#338);
#253=LINE('',#1646,#339);
#254=LINE('',#1653,#340);
#255=LINE('',#1654,#341);
#256=LINE('',#1656,#342);
#257=LINE('',#1659,#343);
#258=LINE('',#1666,#344);
#259=LINE('',#1669,#345);
#260=LINE('',#1670,#346);
#261=VECTOR('',#1096,10.);
#262=VECTOR('',#1099,10.);
#263=VECTOR('',#1102,10.);
#264=VECTOR('',#1105,10.);
#265=VECTOR('',#1106,10.);
#266=VECTOR('',#1109,10.);
#267=VECTOR('',#1110,10.);
#268=VECTOR('',#1111,10.);
#269=VECTOR('',#1114,10.);
#270=VECTOR('',#1115,10.);
#271=VECTOR('',#1118,10.);
#272=VECTOR('',#1119,10.);
#273=VECTOR('',#1124,10.);
#274=VECTOR('',#1129,1.05);
#275=VECTOR('',#1136,1.05);
#276=VECTOR('',#1143,1.05);
#277=VECTOR('',#1150,1.05);
#278=VECTOR('',#1155,10.);
#279=VECTOR('',#1156,10.);
#280=VECTOR('',#1157,10.);
#281=VECTOR('',#1160,10.);
#282=VECTOR('',#1161,10.);
#283=VECTOR('',#1162,10.);
#284=VECTOR('',#1165,10.);
#285=VECTOR('',#1168,10.);
#286=VECTOR('',#1169,10.);
#287=VECTOR('',#1172,10.);
#288=VECTOR('',#1173,10.);
#289=VECTOR('',#1176,10.);
#290=VECTOR('',#1177,10.);
#291=VECTOR('',#1180,10.);
#292=VECTOR('',#1183,10.);
#293=VECTOR('',#1184,10.);
#294=VECTOR('',#1187,10.);
#295=VECTOR('',#1188,10.);
#296=VECTOR('',#1193,24.);
#297=VECTOR('',#1196,24.);
#298=VECTOR('',#1201,24.);
#299=VECTOR('',#1202,10.);
#300=VECTOR('',#1203,10.);
#301=VECTOR('',#1204,10.);
#302=VECTOR('',#1205,10.);
#303=VECTOR('',#1210,24.);
#304=VECTOR('',#1213,24.);
#305=VECTOR('',#1216,10.);
#306=VECTOR('',#1217,10.);
#307=VECTOR('',#1218,10.);
#308=VECTOR('',#1219,10.);
#309=VECTOR('',#1220,24.);
#310=VECTOR('',#1221,10.);
#311=VECTOR('',#1222,10.);
#312=VECTOR('',#1223,10.);
#313=VECTOR('',#1230,24.);
#314=VECTOR('',#1237,24.);
#315=VECTOR('',#1244,10.);
#316=VECTOR('',#1249,10.);
#317=VECTOR('',#1252,10.);
#318=VECTOR('',#1253,10.);
#319=VECTOR('',#1260,10.);
#320=VECTOR('',#1261,10.);
#321=VECTOR('',#1262,10.);
#322=VECTOR('',#1265,10.);
#323=VECTOR('',#1270,1.05);
#324=VECTOR('',#1275,10.);
#325=VECTOR('',#1276,10.);
#326=VECTOR('',#1277,10.);
#327=VECTOR('',#1282,10.);
#328=VECTOR('',#1289,10.);
#329=VECTOR('',#1300,1.05);
#330=VECTOR('',#1305,10.);
#331=VECTOR('',#1306,10.);
#332=VECTOR('',#1309,10.);
#333=VECTOR('',#1314,10.);
#334=VECTOR('',#1319,1.05);
#335=VECTOR('',#1324,10.);
#336=VECTOR('',#1325,10.);
#337=VECTOR('',#1326,10.);
#338=VECTOR('',#1333,10.);
#339=VECTOR('',#1338,10.);
#340=VECTOR('',#1349,10.);
#341=VECTOR('',#1350,10.);
#342=VECTOR('',#1353,10.);
#343=VECTOR('',#1356,10.);
#344=VECTOR('',#1365,1.05);
#345=VECTOR('',#1368,10.);
#346=VECTOR('',#1369,10.);
#347=CIRCLE('',#992,5.);
#348=CIRCLE('',#993,5.);
#349=CIRCLE('',#995,5.);
#350=CIRCLE('',#996,2.);
#351=CIRCLE('',#997,2.);
#352=CIRCLE('',#1000,5.);
#353=CIRCLE('',#1002,1.05);
#354=CIRCLE('',#1003,1.05);
#355=CIRCLE('',#1005,1.05);
#356=CIRCLE('',#1006,1.05);
#357=CIRCLE('',#1008,1.05);
#358=CIRCLE('',#1009,1.05);
#359=CIRCLE('',#1011,1.05);
#360=CIRCLE('',#1012,1.05);
#361=CIRCLE('',#1016,2.);
#362=CIRCLE('',#1019,2.);
#363=CIRCLE('',#1023,24.);
#364=CIRCLE('',#1024,24.);
#365=CIRCLE('',#1026,24.);
#366=CIRCLE('',#1028,24.);
#367=CIRCLE('',#1029,24.);
#368=CIRCLE('',#1031,24.);
#369=CIRCLE('',#1033,24.);
#370=CIRCLE('',#1034,24.);
#371=CIRCLE('',#1036,24.);
#372=CIRCLE('',#1037,24.);
#373=CIRCLE('',#1039,24.);
#374=CIRCLE('',#1041,24.);
#375=CIRCLE('',#1043,3.00000004470348);
#376=CIRCLE('',#1044,1.05);
#377=CIRCLE('',#1048,1.05);
#378=CIRCLE('',#1049,1.05);
#379=CIRCLE('',#1052,3.00000004470348);
#380=CIRCLE('',#1053,3.00000004470348);
#381=CIRCLE('',#1057,3.00000004470348);
#382=CIRCLE('',#1058,3.00000004470348);
#383=CIRCLE('',#1061,1.05);
#384=CIRCLE('',#1064,3.00000004470348);
#385=CIRCLE('',#1067,1.05);
#386=CIRCLE('',#1068,1.05);
#387=CIRCLE('',#1071,3.00000004470348);
#388=CIRCLE('',#1072,3.00000004470348);
#389=CIRCLE('',#1076,3.00000004470348);
#390=CIRCLE('',#1077,3.00000004470348);
#391=CIRCLE('',#1082,3.00000004470348);
#392=CIRCLE('',#1083,1.05);
#393=CIRCLE('',#1085,1.05);
#394=CIRCLE('',#1088,3.00000004470348);
#395=VERTEX_POINT('',#1378);
#396=VERTEX_POINT('',#1379);
#397=VERTEX_POINT('',#1381);
#398=VERTEX_POINT('',#1383);
#399=VERTEX_POINT('',#1387);
#400=VERTEX_POINT('',#1389);
#401=VERTEX_POINT('',#1391);
#402=VERTEX_POINT('',#1393);
#403=VERTEX_POINT('',#1395);
#404=VERTEX_POINT('',#1397);
#405=VERTEX_POINT('',#1399);
#406=VERTEX_POINT('',#1401);
#407=VERTEX_POINT('',#1403);
#408=VERTEX_POINT('',#1405);
#409=VERTEX_POINT('',#1409);
#410=VERTEX_POINT('',#1413);
#411=VERTEX_POINT('',#1417);
#412=VERTEX_POINT('',#1419);
#413=VERTEX_POINT('',#1423);
#414=VERTEX_POINT('',#1425);
#415=VERTEX_POINT('',#1429);
#416=VERTEX_POINT('',#1431);
#417=VERTEX_POINT('',#1435);
#418=VERTEX_POINT('',#1437);
#419=VERTEX_POINT('',#1441);
#420=VERTEX_POINT('',#1443);
#421=VERTEX_POINT('',#1447);
#422=VERTEX_POINT('',#1449);
#423=VERTEX_POINT('',#1453);
#424=VERTEX_POINT('',#1455);
#425=VERTEX_POINT('',#1457);
#426=VERTEX_POINT('',#1461);
#427=VERTEX_POINT('',#1465);
#428=VERTEX_POINT('',#1467);
#429=VERTEX_POINT('',#1469);
#430=VERTEX_POINT('',#1473);
#431=VERTEX_POINT('',#1477);
#432=VERTEX_POINT('',#1481);
#433=VERTEX_POINT('',#1482);
#434=VERTEX_POINT('',#1484);
#435=VERTEX_POINT('',#1486);
#436=VERTEX_POINT('',#1490);
#437=VERTEX_POINT('',#1492);
#438=VERTEX_POINT('',#1495);
#439=VERTEX_POINT('',#1497);
#440=VERTEX_POINT('',#1501);
#441=VERTEX_POINT('',#1502);
#442=VERTEX_POINT('',#1504);
#443=VERTEX_POINT('',#1506);
#444=VERTEX_POINT('',#1510);
#445=VERTEX_POINT('',#1512);
#446=VERTEX_POINT('',#1515);
#447=VERTEX_POINT('',#1517);
#448=VERTEX_POINT('',#1519);
#449=VERTEX_POINT('',#1521);
#450=VERTEX_POINT('',#1523);
#451=VERTEX_POINT('',#1527);
#452=VERTEX_POINT('',#1528);
#453=VERTEX_POINT('',#1530);
#454=VERTEX_POINT('',#1542);
#455=VERTEX_POINT('',#1544);
#456=VERTEX_POINT('',#1548);
#457=VERTEX_POINT('',#1552);
#458=VERTEX_POINT('',#1556);
#459=VERTEX_POINT('',#1558);
#460=VERTEX_POINT('',#1561);
#461=VERTEX_POINT('',#1564);
#462=VERTEX_POINT('',#1566);
#463=VERTEX_POINT('',#1572);
#464=VERTEX_POINT('',#1574);
#465=VERTEX_POINT('',#1578);
#466=VERTEX_POINT('',#1580);
#467=VERTEX_POINT('',#1584);
#468=VERTEX_POINT('',#1586);
#469=VERTEX_POINT('',#1595);
#470=VERTEX_POINT('',#1597);
#471=VERTEX_POINT('',#1605);
#472=VERTEX_POINT('',#1609);
#473=VERTEX_POINT('',#1613);
#474=VERTEX_POINT('',#1619);
#475=VERTEX_POINT('',#1621);
#476=VERTEX_POINT('',#1625);
#477=VERTEX_POINT('',#1627);
#478=VERTEX_POINT('',#1631);
#479=VERTEX_POINT('',#1633);
#480=VERTEX_POINT('',#1642);
#481=VERTEX_POINT('',#1644);
#482=VERTEX_POINT('',#1652);
#483=VERTEX_POINT('',#1658);
#484=VERTEX_POINT('',#1661);
#485=VERTEX_POINT('',#1664);
#486=VERTEX_POINT('',#1668);
#487=EDGE_CURVE('',#395,#396,#347,.T.);
#488=EDGE_CURVE('',#396,#397,#175,.T.);
#489=EDGE_CURVE('',#397,#398,#348,.T.);
#490=EDGE_CURVE('',#398,#395,#176,.T.);
#491=EDGE_CURVE('',#395,#399,#177,.T.);
#492=EDGE_CURVE('',#400,#399,#349,.T.);
#493=EDGE_CURVE('',#400,#401,#178,.T.);
#494=EDGE_CURVE('',#401,#402,#179,.T.);
#495=EDGE_CURVE('',#403,#402,#350,.T.);
#496=EDGE_CURVE('',#403,#404,#180,.T.);
#497=EDGE_CURVE('',#404,#405,#181,.T.);
#498=EDGE_CURVE('',#405,#406,#182,.T.);
#499=EDGE_CURVE('',#407,#406,#351,.T.);
#500=EDGE_CURVE('',#407,#408,#183,.T.);
#501=EDGE_CURVE('',#408,#396,#184,.T.);
#502=EDGE_CURVE('',#409,#398,#185,.T.);
#503=EDGE_CURVE('',#399,#409,#186,.T.);
#504=EDGE_CURVE('',#409,#410,#352,.T.);
#505=EDGE_CURVE('',#410,#400,#187,.T.);
#506=EDGE_CURVE('',#411,#411,#353,.T.);
#507=EDGE_CURVE('',#411,#412,#188,.T.);
#508=EDGE_CURVE('',#412,#412,#354,.T.);
#509=EDGE_CURVE('',#413,#413,#355,.T.);
#510=EDGE_CURVE('',#413,#414,#189,.T.);
#511=EDGE_CURVE('',#414,#414,#356,.T.);
#512=EDGE_CURVE('',#415,#415,#357,.T.);
#513=EDGE_CURVE('',#415,#416,#190,.T.);
#514=EDGE_CURVE('',#416,#416,#358,.T.);
#515=EDGE_CURVE('',#417,#417,#359,.T.);
#516=EDGE_CURVE('',#417,#418,#191,.T.);
#517=EDGE_CURVE('',#418,#418,#360,.T.);
#518=EDGE_CURVE('',#419,#404,#192,.T.);
#519=EDGE_CURVE('',#420,#419,#193,.T.);
#520=EDGE_CURVE('',#405,#420,#194,.T.);
#521=EDGE_CURVE('',#421,#419,#195,.T.);
#522=EDGE_CURVE('',#422,#421,#196,.T.);
#523=EDGE_CURVE('',#420,#422,#197,.T.);
#524=EDGE_CURVE('',#406,#423,#198,.T.);
#525=EDGE_CURVE('',#423,#424,#361,.T.);
#526=EDGE_CURVE('',#424,#425,#199,.T.);
#527=EDGE_CURVE('',#425,#407,#200,.T.);
#528=EDGE_CURVE('',#426,#425,#201,.T.);
#529=EDGE_CURVE('',#426,#408,#202,.T.);
#530=EDGE_CURVE('',#402,#427,#203,.T.);
#531=EDGE_CURVE('',#427,#428,#204,.T.);
#532=EDGE_CURVE('',#428,#429,#362,.T.);
#533=EDGE_CURVE('',#429,#403,#205,.T.);
#534=EDGE_CURVE('',#430,#401,#206,.T.);
#535=EDGE_CURVE('',#427,#430,#207,.T.);
#536=EDGE_CURVE('',#429,#431,#208,.T.);
#537=EDGE_CURVE('',#431,#421,#209,.T.);
#538=EDGE_CURVE('',#432,#433,#363,.F.);
#539=EDGE_CURVE('',#432,#434,#210,.T.);
#540=EDGE_CURVE('',#435,#434,#364,.F.);
#541=EDGE_CURVE('',#435,#433,#211,.T.);
#542=EDGE_CURVE('',#436,#426,#365,.T.);
#543=EDGE_CURVE('',#437,#436,#212,.T.);
#544=EDGE_CURVE('',#433,#437,#213,.T.);
#545=EDGE_CURVE('',#435,#438,#214,.T.);
#546=EDGE_CURVE('',#438,#439,#215,.T.);
#547=EDGE_CURVE('',#397,#439,#216,.T.);
#548=EDGE_CURVE('',#440,#441,#366,.T.);
#549=EDGE_CURVE('',#441,#442,#217,.T.);
#550=EDGE_CURVE('',#442,#443,#367,.T.);
#551=EDGE_CURVE('',#443,#440,#218,.T.);
#552=EDGE_CURVE('',#444,#410,#219,.T.);
#553=EDGE_CURVE('',#444,#445,#220,.T.);
#554=EDGE_CURVE('',#445,#440,#221,.T.);
#555=EDGE_CURVE('',#446,#443,#222,.T.);
#556=EDGE_CURVE('',#447,#446,#223,.T.);
#557=EDGE_CURVE('',#447,#448,#224,.T.);
#558=EDGE_CURVE('',#448,#449,#225,.T.);
#559=EDGE_CURVE('',#450,#449,#226,.T.);
#560=EDGE_CURVE('',#430,#450,#368,.T.);
#561=EDGE_CURVE('',#451,#452,#369,.T.);
#562=EDGE_CURVE('',#452,#453,#227,.T.);
#563=EDGE_CURVE('',#437,#453,#370,.F.);
#564=EDGE_CURVE('',#436,#451,#21,.T.);
#565=EDGE_CURVE('',#454,#446,#371,.F.);
#566=EDGE_CURVE('',#454,#455,#228,.T.);
#567=EDGE_CURVE('',#447,#455,#372,.F.);
#568=EDGE_CURVE('',#456,#427,#373,.T.);
#569=EDGE_CURVE('',#450,#456,#229,.T.);
#570=EDGE_CURVE('',#425,#457,#374,.T.);
#571=EDGE_CURVE('',#457,#451,#230,.T.);
#572=EDGE_CURVE('',#457,#458,#231,.T.);
#573=EDGE_CURVE('',#458,#459,#232,.T.);
#574=EDGE_CURVE('',#459,#452,#375,.T.);
#575=EDGE_CURVE('',#460,#460,#376,.T.);
#576=EDGE_CURVE('',#428,#461,#233,.T.);
#577=EDGE_CURVE('',#462,#456,#234,.T.);
#578=EDGE_CURVE('',#461,#462,#235,.T.);
#579=EDGE_CURVE('',#449,#462,#236,.T.);
#580=EDGE_CURVE('',#463,#463,#377,.T.);
#581=EDGE_CURVE('',#463,#464,#237,.T.);
#582=EDGE_CURVE('',#464,#464,#378,.T.);
#583=EDGE_CURVE('',#465,#444,#238,.T.);
#584=EDGE_CURVE('',#465,#466,#239,.T.);
#585=EDGE_CURVE('',#445,#466,#240,.T.);
#586=EDGE_CURVE('',#467,#441,#379,.T.);
#587=EDGE_CURVE('',#468,#467,#241,.T.);
#588=EDGE_CURVE('',#468,#442,#380,.T.);
#589=EDGE_CURVE('',#469,#468,#15,.T.);
#590=EDGE_CURVE('',#470,#467,#16,.T.);
#591=EDGE_CURVE('',#469,#470,#242,.T.);
#592=EDGE_CURVE('',#465,#469,#381,.T.);
#593=EDGE_CURVE('',#466,#470,#382,.T.);
#594=EDGE_CURVE('',#460,#471,#243,.T.);
#595=EDGE_CURVE('',#471,#471,#383,.T.);
#596=EDGE_CURVE('',#472,#424,#244,.T.);
#597=EDGE_CURVE('',#472,#458,#245,.T.);
#598=EDGE_CURVE('',#473,#459,#246,.T.);
#599=EDGE_CURVE('',#473,#453,#384,.T.);
#600=EDGE_CURVE('',#473,#472,#247,.T.);
#601=EDGE_CURVE('',#474,#474,#385,.T.);
#602=EDGE_CURVE('',#474,#475,#248,.T.);
#603=EDGE_CURVE('',#475,#475,#386,.T.);
#604=EDGE_CURVE('',#476,#439,#249,.T.);
#605=EDGE_CURVE('',#477,#438,#250,.T.);
#606=EDGE_CURVE('',#476,#477,#251,.T.);
#607=EDGE_CURVE('',#478,#476,#387,.T.);
#608=EDGE_CURVE('',#479,#477,#388,.T.);
#609=EDGE_CURVE('',#478,#479,#252,.T.);
#610=EDGE_CURVE('',#480,#478,#17,.T.);
#611=EDGE_CURVE('',#481,#479,#18,.T.);
#612=EDGE_CURVE('',#480,#481,#253,.T.);
#613=EDGE_CURVE('',#432,#480,#389,.T.);
#614=EDGE_CURVE('',#434,#481,#390,.T.);
#615=EDGE_CURVE('',#482,#422,#254,.T.);
#616=EDGE_CURVE('',#482,#423,#255,.T.);
#617=EDGE_CURVE('',#431,#482,#256,.T.);
#618=EDGE_CURVE('',#483,#461,#257,.T.);
#619=EDGE_CURVE('',#454,#483,#391,.T.);
#620=EDGE_CURVE('',#484,#484,#392,.T.);
#621=EDGE_CURVE('',#485,#485,#393,.T.);
#622=EDGE_CURVE('',#485,#484,#258,.T.);
#623=EDGE_CURVE('',#486,#448,#259,.T.);
#624=EDGE_CURVE('',#483,#486,#260,.T.);
#625=EDGE_CURVE('',#455,#486,#394,.T.);
#626=ORIENTED_EDGE('',*,*,#487,.T.);
#627=ORIENTED_EDGE('',*,*,#488,.T.);
#628=ORIENTED_EDGE('',*,*,#489,.T.);
#629=ORIENTED_EDGE('',*,*,#490,.T.);
#630=ORIENTED_EDGE('',*,*,#487,.F.);
#631=ORIENTED_EDGE('',*,*,#491,.T.);
#632=ORIENTED_EDGE('',*,*,#492,.F.);
#633=ORIENTED_EDGE('',*,*,#493,.T.);
#634=ORIENTED_EDGE('',*,*,#494,.T.);
#635=ORIENTED_EDGE('',*,*,#495,.F.);
#636=ORIENTED_EDGE('',*,*,#496,.T.);
#637=ORIENTED_EDGE('',*,*,#497,.T.);
#638=ORIENTED_EDGE('',*,*,#498,.T.);
#639=ORIENTED_EDGE('',*,*,#499,.F.);
#640=ORIENTED_EDGE('',*,*,#500,.T.);
#641=ORIENTED_EDGE('',*,*,#501,.T.);
#642=ORIENTED_EDGE('',*,*,#490,.F.);
#643=ORIENTED_EDGE('',*,*,#502,.F.);
#644=ORIENTED_EDGE('',*,*,#503,.F.);
#645=ORIENTED_EDGE('',*,*,#491,.F.);
#646=ORIENTED_EDGE('',*,*,#492,.T.);
#647=ORIENTED_EDGE('',*,*,#503,.T.);
#648=ORIENTED_EDGE('',*,*,#504,.T.);
#649=ORIENTED_EDGE('',*,*,#505,.T.);
#650=ORIENTED_EDGE('',*,*,#506,.F.);
#651=ORIENTED_EDGE('',*,*,#507,.T.);
#652=ORIENTED_EDGE('',*,*,#508,.F.);
#653=ORIENTED_EDGE('',*,*,#507,.F.);
#654=ORIENTED_EDGE('',*,*,#509,.F.);
#655=ORIENTED_EDGE('',*,*,#510,.T.);
#656=ORIENTED_EDGE('',*,*,#511,.F.);
#657=ORIENTED_EDGE('',*,*,#510,.F.);
#658=ORIENTED_EDGE('',*,*,#512,.F.);
#659=ORIENTED_EDGE('',*,*,#513,.T.);
#660=ORIENTED_EDGE('',*,*,#514,.F.);
#661=ORIENTED_EDGE('',*,*,#513,.F.);
#662=ORIENTED_EDGE('',*,*,#515,.F.);
#663=ORIENTED_EDGE('',*,*,#516,.T.);
#664=ORIENTED_EDGE('',*,*,#517,.F.);
#665=ORIENTED_EDGE('',*,*,#516,.F.);
#666=ORIENTED_EDGE('',*,*,#497,.F.);
#667=ORIENTED_EDGE('',*,*,#518,.F.);
#668=ORIENTED_EDGE('',*,*,#519,.F.);
#669=ORIENTED_EDGE('',*,*,#520,.F.);
#670=ORIENTED_EDGE('',*,*,#521,.F.);
#671=ORIENTED_EDGE('',*,*,#522,.F.);
#672=ORIENTED_EDGE('',*,*,#523,.F.);
#673=ORIENTED_EDGE('',*,*,#519,.T.);
#674=ORIENTED_EDGE('',*,*,#499,.T.);
#675=ORIENTED_EDGE('',*,*,#524,.T.);
#676=ORIENTED_EDGE('',*,*,#525,.T.);
#677=ORIENTED_EDGE('',*,*,#526,.T.);
#678=ORIENTED_EDGE('',*,*,#527,.T.);
#679=ORIENTED_EDGE('',*,*,#527,.F.);
#680=ORIENTED_EDGE('',*,*,#528,.F.);
#681=ORIENTED_EDGE('',*,*,#529,.T.);
#682=ORIENTED_EDGE('',*,*,#500,.F.);
#683=ORIENTED_EDGE('',*,*,#495,.T.);
#684=ORIENTED_EDGE('',*,*,#530,.T.);
#685=ORIENTED_EDGE('',*,*,#531,.T.);
#686=ORIENTED_EDGE('',*,*,#532,.T.);
#687=ORIENTED_EDGE('',*,*,#533,.T.);
#688=ORIENTED_EDGE('',*,*,#530,.F.);
#689=ORIENTED_EDGE('',*,*,#494,.F.);
#690=ORIENTED_EDGE('',*,*,#534,.F.);
#691=ORIENTED_EDGE('',*,*,#535,.F.);
#692=ORIENTED_EDGE('',*,*,#518,.T.);
#693=ORIENTED_EDGE('',*,*,#496,.F.);
#694=ORIENTED_EDGE('',*,*,#533,.F.);
#695=ORIENTED_EDGE('',*,*,#536,.T.);
#696=ORIENTED_EDGE('',*,*,#537,.T.);
#697=ORIENTED_EDGE('',*,*,#521,.T.);
#698=ORIENTED_EDGE('',*,*,#538,.F.);
#699=ORIENTED_EDGE('',*,*,#539,.T.);
#700=ORIENTED_EDGE('',*,*,#540,.F.);
#701=ORIENTED_EDGE('',*,*,#541,.T.);
#702=ORIENTED_EDGE('',*,*,#488,.F.);
#703=ORIENTED_EDGE('',*,*,#501,.F.);
#704=ORIENTED_EDGE('',*,*,#529,.F.);
#705=ORIENTED_EDGE('',*,*,#542,.F.);
#706=ORIENTED_EDGE('',*,*,#543,.F.);
#707=ORIENTED_EDGE('',*,*,#544,.F.);
#708=ORIENTED_EDGE('',*,*,#541,.F.);
#709=ORIENTED_EDGE('',*,*,#545,.T.);
#710=ORIENTED_EDGE('',*,*,#546,.T.);
#711=ORIENTED_EDGE('',*,*,#547,.F.);
#712=ORIENTED_EDGE('',*,*,#548,.T.);
#713=ORIENTED_EDGE('',*,*,#549,.T.);
#714=ORIENTED_EDGE('',*,*,#550,.T.);
#715=ORIENTED_EDGE('',*,*,#551,.T.);
#716=ORIENTED_EDGE('',*,*,#505,.F.);
#717=ORIENTED_EDGE('',*,*,#552,.F.);
#718=ORIENTED_EDGE('',*,*,#553,.T.);
#719=ORIENTED_EDGE('',*,*,#554,.T.);
#720=ORIENTED_EDGE('',*,*,#551,.F.);
#721=ORIENTED_EDGE('',*,*,#555,.F.);
#722=ORIENTED_EDGE('',*,*,#556,.F.);
#723=ORIENTED_EDGE('',*,*,#557,.T.);
#724=ORIENTED_EDGE('',*,*,#558,.T.);
#725=ORIENTED_EDGE('',*,*,#559,.F.);
#726=ORIENTED_EDGE('',*,*,#560,.F.);
#727=ORIENTED_EDGE('',*,*,#534,.T.);
#728=ORIENTED_EDGE('',*,*,#493,.F.);
#729=ORIENTED_EDGE('',*,*,#506,.T.);
#730=ORIENTED_EDGE('',*,*,#509,.T.);
#731=ORIENTED_EDGE('',*,*,#512,.T.);
#732=ORIENTED_EDGE('',*,*,#515,.T.);
#733=ORIENTED_EDGE('',*,*,#561,.T.);
#734=ORIENTED_EDGE('',*,*,#562,.T.);
#735=ORIENTED_EDGE('',*,*,#563,.F.);
#736=ORIENTED_EDGE('',*,*,#543,.T.);
#737=ORIENTED_EDGE('',*,*,#564,.T.);
#738=ORIENTED_EDGE('',*,*,#565,.F.);
#739=ORIENTED_EDGE('',*,*,#566,.T.);
#740=ORIENTED_EDGE('',*,*,#567,.F.);
#741=ORIENTED_EDGE('',*,*,#556,.T.);
#742=ORIENTED_EDGE('',*,*,#568,.T.);
#743=ORIENTED_EDGE('',*,*,#535,.T.);
#744=ORIENTED_EDGE('',*,*,#560,.T.);
#745=ORIENTED_EDGE('',*,*,#569,.T.);
#746=ORIENTED_EDGE('',*,*,#570,.T.);
#747=ORIENTED_EDGE('',*,*,#571,.T.);
#748=ORIENTED_EDGE('',*,*,#564,.F.);
#749=ORIENTED_EDGE('',*,*,#542,.T.);
#750=ORIENTED_EDGE('',*,*,#528,.T.);
#751=ORIENTED_EDGE('',*,*,#571,.F.);
#752=ORIENTED_EDGE('',*,*,#572,.T.);
#753=ORIENTED_EDGE('',*,*,#573,.T.);
#754=ORIENTED_EDGE('',*,*,#574,.T.);
#755=ORIENTED_EDGE('',*,*,#561,.F.);
#756=ORIENTED_EDGE('',*,*,#575,.T.);
#757=ORIENTED_EDGE('',*,*,#576,.F.);
#758=ORIENTED_EDGE('',*,*,#531,.F.);
#759=ORIENTED_EDGE('',*,*,#568,.F.);
#760=ORIENTED_EDGE('',*,*,#577,.F.);
#761=ORIENTED_EDGE('',*,*,#578,.F.);
#762=ORIENTED_EDGE('',*,*,#508,.T.);
#763=ORIENTED_EDGE('',*,*,#511,.T.);
#764=ORIENTED_EDGE('',*,*,#514,.T.);
#765=ORIENTED_EDGE('',*,*,#517,.T.);
#766=ORIENTED_EDGE('',*,*,#569,.F.);
#767=ORIENTED_EDGE('',*,*,#559,.T.);
#768=ORIENTED_EDGE('',*,*,#579,.T.);
#769=ORIENTED_EDGE('',*,*,#577,.T.);
#770=ORIENTED_EDGE('',*,*,#580,.F.);
#771=ORIENTED_EDGE('',*,*,#581,.T.);
#772=ORIENTED_EDGE('',*,*,#582,.T.);
#773=ORIENTED_EDGE('',*,*,#581,.F.);
#774=ORIENTED_EDGE('',*,*,#583,.F.);
#775=ORIENTED_EDGE('',*,*,#584,.T.);
#776=ORIENTED_EDGE('',*,*,#585,.F.);
#777=ORIENTED_EDGE('',*,*,#553,.F.);
#778=ORIENTED_EDGE('',*,*,#549,.F.);
#779=ORIENTED_EDGE('',*,*,#586,.F.);
#780=ORIENTED_EDGE('',*,*,#587,.F.);
#781=ORIENTED_EDGE('',*,*,#588,.T.);
#782=ORIENTED_EDGE('',*,*,#589,.T.);
#783=ORIENTED_EDGE('',*,*,#587,.T.);
#784=ORIENTED_EDGE('',*,*,#590,.F.);
#785=ORIENTED_EDGE('',*,*,#591,.F.);
#786=ORIENTED_EDGE('',*,*,#592,.T.);
#787=ORIENTED_EDGE('',*,*,#591,.T.);
#788=ORIENTED_EDGE('',*,*,#593,.F.);
#789=ORIENTED_EDGE('',*,*,#584,.F.);
#790=ORIENTED_EDGE('',*,*,#593,.T.);
#791=ORIENTED_EDGE('',*,*,#590,.T.);
#792=ORIENTED_EDGE('',*,*,#586,.T.);
#793=ORIENTED_EDGE('',*,*,#548,.F.);
#794=ORIENTED_EDGE('',*,*,#554,.F.);
#795=ORIENTED_EDGE('',*,*,#585,.T.);
#796=ORIENTED_EDGE('',*,*,#580,.T.);
#797=ORIENTED_EDGE('',*,*,#575,.F.);
#798=ORIENTED_EDGE('',*,*,#594,.T.);
#799=ORIENTED_EDGE('',*,*,#595,.T.);
#800=ORIENTED_EDGE('',*,*,#594,.F.);
#801=ORIENTED_EDGE('',*,*,#596,.F.);
#802=ORIENTED_EDGE('',*,*,#597,.T.);
#803=ORIENTED_EDGE('',*,*,#572,.F.);
#804=ORIENTED_EDGE('',*,*,#570,.F.);
#805=ORIENTED_EDGE('',*,*,#526,.F.);
#806=ORIENTED_EDGE('',*,*,#562,.F.);
#807=ORIENTED_EDGE('',*,*,#574,.F.);
#808=ORIENTED_EDGE('',*,*,#598,.F.);
#809=ORIENTED_EDGE('',*,*,#599,.T.);
#810=ORIENTED_EDGE('',*,*,#600,.F.);
#811=ORIENTED_EDGE('',*,*,#598,.T.);
#812=ORIENTED_EDGE('',*,*,#573,.F.);
#813=ORIENTED_EDGE('',*,*,#597,.F.);
#814=ORIENTED_EDGE('',*,*,#601,.F.);
#815=ORIENTED_EDGE('',*,*,#602,.T.);
#816=ORIENTED_EDGE('',*,*,#603,.T.);
#817=ORIENTED_EDGE('',*,*,#602,.F.);
#818=ORIENTED_EDGE('',*,*,#604,.T.);
#819=ORIENTED_EDGE('',*,*,#546,.F.);
#820=ORIENTED_EDGE('',*,*,#605,.F.);
#821=ORIENTED_EDGE('',*,*,#606,.F.);
#822=ORIENTED_EDGE('',*,*,#607,.T.);
#823=ORIENTED_EDGE('',*,*,#606,.T.);
#824=ORIENTED_EDGE('',*,*,#608,.F.);
#825=ORIENTED_EDGE('',*,*,#609,.F.);
#826=ORIENTED_EDGE('',*,*,#610,.T.);
#827=ORIENTED_EDGE('',*,*,#609,.T.);
#828=ORIENTED_EDGE('',*,*,#611,.F.);
#829=ORIENTED_EDGE('',*,*,#612,.F.);
#830=ORIENTED_EDGE('',*,*,#539,.F.);
#831=ORIENTED_EDGE('',*,*,#613,.T.);
#832=ORIENTED_EDGE('',*,*,#612,.T.);
#833=ORIENTED_EDGE('',*,*,#614,.F.);
#834=ORIENTED_EDGE('',*,*,#614,.T.);
#835=ORIENTED_EDGE('',*,*,#611,.T.);
#836=ORIENTED_EDGE('',*,*,#608,.T.);
#837=ORIENTED_EDGE('',*,*,#605,.T.);
#838=ORIENTED_EDGE('',*,*,#545,.F.);
#839=ORIENTED_EDGE('',*,*,#540,.T.);
#840=ORIENTED_EDGE('',*,*,#601,.T.);
#841=ORIENTED_EDGE('',*,*,#523,.T.);
#842=ORIENTED_EDGE('',*,*,#615,.F.);
#843=ORIENTED_EDGE('',*,*,#616,.T.);
#844=ORIENTED_EDGE('',*,*,#524,.F.);
#845=ORIENTED_EDGE('',*,*,#498,.F.);
#846=ORIENTED_EDGE('',*,*,#520,.T.);
#847=ORIENTED_EDGE('',*,*,#522,.T.);
#848=ORIENTED_EDGE('',*,*,#537,.F.);
#849=ORIENTED_EDGE('',*,*,#617,.T.);
#850=ORIENTED_EDGE('',*,*,#615,.T.);
#851=ORIENTED_EDGE('',*,*,#489,.F.);
#852=ORIENTED_EDGE('',*,*,#547,.T.);
#853=ORIENTED_EDGE('',*,*,#604,.F.);
#854=ORIENTED_EDGE('',*,*,#607,.F.);
#855=ORIENTED_EDGE('',*,*,#610,.F.);
#856=ORIENTED_EDGE('',*,*,#613,.F.);
#857=ORIENTED_EDGE('',*,*,#538,.T.);
#858=ORIENTED_EDGE('',*,*,#544,.T.);
#859=ORIENTED_EDGE('',*,*,#563,.T.);
#860=ORIENTED_EDGE('',*,*,#599,.F.);
#861=ORIENTED_EDGE('',*,*,#600,.T.);
#862=ORIENTED_EDGE('',*,*,#596,.T.);
#863=ORIENTED_EDGE('',*,*,#525,.F.);
#864=ORIENTED_EDGE('',*,*,#616,.F.);
#865=ORIENTED_EDGE('',*,*,#617,.F.);
#866=ORIENTED_EDGE('',*,*,#536,.F.);
#867=ORIENTED_EDGE('',*,*,#532,.F.);
#868=ORIENTED_EDGE('',*,*,#576,.T.);
#869=ORIENTED_EDGE('',*,*,#618,.F.);
#870=ORIENTED_EDGE('',*,*,#619,.F.);
#871=ORIENTED_EDGE('',*,*,#565,.T.);
#872=ORIENTED_EDGE('',*,*,#555,.T.);
#873=ORIENTED_EDGE('',*,*,#550,.F.);
#874=ORIENTED_EDGE('',*,*,#588,.F.);
#875=ORIENTED_EDGE('',*,*,#589,.F.);
#876=ORIENTED_EDGE('',*,*,#592,.F.);
#877=ORIENTED_EDGE('',*,*,#583,.T.);
#878=ORIENTED_EDGE('',*,*,#552,.T.);
#879=ORIENTED_EDGE('',*,*,#504,.F.);
#880=ORIENTED_EDGE('',*,*,#502,.T.);
#881=ORIENTED_EDGE('',*,*,#620,.F.);
#882=ORIENTED_EDGE('',*,*,#582,.F.);
#883=ORIENTED_EDGE('',*,*,#595,.F.);
#884=ORIENTED_EDGE('',*,*,#603,.F.);
#885=ORIENTED_EDGE('',*,*,#621,.F.);
#886=ORIENTED_EDGE('',*,*,#622,.T.);
#887=ORIENTED_EDGE('',*,*,#620,.T.);
#888=ORIENTED_EDGE('',*,*,#622,.F.);
#889=ORIENTED_EDGE('',*,*,#618,.T.);
#890=ORIENTED_EDGE('',*,*,#578,.T.);
#891=ORIENTED_EDGE('',*,*,#579,.F.);
#892=ORIENTED_EDGE('',*,*,#558,.F.);
#893=ORIENTED_EDGE('',*,*,#623,.F.);
#894=ORIENTED_EDGE('',*,*,#624,.F.);
#895=ORIENTED_EDGE('',*,*,#566,.F.);
#896=ORIENTED_EDGE('',*,*,#619,.T.);
#897=ORIENTED_EDGE('',*,*,#624,.T.);
#898=ORIENTED_EDGE('',*,*,#625,.F.);
#899=ORIENTED_EDGE('',*,*,#625,.T.);
#900=ORIENTED_EDGE('',*,*,#623,.T.);
#901=ORIENTED_EDGE('',*,*,#557,.F.);
#902=ORIENTED_EDGE('',*,*,#567,.T.);
#903=ORIENTED_EDGE('',*,*,#621,.T.);
#904=CYLINDRICAL_SURFACE('',#991,5.);
#905=CYLINDRICAL_SURFACE('',#999,5.);
#906=CYLINDRICAL_SURFACE('',#1001,1.05);
#907=CYLINDRICAL_SURFACE('',#1004,1.05);
#908=CYLINDRICAL_SURFACE('',#1007,1.05);
#909=CYLINDRICAL_SURFACE('',#1010,1.05);
#910=CYLINDRICAL_SURFACE('',#1015,2.);
#911=CYLINDRICAL_SURFACE('',#1018,2.);
#912=CYLINDRICAL_SURFACE('',#1022,24.);
#913=CYLINDRICAL_SURFACE('',#1027,24.);
#914=CYLINDRICAL_SURFACE('',#1032,24.);
#915=CYLINDRICAL_SURFACE('',#1035,24.);
#916=CYLINDRICAL_SURFACE('',#1038,24.);
#917=CYLINDRICAL_SURFACE('',#1040,24.);
#918=CYLINDRICAL_SURFACE('',#1047,1.05);
#919=CYLINDRICAL_SURFACE('',#1051,3.00000004470348);
#920=CYLINDRICAL_SURFACE('',#1056,3.00000004470348);
#921=CYLINDRICAL_SURFACE('',#1060,1.05);
#922=CYLINDRICAL_SURFACE('',#1063,3.00000004470348);
#923=CYLINDRICAL_SURFACE('',#1066,1.05);
#924=CYLINDRICAL_SURFACE('',#1070,3.00000004470348);
#925=CYLINDRICAL_SURFACE('',#1075,3.00000004470348);
#926=CYLINDRICAL_SURFACE('',#1084,1.05);
#927=CYLINDRICAL_SURFACE('',#1087,3.00000004470348);
#928=ADVANCED_FACE('',(#61),#904,.T.);
#929=ADVANCED_FACE('',(#62),#38,.T.);
#930=ADVANCED_FACE('',(#63),#39,.T.);
#931=ADVANCED_FACE('',(#64),#905,.T.);
#932=ADVANCED_FACE('',(#65),#906,.F.);
#933=ADVANCED_FACE('',(#66),#907,.F.);
#934=ADVANCED_FACE('',(#67),#908,.F.);
#935=ADVANCED_FACE('',(#68),#909,.F.);
#936=ADVANCED_FACE('',(#69),#40,.T.);
#937=ADVANCED_FACE('',(#70),#41,.T.);
#938=ADVANCED_FACE('',(#71),#910,.T.);
#939=ADVANCED_FACE('',(#72),#42,.T.);
#940=ADVANCED_FACE('',(#73),#911,.T.);
#941=ADVANCED_FACE('',(#74),#43,.T.);
#942=ADVANCED_FACE('',(#75),#44,.T.);
#943=ADVANCED_FACE('',(#76),#912,.F.);
#944=ADVANCED_FACE('',(#77),#45,.T.);
#945=ADVANCED_FACE('',(#78),#913,.F.);
#946=ADVANCED_FACE('',(#79,#22,#23,#24,#25),#46,.T.);
#947=ADVANCED_FACE('',(#80),#914,.F.);
#948=ADVANCED_FACE('',(#81),#915,.F.);
#949=ADVANCED_FACE('',(#82),#916,.F.);
#950=ADVANCED_FACE('',(#83),#917,.F.);
#951=ADVANCED_FACE('',(#84,#26),#47,.T.);
#952=ADVANCED_FACE('',(#85,#27,#28,#29,#30),#48,.T.);
#953=ADVANCED_FACE('',(#86),#49,.T.);
#954=ADVANCED_FACE('',(#87),#918,.F.);
#955=ADVANCED_FACE('',(#88),#50,.T.);
#956=ADVANCED_FACE('',(#89),#919,.T.);
#957=ADVANCED_FACE('',(#90),#19,.F.);
#958=ADVANCED_FACE('',(#91),#920,.T.);
#959=ADVANCED_FACE('',(#92,#31),#51,.T.);
#960=ADVANCED_FACE('',(#93),#921,.F.);
#961=ADVANCED_FACE('',(#94),#52,.T.);
#962=ADVANCED_FACE('',(#95),#922,.T.);
#963=ADVANCED_FACE('',(#96),#53,.T.);
#964=ADVANCED_FACE('',(#97),#923,.F.);
#965=ADVANCED_FACE('',(#98),#54,.T.);
#966=ADVANCED_FACE('',(#99),#924,.T.);
#967=ADVANCED_FACE('',(#100),#20,.F.);
#968=ADVANCED_FACE('',(#101),#925,.T.);
#969=ADVANCED_FACE('',(#102,#32),#55,.T.);
#970=ADVANCED_FACE('',(#103),#56,.T.);
#971=ADVANCED_FACE('',(#104),#57,.T.);
#972=ADVANCED_FACE('',(#105,#33,#34,#35,#36),#58,.F.);
#973=ADVANCED_FACE('',(#106),#926,.F.);
#974=ADVANCED_FACE('',(#107),#59,.T.);
#975=ADVANCED_FACE('',(#108),#927,.T.);
#976=ADVANCED_FACE('',(#109,#37),#60,.T.);
#977=CLOSED_SHELL('',(#928,#929,#930,#931,#932,#933,#934,#935,#936,#937,
#938,#939,#940,#941,#942,#943,#944,#945,#946,#947,#948,#949,#950,#951,#952,
#953,#954,#955,#956,#957,#958,#959,#960,#961,#962,#963,#964,#965,#966,#967,
#968,#969,#970,#971,#972,#973,#974,#975,#976));
#978=DERIVED_UNIT_ELEMENT(#980,1.);
#979=DERIVED_UNIT_ELEMENT(#1679,-3.);
#980=(
MASS_UNIT()
NAMED_UNIT(*)
SI_UNIT(.KILO.,.GRAM.)
);
#981=DERIVED_UNIT((#978,#979));
#982=MEASURE_REPRESENTATION_ITEM('density measure',
POSITIVE_RATIO_MEASURE(7850.),#981);
#983=PROPERTY_DEFINITION_REPRESENTATION(#988,#985);
#984=PROPERTY_DEFINITION_REPRESENTATION(#989,#986);
#985=REPRESENTATION('material name',(#987),#1676);
#986=REPRESENTATION('density',(#982),#1676);
#987=DESCRIPTIVE_REPRESENTATION_ITEM('Steel','Steel');
#988=PROPERTY_DEFINITION('material property','material name',#1686);
#989=PROPERTY_DEFINITION('material property','density of part',#1686);
#990=AXIS2_PLACEMENT_3D('',#1376,#1090,#1091);
#991=AXIS2_PLACEMENT_3D('',#1377,#1092,#1093);
#992=AXIS2_PLACEMENT_3D('',#1380,#1094,#1095);
#993=AXIS2_PLACEMENT_3D('',#1384,#1097,#1098);
#994=AXIS2_PLACEMENT_3D('',#1386,#1100,#1101);
#995=AXIS2_PLACEMENT_3D('',#1390,#1103,#1104);
#996=AXIS2_PLACEMENT_3D('',#1396,#1107,#1108);
#997=AXIS2_PLACEMENT_3D('',#1404,#1112,#1113);
#998=AXIS2_PLACEMENT_3D('',#1408,#1116,#1117);
#999=AXIS2_PLACEMENT_3D('',#1412,#1120,#1121);
#1000=AXIS2_PLACEMENT_3D('',#1414,#1122,#1123);
#1001=AXIS2_PLACEMENT_3D('',#1416,#1125,#1126);
#1002=AXIS2_PLACEMENT_3D('',#1418,#1127,#1128);
#1003=AXIS2_PLACEMENT_3D('',#1421,#1130,#1131);
#1004=AXIS2_PLACEMENT_3D('',#1422,#1132,#1133);
#1005=AXIS2_PLACEMENT_3D('',#1424,#1134,#1135);
#1006=AXIS2_PLACEMENT_3D('',#1427,#1137,#1138);
#1007=AXIS2_PLACEMENT_3D('',#1428,#1139,#1140);
#1008=AXIS2_PLACEMENT_3D('',#1430,#1141,#1142);
#1009=AXIS2_PLACEMENT_3D('',#1433,#1144,#1145);
#1010=AXIS2_PLACEMENT_3D('',#1434,#1146,#1147);
#1011=AXIS2_PLACEMENT_3D('',#1436,#1148,#1149);
#1012=AXIS2_PLACEMENT_3D('',#1439,#1151,#1152);
#1013=AXIS2_PLACEMENT_3D('',#1440,#1153,#1154);
#1014=AXIS2_PLACEMENT_3D('',#1446,#1158,#1159);
#1015=AXIS2_PLACEMENT_3D('',#1452,#1163,#1164);
#1016=AXIS2_PLACEMENT_3D('',#1456,#1166,#1167);
#1017=AXIS2_PLACEMENT_3D('',#1460,#1170,#1171);
#1018=AXIS2_PLACEMENT_3D('',#1464,#1174,#1175);
#1019=AXIS2_PLACEMENT_3D('',#1470,#1178,#1179);
#1020=AXIS2_PLACEMENT_3D('',#1472,#1181,#1182);
#1021=AXIS2_PLACEMENT_3D('',#1476,#1185,#1186);
#1022=AXIS2_PLACEMENT_3D('',#1480,#1189,#1190);
#1023=AXIS2_PLACEMENT_3D('',#1483,#1191,#1192);
#1024=AXIS2_PLACEMENT_3D('',#1487,#1194,#1195);
#1025=AXIS2_PLACEMENT_3D('',#1489,#1197,#1198);
#1026=AXIS2_PLACEMENT_3D('',#1491,#1199,#1200);
#1027=AXIS2_PLACEMENT_3D('',#1500,#1206,#1207);
#1028=AXIS2_PLACEMENT_3D('',#1503,#1208,#1209);
#1029=AXIS2_PLACEMENT_3D('',#1507,#1211,#1212);
#1030=AXIS2_PLACEMENT_3D('',#1509,#1214,#1215);
#1031=AXIS2_PLACEMENT_3D('',#1525,#1224,#1225);
#1032=AXIS2_PLACEMENT_3D('',#1526,#1226,#1227);
#1033=AXIS2_PLACEMENT_3D('',#1529,#1228,#1229);
#1034=AXIS2_PLACEMENT_3D('',#1532,#1231,#1232);
#1035=AXIS2_PLACEMENT_3D('',#1541,#1233,#1234);
#1036=AXIS2_PLACEMENT_3D('',#1543,#1235,#1236);
#1037=AXIS2_PLACEMENT_3D('',#1546,#1238,#1239);
#1038=AXIS2_PLACEMENT_3D('',#1547,#1240,#1241);
#1039=AXIS2_PLACEMENT_3D('',#1549,#1242,#1243);
#1040=AXIS2_PLACEMENT_3D('',#1551,#1245,#1246);
#1041=AXIS2_PLACEMENT_3D('',#1553,#1247,#1248);
#1042=AXIS2_PLACEMENT_3D('',#1555,#1250,#1251);
#1043=AXIS2_PLACEMENT_3D('',#1560,#1254,#1255);
#1044=AXIS2_PLACEMENT_3D('',#1562,#1256,#1257);
#1045=AXIS2_PLACEMENT_3D('',#1563,#1258,#1259);
#1046=AXIS2_PLACEMENT_3D('',#1569,#1263,#1264);
#1047=AXIS2_PLACEMENT_3D('',#1571,#1266,#1267);
#1048=AXIS2_PLACEMENT_3D('',#1573,#1268,#1269);
#1049=AXIS2_PLACEMENT_3D('',#1576,#1271,#1272);
#1050=AXIS2_PLACEMENT_3D('',#1577,#1273,#1274);
#1051=AXIS2_PLACEMENT_3D('',#1583,#1278,#1279);
#1052=AXIS2_PLACEMENT_3D('',#1585,#1280,#1281);
#1053=AXIS2_PLACEMENT_3D('',#1588,#1283,#1284);
#1054=AXIS2_PLACEMENT_3D('',#1596,#1285,#1286);
#1055=AXIS2_PLACEMENT_3D('',#1598,#1287,#1288);
#1056=AXIS2_PLACEMENT_3D('',#1600,#1290,#1291);
#1057=AXIS2_PLACEMENT_3D('',#1601,#1292,#1293);
#1058=AXIS2_PLACEMENT_3D('',#1602,#1294,#1295);
#1059=AXIS2_PLACEMENT_3D('',#1603,#1296,#1297);
#1060=AXIS2_PLACEMENT_3D('',#1604,#1298,#1299);
#1061=AXIS2_PLACEMENT_3D('',#1607,#1301,#1302);
#1062=AXIS2_PLACEMENT_3D('',#1608,#1303,#1304);
#1063=AXIS2_PLACEMENT_3D('',#1612,#1307,#1308);
#1064=AXIS2_PLACEMENT_3D('',#1615,#1310,#1311);
#1065=AXIS2_PLACEMENT_3D('',#1616,#1312,#1313);
#1066=AXIS2_PLACEMENT_3D('',#1618,#1315,#1316);
#1067=AXIS2_PLACEMENT_3D('',#1620,#1317,#1318);
#1068=AXIS2_PLACEMENT_3D('',#1623,#1320,#1321);
#1069=AXIS2_PLACEMENT_3D('',#1624,#1322,#1323);
#1070=AXIS2_PLACEMENT_3D('',#1630,#1327,#1328);
#1071=AXIS2_PLACEMENT_3D('',#1632,#1329,#1330);
#1072=AXIS2_PLACEMENT_3D('',#1634,#1331,#1332);
#1073=AXIS2_PLACEMENT_3D('',#1643,#1334,#1335);
#1074=AXIS2_PLACEMENT_3D('',#1645,#1336,#1337);
#1075=AXIS2_PLACEMENT_3D('',#1647,#1339,#1340);
#1076=AXIS2_PLACEMENT_3D('',#1648,#1341,#1342);
#1077=AXIS2_PLACEMENT_3D('',#1649,#1343,#1344);
#1078=AXIS2_PLACEMENT_3D('',#1650,#1345,#1346);
#1079=AXIS2_PLACEMENT_3D('',#1651,#1347,#1348);
#1080=AXIS2_PLACEMENT_3D('',#1655,#1351,#1352);
#1081=AXIS2_PLACEMENT_3D('',#1657,#1354,#1355);
#1082=AXIS2_PLACEMENT_3D('',#1660,#1357,#1358);
#1083=AXIS2_PLACEMENT_3D('',#1662,#1359,#1360);
#1084=AXIS2_PLACEMENT_3D('',#1663,#1361,#1362);
#1085=AXIS2_PLACEMENT_3D('',#1665,#1363,#1364);
#1086=AXIS2_PLACEMENT_3D('',#1667,#1366,#1367);
#1087=AXIS2_PLACEMENT_3D('',#1671,#1370,#1371);
#1088=AXIS2_PLACEMENT_3D('',#1672,#1372,#1373);
#1089=AXIS2_PLACEMENT_3D('',#1673,#1374,#1375);
#1090=DIRECTION('axis',(0.,0.,1.));
#1091=DIRECTION('refdir',(1.,0.,0.));
#1092=DIRECTION('center_axis',(0.,0.,1.));
#1093=DIRECTION('ref_axis',(-0.707106781186547,0.707106781186547,0.));
#1094=DIRECTION('center_axis',(0.,0.,-1.));
#1095=DIRECTION('ref_axis',(-0.707106781186547,0.707106781186547,0.));
#1096=DIRECTION('',(0.,0.,-1.));
#1097=DIRECTION('center_axis',(0.,0.,1.));
#1098=DIRECTION('ref_axis',(-0.707106781186547,0.707106781186547,0.));
#1099=DIRECTION('',(0.,0.,1.));
#1100=DIRECTION('center_axis',(0.,0.,1.));
#1101=DIRECTION('ref_axis',(1.,0.,0.));
#1102=DIRECTION('',(0.,-1.,0.));
#1103=DIRECTION('center_axis',(0.,0.,-1.));
#1104=DIRECTION('ref_axis',(-0.707106781186547,-0.707106781186547,0.));
#1105=DIRECTION('',(1.,0.,0.));
#1106=DIRECTION('',(0.,1.,0.));
#1107=DIRECTION('center_axis',(0.,0.,-1.));
#1108=DIRECTION('ref_axis',(0.707106781186548,0.707106781186548,0.));
#1109=DIRECTION('',(-1.,0.,0.));
#1110=DIRECTION('',(0.,1.,0.));
#1111=DIRECTION('',(1.,0.,0.));
#1112=DIRECTION('center_axis',(0.,0.,-1.));
#1113=DIRECTION('ref_axis',(0.707106781186548,-0.707106781186548,0.));
#1114=DIRECTION('',(0.,1.,0.));
#1115=DIRECTION('',(-1.,0.,0.));
#1116=DIRECTION('center_axis',(-1.,0.,0.));
#1117=DIRECTION('ref_axis',(0.,-1.,0.));
#1118=DIRECTION('',(0.,1.,0.));
#1119=DIRECTION('',(0.,0.,-1.));
#1120=DIRECTION('center_axis',(0.,0.,1.));
#1121=DIRECTION('ref_axis',(-0.707106781186547,-0.707106781186547,0.));
#1122=DIRECTION('center_axis',(0.,0.,1.));
#1123=DIRECTION('ref_axis',(-0.707106781186547,-0.707106781186547,0.));
#1124=DIRECTION('',(0.,0.,1.));
#1125=DIRECTION('center_axis',(0.,1.,0.));
#1126=DIRECTION('ref_axis',(1.,0.,0.));
#1127=DIRECTION('center_axis',(0.,1.,0.));
#1128=DIRECTION('ref_axis',(1.,0.,0.));
#1129=DIRECTION('',(0.,1.,0.));
#1130=DIRECTION('center_axis',(0.,-1.,0.));
#1131=DIRECTION('ref_axis',(1.,0.,0.));
#1132=DIRECTION('center_axis',(0.,1.,0.));
#1133=DIRECTION('ref_axis',(1.,0.,0.));
#1134=DIRECTION('center_axis',(0.,1.,0.));
#1135=DIRECTION('ref_axis',(1.,0.,0.));
#1136=DIRECTION('',(0.,1.,0.));
#1137=DIRECTION('center_axis',(0.,-1.,0.));
#1138=DIRECTION('ref_axis',(1.,0.,0.));
#1139=DIRECTION('center_axis',(0.,1.,0.));
#1140=DIRECTION('ref_axis',(1.,0.,0.));
#1141=DIRECTION('center_axis',(0.,1.,0.));
#1142=DIRECTION('ref_axis',(1.,0.,0.));
#1143=DIRECTION('',(0.,1.,0.));
#1144=DIRECTION('center_axis',(0.,-1.,0.));
#1145=DIRECTION('ref_axis',(1.,0.,0.));
#1146=DIRECTION('center_axis',(0.,1.,0.));
#1147=DIRECTION('ref_axis',(1.,0.,0.));
#1148=DIRECTION('center_axis',(0.,1.,0.));
#1149=DIRECTION('ref_axis',(1.,0.,0.));
#1150=DIRECTION('',(0.,1.,0.));
#1151=DIRECTION('center_axis',(0.,-1.,0.));
#1152=DIRECTION('ref_axis',(1.,0.,0.));
#1153=DIRECTION('center_axis',(1.,0.,0.));
#1154=DIRECTION('ref_axis',(0.,-1.,0.));
#1155=DIRECTION('',(0.,0.,1.));
#1156=DIRECTION('',(0.,-1.,0.));
#1157=DIRECTION('',(0.,0.,-1.));
#1158=DIRECTION('center_axis',(0.,0.,-1.));
#1159=DIRECTION('ref_axis',(-1.,0.,0.));
#1160=DIRECTION('',(1.,0.,0.));
#1161=DIRECTION('',(0.,-1.,0.));
#1162=DIRECTION('',(-1.,0.,0.));
#1163=DIRECTION('center_axis',(0.,0.,1.));
#1164=DIRECTION('ref_axis',(0.707106781186548,-0.707106781186548,0.));
#1165=DIRECTION('',(0.,0.,-1.));
#1166=DIRECTION('center_axis',(0.,0.,1.));
#1167=DIRECTION('ref_axis',(0.707106781186548,-0.707106781186548,0.));
#1168=DIRECTION('',(0.,0.,1.));
#1169=DIRECTION('',(0.,0.,1.));
#1170=DIRECTION('center_axis',(1.,0.,0.));
#1171=DIRECTION('ref_axis',(0.,1.,0.));
#1172=DIRECTION('',(0.,-1.,0.));
#1173=DIRECTION('',(0.,0.,1.));
#1174=DIRECTION('center_axis',(0.,0.,1.));
#1175=DIRECTION('ref_axis',(0.707106781186548,0.707106781186548,0.));
#1176=DIRECTION('',(0.,0.,-1.));
#1177=DIRECTION('',(0.,0.,-1.));
#1178=DIRECTION('center_axis',(0.,0.,1.));
#1179=DIRECTION('ref_axis',(0.707106781186548,0.707106781186548,0.));
#1180=DIRECTION('',(0.,0.,1.));
#1181=DIRECTION('center_axis',(1.,0.,0.));
#1182=DIRECTION('ref_axis',(0.,1.,0.));
#1183=DIRECTION('',(0.,0.,1.));
#1184=DIRECTION('',(0.,-1.,0.));
#1185=DIRECTION('center_axis',(0.,1.,0.));
#1186=DIRECTION('ref_axis',(-1.,0.,0.));
#1187=DIRECTION('',(-1.,0.,0.));
#1188=DIRECTION('',(0.,0.,1.));
#1189=DIRECTION('center_axis',(0.,0.,-1.));
#1190=DIRECTION('ref_axis',(0.,1.,0.));
#1191=DIRECTION('center_axis',(0.,0.,-1.));
#1192=DIRECTION('ref_axis',(0.,1.,0.));
#1193=DIRECTION('',(0.,0.,1.));
#1194=DIRECTION('center_axis',(0.,0.,1.));
#1195=DIRECTION('ref_axis',(0.,1.,0.));
#1196=DIRECTION('',(0.,0.,-1.));
#1197=DIRECTION('center_axis',(0.,1.,0.));
#1198=DIRECTION('ref_axis',(-1.,0.,0.));
#1199=DIRECTION('center_axis',(0.,1.,0.));
#1200=DIRECTION('ref_axis',(-0.707106781186548,0.,-0.707106781186547));
#1201=DIRECTION('',(0.,0.,1.));
#1202=DIRECTION('',(1.,0.,0.));
#1203=DIRECTION('',(-1.,0.,0.));
#1204=DIRECTION('',(0.,0.,-1.));
#1205=DIRECTION('',(1.,0.,0.));
#1206=DIRECTION('center_axis',(0.,0.,1.));
#1207=DIRECTION('ref_axis',(0.,-1.,0.));
#1208=DIRECTION('center_axis',(0.,0.,1.));
#1209=DIRECTION('ref_axis',(0.,-1.,0.));
#1210=DIRECTION('',(0.,0.,-1.));
#1211=DIRECTION('center_axis',(0.,0.,-1.));
#1212=DIRECTION('ref_axis',(0.,-1.,0.));
#1213=DIRECTION('',(0.,0.,1.));
#1214=DIRECTION('center_axis',(0.,-1.,0.));
#1215=DIRECTION('ref_axis',(1.,0.,0.));
#1216=DIRECTION('',(-1.,0.,0.));
#1217=DIRECTION('',(0.,0.,1.));
#1218=DIRECTION('',(1.,0.,0.));
#1219=DIRECTION('',(-1.,0.,0.));
#1220=DIRECTION('',(0.,0.,-1.));
#1221=DIRECTION('',(1.,0.,0.));
#1222=DIRECTION('',(0.,0.,1.));
#1223=DIRECTION('',(1.,0.,0.));
#1224=DIRECTION('center_axis',(0.,-1.,0.));
#1225=DIRECTION('ref_axis',(-0.707106781186548,0.,-0.707106781186547));
#1226=DIRECTION('center_axis',(0.,0.,1.));
#1227=DIRECTION('ref_axis',(0.,1.,0.));
#1228=DIRECTION('center_axis',(0.,0.,1.));
#1229=DIRECTION('ref_axis',(0.,1.,0.));
#1230=DIRECTION('',(0.,0.,-1.));
#1231=DIRECTION('center_axis',(0.,0.,-1.));
#1232=DIRECTION('ref_axis',(0.,1.,0.));
#1233=DIRECTION('center_axis',(0.,0.,-1.));
#1234=DIRECTION('ref_axis',(0.,-1.,0.));
#1235=DIRECTION('center_axis',(0.,0.,-1.));
#1236=DIRECTION('ref_axis',(0.,-1.,0.));
#1237=DIRECTION('',(0.,0.,1.));
#1238=DIRECTION('center_axis',(0.,0.,1.));
#1239=DIRECTION('ref_axis',(0.,-1.,0.));
#1240=DIRECTION('center_axis',(0.,1.,0.));
#1241=DIRECTION('ref_axis',(-0.707106781186548,0.,-0.707106781186547));
#1242=DIRECTION('center_axis',(0.,1.,0.));
#1243=DIRECTION('ref_axis',(-0.707106781186548,0.,-0.707106781186547));
#1244=DIRECTION('',(0.,1.,0.));
#1245=DIRECTION('center_axis',(0.,1.,0.));
#1246=DIRECTION('ref_axis',(-0.707106781186548,0.,-0.707106781186547));
#1247=DIRECTION('center_axis',(0.,-1.,0.));
#1248=DIRECTION('ref_axis',(-0.707106781186548,0.,-0.707106781186547));
#1249=DIRECTION('',(0.,1.,0.));
#1250=DIRECTION('center_axis',(0.,0.,1.));
#1251=DIRECTION('ref_axis',(-1.,0.,0.));
#1252=DIRECTION('',(1.,0.,0.));
#1253=DIRECTION('',(0.,1.,0.));
#1254=DIRECTION('center_axis',(0.,0.,1.));
#1255=DIRECTION('ref_axis',(1.,0.,0.));
#1256=DIRECTION('center_axis',(0.,0.,-1.));
#1257=DIRECTION('ref_axis',(-1.,0.,0.));
#1258=DIRECTION('center_axis',(0.,1.,0.));
#1259=DIRECTION('ref_axis',(-1.,0.,0.));
#1260=DIRECTION('',(1.,0.,0.));
#1261=DIRECTION('',(-1.,0.,0.));
#1262=DIRECTION('',(0.,0.,1.));
#1263=DIRECTION('center_axis',(0.,0.,1.));
#1264=DIRECTION('ref_axis',(1.,0.,0.));
#1265=DIRECTION('',(0.,1.,0.));
#1266=DIRECTION('center_axis',(0.,0.,1.));
#1267=DIRECTION('ref_axis',(-1.,0.,0.));
#1268=DIRECTION('center_axis',(0.,0.,-1.));
#1269=DIRECTION('ref_axis',(-1.,0.,0.));
#1270=DIRECTION('',(0.,0.,-1.));
#1271=DIRECTION('center_axis',(0.,0.,-1.));
#1272=DIRECTION('ref_axis',(-1.,0.,0.));
#1273=DIRECTION('center_axis',(-1.,0.,0.));
#1274=DIRECTION('ref_axis',(0.,-1.,0.));
#1275=DIRECTION('',(0.,1.,0.));
#1276=DIRECTION('',(0.,0.,1.));
#1277=DIRECTION('',(0.,-1.,0.));
#1278=DIRECTION('center_axis',(0.,0.,1.));
#1279=DIRECTION('ref_axis',(-1.,0.,0.));
#1280=DIRECTION('center_axis',(0.,0.,1.));
#1281=DIRECTION('ref_axis',(-1.,0.,0.));
#1282=DIRECTION('',(0.,0.,1.));
#1283=DIRECTION('center_axis',(0.,0.,1.));
#1284=DIRECTION('ref_axis',(-1.,0.,0.));
#1285=DIRECTION('center_axis',(0.,0.,1.));
#1286=DIRECTION('ref_axis',(-1.,-2.96059487203537E-16,0.));
#1287=DIRECTION('center_axis',(0.,0.,1.));
#1288=DIRECTION('ref_axis',(-1.,-2.96059487203537E-16,0.));
#1289=DIRECTION('',(0.,0.,1.));
#1290=DIRECTION('center_axis',(0.,0.,1.));
#1291=DIRECTION('ref_axis',(-1.,0.,0.));
#1292=DIRECTION('center_axis',(0.,0.,1.));
#1293=DIRECTION('ref_axis',(-1.,0.,0.));
#1294=DIRECTION('center_axis',(0.,0.,1.));
#1295=DIRECTION('ref_axis',(-1.,0.,0.));
#1296=DIRECTION('center_axis',(0.,0.,1.));
#1297=DIRECTION('ref_axis',(-1.,0.,0.));
#1298=DIRECTION('center_axis',(0.,0.,1.));
#1299=DIRECTION('ref_axis',(-1.,0.,0.));
#1300=DIRECTION('',(0.,0.,-1.));
#1301=DIRECTION('center_axis',(0.,0.,-1.));
#1302=DIRECTION('ref_axis',(-1.,0.,0.));
#1303=DIRECTION('center_axis',(0.,-1.,0.));
#1304=DIRECTION('ref_axis',(1.,0.,0.));
#1305=DIRECTION('',(-1.,0.,0.));
#1306=DIRECTION('',(0.,0.,1.));
#1307=DIRECTION('center_axis',(0.,0.,1.));
#1308=DIRECTION('ref_axis',(1.,0.,0.));
#1309=DIRECTION('',(0.,0.,1.));
#1310=DIRECTION('center_axis',(0.,0.,1.));
#1311=DIRECTION('ref_axis',(1.,0.,0.));
#1312=DIRECTION('center_axis',(1.,0.,0.));
#1313=DIRECTION('ref_axis',(0.,1.,0.));
#1314=DIRECTION('',(0.,-1.,0.));
#1315=DIRECTION('center_axis',(0.,0.,1.));
#1316=DIRECTION('ref_axis',(-1.,0.,0.));
#1317=DIRECTION('center_axis',(0.,0.,-1.));
#1318=DIRECTION('ref_axis',(-1.,0.,0.));
#1319=DIRECTION('',(0.,0.,-1.));
#1320=DIRECTION('center_axis',(0.,0.,-1.));
#1321=DIRECTION('ref_axis',(-1.,0.,0.));
#1322=DIRECTION('center_axis',(-1.,0.,0.));
#1323=DIRECTION('ref_axis',(0.,-1.,0.));
#1324=DIRECTION('',(0.,-1.,0.));
#1325=DIRECTION('',(0.,-1.,0.));
#1326=DIRECTION('',(0.,0.,1.));
#1327=DIRECTION('center_axis',(0.,0.,1.));
#1328=DIRECTION('ref_axis',(1.,0.,0.));
#1329=DIRECTION('center_axis',(0.,0.,1.));
#1330=DIRECTION('ref_axis',(1.,0.,0.));
#1331=DIRECTION('center_axis',(0.,0.,1.));
#1332=DIRECTION('ref_axis',(1.,0.,0.));
#1333=DIRECTION('',(0.,0.,1.));
#1334=DIRECTION('center_axis',(0.,0.,1.));
#1335=DIRECTION('ref_axis',(-1.,-2.96059487203537E-16,0.));
#1336=DIRECTION('center_axis',(0.,0.,1.));
#1337=DIRECTION('ref_axis',(-1.,-2.96059487203537E-16,0.));
#1338=DIRECTION('',(0.,0.,1.));
#1339=DIRECTION('center_axis',(0.,0.,1.));
#1340=DIRECTION('ref_axis',(1.,0.,0.));
#1341=DIRECTION('center_axis',(0.,0.,1.));
#1342=DIRECTION('ref_axis',(1.,0.,0.));
#1343=DIRECTION('center_axis',(0.,0.,1.));
#1344=DIRECTION('ref_axis',(1.,0.,0.));
#1345=DIRECTION('center_axis',(0.,0.,1.));
#1346=DIRECTION('ref_axis',(-1.,0.,0.));
#1347=DIRECTION('center_axis',(0.,-1.,0.));
#1348=DIRECTION('ref_axis',(1.,0.,0.));
#1349=DIRECTION('',(0.,0.,1.));
#1350=DIRECTION('',(1.,0.,0.));
#1351=DIRECTION('center_axis',(1.,0.,0.));
#1352=DIRECTION('ref_axis',(0.,1.,0.));
#1353=DIRECTION('',(0.,1.,0.));
#1354=DIRECTION('center_axis',(0.,0.,1.));
#1355=DIRECTION('ref_axis',(-1.,0.,0.));
#1356=DIRECTION('',(0.,1.,0.));
#1357=DIRECTION('center_axis',(0.,0.,1.));
#1358=DIRECTION('ref_axis',(-1.,0.,0.));
#1359=DIRECTION('center_axis',(0.,0.,-1.));
#1360=DIRECTION('ref_axis',(-1.,0.,0.));
#1361=DIRECTION('center_axis',(0.,0.,1.));
#1362=DIRECTION('ref_axis',(-1.,0.,0.));
#1363=DIRECTION('center_axis',(0.,0.,-1.));
#1364=DIRECTION('ref_axis',(-1.,0.,0.));
#1365=DIRECTION('',(0.,0.,-1.));
#1366=DIRECTION('center_axis',(1.,0.,0.));
#1367=DIRECTION('ref_axis',(0.,1.,0.));
#1368=DIRECTION('',(0.,1.,0.));
#1369=DIRECTION('',(0.,0.,1.));
#1370=DIRECTION('center_axis',(0.,0.,1.));
#1371=DIRECTION('ref_axis',(-1.,0.,0.));
#1372=DIRECTION('center_axis',(0.,0.,1.));
#1373=DIRECTION('ref_axis',(-1.,0.,0.));
#1374=DIRECTION('center_axis',(0.,0.,1.));
#1375=DIRECTION('ref_axis',(-1.,0.,0.));
#1376=CARTESIAN_POINT('',(0.,0.,0.));
#1377=CARTESIAN_POINT('Origin',(-106.000001654029,-119.000001698732,141.));
#1378=CARTESIAN_POINT('',(-111.000001654029,-119.000001698732,225.));
#1379=CARTESIAN_POINT('',(-106.000001654029,-114.000001698732,225.));
#1380=CARTESIAN_POINT('Origin',(-106.000001654029,-119.000001698732,225.));
#1381=CARTESIAN_POINT('',(-106.000001654029,-114.000001698732,141.));
#1382=CARTESIAN_POINT('',(-106.000001654029,-114.000001698732,141.));
#1383=CARTESIAN_POINT('',(-111.000001654029,-119.000001698732,141.));
#1384=CARTESIAN_POINT('Origin',(-106.000001654029,-119.000001698732,141.));
#1385=CARTESIAN_POINT('',(-111.000001654029,-119.000001698732,141.));
#1386=CARTESIAN_POINT('Origin',(-100.000001490116,-125.000001862645,225.));
#1387=CARTESIAN_POINT('',(-111.000001654029,-131.000002026558,225.));
#1388=CARTESIAN_POINT('',(-111.000001654029,-136.000002026558,225.));
#1389=CARTESIAN_POINT('',(-106.000001654029,-136.000002026558,225.));
#1390=CARTESIAN_POINT('Origin',(-106.000001654029,-131.000002026558,225.));
#1391=CARTESIAN_POINT('',(-89.0000013262033,-136.000002026558,225.));
#1392=CARTESIAN_POINT('',(-89.0000013262033,-136.000002026558,225.));
#1393=CARTESIAN_POINT('',(-89.0000013262033,-132.000001937151,225.));
#1394=CARTESIAN_POINT('',(-89.0000013262033,-130.000001937151,225.));
#1395=CARTESIAN_POINT('',(-91.0000013262033,-130.000001937151,225.));
#1396=CARTESIAN_POINT('Origin',(-91.0000013262033,-132.000001937151,225.));
#1397=CARTESIAN_POINT('',(-92.0000013709068,-130.000001937151,225.));
#1398=CARTESIAN_POINT('',(-95.0000014156103,-130.000001937151,225.));
#1399=CARTESIAN_POINT('',(-92.0000013709068,-120.000001788139,225.));
#1400=CARTESIAN_POINT('',(-92.0000013709068,-130.000001937151,225.));
#1401=CARTESIAN_POINT('',(-91.0000013262033,-120.000001788139,225.));
#1402=CARTESIAN_POINT('',(-105.000001564622,-120.000001788139,225.));
#1403=CARTESIAN_POINT('',(-89.0000013262033,-118.000001788139,225.));
#1404=CARTESIAN_POINT('Origin',(-91.0000013262033,-118.000001788139,225.));
#1405=CARTESIAN_POINT('',(-89.0000013262033,-114.000001698732,225.));
#1406=CARTESIAN_POINT('',(-89.0000013262033,-114.000001698732,225.));
#1407=CARTESIAN_POINT('',(-111.000001654029,-114.000001698732,225.));
#1408=CARTESIAN_POINT('Origin',(-111.000001654029,-114.000001698732,141.));
#1409=CARTESIAN_POINT('',(-111.000001654029,-131.000002026558,141.));
#1410=CARTESIAN_POINT('',(-111.000001654029,-136.000002026558,141.));
#1411=CARTESIAN_POINT('',(-111.000001654029,-131.000002026558,141.));
#1412=CARTESIAN_POINT('Origin',(-106.000001654029,-131.000002026558,141.));
#1413=CARTESIAN_POINT('',(-106.000001654029,-136.000002026558,141.));
#1414=CARTESIAN_POINT('Origin',(-106.000001654029,-131.000002026558,141.));
#1415=CARTESIAN_POINT('',(-106.000001654029,-136.000002026558,141.));
#1416=CARTESIAN_POINT('Origin',(-49.0000007301569,-136.000002026558,169.500002384186));
#1417=CARTESIAN_POINT('',(-50.0500007301569,-136.000002026558,169.500002384186));
#1418=CARTESIAN_POINT('Origin',(-49.0000007301569,-136.000002026558,169.500002384186));
#1419=CARTESIAN_POINT('',(-50.0500007301569,-132.000002026558,169.500002384186));
#1420=CARTESIAN_POINT('',(-50.0500007301569,-136.000002026558,169.500002384186));
#1421=CARTESIAN_POINT('Origin',(-49.0000007301569,-132.000001966953,169.500002384186));
#1422=CARTESIAN_POINT('Origin',(-71.0000010579824,-136.000002026558,154.500002160668));
#1423=CARTESIAN_POINT('',(-72.0500010579825,-136.000002026558,154.500002160668));
#1424=CARTESIAN_POINT('Origin',(-71.0000010579824,-136.000002026558,154.500002160668));
#1425=CARTESIAN_POINT('',(-72.0500010579825,-132.000002026558,154.500002160668));
#1426=CARTESIAN_POINT('',(-72.0500010579825,-136.000002026558,154.500002160668));
#1427=CARTESIAN_POINT('Origin',(-71.0000010579824,-132.000001966953,154.500002160668));
#1428=CARTESIAN_POINT('Origin',(-71.0000010579824,-136.000002026558,169.500002384186));
#1429=CARTESIAN_POINT('',(-72.0500010579825,-136.000002026558,169.500002384186));
#1430=CARTESIAN_POINT('Origin',(-71.0000010579824,-136.000002026558,169.500002384186));
#1431=CARTESIAN_POINT('',(-72.0500010579825,-132.000002026558,169.500002384186));
#1432=CARTESIAN_POINT('',(-72.0500010579825,-136.000002026558,169.500002384186));
#1433=CARTESIAN_POINT('Origin',(-71.0000010579824,-132.000001966953,169.500002384186));
#1434=CARTESIAN_POINT('Origin',(-49.0000007301569,-136.000002026558,154.500002160668));
#1435=CARTESIAN_POINT('',(-50.0500007301569,-136.000002026558,154.500002160668));
#1436=CARTESIAN_POINT('Origin',(-49.0000007301569,-136.000002026558,154.500002160668));
#1437=CARTESIAN_POINT('',(-50.0500007301569,-132.000002026558,154.500002160668));
#1438=CARTESIAN_POINT('',(-50.0500007301569,-136.000002026558,154.500002160668));
#1439=CARTESIAN_POINT('Origin',(-49.0000007301569,-132.000001966953,154.500002160668));
#1440=CARTESIAN_POINT('Origin',(-92.0000013709068,-120.000001788139,225.));
#1441=CARTESIAN_POINT('',(-92.0000013709068,-130.000001937151,215.));
#1442=CARTESIAN_POINT('',(-92.0000013709068,-130.000001937151,183.));
#1443=CARTESIAN_POINT('',(-92.0000013709068,-120.000001788139,215.));
#1444=CARTESIAN_POINT('',(-92.0000013709068,-130.000001937151,215.));
#1445=CARTESIAN_POINT('',(-92.0000013709068,-120.000001788139,183.));
#1446=CARTESIAN_POINT('Origin',(-98.5000014677644,-125.000001862645,215.));
#1447=CARTESIAN_POINT('',(-105.000001564622,-130.000001937151,215.));
#1448=CARTESIAN_POINT('',(-93.7500013969839,-130.000001937151,215.));
#1449=CARTESIAN_POINT('',(-105.000001564622,-120.000001788139,215.));
#1450=CARTESIAN_POINT('',(-105.000001564622,-127.500001899898,215.));
#1451=CARTESIAN_POINT('',(-101.750001516193,-120.000001788139,215.));
#1452=CARTESIAN_POINT('Origin',(-91.0000013262033,-118.000001788139,141.));
#1453=CARTESIAN_POINT('',(-91.0000013262033,-120.000001788139,141.));
#1454=CARTESIAN_POINT('',(-91.0000013262033,-120.000001788139,141.));
#1455=CARTESIAN_POINT('',(-89.0000013262033,-118.000001758337,141.));
#1456=CARTESIAN_POINT('Origin',(-91.0000013262033,-118.000001788139,141.));
#1457=CARTESIAN_POINT('',(-89.0000013262033,-118.000001758337,170.));
#1458=CARTESIAN_POINT('',(-89.0000013262033,-118.000001758337,141.));
#1459=CARTESIAN_POINT('',(-89.0000013262033,-118.000001788139,141.));
#1460=CARTESIAN_POINT('Origin',(-89.0000013262033,-120.000001788139,141.));
#1461=CARTESIAN_POINT('',(-89.0000013262033,-114.000001698732,170.));
#1462=CARTESIAN_POINT('',(-89.0000013262033,-113.250001687557,170.));
#1463=CARTESIAN_POINT('',(-89.0000013262033,-114.000001698732,141.));
#1464=CARTESIAN_POINT('Origin',(-91.0000013262033,-132.000001937151,141.));
#1465=CARTESIAN_POINT('',(-89.0000013262033,-132.000001966953,199.));
#1466=CARTESIAN_POINT('',(-89.0000013262033,-132.000001937151,141.));
#1467=CARTESIAN_POINT('',(-89.0000013262033,-132.000001966953,141.));
#1468=CARTESIAN_POINT('',(-89.0000013262033,-132.000001966953,141.));
#1469=CARTESIAN_POINT('',(-91.0000013262033,-130.000001937151,141.));
#1470=CARTESIAN_POINT('Origin',(-91.0000013262033,-132.000001937151,141.));
#1471=CARTESIAN_POINT('',(-91.0000013262033,-130.000001937151,141.));
#1472=CARTESIAN_POINT('Origin',(-89.0000013262033,-136.000002026558,141.));
#1473=CARTESIAN_POINT('',(-89.0000013262033,-136.000002026558,199.));
#1474=CARTESIAN_POINT('',(-89.0000013262033,-136.000002026558,141.));
#1475=CARTESIAN_POINT('',(-89.0000013262033,-135.000002011657,199.));
#1476=CARTESIAN_POINT('Origin',(-89.0000013262033,-130.000001937151,141.));
#1477=CARTESIAN_POINT('',(-105.000001564622,-130.000001937151,141.));
#1478=CARTESIAN_POINT('',(-95.0000014156103,-130.000001937151,141.));
#1479=CARTESIAN_POINT('',(-105.000001564622,-130.000001937151,141.));
#1480=CARTESIAN_POINT('Origin',(-79.0238243846361,-90.0000016987324,141.));
#1481=CARTESIAN_POINT('',(-97.6693151141917,-105.111112692106,141.));
#1482=CARTESIAN_POINT('',(-79.0238243846361,-114.000001698732,141.));
#1483=CARTESIAN_POINT('Origin',(-79.0238243846361,-90.0000016987324,141.));
#1484=CARTESIAN_POINT('',(-97.6693151141917,-105.111112692106,146.));
#1485=CARTESIAN_POINT('',(-97.6693151141917,-105.111112692106,141.));
#1486=CARTESIAN_POINT('',(-79.0238243846361,-114.000001698732,146.));
#1487=CARTESIAN_POINT('Origin',(-79.0238243846361,-90.0000016987324,146.));
#1488=CARTESIAN_POINT('',(-79.0238243846361,-114.000001698732,141.));
#1489=CARTESIAN_POINT('Origin',(-89.0000013262033,-114.000001698732,141.));
#1490=CARTESIAN_POINT('',(-72.7875947375789,-114.000001698732,147.29860381256));
#1491=CARTESIAN_POINT('Origin',(-65.0000013262033,-114.000001698732,170.));
#1492=CARTESIAN_POINT('',(-72.7875947375789,-114.000001698732,141.));
#1493=CARTESIAN_POINT('',(-72.7875947375789,-114.000001698732,141.));
#1494=CARTESIAN_POINT('',(-89.0000013262033,-114.000001698732,141.));
#1495=CARTESIAN_POINT('',(-103.00000153482,-114.000001698732,146.));
#1496=CARTESIAN_POINT('',(-94.5000014081597,-114.000001698732,146.));
#1497=CARTESIAN_POINT('',(-103.00000153482,-114.000001698732,141.));
#1498=CARTESIAN_POINT('',(-103.00000153482,-114.000001698732,141.));
#1499=CARTESIAN_POINT('',(-111.000001654029,-114.000001698732,141.));
#1500=CARTESIAN_POINT('Origin',(-79.0238243846361,-160.000002026558,141.));
#1501=CARTESIAN_POINT('',(-79.0238243846361,-136.000002026558,146.));
#1502=CARTESIAN_POINT('',(-97.6693151141917,-144.888891033184,146.));
#1503=CARTESIAN_POINT('Origin',(-79.0238243846361,-160.000002026558,146.));
#1504=CARTESIAN_POINT('',(-97.6693151141917,-144.888891033184,141.));
#1505=CARTESIAN_POINT('',(-97.6693151141917,-144.888891033184,141.));
#1506=CARTESIAN_POINT('',(-79.0238243846361,-136.000002026558,141.));
#1507=CARTESIAN_POINT('Origin',(-79.0238243846361,-160.000002026558,141.));
#1508=CARTESIAN_POINT('',(-79.0238243846361,-136.000002026558,141.));
#1509=CARTESIAN_POINT('Origin',(-111.000001654029,-136.000002026558,141.));
#1510=CARTESIAN_POINT('',(-103.00000153482,-136.000002026558,141.));
#1511=CARTESIAN_POINT('',(-89.0000013262033,-136.000002026558,141.));
#1512=CARTESIAN_POINT('',(-103.00000153482,-136.000002026558,146.));
#1513=CARTESIAN_POINT('',(-103.00000153482,-136.000002026558,141.));
#1514=CARTESIAN_POINT('',(-105.500001572073,-136.000002026558,146.));
#1515=CARTESIAN_POINT('',(-72.7875947375789,-136.000002026558,141.));
#1516=CARTESIAN_POINT('',(-89.0000013262033,-136.000002026558,141.));
#1517=CARTESIAN_POINT('',(-72.7875947375789,-136.000002026558,146.));
#1518=CARTESIAN_POINT('',(-72.7875947375789,-136.000002026558,141.));
#1519=CARTESIAN_POINT('',(-44.0000006556511,-136.000002026558,146.));
#1520=CARTESIAN_POINT('',(-79.0000011771917,-136.000002026558,146.));
#1521=CARTESIAN_POINT('',(-44.0000006556511,-136.000002026558,175.));
#1522=CARTESIAN_POINT('',(-44.0000006556511,-136.000002026558,141.));
#1523=CARTESIAN_POINT('',(-65.0000013262033,-136.000002026558,175.));
#1524=CARTESIAN_POINT('',(-44.0000006556511,-136.000002026558,175.));
#1525=CARTESIAN_POINT('Origin',(-65.0000013262033,-136.000002026558,199.));
#1526=CARTESIAN_POINT('Origin',(-72.7875947375789,-90.0000016987324,141.));
#1527=CARTESIAN_POINT('',(-65.0000013262033,-112.701397886172,146.));
#1528=CARTESIAN_POINT('',(-49.8652889646649,-97.1111125861421,146.));
#1529=CARTESIAN_POINT('Origin',(-72.7875947375789,-90.0000016987324,146.));
#1530=CARTESIAN_POINT('',(-49.8652889646649,-97.1111125861421,141.));
#1531=CARTESIAN_POINT('',(-49.8652889646649,-97.1111125861421,141.));
#1532=CARTESIAN_POINT('Origin',(-72.7875947375789,-90.0000016987324,141.));
#1533=CARTESIAN_POINT('Ctrl Pts',(-72.7875947375789,-114.000001698732,147.29860381256));
#1534=CARTESIAN_POINT('Ctrl Pts',(-71.7964314598741,-114.000001698732,146.958590513496));
#1535=CARTESIAN_POINT('Ctrl Pts',(-70.7719399968251,-113.937669118221,146.680797345542));
#1536=CARTESIAN_POINT('Ctrl Pts',(-68.5992980618256,-113.659862061257,146.242733612576));
#1537=CARTESIAN_POINT('Ctrl Pts',(-67.4477548264846,-113.427149223606,146.098951474185));
#1538=CARTESIAN_POINT('Ctrl Pts',(-65.8807595689412,-112.989431638272,146.011933125138));
#1539=CARTESIAN_POINT('Ctrl Pts',(-65.4363312637185,-112.851078554203,146.));
#1540=CARTESIAN_POINT('Ctrl Pts',(-65.0000013261964,-112.70139788617,146.));
#1541=CARTESIAN_POINT('Origin',(-72.7875947375789,-160.000002026558,141.));
#1542=CARTESIAN_POINT('',(-49.8652889646649,-152.888891139148,141.));
#1543=CARTESIAN_POINT('Origin',(-72.7875947375789,-160.000002026558,141.));
#1544=CARTESIAN_POINT('',(-49.8652889646649,-152.888891139148,146.));
#1545=CARTESIAN_POINT('',(-49.8652889646649,-152.888891139148,141.));
#1546=CARTESIAN_POINT('Origin',(-72.7875947375789,-160.000002026558,146.));
#1547=CARTESIAN_POINT('Origin',(-65.0000013262033,-135.000002011657,199.));
#1548=CARTESIAN_POINT('',(-65.0000013262033,-132.000001966953,175.));
#1549=CARTESIAN_POINT('Origin',(-65.0000013262033,-132.000001966953,199.));
#1550=CARTESIAN_POINT('',(-65.0000013262033,-135.000002011657,175.));
#1551=CARTESIAN_POINT('Origin',(-65.0000013262033,-113.250001687557,170.));
#1552=CARTESIAN_POINT('',(-65.0000013262033,-118.000001758337,146.));
#1553=CARTESIAN_POINT('Origin',(-65.0000013262033,-118.000001758337,170.));
#1554=CARTESIAN_POINT('',(-65.0000013262033,-113.250001687557,146.));
#1555=CARTESIAN_POINT('Origin',(-66.5000009909272,-106.500001586974,146.));
#1556=CARTESIAN_POINT('',(-44.0000006556511,-118.000001758337,146.));
#1557=CARTESIAN_POINT('',(-44.0000006556511,-118.000001758337,146.));
#1558=CARTESIAN_POINT('',(-44.0000006556511,-98.0000014603138,146.));
#1559=CARTESIAN_POINT('',(-44.0000006556511,-98.0000014603138,146.));
#1560=CARTESIAN_POINT('Origin',(-47.0000007003546,-98.0000014603138,146.));
#1561=CARTESIAN_POINT('',(-45.9500007003546,-98.0000014603138,146.));
#1562=CARTESIAN_POINT('Origin',(-47.0000007003546,-98.0000014603138,146.));
#1563=CARTESIAN_POINT('Origin',(-44.0000006556511,-132.000001966953,141.));
#1564=CARTESIAN_POINT('',(-44.0000006556511,-132.000001966953,141.));
#1565=CARTESIAN_POINT('',(-89.0000013262033,-132.000001966953,141.));
#1566=CARTESIAN_POINT('',(-44.0000006556511,-132.000001966953,175.));
#1567=CARTESIAN_POINT('',(-89.0000013262033,-132.000001966953,175.));
#1568=CARTESIAN_POINT('',(-44.0000006556511,-132.000001966953,141.));
#1569=CARTESIAN_POINT('Origin',(-66.5000009909272,-134.000001996756,175.));
#1570=CARTESIAN_POINT('',(-44.0000006556511,-132.000001966953,175.));
#1571=CARTESIAN_POINT('Origin',(-100.000001490116,-143.000002130866,141.));
#1572=CARTESIAN_POINT('',(-98.9500014901161,-143.000002130866,146.));
#1573=CARTESIAN_POINT('Origin',(-100.000001490116,-143.000002130866,146.));
#1574=CARTESIAN_POINT('',(-98.9500014901161,-143.000002130866,141.));
#1575=CARTESIAN_POINT('',(-98.9500014901161,-143.000002130866,141.));
#1576=CARTESIAN_POINT('Origin',(-100.000001490116,-143.000002130866,141.));
#1577=CARTESIAN_POINT('Origin',(-103.00000153482,-136.000002026558,141.));
#1578=CARTESIAN_POINT('',(-103.00000153482,-143.000002130866,141.));
#1579=CARTESIAN_POINT('',(-103.00000153482,-143.000002130866,141.));
#1580=CARTESIAN_POINT('',(-103.00000153482,-143.000002130866,146.));
#1581=CARTESIAN_POINT('',(-103.00000153482,-143.000002130866,141.));
#1582=CARTESIAN_POINT('',(-103.00000153482,-143.000002130866,146.));
#1583=CARTESIAN_POINT('Origin',(-100.000001490116,-143.000002130866,141.));
#1584=CARTESIAN_POINT('',(-100.96651066987,-145.840047953326,146.));
#1585=CARTESIAN_POINT('Origin',(-100.000001490116,-143.000002130866,146.));
#1586=CARTESIAN_POINT('',(-100.96651066987,-145.840047953326,141.));
#1587=CARTESIAN_POINT('',(-100.96651066987,-145.840047953326,141.));
#1588=CARTESIAN_POINT('Origin',(-100.000001490116,-143.000002130866,141.));
#1589=CARTESIAN_POINT('Ctrl Pts',(-102.185678388517,-145.054951464552,141.));
#1590=CARTESIAN_POINT('Ctrl Pts',(-101.58779723501,-145.454041989542,141.));
#1591=CARTESIAN_POINT('Ctrl Pts',(-100.96651066987,-145.840047953326,141.));
#1592=CARTESIAN_POINT('Ctrl Pts',(-102.185678388517,-145.054951464552,146.));
#1593=CARTESIAN_POINT('Ctrl Pts',(-101.58779723501,-145.454041989542,146.));
#1594=CARTESIAN_POINT('Ctrl Pts',(-100.96651066987,-145.840047953326,146.));
#1595=CARTESIAN_POINT('',(-102.185678388517,-145.054951464552,141.));
#1596=CARTESIAN_POINT('Origin',(-65.,-125.,141.));
#1597=CARTESIAN_POINT('',(-102.185678388517,-145.054951464552,146.));
#1598=CARTESIAN_POINT('Origin',(-65.,-125.,146.));
#1599=CARTESIAN_POINT('',(-102.185678388517,-145.054951464552,141.));
#1600=CARTESIAN_POINT('Origin',(-100.000001490116,-143.000002130866,141.));
#1601=CARTESIAN_POINT('Origin',(-100.000001490116,-143.000002130866,141.));
#1602=CARTESIAN_POINT('Origin',(-100.000001490116,-143.000002130866,146.));
#1603=CARTESIAN_POINT('Origin',(-100.000001490116,-141.000002101064,146.));
#1604=CARTESIAN_POINT('Origin',(-47.0000007003546,-98.0000014603138,141.));
#1605=CARTESIAN_POINT('',(-45.9500007003546,-98.0000014603138,141.));
#1606=CARTESIAN_POINT('',(-45.9500007003546,-98.0000014603138,141.));
#1607=CARTESIAN_POINT('Origin',(-47.0000007003546,-98.0000014603138,141.));
#1608=CARTESIAN_POINT('Origin',(-89.0000013262033,-118.000001758337,141.));
#1609=CARTESIAN_POINT('',(-44.0000006556511,-118.000001758337,141.));
#1610=CARTESIAN_POINT('',(-44.0000006556511,-118.000001758337,141.));
#1611=CARTESIAN_POINT('',(-44.0000006556511,-118.000001758337,141.));
#1612=CARTESIAN_POINT('Origin',(-47.0000007003546,-98.0000014603138,141.));
#1613=CARTESIAN_POINT('',(-44.0000006556511,-98.0000014603138,141.));
#1614=CARTESIAN_POINT('',(-44.0000006556511,-98.0000014603138,141.));
#1615=CARTESIAN_POINT('Origin',(-47.0000007003546,-98.0000014603138,141.));
#1616=CARTESIAN_POINT('Origin',(-44.0000006556511,-118.000001758337,141.));
#1617=CARTESIAN_POINT('',(-44.0000006556511,-98.0000014603138,141.));
#1618=CARTESIAN_POINT('Origin',(-100.000001490116,-107.000001594424,141.));
#1619=CARTESIAN_POINT('',(-98.9500014901161,-107.000001594424,146.));
#1620=CARTESIAN_POINT('Origin',(-100.000001490116,-107.000001594424,146.));
#1621=CARTESIAN_POINT('',(-98.9500014901161,-107.000001594424,141.));
#1622=CARTESIAN_POINT('',(-98.9500014901161,-107.000001594424,141.));
#1623=CARTESIAN_POINT('Origin',(-100.000001490116,-107.000001594424,141.));
#1624=CARTESIAN_POINT('Origin',(-103.00000153482,-107.000001594424,141.));
#1625=CARTESIAN_POINT('',(-103.00000153482,-107.000001594424,141.));
#1626=CARTESIAN_POINT('',(-103.00000153482,-107.000001594424,141.));
#1627=CARTESIAN_POINT('',(-103.00000153482,-107.000001594424,146.));
#1628=CARTESIAN_POINT('',(-103.00000153482,-107.000001594424,146.));
#1629=CARTESIAN_POINT('',(-103.00000153482,-107.000001594424,141.));
#1630=CARTESIAN_POINT('Origin',(-100.000001490116,-107.000001594424,141.));
#1631=CARTESIAN_POINT('',(-102.185668983668,-104.945042257637,141.));
#1632=CARTESIAN_POINT('Origin',(-100.000001490116,-107.000001594424,141.));
#1633=CARTESIAN_POINT('',(-102.185668983668,-104.945042257637,146.));
#1634=CARTESIAN_POINT('Origin',(-100.000001490116,-107.000001594424,146.));
#1635=CARTESIAN_POINT('',(-102.185668983668,-104.945042257637,141.));
#1636=CARTESIAN_POINT('Ctrl Pts',(-100.966523927886,-104.159960283896,141.));
#1637=CARTESIAN_POINT('Ctrl Pts',(-101.587798728257,-104.545959233074,141.));
#1638=CARTESIAN_POINT('Ctrl Pts',(-102.185668983668,-104.945042257637,141.));
#1639=CARTESIAN_POINT('Ctrl Pts',(-100.966523927886,-104.159960283896,146.));
#1640=CARTESIAN_POINT('Ctrl Pts',(-101.587798728257,-104.545959233074,146.));
#1641=CARTESIAN_POINT('Ctrl Pts',(-102.185668983668,-104.945042257637,146.));
#1642=CARTESIAN_POINT('',(-100.966523927886,-104.159960283896,141.));
#1643=CARTESIAN_POINT('Origin',(-65.,-125.,141.));
#1644=CARTESIAN_POINT('',(-100.966523927886,-104.159960283896,146.));
#1645=CARTESIAN_POINT('Origin',(-65.,-125.,146.));
#1646=CARTESIAN_POINT('',(-100.966523927886,-104.159960283896,141.));
#1647=CARTESIAN_POINT('Origin',(-100.000001490116,-107.000001594424,141.));
#1648=CARTESIAN_POINT('Origin',(-100.000001490116,-107.000001594424,141.));
#1649=CARTESIAN_POINT('Origin',(-100.000001490116,-107.000001594424,146.));
#1650=CARTESIAN_POINT('Origin',(-100.000001490116,-109.000001624227,146.));
#1651=CARTESIAN_POINT('Origin',(-105.000001564622,-120.000001788139,141.));
#1652=CARTESIAN_POINT('',(-105.000001564622,-120.000001788139,141.));
#1653=CARTESIAN_POINT('',(-105.000001564622,-120.000001788139,141.));
#1654=CARTESIAN_POINT('',(-105.000001564622,-120.000001788139,141.));
#1655=CARTESIAN_POINT('Origin',(-105.000001564622,-130.000001937151,141.));
#1656=CARTESIAN_POINT('',(-105.000001564622,-130.000001937151,141.));
#1657=CARTESIAN_POINT('Origin',(-100.000001490116,-125.000001862645,141.));
#1658=CARTESIAN_POINT('',(-44.0000006556511,-152.000002264977,141.));
#1659=CARTESIAN_POINT('',(-44.0000006556511,-152.000002264977,141.));
#1660=CARTESIAN_POINT('Origin',(-47.0000007003546,-152.000002264977,141.));
#1661=CARTESIAN_POINT('',(-45.9500007003546,-152.000002264977,141.));
#1662=CARTESIAN_POINT('Origin',(-47.0000007003546,-152.000002264977,141.));
#1663=CARTESIAN_POINT('Origin',(-47.0000007003546,-152.000002264977,141.));
#1664=CARTESIAN_POINT('',(-45.9500007003546,-152.000002264977,146.));
#1665=CARTESIAN_POINT('Origin',(-47.0000007003546,-152.000002264977,146.));
#1666=CARTESIAN_POINT('',(-45.9500007003546,-152.000002264977,141.));
#1667=CARTESIAN_POINT('Origin',(-44.0000006556511,-152.000002264977,141.));
#1668=CARTESIAN_POINT('',(-44.0000006556511,-152.000002264977,146.));
#1669=CARTESIAN_POINT('',(-44.0000006556511,-152.000002264977,146.));
#1670=CARTESIAN_POINT('',(-44.0000006556511,-152.000002264977,141.));
#1671=CARTESIAN_POINT('Origin',(-47.0000007003546,-152.000002264977,141.));
#1672=CARTESIAN_POINT('Origin',(-47.0000007003546,-152.000002264977,146.));
#1673=CARTESIAN_POINT('Origin',(-47.0000007003546,-145.500002168119,146.));
#1674=UNCERTAINTY_MEASURE_WITH_UNIT(LENGTH_MEASURE(0.01),#1678,
'DISTANCE_ACCURACY_VALUE',
'Maximum model space distance between geometric entities at asserted c
onnectivities');
#1675=UNCERTAINTY_MEASURE_WITH_UNIT(LENGTH_MEASURE(0.01),#1678,
'DISTANCE_ACCURACY_VALUE',
'Maximum model space distance between geometric entities at asserted c
onnectivities');
#1676=(
GEOMETRIC_REPRESENTATION_CONTEXT(3)
GLOBAL_UNCERTAINTY_ASSIGNED_CONTEXT((#1674))
GLOBAL_UNIT_ASSIGNED_CONTEXT((#1678,#1680,#1681))
REPRESENTATION_CONTEXT('','3D')
);
#1677=(
GEOMETRIC_REPRESENTATION_CONTEXT(3)
GLOBAL_UNCERTAINTY_ASSIGNED_CONTEXT((#1675))
GLOBAL_UNIT_ASSIGNED_CONTEXT((#1678,#1680,#1681))
REPRESENTATION_CONTEXT('','3D')
);
#1678=(
LENGTH_UNIT()
NAMED_UNIT(*)
SI_UNIT(.MILLI.,.METRE.)
);
#1679=(
LENGTH_UNIT()
NAMED_UNIT(*)
SI_UNIT($,.METRE.)
);
#1680=(
NAMED_UNIT(*)
PLANE_ANGLE_UNIT()
SI_UNIT($,.RADIAN.)
);
#1681=(
NAMED_UNIT(*)
SI_UNIT($,.STERADIAN.)
SOLID_ANGLE_UNIT()
);
#1682=SHAPE_DEFINITION_REPRESENTATION(#1683,#1684);
#1683=PRODUCT_DEFINITION_SHAPE('',$,#1686);
#1684=SHAPE_REPRESENTATION('',(#990),#1676);
#1685=PRODUCT_DEFINITION_CONTEXT('part definition',#1690,'design');
#1686=PRODUCT_DEFINITION('2025-08-01-13-33-04-305','zpos_2',#1687,#1685);
#1687=PRODUCT_DEFINITION_FORMATION('',$,#1692);
#1688=PRODUCT_RELATED_PRODUCT_CATEGORY('zpos_2','zpos_2',(#1692));
#1689=APPLICATION_PROTOCOL_DEFINITION('international standard',
'automotive_design',2009,#1690);
#1690=APPLICATION_CONTEXT(
'Core Data for Automotive Mechanical Design Process');
#1691=PRODUCT_CONTEXT('part definition',#1690,'mechanical');
#1692=PRODUCT('2025-08-01-13-33-04-305','zpos_2',$,(#1691));
#1693=PRESENTATION_STYLE_ASSIGNMENT((#1695));
#1694=PRESENTATION_STYLE_ASSIGNMENT((#1696));
#1695=SURFACE_STYLE_USAGE(.BOTH.,#1697);
#1696=SURFACE_STYLE_USAGE(.BOTH.,#1698);
#1697=SURFACE_SIDE_STYLE('',(#1699));
#1698=SURFACE_SIDE_STYLE('',(#1700));
#1699=SURFACE_STYLE_FILL_AREA(#1701);
#1700=SURFACE_STYLE_FILL_AREA(#1702);
#1701=FILL_AREA_STYLE('Steel - Satin',(#1703));
#1702=FILL_AREA_STYLE('Sunflower yellow PLA',(#1704));
#1703=FILL_AREA_STYLE_COLOUR('Steel - Satin',#1705);
#1704=FILL_AREA_STYLE_COLOUR('Sunflower yellow PLA',#1706);
#1705=COLOUR_RGB('Steel - Satin',0.627450980392157,0.627450980392157,0.627450980392157);
#1706=COLOUR_RGB('Sunflower yellow PLA',1.,0.733333333333333,0.);
ENDSEC;
END-ISO-10303-21;
