ISO-10303-21;
HEADER;
/* Generated by software containing ST-Developer
 * from STEP Tools, Inc. (www.steptools.com) 
 */

FILE_DESCRIPTION(
/* description */ (''),
/* implementation_level */ '2;1');

FILE_NAME(
/* name */ 'link1_1.step',
/* time_stamp */ '2025-07-30T21:06:11+01:00',
/* author */ (''),
/* organization */ (''),
/* preprocessor_version */ 'ST-DEVELOPER v20.1',
/* originating_system */ 'Autodesk Translation Framework v14.10.0.0',
/* authorisation */ '');

FILE_SCHEMA (('AUTOMOTIVE_DESIGN { 1 0 10303 214 3 1 1 }'));
ENDSEC;

DATA;
#10=MECHANICAL_DESIGN_GEOMETRIC_PRESENTATION_REPRESENTATION('',(#13),#566);
#11=SHAPE_REPRESENTATION_RELATIONSHIP('SRR','None',#573,#12);
#12=ADVANCED_BREP_SHAPE_REPRESENTATION('',(#14),#565);
#13=STYLED_ITEM('',(#583),#14);
#14=MANIFOLD_SOLID_BREP('Body1',#270);
#15=TOROIDAL_SURFACE('',#301,32.0000005215406,3.);
#16=PLANE('',#290);
#17=PLANE('',#294);
#18=PLANE('',#295);
#19=PLANE('',#304);
#20=PLANE('',#305);
#21=FACE_BOUND('',#68,.T.);
#22=FACE_BOUND('',#69,.T.);
#23=FACE_BOUND('',#71,.T.);
#24=FACE_BOUND('',#73,.T.);
#25=FACE_BOUND('',#75,.T.);
#26=FACE_BOUND('',#77,.T.);
#27=FACE_BOUND('',#78,.T.);
#28=FACE_BOUND('',#79,.T.);
#29=FACE_BOUND('',#80,.T.);
#30=FACE_BOUND('',#81,.T.);
#31=FACE_BOUND('',#85,.T.);
#32=FACE_BOUND('',#86,.T.);
#33=FACE_BOUND('',#87,.T.);
#34=FACE_BOUND('',#88,.T.);
#35=CIRCLE('',#286,1.9);
#36=CIRCLE('',#288,10.0000001490116);
#37=CIRCLE('',#289,10.0000001490116);
#38=CIRCLE('',#292,3.19999992847443);
#39=CIRCLE('',#293,3.19999992847443);
#40=CIRCLE('',#296,32.0000005215406);
#41=CIRCLE('',#297,1.05);
#42=CIRCLE('',#298,1.05);
#43=CIRCLE('',#299,1.05);
#44=CIRCLE('',#300,1.05);
#45=CIRCLE('',#302,3.);
#46=CIRCLE('',#303,35.0000005215406);
#47=CIRCLE('',#306,1.05);
#48=CIRCLE('',#307,1.05);
#49=CIRCLE('',#308,1.05);
#50=CIRCLE('',#309,1.05);
#51=FACE_OUTER_BOUND('',#65,.T.);
#52=FACE_OUTER_BOUND('',#66,.T.);
#53=FACE_OUTER_BOUND('',#67,.T.);
#54=FACE_OUTER_BOUND('',#70,.T.);
#55=FACE_OUTER_BOUND('',#72,.T.);
#56=FACE_OUTER_BOUND('',#74,.T.);
#57=FACE_OUTER_BOUND('',#76,.T.);
#58=FACE_OUTER_BOUND('',#82,.T.);
#59=FACE_OUTER_BOUND('',#83,.T.);
#60=FACE_OUTER_BOUND('',#84,.T.);
#61=FACE_OUTER_BOUND('',#89,.T.);
#62=FACE_OUTER_BOUND('',#90,.T.);
#63=FACE_OUTER_BOUND('',#91,.T.);
#64=FACE_OUTER_BOUND('',#92,.T.);
#65=EDGE_LOOP('',(#180,#181,#182,#183,#184,#185));
#66=EDGE_LOOP('',(#186,#187,#188,#189,#190,#191));
#67=EDGE_LOOP('',(#192,#193,#194,#195));
#68=EDGE_LOOP('',(#196,#197,#198));
#69=EDGE_LOOP('',(#199,#200,#201));
#70=EDGE_LOOP('',(#202,#203,#204,#205));
#71=EDGE_LOOP('',(#206));
#72=EDGE_LOOP('',(#207,#208,#209,#210));
#73=EDGE_LOOP('',(#211));
#74=EDGE_LOOP('',(#212));
#75=EDGE_LOOP('',(#213,#214));
#76=EDGE_LOOP('',(#215));
#77=EDGE_LOOP('',(#216));
#78=EDGE_LOOP('',(#217));
#79=EDGE_LOOP('',(#218));
#80=EDGE_LOOP('',(#219));
#81=EDGE_LOOP('',(#220));
#82=EDGE_LOOP('',(#221,#222,#223,#224));
#83=EDGE_LOOP('',(#225,#226));
#84=EDGE_LOOP('',(#227));
#85=EDGE_LOOP('',(#228));
#86=EDGE_LOOP('',(#229));
#87=EDGE_LOOP('',(#230));
#88=EDGE_LOOP('',(#231));
#89=EDGE_LOOP('',(#232,#233,#234,#235));
#90=EDGE_LOOP('',(#236,#237,#238,#239));
#91=EDGE_LOOP('',(#240,#241,#242,#243));
#92=EDGE_LOOP('',(#244,#245,#246,#247));
#93=LINE('',#431,#104);
#94=LINE('',#470,#105);
#95=LINE('',#515,#106);
#96=LINE('',#520,#107);
#97=LINE('',#522,#108);
#98=LINE('',#524,#109);
#99=LINE('',#525,#110);
#100=LINE('',#556,#111);
#101=LINE('',#558,#112);
#102=LINE('',#560,#113);
#103=LINE('',#562,#114);
#104=VECTOR('',#318,1.9);
#105=VECTOR('',#323,1.9);
#106=VECTOR('',#328,10.0000001490116);
#107=VECTOR('',#333,10.);
#108=VECTOR('',#334,10.);
#109=VECTOR('',#335,10.);
#110=VECTOR('',#336,10.);
#111=VECTOR('',#377,1.05);
#112=VECTOR('',#380,1.05);
#113=VECTOR('',#383,1.05);
#114=VECTOR('',#386,1.05);
#115=B_SPLINE_CURVE_WITH_KNOTS('',3,(#391,#392,#393,#394,#395,#396,#397,
#398,#399,#400),.UNSPECIFIED.,.F.,.F.,(4,2,2,2,4),(0.861100602041107,0.932857354074982,
1.00461410610886,1.07637412108183,1.14813413605481),.UNSPECIFIED.);
#116=B_SPLINE_CURVE_WITH_KNOTS('',3,(#402,#403,#404,#405,#406,#407,#408,
#409,#410,#411,#412,#413,#414,#415,#416,#417,#418,#419),.UNSPECIFIED.,.F.,
 .F.,(4,2,2,2,2,2,2,2,4),(0.287033534013702,0.358790286047578,0.430547038081453,
0.502307053054429,0.574067068027404,0.64582708300038,0.717587097973356,
0.789343850007231,0.861100602041107),.UNSPECIFIED.);
#117=B_SPLINE_CURVE_WITH_KNOTS('',3,(#420,#421,#422,#423,#424,#425,#426,
#427,#428,#429),.UNSPECIFIED.,.F.,.F.,(4,2,2,2,4),(1.14813413605481,1.21989415102779,
1.29165416600076,1.36341091803464,1.43516767006851),.UNSPECIFIED.);
#118=B_SPLINE_CURVE_WITH_KNOTS('',3,(#432,#433,#434,#435,#436,#437,#438,
#439,#440,#441,#442,#443,#444,#445,#446,#447,#448,#449,#450,#451,#452,#453,
#454,#455,#456,#457,#458,#459,#460,#461,#462,#463,#464,#465),
 .UNSPECIFIED.,.T.,.F.,(4,2,2,2,2,2,2,2,2,2,2,2,2,2,2,2,4),(0.,0.0740039885683715,
0.148007977136743,0.221558368761878,0.295108760387013,0.368659152012148,
0.442209543637282,0.516213532205654,0.590217520774026,0.664221509342397,
0.738225497910769,0.811775889535904,0.885326281161038,0.958876672786173,
1.03242706441131,1.10643105297968,1.18043504154805),.UNSPECIFIED.);
#119=B_SPLINE_CURVE_WITH_KNOTS('',3,(#472,#473,#474,#475,#476,#477,#478,
#479,#480,#481),.UNSPECIFIED.,.F.,.F.,(4,2,2,2,4),(0.861100602041108,0.932857354074983,
1.00461410610886,1.07637412108183,1.14813413605481),.UNSPECIFIED.);
#120=B_SPLINE_CURVE_WITH_KNOTS('',3,(#483,#484,#485,#486,#487,#488,#489,
#490,#491,#492,#493,#494,#495,#496,#497,#498,#499,#500),.UNSPECIFIED.,.F.,
 .F.,(4,2,2,2,2,2,2,2,4),(0.287033534013703,0.358790286047579,0.430547038081454,
0.50230705305443,0.574067068027405,0.645827083000381,0.717587097973357,
0.789343850007232,0.861100602041108),.UNSPECIFIED.);
#121=B_SPLINE_CURVE_WITH_KNOTS('',3,(#501,#502,#503,#504,#505,#506,#507,
#508,#509,#510),.UNSPECIFIED.,.F.,.F.,(4,2,2,2,4),(1.14813413605481,1.21989415102779,
1.29165416600076,1.36341091803464,1.43516767006851),.UNSPECIFIED.);
#122=VERTEX_POINT('',#389);
#123=VERTEX_POINT('',#390);
#124=VERTEX_POINT('',#401);
#125=VERTEX_POINT('',#430);
#126=VERTEX_POINT('',#467);
#127=VERTEX_POINT('',#469);
#128=VERTEX_POINT('',#471);
#129=VERTEX_POINT('',#482);
#130=VERTEX_POINT('',#512);
#131=VERTEX_POINT('',#514);
#132=VERTEX_POINT('',#518);
#133=VERTEX_POINT('',#519);
#134=VERTEX_POINT('',#521);
#135=VERTEX_POINT('',#523);
#136=VERTEX_POINT('',#531);
#137=VERTEX_POINT('',#533);
#138=VERTEX_POINT('',#535);
#139=VERTEX_POINT('',#537);
#140=VERTEX_POINT('',#539);
#141=VERTEX_POINT('',#542);
#142=VERTEX_POINT('',#547);
#143=VERTEX_POINT('',#549);
#144=VERTEX_POINT('',#551);
#145=VERTEX_POINT('',#553);
#146=EDGE_CURVE('',#122,#123,#115,.T.);
#147=EDGE_CURVE('',#124,#122,#116,.T.);
#148=EDGE_CURVE('',#123,#124,#117,.T.);
#149=EDGE_CURVE('',#123,#125,#93,.T.);
#150=EDGE_CURVE('',#125,#125,#118,.T.);
#151=EDGE_CURVE('',#126,#126,#35,.T.);
#152=EDGE_CURVE('',#126,#127,#94,.T.);
#153=EDGE_CURVE('',#128,#127,#119,.T.);
#154=EDGE_CURVE('',#129,#128,#120,.T.);
#155=EDGE_CURVE('',#127,#129,#121,.T.);
#156=EDGE_CURVE('',#130,#130,#36,.T.);
#157=EDGE_CURVE('',#130,#131,#95,.T.);
#158=EDGE_CURVE('',#131,#131,#37,.T.);
#159=EDGE_CURVE('',#132,#133,#96,.T.);
#160=EDGE_CURVE('',#132,#134,#97,.T.);
#161=EDGE_CURVE('',#135,#134,#98,.T.);
#162=EDGE_CURVE('',#133,#135,#99,.T.);
#163=EDGE_CURVE('',#133,#132,#38,.T.);
#164=EDGE_CURVE('',#134,#135,#39,.T.);
#165=EDGE_CURVE('',#136,#136,#40,.T.);
#166=EDGE_CURVE('',#137,#137,#41,.T.);
#167=EDGE_CURVE('',#138,#138,#42,.T.);
#168=EDGE_CURVE('',#139,#139,#43,.T.);
#169=EDGE_CURVE('',#140,#140,#44,.T.);
#170=EDGE_CURVE('',#136,#141,#45,.T.);
#171=EDGE_CURVE('',#141,#141,#46,.T.);
#172=EDGE_CURVE('',#142,#142,#47,.T.);
#173=EDGE_CURVE('',#143,#143,#48,.T.);
#174=EDGE_CURVE('',#144,#144,#49,.T.);
#175=EDGE_CURVE('',#145,#145,#50,.T.);
#176=EDGE_CURVE('',#140,#145,#100,.T.);
#177=EDGE_CURVE('',#139,#144,#101,.T.);
#178=EDGE_CURVE('',#138,#143,#102,.T.);
#179=EDGE_CURVE('',#137,#142,#103,.T.);
#180=ORIENTED_EDGE('',*,*,#146,.F.);
#181=ORIENTED_EDGE('',*,*,#147,.F.);
#182=ORIENTED_EDGE('',*,*,#148,.F.);
#183=ORIENTED_EDGE('',*,*,#149,.T.);
#184=ORIENTED_EDGE('',*,*,#150,.F.);
#185=ORIENTED_EDGE('',*,*,#149,.F.);
#186=ORIENTED_EDGE('',*,*,#151,.F.);
#187=ORIENTED_EDGE('',*,*,#152,.T.);
#188=ORIENTED_EDGE('',*,*,#153,.F.);
#189=ORIENTED_EDGE('',*,*,#154,.F.);
#190=ORIENTED_EDGE('',*,*,#155,.F.);
#191=ORIENTED_EDGE('',*,*,#152,.F.);
#192=ORIENTED_EDGE('',*,*,#156,.F.);
#193=ORIENTED_EDGE('',*,*,#157,.T.);
#194=ORIENTED_EDGE('',*,*,#158,.F.);
#195=ORIENTED_EDGE('',*,*,#157,.F.);
#196=ORIENTED_EDGE('',*,*,#147,.T.);
#197=ORIENTED_EDGE('',*,*,#146,.T.);
#198=ORIENTED_EDGE('',*,*,#148,.T.);
#199=ORIENTED_EDGE('',*,*,#154,.T.);
#200=ORIENTED_EDGE('',*,*,#153,.T.);
#201=ORIENTED_EDGE('',*,*,#155,.T.);
#202=ORIENTED_EDGE('',*,*,#159,.F.);
#203=ORIENTED_EDGE('',*,*,#160,.T.);
#204=ORIENTED_EDGE('',*,*,#161,.F.);
#205=ORIENTED_EDGE('',*,*,#162,.F.);
#206=ORIENTED_EDGE('',*,*,#151,.T.);
#207=ORIENTED_EDGE('',*,*,#163,.F.);
#208=ORIENTED_EDGE('',*,*,#162,.T.);
#209=ORIENTED_EDGE('',*,*,#164,.F.);
#210=ORIENTED_EDGE('',*,*,#160,.F.);
#211=ORIENTED_EDGE('',*,*,#150,.T.);
#212=ORIENTED_EDGE('',*,*,#156,.T.);
#213=ORIENTED_EDGE('',*,*,#164,.T.);
#214=ORIENTED_EDGE('',*,*,#161,.T.);
#215=ORIENTED_EDGE('',*,*,#165,.F.);
#216=ORIENTED_EDGE('',*,*,#166,.T.);
#217=ORIENTED_EDGE('',*,*,#167,.T.);
#218=ORIENTED_EDGE('',*,*,#168,.T.);
#219=ORIENTED_EDGE('',*,*,#169,.T.);
#220=ORIENTED_EDGE('',*,*,#158,.T.);
#221=ORIENTED_EDGE('',*,*,#165,.T.);
#222=ORIENTED_EDGE('',*,*,#170,.T.);
#223=ORIENTED_EDGE('',*,*,#171,.T.);
#224=ORIENTED_EDGE('',*,*,#170,.F.);
#225=ORIENTED_EDGE('',*,*,#159,.T.);
#226=ORIENTED_EDGE('',*,*,#163,.T.);
#227=ORIENTED_EDGE('',*,*,#171,.F.);
#228=ORIENTED_EDGE('',*,*,#172,.F.);
#229=ORIENTED_EDGE('',*,*,#173,.F.);
#230=ORIENTED_EDGE('',*,*,#174,.F.);
#231=ORIENTED_EDGE('',*,*,#175,.F.);
#232=ORIENTED_EDGE('',*,*,#169,.F.);
#233=ORIENTED_EDGE('',*,*,#176,.T.);
#234=ORIENTED_EDGE('',*,*,#175,.T.);
#235=ORIENTED_EDGE('',*,*,#176,.F.);
#236=ORIENTED_EDGE('',*,*,#168,.F.);
#237=ORIENTED_EDGE('',*,*,#177,.T.);
#238=ORIENTED_EDGE('',*,*,#174,.T.);
#239=ORIENTED_EDGE('',*,*,#177,.F.);
#240=ORIENTED_EDGE('',*,*,#167,.F.);
#241=ORIENTED_EDGE('',*,*,#178,.T.);
#242=ORIENTED_EDGE('',*,*,#173,.T.);
#243=ORIENTED_EDGE('',*,*,#178,.F.);
#244=ORIENTED_EDGE('',*,*,#166,.F.);
#245=ORIENTED_EDGE('',*,*,#179,.T.);
#246=ORIENTED_EDGE('',*,*,#172,.T.);
#247=ORIENTED_EDGE('',*,*,#179,.F.);
#248=CYLINDRICAL_SURFACE('',#284,1.9);
#249=CYLINDRICAL_SURFACE('',#285,1.9);
#250=CYLINDRICAL_SURFACE('',#287,10.0000001490116);
#251=CYLINDRICAL_SURFACE('',#291,3.19999992847443);
#252=CYLINDRICAL_SURFACE('',#310,1.05);
#253=CYLINDRICAL_SURFACE('',#311,1.05);
#254=CYLINDRICAL_SURFACE('',#312,1.05);
#255=CYLINDRICAL_SURFACE('',#313,1.05);
#256=ADVANCED_FACE('',(#51),#248,.F.);
#257=ADVANCED_FACE('',(#52),#249,.F.);
#258=ADVANCED_FACE('',(#53,#21,#22),#250,.T.);
#259=ADVANCED_FACE('',(#54,#23),#16,.T.);
#260=ADVANCED_FACE('',(#55,#24),#251,.F.);
#261=ADVANCED_FACE('',(#56,#25),#17,.T.);
#262=ADVANCED_FACE('',(#57,#26,#27,#28,#29,#30),#18,.T.);
#263=ADVANCED_FACE('',(#58),#15,.T.);
#264=ADVANCED_FACE('',(#59),#19,.T.);
#265=ADVANCED_FACE('',(#60,#31,#32,#33,#34),#20,.F.);
#266=ADVANCED_FACE('',(#61),#252,.F.);
#267=ADVANCED_FACE('',(#62),#253,.F.);
#268=ADVANCED_FACE('',(#63),#254,.F.);
#269=ADVANCED_FACE('',(#64),#255,.F.);
#270=CLOSED_SHELL('',(#256,#257,#258,#259,#260,#261,#262,#263,#264,#265,
#266,#267,#268,#269));
#271=DERIVED_UNIT_ELEMENT(#273,1.);
#272=DERIVED_UNIT_ELEMENT(#568,-3.);
#273=(
MASS_UNIT()
NAMED_UNIT(*)
SI_UNIT(.KILO.,.GRAM.)
);
#274=DERIVED_UNIT((#271,#272));
#275=MEASURE_REPRESENTATION_ITEM('density measure',
POSITIVE_RATIO_MEASURE(7850.),#274);
#276=PROPERTY_DEFINITION_REPRESENTATION(#281,#278);
#277=PROPERTY_DEFINITION_REPRESENTATION(#282,#279);
#278=REPRESENTATION('material name',(#280),#565);
#279=REPRESENTATION('density',(#275),#565);
#280=DESCRIPTIVE_REPRESENTATION_ITEM('Steel','Steel');
#281=PROPERTY_DEFINITION('material property','material name',#575);
#282=PROPERTY_DEFINITION('material property','density of part',#575);
#283=AXIS2_PLACEMENT_3D('',#387,#314,#315);
#284=AXIS2_PLACEMENT_3D('',#388,#316,#317);
#285=AXIS2_PLACEMENT_3D('',#466,#319,#320);
#286=AXIS2_PLACEMENT_3D('',#468,#321,#322);
#287=AXIS2_PLACEMENT_3D('',#511,#324,#325);
#288=AXIS2_PLACEMENT_3D('',#513,#326,#327);
#289=AXIS2_PLACEMENT_3D('',#516,#329,#330);
#290=AXIS2_PLACEMENT_3D('',#517,#331,#332);
#291=AXIS2_PLACEMENT_3D('',#526,#337,#338);
#292=AXIS2_PLACEMENT_3D('',#527,#339,#340);
#293=AXIS2_PLACEMENT_3D('',#528,#341,#342);
#294=AXIS2_PLACEMENT_3D('',#529,#343,#344);
#295=AXIS2_PLACEMENT_3D('',#530,#345,#346);
#296=AXIS2_PLACEMENT_3D('',#532,#347,#348);
#297=AXIS2_PLACEMENT_3D('',#534,#349,#350);
#298=AXIS2_PLACEMENT_3D('',#536,#351,#352);
#299=AXIS2_PLACEMENT_3D('',#538,#353,#354);
#300=AXIS2_PLACEMENT_3D('',#540,#355,#356);
#301=AXIS2_PLACEMENT_3D('',#541,#357,#358);
#302=AXIS2_PLACEMENT_3D('',#543,#359,#360);
#303=AXIS2_PLACEMENT_3D('',#544,#361,#362);
#304=AXIS2_PLACEMENT_3D('',#545,#363,#364);
#305=AXIS2_PLACEMENT_3D('',#546,#365,#366);
#306=AXIS2_PLACEMENT_3D('',#548,#367,#368);
#307=AXIS2_PLACEMENT_3D('',#550,#369,#370);
#308=AXIS2_PLACEMENT_3D('',#552,#371,#372);
#309=AXIS2_PLACEMENT_3D('',#554,#373,#374);
#310=AXIS2_PLACEMENT_3D('',#555,#375,#376);
#311=AXIS2_PLACEMENT_3D('',#557,#378,#379);
#312=AXIS2_PLACEMENT_3D('',#559,#381,#382);
#313=AXIS2_PLACEMENT_3D('',#561,#384,#385);
#314=DIRECTION('axis',(0.,0.,1.));
#315=DIRECTION('refdir',(1.,0.,0.));
#316=DIRECTION('center_axis',(0.,1.,0.));
#317=DIRECTION('ref_axis',(1.,0.,0.));
#318=DIRECTION('',(0.,1.,0.));
#319=DIRECTION('center_axis',(0.,1.,0.));
#320=DIRECTION('ref_axis',(1.,0.,0.));
#321=DIRECTION('center_axis',(0.,1.,0.));
#322=DIRECTION('ref_axis',(1.,0.,0.));
#323=DIRECTION('',(0.,1.,0.));
#324=DIRECTION('center_axis',(0.,0.,1.));
#325=DIRECTION('ref_axis',(-1.,0.,0.));
#326=DIRECTION('center_axis',(0.,0.,1.));
#327=DIRECTION('ref_axis',(-1.,0.,0.));
#328=DIRECTION('',(0.,0.,-1.));
#329=DIRECTION('center_axis',(0.,0.,-1.));
#330=DIRECTION('ref_axis',(-1.,0.,0.));
#331=DIRECTION('center_axis',(0.,-1.,0.));
#332=DIRECTION('ref_axis',(1.,0.,0.));
#333=DIRECTION('',(-1.,0.,0.));
#334=DIRECTION('',(0.,0.,1.));
#335=DIRECTION('',(1.,0.,0.));
#336=DIRECTION('',(0.,0.,1.));
#337=DIRECTION('center_axis',(0.,0.,1.));
#338=DIRECTION('ref_axis',(1.7347235147509E-16,-1.,0.));
#339=DIRECTION('center_axis',(0.,0.,1.));
#340=DIRECTION('ref_axis',(-0.847215106982873,0.53125,0.));
#341=DIRECTION('center_axis',(0.,0.,-1.));
#342=DIRECTION('ref_axis',(-0.847215106982873,0.53125,0.));
#343=DIRECTION('center_axis',(0.,0.,1.));
#344=DIRECTION('ref_axis',(-1.,0.,0.));
#345=DIRECTION('center_axis',(0.,0.,1.));
#346=DIRECTION('ref_axis',(1.,0.,0.));
#347=DIRECTION('center_axis',(0.,0.,-1.));
#348=DIRECTION('ref_axis',(1.,0.,0.));
#349=DIRECTION('center_axis',(0.,0.,-1.));
#350=DIRECTION('ref_axis',(1.,0.,0.));
#351=DIRECTION('center_axis',(0.,0.,-1.));
#352=DIRECTION('ref_axis',(1.,0.,0.));
#353=DIRECTION('center_axis',(0.,0.,-1.));
#354=DIRECTION('ref_axis',(1.,0.,0.));
#355=DIRECTION('center_axis',(0.,0.,-1.));
#356=DIRECTION('ref_axis',(1.,0.,0.));
#357=DIRECTION('center_axis',(0.,0.,1.));
#358=DIRECTION('ref_axis',(1.,0.,0.));
#359=DIRECTION('center_axis',(1.22464679914735E-16,-1.,0.));
#360=DIRECTION('ref_axis',(-1.,-1.22464679914735E-16,0.));
#361=DIRECTION('center_axis',(0.,0.,1.));
#362=DIRECTION('ref_axis',(1.,0.,0.));
#363=DIRECTION('center_axis',(0.,0.,1.));
#364=DIRECTION('ref_axis',(1.,0.,0.));
#365=DIRECTION('center_axis',(0.,0.,1.));
#366=DIRECTION('ref_axis',(1.,0.,0.));
#367=DIRECTION('center_axis',(0.,0.,-1.));
#368=DIRECTION('ref_axis',(1.,0.,0.));
#369=DIRECTION('center_axis',(0.,0.,-1.));
#370=DIRECTION('ref_axis',(1.,0.,0.));
#371=DIRECTION('center_axis',(0.,0.,-1.));
#372=DIRECTION('ref_axis',(1.,0.,0.));
#373=DIRECTION('center_axis',(0.,0.,-1.));
#374=DIRECTION('ref_axis',(1.,0.,0.));
#375=DIRECTION('center_axis',(0.,0.,1.));
#376=DIRECTION('ref_axis',(1.,0.,0.));
#377=DIRECTION('',(0.,0.,-1.));
#378=DIRECTION('center_axis',(0.,0.,1.));
#379=DIRECTION('ref_axis',(1.,0.,0.));
#380=DIRECTION('',(0.,0.,-1.));
#381=DIRECTION('center_axis',(0.,0.,1.));
#382=DIRECTION('ref_axis',(1.,0.,0.));
#383=DIRECTION('',(0.,0.,-1.));
#384=DIRECTION('center_axis',(0.,0.,1.));
#385=DIRECTION('ref_axis',(1.,0.,0.));
#386=DIRECTION('',(0.,0.,-1.));
#387=CARTESIAN_POINT('',(0.,0.,0.));
#388=CARTESIAN_POINT('Origin',(0.,0.,104.000001549721));
#389=CARTESIAN_POINT('',(0.,-10.,102.100001549721));
#390=CARTESIAN_POINT('',(-1.9,-9.8178410549485,104.000001549721));
#391=CARTESIAN_POINT('Ctrl Pts',(2.28983498828939E-15,-10.0000001490116,
102.100001549721));
#392=CARTESIAN_POINT('Ctrl Pts',(-0.239189173446248,-10.0000001490116,102.100001549721));
#393=CARTESIAN_POINT('Ctrl Pts',(-0.493928074257987,-9.99054926580666,102.147922384155));
#394=CARTESIAN_POINT('Ctrl Pts',(-0.96188101063202,-9.95639616022989,102.342006655049));
#395=CARTESIAN_POINT('Ctrl Pts',(-1.17514251936875,-9.93216538765004,102.488138300581));
#396=CARTESIAN_POINT('Ctrl Pts',(-1.51187090486036,-9.88651193398274,102.824866686072));
#397=CARTESIAN_POINT('Ctrl Pts',(-1.65799655059949,-9.86208732285681,103.03812493251));
#398=CARTESIAN_POINT('Ctrl Pts',(-1.85207646841645,-9.82748858222824,103.506066571574));
#399=CARTESIAN_POINT('Ctrl Pts',(-1.9,-9.8178410549485,103.760801499811));
#400=CARTESIAN_POINT('Ctrl Pts',(-1.9,-9.8178410549485,104.000001549721));
#401=CARTESIAN_POINT('',(0.,-10.,105.900001549721));
#402=CARTESIAN_POINT('Ctrl Pts',(-7.63278329429795E-16,-10.0000001490116,
105.900001549721));
#403=CARTESIAN_POINT('Ctrl Pts',(0.239189173446251,-10.0000001490116,105.900001549721));
#404=CARTESIAN_POINT('Ctrl Pts',(0.493928074257989,-9.99054926580666,105.852080715287));
#405=CARTESIAN_POINT('Ctrl Pts',(0.961881010632028,-9.95639616022989,105.657996444392));
#406=CARTESIAN_POINT('Ctrl Pts',(1.17514251936875,-9.93216538765004,105.511864798861));
#407=CARTESIAN_POINT('Ctrl Pts',(1.51187090486035,-9.88651193398274,105.175136413369));
#408=CARTESIAN_POINT('Ctrl Pts',(1.65799655059949,-9.86208732285681,104.961878166931));
#409=CARTESIAN_POINT('Ctrl Pts',(1.85207646841645,-9.82748858222824,104.493936527868));
#410=CARTESIAN_POINT('Ctrl Pts',(1.9,-9.8178410549485,104.239201599631));
#411=CARTESIAN_POINT('Ctrl Pts',(1.9,-9.8178410549485,103.760801499811));
#412=CARTESIAN_POINT('Ctrl Pts',(1.85207646841645,-9.82748858222824,103.506066571574));
#413=CARTESIAN_POINT('Ctrl Pts',(1.65799655059949,-9.86208732285681,103.03812493251));
#414=CARTESIAN_POINT('Ctrl Pts',(1.51187090486035,-9.88651193398274,102.824866686072));
#415=CARTESIAN_POINT('Ctrl Pts',(1.17514251936875,-9.93216538765004,102.488138300581));
#416=CARTESIAN_POINT('Ctrl Pts',(0.961881010632027,-9.95639616022989,102.342006655049));
#417=CARTESIAN_POINT('Ctrl Pts',(0.493928074257996,-9.99054926580666,102.147922384155));
#418=CARTESIAN_POINT('Ctrl Pts',(0.239189173446253,-10.0000001490116,102.100001549721));
#419=CARTESIAN_POINT('Ctrl Pts',(7.63278329429795E-16,-10.0000001490116,
102.100001549721));
#420=CARTESIAN_POINT('Ctrl Pts',(-1.9,-9.8178410549485,104.000001549721));
#421=CARTESIAN_POINT('Ctrl Pts',(-1.9,-9.8178410549485,104.239201599631));
#422=CARTESIAN_POINT('Ctrl Pts',(-1.85207646841645,-9.82748858222824,104.493936527868));
#423=CARTESIAN_POINT('Ctrl Pts',(-1.65799655059949,-9.86208732285681,104.961878166931));
#424=CARTESIAN_POINT('Ctrl Pts',(-1.51187090486035,-9.88651193398274,105.175136413369));
#425=CARTESIAN_POINT('Ctrl Pts',(-1.17514251936875,-9.93216538765004,105.511864798861));
#426=CARTESIAN_POINT('Ctrl Pts',(-0.961881010632028,-9.95639616022989,105.657996444392));
#427=CARTESIAN_POINT('Ctrl Pts',(-0.493928074257989,-9.99054926580666,105.852080715287));
#428=CARTESIAN_POINT('Ctrl Pts',(-0.23918917344625,-10.0000001490116,105.900001549721));
#429=CARTESIAN_POINT('Ctrl Pts',(1.31838984174237E-15,-10.0000001490116,
105.900001549721));
#430=CARTESIAN_POINT('',(-1.9,-2.57487854902641,104.000001549721));
#431=CARTESIAN_POINT('',(-1.9,0.,104.000001549721));
#432=CARTESIAN_POINT('Ctrl Pts',(-1.9,-2.57487854902641,104.000001549721));
#433=CARTESIAN_POINT('Ctrl Pts',(-1.9,-2.57487854902641,103.753321587826));
#434=CARTESIAN_POINT('Ctrl Pts',(-1.84939800959164,-2.61406883405626,103.49666038688));
#435=CARTESIAN_POINT('Ctrl Pts',(-1.65400443786485,-2.74187827734749,103.031550848481));
#436=CARTESIAN_POINT('Ctrl Pts',(-1.50928821870195,-2.82761645942413,102.822283999914));
#437=CARTESIAN_POINT('Ctrl Pts',(-1.17873370748158,-2.98052761134741,102.491729488693));
#438=CARTESIAN_POINT('Ctrl Pts',(-0.969182197427703,-3.05910977504082,102.346302834617));
#439=CARTESIAN_POINT('Ctrl Pts',(-0.502585217064023,-3.16936506608889,102.150287546112));
#440=CARTESIAN_POINT('Ctrl Pts',(-0.245167972083783,-3.19999992847443,102.100001549721));
#441=CARTESIAN_POINT('Ctrl Pts',(0.245167972083783,-3.19999992847443,102.100001549721));
#442=CARTESIAN_POINT('Ctrl Pts',(0.502585217064023,-3.16936506608889,102.150287546112));
#443=CARTESIAN_POINT('Ctrl Pts',(0.969182197427703,-3.05910977504082,102.346302834617));
#444=CARTESIAN_POINT('Ctrl Pts',(1.17873370748158,-2.98052761134741,102.491729488693));
#445=CARTESIAN_POINT('Ctrl Pts',(1.50928821870195,-2.82761645942413,102.822283999914));
#446=CARTESIAN_POINT('Ctrl Pts',(1.65400443786485,-2.74187827734749,103.031550848481));
#447=CARTESIAN_POINT('Ctrl Pts',(1.84939800959164,-2.61406883405626,103.49666038688));
#448=CARTESIAN_POINT('Ctrl Pts',(1.9,-2.57487854902641,103.753321587826));
#449=CARTESIAN_POINT('Ctrl Pts',(1.9,-2.57487854902641,104.246681511615));
#450=CARTESIAN_POINT('Ctrl Pts',(1.84939800959164,-2.61406883405626,104.503342712562));
#451=CARTESIAN_POINT('Ctrl Pts',(1.65400443786485,-2.74187827734749,104.96845225096));
#452=CARTESIAN_POINT('Ctrl Pts',(1.50928821870195,-2.82761645942413,105.177719099528));
#453=CARTESIAN_POINT('Ctrl Pts',(1.17873370748158,-2.98052761134741,105.508273610748));
#454=CARTESIAN_POINT('Ctrl Pts',(0.969182197427703,-3.05910977504082,105.653700264825));
#455=CARTESIAN_POINT('Ctrl Pts',(0.502585217064023,-3.16936506608889,105.84971555333));
#456=CARTESIAN_POINT('Ctrl Pts',(0.245167972083783,-3.19999992847443,105.900001549721));
#457=CARTESIAN_POINT('Ctrl Pts',(-0.245167972083783,-3.19999992847443,105.900001549721));
#458=CARTESIAN_POINT('Ctrl Pts',(-0.502585217064023,-3.16936506608889,105.84971555333));
#459=CARTESIAN_POINT('Ctrl Pts',(-0.969182197427703,-3.05910977504082,105.653700264825));
#460=CARTESIAN_POINT('Ctrl Pts',(-1.17873370748158,-2.98052761134741,105.508273610748));
#461=CARTESIAN_POINT('Ctrl Pts',(-1.50928821870195,-2.82761645942413,105.177719099528));
#462=CARTESIAN_POINT('Ctrl Pts',(-1.65400443786484,-2.7418782773475,104.96845225096));
#463=CARTESIAN_POINT('Ctrl Pts',(-1.84939800959163,-2.61406883405626,104.503342712562));
#464=CARTESIAN_POINT('Ctrl Pts',(-1.9,-2.57487854902641,104.246681511615));
#465=CARTESIAN_POINT('Ctrl Pts',(-1.9,-2.57487854902641,104.000001549721));
#466=CARTESIAN_POINT('Origin',(0.,0.,104.000001549721));
#467=CARTESIAN_POINT('',(-1.9,1.69999996200204,104.000001549721));
#468=CARTESIAN_POINT('Origin',(0.,1.69999996200204,104.000001549721));
#469=CARTESIAN_POINT('',(-1.9,9.8178410549485,104.000001549721));
#470=CARTESIAN_POINT('',(-1.9,0.,104.000001549721));
#471=CARTESIAN_POINT('',(0.,10.,105.900001549721));
#472=CARTESIAN_POINT('Ctrl Pts',(1.59594559789866E-15,10.0000001490116,
105.900001549721));
#473=CARTESIAN_POINT('Ctrl Pts',(-0.23918917344625,10.0000001490116,105.900001549721));
#474=CARTESIAN_POINT('Ctrl Pts',(-0.493928074257989,9.99054926580666,105.852080715287));
#475=CARTESIAN_POINT('Ctrl Pts',(-0.961881010632028,9.95639616022989,105.657996444392));
#476=CARTESIAN_POINT('Ctrl Pts',(-1.17514251936875,9.93216538765004,105.511864798861));
#477=CARTESIAN_POINT('Ctrl Pts',(-1.51187090486035,9.88651193398274,105.175136413369));
#478=CARTESIAN_POINT('Ctrl Pts',(-1.65799655059949,9.86208732285681,104.961878166931));
#479=CARTESIAN_POINT('Ctrl Pts',(-1.85207646841645,9.82748858222824,104.493936527868));
#480=CARTESIAN_POINT('Ctrl Pts',(-1.9,9.8178410549485,104.239201599631));
#481=CARTESIAN_POINT('Ctrl Pts',(-1.9,9.8178410549485,104.000001549721));
#482=CARTESIAN_POINT('',(0.,10.,102.100001549721));
#483=CARTESIAN_POINT('Ctrl Pts',(6.93889390390723E-16,10.0000001490116,
102.100001549721));
#484=CARTESIAN_POINT('Ctrl Pts',(0.239189173446252,10.0000001490116,102.100001549721));
#485=CARTESIAN_POINT('Ctrl Pts',(0.49392807425799,9.99054926580666,102.147922384155));
#486=CARTESIAN_POINT('Ctrl Pts',(0.961881010632028,9.95639616022989,102.342006655049));
#487=CARTESIAN_POINT('Ctrl Pts',(1.17514251936875,9.93216538765004,102.488138300581));
#488=CARTESIAN_POINT('Ctrl Pts',(1.51187090486035,9.88651193398274,102.824866686072));
#489=CARTESIAN_POINT('Ctrl Pts',(1.65799655059949,9.86208732285681,103.03812493251));
#490=CARTESIAN_POINT('Ctrl Pts',(1.85207646841645,9.82748858222824,103.506066571574));
#491=CARTESIAN_POINT('Ctrl Pts',(1.9,9.8178410549485,103.760801499811));
#492=CARTESIAN_POINT('Ctrl Pts',(1.9,9.8178410549485,104.239201599631));
#493=CARTESIAN_POINT('Ctrl Pts',(1.85207646841645,9.82748858222824,104.493936527868));
#494=CARTESIAN_POINT('Ctrl Pts',(1.65799655059949,9.86208732285681,104.961878166931));
#495=CARTESIAN_POINT('Ctrl Pts',(1.51187090486035,9.88651193398274,105.175136413369));
#496=CARTESIAN_POINT('Ctrl Pts',(1.17514251936875,9.93216538765004,105.511864798861));
#497=CARTESIAN_POINT('Ctrl Pts',(0.961881010632028,9.95639616022989,105.657996444392));
#498=CARTESIAN_POINT('Ctrl Pts',(0.493928074257989,9.99054926580666,105.852080715287));
#499=CARTESIAN_POINT('Ctrl Pts',(0.23918917344625,10.0000001490116,105.900001549721));
#500=CARTESIAN_POINT('Ctrl Pts',(-1.38777878078145E-15,10.0000001490116,
105.900001549721));
#501=CARTESIAN_POINT('Ctrl Pts',(-1.9,9.8178410549485,104.000001549721));
#502=CARTESIAN_POINT('Ctrl Pts',(-1.9,9.8178410549485,103.760801499811));
#503=CARTESIAN_POINT('Ctrl Pts',(-1.85207646841645,9.82748858222824,103.506066571574));
#504=CARTESIAN_POINT('Ctrl Pts',(-1.65799655059949,9.86208732285681,103.03812493251));
#505=CARTESIAN_POINT('Ctrl Pts',(-1.51187090486036,9.88651193398274,102.824866686072));
#506=CARTESIAN_POINT('Ctrl Pts',(-1.17514251936875,9.93216538765004,102.488138300581));
#507=CARTESIAN_POINT('Ctrl Pts',(-0.96188101063202,9.95639616022989,102.342006655049));
#508=CARTESIAN_POINT('Ctrl Pts',(-0.493928074257987,9.99054926580666,102.147922384155));
#509=CARTESIAN_POINT('Ctrl Pts',(-0.239189173446249,10.0000001490116,102.100001549721));
#510=CARTESIAN_POINT('Ctrl Pts',(1.38777878078145E-15,10.0000001490116,
102.100001549721));
#511=CARTESIAN_POINT('Origin',(0.,0.,98.));
#512=CARTESIAN_POINT('',(10.0000001490116,1.11022302462516E-15,108.));
#513=CARTESIAN_POINT('Origin',(0.,0.,108.));
#514=CARTESIAN_POINT('',(10.0000001490116,1.22464681739601E-15,98.));
#515=CARTESIAN_POINT('',(10.0000001490116,1.22464681739601E-15,98.));
#516=CARTESIAN_POINT('Origin',(0.,0.,98.));
#517=CARTESIAN_POINT('Origin',(-2.71108828174764,1.69999996200204,98.));
#518=CARTESIAN_POINT('',(2.71108828174764,1.69999996200204,98.));
#519=CARTESIAN_POINT('',(-2.71108828174765,1.69999996200204,98.));
#520=CARTESIAN_POINT('',(-1.35554414087382,1.69999996200204,98.));
#521=CARTESIAN_POINT('',(2.71108828174764,1.69999996200204,108.));
#522=CARTESIAN_POINT('',(2.71108828174764,1.69999996200204,98.));
#523=CARTESIAN_POINT('',(-2.71108828174765,1.69999996200204,108.));
#524=CARTESIAN_POINT('',(-2.71108828174764,1.69999996200204,108.));
#525=CARTESIAN_POINT('',(-2.71108828174765,1.69999996200204,98.));
#526=CARTESIAN_POINT('Origin',(0.,0.,98.));
#527=CARTESIAN_POINT('Origin',(0.,0.,98.));
#528=CARTESIAN_POINT('Origin',(0.,0.,108.));
#529=CARTESIAN_POINT('Origin',(0.,0.,108.));
#530=CARTESIAN_POINT('Origin',(0.,0.,98.));
#531=CARTESIAN_POINT('',(-32.0000005215406,3.91886982114184E-15,98.));
#532=CARTESIAN_POINT('Origin',(0.,0.,98.));
#533=CARTESIAN_POINT('',(28.9500004470348,-1.28587913910472E-16,98.));
#534=CARTESIAN_POINT('Origin',(30.0000004470348,0.,98.));
#535=CARTESIAN_POINT('',(-1.05,30.0000004470348,98.));
#536=CARTESIAN_POINT('Origin',(0.,30.0000004470348,98.));
#537=CARTESIAN_POINT('',(-31.0500004470348,-1.28587913910472E-16,98.));
#538=CARTESIAN_POINT('Origin',(-30.0000004470348,0.,98.));
#539=CARTESIAN_POINT('',(-1.05,-30.0000004470348,98.));
#540=CARTESIAN_POINT('Origin',(0.,-30.0000004470348,98.));
#541=CARTESIAN_POINT('Origin',(0.,0.,95.));
#542=CARTESIAN_POINT('',(-35.0000005215406,-4.28626386088604E-15,95.));
#543=CARTESIAN_POINT('Origin',(-32.0000005215406,-3.91886982114184E-15,
95.));
#544=CARTESIAN_POINT('Origin',(0.,0.,95.));
#545=CARTESIAN_POINT('Origin',(0.,0.,98.));
#546=CARTESIAN_POINT('Origin',(0.,0.,95.));
#547=CARTESIAN_POINT('',(28.9500004470348,-1.28587913910472E-16,95.));
#548=CARTESIAN_POINT('Origin',(30.0000004470348,0.,95.));
#549=CARTESIAN_POINT('',(-1.05,30.0000004470348,95.));
#550=CARTESIAN_POINT('Origin',(0.,30.0000004470348,95.));
#551=CARTESIAN_POINT('',(-31.0500004470348,-1.28587913910472E-16,95.));
#552=CARTESIAN_POINT('Origin',(-30.0000004470348,0.,95.));
#553=CARTESIAN_POINT('',(-1.05,-30.0000004470348,95.));
#554=CARTESIAN_POINT('Origin',(0.,-30.0000004470348,95.));
#555=CARTESIAN_POINT('Origin',(0.,-30.0000004470348,0.));
#556=CARTESIAN_POINT('',(-1.05,-30.0000004470348,0.));
#557=CARTESIAN_POINT('Origin',(-30.0000004470348,0.,0.));
#558=CARTESIAN_POINT('',(-31.0500004470348,-1.28587913910472E-16,0.));
#559=CARTESIAN_POINT('Origin',(0.,30.0000004470348,0.));
#560=CARTESIAN_POINT('',(-1.05,30.0000004470348,0.));
#561=CARTESIAN_POINT('Origin',(30.0000004470348,0.,0.));
#562=CARTESIAN_POINT('',(28.9500004470348,-1.28587913910472E-16,0.));
#563=UNCERTAINTY_MEASURE_WITH_UNIT(LENGTH_MEASURE(0.01),#567,
'DISTANCE_ACCURACY_VALUE',
'Maximum model space distance between geometric entities at asserted c
onnectivities');
#564=UNCERTAINTY_MEASURE_WITH_UNIT(LENGTH_MEASURE(0.01),#567,
'DISTANCE_ACCURACY_VALUE',
'Maximum model space distance between geometric entities at asserted c
onnectivities');
#565=(
GEOMETRIC_REPRESENTATION_CONTEXT(3)
GLOBAL_UNCERTAINTY_ASSIGNED_CONTEXT((#563))
GLOBAL_UNIT_ASSIGNED_CONTEXT((#567,#569,#570))
REPRESENTATION_CONTEXT('','3D')
);
#566=(
GEOMETRIC_REPRESENTATION_CONTEXT(3)
GLOBAL_UNCERTAINTY_ASSIGNED_CONTEXT((#564))
GLOBAL_UNIT_ASSIGNED_CONTEXT((#567,#569,#570))
REPRESENTATION_CONTEXT('','3D')
);
#567=(
LENGTH_UNIT()
NAMED_UNIT(*)
SI_UNIT(.MILLI.,.METRE.)
);
#568=(
LENGTH_UNIT()
NAMED_UNIT(*)
SI_UNIT($,.METRE.)
);
#569=(
NAMED_UNIT(*)
PLANE_ANGLE_UNIT()
SI_UNIT($,.RADIAN.)
);
#570=(
NAMED_UNIT(*)
SI_UNIT($,.STERADIAN.)
SOLID_ANGLE_UNIT()
);
#571=SHAPE_DEFINITION_REPRESENTATION(#572,#573);
#572=PRODUCT_DEFINITION_SHAPE('',$,#575);
#573=SHAPE_REPRESENTATION('',(#283),#565);
#574=PRODUCT_DEFINITION_CONTEXT('part definition',#579,'design');
#575=PRODUCT_DEFINITION('2025-07-30-21-06-11-622','link1_1',#576,#574);
#576=PRODUCT_DEFINITION_FORMATION('',$,#581);
#577=PRODUCT_RELATED_PRODUCT_CATEGORY('link1_1','link1_1',(#581));
#578=APPLICATION_PROTOCOL_DEFINITION('international standard',
'automotive_design',2009,#579);
#579=APPLICATION_CONTEXT(
'Core Data for Automotive Mechanical Design Process');
#580=PRODUCT_CONTEXT('part definition',#579,'mechanical');
#581=PRODUCT('2025-07-30-21-06-11-622','link1_1',$,(#580));
#582=PRESENTATION_STYLE_ASSIGNMENT((#584));
#583=PRESENTATION_STYLE_ASSIGNMENT((#585));
#584=SURFACE_STYLE_USAGE(.BOTH.,#586);
#585=SURFACE_STYLE_USAGE(.BOTH.,#587);
#586=SURFACE_SIDE_STYLE('',(#588));
#587=SURFACE_SIDE_STYLE('',(#589));
#588=SURFACE_STYLE_FILL_AREA(#590);
#589=SURFACE_STYLE_FILL_AREA(#591);
#590=FILL_AREA_STYLE('Steel - Satin',(#592));
#591=FILL_AREA_STYLE('Sunflower yellow PLA',(#593));
#592=FILL_AREA_STYLE_COLOUR('Steel - Satin',#594);
#593=FILL_AREA_STYLE_COLOUR('Sunflower yellow PLA',#595);
#594=COLOUR_RGB('Steel - Satin',0.627450980392157,0.627450980392157,0.627450980392157);
#595=COLOUR_RGB('Sunflower yellow PLA',1.,0.733333333333333,0.);
ENDSEC;
END-ISO-10303-21;
