ISO-10303-21;
HEADER;
/* Generated by software containing ST-Developer
 * from STEP Tools, Inc. (www.steptools.com) 
 */

FILE_DESCRIPTION(
/* description */ (''),
/* implementation_level */ '2;1');

FILE_NAME(
/* name */ 'link1_2.step',
/* time_stamp */ '2025-07-30T21:06:19+01:00',
/* author */ (''),
/* organization */ (''),
/* preprocessor_version */ 'ST-DEVELOPER v20.1',
/* originating_system */ 'Autodesk Translation Framework v14.10.0.0',
/* authorisation */ '');

FILE_SCHEMA (('AUTOMOTIVE_DESIGN { 1 0 10303 214 3 1 1 }'));
ENDSEC;

DATA;
#10=MECHANICAL_DESIGN_GEOMETRIC_PRESENTATION_REPRESENTATION('',(#13),#571);
#11=SHAPE_REPRESENTATION_RELATIONSHIP('SRR','None',#578,#12);
#12=ADVANCED_BREP_SHAPE_REPRESENTATION('',(#14),#570);
#13=STYLED_ITEM('',(#588),#14);
#14=MANIFOLD_SOLID_BREP('Body1',#273);
#15=TOROIDAL_SURFACE('',#304,32.0000005215406,3.);
#16=PLANE('',#293);
#17=PLANE('',#297);
#18=PLANE('',#298);
#19=PLANE('',#307);
#20=PLANE('',#316);
#21=FACE_BOUND('',#67,.T.);
#22=FACE_BOUND('',#69,.T.);
#23=FACE_BOUND('',#71,.T.);
#24=FACE_BOUND('',#73,.T.);
#25=FACE_BOUND('',#75,.T.);
#26=FACE_BOUND('',#76,.T.);
#27=FACE_BOUND('',#77,.T.);
#28=FACE_BOUND('',#78,.T.);
#29=FACE_BOUND('',#79,.T.);
#30=FACE_BOUND('',#87,.T.);
#31=FACE_BOUND('',#88,.T.);
#32=FACE_BOUND('',#89,.T.);
#33=FACE_BOUND('',#90,.T.);
#34=CIRCLE('',#289,1.9);
#35=CIRCLE('',#291,10.0000001490116);
#36=CIRCLE('',#292,10.0000001490116);
#37=CIRCLE('',#295,3.2);
#38=CIRCLE('',#296,3.2);
#39=CIRCLE('',#299,32.0000005215406);
#40=CIRCLE('',#300,1.05);
#41=CIRCLE('',#301,1.05);
#42=CIRCLE('',#302,1.05);
#43=CIRCLE('',#303,1.05);
#44=CIRCLE('',#305,35.0000005215406);
#45=CIRCLE('',#306,3.);
#46=CIRCLE('',#309,1.05);
#47=CIRCLE('',#311,1.05);
#48=CIRCLE('',#313,1.05);
#49=CIRCLE('',#315,1.05);
#50=FACE_OUTER_BOUND('',#64,.T.);
#51=FACE_OUTER_BOUND('',#65,.T.);
#52=FACE_OUTER_BOUND('',#66,.T.);
#53=FACE_OUTER_BOUND('',#68,.T.);
#54=FACE_OUTER_BOUND('',#70,.T.);
#55=FACE_OUTER_BOUND('',#72,.T.);
#56=FACE_OUTER_BOUND('',#74,.T.);
#57=FACE_OUTER_BOUND('',#80,.T.);
#58=FACE_OUTER_BOUND('',#81,.T.);
#59=FACE_OUTER_BOUND('',#82,.T.);
#60=FACE_OUTER_BOUND('',#83,.T.);
#61=FACE_OUTER_BOUND('',#84,.T.);
#62=FACE_OUTER_BOUND('',#85,.T.);
#63=FACE_OUTER_BOUND('',#86,.T.);
#64=EDGE_LOOP('',(#181,#182,#183,#184,#185,#186));
#65=EDGE_LOOP('',(#187,#188,#189,#190,#191,#192));
#66=EDGE_LOOP('',(#193,#194,#195,#196,#197,#198,#199,#200,#201));
#67=EDGE_LOOP('',(#202,#203,#204));
#68=EDGE_LOOP('',(#205,#206,#207,#208));
#69=EDGE_LOOP('',(#209));
#70=EDGE_LOOP('',(#210,#211,#212,#213));
#71=EDGE_LOOP('',(#214));
#72=EDGE_LOOP('',(#215));
#73=EDGE_LOOP('',(#216,#217));
#74=EDGE_LOOP('',(#218));
#75=EDGE_LOOP('',(#219));
#76=EDGE_LOOP('',(#220));
#77=EDGE_LOOP('',(#221));
#78=EDGE_LOOP('',(#222));
#79=EDGE_LOOP('',(#223));
#80=EDGE_LOOP('',(#224,#225,#226,#227));
#81=EDGE_LOOP('',(#228,#229));
#82=EDGE_LOOP('',(#230,#231,#232,#233));
#83=EDGE_LOOP('',(#234,#235,#236,#237));
#84=EDGE_LOOP('',(#238,#239,#240,#241));
#85=EDGE_LOOP('',(#242,#243,#244,#245));
#86=EDGE_LOOP('',(#246));
#87=EDGE_LOOP('',(#247));
#88=EDGE_LOOP('',(#248));
#89=EDGE_LOOP('',(#249));
#90=EDGE_LOOP('',(#250));
#91=LINE('',#429,#103);
#92=LINE('',#513,#104);
#93=LINE('',#518,#105);
#94=LINE('',#520,#106);
#95=LINE('',#525,#107);
#96=LINE('',#527,#108);
#97=LINE('',#529,#109);
#98=LINE('',#530,#110);
#99=LINE('',#554,#111);
#100=LINE('',#558,#112);
#101=LINE('',#562,#113);
#102=LINE('',#566,#114);
#103=VECTOR('',#321,1.9);
#104=VECTOR('',#324,1.9);
#105=VECTOR('',#331,10.0000001490116);
#106=VECTOR('',#332,10.0000001490116);
#107=VECTOR('',#337,10.);
#108=VECTOR('',#338,10.);
#109=VECTOR('',#339,10.);
#110=VECTOR('',#340,10.);
#111=VECTOR('',#373,1.05);
#112=VECTOR('',#378,1.05);
#113=VECTOR('',#383,1.05);
#114=VECTOR('',#388,1.05);
#115=B_SPLINE_CURVE_WITH_KNOTS('',3,(#394,#395,#396,#397,#398,#399,#400,
#401,#402,#403,#404,#405,#406,#407,#408,#409,#410,#411,#412,#413,#414,#415,
#416,#417,#418,#419,#420,#421,#422,#423,#424,#425,#426,#427),
 .UNSPECIFIED.,.T.,.F.,(4,2,2,2,2,2,2,2,2,2,2,2,2,2,2,2,4),(0.,0.0740039884203683,
0.148007976840737,0.221558368368333,0.295108759895928,0.368659151423524,
0.44220954295112,0.516213531371489,0.590217519791857,0.664221508212225,
0.738225496632594,0.81177588816019,0.885326279687785,0.958876671215381,
1.03242706274298,1.10643105116335,1.18043503958371),.UNSPECIFIED.);
#116=B_SPLINE_CURVE_WITH_KNOTS('',3,(#431,#432,#433,#434,#435,#436,#437,
#438,#439,#440),.UNSPECIFIED.,.F.,.F.,(4,2,2,2,4),(0.861100602041106,0.932857354074981,
1.00461410610886,1.07637412108183,1.14813413605481),.UNSPECIFIED.);
#117=B_SPLINE_CURVE_WITH_KNOTS('',3,(#442,#443,#444,#445,#446,#447,#448,
#449,#450,#451,#452,#453,#454,#455,#456,#457,#458,#459),.UNSPECIFIED.,.F.,
 .F.,(4,2,2,2,2,2,2,2,4),(0.287033534013702,0.358790286047577,0.430547038081452,
0.502307053054428,0.574067068027404,0.64582708300038,0.717587097973357,
0.789343850007231,0.861100602041106),.UNSPECIFIED.);
#118=B_SPLINE_CURVE_WITH_KNOTS('',3,(#460,#461,#462,#463,#464,#465,#466,
#467,#468,#469),.UNSPECIFIED.,.F.,.F.,(4,2,2,2,4),(1.14813413605481,1.21989415102778,
1.29165416600076,1.36341091803464,1.43516767006851),.UNSPECIFIED.);
#119=B_SPLINE_CURVE_WITH_KNOTS('',3,(#473,#474,#475,#476,#477,#478,#479,
#480,#481,#482),.UNSPECIFIED.,.F.,.F.,(4,2,2,2,4),(0.861100602041106,0.932857354074981,
1.00461410610886,1.07637412108183,1.14813413605481),.UNSPECIFIED.);
#120=B_SPLINE_CURVE_WITH_KNOTS('',3,(#484,#485,#486,#487,#488,#489,#490,
#491,#492,#493,#494,#495,#496,#497,#498,#499,#500,#501),.UNSPECIFIED.,.F.,
 .F.,(4,2,2,2,2,2,2,2,4),(0.287033534013702,0.358790286047577,0.430547038081452,
0.502307053054428,0.574067068027404,0.64582708300038,0.717587097973357,
0.789343850007231,0.861100602041106),.UNSPECIFIED.);
#121=B_SPLINE_CURVE_WITH_KNOTS('',3,(#502,#503,#504,#505,#506,#507,#508,
#509,#510,#511),.UNSPECIFIED.,.F.,.F.,(4,2,2,2,4),(1.14813413605481,1.21989415102778,
1.29165416600076,1.36341091803464,1.43516767006851),.UNSPECIFIED.);
#122=VERTEX_POINT('',#393);
#123=VERTEX_POINT('',#428);
#124=VERTEX_POINT('',#430);
#125=VERTEX_POINT('',#441);
#126=VERTEX_POINT('',#471);
#127=VERTEX_POINT('',#472);
#128=VERTEX_POINT('',#483);
#129=VERTEX_POINT('',#512);
#130=VERTEX_POINT('',#516);
#131=VERTEX_POINT('',#519);
#132=VERTEX_POINT('',#523);
#133=VERTEX_POINT('',#524);
#134=VERTEX_POINT('',#526);
#135=VERTEX_POINT('',#528);
#136=VERTEX_POINT('',#536);
#137=VERTEX_POINT('',#538);
#138=VERTEX_POINT('',#540);
#139=VERTEX_POINT('',#542);
#140=VERTEX_POINT('',#544);
#141=VERTEX_POINT('',#547);
#142=VERTEX_POINT('',#552);
#143=VERTEX_POINT('',#556);
#144=VERTEX_POINT('',#560);
#145=VERTEX_POINT('',#564);
#146=EDGE_CURVE('',#122,#122,#115,.T.);
#147=EDGE_CURVE('',#122,#123,#91,.T.);
#148=EDGE_CURVE('',#124,#123,#116,.T.);
#149=EDGE_CURVE('',#125,#124,#117,.T.);
#150=EDGE_CURVE('',#123,#125,#118,.T.);
#151=EDGE_CURVE('',#126,#127,#119,.T.);
#152=EDGE_CURVE('',#128,#126,#120,.T.);
#153=EDGE_CURVE('',#127,#128,#121,.T.);
#154=EDGE_CURVE('',#127,#129,#92,.T.);
#155=EDGE_CURVE('',#129,#129,#34,.T.);
#156=EDGE_CURVE('',#130,#130,#35,.T.);
#157=EDGE_CURVE('',#130,#128,#93,.T.);
#158=EDGE_CURVE('',#126,#131,#94,.T.);
#159=EDGE_CURVE('',#131,#131,#36,.T.);
#160=EDGE_CURVE('',#132,#133,#95,.T.);
#161=EDGE_CURVE('',#132,#134,#96,.T.);
#162=EDGE_CURVE('',#135,#134,#97,.T.);
#163=EDGE_CURVE('',#133,#135,#98,.T.);
#164=EDGE_CURVE('',#133,#132,#37,.T.);
#165=EDGE_CURVE('',#134,#135,#38,.T.);
#166=EDGE_CURVE('',#136,#136,#39,.T.);
#167=EDGE_CURVE('',#137,#137,#40,.T.);
#168=EDGE_CURVE('',#138,#138,#41,.T.);
#169=EDGE_CURVE('',#139,#139,#42,.T.);
#170=EDGE_CURVE('',#140,#140,#43,.T.);
#171=EDGE_CURVE('',#141,#141,#44,.T.);
#172=EDGE_CURVE('',#141,#136,#45,.T.);
#173=EDGE_CURVE('',#142,#142,#46,.T.);
#174=EDGE_CURVE('',#142,#140,#99,.T.);
#175=EDGE_CURVE('',#143,#143,#47,.T.);
#176=EDGE_CURVE('',#143,#139,#100,.T.);
#177=EDGE_CURVE('',#144,#144,#48,.T.);
#178=EDGE_CURVE('',#144,#138,#101,.T.);
#179=EDGE_CURVE('',#145,#145,#49,.T.);
#180=EDGE_CURVE('',#145,#137,#102,.T.);
#181=ORIENTED_EDGE('',*,*,#146,.F.);
#182=ORIENTED_EDGE('',*,*,#147,.T.);
#183=ORIENTED_EDGE('',*,*,#148,.F.);
#184=ORIENTED_EDGE('',*,*,#149,.F.);
#185=ORIENTED_EDGE('',*,*,#150,.F.);
#186=ORIENTED_EDGE('',*,*,#147,.F.);
#187=ORIENTED_EDGE('',*,*,#151,.F.);
#188=ORIENTED_EDGE('',*,*,#152,.F.);
#189=ORIENTED_EDGE('',*,*,#153,.F.);
#190=ORIENTED_EDGE('',*,*,#154,.T.);
#191=ORIENTED_EDGE('',*,*,#155,.F.);
#192=ORIENTED_EDGE('',*,*,#154,.F.);
#193=ORIENTED_EDGE('',*,*,#156,.F.);
#194=ORIENTED_EDGE('',*,*,#157,.T.);
#195=ORIENTED_EDGE('',*,*,#152,.T.);
#196=ORIENTED_EDGE('',*,*,#158,.T.);
#197=ORIENTED_EDGE('',*,*,#159,.F.);
#198=ORIENTED_EDGE('',*,*,#158,.F.);
#199=ORIENTED_EDGE('',*,*,#151,.T.);
#200=ORIENTED_EDGE('',*,*,#153,.T.);
#201=ORIENTED_EDGE('',*,*,#157,.F.);
#202=ORIENTED_EDGE('',*,*,#149,.T.);
#203=ORIENTED_EDGE('',*,*,#148,.T.);
#204=ORIENTED_EDGE('',*,*,#150,.T.);
#205=ORIENTED_EDGE('',*,*,#160,.F.);
#206=ORIENTED_EDGE('',*,*,#161,.T.);
#207=ORIENTED_EDGE('',*,*,#162,.F.);
#208=ORIENTED_EDGE('',*,*,#163,.F.);
#209=ORIENTED_EDGE('',*,*,#155,.T.);
#210=ORIENTED_EDGE('',*,*,#164,.F.);
#211=ORIENTED_EDGE('',*,*,#163,.T.);
#212=ORIENTED_EDGE('',*,*,#165,.F.);
#213=ORIENTED_EDGE('',*,*,#161,.F.);
#214=ORIENTED_EDGE('',*,*,#146,.T.);
#215=ORIENTED_EDGE('',*,*,#156,.T.);
#216=ORIENTED_EDGE('',*,*,#165,.T.);
#217=ORIENTED_EDGE('',*,*,#162,.T.);
#218=ORIENTED_EDGE('',*,*,#166,.F.);
#219=ORIENTED_EDGE('',*,*,#167,.F.);
#220=ORIENTED_EDGE('',*,*,#168,.F.);
#221=ORIENTED_EDGE('',*,*,#169,.F.);
#222=ORIENTED_EDGE('',*,*,#170,.F.);
#223=ORIENTED_EDGE('',*,*,#159,.T.);
#224=ORIENTED_EDGE('',*,*,#171,.F.);
#225=ORIENTED_EDGE('',*,*,#172,.T.);
#226=ORIENTED_EDGE('',*,*,#166,.T.);
#227=ORIENTED_EDGE('',*,*,#172,.F.);
#228=ORIENTED_EDGE('',*,*,#160,.T.);
#229=ORIENTED_EDGE('',*,*,#164,.T.);
#230=ORIENTED_EDGE('',*,*,#173,.F.);
#231=ORIENTED_EDGE('',*,*,#174,.T.);
#232=ORIENTED_EDGE('',*,*,#170,.T.);
#233=ORIENTED_EDGE('',*,*,#174,.F.);
#234=ORIENTED_EDGE('',*,*,#175,.F.);
#235=ORIENTED_EDGE('',*,*,#176,.T.);
#236=ORIENTED_EDGE('',*,*,#169,.T.);
#237=ORIENTED_EDGE('',*,*,#176,.F.);
#238=ORIENTED_EDGE('',*,*,#177,.F.);
#239=ORIENTED_EDGE('',*,*,#178,.T.);
#240=ORIENTED_EDGE('',*,*,#168,.T.);
#241=ORIENTED_EDGE('',*,*,#178,.F.);
#242=ORIENTED_EDGE('',*,*,#179,.F.);
#243=ORIENTED_EDGE('',*,*,#180,.T.);
#244=ORIENTED_EDGE('',*,*,#167,.T.);
#245=ORIENTED_EDGE('',*,*,#180,.F.);
#246=ORIENTED_EDGE('',*,*,#171,.T.);
#247=ORIENTED_EDGE('',*,*,#179,.T.);
#248=ORIENTED_EDGE('',*,*,#177,.T.);
#249=ORIENTED_EDGE('',*,*,#175,.T.);
#250=ORIENTED_EDGE('',*,*,#173,.T.);
#251=CYLINDRICAL_SURFACE('',#287,1.9);
#252=CYLINDRICAL_SURFACE('',#288,1.9);
#253=CYLINDRICAL_SURFACE('',#290,10.0000001490116);
#254=CYLINDRICAL_SURFACE('',#294,3.2);
#255=CYLINDRICAL_SURFACE('',#308,1.05);
#256=CYLINDRICAL_SURFACE('',#310,1.05);
#257=CYLINDRICAL_SURFACE('',#312,1.05);
#258=CYLINDRICAL_SURFACE('',#314,1.05);
#259=ADVANCED_FACE('',(#50),#251,.F.);
#260=ADVANCED_FACE('',(#51),#252,.F.);
#261=ADVANCED_FACE('',(#52,#21),#253,.T.);
#262=ADVANCED_FACE('',(#53,#22),#16,.T.);
#263=ADVANCED_FACE('',(#54,#23),#254,.F.);
#264=ADVANCED_FACE('',(#55,#24),#17,.T.);
#265=ADVANCED_FACE('',(#56,#25,#26,#27,#28,#29),#18,.F.);
#266=ADVANCED_FACE('',(#57),#15,.T.);
#267=ADVANCED_FACE('',(#58),#19,.F.);
#268=ADVANCED_FACE('',(#59),#255,.F.);
#269=ADVANCED_FACE('',(#60),#256,.F.);
#270=ADVANCED_FACE('',(#61),#257,.F.);
#271=ADVANCED_FACE('',(#62),#258,.F.);
#272=ADVANCED_FACE('',(#63,#30,#31,#32,#33),#20,.T.);
#273=CLOSED_SHELL('',(#259,#260,#261,#262,#263,#264,#265,#266,#267,#268,
#269,#270,#271,#272));
#274=DERIVED_UNIT_ELEMENT(#276,1.);
#275=DERIVED_UNIT_ELEMENT(#573,-3.);
#276=(
MASS_UNIT()
NAMED_UNIT(*)
SI_UNIT(.KILO.,.GRAM.)
);
#277=DERIVED_UNIT((#274,#275));
#278=MEASURE_REPRESENTATION_ITEM('density measure',
POSITIVE_RATIO_MEASURE(7850.),#277);
#279=PROPERTY_DEFINITION_REPRESENTATION(#284,#281);
#280=PROPERTY_DEFINITION_REPRESENTATION(#285,#282);
#281=REPRESENTATION('material name',(#283),#570);
#282=REPRESENTATION('density',(#278),#570);
#283=DESCRIPTIVE_REPRESENTATION_ITEM('Steel','Steel');
#284=PROPERTY_DEFINITION('material property','material name',#580);
#285=PROPERTY_DEFINITION('material property','density of part',#580);
#286=AXIS2_PLACEMENT_3D('',#391,#317,#318);
#287=AXIS2_PLACEMENT_3D('',#392,#319,#320);
#288=AXIS2_PLACEMENT_3D('',#470,#322,#323);
#289=AXIS2_PLACEMENT_3D('',#514,#325,#326);
#290=AXIS2_PLACEMENT_3D('',#515,#327,#328);
#291=AXIS2_PLACEMENT_3D('',#517,#329,#330);
#292=AXIS2_PLACEMENT_3D('',#521,#333,#334);
#293=AXIS2_PLACEMENT_3D('',#522,#335,#336);
#294=AXIS2_PLACEMENT_3D('',#531,#341,#342);
#295=AXIS2_PLACEMENT_3D('',#532,#343,#344);
#296=AXIS2_PLACEMENT_3D('',#533,#345,#346);
#297=AXIS2_PLACEMENT_3D('',#534,#347,#348);
#298=AXIS2_PLACEMENT_3D('',#535,#349,#350);
#299=AXIS2_PLACEMENT_3D('',#537,#351,#352);
#300=AXIS2_PLACEMENT_3D('',#539,#353,#354);
#301=AXIS2_PLACEMENT_3D('',#541,#355,#356);
#302=AXIS2_PLACEMENT_3D('',#543,#357,#358);
#303=AXIS2_PLACEMENT_3D('',#545,#359,#360);
#304=AXIS2_PLACEMENT_3D('',#546,#361,#362);
#305=AXIS2_PLACEMENT_3D('',#548,#363,#364);
#306=AXIS2_PLACEMENT_3D('',#549,#365,#366);
#307=AXIS2_PLACEMENT_3D('',#550,#367,#368);
#308=AXIS2_PLACEMENT_3D('',#551,#369,#370);
#309=AXIS2_PLACEMENT_3D('',#553,#371,#372);
#310=AXIS2_PLACEMENT_3D('',#555,#374,#375);
#311=AXIS2_PLACEMENT_3D('',#557,#376,#377);
#312=AXIS2_PLACEMENT_3D('',#559,#379,#380);
#313=AXIS2_PLACEMENT_3D('',#561,#381,#382);
#314=AXIS2_PLACEMENT_3D('',#563,#384,#385);
#315=AXIS2_PLACEMENT_3D('',#565,#386,#387);
#316=AXIS2_PLACEMENT_3D('',#567,#389,#390);
#317=DIRECTION('axis',(0.,0.,1.));
#318=DIRECTION('refdir',(1.,0.,0.));
#319=DIRECTION('center_axis',(1.,0.,0.));
#320=DIRECTION('ref_axis',(0.,1.,0.));
#321=DIRECTION('',(1.,0.,0.));
#322=DIRECTION('center_axis',(1.,0.,0.));
#323=DIRECTION('ref_axis',(0.,1.,0.));
#324=DIRECTION('',(1.,0.,0.));
#325=DIRECTION('center_axis',(-1.,0.,0.));
#326=DIRECTION('ref_axis',(0.,1.,0.));
#327=DIRECTION('center_axis',(0.,0.,-1.));
#328=DIRECTION('ref_axis',(1.,0.,0.));
#329=DIRECTION('center_axis',(0.,0.,-1.));
#330=DIRECTION('ref_axis',(1.,0.,0.));
#331=DIRECTION('',(0.,0.,1.));
#332=DIRECTION('',(0.,0.,1.));
#333=DIRECTION('center_axis',(0.,0.,1.));
#334=DIRECTION('ref_axis',(1.,0.,0.));
#335=DIRECTION('center_axis',(1.,0.,0.));
#336=DIRECTION('ref_axis',(0.,-1.,0.));
#337=DIRECTION('',(0.,1.,0.));
#338=DIRECTION('',(0.,0.,-1.));
#339=DIRECTION('',(0.,-1.,0.));
#340=DIRECTION('',(0.,0.,-1.));
#341=DIRECTION('center_axis',(0.,0.,-1.));
#342=DIRECTION('ref_axis',(1.,3.46944695195361E-16,0.));
#343=DIRECTION('center_axis',(0.,0.,-1.));
#344=DIRECTION('ref_axis',(-0.531249988125637,0.847215114428745,0.));
#345=DIRECTION('center_axis',(0.,0.,1.));
#346=DIRECTION('ref_axis',(-0.531249988125637,0.847215114428745,0.));
#347=DIRECTION('center_axis',(0.,0.,-1.));
#348=DIRECTION('ref_axis',(1.,0.,0.));
#349=DIRECTION('center_axis',(0.,0.,1.));
#350=DIRECTION('ref_axis',(1.,0.,0.));
#351=DIRECTION('center_axis',(0.,0.,1.));
#352=DIRECTION('ref_axis',(1.,0.,0.));
#353=DIRECTION('center_axis',(0.,0.,-1.));
#354=DIRECTION('ref_axis',(1.,0.,0.));
#355=DIRECTION('center_axis',(0.,0.,-1.));
#356=DIRECTION('ref_axis',(1.,0.,0.));
#357=DIRECTION('center_axis',(0.,0.,-1.));
#358=DIRECTION('ref_axis',(1.,0.,0.));
#359=DIRECTION('center_axis',(0.,0.,-1.));
#360=DIRECTION('ref_axis',(1.,0.,0.));
#361=DIRECTION('center_axis',(0.,0.,1.));
#362=DIRECTION('ref_axis',(1.,0.,0.));
#363=DIRECTION('center_axis',(0.,0.,1.));
#364=DIRECTION('ref_axis',(1.,0.,0.));
#365=DIRECTION('center_axis',(0.,-1.,0.));
#366=DIRECTION('ref_axis',(-1.,0.,0.));
#367=DIRECTION('center_axis',(0.,0.,1.));
#368=DIRECTION('ref_axis',(1.,0.,0.));
#369=DIRECTION('center_axis',(0.,0.,1.));
#370=DIRECTION('ref_axis',(1.,0.,0.));
#371=DIRECTION('center_axis',(0.,0.,-1.));
#372=DIRECTION('ref_axis',(1.,0.,0.));
#373=DIRECTION('',(0.,0.,-1.));
#374=DIRECTION('center_axis',(0.,0.,1.));
#375=DIRECTION('ref_axis',(1.,0.,0.));
#376=DIRECTION('center_axis',(0.,0.,-1.));
#377=DIRECTION('ref_axis',(1.,0.,0.));
#378=DIRECTION('',(0.,0.,-1.));
#379=DIRECTION('center_axis',(0.,0.,1.));
#380=DIRECTION('ref_axis',(1.,0.,0.));
#381=DIRECTION('center_axis',(0.,0.,-1.));
#382=DIRECTION('ref_axis',(1.,0.,0.));
#383=DIRECTION('',(0.,0.,-1.));
#384=DIRECTION('center_axis',(0.,0.,1.));
#385=DIRECTION('ref_axis',(1.,0.,0.));
#386=DIRECTION('center_axis',(0.,0.,-1.));
#387=DIRECTION('ref_axis',(1.,0.,0.));
#388=DIRECTION('',(0.,0.,-1.));
#389=DIRECTION('center_axis',(0.,0.,1.));
#390=DIRECTION('ref_axis',(1.,0.,0.));
#391=CARTESIAN_POINT('',(0.,0.,0.));
#392=CARTESIAN_POINT('Origin',(0.,-125.000001862645,66.0000009834766));
#393=CARTESIAN_POINT('',(2.57487863791675,-126.900001862645,66.0000009834766));
#394=CARTESIAN_POINT('Ctrl Pts',(2.57487863791675,-126.900001862645,66.0000009834766));
#395=CARTESIAN_POINT('Ctrl Pts',(2.57487863791675,-126.900001862645,65.7533210220754));
#396=CARTESIAN_POINT('Ctrl Pts',(2.61406892144917,-126.849399872398,65.4966598211807));
#397=CARTESIAN_POINT('Ctrl Pts',(2.74187836065242,-126.654006300714,65.0315502825609));
#398=CARTESIAN_POINT('Ctrl Pts',(2.82761654026509,-126.50929008145,64.822283433773));
#399=CARTESIAN_POINT('Ctrl Pts',(2.98052768818574,-126.178735569913,64.4917289222357));
#400=CARTESIAN_POINT('Ctrl Pts',(3.05910984996984,-125.96918405966,64.3463022681297));
#401=CARTESIAN_POINT('Ctrl Pts',(3.16936513836027,-125.502587079234,64.1502869797376));
#402=CARTESIAN_POINT('Ctrl Pts',(3.2,-125.245169834404,64.1000009834766));
#403=CARTESIAN_POINT('Ctrl Pts',(3.2,-124.754833890887,64.1000009834766));
#404=CARTESIAN_POINT('Ctrl Pts',(3.16936513836028,-124.497416646056,64.1502869797375));
#405=CARTESIAN_POINT('Ctrl Pts',(3.05910984996985,-124.030819665631,64.3463022681297));
#406=CARTESIAN_POINT('Ctrl Pts',(2.98052768818574,-123.821268155377,64.4917289222357));
#407=CARTESIAN_POINT('Ctrl Pts',(2.82761654026509,-123.49071364384,64.822283433773));
#408=CARTESIAN_POINT('Ctrl Pts',(2.74187836065243,-123.345997424576,65.0315502825609));
#409=CARTESIAN_POINT('Ctrl Pts',(2.61406892144918,-123.150603852892,65.4966598211807));
#410=CARTESIAN_POINT('Ctrl Pts',(2.57487863791675,-123.100001862645,65.7533210220754));
#411=CARTESIAN_POINT('Ctrl Pts',(2.57487863791675,-123.100001862645,66.2466809448779));
#412=CARTESIAN_POINT('Ctrl Pts',(2.61406892144919,-123.150603852892,66.5033421457726));
#413=CARTESIAN_POINT('Ctrl Pts',(2.74187836065245,-123.345997424576,66.9684516843924));
#414=CARTESIAN_POINT('Ctrl Pts',(2.82761654026509,-123.49071364384,67.1777185331803));
#415=CARTESIAN_POINT('Ctrl Pts',(2.98052768818574,-123.821268155377,67.5082730447176));
#416=CARTESIAN_POINT('Ctrl Pts',(3.05910984996984,-124.03081966563,67.6536996988236));
#417=CARTESIAN_POINT('Ctrl Pts',(3.16936513836027,-124.497416646056,67.8497149872157));
#418=CARTESIAN_POINT('Ctrl Pts',(3.2,-124.754833890887,67.9000009834766));
#419=CARTESIAN_POINT('Ctrl Pts',(3.2,-125.245169834404,67.9000009834766));
#420=CARTESIAN_POINT('Ctrl Pts',(3.16936513836027,-125.502587079234,67.8497149872157));
#421=CARTESIAN_POINT('Ctrl Pts',(3.05910984996984,-125.96918405966,67.6536996988236));
#422=CARTESIAN_POINT('Ctrl Pts',(2.98052768818574,-126.178735569913,67.5082730447176));
#423=CARTESIAN_POINT('Ctrl Pts',(2.82761654026509,-126.50929008145,67.1777185331803));
#424=CARTESIAN_POINT('Ctrl Pts',(2.74187836065242,-126.654006300714,66.9684516843923));
#425=CARTESIAN_POINT('Ctrl Pts',(2.61406892144917,-126.849399872398,66.5033421457726));
#426=CARTESIAN_POINT('Ctrl Pts',(2.57487863791675,-126.900001862645,66.2466809448779));
#427=CARTESIAN_POINT('Ctrl Pts',(2.57487863791675,-126.900001862645,66.0000009834766));
#428=CARTESIAN_POINT('',(9.8178410549485,-126.900001862645,66.0000009834766));
#429=CARTESIAN_POINT('',(0.,-126.900001862645,66.0000009834766));
#430=CARTESIAN_POINT('',(10.,-125.000001862645,64.1000009834766));
#431=CARTESIAN_POINT('Ctrl Pts',(10.0000001490116,-125.000001862645,64.1000009834766));
#432=CARTESIAN_POINT('Ctrl Pts',(10.0000001490116,-125.239191036091,64.1000009834766));
#433=CARTESIAN_POINT('Ctrl Pts',(9.99054926580666,-125.493929936903,64.1479218179108));
#434=CARTESIAN_POINT('Ctrl Pts',(9.9563961602299,-125.961882873277,64.342006088805));
#435=CARTESIAN_POINT('Ctrl Pts',(9.93216538765004,-126.175144382014,64.4881377343365));
#436=CARTESIAN_POINT('Ctrl Pts',(9.88651193398274,-126.511872767505,64.8248661198281));
#437=CARTESIAN_POINT('Ctrl Pts',(9.86208732285681,-126.657998413245,65.0381243662663));
#438=CARTESIAN_POINT('Ctrl Pts',(9.82748858222824,-126.852078331062,65.5060660053297));
#439=CARTESIAN_POINT('Ctrl Pts',(9.8178410549485,-126.900001862645,65.7608009335667));
#440=CARTESIAN_POINT('Ctrl Pts',(9.8178410549485,-126.900001862645,66.0000009834767));
#441=CARTESIAN_POINT('',(10.,-125.000001862645,67.9000009834766));
#442=CARTESIAN_POINT('Ctrl Pts',(10.0000001490116,-125.000001862645,67.9000009834766));
#443=CARTESIAN_POINT('Ctrl Pts',(10.0000001490116,-124.760812689199,67.9000009834766));
#444=CARTESIAN_POINT('Ctrl Pts',(9.99054926580666,-124.506073788387,67.8520801490424));
#445=CARTESIAN_POINT('Ctrl Pts',(9.9563961602299,-124.038120852013,67.6579958781483));
#446=CARTESIAN_POINT('Ctrl Pts',(9.93216538765004,-123.824859343276,67.5118642326168));
#447=CARTESIAN_POINT('Ctrl Pts',(9.88651193398274,-123.488130957785,67.1751358471252));
#448=CARTESIAN_POINT('Ctrl Pts',(9.86208732285681,-123.342005312046,66.961877600687));
#449=CARTESIAN_POINT('Ctrl Pts',(9.82748858222824,-123.147925394229,66.4939359616235));
#450=CARTESIAN_POINT('Ctrl Pts',(9.8178410549485,-123.100001862645,66.2392010333866));
#451=CARTESIAN_POINT('Ctrl Pts',(9.8178410549485,-123.100001862645,65.7608009335667));
#452=CARTESIAN_POINT('Ctrl Pts',(9.82748858222824,-123.147925394229,65.5060660053297));
#453=CARTESIAN_POINT('Ctrl Pts',(9.86208732285681,-123.342005312046,65.0381243662663));
#454=CARTESIAN_POINT('Ctrl Pts',(9.88651193398274,-123.488130957785,64.8248661198281));
#455=CARTESIAN_POINT('Ctrl Pts',(9.93216538765004,-123.824859343276,64.4881377343365));
#456=CARTESIAN_POINT('Ctrl Pts',(9.9563961602299,-124.038120852013,64.342006088805));
#457=CARTESIAN_POINT('Ctrl Pts',(9.99054926580666,-124.506073788387,64.1479218179108));
#458=CARTESIAN_POINT('Ctrl Pts',(10.0000001490116,-124.760812689199,64.1000009834766));
#459=CARTESIAN_POINT('Ctrl Pts',(10.0000001490116,-125.000001862645,64.1000009834766));
#460=CARTESIAN_POINT('Ctrl Pts',(9.8178410549485,-126.900001862645,66.0000009834766));
#461=CARTESIAN_POINT('Ctrl Pts',(9.8178410549485,-126.900001862645,66.2392010333866));
#462=CARTESIAN_POINT('Ctrl Pts',(9.82748858222824,-126.852078331062,66.4939359616235));
#463=CARTESIAN_POINT('Ctrl Pts',(9.86208732285681,-126.657998413245,66.961877600687));
#464=CARTESIAN_POINT('Ctrl Pts',(9.88651193398274,-126.511872767505,67.1751358471252));
#465=CARTESIAN_POINT('Ctrl Pts',(9.93216538765004,-126.175144382014,67.5118642326168));
#466=CARTESIAN_POINT('Ctrl Pts',(9.9563961602299,-125.961882873277,67.6579958781483));
#467=CARTESIAN_POINT('Ctrl Pts',(9.99054926580666,-125.493929936903,67.8520801490424));
#468=CARTESIAN_POINT('Ctrl Pts',(10.0000001490116,-125.239191036091,67.9000009834766));
#469=CARTESIAN_POINT('Ctrl Pts',(10.0000001490116,-125.000001862645,67.9000009834766));
#470=CARTESIAN_POINT('Origin',(0.,-125.000001862645,66.0000009834766));
#471=CARTESIAN_POINT('',(-10.,-125.000001862645,67.9000009834766));
#472=CARTESIAN_POINT('',(-9.8178410549485,-126.900001862645,66.0000009834766));
#473=CARTESIAN_POINT('Ctrl Pts',(-10.0000001490116,-125.000001862645,67.9000009834766));
#474=CARTESIAN_POINT('Ctrl Pts',(-10.0000001490116,-125.239191036091,67.9000009834766));
#475=CARTESIAN_POINT('Ctrl Pts',(-9.99054926580666,-125.493929936903,67.8520801490424));
#476=CARTESIAN_POINT('Ctrl Pts',(-9.9563961602299,-125.961882873277,67.6579958781483));
#477=CARTESIAN_POINT('Ctrl Pts',(-9.93216538765004,-126.175144382014,67.5118642326168));
#478=CARTESIAN_POINT('Ctrl Pts',(-9.88651193398274,-126.511872767505,67.1751358471252));
#479=CARTESIAN_POINT('Ctrl Pts',(-9.86208732285681,-126.657998413245,66.961877600687));
#480=CARTESIAN_POINT('Ctrl Pts',(-9.82748858222824,-126.852078331062,66.4939359616235));
#481=CARTESIAN_POINT('Ctrl Pts',(-9.8178410549485,-126.900001862645,66.2392010333866));
#482=CARTESIAN_POINT('Ctrl Pts',(-9.8178410549485,-126.900001862645,66.0000009834766));
#483=CARTESIAN_POINT('',(-10.,-125.000001862645,64.1000009834766));
#484=CARTESIAN_POINT('Ctrl Pts',(-10.0000001490116,-125.000001862645,64.1000009834766));
#485=CARTESIAN_POINT('Ctrl Pts',(-10.0000001490116,-124.760812689199,64.1000009834766));
#486=CARTESIAN_POINT('Ctrl Pts',(-9.99054926580666,-124.506073788387,64.1479218179108));
#487=CARTESIAN_POINT('Ctrl Pts',(-9.9563961602299,-124.038120852013,64.342006088805));
#488=CARTESIAN_POINT('Ctrl Pts',(-9.93216538765004,-123.824859343276,64.4881377343365));
#489=CARTESIAN_POINT('Ctrl Pts',(-9.88651193398274,-123.488130957785,64.8248661198281));
#490=CARTESIAN_POINT('Ctrl Pts',(-9.86208732285681,-123.342005312046,65.0381243662663));
#491=CARTESIAN_POINT('Ctrl Pts',(-9.82748858222824,-123.147925394229,65.5060660053297));
#492=CARTESIAN_POINT('Ctrl Pts',(-9.8178410549485,-123.100001862645,65.7608009335667));
#493=CARTESIAN_POINT('Ctrl Pts',(-9.8178410549485,-123.100001862645,66.2392010333866));
#494=CARTESIAN_POINT('Ctrl Pts',(-9.82748858222824,-123.147925394229,66.4939359616235));
#495=CARTESIAN_POINT('Ctrl Pts',(-9.86208732285681,-123.342005312046,66.961877600687));
#496=CARTESIAN_POINT('Ctrl Pts',(-9.88651193398274,-123.488130957785,67.1751358471252));
#497=CARTESIAN_POINT('Ctrl Pts',(-9.93216538765004,-123.824859343276,67.5118642326168));
#498=CARTESIAN_POINT('Ctrl Pts',(-9.9563961602299,-124.038120852013,67.6579958781483));
#499=CARTESIAN_POINT('Ctrl Pts',(-9.99054926580666,-124.506073788387,67.8520801490424));
#500=CARTESIAN_POINT('Ctrl Pts',(-10.0000001490116,-124.760812689199,67.9000009834766));
#501=CARTESIAN_POINT('Ctrl Pts',(-10.0000001490116,-125.000001862645,67.9000009834766));
#502=CARTESIAN_POINT('Ctrl Pts',(-9.8178410549485,-126.900001862645,66.0000009834767));
#503=CARTESIAN_POINT('Ctrl Pts',(-9.8178410549485,-126.900001862645,65.7608009335667));
#504=CARTESIAN_POINT('Ctrl Pts',(-9.82748858222824,-126.852078331062,65.5060660053297));
#505=CARTESIAN_POINT('Ctrl Pts',(-9.86208732285681,-126.657998413245,65.0381243662663));
#506=CARTESIAN_POINT('Ctrl Pts',(-9.88651193398274,-126.511872767505,64.8248661198281));
#507=CARTESIAN_POINT('Ctrl Pts',(-9.93216538765004,-126.175144382014,64.4881377343365));
#508=CARTESIAN_POINT('Ctrl Pts',(-9.9563961602299,-125.961882873277,64.342006088805));
#509=CARTESIAN_POINT('Ctrl Pts',(-9.99054926580666,-125.493929936903,64.1479218179108));
#510=CARTESIAN_POINT('Ctrl Pts',(-10.0000001490116,-125.239191036091,64.1000009834766));
#511=CARTESIAN_POINT('Ctrl Pts',(-10.0000001490116,-125.000001862645,64.1000009834766));
#512=CARTESIAN_POINT('',(-1.69999996200204,-126.900001862645,66.0000009834766));
#513=CARTESIAN_POINT('',(0.,-126.900001862645,66.0000009834766));
#514=CARTESIAN_POINT('Origin',(-1.69999996200204,-125.000001862645,66.0000009834766));
#515=CARTESIAN_POINT('Origin',(0.,-125.000001862645,72.));
#516=CARTESIAN_POINT('',(-10.0000001490116,-125.000001862645,62.));
#517=CARTESIAN_POINT('Origin',(0.,-125.000001862645,62.));
#518=CARTESIAN_POINT('',(-10.0000001490116,-125.000001862645,72.));
#519=CARTESIAN_POINT('',(-10.0000001490116,-125.000001862645,72.));
#520=CARTESIAN_POINT('',(-10.0000001490116,-125.000001862645,72.));
#521=CARTESIAN_POINT('Origin',(0.,-125.000001862645,72.));
#522=CARTESIAN_POINT('Origin',(-1.69999996200204,-122.288913496473,72.));
#523=CARTESIAN_POINT('',(-1.69999996200204,-127.711090228817,72.));
#524=CARTESIAN_POINT('',(-1.69999996200204,-122.288913496473,72.));
#525=CARTESIAN_POINT('',(-1.69999996200204,-123.644457679559,72.));
#526=CARTESIAN_POINT('',(-1.69999996200204,-127.711090228817,62.));
#527=CARTESIAN_POINT('',(-1.69999996200204,-127.711090228817,72.));
#528=CARTESIAN_POINT('',(-1.69999996200204,-122.288913496473,62.));
#529=CARTESIAN_POINT('',(-1.69999996200204,-122.288913496473,62.));
#530=CARTESIAN_POINT('',(-1.69999996200204,-122.288913496473,72.));
#531=CARTESIAN_POINT('Origin',(0.,-125.000001862645,72.));
#532=CARTESIAN_POINT('Origin',(0.,-125.000001862645,72.));
#533=CARTESIAN_POINT('Origin',(0.,-125.000001862645,62.));
#534=CARTESIAN_POINT('Origin',(0.,-125.000001862645,62.));
#535=CARTESIAN_POINT('Origin',(0.,-125.000001862645,72.));
#536=CARTESIAN_POINT('',(-32.0000005215406,-125.000001862645,72.));
#537=CARTESIAN_POINT('Origin',(0.,-125.000001862645,72.));
#538=CARTESIAN_POINT('',(-1.05,-95.0000014156103,72.));
#539=CARTESIAN_POINT('Origin',(0.,-95.0000014156103,72.));
#540=CARTESIAN_POINT('',(28.9500004470348,-125.000001862645,72.));
#541=CARTESIAN_POINT('Origin',(30.0000004470348,-125.000001862645,72.));
#542=CARTESIAN_POINT('',(-31.0500004470348,-125.000001862645,72.));
#543=CARTESIAN_POINT('Origin',(-30.0000004470348,-125.000001862645,72.));
#544=CARTESIAN_POINT('',(-1.05,-155.00000230968,72.));
#545=CARTESIAN_POINT('Origin',(0.,-155.00000230968,72.));
#546=CARTESIAN_POINT('Origin',(0.,-125.000001862645,75.));
#547=CARTESIAN_POINT('',(-35.0000005215406,-125.000001862645,75.));
#548=CARTESIAN_POINT('Origin',(0.,-125.000001862645,75.));
#549=CARTESIAN_POINT('Origin',(-32.0000005215406,-125.000001862645,75.));
#550=CARTESIAN_POINT('Origin',(0.,-125.000001862645,72.));
#551=CARTESIAN_POINT('Origin',(0.,-155.00000230968,0.));
#552=CARTESIAN_POINT('',(-1.05,-155.00000230968,75.));
#553=CARTESIAN_POINT('Origin',(0.,-155.00000230968,75.));
#554=CARTESIAN_POINT('',(-1.05,-155.00000230968,0.));
#555=CARTESIAN_POINT('Origin',(-30.0000004470348,-125.000001862645,0.));
#556=CARTESIAN_POINT('',(-31.0500004470348,-125.000001862645,75.));
#557=CARTESIAN_POINT('Origin',(-30.0000004470348,-125.000001862645,75.));
#558=CARTESIAN_POINT('',(-31.0500004470348,-125.000001862645,0.));
#559=CARTESIAN_POINT('Origin',(30.0000004470348,-125.000001862645,0.));
#560=CARTESIAN_POINT('',(28.9500004470348,-125.000001862645,75.));
#561=CARTESIAN_POINT('Origin',(30.0000004470348,-125.000001862645,75.));
#562=CARTESIAN_POINT('',(28.9500004470348,-125.000001862645,0.));
#563=CARTESIAN_POINT('Origin',(0.,-95.0000014156103,0.));
#564=CARTESIAN_POINT('',(-1.05,-95.0000014156103,75.));
#565=CARTESIAN_POINT('Origin',(0.,-95.0000014156103,75.));
#566=CARTESIAN_POINT('',(-1.05,-95.0000014156103,0.));
#567=CARTESIAN_POINT('Origin',(0.,-125.000001862645,75.));
#568=UNCERTAINTY_MEASURE_WITH_UNIT(LENGTH_MEASURE(0.01),#572,
'DISTANCE_ACCURACY_VALUE',
'Maximum model space distance between geometric entities at asserted c
onnectivities');
#569=UNCERTAINTY_MEASURE_WITH_UNIT(LENGTH_MEASURE(0.01),#572,
'DISTANCE_ACCURACY_VALUE',
'Maximum model space distance between geometric entities at asserted c
onnectivities');
#570=(
GEOMETRIC_REPRESENTATION_CONTEXT(3)
GLOBAL_UNCERTAINTY_ASSIGNED_CONTEXT((#568))
GLOBAL_UNIT_ASSIGNED_CONTEXT((#572,#574,#575))
REPRESENTATION_CONTEXT('','3D')
);
#571=(
GEOMETRIC_REPRESENTATION_CONTEXT(3)
GLOBAL_UNCERTAINTY_ASSIGNED_CONTEXT((#569))
GLOBAL_UNIT_ASSIGNED_CONTEXT((#572,#574,#575))
REPRESENTATION_CONTEXT('','3D')
);
#572=(
LENGTH_UNIT()
NAMED_UNIT(*)
SI_UNIT(.MILLI.,.METRE.)
);
#573=(
LENGTH_UNIT()
NAMED_UNIT(*)
SI_UNIT($,.METRE.)
);
#574=(
NAMED_UNIT(*)
PLANE_ANGLE_UNIT()
SI_UNIT($,.RADIAN.)
);
#575=(
NAMED_UNIT(*)
SI_UNIT($,.STERADIAN.)
SOLID_ANGLE_UNIT()
);
#576=SHAPE_DEFINITION_REPRESENTATION(#577,#578);
#577=PRODUCT_DEFINITION_SHAPE('',$,#580);
#578=SHAPE_REPRESENTATION('',(#286),#570);
#579=PRODUCT_DEFINITION_CONTEXT('part definition',#584,'design');
#580=PRODUCT_DEFINITION('2025-07-30-21-06-19-452','link1_2',#581,#579);
#581=PRODUCT_DEFINITION_FORMATION('',$,#586);
#582=PRODUCT_RELATED_PRODUCT_CATEGORY('link1_2','link1_2',(#586));
#583=APPLICATION_PROTOCOL_DEFINITION('international standard',
'automotive_design',2009,#584);
#584=APPLICATION_CONTEXT(
'Core Data for Automotive Mechanical Design Process');
#585=PRODUCT_CONTEXT('part definition',#584,'mechanical');
#586=PRODUCT('2025-07-30-21-06-19-452','link1_2',$,(#585));
#587=PRESENTATION_STYLE_ASSIGNMENT((#589));
#588=PRESENTATION_STYLE_ASSIGNMENT((#590));
#589=SURFACE_STYLE_USAGE(.BOTH.,#591);
#590=SURFACE_STYLE_USAGE(.BOTH.,#592);
#591=SURFACE_SIDE_STYLE('',(#593));
#592=SURFACE_SIDE_STYLE('',(#594));
#593=SURFACE_STYLE_FILL_AREA(#595);
#594=SURFACE_STYLE_FILL_AREA(#596);
#595=FILL_AREA_STYLE('Steel - Satin',(#597));
#596=FILL_AREA_STYLE('Sunflower yellow PLA',(#598));
#597=FILL_AREA_STYLE_COLOUR('Steel - Satin',#599);
#598=FILL_AREA_STYLE_COLOUR('Sunflower yellow PLA',#600);
#599=COLOUR_RGB('Steel - Satin',0.627450980392157,0.627450980392157,0.627450980392157);
#600=COLOUR_RGB('Sunflower yellow PLA',1.,0.733333333333333,0.);
ENDSEC;
END-ISO-10303-21;
