ISO-10303-21;
HEADER;
/* Generated by software containing ST-Developer
 * from STEP Tools, Inc. (www.steptools.com) 
 */

FILE_DESCRIPTION(
/* description */ (''),
/* implementation_level */ '2;1');

FILE_NAME(
/* name */ 'zrot_2.step',
/* time_stamp */ '2025-08-01T16:18:15+01:00',
/* author */ (''),
/* organization */ (''),
/* preprocessor_version */ 'ST-DEVELOPER v20.1',
/* originating_system */ 'Autodesk Translation Framework v14.10.0.0',
/* authorisation */ '');

FILE_SCHEMA (('AUTOMOTIVE_DESIGN { 1 0 10303 214 3 1 1 }'));
ENDSEC;

DATA;
#10=MECHANICAL_DESIGN_GEOMETRIC_PRESENTATION_REPRESENTATION('',(#13),#762);
#11=SHAPE_REPRESENTATION_RELATIONSHIP('SRR','None',#769,#12);
#12=ADVANCED_BREP_SHAPE_REPRESENTATION('',(#14),#761);
#13=STYLED_ITEM('',(#779),#14);
#14=MANIFOLD_SOLID_BREP('Body1',#432);
#15=(
BOUNDED_SURFACE()
B_SPLINE_SURFACE(1,2,((#717,#718,#719,#720,#721),(#722,#723,#724,#725,#726)),
 .UNSPECIFIED.,.F.,.F.,.F.)
B_SPLINE_SURFACE_WITH_KNOTS((2,2),(3,2,3),(0.42,0.52),(-1.57079630742339,
2.22044604925031E-16,1.57079630742339),.UNSPECIFIED.)
GEOMETRIC_REPRESENTATION_ITEM()
RATIONAL_B_SPLINE_SURFACE(((1.,0.70710678803541,1.,0.70710678803541,1.),
(1.,0.70710678803541,1.,0.70710678803541,1.)))
REPRESENTATION_ITEM('')
SURFACE()
);
#16=ELLIPSE('',#479,50.,29.9999985843897);
#17=ELLIPSE('',#484,50.,29.9999985843897);
#18=FACE_BOUND('',#70,.T.);
#19=FACE_BOUND('',#74,.T.);
#20=FACE_BOUND('',#78,.T.);
#21=FACE_BOUND('',#82,.T.);
#22=FACE_BOUND('',#84,.T.);
#23=FACE_BOUND('',#85,.T.);
#24=FACE_BOUND('',#86,.T.);
#25=FACE_BOUND('',#87,.T.);
#26=FACE_BOUND('',#88,.T.);
#27=FACE_BOUND('',#99,.T.);
#28=FACE_BOUND('',#100,.T.);
#29=FACE_BOUND('',#101,.T.);
#30=FACE_BOUND('',#102,.T.);
#31=FACE_BOUND('',#103,.T.);
#32=FACE_BOUND('',#104,.T.);
#33=FACE_BOUND('',#105,.T.);
#34=PLANE('',#454);
#35=PLANE('',#461);
#36=PLANE('',#468);
#37=PLANE('',#477);
#38=PLANE('',#478);
#39=PLANE('',#485);
#40=PLANE('',#486);
#41=PLANE('',#493);
#42=PLANE('',#494);
#43=PLANE('',#497);
#44=FACE_OUTER_BOUND('',#67,.T.);
#45=FACE_OUTER_BOUND('',#68,.T.);
#46=FACE_OUTER_BOUND('',#69,.T.);
#47=FACE_OUTER_BOUND('',#71,.T.);
#48=FACE_OUTER_BOUND('',#72,.T.);
#49=FACE_OUTER_BOUND('',#73,.T.);
#50=FACE_OUTER_BOUND('',#75,.T.);
#51=FACE_OUTER_BOUND('',#76,.T.);
#52=FACE_OUTER_BOUND('',#77,.T.);
#53=FACE_OUTER_BOUND('',#79,.T.);
#54=FACE_OUTER_BOUND('',#80,.T.);
#55=FACE_OUTER_BOUND('',#81,.T.);
#56=FACE_OUTER_BOUND('',#83,.T.);
#57=FACE_OUTER_BOUND('',#89,.T.);
#58=FACE_OUTER_BOUND('',#90,.T.);
#59=FACE_OUTER_BOUND('',#91,.T.);
#60=FACE_OUTER_BOUND('',#92,.T.);
#61=FACE_OUTER_BOUND('',#93,.T.);
#62=FACE_OUTER_BOUND('',#94,.T.);
#63=FACE_OUTER_BOUND('',#95,.T.);
#64=FACE_OUTER_BOUND('',#96,.T.);
#65=FACE_OUTER_BOUND('',#97,.T.);
#66=FACE_OUTER_BOUND('',#98,.T.);
#67=EDGE_LOOP('',(#283,#284,#285,#286));
#68=EDGE_LOOP('',(#287,#288,#289,#290,#291,#292,#293,#294));
#69=EDGE_LOOP('',(#295));
#70=EDGE_LOOP('',(#296));
#71=EDGE_LOOP('',(#297,#298,#299,#300));
#72=EDGE_LOOP('',(#301,#302,#303,#304));
#73=EDGE_LOOP('',(#305));
#74=EDGE_LOOP('',(#306));
#75=EDGE_LOOP('',(#307,#308,#309,#310));
#76=EDGE_LOOP('',(#311,#312,#313,#314));
#77=EDGE_LOOP('',(#315));
#78=EDGE_LOOP('',(#316));
#79=EDGE_LOOP('',(#317,#318,#319,#320));
#80=EDGE_LOOP('',(#321,#322,#323,#324,#325,#326,#327,#328));
#81=EDGE_LOOP('',(#329));
#82=EDGE_LOOP('',(#330));
#83=EDGE_LOOP('',(#331,#332,#333,#334,#335,#336,#337,#338));
#84=EDGE_LOOP('',(#339));
#85=EDGE_LOOP('',(#340));
#86=EDGE_LOOP('',(#341));
#87=EDGE_LOOP('',(#342));
#88=EDGE_LOOP('',(#343));
#89=EDGE_LOOP('',(#344,#345,#346,#347));
#90=EDGE_LOOP('',(#348,#349,#350,#351));
#91=EDGE_LOOP('',(#352,#353,#354,#355));
#92=EDGE_LOOP('',(#356,#357,#358,#359));
#93=EDGE_LOOP('',(#360,#361,#362,#363));
#94=EDGE_LOOP('',(#364,#365,#366,#367));
#95=EDGE_LOOP('',(#368,#369,#370,#371));
#96=EDGE_LOOP('',(#372,#373,#374,#375));
#97=EDGE_LOOP('',(#376,#377,#378,#379));
#98=EDGE_LOOP('',(#380,#381,#382,#383,#384,#385,#386,#387,#388,#389));
#99=EDGE_LOOP('',(#390));
#100=EDGE_LOOP('',(#391));
#101=EDGE_LOOP('',(#392));
#102=EDGE_LOOP('',(#393));
#103=EDGE_LOOP('',(#394));
#104=EDGE_LOOP('',(#395));
#105=EDGE_LOOP('',(#396));
#106=LINE('',#636,#133);
#107=LINE('',#641,#134);
#108=LINE('',#645,#135);
#109=LINE('',#650,#136);
#110=LINE('',#657,#137);
#111=LINE('',#663,#138);
#112=LINE('',#670,#139);
#113=LINE('',#676,#140);
#114=LINE('',#683,#141);
#115=LINE('',#688,#142);
#116=LINE('',#692,#143);
#117=LINE('',#697,#144);
#118=LINE('',#702,#145);
#119=LINE('',#704,#146);
#120=LINE('',#707,#147);
#121=LINE('',#709,#148);
#122=LINE('',#728,#149);
#123=LINE('',#731,#150);
#124=LINE('',#733,#151);
#125=LINE('',#736,#152);
#126=LINE('',#737,#153);
#127=LINE('',#741,#154);
#128=LINE('',#745,#155);
#129=LINE('',#749,#156);
#130=LINE('',#751,#157);
#131=LINE('',#754,#158);
#132=LINE('',#755,#159);
#133=VECTOR('',#504,1.05);
#134=VECTOR('',#509,10.);
#135=VECTOR('',#512,3.00000004470348);
#136=VECTOR('',#517,10.);
#137=VECTOR('',#526,3.00000004470348);
#138=VECTOR('',#533,1.05);
#139=VECTOR('',#542,3.00000004470348);
#140=VECTOR('',#549,1.05);
#141=VECTOR('',#558,1.05);
#142=VECTOR('',#563,10.);
#143=VECTOR('',#566,3.00000004470348);
#144=VECTOR('',#571,10.);
#145=VECTOR('',#578,10.);
#146=VECTOR('',#579,10.);
#147=VECTOR('',#582,10.);
#148=VECTOR('',#583,10.);
#149=VECTOR('',#592,10.);
#150=VECTOR('',#595,10.);
#151=VECTOR('',#598,10.);
#152=VECTOR('',#601,10.);
#153=VECTOR('',#602,10.);
#154=VECTOR('',#607,5.999998226762);
#155=VECTOR('',#612,1.05);
#156=VECTOR('',#617,1.05);
#157=VECTOR('',#620,10.);
#158=VECTOR('',#623,10.);
#159=VECTOR('',#624,10.);
#160=CIRCLE('',#447,1.05);
#161=CIRCLE('',#448,1.05);
#162=CIRCLE('',#450,3.00000004470348);
#163=CIRCLE('',#451,3.00000004470348);
#164=CIRCLE('',#452,3.00000004470348);
#165=CIRCLE('',#453,3.00000004470348);
#166=CIRCLE('',#456,3.00000004470348);
#167=CIRCLE('',#457,3.00000004470348);
#168=CIRCLE('',#459,1.05);
#169=CIRCLE('',#460,1.05);
#170=CIRCLE('',#463,3.00000004470348);
#171=CIRCLE('',#464,3.00000004470348);
#172=CIRCLE('',#466,1.05);
#173=CIRCLE('',#467,1.05);
#174=CIRCLE('',#470,1.05);
#175=CIRCLE('',#471,1.05);
#176=CIRCLE('',#473,3.00000004470348);
#177=CIRCLE('',#474,3.00000004470348);
#178=CIRCLE('',#475,3.00000004470348);
#179=CIRCLE('',#476,3.00000004470348);
#180=CIRCLE('',#480,23.9999984949827);
#181=CIRCLE('',#481,1.05);
#182=CIRCLE('',#482,1.05);
#183=CIRCLE('',#483,5.999998226762);
#184=CIRCLE('',#488,5.999998226762);
#185=CIRCLE('',#490,1.05);
#186=CIRCLE('',#492,1.05);
#187=CIRCLE('',#496,23.9999984949827);
#188=VERTEX_POINT('',#633);
#189=VERTEX_POINT('',#635);
#190=VERTEX_POINT('',#639);
#191=VERTEX_POINT('',#640);
#192=VERTEX_POINT('',#642);
#193=VERTEX_POINT('',#644);
#194=VERTEX_POINT('',#647);
#195=VERTEX_POINT('',#649);
#196=VERTEX_POINT('',#654);
#197=VERTEX_POINT('',#656);
#198=VERTEX_POINT('',#660);
#199=VERTEX_POINT('',#662);
#200=VERTEX_POINT('',#667);
#201=VERTEX_POINT('',#669);
#202=VERTEX_POINT('',#673);
#203=VERTEX_POINT('',#675);
#204=VERTEX_POINT('',#680);
#205=VERTEX_POINT('',#682);
#206=VERTEX_POINT('',#686);
#207=VERTEX_POINT('',#687);
#208=VERTEX_POINT('',#689);
#209=VERTEX_POINT('',#691);
#210=VERTEX_POINT('',#694);
#211=VERTEX_POINT('',#696);
#212=VERTEX_POINT('',#701);
#213=VERTEX_POINT('',#703);
#214=VERTEX_POINT('',#705);
#215=VERTEX_POINT('',#708);
#216=VERTEX_POINT('',#711);
#217=VERTEX_POINT('',#713);
#218=VERTEX_POINT('',#715);
#219=VERTEX_POINT('',#727);
#220=VERTEX_POINT('',#729);
#221=VERTEX_POINT('',#735);
#222=VERTEX_POINT('',#739);
#223=VERTEX_POINT('',#743);
#224=VERTEX_POINT('',#747);
#225=VERTEX_POINT('',#753);
#226=EDGE_CURVE('',#188,#188,#160,.T.);
#227=EDGE_CURVE('',#188,#189,#106,.T.);
#228=EDGE_CURVE('',#189,#189,#161,.T.);
#229=EDGE_CURVE('',#190,#191,#107,.T.);
#230=EDGE_CURVE('',#192,#191,#162,.T.);
#231=EDGE_CURVE('',#192,#193,#108,.T.);
#232=EDGE_CURVE('',#193,#193,#163,.T.);
#233=EDGE_CURVE('',#194,#192,#164,.T.);
#234=EDGE_CURVE('',#195,#194,#109,.T.);
#235=EDGE_CURVE('',#195,#190,#165,.T.);
#236=EDGE_CURVE('',#196,#196,#166,.T.);
#237=EDGE_CURVE('',#196,#197,#110,.T.);
#238=EDGE_CURVE('',#197,#197,#167,.T.);
#239=EDGE_CURVE('',#198,#198,#168,.T.);
#240=EDGE_CURVE('',#198,#199,#111,.T.);
#241=EDGE_CURVE('',#199,#199,#169,.T.);
#242=EDGE_CURVE('',#200,#200,#170,.T.);
#243=EDGE_CURVE('',#200,#201,#112,.T.);
#244=EDGE_CURVE('',#201,#201,#171,.T.);
#245=EDGE_CURVE('',#202,#202,#172,.T.);
#246=EDGE_CURVE('',#202,#203,#113,.T.);
#247=EDGE_CURVE('',#203,#203,#173,.T.);
#248=EDGE_CURVE('',#204,#204,#174,.T.);
#249=EDGE_CURVE('',#204,#205,#114,.T.);
#250=EDGE_CURVE('',#205,#205,#175,.T.);
#251=EDGE_CURVE('',#206,#207,#115,.T.);
#252=EDGE_CURVE('',#208,#207,#176,.T.);
#253=EDGE_CURVE('',#208,#209,#116,.T.);
#254=EDGE_CURVE('',#209,#209,#177,.T.);
#255=EDGE_CURVE('',#210,#208,#178,.T.);
#256=EDGE_CURVE('',#211,#210,#117,.T.);
#257=EDGE_CURVE('',#211,#206,#179,.T.);
#258=EDGE_CURVE('',#206,#212,#118,.T.);
#259=EDGE_CURVE('',#213,#211,#119,.T.);
#260=EDGE_CURVE('',#214,#213,#16,.T.);
#261=EDGE_CURVE('',#190,#214,#120,.T.);
#262=EDGE_CURVE('',#215,#195,#121,.T.);
#263=EDGE_CURVE('',#212,#215,#180,.T.);
#264=EDGE_CURVE('',#216,#216,#181,.T.);
#265=EDGE_CURVE('',#217,#217,#182,.T.);
#266=EDGE_CURVE('',#218,#218,#183,.T.);
#267=EDGE_CURVE('',#213,#219,#122,.T.);
#268=EDGE_CURVE('',#220,#219,#17,.T.);
#269=EDGE_CURVE('',#214,#220,#123,.T.);
#270=EDGE_CURVE('',#219,#210,#124,.T.);
#271=EDGE_CURVE('',#212,#221,#125,.T.);
#272=EDGE_CURVE('',#207,#221,#126,.T.);
#273=EDGE_CURVE('',#222,#222,#184,.T.);
#274=EDGE_CURVE('',#222,#218,#127,.T.);
#275=EDGE_CURVE('',#223,#223,#185,.T.);
#276=EDGE_CURVE('',#223,#217,#128,.T.);
#277=EDGE_CURVE('',#224,#224,#186,.T.);
#278=EDGE_CURVE('',#224,#216,#129,.T.);
#279=EDGE_CURVE('',#191,#220,#130,.T.);
#280=EDGE_CURVE('',#225,#194,#131,.T.);
#281=EDGE_CURVE('',#215,#225,#132,.T.);
#282=EDGE_CURVE('',#221,#225,#187,.T.);
#283=ORIENTED_EDGE('',*,*,#226,.F.);
#284=ORIENTED_EDGE('',*,*,#227,.T.);
#285=ORIENTED_EDGE('',*,*,#228,.T.);
#286=ORIENTED_EDGE('',*,*,#227,.F.);
#287=ORIENTED_EDGE('',*,*,#229,.T.);
#288=ORIENTED_EDGE('',*,*,#230,.F.);
#289=ORIENTED_EDGE('',*,*,#231,.T.);
#290=ORIENTED_EDGE('',*,*,#232,.T.);
#291=ORIENTED_EDGE('',*,*,#231,.F.);
#292=ORIENTED_EDGE('',*,*,#233,.F.);
#293=ORIENTED_EDGE('',*,*,#234,.F.);
#294=ORIENTED_EDGE('',*,*,#235,.T.);
#295=ORIENTED_EDGE('',*,*,#232,.F.);
#296=ORIENTED_EDGE('',*,*,#228,.F.);
#297=ORIENTED_EDGE('',*,*,#236,.T.);
#298=ORIENTED_EDGE('',*,*,#237,.T.);
#299=ORIENTED_EDGE('',*,*,#238,.T.);
#300=ORIENTED_EDGE('',*,*,#237,.F.);
#301=ORIENTED_EDGE('',*,*,#239,.F.);
#302=ORIENTED_EDGE('',*,*,#240,.T.);
#303=ORIENTED_EDGE('',*,*,#241,.T.);
#304=ORIENTED_EDGE('',*,*,#240,.F.);
#305=ORIENTED_EDGE('',*,*,#238,.F.);
#306=ORIENTED_EDGE('',*,*,#241,.F.);
#307=ORIENTED_EDGE('',*,*,#242,.T.);
#308=ORIENTED_EDGE('',*,*,#243,.T.);
#309=ORIENTED_EDGE('',*,*,#244,.T.);
#310=ORIENTED_EDGE('',*,*,#243,.F.);
#311=ORIENTED_EDGE('',*,*,#245,.F.);
#312=ORIENTED_EDGE('',*,*,#246,.T.);
#313=ORIENTED_EDGE('',*,*,#247,.T.);
#314=ORIENTED_EDGE('',*,*,#246,.F.);
#315=ORIENTED_EDGE('',*,*,#244,.F.);
#316=ORIENTED_EDGE('',*,*,#247,.F.);
#317=ORIENTED_EDGE('',*,*,#248,.F.);
#318=ORIENTED_EDGE('',*,*,#249,.T.);
#319=ORIENTED_EDGE('',*,*,#250,.T.);
#320=ORIENTED_EDGE('',*,*,#249,.F.);
#321=ORIENTED_EDGE('',*,*,#251,.T.);
#322=ORIENTED_EDGE('',*,*,#252,.F.);
#323=ORIENTED_EDGE('',*,*,#253,.T.);
#324=ORIENTED_EDGE('',*,*,#254,.T.);
#325=ORIENTED_EDGE('',*,*,#253,.F.);
#326=ORIENTED_EDGE('',*,*,#255,.F.);
#327=ORIENTED_EDGE('',*,*,#256,.F.);
#328=ORIENTED_EDGE('',*,*,#257,.T.);
#329=ORIENTED_EDGE('',*,*,#254,.F.);
#330=ORIENTED_EDGE('',*,*,#250,.F.);
#331=ORIENTED_EDGE('',*,*,#258,.F.);
#332=ORIENTED_EDGE('',*,*,#257,.F.);
#333=ORIENTED_EDGE('',*,*,#259,.F.);
#334=ORIENTED_EDGE('',*,*,#260,.F.);
#335=ORIENTED_EDGE('',*,*,#261,.F.);
#336=ORIENTED_EDGE('',*,*,#235,.F.);
#337=ORIENTED_EDGE('',*,*,#262,.F.);
#338=ORIENTED_EDGE('',*,*,#263,.F.);
#339=ORIENTED_EDGE('',*,*,#264,.F.);
#340=ORIENTED_EDGE('',*,*,#265,.F.);
#341=ORIENTED_EDGE('',*,*,#242,.F.);
#342=ORIENTED_EDGE('',*,*,#266,.F.);
#343=ORIENTED_EDGE('',*,*,#236,.F.);
#344=ORIENTED_EDGE('',*,*,#260,.T.);
#345=ORIENTED_EDGE('',*,*,#267,.T.);
#346=ORIENTED_EDGE('',*,*,#268,.F.);
#347=ORIENTED_EDGE('',*,*,#269,.F.);
#348=ORIENTED_EDGE('',*,*,#259,.T.);
#349=ORIENTED_EDGE('',*,*,#256,.T.);
#350=ORIENTED_EDGE('',*,*,#270,.F.);
#351=ORIENTED_EDGE('',*,*,#267,.F.);
#352=ORIENTED_EDGE('',*,*,#258,.T.);
#353=ORIENTED_EDGE('',*,*,#271,.T.);
#354=ORIENTED_EDGE('',*,*,#272,.F.);
#355=ORIENTED_EDGE('',*,*,#251,.F.);
#356=ORIENTED_EDGE('',*,*,#273,.F.);
#357=ORIENTED_EDGE('',*,*,#274,.T.);
#358=ORIENTED_EDGE('',*,*,#266,.T.);
#359=ORIENTED_EDGE('',*,*,#274,.F.);
#360=ORIENTED_EDGE('',*,*,#275,.F.);
#361=ORIENTED_EDGE('',*,*,#276,.T.);
#362=ORIENTED_EDGE('',*,*,#265,.T.);
#363=ORIENTED_EDGE('',*,*,#276,.F.);
#364=ORIENTED_EDGE('',*,*,#277,.F.);
#365=ORIENTED_EDGE('',*,*,#278,.T.);
#366=ORIENTED_EDGE('',*,*,#264,.T.);
#367=ORIENTED_EDGE('',*,*,#278,.F.);
#368=ORIENTED_EDGE('',*,*,#261,.T.);
#369=ORIENTED_EDGE('',*,*,#269,.T.);
#370=ORIENTED_EDGE('',*,*,#279,.F.);
#371=ORIENTED_EDGE('',*,*,#229,.F.);
#372=ORIENTED_EDGE('',*,*,#262,.T.);
#373=ORIENTED_EDGE('',*,*,#234,.T.);
#374=ORIENTED_EDGE('',*,*,#280,.F.);
#375=ORIENTED_EDGE('',*,*,#281,.F.);
#376=ORIENTED_EDGE('',*,*,#263,.T.);
#377=ORIENTED_EDGE('',*,*,#281,.T.);
#378=ORIENTED_EDGE('',*,*,#282,.F.);
#379=ORIENTED_EDGE('',*,*,#271,.F.);
#380=ORIENTED_EDGE('',*,*,#272,.T.);
#381=ORIENTED_EDGE('',*,*,#282,.T.);
#382=ORIENTED_EDGE('',*,*,#280,.T.);
#383=ORIENTED_EDGE('',*,*,#233,.T.);
#384=ORIENTED_EDGE('',*,*,#230,.T.);
#385=ORIENTED_EDGE('',*,*,#279,.T.);
#386=ORIENTED_EDGE('',*,*,#268,.T.);
#387=ORIENTED_EDGE('',*,*,#270,.T.);
#388=ORIENTED_EDGE('',*,*,#255,.T.);
#389=ORIENTED_EDGE('',*,*,#252,.T.);
#390=ORIENTED_EDGE('',*,*,#226,.T.);
#391=ORIENTED_EDGE('',*,*,#239,.T.);
#392=ORIENTED_EDGE('',*,*,#245,.T.);
#393=ORIENTED_EDGE('',*,*,#248,.T.);
#394=ORIENTED_EDGE('',*,*,#277,.T.);
#395=ORIENTED_EDGE('',*,*,#275,.T.);
#396=ORIENTED_EDGE('',*,*,#273,.T.);
#397=CYLINDRICAL_SURFACE('',#446,1.05);
#398=CYLINDRICAL_SURFACE('',#449,3.00000004470348);
#399=CYLINDRICAL_SURFACE('',#455,3.00000004470348);
#400=CYLINDRICAL_SURFACE('',#458,1.05);
#401=CYLINDRICAL_SURFACE('',#462,3.00000004470348);
#402=CYLINDRICAL_SURFACE('',#465,1.05);
#403=CYLINDRICAL_SURFACE('',#469,1.05);
#404=CYLINDRICAL_SURFACE('',#472,3.00000004470348);
#405=CYLINDRICAL_SURFACE('',#487,5.999998226762);
#406=CYLINDRICAL_SURFACE('',#489,1.05);
#407=CYLINDRICAL_SURFACE('',#491,1.05);
#408=CYLINDRICAL_SURFACE('',#495,23.9999984949827);
#409=ADVANCED_FACE('',(#44),#397,.F.);
#410=ADVANCED_FACE('',(#45),#398,.T.);
#411=ADVANCED_FACE('',(#46,#18),#34,.F.);
#412=ADVANCED_FACE('',(#47),#399,.T.);
#413=ADVANCED_FACE('',(#48),#400,.F.);
#414=ADVANCED_FACE('',(#49,#19),#35,.F.);
#415=ADVANCED_FACE('',(#50),#401,.T.);
#416=ADVANCED_FACE('',(#51),#402,.F.);
#417=ADVANCED_FACE('',(#52,#20),#36,.F.);
#418=ADVANCED_FACE('',(#53),#403,.F.);
#419=ADVANCED_FACE('',(#54),#404,.T.);
#420=ADVANCED_FACE('',(#55,#21),#37,.F.);
#421=ADVANCED_FACE('',(#56,#22,#23,#24,#25,#26),#38,.F.);
#422=ADVANCED_FACE('',(#57),#15,.F.);
#423=ADVANCED_FACE('',(#58),#39,.T.);
#424=ADVANCED_FACE('',(#59),#40,.T.);
#425=ADVANCED_FACE('',(#60),#405,.F.);
#426=ADVANCED_FACE('',(#61),#406,.F.);
#427=ADVANCED_FACE('',(#62),#407,.F.);
#428=ADVANCED_FACE('',(#63),#41,.T.);
#429=ADVANCED_FACE('',(#64),#42,.T.);
#430=ADVANCED_FACE('',(#65),#408,.F.);
#431=ADVANCED_FACE('',(#66,#27,#28,#29,#30,#31,#32,#33),#43,.T.);
#432=CLOSED_SHELL('',(#409,#410,#411,#412,#413,#414,#415,#416,#417,#418,
#419,#420,#421,#422,#423,#424,#425,#426,#427,#428,#429,#430,#431));
#433=DERIVED_UNIT_ELEMENT(#435,1.);
#434=DERIVED_UNIT_ELEMENT(#764,-3.);
#435=(
MASS_UNIT()
NAMED_UNIT(*)
SI_UNIT(.KILO.,.GRAM.)
);
#436=DERIVED_UNIT((#433,#434));
#437=MEASURE_REPRESENTATION_ITEM('density measure',
POSITIVE_RATIO_MEASURE(7850.),#436);
#438=PROPERTY_DEFINITION_REPRESENTATION(#443,#440);
#439=PROPERTY_DEFINITION_REPRESENTATION(#444,#441);
#440=REPRESENTATION('material name',(#442),#761);
#441=REPRESENTATION('density',(#437),#761);
#442=DESCRIPTIVE_REPRESENTATION_ITEM('Steel','Steel');
#443=PROPERTY_DEFINITION('material property','material name',#771);
#444=PROPERTY_DEFINITION('material property','density of part',#771);
#445=AXIS2_PLACEMENT_3D('',#631,#498,#499);
#446=AXIS2_PLACEMENT_3D('',#632,#500,#501);
#447=AXIS2_PLACEMENT_3D('',#634,#502,#503);
#448=AXIS2_PLACEMENT_3D('',#637,#505,#506);
#449=AXIS2_PLACEMENT_3D('',#638,#507,#508);
#450=AXIS2_PLACEMENT_3D('',#643,#510,#511);
#451=AXIS2_PLACEMENT_3D('',#646,#513,#514);
#452=AXIS2_PLACEMENT_3D('',#648,#515,#516);
#453=AXIS2_PLACEMENT_3D('',#651,#518,#519);
#454=AXIS2_PLACEMENT_3D('',#652,#520,#521);
#455=AXIS2_PLACEMENT_3D('',#653,#522,#523);
#456=AXIS2_PLACEMENT_3D('',#655,#524,#525);
#457=AXIS2_PLACEMENT_3D('',#658,#527,#528);
#458=AXIS2_PLACEMENT_3D('',#659,#529,#530);
#459=AXIS2_PLACEMENT_3D('',#661,#531,#532);
#460=AXIS2_PLACEMENT_3D('',#664,#534,#535);
#461=AXIS2_PLACEMENT_3D('',#665,#536,#537);
#462=AXIS2_PLACEMENT_3D('',#666,#538,#539);
#463=AXIS2_PLACEMENT_3D('',#668,#540,#541);
#464=AXIS2_PLACEMENT_3D('',#671,#543,#544);
#465=AXIS2_PLACEMENT_3D('',#672,#545,#546);
#466=AXIS2_PLACEMENT_3D('',#674,#547,#548);
#467=AXIS2_PLACEMENT_3D('',#677,#550,#551);
#468=AXIS2_PLACEMENT_3D('',#678,#552,#553);
#469=AXIS2_PLACEMENT_3D('',#679,#554,#555);
#470=AXIS2_PLACEMENT_3D('',#681,#556,#557);
#471=AXIS2_PLACEMENT_3D('',#684,#559,#560);
#472=AXIS2_PLACEMENT_3D('',#685,#561,#562);
#473=AXIS2_PLACEMENT_3D('',#690,#564,#565);
#474=AXIS2_PLACEMENT_3D('',#693,#567,#568);
#475=AXIS2_PLACEMENT_3D('',#695,#569,#570);
#476=AXIS2_PLACEMENT_3D('',#698,#572,#573);
#477=AXIS2_PLACEMENT_3D('',#699,#574,#575);
#478=AXIS2_PLACEMENT_3D('',#700,#576,#577);
#479=AXIS2_PLACEMENT_3D('',#706,#580,#581);
#480=AXIS2_PLACEMENT_3D('',#710,#584,#585);
#481=AXIS2_PLACEMENT_3D('',#712,#586,#587);
#482=AXIS2_PLACEMENT_3D('',#714,#588,#589);
#483=AXIS2_PLACEMENT_3D('',#716,#590,#591);
#484=AXIS2_PLACEMENT_3D('',#730,#593,#594);
#485=AXIS2_PLACEMENT_3D('',#732,#596,#597);
#486=AXIS2_PLACEMENT_3D('',#734,#599,#600);
#487=AXIS2_PLACEMENT_3D('',#738,#603,#604);
#488=AXIS2_PLACEMENT_3D('',#740,#605,#606);
#489=AXIS2_PLACEMENT_3D('',#742,#608,#609);
#490=AXIS2_PLACEMENT_3D('',#744,#610,#611);
#491=AXIS2_PLACEMENT_3D('',#746,#613,#614);
#492=AXIS2_PLACEMENT_3D('',#748,#615,#616);
#493=AXIS2_PLACEMENT_3D('',#750,#618,#619);
#494=AXIS2_PLACEMENT_3D('',#752,#621,#622);
#495=AXIS2_PLACEMENT_3D('',#756,#625,#626);
#496=AXIS2_PLACEMENT_3D('',#757,#627,#628);
#497=AXIS2_PLACEMENT_3D('',#758,#629,#630);
#498=DIRECTION('axis',(0.,0.,1.));
#499=DIRECTION('refdir',(1.,0.,0.));
#500=DIRECTION('center_axis',(0.,0.,1.));
#501=DIRECTION('ref_axis',(-1.,0.,0.));
#502=DIRECTION('center_axis',(0.,0.,-1.));
#503=DIRECTION('ref_axis',(-1.,0.,0.));
#504=DIRECTION('',(0.,0.,-1.));
#505=DIRECTION('center_axis',(0.,0.,-1.));
#506=DIRECTION('ref_axis',(-1.,0.,0.));
#507=DIRECTION('center_axis',(0.,0.,1.));
#508=DIRECTION('ref_axis',(-1.,0.,0.));
#509=DIRECTION('',(0.,0.,1.));
#510=DIRECTION('center_axis',(0.,0.,1.));
#511=DIRECTION('ref_axis',(-1.,0.,0.));
#512=DIRECTION('',(0.,0.,-1.));
#513=DIRECTION('center_axis',(0.,0.,1.));
#514=DIRECTION('ref_axis',(-1.,0.,0.));
#515=DIRECTION('center_axis',(0.,0.,1.));
#516=DIRECTION('ref_axis',(-1.,0.,0.));
#517=DIRECTION('',(0.,0.,1.));
#518=DIRECTION('center_axis',(0.,0.,-1.));
#519=DIRECTION('ref_axis',(-1.,0.,0.));
#520=DIRECTION('center_axis',(0.,0.,1.));
#521=DIRECTION('ref_axis',(-1.,0.,0.));
#522=DIRECTION('center_axis',(0.,0.,1.));
#523=DIRECTION('ref_axis',(-1.,0.,0.));
#524=DIRECTION('center_axis',(0.,0.,-1.));
#525=DIRECTION('ref_axis',(-1.,0.,0.));
#526=DIRECTION('',(0.,0.,-1.));
#527=DIRECTION('center_axis',(0.,0.,1.));
#528=DIRECTION('ref_axis',(-1.,0.,0.));
#529=DIRECTION('center_axis',(0.,0.,1.));
#530=DIRECTION('ref_axis',(-1.,0.,0.));
#531=DIRECTION('center_axis',(0.,0.,-1.));
#532=DIRECTION('ref_axis',(-1.,0.,0.));
#533=DIRECTION('',(0.,0.,-1.));
#534=DIRECTION('center_axis',(0.,0.,-1.));
#535=DIRECTION('ref_axis',(-1.,0.,0.));
#536=DIRECTION('center_axis',(0.,0.,1.));
#537=DIRECTION('ref_axis',(-1.,0.,0.));
#538=DIRECTION('center_axis',(0.,0.,1.));
#539=DIRECTION('ref_axis',(-1.,0.,0.));
#540=DIRECTION('center_axis',(0.,0.,-1.));
#541=DIRECTION('ref_axis',(-1.,0.,0.));
#542=DIRECTION('',(0.,0.,-1.));
#543=DIRECTION('center_axis',(0.,0.,1.));
#544=DIRECTION('ref_axis',(-1.,0.,0.));
#545=DIRECTION('center_axis',(0.,0.,1.));
#546=DIRECTION('ref_axis',(-1.,0.,0.));
#547=DIRECTION('center_axis',(0.,0.,-1.));
#548=DIRECTION('ref_axis',(-1.,0.,0.));
#549=DIRECTION('',(0.,0.,-1.));
#550=DIRECTION('center_axis',(0.,0.,-1.));
#551=DIRECTION('ref_axis',(-1.,0.,0.));
#552=DIRECTION('center_axis',(0.,0.,1.));
#553=DIRECTION('ref_axis',(-1.,0.,0.));
#554=DIRECTION('center_axis',(0.,0.,1.));
#555=DIRECTION('ref_axis',(-1.,0.,0.));
#556=DIRECTION('center_axis',(0.,0.,-1.));
#557=DIRECTION('ref_axis',(-1.,0.,0.));
#558=DIRECTION('',(0.,0.,-1.));
#559=DIRECTION('center_axis',(0.,0.,-1.));
#560=DIRECTION('ref_axis',(-1.,0.,0.));
#561=DIRECTION('center_axis',(0.,0.,1.));
#562=DIRECTION('ref_axis',(-1.,0.,0.));
#563=DIRECTION('',(0.,0.,1.));
#564=DIRECTION('center_axis',(0.,0.,1.));
#565=DIRECTION('ref_axis',(-1.,0.,0.));
#566=DIRECTION('',(0.,0.,-1.));
#567=DIRECTION('center_axis',(0.,0.,1.));
#568=DIRECTION('ref_axis',(-1.,0.,0.));
#569=DIRECTION('center_axis',(0.,0.,1.));
#570=DIRECTION('ref_axis',(-1.,0.,0.));
#571=DIRECTION('',(0.,0.,1.));
#572=DIRECTION('center_axis',(0.,0.,-1.));
#573=DIRECTION('ref_axis',(-1.,0.,0.));
#574=DIRECTION('center_axis',(0.,0.,1.));
#575=DIRECTION('ref_axis',(-1.,0.,0.));
#576=DIRECTION('center_axis',(0.,0.,1.));
#577=DIRECTION('ref_axis',(-1.,0.,0.));
#578=DIRECTION('',(-1.,0.,0.));
#579=DIRECTION('',(1.,0.,0.));
#580=DIRECTION('center_axis',(0.,0.,1.));
#581=DIRECTION('ref_axis',(-1.,-2.96059487203537E-16,0.));
#582=DIRECTION('',(-1.,0.,0.));
#583=DIRECTION('',(1.,0.,0.));
#584=DIRECTION('center_axis',(0.,0.,-1.));
#585=DIRECTION('ref_axis',(-4.03573140974397E-8,0.999999999999999,0.));
#586=DIRECTION('center_axis',(0.,0.,-1.));
#587=DIRECTION('ref_axis',(-1.,0.,0.));
#588=DIRECTION('center_axis',(0.,0.,-1.));
#589=DIRECTION('ref_axis',(-1.,0.,0.));
#590=DIRECTION('center_axis',(0.,0.,-1.));
#591=DIRECTION('ref_axis',(-1.,0.,0.));
#592=DIRECTION('',(0.,0.,1.));
#593=DIRECTION('center_axis',(0.,0.,1.));
#594=DIRECTION('ref_axis',(-1.,-2.96059487203537E-16,0.));
#595=DIRECTION('',(0.,0.,1.));
#596=DIRECTION('center_axis',(0.,-1.,0.));
#597=DIRECTION('ref_axis',(1.,0.,0.));
#598=DIRECTION('',(1.,0.,0.));
#599=DIRECTION('center_axis',(0.,1.,0.));
#600=DIRECTION('ref_axis',(-1.,0.,0.));
#601=DIRECTION('',(0.,0.,1.));
#602=DIRECTION('',(-1.,0.,0.));
#603=DIRECTION('center_axis',(0.,0.,1.));
#604=DIRECTION('ref_axis',(-1.,0.,0.));
#605=DIRECTION('center_axis',(0.,0.,-1.));
#606=DIRECTION('ref_axis',(-1.,0.,0.));
#607=DIRECTION('',(0.,0.,-1.));
#608=DIRECTION('center_axis',(0.,0.,1.));
#609=DIRECTION('ref_axis',(-1.,0.,0.));
#610=DIRECTION('center_axis',(0.,0.,-1.));
#611=DIRECTION('ref_axis',(-1.,0.,0.));
#612=DIRECTION('',(0.,0.,-1.));
#613=DIRECTION('center_axis',(0.,0.,1.));
#614=DIRECTION('ref_axis',(-1.,0.,0.));
#615=DIRECTION('center_axis',(0.,0.,-1.));
#616=DIRECTION('ref_axis',(-1.,0.,0.));
#617=DIRECTION('',(0.,0.,-1.));
#618=DIRECTION('center_axis',(0.,1.,0.));
#619=DIRECTION('ref_axis',(-1.,0.,0.));
#620=DIRECTION('',(-1.,0.,0.));
#621=DIRECTION('center_axis',(0.,-1.,0.));
#622=DIRECTION('ref_axis',(1.,0.,0.));
#623=DIRECTION('',(1.,0.,0.));
#624=DIRECTION('',(0.,0.,1.));
#625=DIRECTION('center_axis',(0.,0.,1.));
#626=DIRECTION('ref_axis',(-4.03573140974397E-8,0.999999999999999,0.));
#627=DIRECTION('center_axis',(0.,0.,-1.));
#628=DIRECTION('ref_axis',(-4.03573140974397E-8,0.999999999999999,0.));
#629=DIRECTION('center_axis',(0.,0.,1.));
#630=DIRECTION('ref_axis',(-1.,0.,0.));
#631=CARTESIAN_POINT('',(0.,0.,0.));
#632=CARTESIAN_POINT('Origin',(-47.0000007003546,-98.0000014603138,115.));
#633=CARTESIAN_POINT('',(-45.9500007003546,-98.0000014603138,141.));
#634=CARTESIAN_POINT('Origin',(-47.0000007003546,-98.0000014603138,141.));
#635=CARTESIAN_POINT('',(-45.9500007003546,-98.0000014603138,115.));
#636=CARTESIAN_POINT('',(-45.9500007003546,-98.0000014603138,115.));
#637=CARTESIAN_POINT('Origin',(-47.0000007003546,-98.0000014603138,115.));
#638=CARTESIAN_POINT('Origin',(-47.0000007003546,-98.0000014603138,115.));
#639=CARTESIAN_POINT('',(-47.0000007003546,-95.0000014156103,136.));
#640=CARTESIAN_POINT('',(-47.0000007003546,-95.0000014156103,141.));
#641=CARTESIAN_POINT('',(-47.0000007003546,-95.0000014156103,115.));
#642=CARTESIAN_POINT('',(-44.0000006556511,-98.0000014603138,141.));
#643=CARTESIAN_POINT('Origin',(-47.0000007003546,-98.0000014603138,141.));
#644=CARTESIAN_POINT('',(-44.0000006556511,-98.0000014603138,115.));
#645=CARTESIAN_POINT('',(-44.0000006556511,-98.0000014603138,115.));
#646=CARTESIAN_POINT('Origin',(-47.0000007003546,-98.0000014603138,115.));
#647=CARTESIAN_POINT('',(-47.0000007003546,-101.000001505017,141.));
#648=CARTESIAN_POINT('Origin',(-47.0000007003546,-98.0000014603138,141.));
#649=CARTESIAN_POINT('',(-47.0000007003546,-101.000001505017,136.));
#650=CARTESIAN_POINT('',(-47.0000007003546,-101.000001505017,115.));
#651=CARTESIAN_POINT('Origin',(-47.0000007003546,-98.0000014603138,136.));
#652=CARTESIAN_POINT('Origin',(-47.0000007003546,-98.0000014603138,115.));
#653=CARTESIAN_POINT('Origin',(-88.0000013113022,-148.000002205372,115.));
#654=CARTESIAN_POINT('',(-85.0000012665987,-148.000002205372,136.));
#655=CARTESIAN_POINT('Origin',(-88.0000013113022,-148.000002205372,136.));
#656=CARTESIAN_POINT('',(-85.0000012665987,-148.000002205372,115.));
#657=CARTESIAN_POINT('',(-85.0000012665987,-148.000002205372,115.));
#658=CARTESIAN_POINT('Origin',(-88.0000013113022,-148.000002205372,115.));
#659=CARTESIAN_POINT('Origin',(-88.0000013113022,-148.000002205372,115.));
#660=CARTESIAN_POINT('',(-86.9500013113022,-148.000002205372,141.));
#661=CARTESIAN_POINT('Origin',(-88.0000013113022,-148.000002205372,141.));
#662=CARTESIAN_POINT('',(-86.9500013113022,-148.000002205372,115.));
#663=CARTESIAN_POINT('',(-86.9500013113022,-148.000002205372,115.));
#664=CARTESIAN_POINT('Origin',(-88.0000013113022,-148.000002205372,115.));
#665=CARTESIAN_POINT('Origin',(-88.0000013113022,-148.000002205372,115.));
#666=CARTESIAN_POINT('Origin',(-88.0000013113022,-102.000001519918,115.));
#667=CARTESIAN_POINT('',(-85.0000012665987,-102.000001519918,136.));
#668=CARTESIAN_POINT('Origin',(-88.0000013113022,-102.000001519918,136.));
#669=CARTESIAN_POINT('',(-85.0000012665987,-102.000001519918,115.));
#670=CARTESIAN_POINT('',(-85.0000012665987,-102.000001519918,115.));
#671=CARTESIAN_POINT('Origin',(-88.0000013113022,-102.000001519918,115.));
#672=CARTESIAN_POINT('Origin',(-88.0000013113022,-102.000001519918,115.));
#673=CARTESIAN_POINT('',(-86.9500013113022,-102.000001519918,141.));
#674=CARTESIAN_POINT('Origin',(-88.0000013113022,-102.000001519918,141.));
#675=CARTESIAN_POINT('',(-86.9500013113022,-102.000001519918,115.));
#676=CARTESIAN_POINT('',(-86.9500013113022,-102.000001519918,115.));
#677=CARTESIAN_POINT('Origin',(-88.0000013113022,-102.000001519918,115.));
#678=CARTESIAN_POINT('Origin',(-88.0000013113022,-102.000001519918,115.));
#679=CARTESIAN_POINT('Origin',(-47.0000007003546,-152.000002264977,115.));
#680=CARTESIAN_POINT('',(-45.9500007003546,-152.000002264977,141.));
#681=CARTESIAN_POINT('Origin',(-47.0000007003546,-152.000002264977,141.));
#682=CARTESIAN_POINT('',(-45.9500007003546,-152.000002264977,115.));
#683=CARTESIAN_POINT('',(-45.9500007003546,-152.000002264977,115.));
#684=CARTESIAN_POINT('Origin',(-47.0000007003546,-152.000002264977,115.));
#685=CARTESIAN_POINT('Origin',(-47.0000007003546,-152.000002264977,115.));
#686=CARTESIAN_POINT('',(-47.0000007003546,-149.000002220273,136.));
#687=CARTESIAN_POINT('',(-47.0000007003546,-149.000002220273,141.));
#688=CARTESIAN_POINT('',(-47.0000007003546,-149.000002220273,115.));
#689=CARTESIAN_POINT('',(-44.0000006556511,-152.000002264977,141.));
#690=CARTESIAN_POINT('Origin',(-47.0000007003546,-152.000002264977,141.));
#691=CARTESIAN_POINT('',(-44.0000006556511,-152.000002264977,115.));
#692=CARTESIAN_POINT('',(-44.0000006556511,-152.000002264977,115.));
#693=CARTESIAN_POINT('Origin',(-47.0000007003546,-152.000002264977,115.));
#694=CARTESIAN_POINT('',(-47.0000007003546,-155.00000230968,141.));
#695=CARTESIAN_POINT('Origin',(-47.0000007003546,-152.000002264977,141.));
#696=CARTESIAN_POINT('',(-47.0000007003546,-155.00000230968,136.));
#697=CARTESIAN_POINT('',(-47.0000007003546,-155.00000230968,115.));
#698=CARTESIAN_POINT('Origin',(-47.0000007003546,-152.000002264977,136.));
#699=CARTESIAN_POINT('Origin',(-47.0000007003546,-152.000002264977,115.));
#700=CARTESIAN_POINT('Origin',(-81.0000003501773,-125.00000872529,136.));
#701=CARTESIAN_POINT('',(-65.0000010544731,-148.999998494983,136.));
#702=CARTESIAN_POINT('',(-64.0000005252659,-149.000002220273,136.));
#703=CARTESIAN_POINT('',(-65.0000009685755,-155.00000230968,136.));
#704=CARTESIAN_POINT('',(-73.0000006593764,-155.00000230968,136.));
#705=CARTESIAN_POINT('',(-65.0000009685755,-95.0000014156103,136.));
#706=CARTESIAN_POINT('Origin',(-65.,-125.,136.));
#707=CARTESIAN_POINT('',(-64.0000005252659,-95.0000014156103,136.));
#708=CARTESIAN_POINT('',(-65.0000009685755,-101.000001505017,136.));
#709=CARTESIAN_POINT('',(-73.0000006593764,-101.000001505017,136.));
#710=CARTESIAN_POINT('Origin',(-65.,-125.,136.));
#711=CARTESIAN_POINT('',(-98.9500014901161,-143.000002130866,136.));
#712=CARTESIAN_POINT('Origin',(-100.000001490116,-143.000002130866,136.));
#713=CARTESIAN_POINT('',(-98.9500014901161,-107.000001594424,136.));
#714=CARTESIAN_POINT('Origin',(-100.000001490116,-107.000001594424,136.));
#715=CARTESIAN_POINT('',(-94.000001773238,-125.,136.));
#716=CARTESIAN_POINT('Origin',(-100.,-125.,136.));
#717=CARTESIAN_POINT('Ctrl Pts',(-65.0000009685755,-95.0000014156103,136.));
#718=CARTESIAN_POINT('Ctrl Pts',(-115.,-95.0000019967555,136.));
#719=CARTESIAN_POINT('Ctrl Pts',(-115.,-125.,136.));
#720=CARTESIAN_POINT('Ctrl Pts',(-115.,-154.999998003245,136.));
#721=CARTESIAN_POINT('Ctrl Pts',(-65.0000009685753,-154.99999858439,136.));
#722=CARTESIAN_POINT('Ctrl Pts',(-65.0000009685755,-95.0000014156103,141.));
#723=CARTESIAN_POINT('Ctrl Pts',(-115.,-95.0000019967555,141.));
#724=CARTESIAN_POINT('Ctrl Pts',(-115.,-125.,141.));
#725=CARTESIAN_POINT('Ctrl Pts',(-115.,-154.999998003245,141.));
#726=CARTESIAN_POINT('Ctrl Pts',(-65.0000009685753,-154.99999858439,141.));
#727=CARTESIAN_POINT('',(-65.0000009685755,-155.00000230968,141.));
#728=CARTESIAN_POINT('',(-65.0000009685755,-155.00000230968,115.));
#729=CARTESIAN_POINT('',(-65.0000009685755,-95.0000014156103,141.));
#730=CARTESIAN_POINT('Origin',(-65.,-125.,141.));
#731=CARTESIAN_POINT('',(-65.0000009685755,-95.0000014156103,115.));
#732=CARTESIAN_POINT('Origin',(-65.0000009685755,-155.00000230968,115.));
#733=CARTESIAN_POINT('',(-47.0000007003546,-155.00000230968,141.));
#734=CARTESIAN_POINT('Origin',(-47.0000007003546,-149.000002220273,115.));
#735=CARTESIAN_POINT('',(-65.0000010544731,-148.999998494983,141.));
#736=CARTESIAN_POINT('',(-65.0000010544731,-148.999998494983,115.));
#737=CARTESIAN_POINT('',(-47.0000007003546,-149.000002220273,141.));
#738=CARTESIAN_POINT('Origin',(-100.,-125.,115.));
#739=CARTESIAN_POINT('',(-94.000001773238,-125.,141.));
#740=CARTESIAN_POINT('Origin',(-100.,-125.,141.));
#741=CARTESIAN_POINT('',(-94.000001773238,-125.,115.));
#742=CARTESIAN_POINT('Origin',(-100.000001490116,-107.000001594424,115.));
#743=CARTESIAN_POINT('',(-98.9500014901161,-107.000001594424,141.));
#744=CARTESIAN_POINT('Origin',(-100.000001490116,-107.000001594424,141.));
#745=CARTESIAN_POINT('',(-98.9500014901161,-107.000001594424,115.));
#746=CARTESIAN_POINT('Origin',(-100.000001490116,-143.000002130866,115.));
#747=CARTESIAN_POINT('',(-98.9500014901161,-143.000002130866,141.));
#748=CARTESIAN_POINT('Origin',(-100.000001490116,-143.000002130866,141.));
#749=CARTESIAN_POINT('',(-98.9500014901161,-143.000002130866,115.));
#750=CARTESIAN_POINT('Origin',(-47.0000007003546,-95.0000014156103,115.));
#751=CARTESIAN_POINT('',(-65.0000009685755,-95.0000014156103,141.));
#752=CARTESIAN_POINT('Origin',(-65.0000009685755,-101.000001505017,115.));
#753=CARTESIAN_POINT('',(-65.0000009685755,-101.000001505017,141.));
#754=CARTESIAN_POINT('',(-65.0000009685755,-101.000001505017,141.));
#755=CARTESIAN_POINT('',(-65.0000009685755,-101.000001505017,115.));
#756=CARTESIAN_POINT('Origin',(-65.,-125.,115.));
#757=CARTESIAN_POINT('Origin',(-65.,-125.,141.));
#758=CARTESIAN_POINT('Origin',(-81.0000003501773,-125.00000872529,141.));
#759=UNCERTAINTY_MEASURE_WITH_UNIT(LENGTH_MEASURE(0.01),#763,
'DISTANCE_ACCURACY_VALUE',
'Maximum model space distance between geometric entities at asserted c
onnectivities');
#760=UNCERTAINTY_MEASURE_WITH_UNIT(LENGTH_MEASURE(0.01),#763,
'DISTANCE_ACCURACY_VALUE',
'Maximum model space distance between geometric entities at asserted c
onnectivities');
#761=(
GEOMETRIC_REPRESENTATION_CONTEXT(3)
GLOBAL_UNCERTAINTY_ASSIGNED_CONTEXT((#759))
GLOBAL_UNIT_ASSIGNED_CONTEXT((#763,#765,#766))
REPRESENTATION_CONTEXT('','3D')
);
#762=(
GEOMETRIC_REPRESENTATION_CONTEXT(3)
GLOBAL_UNCERTAINTY_ASSIGNED_CONTEXT((#760))
GLOBAL_UNIT_ASSIGNED_CONTEXT((#763,#765,#766))
REPRESENTATION_CONTEXT('','3D')
);
#763=(
LENGTH_UNIT()
NAMED_UNIT(*)
SI_UNIT(.MILLI.,.METRE.)
);
#764=(
LENGTH_UNIT()
NAMED_UNIT(*)
SI_UNIT($,.METRE.)
);
#765=(
NAMED_UNIT(*)
PLANE_ANGLE_UNIT()
SI_UNIT($,.RADIAN.)
);
#766=(
NAMED_UNIT(*)
SI_UNIT($,.STERADIAN.)
SOLID_ANGLE_UNIT()
);
#767=SHAPE_DEFINITION_REPRESENTATION(#768,#769);
#768=PRODUCT_DEFINITION_SHAPE('',$,#771);
#769=SHAPE_REPRESENTATION('',(#445),#761);
#770=PRODUCT_DEFINITION_CONTEXT('part definition',#775,'design');
#771=PRODUCT_DEFINITION('2025-08-01-16-18-15-575','zrot_2',#772,#770);
#772=PRODUCT_DEFINITION_FORMATION('',$,#777);
#773=PRODUCT_RELATED_PRODUCT_CATEGORY('zrot_2','zrot_2',(#777));
#774=APPLICATION_PROTOCOL_DEFINITION('international standard',
'automotive_design',2009,#775);
#775=APPLICATION_CONTEXT(
'Core Data for Automotive Mechanical Design Process');
#776=PRODUCT_CONTEXT('part definition',#775,'mechanical');
#777=PRODUCT('2025-08-01-16-18-15-575','zrot_2',$,(#776));
#778=PRESENTATION_STYLE_ASSIGNMENT((#780));
#779=PRESENTATION_STYLE_ASSIGNMENT((#781));
#780=SURFACE_STYLE_USAGE(.BOTH.,#782);
#781=SURFACE_STYLE_USAGE(.BOTH.,#783);
#782=SURFACE_SIDE_STYLE('',(#784));
#783=SURFACE_SIDE_STYLE('',(#785));
#784=SURFACE_STYLE_FILL_AREA(#786);
#785=SURFACE_STYLE_FILL_AREA(#787);
#786=FILL_AREA_STYLE('Steel - Satin',(#788));
#787=FILL_AREA_STYLE('Sunflower yellow PLA',(#789));
#788=FILL_AREA_STYLE_COLOUR('Steel - Satin',#790);
#789=FILL_AREA_STYLE_COLOUR('Sunflower yellow PLA',#791);
#790=COLOUR_RGB('Steel - Satin',0.627450980392157,0.627450980392157,0.627450980392157);
#791=COLOUR_RGB('Sunflower yellow PLA',1.,0.733333333333333,0.);
ENDSEC;
END-ISO-10303-21;
