ISO-10303-21;
HEADER;
/* Generated by software containing ST-Developer
 * from STEP Tools, Inc. (www.steptools.com) 
 */

FILE_DESCRIPTION(
/* description */ (''),
/* implementation_level */ '2;1');

FILE_NAME(
/* name */ 'link2_3.step',
/* time_stamp */ '2025-08-06T21:57:49+01:00',
/* author */ (''),
/* organization */ (''),
/* preprocessor_version */ 'ST-DEVELOPER v20.1',
/* originating_system */ 'Autodesk Translation Framework v14.10.0.0',
/* authorisation */ '');

FILE_SCHEMA (('AUTOMOTIVE_DESIGN { 1 0 10303 214 3 1 1 }'));
ENDSEC;

DATA;
#10=MECHANICAL_DESIGN_GEOMETRIC_PRESENTATION_REPRESENTATION('',(#13),#426);
#11=SHAPE_REPRESENTATION_RELATIONSHIP('SRR','None',#433,#12);
#12=ADVANCED_BREP_SHAPE_REPRESENTATION('',(#14),#425);
#13=STYLED_ITEM('',(#443),#14);
#14=MANIFOLD_SOLID_BREP('Body1',#243);
#15=FACE_BOUND('',#47,.T.);
#16=FACE_BOUND('',#50,.T.);
#17=FACE_BOUND('',#51,.T.);
#18=FACE_BOUND('',#54,.T.);
#19=CYLINDRICAL_SURFACE('',#260,3.);
#20=CYLINDRICAL_SURFACE('',#263,3.);
#21=CYLINDRICAL_SURFACE('',#266,1.95);
#22=CYLINDRICAL_SURFACE('',#271,3.);
#23=CYLINDRICAL_SURFACE('',#275,2.99999993294477);
#24=CYLINDRICAL_SURFACE('',#280,1.95);
#25=FACE_OUTER_BOUND('',#38,.T.);
#26=FACE_OUTER_BOUND('',#39,.T.);
#27=FACE_OUTER_BOUND('',#40,.T.);
#28=FACE_OUTER_BOUND('',#41,.T.);
#29=FACE_OUTER_BOUND('',#42,.T.);
#30=FACE_OUTER_BOUND('',#43,.T.);
#31=FACE_OUTER_BOUND('',#44,.T.);
#32=FACE_OUTER_BOUND('',#45,.T.);
#33=FACE_OUTER_BOUND('',#46,.T.);
#34=FACE_OUTER_BOUND('',#48,.T.);
#35=FACE_OUTER_BOUND('',#49,.T.);
#36=FACE_OUTER_BOUND('',#52,.T.);
#37=FACE_OUTER_BOUND('',#53,.T.);
#38=EDGE_LOOP('',(#159,#160,#161,#162));
#39=EDGE_LOOP('',(#163,#164,#165,#166));
#40=EDGE_LOOP('',(#167,#168,#169,#170,#171,#172));
#41=EDGE_LOOP('',(#173,#174,#175,#176));
#42=EDGE_LOOP('',(#177,#178,#179,#180));
#43=EDGE_LOOP('',(#181,#182,#183,#184));
#44=EDGE_LOOP('',(#185,#186,#187,#188,#189,#190));
#45=EDGE_LOOP('',(#191,#192,#193,#194));
#46=EDGE_LOOP('',(#195,#196,#197,#198,#199,#200));
#47=EDGE_LOOP('',(#201));
#48=EDGE_LOOP('',(#202,#203,#204,#205,#206,#207,#208));
#49=EDGE_LOOP('',(#209,#210,#211,#212,#213,#214));
#50=EDGE_LOOP('',(#215));
#51=EDGE_LOOP('',(#216));
#52=EDGE_LOOP('',(#217,#218,#219,#220));
#53=EDGE_LOOP('',(#221));
#54=EDGE_LOOP('',(#222));
#55=LINE('',#362,#74);
#56=LINE('',#365,#75);
#57=LINE('',#368,#76);
#58=LINE('',#371,#77);
#59=LINE('',#375,#78);
#60=LINE('',#377,#79);
#61=LINE('',#378,#80);
#62=LINE('',#379,#81);
#63=LINE('',#384,#82);
#64=LINE('',#390,#83);
#65=LINE('',#394,#84);
#66=LINE('',#396,#85);
#67=LINE('',#397,#86);
#68=LINE('',#401,#87);
#69=LINE('',#402,#88);
#70=LINE('',#404,#89);
#71=LINE('',#405,#90);
#72=LINE('',#413,#91);
#73=LINE('',#421,#92);
#74=VECTOR('',#289,10.);
#75=VECTOR('',#292,10.);
#76=VECTOR('',#295,10.);
#77=VECTOR('',#298,10.);
#78=VECTOR('',#301,10.);
#79=VECTOR('',#302,10.);
#80=VECTOR('',#303,10.);
#81=VECTOR('',#304,10.);
#82=VECTOR('',#309,10.);
#83=VECTOR('',#316,1.95);
#84=VECTOR('',#321,10.);
#85=VECTOR('',#322,10.);
#86=VECTOR('',#323,10.);
#87=VECTOR('',#326,10.);
#88=VECTOR('',#327,10.);
#89=VECTOR('',#328,10.);
#90=VECTOR('',#329,10.);
#91=VECTOR('',#342,2.99999993294477);
#92=VECTOR('',#353,1.95);
#93=CIRCLE('',#258,2.99999993294477);
#94=CIRCLE('',#259,3.);
#95=CIRCLE('',#261,3.);
#96=CIRCLE('',#264,3.);
#97=CIRCLE('',#265,3.);
#98=CIRCLE('',#267,1.95);
#99=CIRCLE('',#268,1.95);
#100=CIRCLE('',#272,3.);
#101=CIRCLE('',#273,3.);
#102=CIRCLE('',#276,2.99999993294477);
#103=CIRCLE('',#277,2.99999993294477);
#104=CIRCLE('',#279,1.95);
#105=CIRCLE('',#281,1.95);
#106=VERTEX_POINT('',#358);
#107=VERTEX_POINT('',#359);
#108=VERTEX_POINT('',#361);
#109=VERTEX_POINT('',#363);
#110=VERTEX_POINT('',#367);
#111=VERTEX_POINT('',#369);
#112=VERTEX_POINT('',#373);
#113=VERTEX_POINT('',#374);
#114=VERTEX_POINT('',#376);
#115=VERTEX_POINT('',#381);
#116=VERTEX_POINT('',#383);
#117=VERTEX_POINT('',#387);
#118=VERTEX_POINT('',#389);
#119=VERTEX_POINT('',#393);
#120=VERTEX_POINT('',#395);
#121=VERTEX_POINT('',#399);
#122=VERTEX_POINT('',#400);
#123=VERTEX_POINT('',#403);
#124=VERTEX_POINT('',#411);
#125=VERTEX_POINT('',#416);
#126=VERTEX_POINT('',#419);
#127=EDGE_CURVE('',#106,#107,#93,.T.);
#128=EDGE_CURVE('',#106,#108,#55,.T.);
#129=EDGE_CURVE('',#109,#108,#94,.T.);
#130=EDGE_CURVE('',#109,#107,#56,.T.);
#131=EDGE_CURVE('',#108,#110,#57,.T.);
#132=EDGE_CURVE('',#111,#110,#95,.T.);
#133=EDGE_CURVE('',#109,#111,#58,.T.);
#134=EDGE_CURVE('',#112,#113,#59,.T.);
#135=EDGE_CURVE('',#113,#114,#60,.T.);
#136=EDGE_CURVE('',#110,#114,#61,.T.);
#137=EDGE_CURVE('',#112,#106,#62,.T.);
#138=EDGE_CURVE('',#113,#115,#96,.T.);
#139=EDGE_CURVE('',#115,#116,#63,.T.);
#140=EDGE_CURVE('',#114,#116,#97,.T.);
#141=EDGE_CURVE('',#117,#117,#98,.T.);
#142=EDGE_CURVE('',#117,#118,#64,.T.);
#143=EDGE_CURVE('',#118,#118,#99,.T.);
#144=EDGE_CURVE('',#115,#119,#65,.T.);
#145=EDGE_CURVE('',#119,#120,#66,.T.);
#146=EDGE_CURVE('',#116,#120,#67,.T.);
#147=EDGE_CURVE('',#121,#122,#68,.T.);
#148=EDGE_CURVE('',#122,#107,#69,.T.);
#149=EDGE_CURVE('',#123,#111,#70,.T.);
#150=EDGE_CURVE('',#121,#123,#71,.T.);
#151=EDGE_CURVE('',#119,#121,#100,.T.);
#152=EDGE_CURVE('',#120,#123,#101,.T.);
#153=EDGE_CURVE('',#124,#124,#102,.T.);
#154=EDGE_CURVE('',#124,#107,#72,.T.);
#155=EDGE_CURVE('',#122,#112,#103,.T.);
#156=EDGE_CURVE('',#125,#125,#104,.T.);
#157=EDGE_CURVE('',#126,#126,#105,.T.);
#158=EDGE_CURVE('',#126,#125,#73,.T.);
#159=ORIENTED_EDGE('',*,*,#127,.F.);
#160=ORIENTED_EDGE('',*,*,#128,.T.);
#161=ORIENTED_EDGE('',*,*,#129,.F.);
#162=ORIENTED_EDGE('',*,*,#130,.T.);
#163=ORIENTED_EDGE('',*,*,#129,.T.);
#164=ORIENTED_EDGE('',*,*,#131,.T.);
#165=ORIENTED_EDGE('',*,*,#132,.F.);
#166=ORIENTED_EDGE('',*,*,#133,.F.);
#167=ORIENTED_EDGE('',*,*,#134,.T.);
#168=ORIENTED_EDGE('',*,*,#135,.T.);
#169=ORIENTED_EDGE('',*,*,#136,.F.);
#170=ORIENTED_EDGE('',*,*,#131,.F.);
#171=ORIENTED_EDGE('',*,*,#128,.F.);
#172=ORIENTED_EDGE('',*,*,#137,.F.);
#173=ORIENTED_EDGE('',*,*,#138,.T.);
#174=ORIENTED_EDGE('',*,*,#139,.T.);
#175=ORIENTED_EDGE('',*,*,#140,.F.);
#176=ORIENTED_EDGE('',*,*,#135,.F.);
#177=ORIENTED_EDGE('',*,*,#141,.F.);
#178=ORIENTED_EDGE('',*,*,#142,.T.);
#179=ORIENTED_EDGE('',*,*,#143,.T.);
#180=ORIENTED_EDGE('',*,*,#142,.F.);
#181=ORIENTED_EDGE('',*,*,#144,.T.);
#182=ORIENTED_EDGE('',*,*,#145,.T.);
#183=ORIENTED_EDGE('',*,*,#146,.F.);
#184=ORIENTED_EDGE('',*,*,#139,.F.);
#185=ORIENTED_EDGE('',*,*,#147,.T.);
#186=ORIENTED_EDGE('',*,*,#148,.T.);
#187=ORIENTED_EDGE('',*,*,#130,.F.);
#188=ORIENTED_EDGE('',*,*,#133,.T.);
#189=ORIENTED_EDGE('',*,*,#149,.F.);
#190=ORIENTED_EDGE('',*,*,#150,.F.);
#191=ORIENTED_EDGE('',*,*,#151,.T.);
#192=ORIENTED_EDGE('',*,*,#150,.T.);
#193=ORIENTED_EDGE('',*,*,#152,.F.);
#194=ORIENTED_EDGE('',*,*,#145,.F.);
#195=ORIENTED_EDGE('',*,*,#152,.T.);
#196=ORIENTED_EDGE('',*,*,#149,.T.);
#197=ORIENTED_EDGE('',*,*,#132,.T.);
#198=ORIENTED_EDGE('',*,*,#136,.T.);
#199=ORIENTED_EDGE('',*,*,#140,.T.);
#200=ORIENTED_EDGE('',*,*,#146,.T.);
#201=ORIENTED_EDGE('',*,*,#141,.T.);
#202=ORIENTED_EDGE('',*,*,#153,.F.);
#203=ORIENTED_EDGE('',*,*,#154,.T.);
#204=ORIENTED_EDGE('',*,*,#148,.F.);
#205=ORIENTED_EDGE('',*,*,#155,.T.);
#206=ORIENTED_EDGE('',*,*,#137,.T.);
#207=ORIENTED_EDGE('',*,*,#127,.T.);
#208=ORIENTED_EDGE('',*,*,#154,.F.);
#209=ORIENTED_EDGE('',*,*,#155,.F.);
#210=ORIENTED_EDGE('',*,*,#147,.F.);
#211=ORIENTED_EDGE('',*,*,#151,.F.);
#212=ORIENTED_EDGE('',*,*,#144,.F.);
#213=ORIENTED_EDGE('',*,*,#138,.F.);
#214=ORIENTED_EDGE('',*,*,#134,.F.);
#215=ORIENTED_EDGE('',*,*,#143,.F.);
#216=ORIENTED_EDGE('',*,*,#156,.F.);
#217=ORIENTED_EDGE('',*,*,#157,.F.);
#218=ORIENTED_EDGE('',*,*,#158,.T.);
#219=ORIENTED_EDGE('',*,*,#156,.T.);
#220=ORIENTED_EDGE('',*,*,#158,.F.);
#221=ORIENTED_EDGE('',*,*,#153,.T.);
#222=ORIENTED_EDGE('',*,*,#157,.T.);
#223=PLANE('',#257);
#224=PLANE('',#262);
#225=PLANE('',#269);
#226=PLANE('',#270);
#227=PLANE('',#274);
#228=PLANE('',#278);
#229=PLANE('',#282);
#230=ADVANCED_FACE('',(#25),#223,.T.);
#231=ADVANCED_FACE('',(#26),#19,.T.);
#232=ADVANCED_FACE('',(#27),#224,.T.);
#233=ADVANCED_FACE('',(#28),#20,.T.);
#234=ADVANCED_FACE('',(#29),#21,.F.);
#235=ADVANCED_FACE('',(#30),#225,.T.);
#236=ADVANCED_FACE('',(#31),#226,.T.);
#237=ADVANCED_FACE('',(#32),#22,.T.);
#238=ADVANCED_FACE('',(#33,#15),#227,.T.);
#239=ADVANCED_FACE('',(#34),#23,.T.);
#240=ADVANCED_FACE('',(#35,#16,#17),#228,.F.);
#241=ADVANCED_FACE('',(#36),#24,.F.);
#242=ADVANCED_FACE('',(#37,#18),#229,.T.);
#243=CLOSED_SHELL('',(#230,#231,#232,#233,#234,#235,#236,#237,#238,#239,
#240,#241,#242));
#244=DERIVED_UNIT_ELEMENT(#246,1.);
#245=DERIVED_UNIT_ELEMENT(#428,-3.);
#246=(
MASS_UNIT()
NAMED_UNIT(*)
SI_UNIT(.KILO.,.GRAM.)
);
#247=DERIVED_UNIT((#244,#245));
#248=MEASURE_REPRESENTATION_ITEM('density measure',
POSITIVE_RATIO_MEASURE(7850.),#247);
#249=PROPERTY_DEFINITION_REPRESENTATION(#254,#251);
#250=PROPERTY_DEFINITION_REPRESENTATION(#255,#252);
#251=REPRESENTATION('material name',(#253),#425);
#252=REPRESENTATION('density',(#248),#425);
#253=DESCRIPTIVE_REPRESENTATION_ITEM('Steel','Steel');
#254=PROPERTY_DEFINITION('material property','material name',#435);
#255=PROPERTY_DEFINITION('material property','density of part',#435);
#256=AXIS2_PLACEMENT_3D('',#356,#283,#284);
#257=AXIS2_PLACEMENT_3D('',#357,#285,#286);
#258=AXIS2_PLACEMENT_3D('',#360,#287,#288);
#259=AXIS2_PLACEMENT_3D('',#364,#290,#291);
#260=AXIS2_PLACEMENT_3D('',#366,#293,#294);
#261=AXIS2_PLACEMENT_3D('',#370,#296,#297);
#262=AXIS2_PLACEMENT_3D('',#372,#299,#300);
#263=AXIS2_PLACEMENT_3D('',#380,#305,#306);
#264=AXIS2_PLACEMENT_3D('',#382,#307,#308);
#265=AXIS2_PLACEMENT_3D('',#385,#310,#311);
#266=AXIS2_PLACEMENT_3D('',#386,#312,#313);
#267=AXIS2_PLACEMENT_3D('',#388,#314,#315);
#268=AXIS2_PLACEMENT_3D('',#391,#317,#318);
#269=AXIS2_PLACEMENT_3D('',#392,#319,#320);
#270=AXIS2_PLACEMENT_3D('',#398,#324,#325);
#271=AXIS2_PLACEMENT_3D('',#406,#330,#331);
#272=AXIS2_PLACEMENT_3D('',#407,#332,#333);
#273=AXIS2_PLACEMENT_3D('',#408,#334,#335);
#274=AXIS2_PLACEMENT_3D('',#409,#336,#337);
#275=AXIS2_PLACEMENT_3D('',#410,#338,#339);
#276=AXIS2_PLACEMENT_3D('',#412,#340,#341);
#277=AXIS2_PLACEMENT_3D('',#414,#343,#344);
#278=AXIS2_PLACEMENT_3D('',#415,#345,#346);
#279=AXIS2_PLACEMENT_3D('',#417,#347,#348);
#280=AXIS2_PLACEMENT_3D('',#418,#349,#350);
#281=AXIS2_PLACEMENT_3D('',#420,#351,#352);
#282=AXIS2_PLACEMENT_3D('',#422,#354,#355);
#283=DIRECTION('axis',(0.,0.,1.));
#284=DIRECTION('refdir',(1.,0.,0.));
#285=DIRECTION('center_axis',(0.,0.,1.));
#286=DIRECTION('ref_axis',(1.,0.,0.));
#287=DIRECTION('center_axis',(0.,0.,1.));
#288=DIRECTION('ref_axis',(1.,0.,0.));
#289=DIRECTION('',(0.,1.,0.));
#290=DIRECTION('center_axis',(0.,0.,1.));
#291=DIRECTION('ref_axis',(1.,0.,0.));
#292=DIRECTION('',(0.,-1.,0.));
#293=DIRECTION('center_axis',(0.,0.,1.));
#294=DIRECTION('ref_axis',(1.,0.,0.));
#295=DIRECTION('',(0.,0.,1.));
#296=DIRECTION('center_axis',(0.,0.,1.));
#297=DIRECTION('ref_axis',(1.,0.,0.));
#298=DIRECTION('',(0.,0.,1.));
#299=DIRECTION('center_axis',(1.,0.,0.));
#300=DIRECTION('ref_axis',(0.,1.,0.));
#301=DIRECTION('',(0.,1.,0.));
#302=DIRECTION('',(0.,0.,1.));
#303=DIRECTION('',(0.,1.,0.));
#304=DIRECTION('',(0.,0.,1.));
#305=DIRECTION('center_axis',(0.,0.,1.));
#306=DIRECTION('ref_axis',(1.,0.,0.));
#307=DIRECTION('center_axis',(0.,0.,1.));
#308=DIRECTION('ref_axis',(1.,0.,0.));
#309=DIRECTION('',(0.,0.,1.));
#310=DIRECTION('center_axis',(0.,0.,1.));
#311=DIRECTION('ref_axis',(1.,0.,0.));
#312=DIRECTION('center_axis',(0.,0.,1.));
#313=DIRECTION('ref_axis',(1.,0.,0.));
#314=DIRECTION('center_axis',(0.,0.,-1.));
#315=DIRECTION('ref_axis',(1.,0.,0.));
#316=DIRECTION('',(0.,0.,-1.));
#317=DIRECTION('center_axis',(0.,0.,-1.));
#318=DIRECTION('ref_axis',(1.,0.,0.));
#319=DIRECTION('center_axis',(0.,1.,0.));
#320=DIRECTION('ref_axis',(-1.,0.,0.));
#321=DIRECTION('',(-1.,0.,0.));
#322=DIRECTION('',(0.,0.,1.));
#323=DIRECTION('',(-1.,0.,0.));
#324=DIRECTION('center_axis',(-1.,0.,0.));
#325=DIRECTION('ref_axis',(0.,-1.,0.));
#326=DIRECTION('',(0.,-1.,0.));
#327=DIRECTION('',(0.,0.,1.));
#328=DIRECTION('',(0.,-1.,0.));
#329=DIRECTION('',(0.,0.,1.));
#330=DIRECTION('center_axis',(0.,0.,1.));
#331=DIRECTION('ref_axis',(1.,0.,0.));
#332=DIRECTION('center_axis',(0.,0.,1.));
#333=DIRECTION('ref_axis',(1.,0.,0.));
#334=DIRECTION('center_axis',(0.,0.,1.));
#335=DIRECTION('ref_axis',(1.,0.,0.));
#336=DIRECTION('center_axis',(0.,0.,1.));
#337=DIRECTION('ref_axis',(1.,0.,0.));
#338=DIRECTION('center_axis',(0.,0.,1.));
#339=DIRECTION('ref_axis',(1.,0.,0.));
#340=DIRECTION('center_axis',(0.,0.,1.));
#341=DIRECTION('ref_axis',(1.,0.,0.));
#342=DIRECTION('',(0.,0.,-1.));
#343=DIRECTION('center_axis',(0.,0.,1.));
#344=DIRECTION('ref_axis',(1.,0.,0.));
#345=DIRECTION('center_axis',(0.,0.,1.));
#346=DIRECTION('ref_axis',(1.,0.,0.));
#347=DIRECTION('center_axis',(0.,0.,-1.));
#348=DIRECTION('ref_axis',(1.,0.,0.));
#349=DIRECTION('center_axis',(0.,0.,1.));
#350=DIRECTION('ref_axis',(1.,0.,0.));
#351=DIRECTION('center_axis',(0.,0.,-1.));
#352=DIRECTION('ref_axis',(1.,0.,0.));
#353=DIRECTION('',(0.,0.,-1.));
#354=DIRECTION('center_axis',(0.,0.,1.));
#355=DIRECTION('ref_axis',(1.,0.,0.));
#356=CARTESIAN_POINT('',(0.,0.,0.));
#357=CARTESIAN_POINT('Origin',(33.7999992445111,-125.000180311496,105.));
#358=CARTESIAN_POINT('',(36.7999991774559,-129.999997094274,105.));
#359=CARTESIAN_POINT('',(30.7999993115664,-129.999997094274,105.));
#360=CARTESIAN_POINT('Origin',(33.7999992445111,-129.999997094274,105.));
#361=CARTESIAN_POINT('',(36.7999991774559,-120.000363528718,105.));
#362=CARTESIAN_POINT('',(36.7999991774559,-119.99936302185,105.));
#363=CARTESIAN_POINT('',(30.7999993115664,-120.000363528718,105.));
#364=CARTESIAN_POINT('Origin',(33.7999992445111,-119.999997317791,105.));
#365=CARTESIAN_POINT('',(30.7999993115664,-129.999997094274,105.));
#366=CARTESIAN_POINT('Origin',(33.7999992445111,-119.999997317791,0.));
#367=CARTESIAN_POINT('',(36.7999991774559,-120.000363528718,107.));
#368=CARTESIAN_POINT('',(36.7999991774559,-120.000363528718,0.));
#369=CARTESIAN_POINT('',(30.7999993115664,-120.000363528718,107.));
#370=CARTESIAN_POINT('Origin',(33.7999992445111,-119.999997317791,107.));
#371=CARTESIAN_POINT('',(30.7999993115664,-120.000363528718,0.));
#372=CARTESIAN_POINT('Origin',(36.7999991774559,-120.000363528718,0.));
#373=CARTESIAN_POINT('',(36.7999991774559,-129.999997094274,100.));
#374=CARTESIAN_POINT('',(36.7999991774559,-119.99936302185,100.));
#375=CARTESIAN_POINT('',(36.7999991774559,-120.000180440018,100.));
#376=CARTESIAN_POINT('',(36.7999991774559,-119.99936302185,107.));
#377=CARTESIAN_POINT('',(36.7999991774559,-119.99936302185,0.));
#378=CARTESIAN_POINT('',(36.7999991774559,-119.99936302185,107.));
#379=CARTESIAN_POINT('',(36.7999991774559,-129.999997094274,0.));
#380=CARTESIAN_POINT('Origin',(33.7999992445111,-119.999997317791,0.));
#381=CARTESIAN_POINT('',(33.8006335404517,-116.999997384846,100.));
#382=CARTESIAN_POINT('Origin',(33.7999992445111,-119.999997317791,100.));
#383=CARTESIAN_POINT('',(33.8006335404517,-116.999997384846,107.));
#384=CARTESIAN_POINT('',(33.8006335404517,-116.999997384846,0.));
#385=CARTESIAN_POINT('Origin',(33.7999992445111,-119.999997317791,107.));
#386=CARTESIAN_POINT('Origin',(33.7999992445111,-119.999997317791,0.));
#387=CARTESIAN_POINT('',(31.8499992445111,-119.999997317791,107.));
#388=CARTESIAN_POINT('Origin',(33.7999992445111,-119.999997317791,107.));
#389=CARTESIAN_POINT('',(31.8499992445111,-119.999997317791,100.));
#390=CARTESIAN_POINT('',(31.8499992445111,-119.999997317791,0.));
#391=CARTESIAN_POINT('Origin',(33.7999992445111,-119.999997317791,100.));
#392=CARTESIAN_POINT('Origin',(33.8006335404517,-116.999997384846,0.));
#393=CARTESIAN_POINT('',(33.7993649485705,-116.999997384846,100.));
#394=CARTESIAN_POINT('',(33.8003163924814,-116.999997384846,100.));
#395=CARTESIAN_POINT('',(33.7993649485705,-116.999997384846,107.));
#396=CARTESIAN_POINT('',(33.7993649485705,-116.999997384846,0.));
#397=CARTESIAN_POINT('',(33.7993649485705,-116.999997384846,107.));
#398=CARTESIAN_POINT('Origin',(30.7999993115664,-119.99936302185,0.));
#399=CARTESIAN_POINT('',(30.7999993115664,-119.99936302185,100.));
#400=CARTESIAN_POINT('',(30.7999993115664,-129.999997094274,100.));
#401=CARTESIAN_POINT('',(30.7999993115664,-122.500271920107,100.));
#402=CARTESIAN_POINT('',(30.7999993115664,-129.999997094274,0.));
#403=CARTESIAN_POINT('',(30.7999993115664,-119.99936302185,107.));
#404=CARTESIAN_POINT('',(30.7999993115664,-129.999997094274,107.));
#405=CARTESIAN_POINT('',(30.7999993115664,-119.99936302185,0.));
#406=CARTESIAN_POINT('Origin',(33.7999992445111,-119.999997317791,0.));
#407=CARTESIAN_POINT('Origin',(33.7999992445111,-119.999997317791,100.));
#408=CARTESIAN_POINT('Origin',(33.7999992445111,-119.999997317791,107.));
#409=CARTESIAN_POINT('Origin',(33.7999992445111,-119.999997351319,107.));
#410=CARTESIAN_POINT('Origin',(33.7999992445111,-129.999997094274,0.));
#411=CARTESIAN_POINT('',(30.7999993115664,-129.999997094274,107.));
#412=CARTESIAN_POINT('Origin',(33.7999992445111,-129.999997094274,107.));
#413=CARTESIAN_POINT('',(30.7999993115664,-129.999997094274,0.));
#414=CARTESIAN_POINT('Origin',(33.7999992445111,-129.999997094274,100.));
#415=CARTESIAN_POINT('Origin',(33.7999992445111,-129.999997094274,100.));
#416=CARTESIAN_POINT('',(31.8499992445111,-129.999997094274,100.));
#417=CARTESIAN_POINT('Origin',(33.7999992445111,-129.999997094274,100.));
#418=CARTESIAN_POINT('Origin',(33.7999992445111,-129.999997094274,0.));
#419=CARTESIAN_POINT('',(31.8499992445111,-129.999997094274,107.));
#420=CARTESIAN_POINT('Origin',(33.7999992445111,-129.999997094274,107.));
#421=CARTESIAN_POINT('',(31.8499992445111,-129.999997094274,0.));
#422=CARTESIAN_POINT('Origin',(33.7999992445111,-129.999997094274,107.));
#423=UNCERTAINTY_MEASURE_WITH_UNIT(LENGTH_MEASURE(0.01),#427,
'DISTANCE_ACCURACY_VALUE',
'Maximum model space distance between geometric entities at asserted c
onnectivities');
#424=UNCERTAINTY_MEASURE_WITH_UNIT(LENGTH_MEASURE(0.01),#427,
'DISTANCE_ACCURACY_VALUE',
'Maximum model space distance between geometric entities at asserted c
onnectivities');
#425=(
GEOMETRIC_REPRESENTATION_CONTEXT(3)
GLOBAL_UNCERTAINTY_ASSIGNED_CONTEXT((#423))
GLOBAL_UNIT_ASSIGNED_CONTEXT((#427,#429,#430))
REPRESENTATION_CONTEXT('','3D')
);
#426=(
GEOMETRIC_REPRESENTATION_CONTEXT(3)
GLOBAL_UNCERTAINTY_ASSIGNED_CONTEXT((#424))
GLOBAL_UNIT_ASSIGNED_CONTEXT((#427,#429,#430))
REPRESENTATION_CONTEXT('','3D')
);
#427=(
LENGTH_UNIT()
NAMED_UNIT(*)
SI_UNIT(.MILLI.,.METRE.)
);
#428=(
LENGTH_UNIT()
NAMED_UNIT(*)
SI_UNIT($,.METRE.)
);
#429=(
NAMED_UNIT(*)
PLANE_ANGLE_UNIT()
SI_UNIT($,.RADIAN.)
);
#430=(
NAMED_UNIT(*)
SI_UNIT($,.STERADIAN.)
SOLID_ANGLE_UNIT()
);
#431=SHAPE_DEFINITION_REPRESENTATION(#432,#433);
#432=PRODUCT_DEFINITION_SHAPE('',$,#435);
#433=SHAPE_REPRESENTATION('',(#256),#425);
#434=PRODUCT_DEFINITION_CONTEXT('part definition',#439,'design');
#435=PRODUCT_DEFINITION('2025-08-06-21-57-49-785','link2_3',#436,#434);
#436=PRODUCT_DEFINITION_FORMATION('',$,#441);
#437=PRODUCT_RELATED_PRODUCT_CATEGORY('link2_3','link2_3',(#441));
#438=APPLICATION_PROTOCOL_DEFINITION('international standard',
'automotive_design',2009,#439);
#439=APPLICATION_CONTEXT(
'Core Data for Automotive Mechanical Design Process');
#440=PRODUCT_CONTEXT('part definition',#439,'mechanical');
#441=PRODUCT('2025-08-06-21-57-49-785','link2_3',$,(#440));
#442=PRESENTATION_STYLE_ASSIGNMENT((#444));
#443=PRESENTATION_STYLE_ASSIGNMENT((#445));
#444=SURFACE_STYLE_USAGE(.BOTH.,#446);
#445=SURFACE_STYLE_USAGE(.BOTH.,#447);
#446=SURFACE_SIDE_STYLE('',(#448));
#447=SURFACE_SIDE_STYLE('',(#449));
#448=SURFACE_STYLE_FILL_AREA(#450);
#449=SURFACE_STYLE_FILL_AREA(#451);
#450=FILL_AREA_STYLE('Steel - Satin',(#452));
#451=FILL_AREA_STYLE('Powder Coat - Rough (Black)',(#453));
#452=FILL_AREA_STYLE_COLOUR('Steel - Satin',#454);
#453=FILL_AREA_STYLE_COLOUR('Powder Coat - Rough (Black)',#455);
#454=COLOUR_RGB('Steel - Satin',0.627450980392157,0.627450980392157,0.627450980392157);
#455=COLOUR_RGB('Powder Coat - Rough (Black)',0.0980392156862745,0.0980392156862745,
0.0980392156862745);
ENDSEC;
END-ISO-10303-21;
