ISO-10303-21;
HEADER;
/* Generated by software containing ST-Developer
 * from STEP Tools, Inc. (www.steptools.com) 
 */

FILE_DESCRIPTION(
/* description */ (''),
/* implementation_level */ '2;1');

FILE_NAME(
/* name */ 'link2_4.step',
/* time_stamp */ '2025-08-04T19:38:34+01:00',
/* author */ (''),
/* organization */ (''),
/* preprocessor_version */ 'ST-DEVELOPER v20.1',
/* originating_system */ 'Autodesk Translation Framework v14.10.0.0',
/* authorisation */ '');

FILE_SCHEMA (('AUTOMOTIVE_DESIGN { 1 0 10303 214 3 1 1 }'));
ENDSEC;

DATA;
#10=MECHANICAL_DESIGN_GEOMETRIC_PRESENTATION_REPRESENTATION('',(#13),#1051);
#11=SHAPE_REPRESENTATION_RELATIONSHIP('SRR','None',#1058,#12);
#12=ADVANCED_BREP_SHAPE_REPRESENTATION('',(#14),#1050);
#13=STYLED_ITEM('',(#1068),#14);
#14=MANIFOLD_SOLID_BREP('Body1',#625);
#15=FACE_BOUND('',#95,.T.);
#16=FACE_BOUND('',#96,.T.);
#17=FACE_BOUND('',#97,.T.);
#18=FACE_BOUND('',#121,.T.);
#19=FACE_BOUND('',#123,.T.);
#20=FACE_BOUND('',#124,.T.);
#21=FACE_BOUND('',#125,.T.);
#22=FACE_BOUND('',#126,.T.);
#23=FACE_BOUND('',#127,.T.);
#24=FACE_BOUND('',#128,.T.);
#25=FACE_BOUND('',#129,.T.);
#26=FACE_BOUND('',#137,.T.);
#27=FACE_BOUND('',#138,.T.);
#28=FACE_BOUND('',#139,.T.);
#29=FACE_BOUND('',#140,.T.);
#30=CYLINDRICAL_SURFACE('',#646,20.0000002980232);
#31=CYLINDRICAL_SURFACE('',#675,5.59999614954188);
#32=CYLINDRICAL_SURFACE('',#678,5.00000007450581);
#33=CYLINDRICAL_SURFACE('',#687,28.0000004172325);
#34=CYLINDRICAL_SURFACE('',#690,1.05);
#35=CYLINDRICAL_SURFACE('',#692,1.05);
#36=CYLINDRICAL_SURFACE('',#694,1.05);
#37=CIRCLE('',#644,20.0000002980232);
#38=CIRCLE('',#647,20.0000002980232);
#39=CIRCLE('',#648,20.0000002980232);
#40=CIRCLE('',#649,20.0000002980232);
#41=CIRCLE('',#652,20.0000002980232);
#42=CIRCLE('',#676,5.59999614954188);
#43=CIRCLE('',#677,5.59999614954188);
#44=CIRCLE('',#679,5.00000007450581);
#45=CIRCLE('',#680,5.00000007450581);
#46=CIRCLE('',#683,28.0000004172325);
#47=CIRCLE('',#684,1.05);
#48=CIRCLE('',#685,1.05);
#49=CIRCLE('',#686,1.05);
#50=CIRCLE('',#688,28.0000004172325);
#51=CIRCLE('',#691,1.05);
#52=CIRCLE('',#693,1.05);
#53=CIRCLE('',#695,1.05);
#54=FACE_OUTER_BOUND('',#90,.T.);
#55=FACE_OUTER_BOUND('',#91,.T.);
#56=FACE_OUTER_BOUND('',#92,.T.);
#57=FACE_OUTER_BOUND('',#93,.T.);
#58=FACE_OUTER_BOUND('',#94,.T.);
#59=FACE_OUTER_BOUND('',#98,.T.);
#60=FACE_OUTER_BOUND('',#99,.T.);
#61=FACE_OUTER_BOUND('',#100,.T.);
#62=FACE_OUTER_BOUND('',#101,.T.);
#63=FACE_OUTER_BOUND('',#102,.T.);
#64=FACE_OUTER_BOUND('',#103,.T.);
#65=FACE_OUTER_BOUND('',#104,.T.);
#66=FACE_OUTER_BOUND('',#105,.T.);
#67=FACE_OUTER_BOUND('',#106,.T.);
#68=FACE_OUTER_BOUND('',#107,.T.);
#69=FACE_OUTER_BOUND('',#108,.T.);
#70=FACE_OUTER_BOUND('',#109,.T.);
#71=FACE_OUTER_BOUND('',#110,.T.);
#72=FACE_OUTER_BOUND('',#111,.T.);
#73=FACE_OUTER_BOUND('',#112,.T.);
#74=FACE_OUTER_BOUND('',#113,.T.);
#75=FACE_OUTER_BOUND('',#114,.T.);
#76=FACE_OUTER_BOUND('',#115,.T.);
#77=FACE_OUTER_BOUND('',#116,.T.);
#78=FACE_OUTER_BOUND('',#117,.T.);
#79=FACE_OUTER_BOUND('',#118,.T.);
#80=FACE_OUTER_BOUND('',#119,.T.);
#81=FACE_OUTER_BOUND('',#120,.T.);
#82=FACE_OUTER_BOUND('',#122,.T.);
#83=FACE_OUTER_BOUND('',#130,.T.);
#84=FACE_OUTER_BOUND('',#131,.T.);
#85=FACE_OUTER_BOUND('',#132,.T.);
#86=FACE_OUTER_BOUND('',#133,.T.);
#87=FACE_OUTER_BOUND('',#134,.T.);
#88=FACE_OUTER_BOUND('',#135,.T.);
#89=FACE_OUTER_BOUND('',#136,.T.);
#90=EDGE_LOOP('',(#398,#399,#400,#401));
#91=EDGE_LOOP('',(#402,#403,#404,#405));
#92=EDGE_LOOP('',(#406,#407,#408,#409));
#93=EDGE_LOOP('',(#410,#411,#412));
#94=EDGE_LOOP('',(#413,#414,#415,#416));
#95=EDGE_LOOP('',(#417,#418,#419));
#96=EDGE_LOOP('',(#420,#421,#422));
#97=EDGE_LOOP('',(#423,#424,#425));
#98=EDGE_LOOP('',(#426,#427,#428,#429));
#99=EDGE_LOOP('',(#430,#431,#432,#433));
#100=EDGE_LOOP('',(#434,#435,#436));
#101=EDGE_LOOP('',(#437,#438,#439,#440));
#102=EDGE_LOOP('',(#441,#442,#443,#444));
#103=EDGE_LOOP('',(#445,#446,#447,#448));
#104=EDGE_LOOP('',(#449,#450,#451));
#105=EDGE_LOOP('',(#452,#453,#454,#455));
#106=EDGE_LOOP('',(#456,#457,#458,#459));
#107=EDGE_LOOP('',(#460,#461,#462,#463));
#108=EDGE_LOOP('',(#464,#465,#466,#467));
#109=EDGE_LOOP('',(#468,#469,#470));
#110=EDGE_LOOP('',(#471,#472,#473,#474));
#111=EDGE_LOOP('',(#475,#476,#477,#478));
#112=EDGE_LOOP('',(#479,#480,#481,#482));
#113=EDGE_LOOP('',(#483,#484,#485));
#114=EDGE_LOOP('',(#486,#487,#488,#489));
#115=EDGE_LOOP('',(#490,#491,#492,#493));
#116=EDGE_LOOP('',(#494,#495,#496,#497));
#117=EDGE_LOOP('',(#498,#499,#500));
#118=EDGE_LOOP('',(#501,#502,#503,#504));
#119=EDGE_LOOP('',(#505,#506,#507,#508));
#120=EDGE_LOOP('',(#509));
#121=EDGE_LOOP('',(#510));
#122=EDGE_LOOP('',(#511,#512,#513,#514));
#123=EDGE_LOOP('',(#515,#516,#517));
#124=EDGE_LOOP('',(#518,#519,#520));
#125=EDGE_LOOP('',(#521,#522,#523));
#126=EDGE_LOOP('',(#524));
#127=EDGE_LOOP('',(#525));
#128=EDGE_LOOP('',(#526));
#129=EDGE_LOOP('',(#527));
#130=EDGE_LOOP('',(#528,#529,#530,#531));
#131=EDGE_LOOP('',(#532,#533,#534,#535));
#132=EDGE_LOOP('',(#536,#537,#538,#539));
#133=EDGE_LOOP('',(#540,#541,#542,#543));
#134=EDGE_LOOP('',(#544,#545,#546,#547));
#135=EDGE_LOOP('',(#548,#549,#550,#551));
#136=EDGE_LOOP('',(#552,#553,#554,#555));
#137=EDGE_LOOP('',(#556));
#138=EDGE_LOOP('',(#557));
#139=EDGE_LOOP('',(#558));
#140=EDGE_LOOP('',(#559));
#141=LINE('',#882,#199);
#142=LINE('',#884,#200);
#143=LINE('',#885,#201);
#144=LINE('',#890,#202);
#145=LINE('',#891,#203);
#146=LINE('',#894,#204);
#147=LINE('',#901,#205);
#148=LINE('',#904,#206);
#149=LINE('',#919,#207);
#150=LINE('',#921,#208);
#151=LINE('',#922,#209);
#152=LINE('',#925,#210);
#153=LINE('',#926,#211);
#154=LINE('',#928,#212);
#155=LINE('',#932,#213);
#156=LINE('',#934,#214);
#157=LINE('',#935,#215);
#158=LINE('',#938,#216);
#159=LINE('',#939,#217);
#160=LINE('',#941,#218);
#161=LINE('',#946,#219);
#162=LINE('',#948,#220);
#163=LINE('',#950,#221);
#164=LINE('',#951,#222);
#165=LINE('',#954,#223);
#166=LINE('',#956,#224);
#167=LINE('',#957,#225);
#168=LINE('',#959,#226);
#169=LINE('',#960,#227);
#170=LINE('',#965,#228);
#171=LINE('',#967,#229);
#172=LINE('',#969,#230);
#173=LINE('',#970,#231);
#174=LINE('',#973,#232);
#175=LINE('',#975,#233);
#176=LINE('',#976,#234);
#177=LINE('',#978,#235);
#178=LINE('',#979,#236);
#179=LINE('',#984,#237);
#180=LINE('',#986,#238);
#181=LINE('',#988,#239);
#182=LINE('',#989,#240);
#183=LINE('',#992,#241);
#184=LINE('',#994,#242);
#185=LINE('',#995,#243);
#186=LINE('',#997,#244);
#187=LINE('',#998,#245);
#188=LINE('',#1004,#246);
#189=LINE('',#1010,#247);
#190=LINE('',#1015,#248);
#191=LINE('',#1018,#249);
#192=LINE('',#1027,#250);
#193=LINE('',#1030,#251);
#194=LINE('',#1032,#252);
#195=LINE('',#1036,#253);
#196=LINE('',#1040,#254);
#197=LINE('',#1044,#255);
#198=LINE('',#1046,#256);
#199=VECTOR('',#704,10.);
#200=VECTOR('',#705,10.);
#201=VECTOR('',#706,10.);
#202=VECTOR('',#711,10.);
#203=VECTOR('',#712,10.);
#204=VECTOR('',#717,10.);
#205=VECTOR('',#724,10.);
#206=VECTOR('',#727,10.);
#207=VECTOR('',#742,10.);
#208=VECTOR('',#743,10.);
#209=VECTOR('',#744,10.);
#210=VECTOR('',#747,10.);
#211=VECTOR('',#748,10.);
#212=VECTOR('',#751,10.);
#213=VECTOR('',#756,10.);
#214=VECTOR('',#757,10.);
#215=VECTOR('',#758,10.);
#216=VECTOR('',#761,10.);
#217=VECTOR('',#762,10.);
#218=VECTOR('',#765,10.);
#219=VECTOR('',#770,10.);
#220=VECTOR('',#771,10.);
#221=VECTOR('',#772,10.);
#222=VECTOR('',#773,10.);
#223=VECTOR('',#776,10.);
#224=VECTOR('',#777,10.);
#225=VECTOR('',#778,10.);
#226=VECTOR('',#781,10.);
#227=VECTOR('',#782,10.);
#228=VECTOR('',#787,10.);
#229=VECTOR('',#788,10.);
#230=VECTOR('',#789,10.);
#231=VECTOR('',#790,10.);
#232=VECTOR('',#793,10.);
#233=VECTOR('',#794,10.);
#234=VECTOR('',#795,10.);
#235=VECTOR('',#798,10.);
#236=VECTOR('',#799,10.);
#237=VECTOR('',#804,10.);
#238=VECTOR('',#805,10.);
#239=VECTOR('',#806,10.);
#240=VECTOR('',#807,10.);
#241=VECTOR('',#810,10.);
#242=VECTOR('',#811,10.);
#243=VECTOR('',#812,10.);
#244=VECTOR('',#815,10.);
#245=VECTOR('',#816,10.);
#246=VECTOR('',#823,5.59999614954188);
#247=VECTOR('',#830,5.00000007450581);
#248=VECTOR('',#837,10.);
#249=VECTOR('',#840,10.);
#250=VECTOR('',#849,10.);
#251=VECTOR('',#852,10.);
#252=VECTOR('',#855,10.);
#253=VECTOR('',#860,1.05);
#254=VECTOR('',#865,1.05);
#255=VECTOR('',#870,1.05);
#256=VECTOR('',#873,10.);
#257=ELLIPSE('',#640,63.2455541457998,20.0000002980232);
#258=ELLIPSE('',#642,63.2455541457998,20.0000002980232);
#259=ELLIPSE('',#650,63.2455541457998,20.0000002980232);
#260=ELLIPSE('',#651,63.2455541457998,20.0000002980232);
#261=ELLIPSE('',#653,63.2455541457998,20.0000002980232);
#262=ELLIPSE('',#654,63.2455541457998,20.0000002980232);
#263=VERTEX_POINT('',#878);
#264=VERTEX_POINT('',#879);
#265=VERTEX_POINT('',#881);
#266=VERTEX_POINT('',#883);
#267=VERTEX_POINT('',#887);
#268=VERTEX_POINT('',#889);
#269=VERTEX_POINT('',#897);
#270=VERTEX_POINT('',#898);
#271=VERTEX_POINT('',#900);
#272=VERTEX_POINT('',#902);
#273=VERTEX_POINT('',#905);
#274=VERTEX_POINT('',#906);
#275=VERTEX_POINT('',#908);
#276=VERTEX_POINT('',#911);
#277=VERTEX_POINT('',#912);
#278=VERTEX_POINT('',#914);
#279=VERTEX_POINT('',#918);
#280=VERTEX_POINT('',#920);
#281=VERTEX_POINT('',#924);
#282=VERTEX_POINT('',#931);
#283=VERTEX_POINT('',#933);
#284=VERTEX_POINT('',#937);
#285=VERTEX_POINT('',#944);
#286=VERTEX_POINT('',#945);
#287=VERTEX_POINT('',#947);
#288=VERTEX_POINT('',#949);
#289=VERTEX_POINT('',#953);
#290=VERTEX_POINT('',#955);
#291=VERTEX_POINT('',#963);
#292=VERTEX_POINT('',#964);
#293=VERTEX_POINT('',#966);
#294=VERTEX_POINT('',#968);
#295=VERTEX_POINT('',#972);
#296=VERTEX_POINT('',#974);
#297=VERTEX_POINT('',#982);
#298=VERTEX_POINT('',#983);
#299=VERTEX_POINT('',#985);
#300=VERTEX_POINT('',#987);
#301=VERTEX_POINT('',#991);
#302=VERTEX_POINT('',#993);
#303=VERTEX_POINT('',#1001);
#304=VERTEX_POINT('',#1003);
#305=VERTEX_POINT('',#1007);
#306=VERTEX_POINT('',#1009);
#307=VERTEX_POINT('',#1014);
#308=VERTEX_POINT('',#1016);
#309=VERTEX_POINT('',#1019);
#310=VERTEX_POINT('',#1021);
#311=VERTEX_POINT('',#1023);
#312=VERTEX_POINT('',#1026);
#313=VERTEX_POINT('',#1028);
#314=VERTEX_POINT('',#1034);
#315=VERTEX_POINT('',#1038);
#316=VERTEX_POINT('',#1042);
#317=EDGE_CURVE('',#263,#264,#257,.T.);
#318=EDGE_CURVE('',#263,#265,#141,.T.);
#319=EDGE_CURVE('',#265,#266,#142,.T.);
#320=EDGE_CURVE('',#264,#266,#143,.T.);
#321=EDGE_CURVE('',#264,#267,#258,.T.);
#322=EDGE_CURVE('',#266,#268,#144,.T.);
#323=EDGE_CURVE('',#267,#268,#145,.T.);
#324=EDGE_CURVE('',#267,#263,#37,.T.);
#325=EDGE_CURVE('',#268,#265,#146,.T.);
#326=EDGE_CURVE('',#269,#270,#38,.T.);
#327=EDGE_CURVE('',#270,#271,#147,.T.);
#328=EDGE_CURVE('',#272,#271,#39,.T.);
#329=EDGE_CURVE('',#269,#272,#148,.T.);
#330=EDGE_CURVE('',#273,#274,#40,.T.);
#331=EDGE_CURVE('',#274,#275,#259,.T.);
#332=EDGE_CURVE('',#275,#273,#260,.T.);
#333=EDGE_CURVE('',#276,#277,#41,.T.);
#334=EDGE_CURVE('',#277,#278,#261,.T.);
#335=EDGE_CURVE('',#278,#276,#262,.T.);
#336=EDGE_CURVE('',#279,#274,#149,.T.);
#337=EDGE_CURVE('',#280,#279,#150,.T.);
#338=EDGE_CURVE('',#280,#275,#151,.T.);
#339=EDGE_CURVE('',#281,#280,#152,.T.);
#340=EDGE_CURVE('',#281,#273,#153,.T.);
#341=EDGE_CURVE('',#279,#281,#154,.T.);
#342=EDGE_CURVE('',#282,#277,#155,.T.);
#343=EDGE_CURVE('',#283,#282,#156,.T.);
#344=EDGE_CURVE('',#283,#278,#157,.T.);
#345=EDGE_CURVE('',#284,#283,#158,.T.);
#346=EDGE_CURVE('',#284,#276,#159,.T.);
#347=EDGE_CURVE('',#282,#284,#160,.T.);
#348=EDGE_CURVE('',#285,#286,#161,.T.);
#349=EDGE_CURVE('',#285,#287,#162,.T.);
#350=EDGE_CURVE('',#287,#288,#163,.T.);
#351=EDGE_CURVE('',#286,#288,#164,.T.);
#352=EDGE_CURVE('',#286,#289,#165,.T.);
#353=EDGE_CURVE('',#288,#290,#166,.T.);
#354=EDGE_CURVE('',#289,#290,#167,.T.);
#355=EDGE_CURVE('',#289,#285,#168,.T.);
#356=EDGE_CURVE('',#290,#287,#169,.T.);
#357=EDGE_CURVE('',#291,#292,#170,.T.);
#358=EDGE_CURVE('',#291,#293,#171,.T.);
#359=EDGE_CURVE('',#293,#294,#172,.T.);
#360=EDGE_CURVE('',#292,#294,#173,.T.);
#361=EDGE_CURVE('',#292,#295,#174,.T.);
#362=EDGE_CURVE('',#294,#296,#175,.T.);
#363=EDGE_CURVE('',#295,#296,#176,.T.);
#364=EDGE_CURVE('',#295,#291,#177,.T.);
#365=EDGE_CURVE('',#296,#293,#178,.T.);
#366=EDGE_CURVE('',#297,#298,#179,.T.);
#367=EDGE_CURVE('',#297,#299,#180,.T.);
#368=EDGE_CURVE('',#299,#300,#181,.T.);
#369=EDGE_CURVE('',#298,#300,#182,.T.);
#370=EDGE_CURVE('',#298,#301,#183,.T.);
#371=EDGE_CURVE('',#300,#302,#184,.T.);
#372=EDGE_CURVE('',#301,#302,#185,.T.);
#373=EDGE_CURVE('',#301,#297,#186,.T.);
#374=EDGE_CURVE('',#302,#299,#187,.T.);
#375=EDGE_CURVE('',#303,#303,#42,.T.);
#376=EDGE_CURVE('',#303,#304,#188,.T.);
#377=EDGE_CURVE('',#304,#304,#43,.T.);
#378=EDGE_CURVE('',#305,#305,#44,.T.);
#379=EDGE_CURVE('',#305,#306,#189,.T.);
#380=EDGE_CURVE('',#306,#306,#45,.T.);
#381=EDGE_CURVE('',#307,#269,#190,.T.);
#382=EDGE_CURVE('',#308,#307,#46,.T.);
#383=EDGE_CURVE('',#270,#308,#191,.T.);
#384=EDGE_CURVE('',#309,#309,#47,.T.);
#385=EDGE_CURVE('',#310,#310,#48,.T.);
#386=EDGE_CURVE('',#311,#311,#49,.T.);
#387=EDGE_CURVE('',#307,#312,#192,.T.);
#388=EDGE_CURVE('',#313,#312,#50,.T.);
#389=EDGE_CURVE('',#308,#313,#193,.T.);
#390=EDGE_CURVE('',#312,#272,#194,.T.);
#391=EDGE_CURVE('',#314,#314,#51,.T.);
#392=EDGE_CURVE('',#314,#311,#195,.T.);
#393=EDGE_CURVE('',#315,#315,#52,.T.);
#394=EDGE_CURVE('',#315,#310,#196,.T.);
#395=EDGE_CURVE('',#316,#316,#53,.T.);
#396=EDGE_CURVE('',#316,#309,#197,.T.);
#397=EDGE_CURVE('',#271,#313,#198,.T.);
#398=ORIENTED_EDGE('',*,*,#317,.F.);
#399=ORIENTED_EDGE('',*,*,#318,.T.);
#400=ORIENTED_EDGE('',*,*,#319,.T.);
#401=ORIENTED_EDGE('',*,*,#320,.F.);
#402=ORIENTED_EDGE('',*,*,#321,.F.);
#403=ORIENTED_EDGE('',*,*,#320,.T.);
#404=ORIENTED_EDGE('',*,*,#322,.T.);
#405=ORIENTED_EDGE('',*,*,#323,.F.);
#406=ORIENTED_EDGE('',*,*,#324,.F.);
#407=ORIENTED_EDGE('',*,*,#323,.T.);
#408=ORIENTED_EDGE('',*,*,#325,.T.);
#409=ORIENTED_EDGE('',*,*,#318,.F.);
#410=ORIENTED_EDGE('',*,*,#325,.F.);
#411=ORIENTED_EDGE('',*,*,#322,.F.);
#412=ORIENTED_EDGE('',*,*,#319,.F.);
#413=ORIENTED_EDGE('',*,*,#326,.T.);
#414=ORIENTED_EDGE('',*,*,#327,.T.);
#415=ORIENTED_EDGE('',*,*,#328,.F.);
#416=ORIENTED_EDGE('',*,*,#329,.F.);
#417=ORIENTED_EDGE('',*,*,#324,.T.);
#418=ORIENTED_EDGE('',*,*,#317,.T.);
#419=ORIENTED_EDGE('',*,*,#321,.T.);
#420=ORIENTED_EDGE('',*,*,#330,.T.);
#421=ORIENTED_EDGE('',*,*,#331,.T.);
#422=ORIENTED_EDGE('',*,*,#332,.T.);
#423=ORIENTED_EDGE('',*,*,#333,.T.);
#424=ORIENTED_EDGE('',*,*,#334,.T.);
#425=ORIENTED_EDGE('',*,*,#335,.T.);
#426=ORIENTED_EDGE('',*,*,#331,.F.);
#427=ORIENTED_EDGE('',*,*,#336,.F.);
#428=ORIENTED_EDGE('',*,*,#337,.F.);
#429=ORIENTED_EDGE('',*,*,#338,.T.);
#430=ORIENTED_EDGE('',*,*,#332,.F.);
#431=ORIENTED_EDGE('',*,*,#338,.F.);
#432=ORIENTED_EDGE('',*,*,#339,.F.);
#433=ORIENTED_EDGE('',*,*,#340,.T.);
#434=ORIENTED_EDGE('',*,*,#341,.T.);
#435=ORIENTED_EDGE('',*,*,#339,.T.);
#436=ORIENTED_EDGE('',*,*,#337,.T.);
#437=ORIENTED_EDGE('',*,*,#330,.F.);
#438=ORIENTED_EDGE('',*,*,#340,.F.);
#439=ORIENTED_EDGE('',*,*,#341,.F.);
#440=ORIENTED_EDGE('',*,*,#336,.T.);
#441=ORIENTED_EDGE('',*,*,#334,.F.);
#442=ORIENTED_EDGE('',*,*,#342,.F.);
#443=ORIENTED_EDGE('',*,*,#343,.F.);
#444=ORIENTED_EDGE('',*,*,#344,.T.);
#445=ORIENTED_EDGE('',*,*,#335,.F.);
#446=ORIENTED_EDGE('',*,*,#344,.F.);
#447=ORIENTED_EDGE('',*,*,#345,.F.);
#448=ORIENTED_EDGE('',*,*,#346,.T.);
#449=ORIENTED_EDGE('',*,*,#347,.T.);
#450=ORIENTED_EDGE('',*,*,#345,.T.);
#451=ORIENTED_EDGE('',*,*,#343,.T.);
#452=ORIENTED_EDGE('',*,*,#333,.F.);
#453=ORIENTED_EDGE('',*,*,#346,.F.);
#454=ORIENTED_EDGE('',*,*,#347,.F.);
#455=ORIENTED_EDGE('',*,*,#342,.T.);
#456=ORIENTED_EDGE('',*,*,#348,.F.);
#457=ORIENTED_EDGE('',*,*,#349,.T.);
#458=ORIENTED_EDGE('',*,*,#350,.T.);
#459=ORIENTED_EDGE('',*,*,#351,.F.);
#460=ORIENTED_EDGE('',*,*,#352,.F.);
#461=ORIENTED_EDGE('',*,*,#351,.T.);
#462=ORIENTED_EDGE('',*,*,#353,.T.);
#463=ORIENTED_EDGE('',*,*,#354,.F.);
#464=ORIENTED_EDGE('',*,*,#355,.F.);
#465=ORIENTED_EDGE('',*,*,#354,.T.);
#466=ORIENTED_EDGE('',*,*,#356,.T.);
#467=ORIENTED_EDGE('',*,*,#349,.F.);
#468=ORIENTED_EDGE('',*,*,#353,.F.);
#469=ORIENTED_EDGE('',*,*,#350,.F.);
#470=ORIENTED_EDGE('',*,*,#356,.F.);
#471=ORIENTED_EDGE('',*,*,#357,.F.);
#472=ORIENTED_EDGE('',*,*,#358,.T.);
#473=ORIENTED_EDGE('',*,*,#359,.T.);
#474=ORIENTED_EDGE('',*,*,#360,.F.);
#475=ORIENTED_EDGE('',*,*,#361,.F.);
#476=ORIENTED_EDGE('',*,*,#360,.T.);
#477=ORIENTED_EDGE('',*,*,#362,.T.);
#478=ORIENTED_EDGE('',*,*,#363,.F.);
#479=ORIENTED_EDGE('',*,*,#364,.F.);
#480=ORIENTED_EDGE('',*,*,#363,.T.);
#481=ORIENTED_EDGE('',*,*,#365,.T.);
#482=ORIENTED_EDGE('',*,*,#358,.F.);
#483=ORIENTED_EDGE('',*,*,#362,.F.);
#484=ORIENTED_EDGE('',*,*,#359,.F.);
#485=ORIENTED_EDGE('',*,*,#365,.F.);
#486=ORIENTED_EDGE('',*,*,#366,.F.);
#487=ORIENTED_EDGE('',*,*,#367,.T.);
#488=ORIENTED_EDGE('',*,*,#368,.T.);
#489=ORIENTED_EDGE('',*,*,#369,.F.);
#490=ORIENTED_EDGE('',*,*,#370,.F.);
#491=ORIENTED_EDGE('',*,*,#369,.T.);
#492=ORIENTED_EDGE('',*,*,#371,.T.);
#493=ORIENTED_EDGE('',*,*,#372,.F.);
#494=ORIENTED_EDGE('',*,*,#373,.F.);
#495=ORIENTED_EDGE('',*,*,#372,.T.);
#496=ORIENTED_EDGE('',*,*,#374,.T.);
#497=ORIENTED_EDGE('',*,*,#367,.F.);
#498=ORIENTED_EDGE('',*,*,#371,.F.);
#499=ORIENTED_EDGE('',*,*,#368,.F.);
#500=ORIENTED_EDGE('',*,*,#374,.F.);
#501=ORIENTED_EDGE('',*,*,#375,.F.);
#502=ORIENTED_EDGE('',*,*,#376,.T.);
#503=ORIENTED_EDGE('',*,*,#377,.F.);
#504=ORIENTED_EDGE('',*,*,#376,.F.);
#505=ORIENTED_EDGE('',*,*,#378,.F.);
#506=ORIENTED_EDGE('',*,*,#379,.T.);
#507=ORIENTED_EDGE('',*,*,#380,.T.);
#508=ORIENTED_EDGE('',*,*,#379,.F.);
#509=ORIENTED_EDGE('',*,*,#375,.T.);
#510=ORIENTED_EDGE('',*,*,#378,.T.);
#511=ORIENTED_EDGE('',*,*,#381,.F.);
#512=ORIENTED_EDGE('',*,*,#382,.F.);
#513=ORIENTED_EDGE('',*,*,#383,.F.);
#514=ORIENTED_EDGE('',*,*,#326,.F.);
#515=ORIENTED_EDGE('',*,*,#348,.T.);
#516=ORIENTED_EDGE('',*,*,#352,.T.);
#517=ORIENTED_EDGE('',*,*,#355,.T.);
#518=ORIENTED_EDGE('',*,*,#357,.T.);
#519=ORIENTED_EDGE('',*,*,#361,.T.);
#520=ORIENTED_EDGE('',*,*,#364,.T.);
#521=ORIENTED_EDGE('',*,*,#366,.T.);
#522=ORIENTED_EDGE('',*,*,#370,.T.);
#523=ORIENTED_EDGE('',*,*,#373,.T.);
#524=ORIENTED_EDGE('',*,*,#380,.F.);
#525=ORIENTED_EDGE('',*,*,#384,.F.);
#526=ORIENTED_EDGE('',*,*,#385,.F.);
#527=ORIENTED_EDGE('',*,*,#386,.F.);
#528=ORIENTED_EDGE('',*,*,#382,.T.);
#529=ORIENTED_EDGE('',*,*,#387,.T.);
#530=ORIENTED_EDGE('',*,*,#388,.F.);
#531=ORIENTED_EDGE('',*,*,#389,.F.);
#532=ORIENTED_EDGE('',*,*,#381,.T.);
#533=ORIENTED_EDGE('',*,*,#329,.T.);
#534=ORIENTED_EDGE('',*,*,#390,.F.);
#535=ORIENTED_EDGE('',*,*,#387,.F.);
#536=ORIENTED_EDGE('',*,*,#391,.F.);
#537=ORIENTED_EDGE('',*,*,#392,.T.);
#538=ORIENTED_EDGE('',*,*,#386,.T.);
#539=ORIENTED_EDGE('',*,*,#392,.F.);
#540=ORIENTED_EDGE('',*,*,#393,.F.);
#541=ORIENTED_EDGE('',*,*,#394,.T.);
#542=ORIENTED_EDGE('',*,*,#385,.T.);
#543=ORIENTED_EDGE('',*,*,#394,.F.);
#544=ORIENTED_EDGE('',*,*,#395,.F.);
#545=ORIENTED_EDGE('',*,*,#396,.T.);
#546=ORIENTED_EDGE('',*,*,#384,.T.);
#547=ORIENTED_EDGE('',*,*,#396,.F.);
#548=ORIENTED_EDGE('',*,*,#383,.T.);
#549=ORIENTED_EDGE('',*,*,#389,.T.);
#550=ORIENTED_EDGE('',*,*,#397,.F.);
#551=ORIENTED_EDGE('',*,*,#327,.F.);
#552=ORIENTED_EDGE('',*,*,#390,.T.);
#553=ORIENTED_EDGE('',*,*,#328,.T.);
#554=ORIENTED_EDGE('',*,*,#397,.T.);
#555=ORIENTED_EDGE('',*,*,#388,.T.);
#556=ORIENTED_EDGE('',*,*,#377,.T.);
#557=ORIENTED_EDGE('',*,*,#395,.T.);
#558=ORIENTED_EDGE('',*,*,#393,.T.);
#559=ORIENTED_EDGE('',*,*,#391,.T.);
#560=PLANE('',#639);
#561=PLANE('',#641);
#562=PLANE('',#643);
#563=PLANE('',#645);
#564=PLANE('',#655);
#565=PLANE('',#656);
#566=PLANE('',#657);
#567=PLANE('',#658);
#568=PLANE('',#659);
#569=PLANE('',#660);
#570=PLANE('',#661);
#571=PLANE('',#662);
#572=PLANE('',#663);
#573=PLANE('',#664);
#574=PLANE('',#665);
#575=PLANE('',#666);
#576=PLANE('',#667);
#577=PLANE('',#668);
#578=PLANE('',#669);
#579=PLANE('',#670);
#580=PLANE('',#671);
#581=PLANE('',#672);
#582=PLANE('',#673);
#583=PLANE('',#674);
#584=PLANE('',#681);
#585=PLANE('',#682);
#586=PLANE('',#689);
#587=PLANE('',#696);
#588=PLANE('',#697);
#589=ADVANCED_FACE('',(#54),#560,.F.);
#590=ADVANCED_FACE('',(#55),#561,.F.);
#591=ADVANCED_FACE('',(#56),#562,.F.);
#592=ADVANCED_FACE('',(#57),#563,.F.);
#593=ADVANCED_FACE('',(#58,#15,#16,#17),#30,.T.);
#594=ADVANCED_FACE('',(#59),#564,.F.);
#595=ADVANCED_FACE('',(#60),#565,.F.);
#596=ADVANCED_FACE('',(#61),#566,.T.);
#597=ADVANCED_FACE('',(#62),#567,.F.);
#598=ADVANCED_FACE('',(#63),#568,.F.);
#599=ADVANCED_FACE('',(#64),#569,.F.);
#600=ADVANCED_FACE('',(#65),#570,.T.);
#601=ADVANCED_FACE('',(#66),#571,.F.);
#602=ADVANCED_FACE('',(#67),#572,.F.);
#603=ADVANCED_FACE('',(#68),#573,.F.);
#604=ADVANCED_FACE('',(#69),#574,.F.);
#605=ADVANCED_FACE('',(#70),#575,.F.);
#606=ADVANCED_FACE('',(#71),#576,.F.);
#607=ADVANCED_FACE('',(#72),#577,.F.);
#608=ADVANCED_FACE('',(#73),#578,.F.);
#609=ADVANCED_FACE('',(#74),#579,.F.);
#610=ADVANCED_FACE('',(#75),#580,.F.);
#611=ADVANCED_FACE('',(#76),#581,.F.);
#612=ADVANCED_FACE('',(#77),#582,.F.);
#613=ADVANCED_FACE('',(#78),#583,.F.);
#614=ADVANCED_FACE('',(#79),#31,.T.);
#615=ADVANCED_FACE('',(#80),#32,.F.);
#616=ADVANCED_FACE('',(#81,#18),#584,.T.);
#617=ADVANCED_FACE('',(#82,#19,#20,#21,#22,#23,#24,#25),#585,.F.);
#618=ADVANCED_FACE('',(#83),#33,.F.);
#619=ADVANCED_FACE('',(#84),#586,.T.);
#620=ADVANCED_FACE('',(#85),#34,.F.);
#621=ADVANCED_FACE('',(#86),#35,.F.);
#622=ADVANCED_FACE('',(#87),#36,.F.);
#623=ADVANCED_FACE('',(#88),#587,.T.);
#624=ADVANCED_FACE('',(#89,#26,#27,#28,#29),#588,.T.);
#625=CLOSED_SHELL('',(#589,#590,#591,#592,#593,#594,#595,#596,#597,#598,
#599,#600,#601,#602,#603,#604,#605,#606,#607,#608,#609,#610,#611,#612,#613,
#614,#615,#616,#617,#618,#619,#620,#621,#622,#623,#624));
#626=DERIVED_UNIT_ELEMENT(#628,1.);
#627=DERIVED_UNIT_ELEMENT(#1053,-3.);
#628=(
MASS_UNIT()
NAMED_UNIT(*)
SI_UNIT(.KILO.,.GRAM.)
);
#629=DERIVED_UNIT((#626,#627));
#630=MEASURE_REPRESENTATION_ITEM('density measure',
POSITIVE_RATIO_MEASURE(7850.),#629);
#631=PROPERTY_DEFINITION_REPRESENTATION(#636,#633);
#632=PROPERTY_DEFINITION_REPRESENTATION(#637,#634);
#633=REPRESENTATION('material name',(#635),#1050);
#634=REPRESENTATION('density',(#630),#1050);
#635=DESCRIPTIVE_REPRESENTATION_ITEM('Steel','Steel');
#636=PROPERTY_DEFINITION('material property','material name',#1060);
#637=PROPERTY_DEFINITION('material property','density of part',#1060);
#638=AXIS2_PLACEMENT_3D('',#876,#698,#699);
#639=AXIS2_PLACEMENT_3D('',#877,#700,#701);
#640=AXIS2_PLACEMENT_3D('',#880,#702,#703);
#641=AXIS2_PLACEMENT_3D('',#886,#707,#708);
#642=AXIS2_PLACEMENT_3D('',#888,#709,#710);
#643=AXIS2_PLACEMENT_3D('',#892,#713,#714);
#644=AXIS2_PLACEMENT_3D('',#893,#715,#716);
#645=AXIS2_PLACEMENT_3D('',#895,#718,#719);
#646=AXIS2_PLACEMENT_3D('',#896,#720,#721);
#647=AXIS2_PLACEMENT_3D('',#899,#722,#723);
#648=AXIS2_PLACEMENT_3D('',#903,#725,#726);
#649=AXIS2_PLACEMENT_3D('',#907,#728,#729);
#650=AXIS2_PLACEMENT_3D('',#909,#730,#731);
#651=AXIS2_PLACEMENT_3D('',#910,#732,#733);
#652=AXIS2_PLACEMENT_3D('',#913,#734,#735);
#653=AXIS2_PLACEMENT_3D('',#915,#736,#737);
#654=AXIS2_PLACEMENT_3D('',#916,#738,#739);
#655=AXIS2_PLACEMENT_3D('',#917,#740,#741);
#656=AXIS2_PLACEMENT_3D('',#923,#745,#746);
#657=AXIS2_PLACEMENT_3D('',#927,#749,#750);
#658=AXIS2_PLACEMENT_3D('',#929,#752,#753);
#659=AXIS2_PLACEMENT_3D('',#930,#754,#755);
#660=AXIS2_PLACEMENT_3D('',#936,#759,#760);
#661=AXIS2_PLACEMENT_3D('',#940,#763,#764);
#662=AXIS2_PLACEMENT_3D('',#942,#766,#767);
#663=AXIS2_PLACEMENT_3D('',#943,#768,#769);
#664=AXIS2_PLACEMENT_3D('',#952,#774,#775);
#665=AXIS2_PLACEMENT_3D('',#958,#779,#780);
#666=AXIS2_PLACEMENT_3D('',#961,#783,#784);
#667=AXIS2_PLACEMENT_3D('',#962,#785,#786);
#668=AXIS2_PLACEMENT_3D('',#971,#791,#792);
#669=AXIS2_PLACEMENT_3D('',#977,#796,#797);
#670=AXIS2_PLACEMENT_3D('',#980,#800,#801);
#671=AXIS2_PLACEMENT_3D('',#981,#802,#803);
#672=AXIS2_PLACEMENT_3D('',#990,#808,#809);
#673=AXIS2_PLACEMENT_3D('',#996,#813,#814);
#674=AXIS2_PLACEMENT_3D('',#999,#817,#818);
#675=AXIS2_PLACEMENT_3D('',#1000,#819,#820);
#676=AXIS2_PLACEMENT_3D('',#1002,#821,#822);
#677=AXIS2_PLACEMENT_3D('',#1005,#824,#825);
#678=AXIS2_PLACEMENT_3D('',#1006,#826,#827);
#679=AXIS2_PLACEMENT_3D('',#1008,#828,#829);
#680=AXIS2_PLACEMENT_3D('',#1011,#831,#832);
#681=AXIS2_PLACEMENT_3D('',#1012,#833,#834);
#682=AXIS2_PLACEMENT_3D('',#1013,#835,#836);
#683=AXIS2_PLACEMENT_3D('',#1017,#838,#839);
#684=AXIS2_PLACEMENT_3D('',#1020,#841,#842);
#685=AXIS2_PLACEMENT_3D('',#1022,#843,#844);
#686=AXIS2_PLACEMENT_3D('',#1024,#845,#846);
#687=AXIS2_PLACEMENT_3D('',#1025,#847,#848);
#688=AXIS2_PLACEMENT_3D('',#1029,#850,#851);
#689=AXIS2_PLACEMENT_3D('',#1031,#853,#854);
#690=AXIS2_PLACEMENT_3D('',#1033,#856,#857);
#691=AXIS2_PLACEMENT_3D('',#1035,#858,#859);
#692=AXIS2_PLACEMENT_3D('',#1037,#861,#862);
#693=AXIS2_PLACEMENT_3D('',#1039,#863,#864);
#694=AXIS2_PLACEMENT_3D('',#1041,#866,#867);
#695=AXIS2_PLACEMENT_3D('',#1043,#868,#869);
#696=AXIS2_PLACEMENT_3D('',#1045,#871,#872);
#697=AXIS2_PLACEMENT_3D('',#1047,#874,#875);
#698=DIRECTION('axis',(0.,0.,1.));
#699=DIRECTION('refdir',(1.,0.,0.));
#700=DIRECTION('center_axis',(-0.948683298050514,0.,-0.316227766016838));
#701=DIRECTION('ref_axis',(0.316227766016838,0.,-0.948683298050514));
#702=DIRECTION('center_axis',(-0.948683298050514,0.,-0.316227766016838));
#703=DIRECTION('ref_axis',(0.316227766016838,3.51083341626121E-17,-0.948683298050514));
#704=DIRECTION('',(0.,-1.,0.));
#705=DIRECTION('',(0.316227766016838,0.,-0.948683298050514));
#706=DIRECTION('',(0.,-1.,0.));
#707=DIRECTION('center_axis',(0.948683298050514,0.,-0.316227766016838));
#708=DIRECTION('ref_axis',(0.316227766016838,0.,0.948683298050514));
#709=DIRECTION('center_axis',(0.948683298050514,0.,-0.316227766016838));
#710=DIRECTION('ref_axis',(0.316227766016838,3.51083341626121E-17,0.948683298050514));
#711=DIRECTION('',(0.316227766016838,0.,0.948683298050514));
#712=DIRECTION('',(0.,-1.,0.));
#713=DIRECTION('center_axis',(0.,0.,1.));
#714=DIRECTION('ref_axis',(-1.,0.,0.));
#715=DIRECTION('center_axis',(0.,0.,1.));
#716=DIRECTION('ref_axis',(0.5,0.866025403784438,0.));
#717=DIRECTION('',(-1.,0.,0.));
#718=DIRECTION('center_axis',(0.,-1.,0.));
#719=DIRECTION('ref_axis',(0.,0.,-1.));
#720=DIRECTION('center_axis',(0.,0.,1.));
#721=DIRECTION('ref_axis',(-1.,5.55111504040772E-17,0.));
#722=DIRECTION('center_axis',(0.,0.,1.));
#723=DIRECTION('ref_axis',(0.5,0.866025403784438,0.));
#724=DIRECTION('',(0.,0.,1.));
#725=DIRECTION('center_axis',(0.,0.,1.));
#726=DIRECTION('ref_axis',(0.5,0.866025403784438,0.));
#727=DIRECTION('',(0.,0.,1.));
#728=DIRECTION('center_axis',(0.,0.,1.));
#729=DIRECTION('ref_axis',(0.5,0.866025403784438,0.));
#730=DIRECTION('center_axis',(0.948683298050514,0.,-0.316227766016838));
#731=DIRECTION('ref_axis',(0.316227766016838,3.51083341626121E-17,0.948683298050514));
#732=DIRECTION('center_axis',(-0.948683298050514,0.,-0.316227766016838));
#733=DIRECTION('ref_axis',(0.316227766016838,3.51083341626121E-17,-0.948683298050514));
#734=DIRECTION('center_axis',(0.,0.,1.));
#735=DIRECTION('ref_axis',(0.5,0.866025403784438,0.));
#736=DIRECTION('center_axis',(0.,-0.948683298050514,-0.316227766016838));
#737=DIRECTION('ref_axis',(0.,0.316227766016838,-0.948683298050514));
#738=DIRECTION('center_axis',(0.,0.948683298050514,-0.316227766016838));
#739=DIRECTION('ref_axis',(0.,0.316227766016838,0.948683298050514));
#740=DIRECTION('center_axis',(0.948683298050514,0.,-0.316227766016838));
#741=DIRECTION('ref_axis',(0.316227766016838,0.,0.948683298050514));
#742=DIRECTION('',(0.,-1.,0.));
#743=DIRECTION('',(0.316227766016838,0.,0.948683298050514));
#744=DIRECTION('',(0.,-1.,0.));
#745=DIRECTION('center_axis',(-0.948683298050514,0.,-0.316227766016838));
#746=DIRECTION('ref_axis',(0.316227766016838,0.,-0.948683298050514));
#747=DIRECTION('',(0.316227766016838,0.,-0.948683298050514));
#748=DIRECTION('',(0.,-1.,0.));
#749=DIRECTION('center_axis',(0.,-1.,0.));
#750=DIRECTION('ref_axis',(0.,0.,-1.));
#751=DIRECTION('',(-1.,0.,0.));
#752=DIRECTION('center_axis',(0.,0.,1.));
#753=DIRECTION('ref_axis',(-1.,0.,0.));
#754=DIRECTION('center_axis',(0.,-0.948683298050514,-0.316227766016838));
#755=DIRECTION('ref_axis',(0.,-0.316227766016838,0.948683298050514));
#756=DIRECTION('',(-1.,0.,0.));
#757=DIRECTION('',(0.,-0.316227766016838,0.948683298050514));
#758=DIRECTION('',(-1.,0.,0.));
#759=DIRECTION('center_axis',(0.,0.948683298050514,-0.316227766016838));
#760=DIRECTION('ref_axis',(0.,-0.316227766016838,-0.948683298050514));
#761=DIRECTION('',(0.,-0.316227766016838,-0.948683298050514));
#762=DIRECTION('',(-1.,0.,0.));
#763=DIRECTION('center_axis',(-1.,0.,0.));
#764=DIRECTION('ref_axis',(0.,0.,1.));
#765=DIRECTION('',(0.,1.,0.));
#766=DIRECTION('center_axis',(0.,0.,1.));
#767=DIRECTION('ref_axis',(0.,1.,0.));
#768=DIRECTION('center_axis',(0.316227766016838,0.948683298050514,0.));
#769=DIRECTION('ref_axis',(-0.948683298050514,0.316227766016838,0.));
#770=DIRECTION('',(-0.948683298050514,0.316227766016838,0.));
#771=DIRECTION('',(0.,0.,1.));
#772=DIRECTION('',(-0.948683298050514,0.316227766016838,0.));
#773=DIRECTION('',(0.,0.,1.));
#774=DIRECTION('center_axis',(-1.,0.,0.));
#775=DIRECTION('ref_axis',(0.,-1.,0.));
#776=DIRECTION('',(0.,-1.,0.));
#777=DIRECTION('',(0.,-1.,0.));
#778=DIRECTION('',(0.,0.,1.));
#779=DIRECTION('center_axis',(0.316227766016838,-0.948683298050514,0.));
#780=DIRECTION('ref_axis',(0.948683298050514,0.316227766016838,0.));
#781=DIRECTION('',(0.948683298050514,0.316227766016838,0.));
#782=DIRECTION('',(0.948683298050514,0.316227766016838,0.));
#783=DIRECTION('center_axis',(0.,0.,1.));
#784=DIRECTION('ref_axis',(1.,0.,0.));
#785=DIRECTION('center_axis',(0.948683298050514,-0.316227766016838,0.));
#786=DIRECTION('ref_axis',(0.316227766016838,0.948683298050514,0.));
#787=DIRECTION('',(0.316227766016838,0.948683298050514,0.));
#788=DIRECTION('',(0.,0.,1.));
#789=DIRECTION('',(0.316227766016838,0.948683298050514,0.));
#790=DIRECTION('',(0.,0.,1.));
#791=DIRECTION('center_axis',(0.,1.,0.));
#792=DIRECTION('ref_axis',(-1.,0.,0.));
#793=DIRECTION('',(-1.,0.,0.));
#794=DIRECTION('',(-1.,0.,0.));
#795=DIRECTION('',(0.,0.,1.));
#796=DIRECTION('center_axis',(-0.948683298050514,-0.316227766016838,0.));
#797=DIRECTION('ref_axis',(0.316227766016838,-0.948683298050514,0.));
#798=DIRECTION('',(0.316227766016838,-0.948683298050514,0.));
#799=DIRECTION('',(0.316227766016838,-0.948683298050514,0.));
#800=DIRECTION('center_axis',(0.,0.,1.));
#801=DIRECTION('ref_axis',(1.,0.,0.));
#802=DIRECTION('center_axis',(-0.948683298050514,0.316227766016838,0.));
#803=DIRECTION('ref_axis',(-0.316227766016838,-0.948683298050514,0.));
#804=DIRECTION('',(-0.316227766016838,-0.948683298050514,0.));
#805=DIRECTION('',(0.,0.,1.));
#806=DIRECTION('',(-0.316227766016838,-0.948683298050514,0.));
#807=DIRECTION('',(0.,0.,1.));
#808=DIRECTION('center_axis',(0.,-1.,0.));
#809=DIRECTION('ref_axis',(1.,0.,0.));
#810=DIRECTION('',(1.,0.,0.));
#811=DIRECTION('',(1.,0.,0.));
#812=DIRECTION('',(0.,0.,1.));
#813=DIRECTION('center_axis',(0.948683298050514,0.316227766016838,0.));
#814=DIRECTION('ref_axis',(-0.316227766016838,0.948683298050514,0.));
#815=DIRECTION('',(-0.316227766016838,0.948683298050514,0.));
#816=DIRECTION('',(-0.316227766016838,0.948683298050514,0.));
#817=DIRECTION('center_axis',(0.,0.,1.));
#818=DIRECTION('ref_axis',(1.,0.,0.));
#819=DIRECTION('center_axis',(0.,0.,1.));
#820=DIRECTION('ref_axis',(1.,0.,0.));
#821=DIRECTION('center_axis',(0.,0.,1.));
#822=DIRECTION('ref_axis',(1.,0.,0.));
#823=DIRECTION('',(0.,0.,-1.));
#824=DIRECTION('center_axis',(0.,0.,-1.));
#825=DIRECTION('ref_axis',(1.,0.,0.));
#826=DIRECTION('center_axis',(0.,0.,1.));
#827=DIRECTION('ref_axis',(1.,0.,0.));
#828=DIRECTION('center_axis',(0.,0.,-1.));
#829=DIRECTION('ref_axis',(1.,0.,0.));
#830=DIRECTION('',(0.,0.,-1.));
#831=DIRECTION('center_axis',(0.,0.,-1.));
#832=DIRECTION('ref_axis',(1.,0.,0.));
#833=DIRECTION('center_axis',(0.,0.,1.));
#834=DIRECTION('ref_axis',(1.,0.,0.));
#835=DIRECTION('center_axis',(0.,0.,1.));
#836=DIRECTION('ref_axis',(1.,0.,0.));
#837=DIRECTION('',(0.,1.,0.));
#838=DIRECTION('center_axis',(0.,0.,-1.));
#839=DIRECTION('ref_axis',(-0.928571428571429,0.371153744479045,0.));
#840=DIRECTION('',(0.,1.,0.));
#841=DIRECTION('center_axis',(0.,0.,-1.));
#842=DIRECTION('ref_axis',(1.,0.,0.));
#843=DIRECTION('center_axis',(0.,0.,-1.));
#844=DIRECTION('ref_axis',(1.,0.,0.));
#845=DIRECTION('center_axis',(0.,0.,-1.));
#846=DIRECTION('ref_axis',(1.,0.,0.));
#847=DIRECTION('center_axis',(0.,0.,1.));
#848=DIRECTION('ref_axis',(-0.928571428571429,0.371153744479045,0.));
#849=DIRECTION('',(0.,0.,1.));
#850=DIRECTION('center_axis',(0.,0.,-1.));
#851=DIRECTION('ref_axis',(-0.928571428571429,0.371153744479045,0.));
#852=DIRECTION('',(0.,0.,1.));
#853=DIRECTION('center_axis',(1.,0.,0.));
#854=DIRECTION('ref_axis',(0.,1.,0.));
#855=DIRECTION('',(0.,1.,0.));
#856=DIRECTION('center_axis',(0.,0.,1.));
#857=DIRECTION('ref_axis',(1.,0.,0.));
#858=DIRECTION('center_axis',(0.,0.,-1.));
#859=DIRECTION('ref_axis',(1.,0.,0.));
#860=DIRECTION('',(0.,0.,-1.));
#861=DIRECTION('center_axis',(0.,0.,1.));
#862=DIRECTION('ref_axis',(1.,0.,0.));
#863=DIRECTION('center_axis',(0.,0.,-1.));
#864=DIRECTION('ref_axis',(1.,0.,0.));
#865=DIRECTION('',(0.,0.,-1.));
#866=DIRECTION('center_axis',(0.,0.,1.));
#867=DIRECTION('ref_axis',(1.,0.,0.));
#868=DIRECTION('center_axis',(0.,0.,-1.));
#869=DIRECTION('ref_axis',(1.,0.,0.));
#870=DIRECTION('',(0.,0.,-1.));
#871=DIRECTION('center_axis',(1.,0.,0.));
#872=DIRECTION('ref_axis',(0.,1.,0.));
#873=DIRECTION('',(0.,1.,0.));
#874=DIRECTION('center_axis',(0.,0.,1.));
#875=DIRECTION('ref_axis',(1.,0.,0.));
#876=CARTESIAN_POINT('',(0.,0.,0.));
#877=CARTESIAN_POINT('Origin',(-101.000001505017,0.,104.000001549721));
#878=CARTESIAN_POINT('',(-101.000001505017,-105.025017209557,104.000001549721));
#879=CARTESIAN_POINT('',(-100.000001490116,-105.,101.000001505017));
#880=CARTESIAN_POINT('Origin',(-100.000001490116,-125.000001862645,101.000001505017));
#881=CARTESIAN_POINT('',(-101.000001505017,-105.5,104.000001549721));
#882=CARTESIAN_POINT('',(-101.000001505017,0.,104.000001549721));
#883=CARTESIAN_POINT('',(-100.000001490116,-105.5,101.000001505017));
#884=CARTESIAN_POINT('',(-101.000001505017,-105.5,104.000001549721));
#885=CARTESIAN_POINT('',(-100.000001490116,0.,101.000001505017));
#886=CARTESIAN_POINT('Origin',(-100.000001490116,0.,101.000001505017));
#887=CARTESIAN_POINT('',(-99.000001475215,-105.025017209557,104.000001549721));
#888=CARTESIAN_POINT('Origin',(-100.000001490116,-125.000001862645,101.000001505017));
#889=CARTESIAN_POINT('',(-99.000001475215,-105.5,104.000001549721));
#890=CARTESIAN_POINT('',(-99.000001475215,-105.5,104.000001549721));
#891=CARTESIAN_POINT('',(-99.000001475215,0.,104.000001549721));
#892=CARTESIAN_POINT('Origin',(-99.000001475215,0.,104.000001549721));
#893=CARTESIAN_POINT('Origin',(-100.000001490116,-125.000001862645,104.000001549721));
#894=CARTESIAN_POINT('',(-100.000001490116,-105.5,104.000001549721));
#895=CARTESIAN_POINT('Origin',(-100.000001490116,-105.5,102.500001527369));
#896=CARTESIAN_POINT('Origin',(-100.000001490116,-125.000001862645,0.));
#897=CARTESIAN_POINT('',(-90.0000013411045,-107.679493528861,100.));
#898=CARTESIAN_POINT('',(-90.0000013411045,-142.32051019643,100.));
#899=CARTESIAN_POINT('Origin',(-100.000001490116,-125.000001862645,100.));
#900=CARTESIAN_POINT('',(-90.0000013411045,-142.32051019643,105.));
#901=CARTESIAN_POINT('',(-90.0000013411045,-142.32051019643,0.));
#902=CARTESIAN_POINT('',(-90.0000013411045,-107.679493528861,105.));
#903=CARTESIAN_POINT('Origin',(-100.000001490116,-125.000001862645,105.));
#904=CARTESIAN_POINT('',(-90.0000013411045,-107.679493528861,0.));
#905=CARTESIAN_POINT('',(-101.000001505017,-144.974986515734,104.000001549721));
#906=CARTESIAN_POINT('',(-99.000001475215,-144.974986515734,104.000001549721));
#907=CARTESIAN_POINT('Origin',(-100.000001490116,-125.000001862645,104.000001549721));
#908=CARTESIAN_POINT('',(-100.000001490116,-145.,101.000001505017));
#909=CARTESIAN_POINT('Origin',(-100.000001490116,-125.000001862645,101.000001505017));
#910=CARTESIAN_POINT('Origin',(-100.000001490116,-125.000001862645,101.000001505017));
#911=CARTESIAN_POINT('',(-119.974986143205,-124.000001847744,104.000001549721));
#912=CARTESIAN_POINT('',(-119.974986143205,-126.000001877546,104.000001549721));
#913=CARTESIAN_POINT('Origin',(-100.000001490116,-125.000001862645,104.000001549721));
#914=CARTESIAN_POINT('',(-120.,-125.000001862645,101.000001505017));
#915=CARTESIAN_POINT('Origin',(-100.000001490116,-125.000001862645,101.000001505017));
#916=CARTESIAN_POINT('Origin',(-100.000001490116,-125.000001862645,101.000001505017));
#917=CARTESIAN_POINT('Origin',(-100.000001490116,0.,101.000001505017));
#918=CARTESIAN_POINT('',(-99.000001475215,-144.5,104.000001549721));
#919=CARTESIAN_POINT('',(-99.000001475215,0.,104.000001549721));
#920=CARTESIAN_POINT('',(-100.000001490116,-144.5,101.000001505017));
#921=CARTESIAN_POINT('',(-99.7750014867634,-144.5,101.675001515076));
#922=CARTESIAN_POINT('',(-100.000001490116,0.,101.000001505017));
#923=CARTESIAN_POINT('Origin',(-101.000001505017,0.,104.000001549721));
#924=CARTESIAN_POINT('',(-101.000001505017,-144.5,104.000001549721));
#925=CARTESIAN_POINT('',(-100.725001500919,-144.5,103.175001537427));
#926=CARTESIAN_POINT('',(-101.000001505017,0.,104.000001549721));
#927=CARTESIAN_POINT('Origin',(-100.000001490116,-144.5,102.500001527369));
#928=CARTESIAN_POINT('',(-99.5000014826655,-144.5,104.000001549721));
#929=CARTESIAN_POINT('Origin',(-99.000001475215,0.,104.000001549721));
#930=CARTESIAN_POINT('Origin',(0.,-125.000001862645,101.000001505017));
#931=CARTESIAN_POINT('',(-119.5,-126.000001877546,104.000001549721));
#932=CARTESIAN_POINT('',(0.,-126.000001877546,104.000001549721));
#933=CARTESIAN_POINT('',(-119.5,-125.000001862645,101.000001505017));
#934=CARTESIAN_POINT('',(-119.5,-125.225001865998,101.675001515076));
#935=CARTESIAN_POINT('',(0.,-125.000001862645,101.000001505017));
#936=CARTESIAN_POINT('Origin',(0.,-124.000001847744,104.000001549721));
#937=CARTESIAN_POINT('',(-119.5,-124.000001847744,104.000001549721));
#938=CARTESIAN_POINT('',(-119.5,-124.275001851842,103.175001537427));
#939=CARTESIAN_POINT('',(0.,-124.000001847744,104.000001549721));
#940=CARTESIAN_POINT('Origin',(-119.5,-125.000001862645,102.500001527369));
#941=CARTESIAN_POINT('',(-119.5,-125.500001870096,104.000001549721));
#942=CARTESIAN_POINT('Origin',(0.,-126.000001877546,104.000001549721));
#943=CARTESIAN_POINT('Origin',(-110.000001639128,-125.000001862645,0.));
#944=CARTESIAN_POINT('',(-110.000001639128,-125.000001862645,100.));
#945=CARTESIAN_POINT('',(-113.000001683831,-124.000001847744,100.));
#946=CARTESIAN_POINT('',(-107.7500016056,-125.750001873821,100.));
#947=CARTESIAN_POINT('',(-110.000001639128,-125.000001862645,100.5));
#948=CARTESIAN_POINT('',(-110.000001639128,-125.000001862645,0.));
#949=CARTESIAN_POINT('',(-113.000001683831,-124.000001847744,100.5));
#950=CARTESIAN_POINT('',(-113.000001683831,-124.000001847744,100.5));
#951=CARTESIAN_POINT('',(-113.000001683831,-124.000001847744,0.));
#952=CARTESIAN_POINT('Origin',(-113.000001683831,-124.000001847744,0.));
#953=CARTESIAN_POINT('',(-113.000001683831,-126.000001877546,100.));
#954=CARTESIAN_POINT('',(-113.000001683831,-124.500001855195,100.));
#955=CARTESIAN_POINT('',(-113.000001683831,-126.000001877546,100.5));
#956=CARTESIAN_POINT('',(-113.000001683831,-125.000001862645,100.5));
#957=CARTESIAN_POINT('',(-113.000001683831,-126.000001877546,0.));
#958=CARTESIAN_POINT('Origin',(-113.000001683831,-126.000001877546,0.));
#959=CARTESIAN_POINT('',(-109.250001627952,-124.75000185892,100.));
#960=CARTESIAN_POINT('',(-113.000001683831,-126.000001877546,100.5));
#961=CARTESIAN_POINT('Origin',(-111.500001661479,-125.000001862645,100.5));
#962=CARTESIAN_POINT('Origin',(-100.000001490116,-115.000001713634,0.));
#963=CARTESIAN_POINT('',(-100.000001490116,-115.000001713634,100.));
#964=CARTESIAN_POINT('',(-99.000001475215,-112.00000166893,100.));
#965=CARTESIAN_POINT('',(-101.750001516193,-120.250001791865,100.));
#966=CARTESIAN_POINT('',(-100.000001490116,-115.000001713634,100.5));
#967=CARTESIAN_POINT('',(-100.000001490116,-115.000001713634,0.));
#968=CARTESIAN_POINT('',(-99.000001475215,-112.00000166893,100.5));
#969=CARTESIAN_POINT('',(-99.000001475215,-112.00000166893,100.5));
#970=CARTESIAN_POINT('',(-99.000001475215,-112.00000166893,0.));
#971=CARTESIAN_POINT('Origin',(-99.000001475215,-112.00000166893,0.));
#972=CARTESIAN_POINT('',(-101.000001505017,-112.00000166893,100.));
#973=CARTESIAN_POINT('',(-102.000001519918,-112.00000166893,100.));
#974=CARTESIAN_POINT('',(-101.000001505017,-112.00000166893,100.5));
#975=CARTESIAN_POINT('',(-100.000001490116,-112.00000166893,100.5));
#976=CARTESIAN_POINT('',(-101.000001505017,-112.00000166893,0.));
#977=CARTESIAN_POINT('Origin',(-101.000001505017,-112.00000166893,0.));
#978=CARTESIAN_POINT('',(-99.2500014789402,-117.250001747161,100.));
#979=CARTESIAN_POINT('',(-101.000001505017,-112.00000166893,100.5));
#980=CARTESIAN_POINT('Origin',(-100.000001490116,-113.500001691282,100.5));
#981=CARTESIAN_POINT('Origin',(-100.000001490116,-135.000002011657,0.));
#982=CARTESIAN_POINT('',(-100.000001490116,-135.000002011657,100.));
#983=CARTESIAN_POINT('',(-101.000001505017,-138.00000205636,100.));
#984=CARTESIAN_POINT('',(-98.7500014714897,-131.250001955777,100.));
#985=CARTESIAN_POINT('',(-100.000001490116,-135.000002011657,100.5));
#986=CARTESIAN_POINT('',(-100.000001490116,-135.000002011657,0.));
#987=CARTESIAN_POINT('',(-101.000001505017,-138.00000205636,100.5));
#988=CARTESIAN_POINT('',(-101.000001505017,-138.00000205636,100.5));
#989=CARTESIAN_POINT('',(-101.000001505017,-138.00000205636,0.));
#990=CARTESIAN_POINT('Origin',(-101.000001505017,-138.00000205636,0.));
#991=CARTESIAN_POINT('',(-99.000001475215,-138.00000205636,100.));
#992=CARTESIAN_POINT('',(-103.00000153482,-138.00000205636,100.));
#993=CARTESIAN_POINT('',(-99.000001475215,-138.00000205636,100.5));
#994=CARTESIAN_POINT('',(-100.000001490116,-138.00000205636,100.5));
#995=CARTESIAN_POINT('',(-99.000001475215,-138.00000205636,0.));
#996=CARTESIAN_POINT('Origin',(-99.000001475215,-138.00000205636,0.));
#997=CARTESIAN_POINT('',(-101.250001508743,-131.250001955777,100.));
#998=CARTESIAN_POINT('',(-99.000001475215,-138.00000205636,100.5));
#999=CARTESIAN_POINT('Origin',(-100.000001490116,-136.500002034009,100.5));
#1000=CARTESIAN_POINT('Origin',(-100.000001490116,-125.000001862645,0.));
#1001=CARTESIAN_POINT('',(-105.599997639658,-125.000001862645,130.));
#1002=CARTESIAN_POINT('Origin',(-100.000001490116,-125.000001862645,130.));
#1003=CARTESIAN_POINT('',(-105.599997639658,-125.000001862645,105.));
#1004=CARTESIAN_POINT('',(-105.599997639658,-125.000001862645,0.));
#1005=CARTESIAN_POINT('Origin',(-100.000001490116,-125.000001862645,105.));
#1006=CARTESIAN_POINT('Origin',(-100.000001490116,-125.000001862645,0.));
#1007=CARTESIAN_POINT('',(-105.000001564622,-125.000001862645,130.));
#1008=CARTESIAN_POINT('Origin',(-100.000001490116,-125.000001862645,130.));
#1009=CARTESIAN_POINT('',(-105.000001564622,-125.000001862645,100.));
#1010=CARTESIAN_POINT('',(-105.000001564622,-125.000001862645,0.));
#1011=CARTESIAN_POINT('Origin',(-100.000001490116,-125.000001862645,100.));
#1012=CARTESIAN_POINT('Origin',(-100.000001490116,-125.000001862645,130.));
#1013=CARTESIAN_POINT('Origin',(-105.000001564622,-125.000001862645,100.));
#1014=CARTESIAN_POINT('',(-90.0000013411045,-114.607696862374,100.));
#1015=CARTESIAN_POINT('',(-90.0000013411045,-119.80384936251,100.));
#1016=CARTESIAN_POINT('',(-90.0000013411045,-135.392306862916,100.));
#1017=CARTESIAN_POINT('Origin',(-64.0000009536743,-125.000001862645,100.));
#1018=CARTESIAN_POINT('',(-90.0000013411045,-133.660256029537,100.));
#1019=CARTESIAN_POINT('',(-101.050001490116,-143.000002130866,100.));
#1020=CARTESIAN_POINT('Origin',(-100.000001490116,-143.000002130866,100.));
#1021=CARTESIAN_POINT('',(-101.050001490116,-107.000001594424,100.));
#1022=CARTESIAN_POINT('Origin',(-100.000001490116,-107.000001594424,100.));
#1023=CARTESIAN_POINT('',(-119.050001758337,-125.000001862645,100.));
#1024=CARTESIAN_POINT('Origin',(-118.000001758337,-125.000001862645,100.));
#1025=CARTESIAN_POINT('Origin',(-64.0000009536743,-125.000001862645,0.));
#1026=CARTESIAN_POINT('',(-90.0000013411045,-114.607696862374,105.));
#1027=CARTESIAN_POINT('',(-90.0000013411045,-114.607696862374,0.));
#1028=CARTESIAN_POINT('',(-90.0000013411045,-135.392306862916,105.));
#1029=CARTESIAN_POINT('Origin',(-64.0000009536743,-125.000001862645,105.));
#1030=CARTESIAN_POINT('',(-90.0000013411045,-135.392306862916,0.));
#1031=CARTESIAN_POINT('Origin',(-90.0000013411045,-114.607696862374,0.));
#1032=CARTESIAN_POINT('',(-90.0000013411045,-107.679493528861,105.));
#1033=CARTESIAN_POINT('Origin',(-118.000001758337,-125.000001862645,0.));
#1034=CARTESIAN_POINT('',(-119.050001758337,-125.000001862645,105.));
#1035=CARTESIAN_POINT('Origin',(-118.000001758337,-125.000001862645,105.));
#1036=CARTESIAN_POINT('',(-119.050001758337,-125.000001862645,0.));
#1037=CARTESIAN_POINT('Origin',(-100.000001490116,-107.000001594424,0.));
#1038=CARTESIAN_POINT('',(-101.050001490116,-107.000001594424,105.));
#1039=CARTESIAN_POINT('Origin',(-100.000001490116,-107.000001594424,105.));
#1040=CARTESIAN_POINT('',(-101.050001490116,-107.000001594424,0.));
#1041=CARTESIAN_POINT('Origin',(-100.000001490116,-143.000002130866,0.));
#1042=CARTESIAN_POINT('',(-101.050001490116,-143.000002130866,105.));
#1043=CARTESIAN_POINT('Origin',(-100.000001490116,-143.000002130866,105.));
#1044=CARTESIAN_POINT('',(-101.050001490116,-143.000002130866,0.));
#1045=CARTESIAN_POINT('Origin',(-90.0000013411045,-142.32051019643,0.));
#1046=CARTESIAN_POINT('',(-90.0000013411045,-135.392306862916,105.));
#1047=CARTESIAN_POINT('Origin',(-105.000001564622,-125.000001862645,105.));
#1048=UNCERTAINTY_MEASURE_WITH_UNIT(LENGTH_MEASURE(0.01),#1052,
'DISTANCE_ACCURACY_VALUE',
'Maximum model space distance between geometric entities at asserted c
onnectivities');
#1049=UNCERTAINTY_MEASURE_WITH_UNIT(LENGTH_MEASURE(0.01),#1052,
'DISTANCE_ACCURACY_VALUE',
'Maximum model space distance between geometric entities at asserted c
onnectivities');
#1050=(
GEOMETRIC_REPRESENTATION_CONTEXT(3)
GLOBAL_UNCERTAINTY_ASSIGNED_CONTEXT((#1048))
GLOBAL_UNIT_ASSIGNED_CONTEXT((#1052,#1054,#1055))
REPRESENTATION_CONTEXT('','3D')
);
#1051=(
GEOMETRIC_REPRESENTATION_CONTEXT(3)
GLOBAL_UNCERTAINTY_ASSIGNED_CONTEXT((#1049))
GLOBAL_UNIT_ASSIGNED_CONTEXT((#1052,#1054,#1055))
REPRESENTATION_CONTEXT('','3D')
);
#1052=(
LENGTH_UNIT()
NAMED_UNIT(*)
SI_UNIT(.MILLI.,.METRE.)
);
#1053=(
LENGTH_UNIT()
NAMED_UNIT(*)
SI_UNIT($,.METRE.)
);
#1054=(
NAMED_UNIT(*)
PLANE_ANGLE_UNIT()
SI_UNIT($,.RADIAN.)
);
#1055=(
NAMED_UNIT(*)
SI_UNIT($,.STERADIAN.)
SOLID_ANGLE_UNIT()
);
#1056=SHAPE_DEFINITION_REPRESENTATION(#1057,#1058);
#1057=PRODUCT_DEFINITION_SHAPE('',$,#1060);
#1058=SHAPE_REPRESENTATION('',(#638),#1050);
#1059=PRODUCT_DEFINITION_CONTEXT('part definition',#1064,'design');
#1060=PRODUCT_DEFINITION('2025-08-04-19-38-34-057','link2_4',#1061,#1059);
#1061=PRODUCT_DEFINITION_FORMATION('',$,#1066);
#1062=PRODUCT_RELATED_PRODUCT_CATEGORY('link2_4','link2_4',(#1066));
#1063=APPLICATION_PROTOCOL_DEFINITION('international standard',
'automotive_design',2009,#1064);
#1064=APPLICATION_CONTEXT(
'Core Data for Automotive Mechanical Design Process');
#1065=PRODUCT_CONTEXT('part definition',#1064,'mechanical');
#1066=PRODUCT('2025-08-04-19-38-34-057','link2_4',$,(#1065));
#1067=PRESENTATION_STYLE_ASSIGNMENT((#1069));
#1068=PRESENTATION_STYLE_ASSIGNMENT((#1070));
#1069=SURFACE_STYLE_USAGE(.BOTH.,#1071);
#1070=SURFACE_STYLE_USAGE(.BOTH.,#1072);
#1071=SURFACE_SIDE_STYLE('',(#1073));
#1072=SURFACE_SIDE_STYLE('',(#1074));
#1073=SURFACE_STYLE_FILL_AREA(#1075);
#1074=SURFACE_STYLE_FILL_AREA(#1076);
#1075=FILL_AREA_STYLE('Steel - Satin',(#1077));
#1076=FILL_AREA_STYLE('Sunflower yellow PLA',(#1078));
#1077=FILL_AREA_STYLE_COLOUR('Steel - Satin',#1079);
#1078=FILL_AREA_STYLE_COLOUR('Sunflower yellow PLA',#1080);
#1079=COLOUR_RGB('Steel - Satin',0.627450980392157,0.627450980392157,0.627450980392157);
#1080=COLOUR_RGB('Sunflower yellow PLA',1.,0.733333333333333,0.);
ENDSEC;
END-ISO-10303-21;
