ISO-10303-21;
HEADER;
/* Generated by software containing ST-Developer
 * from STEP Tools, Inc. (www.steptools.com) 
 */

FILE_DESCRIPTION(
/* description */ (''),
/* implementation_level */ '2;1');

FILE_NAME(
/* name */ 'link2_0.step',
/* time_stamp */ '2025-08-02T19:04:04+01:00',
/* author */ (''),
/* organization */ (''),
/* preprocessor_version */ 'ST-DEVELOPER v20.1',
/* originating_system */ 'Autodesk Translation Framework v14.10.0.0',
/* authorisation */ '');

FILE_SCHEMA (('AUTOMOTIVE_DESIGN { 1 0 10303 214 3 1 1 }'));
ENDSEC;

DATA;
#10=MECHANICAL_DESIGN_GEOMETRIC_PRESENTATION_REPRESENTATION('',(#13),#479);
#11=SHAPE_REPRESENTATION_RELATIONSHIP('SRR','None',#486,#12);
#12=ADVANCED_BREP_SHAPE_REPRESENTATION('',(#14),#478);
#13=STYLED_ITEM('',(#496),#14);
#14=MANIFOLD_SOLID_BREP('Body1',#275);
#15=FACE_BOUND('',#48,.T.);
#16=FACE_BOUND('',#49,.T.);
#17=FACE_BOUND('',#50,.T.);
#18=FACE_BOUND('',#51,.T.);
#19=FACE_BOUND('',#62,.T.);
#20=FACE_BOUND('',#63,.T.);
#21=FACE_BOUND('',#64,.T.);
#22=FACE_BOUND('',#65,.T.);
#23=CYLINDRICAL_SURFACE('',#294,45.);
#24=CYLINDRICAL_SURFACE('',#305,17.0000002533198);
#25=CYLINDRICAL_SURFACE('',#307,1.05);
#26=CYLINDRICAL_SURFACE('',#309,1.05);
#27=CYLINDRICAL_SURFACE('',#311,13.0000001937152);
#28=CYLINDRICAL_SURFACE('',#313,1.05);
#29=CYLINDRICAL_SURFACE('',#315,50.);
#30=FACE_OUTER_BOUND('',#44,.T.);
#31=FACE_OUTER_BOUND('',#45,.T.);
#32=FACE_OUTER_BOUND('',#46,.T.);
#33=FACE_OUTER_BOUND('',#47,.T.);
#34=FACE_OUTER_BOUND('',#52,.T.);
#35=FACE_OUTER_BOUND('',#53,.T.);
#36=FACE_OUTER_BOUND('',#54,.T.);
#37=FACE_OUTER_BOUND('',#55,.T.);
#38=FACE_OUTER_BOUND('',#56,.T.);
#39=FACE_OUTER_BOUND('',#57,.T.);
#40=FACE_OUTER_BOUND('',#58,.T.);
#41=FACE_OUTER_BOUND('',#59,.T.);
#42=FACE_OUTER_BOUND('',#60,.T.);
#43=FACE_OUTER_BOUND('',#61,.T.);
#44=EDGE_LOOP('',(#182,#183,#184,#185,#186));
#45=EDGE_LOOP('',(#187,#188,#189,#190));
#46=EDGE_LOOP('',(#191,#192,#193,#194));
#47=EDGE_LOOP('',(#195,#196,#197,#198));
#48=EDGE_LOOP('',(#199));
#49=EDGE_LOOP('',(#200));
#50=EDGE_LOOP('',(#201));
#51=EDGE_LOOP('',(#202));
#52=EDGE_LOOP('',(#203,#204,#205,#206));
#53=EDGE_LOOP('',(#207,#208,#209,#210));
#54=EDGE_LOOP('',(#211,#212,#213,#214));
#55=EDGE_LOOP('',(#215,#216,#217,#218));
#56=EDGE_LOOP('',(#219,#220,#221,#222));
#57=EDGE_LOOP('',(#223,#224,#225,#226,#227,#228,#229,#230));
#58=EDGE_LOOP('',(#231,#232,#233,#234));
#59=EDGE_LOOP('',(#235,#236,#237,#238));
#60=EDGE_LOOP('',(#239,#240,#241,#242));
#61=EDGE_LOOP('',(#243,#244,#245,#246));
#62=EDGE_LOOP('',(#247));
#63=EDGE_LOOP('',(#248,#249,#250,#251));
#64=EDGE_LOOP('',(#252));
#65=EDGE_LOOP('',(#253));
#66=CIRCLE('',#290,45.);
#67=CIRCLE('',#291,13.0000001937152);
#68=CIRCLE('',#292,13.0000001937152);
#69=CIRCLE('',#295,45.);
#70=CIRCLE('',#297,17.0000002533198);
#71=CIRCLE('',#298,50.);
#72=CIRCLE('',#299,1.05);
#73=CIRCLE('',#300,13.0000001937152);
#74=CIRCLE('',#301,1.05);
#75=CIRCLE('',#302,1.05);
#76=CIRCLE('',#306,17.0000002533198);
#77=CIRCLE('',#308,1.05);
#78=CIRCLE('',#310,1.05);
#79=CIRCLE('',#312,13.0000001937152);
#80=CIRCLE('',#314,1.05);
#81=CIRCLE('',#316,50.);
#82=LINE('',#405,#102);
#83=LINE('',#409,#103);
#84=LINE('',#415,#104);
#85=LINE('',#417,#105);
#86=LINE('',#418,#106);
#87=LINE('',#421,#107);
#88=LINE('',#428,#108);
#89=LINE('',#431,#109);
#90=LINE('',#442,#110);
#91=LINE('',#443,#111);
#92=LINE('',#446,#112);
#93=LINE('',#448,#113);
#94=LINE('',#449,#114);
#95=LINE('',#452,#115);
#96=LINE('',#457,#116);
#97=LINE('',#461,#117);
#98=LINE('',#464,#118);
#99=LINE('',#468,#119);
#100=LINE('',#472,#120);
#101=LINE('',#474,#121);
#102=VECTOR('',#323,10.);
#103=VECTOR('',#326,10.);
#104=VECTOR('',#333,10.);
#105=VECTOR('',#334,10.);
#106=VECTOR('',#335,10.);
#107=VECTOR('',#338,10.);
#108=VECTOR('',#345,10.);
#109=VECTOR('',#348,10.);
#110=VECTOR('',#359,10.);
#111=VECTOR('',#360,10.);
#112=VECTOR('',#363,10.);
#113=VECTOR('',#364,10.);
#114=VECTOR('',#365,10.);
#115=VECTOR('',#368,10.);
#116=VECTOR('',#375,1.05);
#117=VECTOR('',#380,1.05);
#118=VECTOR('',#385,13.0000001937152);
#119=VECTOR('',#390,1.05);
#120=VECTOR('',#395,10.);
#121=VECTOR('',#398,10.);
#122=VERTEX_POINT('',#403);
#123=VERTEX_POINT('',#404);
#124=VERTEX_POINT('',#406);
#125=VERTEX_POINT('',#408);
#126=VERTEX_POINT('',#410);
#127=VERTEX_POINT('',#414);
#128=VERTEX_POINT('',#416);
#129=VERTEX_POINT('',#420);
#130=VERTEX_POINT('',#424);
#131=VERTEX_POINT('',#425);
#132=VERTEX_POINT('',#427);
#133=VERTEX_POINT('',#429);
#134=VERTEX_POINT('',#432);
#135=VERTEX_POINT('',#434);
#136=VERTEX_POINT('',#436);
#137=VERTEX_POINT('',#438);
#138=VERTEX_POINT('',#441);
#139=VERTEX_POINT('',#445);
#140=VERTEX_POINT('',#447);
#141=VERTEX_POINT('',#451);
#142=VERTEX_POINT('',#455);
#143=VERTEX_POINT('',#459);
#144=VERTEX_POINT('',#466);
#145=VERTEX_POINT('',#470);
#146=EDGE_CURVE('',#122,#123,#82,.T.);
#147=EDGE_CURVE('',#124,#122,#66,.T.);
#148=EDGE_CURVE('',#125,#124,#83,.T.);
#149=EDGE_CURVE('',#125,#126,#67,.T.);
#150=EDGE_CURVE('',#126,#123,#68,.T.);
#151=EDGE_CURVE('',#124,#127,#84,.T.);
#152=EDGE_CURVE('',#128,#127,#85,.T.);
#153=EDGE_CURVE('',#125,#128,#86,.T.);
#154=EDGE_CURVE('',#122,#129,#87,.T.);
#155=EDGE_CURVE('',#127,#129,#69,.T.);
#156=EDGE_CURVE('',#130,#131,#70,.T.);
#157=EDGE_CURVE('',#132,#130,#88,.T.);
#158=EDGE_CURVE('',#133,#132,#71,.T.);
#159=EDGE_CURVE('',#131,#133,#89,.T.);
#160=EDGE_CURVE('',#134,#134,#72,.T.);
#161=EDGE_CURVE('',#135,#135,#73,.T.);
#162=EDGE_CURVE('',#136,#136,#74,.T.);
#163=EDGE_CURVE('',#137,#137,#75,.T.);
#164=EDGE_CURVE('',#123,#138,#90,.T.);
#165=EDGE_CURVE('',#129,#138,#91,.T.);
#166=EDGE_CURVE('',#130,#139,#92,.T.);
#167=EDGE_CURVE('',#140,#139,#93,.T.);
#168=EDGE_CURVE('',#132,#140,#94,.T.);
#169=EDGE_CURVE('',#131,#141,#95,.T.);
#170=EDGE_CURVE('',#139,#141,#76,.T.);
#171=EDGE_CURVE('',#142,#142,#77,.T.);
#172=EDGE_CURVE('',#142,#137,#96,.T.);
#173=EDGE_CURVE('',#143,#143,#78,.T.);
#174=EDGE_CURVE('',#143,#136,#97,.T.);
#175=EDGE_CURVE('',#138,#128,#79,.T.);
#176=EDGE_CURVE('',#126,#135,#98,.T.);
#177=EDGE_CURVE('',#144,#144,#80,.T.);
#178=EDGE_CURVE('',#144,#134,#99,.T.);
#179=EDGE_CURVE('',#145,#140,#81,.T.);
#180=EDGE_CURVE('',#133,#145,#100,.T.);
#181=EDGE_CURVE('',#141,#145,#101,.T.);
#182=ORIENTED_EDGE('',*,*,#146,.F.);
#183=ORIENTED_EDGE('',*,*,#147,.F.);
#184=ORIENTED_EDGE('',*,*,#148,.F.);
#185=ORIENTED_EDGE('',*,*,#149,.T.);
#186=ORIENTED_EDGE('',*,*,#150,.T.);
#187=ORIENTED_EDGE('',*,*,#148,.T.);
#188=ORIENTED_EDGE('',*,*,#151,.T.);
#189=ORIENTED_EDGE('',*,*,#152,.F.);
#190=ORIENTED_EDGE('',*,*,#153,.F.);
#191=ORIENTED_EDGE('',*,*,#147,.T.);
#192=ORIENTED_EDGE('',*,*,#154,.T.);
#193=ORIENTED_EDGE('',*,*,#155,.F.);
#194=ORIENTED_EDGE('',*,*,#151,.F.);
#195=ORIENTED_EDGE('',*,*,#156,.F.);
#196=ORIENTED_EDGE('',*,*,#157,.F.);
#197=ORIENTED_EDGE('',*,*,#158,.F.);
#198=ORIENTED_EDGE('',*,*,#159,.F.);
#199=ORIENTED_EDGE('',*,*,#160,.F.);
#200=ORIENTED_EDGE('',*,*,#161,.F.);
#201=ORIENTED_EDGE('',*,*,#162,.F.);
#202=ORIENTED_EDGE('',*,*,#163,.F.);
#203=ORIENTED_EDGE('',*,*,#146,.T.);
#204=ORIENTED_EDGE('',*,*,#164,.T.);
#205=ORIENTED_EDGE('',*,*,#165,.F.);
#206=ORIENTED_EDGE('',*,*,#154,.F.);
#207=ORIENTED_EDGE('',*,*,#157,.T.);
#208=ORIENTED_EDGE('',*,*,#166,.T.);
#209=ORIENTED_EDGE('',*,*,#167,.F.);
#210=ORIENTED_EDGE('',*,*,#168,.F.);
#211=ORIENTED_EDGE('',*,*,#156,.T.);
#212=ORIENTED_EDGE('',*,*,#169,.T.);
#213=ORIENTED_EDGE('',*,*,#170,.F.);
#214=ORIENTED_EDGE('',*,*,#166,.F.);
#215=ORIENTED_EDGE('',*,*,#171,.F.);
#216=ORIENTED_EDGE('',*,*,#172,.T.);
#217=ORIENTED_EDGE('',*,*,#163,.T.);
#218=ORIENTED_EDGE('',*,*,#172,.F.);
#219=ORIENTED_EDGE('',*,*,#173,.F.);
#220=ORIENTED_EDGE('',*,*,#174,.T.);
#221=ORIENTED_EDGE('',*,*,#162,.T.);
#222=ORIENTED_EDGE('',*,*,#174,.F.);
#223=ORIENTED_EDGE('',*,*,#149,.F.);
#224=ORIENTED_EDGE('',*,*,#153,.T.);
#225=ORIENTED_EDGE('',*,*,#175,.F.);
#226=ORIENTED_EDGE('',*,*,#164,.F.);
#227=ORIENTED_EDGE('',*,*,#150,.F.);
#228=ORIENTED_EDGE('',*,*,#176,.T.);
#229=ORIENTED_EDGE('',*,*,#161,.T.);
#230=ORIENTED_EDGE('',*,*,#176,.F.);
#231=ORIENTED_EDGE('',*,*,#177,.F.);
#232=ORIENTED_EDGE('',*,*,#178,.T.);
#233=ORIENTED_EDGE('',*,*,#160,.T.);
#234=ORIENTED_EDGE('',*,*,#178,.F.);
#235=ORIENTED_EDGE('',*,*,#158,.T.);
#236=ORIENTED_EDGE('',*,*,#168,.T.);
#237=ORIENTED_EDGE('',*,*,#179,.F.);
#238=ORIENTED_EDGE('',*,*,#180,.F.);
#239=ORIENTED_EDGE('',*,*,#159,.T.);
#240=ORIENTED_EDGE('',*,*,#180,.T.);
#241=ORIENTED_EDGE('',*,*,#181,.F.);
#242=ORIENTED_EDGE('',*,*,#169,.F.);
#243=ORIENTED_EDGE('',*,*,#170,.T.);
#244=ORIENTED_EDGE('',*,*,#181,.T.);
#245=ORIENTED_EDGE('',*,*,#179,.T.);
#246=ORIENTED_EDGE('',*,*,#167,.T.);
#247=ORIENTED_EDGE('',*,*,#177,.T.);
#248=ORIENTED_EDGE('',*,*,#165,.T.);
#249=ORIENTED_EDGE('',*,*,#175,.T.);
#250=ORIENTED_EDGE('',*,*,#152,.T.);
#251=ORIENTED_EDGE('',*,*,#155,.T.);
#252=ORIENTED_EDGE('',*,*,#173,.T.);
#253=ORIENTED_EDGE('',*,*,#171,.T.);
#254=PLANE('',#289);
#255=PLANE('',#293);
#256=PLANE('',#296);
#257=PLANE('',#303);
#258=PLANE('',#304);
#259=PLANE('',#317);
#260=PLANE('',#318);
#261=ADVANCED_FACE('',(#30),#254,.T.);
#262=ADVANCED_FACE('',(#31),#255,.T.);
#263=ADVANCED_FACE('',(#32),#23,.F.);
#264=ADVANCED_FACE('',(#33,#15,#16,#17,#18),#256,.F.);
#265=ADVANCED_FACE('',(#34),#257,.T.);
#266=ADVANCED_FACE('',(#35),#258,.T.);
#267=ADVANCED_FACE('',(#36),#24,.T.);
#268=ADVANCED_FACE('',(#37),#25,.F.);
#269=ADVANCED_FACE('',(#38),#26,.F.);
#270=ADVANCED_FACE('',(#39),#27,.F.);
#271=ADVANCED_FACE('',(#40),#28,.F.);
#272=ADVANCED_FACE('',(#41),#29,.T.);
#273=ADVANCED_FACE('',(#42),#259,.T.);
#274=ADVANCED_FACE('',(#43,#19,#20,#21,#22),#260,.T.);
#275=CLOSED_SHELL('',(#261,#262,#263,#264,#265,#266,#267,#268,#269,#270,
#271,#272,#273,#274));
#276=DERIVED_UNIT_ELEMENT(#278,1.);
#277=DERIVED_UNIT_ELEMENT(#481,-3.);
#278=(
MASS_UNIT()
NAMED_UNIT(*)
SI_UNIT(.KILO.,.GRAM.)
);
#279=DERIVED_UNIT((#276,#277));
#280=MEASURE_REPRESENTATION_ITEM('density measure',
POSITIVE_RATIO_MEASURE(7850.),#279);
#281=PROPERTY_DEFINITION_REPRESENTATION(#286,#283);
#282=PROPERTY_DEFINITION_REPRESENTATION(#287,#284);
#283=REPRESENTATION('material name',(#285),#478);
#284=REPRESENTATION('density',(#280),#478);
#285=DESCRIPTIVE_REPRESENTATION_ITEM('Steel','Steel');
#286=PROPERTY_DEFINITION('material property','material name',#488);
#287=PROPERTY_DEFINITION('material property','density of part',#488);
#288=AXIS2_PLACEMENT_3D('',#401,#319,#320);
#289=AXIS2_PLACEMENT_3D('',#402,#321,#322);
#290=AXIS2_PLACEMENT_3D('',#407,#324,#325);
#291=AXIS2_PLACEMENT_3D('',#411,#327,#328);
#292=AXIS2_PLACEMENT_3D('',#412,#329,#330);
#293=AXIS2_PLACEMENT_3D('',#413,#331,#332);
#294=AXIS2_PLACEMENT_3D('',#419,#336,#337);
#295=AXIS2_PLACEMENT_3D('',#422,#339,#340);
#296=AXIS2_PLACEMENT_3D('',#423,#341,#342);
#297=AXIS2_PLACEMENT_3D('',#426,#343,#344);
#298=AXIS2_PLACEMENT_3D('',#430,#346,#347);
#299=AXIS2_PLACEMENT_3D('',#433,#349,#350);
#300=AXIS2_PLACEMENT_3D('',#435,#351,#352);
#301=AXIS2_PLACEMENT_3D('',#437,#353,#354);
#302=AXIS2_PLACEMENT_3D('',#439,#355,#356);
#303=AXIS2_PLACEMENT_3D('',#440,#357,#358);
#304=AXIS2_PLACEMENT_3D('',#444,#361,#362);
#305=AXIS2_PLACEMENT_3D('',#450,#366,#367);
#306=AXIS2_PLACEMENT_3D('',#453,#369,#370);
#307=AXIS2_PLACEMENT_3D('',#454,#371,#372);
#308=AXIS2_PLACEMENT_3D('',#456,#373,#374);
#309=AXIS2_PLACEMENT_3D('',#458,#376,#377);
#310=AXIS2_PLACEMENT_3D('',#460,#378,#379);
#311=AXIS2_PLACEMENT_3D('',#462,#381,#382);
#312=AXIS2_PLACEMENT_3D('',#463,#383,#384);
#313=AXIS2_PLACEMENT_3D('',#465,#386,#387);
#314=AXIS2_PLACEMENT_3D('',#467,#388,#389);
#315=AXIS2_PLACEMENT_3D('',#469,#391,#392);
#316=AXIS2_PLACEMENT_3D('',#471,#393,#394);
#317=AXIS2_PLACEMENT_3D('',#473,#396,#397);
#318=AXIS2_PLACEMENT_3D('',#475,#399,#400);
#319=DIRECTION('axis',(0.,0.,1.));
#320=DIRECTION('refdir',(1.,0.,0.));
#321=DIRECTION('center_axis',(0.,0.,1.));
#322=DIRECTION('ref_axis',(1.,0.,0.));
#323=DIRECTION('',(1.,0.,0.));
#324=DIRECTION('center_axis',(0.,0.,-1.));
#325=DIRECTION('ref_axis',(-0.957362643570752,0.288888851801554,0.));
#326=DIRECTION('',(-1.,0.,0.));
#327=DIRECTION('center_axis',(0.,0.,-1.));
#328=DIRECTION('ref_axis',(1.,0.,0.));
#329=DIRECTION('center_axis',(0.,0.,-1.));
#330=DIRECTION('ref_axis',(1.,0.,0.));
#331=DIRECTION('center_axis',(0.,1.,0.));
#332=DIRECTION('ref_axis',(-1.,0.,0.));
#333=DIRECTION('',(0.,0.,1.));
#334=DIRECTION('',(-1.,0.,0.));
#335=DIRECTION('',(0.,0.,1.));
#336=DIRECTION('center_axis',(0.,0.,1.));
#337=DIRECTION('ref_axis',(-0.957362643570752,0.288888851801554,0.));
#338=DIRECTION('',(0.,0.,1.));
#339=DIRECTION('center_axis',(0.,0.,-1.));
#340=DIRECTION('ref_axis',(-0.957362643570752,0.288888851801554,0.));
#341=DIRECTION('center_axis',(0.,0.,1.));
#342=DIRECTION('ref_axis',(1.,0.,0.));
#343=DIRECTION('center_axis',(0.,0.,1.));
#344=DIRECTION('ref_axis',(0.,-1.,0.));
#345=DIRECTION('',(0.999999999999999,3.38662728439331E-8,0.));
#346=DIRECTION('center_axis',(0.,0.,1.));
#347=DIRECTION('ref_axis',(-0.940425447277361,0.339999967813492,0.));
#348=DIRECTION('',(-1.,0.,0.));
#349=DIRECTION('center_axis',(0.,0.,-1.));
#350=DIRECTION('ref_axis',(1.,0.,0.));
#351=DIRECTION('center_axis',(0.,0.,-1.));
#352=DIRECTION('ref_axis',(1.,0.,0.));
#353=DIRECTION('center_axis',(0.,0.,-1.));
#354=DIRECTION('ref_axis',(1.,0.,0.));
#355=DIRECTION('center_axis',(0.,0.,-1.));
#356=DIRECTION('ref_axis',(1.,0.,0.));
#357=DIRECTION('center_axis',(0.,-1.,0.));
#358=DIRECTION('ref_axis',(1.,0.,0.));
#359=DIRECTION('',(0.,0.,1.));
#360=DIRECTION('',(1.,0.,0.));
#361=DIRECTION('center_axis',(3.38662728439331E-8,-0.999999999999999,0.));
#362=DIRECTION('ref_axis',(0.999999999999999,3.38662728439331E-8,0.));
#363=DIRECTION('',(0.,0.,1.));
#364=DIRECTION('',(0.999999999999999,3.38662728439331E-8,0.));
#365=DIRECTION('',(0.,0.,1.));
#366=DIRECTION('center_axis',(0.,0.,1.));
#367=DIRECTION('ref_axis',(0.999999972608158,0.000234059144663693,0.));
#368=DIRECTION('',(0.,0.,1.));
#369=DIRECTION('center_axis',(0.,0.,1.));
#370=DIRECTION('ref_axis',(0.,-1.,0.));
#371=DIRECTION('center_axis',(0.,0.,1.));
#372=DIRECTION('ref_axis',(1.,0.,0.));
#373=DIRECTION('center_axis',(0.,0.,-1.));
#374=DIRECTION('ref_axis',(1.,0.,0.));
#375=DIRECTION('',(0.,0.,-1.));
#376=DIRECTION('center_axis',(0.,0.,1.));
#377=DIRECTION('ref_axis',(1.,0.,0.));
#378=DIRECTION('center_axis',(0.,0.,-1.));
#379=DIRECTION('ref_axis',(1.,0.,0.));
#380=DIRECTION('',(0.,0.,-1.));
#381=DIRECTION('center_axis',(0.,0.,1.));
#382=DIRECTION('ref_axis',(1.,0.,0.));
#383=DIRECTION('center_axis',(0.,0.,-1.));
#384=DIRECTION('ref_axis',(1.,0.,0.));
#385=DIRECTION('',(0.,0.,-1.));
#386=DIRECTION('center_axis',(0.,0.,1.));
#387=DIRECTION('ref_axis',(1.,0.,0.));
#388=DIRECTION('center_axis',(0.,0.,-1.));
#389=DIRECTION('ref_axis',(1.,0.,0.));
#390=DIRECTION('',(0.,0.,-1.));
#391=DIRECTION('center_axis',(0.,0.,1.));
#392=DIRECTION('ref_axis',(-0.940425447277361,0.339999967813492,0.));
#393=DIRECTION('center_axis',(0.,0.,1.));
#394=DIRECTION('ref_axis',(-0.940425447277361,0.339999967813492,0.));
#395=DIRECTION('',(0.,0.,1.));
#396=DIRECTION('center_axis',(0.,1.,0.));
#397=DIRECTION('ref_axis',(-1.,0.,0.));
#398=DIRECTION('',(-1.,0.,0.));
#399=DIRECTION('center_axis',(0.,0.,1.));
#400=DIRECTION('ref_axis',(1.,0.,0.));
#401=CARTESIAN_POINT('',(0.,0.,0.));
#402=CARTESIAN_POINT('Origin',(-22.5,-125.000000931323,40.));
#403=CARTESIAN_POINT('',(-43.0813189606839,-112.00000166893,40.));
#404=CARTESIAN_POINT('',(0.,-112.00000166893,40.));
#405=CARTESIAN_POINT('',(-32.7906594803419,-112.00000166893,40.));
#406=CARTESIAN_POINT('',(-43.0813178365592,-138.00000205636,40.));
#407=CARTESIAN_POINT('Origin',(0.,-125.,40.));
#408=CARTESIAN_POINT('',(0.,-138.00000205636,40.));
#409=CARTESIAN_POINT('',(-11.25,-138.00000205636,40.));
#410=CARTESIAN_POINT('',(-13.0000001937152,-125.,40.));
#411=CARTESIAN_POINT('Origin',(0.,-125.,40.));
#412=CARTESIAN_POINT('Origin',(0.,-125.,40.));
#413=CARTESIAN_POINT('Origin',(0.,-138.00000205636,0.));
#414=CARTESIAN_POINT('',(-43.0813178365592,-138.00000205636,42.));
#415=CARTESIAN_POINT('',(-43.0813178365592,-138.00000205636,0.));
#416=CARTESIAN_POINT('',(0.,-138.00000205636,42.));
#417=CARTESIAN_POINT('',(-43.0813178365592,-138.00000205636,42.));
#418=CARTESIAN_POINT('',(0.,-138.00000205636,0.));
#419=CARTESIAN_POINT('Origin',(0.,-125.,0.));
#420=CARTESIAN_POINT('',(-43.0813189606839,-112.00000166893,42.));
#421=CARTESIAN_POINT('',(-43.0813189606839,-112.00000166893,0.));
#422=CARTESIAN_POINT('Origin',(0.,-125.,42.));
#423=CARTESIAN_POINT('Origin',(-16.4999998733401,-125.000000796218,37.));
#424=CARTESIAN_POINT('',(0.,-142.00000025332,37.));
#425=CARTESIAN_POINT('',(-0.00795801081917125,-108.000001609325,37.));
#426=CARTESIAN_POINT('Origin',(0.,-125.,37.));
#427=CARTESIAN_POINT('',(-47.0212711147234,-142.000001845755,37.));
#428=CARTESIAN_POINT('',(-31.7606352061684,-142.000001328934,37.));
#429=CARTESIAN_POINT('',(-47.0212723638681,-108.000001609325,37.));
#430=CARTESIAN_POINT('Origin',(0.,-125.,37.));
#431=CARTESIAN_POINT('',(-8.25397894207962,-108.000001609325,37.));
#432=CARTESIAN_POINT('',(13.9500002235174,-125.000001862645,37.));
#433=CARTESIAN_POINT('Origin',(15.0000002235174,-125.000001862645,37.));
#434=CARTESIAN_POINT('',(-13.0000001937152,-125.,37.));
#435=CARTESIAN_POINT('Origin',(0.,-125.,37.));
#436=CARTESIAN_POINT('',(-46.0500006705523,-110.000001639128,37.));
#437=CARTESIAN_POINT('Origin',(-45.0000006705523,-110.000001639128,37.));
#438=CARTESIAN_POINT('',(-46.0500006705523,-140.000002086163,37.));
#439=CARTESIAN_POINT('Origin',(-45.0000006705523,-140.000002086163,37.));
#440=CARTESIAN_POINT('Origin',(-43.0813189606839,-112.00000166893,0.));
#441=CARTESIAN_POINT('',(0.,-112.00000166893,42.));
#442=CARTESIAN_POINT('',(0.,-112.00000166893,0.));
#443=CARTESIAN_POINT('',(0.,-112.00000166893,42.));
#444=CARTESIAN_POINT('Origin',(-47.0212711147234,-142.000001845755,0.));
#445=CARTESIAN_POINT('',(0.,-142.00000025332,42.));
#446=CARTESIAN_POINT('',(0.,-142.00000025332,0.));
#447=CARTESIAN_POINT('',(-47.0212711147234,-142.000001845755,42.));
#448=CARTESIAN_POINT('',(-47.0212711147234,-142.000001845755,42.));
#449=CARTESIAN_POINT('',(-47.0212711147234,-142.000001845755,0.));
#450=CARTESIAN_POINT('Origin',(0.,-125.,0.));
#451=CARTESIAN_POINT('',(-0.00795801081917125,-108.000001609325,42.));
#452=CARTESIAN_POINT('',(-0.00795801081917218,-108.000001609325,0.));
#453=CARTESIAN_POINT('Origin',(0.,-125.,42.));
#454=CARTESIAN_POINT('Origin',(-45.0000006705523,-140.000002086163,0.));
#455=CARTESIAN_POINT('',(-46.0500006705523,-140.000002086163,42.));
#456=CARTESIAN_POINT('Origin',(-45.0000006705523,-140.000002086163,42.));
#457=CARTESIAN_POINT('',(-46.0500006705523,-140.000002086163,0.));
#458=CARTESIAN_POINT('Origin',(-45.0000006705523,-110.000001639128,0.));
#459=CARTESIAN_POINT('',(-46.0500006705523,-110.000001639128,42.));
#460=CARTESIAN_POINT('Origin',(-45.0000006705523,-110.000001639128,42.));
#461=CARTESIAN_POINT('',(-46.0500006705523,-110.000001639128,0.));
#462=CARTESIAN_POINT('Origin',(0.,-125.,0.));
#463=CARTESIAN_POINT('Origin',(0.,-125.,42.));
#464=CARTESIAN_POINT('',(-13.0000001937152,-125.,0.));
#465=CARTESIAN_POINT('Origin',(15.0000002235174,-125.000001862645,0.));
#466=CARTESIAN_POINT('',(13.9500002235174,-125.000001862645,42.));
#467=CARTESIAN_POINT('Origin',(15.0000002235174,-125.000001862645,42.));
#468=CARTESIAN_POINT('',(13.9500002235174,-125.000001862645,0.));
#469=CARTESIAN_POINT('Origin',(0.,-125.,0.));
#470=CARTESIAN_POINT('',(-47.0212723638681,-108.000001609325,42.));
#471=CARTESIAN_POINT('Origin',(0.,-125.,42.));
#472=CARTESIAN_POINT('',(-47.0212723638681,-108.000001609325,0.));
#473=CARTESIAN_POINT('Origin',(-0.00795801081917218,-108.000001609325,0.));
#474=CARTESIAN_POINT('',(0.0079580108073559,-108.000001609325,42.));
#475=CARTESIAN_POINT('Origin',(-16.4999998733401,-125.000000796218,42.));
#476=UNCERTAINTY_MEASURE_WITH_UNIT(LENGTH_MEASURE(0.01),#480,
'DISTANCE_ACCURACY_VALUE',
'Maximum model space distance between geometric entities at asserted c
onnectivities');
#477=UNCERTAINTY_MEASURE_WITH_UNIT(LENGTH_MEASURE(0.01),#480,
'DISTANCE_ACCURACY_VALUE',
'Maximum model space distance between geometric entities at asserted c
onnectivities');
#478=(
GEOMETRIC_REPRESENTATION_CONTEXT(3)
GLOBAL_UNCERTAINTY_ASSIGNED_CONTEXT((#476))
GLOBAL_UNIT_ASSIGNED_CONTEXT((#480,#482,#483))
REPRESENTATION_CONTEXT('','3D')
);
#479=(
GEOMETRIC_REPRESENTATION_CONTEXT(3)
GLOBAL_UNCERTAINTY_ASSIGNED_CONTEXT((#477))
GLOBAL_UNIT_ASSIGNED_CONTEXT((#480,#482,#483))
REPRESENTATION_CONTEXT('','3D')
);
#480=(
LENGTH_UNIT()
NAMED_UNIT(*)
SI_UNIT(.MILLI.,.METRE.)
);
#481=(
LENGTH_UNIT()
NAMED_UNIT(*)
SI_UNIT($,.METRE.)
);
#482=(
NAMED_UNIT(*)
PLANE_ANGLE_UNIT()
SI_UNIT($,.RADIAN.)
);
#483=(
NAMED_UNIT(*)
SI_UNIT($,.STERADIAN.)
SOLID_ANGLE_UNIT()
);
#484=SHAPE_DEFINITION_REPRESENTATION(#485,#486);
#485=PRODUCT_DEFINITION_SHAPE('',$,#488);
#486=SHAPE_REPRESENTATION('',(#288),#478);
#487=PRODUCT_DEFINITION_CONTEXT('part definition',#492,'design');
#488=PRODUCT_DEFINITION('2025-08-02-19-04-04-834','link2_0',#489,#487);
#489=PRODUCT_DEFINITION_FORMATION('',$,#494);
#490=PRODUCT_RELATED_PRODUCT_CATEGORY('link2_0','link2_0',(#494));
#491=APPLICATION_PROTOCOL_DEFINITION('international standard',
'automotive_design',2009,#492);
#492=APPLICATION_CONTEXT(
'Core Data for Automotive Mechanical Design Process');
#493=PRODUCT_CONTEXT('part definition',#492,'mechanical');
#494=PRODUCT('2025-08-02-19-04-04-834','link2_0',$,(#493));
#495=PRESENTATION_STYLE_ASSIGNMENT((#497));
#496=PRESENTATION_STYLE_ASSIGNMENT((#498));
#497=SURFACE_STYLE_USAGE(.BOTH.,#499);
#498=SURFACE_STYLE_USAGE(.BOTH.,#500);
#499=SURFACE_SIDE_STYLE('',(#501));
#500=SURFACE_SIDE_STYLE('',(#502));
#501=SURFACE_STYLE_FILL_AREA(#503);
#502=SURFACE_STYLE_FILL_AREA(#504);
#503=FILL_AREA_STYLE('Steel - Satin',(#505));
#504=FILL_AREA_STYLE('Sunflower yellow PLA',(#506));
#505=FILL_AREA_STYLE_COLOUR('Steel - Satin',#507);
#506=FILL_AREA_STYLE_COLOUR('Sunflower yellow PLA',#508);
#507=COLOUR_RGB('Steel - Satin',0.627450980392157,0.627450980392157,0.627450980392157);
#508=COLOUR_RGB('Sunflower yellow PLA',1.,0.733333333333333,0.);
ENDSEC;
END-ISO-10303-21;
