ISO-10303-21;
HEADER;
/* Generated by software containing ST-Developer
 * from STEP Tools, Inc. (www.steptools.com) 
 */

FILE_DESCRIPTION(
/* description */ (''),
/* implementation_level */ '2;1');

FILE_NAME(
/* name */ 'link2_1.step',
/* time_stamp */ '2025-07-30T21:58:40+01:00',
/* author */ (''),
/* organization */ (''),
/* preprocessor_version */ 'ST-DEVELOPER v20.1',
/* originating_system */ 'Autodesk Translation Framework v14.10.0.0',
/* authorisation */ '');

FILE_SCHEMA (('AUTOMOTIVE_DESIGN { 1 0 10303 214 3 1 1 }'));
ENDSEC;

DATA;
#10=MECHANICAL_DESIGN_GEOMETRIC_PRESENTATION_REPRESENTATION('',(#13),#1805);
#11=SHAPE_REPRESENTATION_RELATIONSHIP('SRR','None',#1812,#12);
#12=ADVANCED_BREP_SHAPE_REPRESENTATION('',(#14),#1804);
#13=STYLED_ITEM('',(#1822),#14);
#14=MANIFOLD_SOLID_BREP('Body1',#1033);
#15=FACE_BOUND('',#318,.T.);
#16=FACE_BOUND('',#321,.T.);
#17=FACE_BOUND('',#322,.T.);
#18=FACE_BOUND('',#323,.T.);
#19=FACE_BOUND('',#329,.T.);
#20=FACE_BOUND('',#330,.T.);
#21=FACE_BOUND('',#331,.T.);
#22=FACE_BOUND('',#332,.T.);
#23=FACE_BOUND('',#370,.T.);
#24=FACE_BOUND('',#371,.T.);
#25=FACE_BOUND('',#372,.T.);
#26=FACE_BOUND('',#373,.T.);
#27=FACE_BOUND('',#374,.T.);
#28=PLANE('',#1055);
#29=PLANE('',#1063);
#30=PLANE('',#1080);
#31=PLANE('',#1082);
#32=PLANE('',#1090);
#33=PLANE('',#1091);
#34=PLANE('',#1092);
#35=PLANE('',#1096);
#36=PLANE('',#1097);
#37=PLANE('',#1098);
#38=PLANE('',#1100);
#39=PLANE('',#1101);
#40=PLANE('',#1102);
#41=PLANE('',#1104);
#42=PLANE('',#1105);
#43=PLANE('',#1106);
#44=PLANE('',#1107);
#45=PLANE('',#1109);
#46=PLANE('',#1110);
#47=PLANE('',#1111);
#48=PLANE('',#1112);
#49=PLANE('',#1115);
#50=PLANE('',#1117);
#51=PLANE('',#1127);
#52=PLANE('',#1138);
#53=PLANE('',#1139);
#54=PLANE('',#1140);
#55=PLANE('',#1141);
#56=LINE('',#1460,#152);
#57=LINE('',#1463,#153);
#58=LINE('',#1493,#154);
#59=LINE('',#1496,#155);
#60=LINE('',#1498,#156);
#61=LINE('',#1500,#157);
#62=LINE('',#1502,#158);
#63=LINE('',#1504,#159);
#64=LINE('',#1506,#160);
#65=LINE('',#1510,#161);
#66=LINE('',#1512,#162);
#67=LINE('',#1514,#163);
#68=LINE('',#1518,#164);
#69=LINE('',#1520,#165);
#70=LINE('',#1522,#166);
#71=LINE('',#1524,#167);
#72=LINE('',#1525,#168);
#73=LINE('',#1557,#169);
#74=LINE('',#1561,#170);
#75=LINE('',#1565,#171);
#76=LINE('',#1568,#172);
#77=LINE('',#1601,#173);
#78=LINE('',#1604,#174);
#79=LINE('',#1606,#175);
#80=LINE('',#1610,#176);
#81=LINE('',#1614,#177);
#82=LINE('',#1617,#178);
#83=LINE('',#1623,#179);
#84=LINE('',#1626,#180);
#85=LINE('',#1629,#181);
#86=LINE('',#1631,#182);
#87=LINE('',#1635,#183);
#88=LINE('',#1638,#184);
#89=LINE('',#1641,#185);
#90=LINE('',#1645,#186);
#91=LINE('',#1647,#187);
#92=LINE('',#1649,#188);
#93=LINE('',#1651,#189);
#94=LINE('',#1653,#190);
#95=LINE('',#1657,#191);
#96=LINE('',#1659,#192);
#97=LINE('',#1661,#193);
#98=LINE('',#1665,#194);
#99=LINE('',#1667,#195);
#100=LINE('',#1669,#196);
#101=LINE('',#1670,#197);
#102=LINE('',#1679,#198);
#103=LINE('',#1680,#199);
#104=LINE('',#1681,#200);
#105=LINE('',#1682,#201);
#106=LINE('',#1685,#202);
#107=LINE('',#1687,#203);
#108=LINE('',#1688,#204);
#109=LINE('',#1691,#205);
#110=LINE('',#1693,#206);
#111=LINE('',#1695,#207);
#112=LINE('',#1696,#208);
#113=LINE('',#1697,#209);
#114=LINE('',#1702,#210);
#115=LINE('',#1705,#211);
#116=LINE('',#1708,#212);
#117=LINE('',#1710,#213);
#118=LINE('',#1711,#214);
#119=LINE('',#1714,#215);
#120=LINE('',#1715,#216);
#121=LINE('',#1717,#217);
#122=LINE('',#1718,#218);
#123=LINE('',#1720,#219);
#124=LINE('',#1722,#220);
#125=LINE('',#1724,#221);
#126=LINE('',#1726,#222);
#127=LINE('',#1728,#223);
#128=LINE('',#1730,#224);
#129=LINE('',#1732,#225);
#130=LINE('',#1735,#226);
#131=LINE('',#1737,#227);
#132=LINE('',#1739,#228);
#133=LINE('',#1741,#229);
#134=LINE('',#1744,#230);
#135=LINE('',#1745,#231);
#136=LINE('',#1747,#232);
#137=LINE('',#1750,#233);
#138=LINE('',#1755,#234);
#139=LINE('',#1759,#235);
#140=LINE('',#1762,#236);
#141=LINE('',#1767,#237);
#142=LINE('',#1771,#238);
#143=LINE('',#1774,#239);
#144=LINE('',#1775,#240);
#145=LINE('',#1778,#241);
#146=LINE('',#1783,#242);
#147=LINE('',#1787,#243);
#148=LINE('',#1791,#244);
#149=LINE('',#1795,#245);
#150=LINE('',#1797,#246);
#151=LINE('',#1799,#247);
#152=VECTOR('',#1152,10.);
#153=VECTOR('',#1155,10.);
#154=VECTOR('',#1164,10.);
#155=VECTOR('',#1167,10.);
#156=VECTOR('',#1168,10.);
#157=VECTOR('',#1169,10.);
#158=VECTOR('',#1170,10.);
#159=VECTOR('',#1171,10.);
#160=VECTOR('',#1172,10.);
#161=VECTOR('',#1175,10.);
#162=VECTOR('',#1176,10.);
#163=VECTOR('',#1177,10.);
#164=VECTOR('',#1180,10.);
#165=VECTOR('',#1181,10.);
#166=VECTOR('',#1182,10.);
#167=VECTOR('',#1183,10.);
#168=VECTOR('',#1184,10.);
#169=VECTOR('',#1195,10.);
#170=VECTOR('',#1198,10.);
#171=VECTOR('',#1201,10.);
#172=VECTOR('',#1204,10.);
#173=VECTOR('',#1217,10.);
#174=VECTOR('',#1220,10.);
#175=VECTOR('',#1221,10.);
#176=VECTOR('',#1224,10.);
#177=VECTOR('',#1227,10.);
#178=VECTOR('',#1230,10.);
#179=VECTOR('',#1235,10.);
#180=VECTOR('',#1238,10.);
#181=VECTOR('',#1241,10.);
#182=VECTOR('',#1242,10.);
#183=VECTOR('',#1247,10.);
#184=VECTOR('',#1250,10.);
#185=VECTOR('',#1251,10.);
#186=VECTOR('',#1254,10.);
#187=VECTOR('',#1255,10.);
#188=VECTOR('',#1256,10.);
#189=VECTOR('',#1257,10.);
#190=VECTOR('',#1258,10.);
#191=VECTOR('',#1261,10.);
#192=VECTOR('',#1262,10.);
#193=VECTOR('',#1263,10.);
#194=VECTOR('',#1266,10.);
#195=VECTOR('',#1267,10.);
#196=VECTOR('',#1268,10.);
#197=VECTOR('',#1269,10.);
#198=VECTOR('',#1278,10.);
#199=VECTOR('',#1279,10.);
#200=VECTOR('',#1280,10.);
#201=VECTOR('',#1281,10.);
#202=VECTOR('',#1284,10.);
#203=VECTOR('',#1285,10.);
#204=VECTOR('',#1286,10.);
#205=VECTOR('',#1289,10.);
#206=VECTOR('',#1290,10.);
#207=VECTOR('',#1291,10.);
#208=VECTOR('',#1292,10.);
#209=VECTOR('',#1293,10.);
#210=VECTOR('',#1298,10.);
#211=VECTOR('',#1303,10.);
#212=VECTOR('',#1306,10.);
#213=VECTOR('',#1307,10.);
#214=VECTOR('',#1308,10.);
#215=VECTOR('',#1311,10.);
#216=VECTOR('',#1312,10.);
#217=VECTOR('',#1315,10.);
#218=VECTOR('',#1316,10.);
#219=VECTOR('',#1319,10.);
#220=VECTOR('',#1322,10.);
#221=VECTOR('',#1325,10.);
#222=VECTOR('',#1328,10.);
#223=VECTOR('',#1331,10.);
#224=VECTOR('',#1334,10.);
#225=VECTOR('',#1337,10.);
#226=VECTOR('',#1342,1.05);
#227=VECTOR('',#1345,10.);
#228=VECTOR('',#1348,10.);
#229=VECTOR('',#1351,10.);
#230=VECTOR('',#1356,10.);
#231=VECTOR('',#1357,10.);
#232=VECTOR('',#1360,10.);
#233=VECTOR('',#1363,10.);
#234=VECTOR('',#1370,10.);
#235=VECTOR('',#1375,1.05);
#236=VECTOR('',#1378,10.);
#237=VECTOR('',#1385,10.);
#238=VECTOR('',#1390,1.05);
#239=VECTOR('',#1393,10.);
#240=VECTOR('',#1394,10.);
#241=VECTOR('',#1397,10.);
#242=VECTOR('',#1404,1.05);
#243=VECTOR('',#1409,1.05);
#244=VECTOR('',#1414,1.05);
#245=VECTOR('',#1419,10.);
#246=VECTOR('',#1422,10.);
#247=VECTOR('',#1425,10.);
#248=CYLINDRICAL_SURFACE('',#1050,37.000000551343);
#249=CYLINDRICAL_SURFACE('',#1072,50.0000007450581);
#250=CYLINDRICAL_SURFACE('',#1077,39.0000005811453);
#251=CYLINDRICAL_SURFACE('',#1093,39.0000005811453);
#252=CYLINDRICAL_SURFACE('',#1099,13.0000001937151);
#253=CYLINDRICAL_SURFACE('',#1103,13.0000001937151);
#254=CYLINDRICAL_SURFACE('',#1108,1.05);
#255=CYLINDRICAL_SURFACE('',#1113,17.0000002533197);
#256=CYLINDRICAL_SURFACE('',#1114,37.000000551343);
#257=CYLINDRICAL_SURFACE('',#1119,1.05);
#258=CYLINDRICAL_SURFACE('',#1121,45.0000006705523);
#259=CYLINDRICAL_SURFACE('',#1125,1.05);
#260=CYLINDRICAL_SURFACE('',#1128,17.0000002533197);
#261=CYLINDRICAL_SURFACE('',#1130,1.05);
#262=CYLINDRICAL_SURFACE('',#1132,1.05);
#263=CYLINDRICAL_SURFACE('',#1134,1.05);
#264=CYLINDRICAL_SURFACE('',#1136,13.0000001937151);
#265=FACE_OUTER_BOUND('',#314,.T.);
#266=FACE_OUTER_BOUND('',#315,.T.);
#267=FACE_OUTER_BOUND('',#316,.T.);
#268=FACE_OUTER_BOUND('',#317,.T.);
#269=FACE_OUTER_BOUND('',#319,.T.);
#270=FACE_OUTER_BOUND('',#320,.T.);
#271=FACE_OUTER_BOUND('',#324,.T.);
#272=FACE_OUTER_BOUND('',#325,.T.);
#273=FACE_OUTER_BOUND('',#326,.T.);
#274=FACE_OUTER_BOUND('',#327,.T.);
#275=FACE_OUTER_BOUND('',#328,.T.);
#276=FACE_OUTER_BOUND('',#333,.T.);
#277=FACE_OUTER_BOUND('',#334,.T.);
#278=FACE_OUTER_BOUND('',#335,.T.);
#279=FACE_OUTER_BOUND('',#336,.T.);
#280=FACE_OUTER_BOUND('',#337,.T.);
#281=FACE_OUTER_BOUND('',#338,.T.);
#282=FACE_OUTER_BOUND('',#339,.T.);
#283=FACE_OUTER_BOUND('',#340,.T.);
#284=FACE_OUTER_BOUND('',#341,.T.);
#285=FACE_OUTER_BOUND('',#342,.T.);
#286=FACE_OUTER_BOUND('',#343,.T.);
#287=FACE_OUTER_BOUND('',#344,.T.);
#288=FACE_OUTER_BOUND('',#345,.T.);
#289=FACE_OUTER_BOUND('',#346,.T.);
#290=FACE_OUTER_BOUND('',#347,.T.);
#291=FACE_OUTER_BOUND('',#348,.T.);
#292=FACE_OUTER_BOUND('',#349,.T.);
#293=FACE_OUTER_BOUND('',#350,.T.);
#294=FACE_OUTER_BOUND('',#351,.T.);
#295=FACE_OUTER_BOUND('',#352,.T.);
#296=FACE_OUTER_BOUND('',#353,.T.);
#297=FACE_OUTER_BOUND('',#354,.T.);
#298=FACE_OUTER_BOUND('',#355,.T.);
#299=FACE_OUTER_BOUND('',#356,.T.);
#300=FACE_OUTER_BOUND('',#357,.T.);
#301=FACE_OUTER_BOUND('',#358,.T.);
#302=FACE_OUTER_BOUND('',#359,.T.);
#303=FACE_OUTER_BOUND('',#360,.T.);
#304=FACE_OUTER_BOUND('',#361,.T.);
#305=FACE_OUTER_BOUND('',#362,.T.);
#306=FACE_OUTER_BOUND('',#363,.T.);
#307=FACE_OUTER_BOUND('',#364,.T.);
#308=FACE_OUTER_BOUND('',#365,.T.);
#309=FACE_OUTER_BOUND('',#366,.T.);
#310=FACE_OUTER_BOUND('',#367,.T.);
#311=FACE_OUTER_BOUND('',#368,.T.);
#312=FACE_OUTER_BOUND('',#369,.T.);
#313=FACE_OUTER_BOUND('',#375,.T.);
#314=EDGE_LOOP('',(#680,#681,#682,#683));
#315=EDGE_LOOP('',(#684,#685,#686,#687));
#316=EDGE_LOOP('',(#688,#689,#690,#691));
#317=EDGE_LOOP('',(#692,#693,#694,#695,#696,#697,#698,#699,#700,#701,#702,
#703,#704,#705,#706,#707,#708,#709,#710,#711));
#318=EDGE_LOOP('',(#712));
#319=EDGE_LOOP('',(#713,#714,#715,#716));
#320=EDGE_LOOP('',(#717,#718,#719,#720,#721,#722,#723,#724));
#321=EDGE_LOOP('',(#725));
#322=EDGE_LOOP('',(#726));
#323=EDGE_LOOP('',(#727));
#324=EDGE_LOOP('',(#728,#729,#730,#731));
#325=EDGE_LOOP('',(#732,#733,#734,#735,#736,#737,#738,#739,#740,#741,#742,
#743));
#326=EDGE_LOOP('',(#744,#745,#746,#747));
#327=EDGE_LOOP('',(#748,#749,#750,#751));
#328=EDGE_LOOP('',(#752,#753,#754,#755));
#329=EDGE_LOOP('',(#756,#757,#758,#759,#760,#761,#762,#763,#764,#765,#766,
#767,#768,#769,#770,#771));
#330=EDGE_LOOP('',(#772));
#331=EDGE_LOOP('',(#773));
#332=EDGE_LOOP('',(#774));
#333=EDGE_LOOP('',(#775,#776,#777,#778,#779,#780,#781,#782,#783));
#334=EDGE_LOOP('',(#784,#785,#786,#787));
#335=EDGE_LOOP('',(#788,#789,#790,#791,#792,#793,#794,#795,#796));
#336=EDGE_LOOP('',(#797,#798,#799,#800));
#337=EDGE_LOOP('',(#801,#802,#803,#804));
#338=EDGE_LOOP('',(#805,#806,#807,#808));
#339=EDGE_LOOP('',(#809,#810,#811,#812,#813));
#340=EDGE_LOOP('',(#814,#815,#816,#817));
#341=EDGE_LOOP('',(#818,#819,#820,#821));
#342=EDGE_LOOP('',(#822,#823,#824,#825));
#343=EDGE_LOOP('',(#826,#827,#828,#829));
#344=EDGE_LOOP('',(#830,#831,#832,#833));
#345=EDGE_LOOP('',(#834,#835,#836,#837));
#346=EDGE_LOOP('',(#838,#839,#840,#841));
#347=EDGE_LOOP('',(#842,#843,#844,#845));
#348=EDGE_LOOP('',(#846,#847,#848,#849));
#349=EDGE_LOOP('',(#850,#851,#852,#853));
#350=EDGE_LOOP('',(#854,#855,#856,#857));
#351=EDGE_LOOP('',(#858,#859,#860,#861));
#352=EDGE_LOOP('',(#862,#863,#864,#865));
#353=EDGE_LOOP('',(#866,#867,#868,#869));
#354=EDGE_LOOP('',(#870,#871,#872,#873));
#355=EDGE_LOOP('',(#874,#875,#876,#877));
#356=EDGE_LOOP('',(#878,#879,#880,#881));
#357=EDGE_LOOP('',(#882,#883,#884,#885));
#358=EDGE_LOOP('',(#886,#887,#888,#889));
#359=EDGE_LOOP('',(#890,#891,#892,#893,#894,#895,#896,#897,#898,#899,#900,
#901));
#360=EDGE_LOOP('',(#902,#903,#904,#905));
#361=EDGE_LOOP('',(#906,#907,#908,#909,#910,#911,#912,#913,#914,#915,#916,
#917,#918,#919));
#362=EDGE_LOOP('',(#920,#921,#922,#923));
#363=EDGE_LOOP('',(#924,#925,#926,#927));
#364=EDGE_LOOP('',(#928,#929,#930,#931));
#365=EDGE_LOOP('',(#932,#933,#934,#935));
#366=EDGE_LOOP('',(#936,#937,#938,#939));
#367=EDGE_LOOP('',(#940,#941,#942,#943,#944));
#368=EDGE_LOOP('',(#945,#946,#947,#948,#949,#950,#951,#952,#953,#954,#955,
#956,#957,#958));
#369=EDGE_LOOP('',(#959,#960,#961,#962,#963,#964,#965,#966,#967,#968,#969,
#970));
#370=EDGE_LOOP('',(#971));
#371=EDGE_LOOP('',(#972));
#372=EDGE_LOOP('',(#973));
#373=EDGE_LOOP('',(#974));
#374=EDGE_LOOP('',(#975));
#375=EDGE_LOOP('',(#976,#977,#978,#979));
#376=CIRCLE('',#1048,37.000000551343);
#377=CIRCLE('',#1049,34.000000551343);
#378=CIRCLE('',#1051,37.000000551343);
#379=CIRCLE('',#1053,34.000000551343);
#380=CIRCLE('',#1054,37.000000551343);
#381=CIRCLE('',#1056,17.0000002533197);
#382=CIRCLE('',#1057,13.0000001937151);
#383=CIRCLE('',#1058,13.0000001937151);
#384=CIRCLE('',#1059,1.05);
#385=CIRCLE('',#1061,53.0000007450581);
#386=CIRCLE('',#1062,50.0000007450581);
#387=CIRCLE('',#1064,13.0000001937151);
#388=CIRCLE('',#1065,53.0000007450581);
#389=CIRCLE('',#1066,17.0000002533197);
#390=CIRCLE('',#1067,1.05);
#391=CIRCLE('',#1068,1.05);
#392=CIRCLE('',#1069,1.05);
#393=CIRCLE('',#1071,50.0000007450581);
#394=CIRCLE('',#1073,50.0000007450581);
#395=CIRCLE('',#1074,50.0000007450581);
#396=CIRCLE('',#1075,50.0000007450581);
#397=CIRCLE('',#1076,50.0000007450581);
#398=CIRCLE('',#1078,39.0000005811453);
#399=CIRCLE('',#1079,39.0000005811453);
#400=CIRCLE('',#1081,37.000000551343);
#401=CIRCLE('',#1083,17.0000002533197);
#402=CIRCLE('',#1084,45.0000006705523);
#403=CIRCLE('',#1085,13.0000001937151);
#404=CIRCLE('',#1086,13.0000001937151);
#405=CIRCLE('',#1087,1.05);
#406=CIRCLE('',#1088,1.05);
#407=CIRCLE('',#1089,1.05);
#408=CIRCLE('',#1094,39.0000005811453);
#409=CIRCLE('',#1095,39.0000005811453);
#410=CIRCLE('',#1116,45.0000006705523);
#411=CIRCLE('',#1118,45.0000006705523);
#412=CIRCLE('',#1120,1.05);
#413=CIRCLE('',#1122,45.0000006705523);
#414=CIRCLE('',#1123,45.0000006705523);
#415=CIRCLE('',#1124,45.0000006705523);
#416=CIRCLE('',#1126,1.05);
#417=CIRCLE('',#1129,17.0000002533197);
#418=CIRCLE('',#1131,1.05);
#419=CIRCLE('',#1133,1.05);
#420=CIRCLE('',#1135,1.05);
#421=CIRCLE('',#1137,13.0000001937151);
#422=B_SPLINE_CURVE_WITH_KNOTS('',3,(#1434,#1435,#1436,#1437,#1438,#1439,
#1440,#1441,#1442,#1443),.UNSPECIFIED.,.F.,.F.,(4,2,2,2,4),(1.39025797127368,
1.51307029234801,1.63057442160158,1.74293365076665,1.85153749652775),
 .UNSPECIFIED.);
#423=B_SPLINE_CURVE_WITH_KNOTS('',3,(#1447,#1448,#1449,#1450,#1451,#1452,
#1453,#1454,#1455,#1456),.UNSPECIFIED.,.F.,.F.,(4,2,2,2,4),(0.,0.106623938936692,
0.220018383028589,0.342963936820112,0.476209663928808),.UNSPECIFIED.);
#424=B_SPLINE_CURVE_WITH_KNOTS('',3,(#1467,#1468,#1469,#1470,#1471,#1472,
#1473,#1474,#1475,#1476),.UNSPECIFIED.,.F.,.F.,(4,2,2,2,4),(0.,0.108603845761101,
0.220963074926168,0.338467204179735,0.461279525254071),.UNSPECIFIED.);
#425=B_SPLINE_CURVE_WITH_KNOTS('',3,(#1480,#1481,#1482,#1483,#1484,#1485,
#1486,#1487,#1488,#1489),.UNSPECIFIED.,.F.,.F.,(4,2,2,2,4),(1.44233340831635,
1.57557913542505,1.69852468921657,1.81191913330847,1.91854307224516),
 .UNSPECIFIED.);
#426=B_SPLINE_CURVE_WITH_KNOTS('',3,(#1531,#1532,#1533,#1534,#1535,#1536,
#1537,#1538,#1539,#1540),.UNSPECIFIED.,.F.,.F.,(4,2,2,2,4),(0.902669426245076,
1.0125458546581,1.12440851369411,1.23855124797423,1.35436202664709),
 .UNSPECIFIED.);
#427=B_SPLINE_CURVE_WITH_KNOTS('',3,(#1544,#1545,#1546,#1547,#1548,#1549,
#1550,#1551,#1552,#1553),.UNSPECIFIED.,.F.,.F.,(4,2,2,2,4),(0.456139001481912,
0.575633028134807,0.692152689424005,0.804624754680803,0.913602776073881),
 .UNSPECIFIED.);
#428=B_SPLINE_CURVE_WITH_KNOTS('',3,(#1577,#1578,#1579,#1580,#1581,#1582,
#1583,#1584,#1585,#1586),.UNSPECIFIED.,.F.,.F.,(4,2,2,2,4),(0.450976825843063,
0.566787604515926,0.680930338796039,0.792792997832056,0.902669426245076),
 .UNSPECIFIED.);
#429=B_SPLINE_CURVE_WITH_KNOTS('',3,(#1589,#1590,#1591,#1592,#1593,#1594,
#1595,#1596,#1597,#1598),.UNSPECIFIED.,.F.,.F.,(4,2,2,2,4),(0.913602776073881,
1.02258079746696,1.13505286272376,1.25157252401296,1.37106655066585),
 .UNSPECIFIED.);
#430=VERTEX_POINT('',#1432);
#431=VERTEX_POINT('',#1433);
#432=VERTEX_POINT('',#1444);
#433=VERTEX_POINT('',#1446);
#434=VERTEX_POINT('',#1459);
#435=VERTEX_POINT('',#1461);
#436=VERTEX_POINT('',#1465);
#437=VERTEX_POINT('',#1466);
#438=VERTEX_POINT('',#1477);
#439=VERTEX_POINT('',#1479);
#440=VERTEX_POINT('',#1492);
#441=VERTEX_POINT('',#1494);
#442=VERTEX_POINT('',#1497);
#443=VERTEX_POINT('',#1499);
#444=VERTEX_POINT('',#1501);
#445=VERTEX_POINT('',#1503);
#446=VERTEX_POINT('',#1505);
#447=VERTEX_POINT('',#1507);
#448=VERTEX_POINT('',#1509);
#449=VERTEX_POINT('',#1511);
#450=VERTEX_POINT('',#1513);
#451=VERTEX_POINT('',#1515);
#452=VERTEX_POINT('',#1517);
#453=VERTEX_POINT('',#1519);
#454=VERTEX_POINT('',#1521);
#455=VERTEX_POINT('',#1523);
#456=VERTEX_POINT('',#1526);
#457=VERTEX_POINT('',#1529);
#458=VERTEX_POINT('',#1530);
#459=VERTEX_POINT('',#1541);
#460=VERTEX_POINT('',#1543);
#461=VERTEX_POINT('',#1556);
#462=VERTEX_POINT('',#1558);
#463=VERTEX_POINT('',#1560);
#464=VERTEX_POINT('',#1562);
#465=VERTEX_POINT('',#1564);
#466=VERTEX_POINT('',#1566);
#467=VERTEX_POINT('',#1569);
#468=VERTEX_POINT('',#1571);
#469=VERTEX_POINT('',#1573);
#470=VERTEX_POINT('',#1576);
#471=VERTEX_POINT('',#1587);
#472=VERTEX_POINT('',#1600);
#473=VERTEX_POINT('',#1602);
#474=VERTEX_POINT('',#1605);
#475=VERTEX_POINT('',#1607);
#476=VERTEX_POINT('',#1609);
#477=VERTEX_POINT('',#1611);
#478=VERTEX_POINT('',#1613);
#479=VERTEX_POINT('',#1615);
#480=VERTEX_POINT('',#1619);
#481=VERTEX_POINT('',#1620);
#482=VERTEX_POINT('',#1622);
#483=VERTEX_POINT('',#1624);
#484=VERTEX_POINT('',#1628);
#485=VERTEX_POINT('',#1630);
#486=VERTEX_POINT('',#1634);
#487=VERTEX_POINT('',#1636);
#488=VERTEX_POINT('',#1639);
#489=VERTEX_POINT('',#1640);
#490=VERTEX_POINT('',#1642);
#491=VERTEX_POINT('',#1644);
#492=VERTEX_POINT('',#1646);
#493=VERTEX_POINT('',#1648);
#494=VERTEX_POINT('',#1650);
#495=VERTEX_POINT('',#1652);
#496=VERTEX_POINT('',#1654);
#497=VERTEX_POINT('',#1656);
#498=VERTEX_POINT('',#1658);
#499=VERTEX_POINT('',#1660);
#500=VERTEX_POINT('',#1662);
#501=VERTEX_POINT('',#1664);
#502=VERTEX_POINT('',#1666);
#503=VERTEX_POINT('',#1668);
#504=VERTEX_POINT('',#1671);
#505=VERTEX_POINT('',#1673);
#506=VERTEX_POINT('',#1675);
#507=VERTEX_POINT('',#1678);
#508=VERTEX_POINT('',#1684);
#509=VERTEX_POINT('',#1686);
#510=VERTEX_POINT('',#1690);
#511=VERTEX_POINT('',#1692);
#512=VERTEX_POINT('',#1694);
#513=VERTEX_POINT('',#1699);
#514=VERTEX_POINT('',#1701);
#515=VERTEX_POINT('',#1707);
#516=VERTEX_POINT('',#1709);
#517=VERTEX_POINT('',#1713);
#518=VERTEX_POINT('',#1749);
#519=VERTEX_POINT('',#1753);
#520=VERTEX_POINT('',#1757);
#521=VERTEX_POINT('',#1761);
#522=VERTEX_POINT('',#1765);
#523=VERTEX_POINT('',#1769);
#524=VERTEX_POINT('',#1773);
#525=VERTEX_POINT('',#1777);
#526=VERTEX_POINT('',#1781);
#527=VERTEX_POINT('',#1785);
#528=VERTEX_POINT('',#1789);
#529=VERTEX_POINT('',#1793);
#530=EDGE_CURVE('',#430,#431,#422,.T.);
#531=EDGE_CURVE('',#431,#432,#376,.T.);
#532=EDGE_CURVE('',#432,#433,#423,.T.);
#533=EDGE_CURVE('',#433,#430,#377,.T.);
#534=EDGE_CURVE('',#431,#434,#56,.T.);
#535=EDGE_CURVE('',#435,#434,#378,.T.);
#536=EDGE_CURVE('',#432,#435,#57,.T.);
#537=EDGE_CURVE('',#436,#437,#424,.T.);
#538=EDGE_CURVE('',#437,#438,#379,.T.);
#539=EDGE_CURVE('',#438,#439,#425,.T.);
#540=EDGE_CURVE('',#439,#436,#380,.T.);
#541=EDGE_CURVE('',#433,#440,#58,.T.);
#542=EDGE_CURVE('',#440,#441,#381,.T.);
#543=EDGE_CURVE('',#441,#438,#59,.T.);
#544=EDGE_CURVE('',#437,#442,#60,.T.);
#545=EDGE_CURVE('',#442,#443,#61,.T.);
#546=EDGE_CURVE('',#443,#444,#62,.T.);
#547=EDGE_CURVE('',#444,#445,#63,.T.);
#548=EDGE_CURVE('',#445,#446,#64,.T.);
#549=EDGE_CURVE('',#446,#447,#382,.T.);
#550=EDGE_CURVE('',#447,#448,#65,.T.);
#551=EDGE_CURVE('',#448,#449,#66,.T.);
#552=EDGE_CURVE('',#449,#450,#67,.T.);
#553=EDGE_CURVE('',#450,#451,#383,.T.);
#554=EDGE_CURVE('',#451,#452,#68,.T.);
#555=EDGE_CURVE('',#452,#453,#69,.T.);
#556=EDGE_CURVE('',#453,#454,#70,.T.);
#557=EDGE_CURVE('',#454,#455,#71,.T.);
#558=EDGE_CURVE('',#455,#430,#72,.T.);
#559=EDGE_CURVE('',#456,#456,#384,.T.);
#560=EDGE_CURVE('',#457,#458,#426,.T.);
#561=EDGE_CURVE('',#458,#459,#385,.T.);
#562=EDGE_CURVE('',#459,#460,#427,.T.);
#563=EDGE_CURVE('',#460,#457,#386,.T.);
#564=EDGE_CURVE('',#461,#458,#73,.T.);
#565=EDGE_CURVE('',#462,#461,#387,.T.);
#566=EDGE_CURVE('',#463,#462,#74,.T.);
#567=EDGE_CURVE('',#464,#463,#388,.T.);
#568=EDGE_CURVE('',#465,#464,#75,.T.);
#569=EDGE_CURVE('',#466,#465,#389,.T.);
#570=EDGE_CURVE('',#459,#466,#76,.T.);
#571=EDGE_CURVE('',#467,#467,#390,.T.);
#572=EDGE_CURVE('',#468,#468,#391,.T.);
#573=EDGE_CURVE('',#469,#469,#392,.T.);
#574=EDGE_CURVE('',#463,#470,#428,.T.);
#575=EDGE_CURVE('',#470,#471,#393,.T.);
#576=EDGE_CURVE('',#471,#464,#429,.T.);
#577=EDGE_CURVE('',#472,#460,#77,.T.);
#578=EDGE_CURVE('',#472,#473,#394,.T.);
#579=EDGE_CURVE('',#473,#471,#78,.T.);
#580=EDGE_CURVE('',#474,#470,#79,.T.);
#581=EDGE_CURVE('',#475,#474,#395,.T.);
#582=EDGE_CURVE('',#476,#475,#80,.T.);
#583=EDGE_CURVE('',#477,#476,#396,.T.);
#584=EDGE_CURVE('',#477,#478,#81,.T.);
#585=EDGE_CURVE('',#479,#478,#397,.T.);
#586=EDGE_CURVE('',#457,#479,#82,.T.);
#587=EDGE_CURVE('',#480,#481,#398,.T.);
#588=EDGE_CURVE('',#480,#482,#83,.T.);
#589=EDGE_CURVE('',#483,#482,#399,.T.);
#590=EDGE_CURVE('',#481,#483,#84,.T.);
#591=EDGE_CURVE('',#484,#483,#85,.T.);
#592=EDGE_CURVE('',#482,#485,#86,.T.);
#593=EDGE_CURVE('',#485,#484,#400,.T.);
#594=EDGE_CURVE('',#486,#472,#87,.T.);
#595=EDGE_CURVE('',#487,#486,#401,.T.);
#596=EDGE_CURVE('',#473,#487,#88,.T.);
#597=EDGE_CURVE('',#488,#489,#89,.T.);
#598=EDGE_CURVE('',#490,#488,#402,.T.);
#599=EDGE_CURVE('',#491,#490,#90,.T.);
#600=EDGE_CURVE('',#492,#491,#91,.T.);
#601=EDGE_CURVE('',#493,#492,#92,.T.);
#602=EDGE_CURVE('',#494,#493,#93,.T.);
#603=EDGE_CURVE('',#495,#494,#94,.T.);
#604=EDGE_CURVE('',#496,#495,#403,.T.);
#605=EDGE_CURVE('',#497,#496,#95,.T.);
#606=EDGE_CURVE('',#498,#497,#96,.T.);
#607=EDGE_CURVE('',#499,#498,#97,.T.);
#608=EDGE_CURVE('',#500,#499,#404,.T.);
#609=EDGE_CURVE('',#501,#500,#98,.T.);
#610=EDGE_CURVE('',#502,#501,#99,.T.);
#611=EDGE_CURVE('',#503,#502,#100,.T.);
#612=EDGE_CURVE('',#489,#503,#101,.T.);
#613=EDGE_CURVE('',#504,#504,#405,.T.);
#614=EDGE_CURVE('',#505,#505,#406,.T.);
#615=EDGE_CURVE('',#506,#506,#407,.T.);
#616=EDGE_CURVE('',#507,#480,#102,.T.);
#617=EDGE_CURVE('',#507,#488,#103,.T.);
#618=EDGE_CURVE('',#489,#442,#104,.T.);
#619=EDGE_CURVE('',#436,#485,#105,.T.);
#620=EDGE_CURVE('',#476,#508,#106,.T.);
#621=EDGE_CURVE('',#509,#475,#107,.T.);
#622=EDGE_CURVE('',#508,#509,#108,.T.);
#623=EDGE_CURVE('',#490,#510,#109,.T.);
#624=EDGE_CURVE('',#511,#510,#110,.T.);
#625=EDGE_CURVE('',#511,#512,#111,.T.);
#626=EDGE_CURVE('',#434,#512,#112,.T.);
#627=EDGE_CURVE('',#491,#455,#113,.T.);
#628=EDGE_CURVE('',#513,#511,#408,.T.);
#629=EDGE_CURVE('',#513,#514,#114,.T.);
#630=EDGE_CURVE('',#512,#514,#409,.T.);
#631=EDGE_CURVE('',#514,#435,#115,.T.);
#632=EDGE_CURVE('',#515,#477,#116,.T.);
#633=EDGE_CURVE('',#515,#516,#117,.T.);
#634=EDGE_CURVE('',#478,#516,#118,.T.);
#635=EDGE_CURVE('',#517,#479,#119,.T.);
#636=EDGE_CURVE('',#461,#517,#120,.T.);
#637=EDGE_CURVE('',#499,#447,#121,.T.);
#638=EDGE_CURVE('',#500,#446,#122,.T.);
#639=EDGE_CURVE('',#498,#448,#123,.T.);
#640=EDGE_CURVE('',#497,#449,#124,.T.);
#641=EDGE_CURVE('',#496,#450,#125,.T.);
#642=EDGE_CURVE('',#495,#451,#126,.T.);
#643=EDGE_CURVE('',#494,#452,#127,.T.);
#644=EDGE_CURVE('',#493,#453,#128,.T.);
#645=EDGE_CURVE('',#492,#454,#129,.T.);
#646=EDGE_CURVE('',#456,#505,#130,.T.);
#647=EDGE_CURVE('',#501,#445,#131,.T.);
#648=EDGE_CURVE('',#502,#444,#132,.T.);
#649=EDGE_CURVE('',#503,#443,#133,.T.);
#650=EDGE_CURVE('',#486,#441,#134,.T.);
#651=EDGE_CURVE('',#487,#440,#135,.T.);
#652=EDGE_CURVE('',#439,#484,#136,.T.);
#653=EDGE_CURVE('',#481,#518,#137,.T.);
#654=EDGE_CURVE('',#507,#518,#410,.T.);
#655=EDGE_CURVE('',#519,#510,#411,.T.);
#656=EDGE_CURVE('',#519,#513,#138,.T.);
#657=EDGE_CURVE('',#520,#520,#412,.T.);
#658=EDGE_CURVE('',#520,#504,#139,.T.);
#659=EDGE_CURVE('',#518,#521,#140,.T.);
#660=EDGE_CURVE('',#516,#521,#413,.T.);
#661=EDGE_CURVE('',#508,#515,#414,.T.);
#662=EDGE_CURVE('',#522,#509,#415,.T.);
#663=EDGE_CURVE('',#519,#522,#141,.T.);
#664=EDGE_CURVE('',#523,#523,#416,.T.);
#665=EDGE_CURVE('',#523,#506,#142,.T.);
#666=EDGE_CURVE('',#466,#524,#143,.T.);
#667=EDGE_CURVE('',#521,#524,#144,.T.);
#668=EDGE_CURVE('',#465,#525,#145,.T.);
#669=EDGE_CURVE('',#524,#525,#417,.T.);
#670=EDGE_CURVE('',#526,#526,#418,.T.);
#671=EDGE_CURVE('',#526,#467,#146,.T.);
#672=EDGE_CURVE('',#527,#527,#419,.T.);
#673=EDGE_CURVE('',#527,#468,#147,.T.);
#674=EDGE_CURVE('',#528,#528,#420,.T.);
#675=EDGE_CURVE('',#528,#469,#148,.T.);
#676=EDGE_CURVE('',#529,#517,#421,.T.);
#677=EDGE_CURVE('',#462,#529,#149,.T.);
#678=EDGE_CURVE('',#474,#529,#150,.T.);
#679=EDGE_CURVE('',#525,#522,#151,.T.);
#680=ORIENTED_EDGE('',*,*,#530,.T.);
#681=ORIENTED_EDGE('',*,*,#531,.T.);
#682=ORIENTED_EDGE('',*,*,#532,.T.);
#683=ORIENTED_EDGE('',*,*,#533,.T.);
#684=ORIENTED_EDGE('',*,*,#531,.F.);
#685=ORIENTED_EDGE('',*,*,#534,.T.);
#686=ORIENTED_EDGE('',*,*,#535,.F.);
#687=ORIENTED_EDGE('',*,*,#536,.F.);
#688=ORIENTED_EDGE('',*,*,#537,.T.);
#689=ORIENTED_EDGE('',*,*,#538,.T.);
#690=ORIENTED_EDGE('',*,*,#539,.T.);
#691=ORIENTED_EDGE('',*,*,#540,.T.);
#692=ORIENTED_EDGE('',*,*,#533,.F.);
#693=ORIENTED_EDGE('',*,*,#541,.T.);
#694=ORIENTED_EDGE('',*,*,#542,.T.);
#695=ORIENTED_EDGE('',*,*,#543,.T.);
#696=ORIENTED_EDGE('',*,*,#538,.F.);
#697=ORIENTED_EDGE('',*,*,#544,.T.);
#698=ORIENTED_EDGE('',*,*,#545,.T.);
#699=ORIENTED_EDGE('',*,*,#546,.T.);
#700=ORIENTED_EDGE('',*,*,#547,.T.);
#701=ORIENTED_EDGE('',*,*,#548,.T.);
#702=ORIENTED_EDGE('',*,*,#549,.T.);
#703=ORIENTED_EDGE('',*,*,#550,.T.);
#704=ORIENTED_EDGE('',*,*,#551,.T.);
#705=ORIENTED_EDGE('',*,*,#552,.T.);
#706=ORIENTED_EDGE('',*,*,#553,.T.);
#707=ORIENTED_EDGE('',*,*,#554,.T.);
#708=ORIENTED_EDGE('',*,*,#555,.T.);
#709=ORIENTED_EDGE('',*,*,#556,.T.);
#710=ORIENTED_EDGE('',*,*,#557,.T.);
#711=ORIENTED_EDGE('',*,*,#558,.T.);
#712=ORIENTED_EDGE('',*,*,#559,.T.);
#713=ORIENTED_EDGE('',*,*,#560,.T.);
#714=ORIENTED_EDGE('',*,*,#561,.T.);
#715=ORIENTED_EDGE('',*,*,#562,.T.);
#716=ORIENTED_EDGE('',*,*,#563,.T.);
#717=ORIENTED_EDGE('',*,*,#561,.F.);
#718=ORIENTED_EDGE('',*,*,#564,.F.);
#719=ORIENTED_EDGE('',*,*,#565,.F.);
#720=ORIENTED_EDGE('',*,*,#566,.F.);
#721=ORIENTED_EDGE('',*,*,#567,.F.);
#722=ORIENTED_EDGE('',*,*,#568,.F.);
#723=ORIENTED_EDGE('',*,*,#569,.F.);
#724=ORIENTED_EDGE('',*,*,#570,.F.);
#725=ORIENTED_EDGE('',*,*,#571,.F.);
#726=ORIENTED_EDGE('',*,*,#572,.F.);
#727=ORIENTED_EDGE('',*,*,#573,.F.);
#728=ORIENTED_EDGE('',*,*,#574,.T.);
#729=ORIENTED_EDGE('',*,*,#575,.T.);
#730=ORIENTED_EDGE('',*,*,#576,.T.);
#731=ORIENTED_EDGE('',*,*,#567,.T.);
#732=ORIENTED_EDGE('',*,*,#563,.F.);
#733=ORIENTED_EDGE('',*,*,#577,.F.);
#734=ORIENTED_EDGE('',*,*,#578,.T.);
#735=ORIENTED_EDGE('',*,*,#579,.T.);
#736=ORIENTED_EDGE('',*,*,#575,.F.);
#737=ORIENTED_EDGE('',*,*,#580,.F.);
#738=ORIENTED_EDGE('',*,*,#581,.F.);
#739=ORIENTED_EDGE('',*,*,#582,.F.);
#740=ORIENTED_EDGE('',*,*,#583,.F.);
#741=ORIENTED_EDGE('',*,*,#584,.T.);
#742=ORIENTED_EDGE('',*,*,#585,.F.);
#743=ORIENTED_EDGE('',*,*,#586,.F.);
#744=ORIENTED_EDGE('',*,*,#587,.F.);
#745=ORIENTED_EDGE('',*,*,#588,.T.);
#746=ORIENTED_EDGE('',*,*,#589,.F.);
#747=ORIENTED_EDGE('',*,*,#590,.F.);
#748=ORIENTED_EDGE('',*,*,#591,.T.);
#749=ORIENTED_EDGE('',*,*,#589,.T.);
#750=ORIENTED_EDGE('',*,*,#592,.T.);
#751=ORIENTED_EDGE('',*,*,#593,.T.);
#752=ORIENTED_EDGE('',*,*,#594,.F.);
#753=ORIENTED_EDGE('',*,*,#595,.F.);
#754=ORIENTED_EDGE('',*,*,#596,.F.);
#755=ORIENTED_EDGE('',*,*,#578,.F.);
#756=ORIENTED_EDGE('',*,*,#597,.F.);
#757=ORIENTED_EDGE('',*,*,#598,.F.);
#758=ORIENTED_EDGE('',*,*,#599,.F.);
#759=ORIENTED_EDGE('',*,*,#600,.F.);
#760=ORIENTED_EDGE('',*,*,#601,.F.);
#761=ORIENTED_EDGE('',*,*,#602,.F.);
#762=ORIENTED_EDGE('',*,*,#603,.F.);
#763=ORIENTED_EDGE('',*,*,#604,.F.);
#764=ORIENTED_EDGE('',*,*,#605,.F.);
#765=ORIENTED_EDGE('',*,*,#606,.F.);
#766=ORIENTED_EDGE('',*,*,#607,.F.);
#767=ORIENTED_EDGE('',*,*,#608,.F.);
#768=ORIENTED_EDGE('',*,*,#609,.F.);
#769=ORIENTED_EDGE('',*,*,#610,.F.);
#770=ORIENTED_EDGE('',*,*,#611,.F.);
#771=ORIENTED_EDGE('',*,*,#612,.F.);
#772=ORIENTED_EDGE('',*,*,#613,.F.);
#773=ORIENTED_EDGE('',*,*,#614,.F.);
#774=ORIENTED_EDGE('',*,*,#615,.F.);
#775=ORIENTED_EDGE('',*,*,#616,.F.);
#776=ORIENTED_EDGE('',*,*,#617,.T.);
#777=ORIENTED_EDGE('',*,*,#597,.T.);
#778=ORIENTED_EDGE('',*,*,#618,.T.);
#779=ORIENTED_EDGE('',*,*,#544,.F.);
#780=ORIENTED_EDGE('',*,*,#537,.F.);
#781=ORIENTED_EDGE('',*,*,#619,.T.);
#782=ORIENTED_EDGE('',*,*,#592,.F.);
#783=ORIENTED_EDGE('',*,*,#588,.F.);
#784=ORIENTED_EDGE('',*,*,#620,.F.);
#785=ORIENTED_EDGE('',*,*,#582,.T.);
#786=ORIENTED_EDGE('',*,*,#621,.F.);
#787=ORIENTED_EDGE('',*,*,#622,.F.);
#788=ORIENTED_EDGE('',*,*,#623,.T.);
#789=ORIENTED_EDGE('',*,*,#624,.F.);
#790=ORIENTED_EDGE('',*,*,#625,.T.);
#791=ORIENTED_EDGE('',*,*,#626,.F.);
#792=ORIENTED_EDGE('',*,*,#534,.F.);
#793=ORIENTED_EDGE('',*,*,#530,.F.);
#794=ORIENTED_EDGE('',*,*,#558,.F.);
#795=ORIENTED_EDGE('',*,*,#627,.F.);
#796=ORIENTED_EDGE('',*,*,#599,.T.);
#797=ORIENTED_EDGE('',*,*,#628,.F.);
#798=ORIENTED_EDGE('',*,*,#629,.T.);
#799=ORIENTED_EDGE('',*,*,#630,.F.);
#800=ORIENTED_EDGE('',*,*,#625,.F.);
#801=ORIENTED_EDGE('',*,*,#626,.T.);
#802=ORIENTED_EDGE('',*,*,#630,.T.);
#803=ORIENTED_EDGE('',*,*,#631,.T.);
#804=ORIENTED_EDGE('',*,*,#535,.T.);
#805=ORIENTED_EDGE('',*,*,#632,.F.);
#806=ORIENTED_EDGE('',*,*,#633,.T.);
#807=ORIENTED_EDGE('',*,*,#634,.F.);
#808=ORIENTED_EDGE('',*,*,#584,.F.);
#809=ORIENTED_EDGE('',*,*,#586,.T.);
#810=ORIENTED_EDGE('',*,*,#635,.F.);
#811=ORIENTED_EDGE('',*,*,#636,.F.);
#812=ORIENTED_EDGE('',*,*,#564,.T.);
#813=ORIENTED_EDGE('',*,*,#560,.F.);
#814=ORIENTED_EDGE('',*,*,#608,.T.);
#815=ORIENTED_EDGE('',*,*,#637,.T.);
#816=ORIENTED_EDGE('',*,*,#549,.F.);
#817=ORIENTED_EDGE('',*,*,#638,.F.);
#818=ORIENTED_EDGE('',*,*,#607,.T.);
#819=ORIENTED_EDGE('',*,*,#639,.T.);
#820=ORIENTED_EDGE('',*,*,#550,.F.);
#821=ORIENTED_EDGE('',*,*,#637,.F.);
#822=ORIENTED_EDGE('',*,*,#606,.T.);
#823=ORIENTED_EDGE('',*,*,#640,.T.);
#824=ORIENTED_EDGE('',*,*,#551,.F.);
#825=ORIENTED_EDGE('',*,*,#639,.F.);
#826=ORIENTED_EDGE('',*,*,#605,.T.);
#827=ORIENTED_EDGE('',*,*,#641,.T.);
#828=ORIENTED_EDGE('',*,*,#552,.F.);
#829=ORIENTED_EDGE('',*,*,#640,.F.);
#830=ORIENTED_EDGE('',*,*,#604,.T.);
#831=ORIENTED_EDGE('',*,*,#642,.T.);
#832=ORIENTED_EDGE('',*,*,#553,.F.);
#833=ORIENTED_EDGE('',*,*,#641,.F.);
#834=ORIENTED_EDGE('',*,*,#603,.T.);
#835=ORIENTED_EDGE('',*,*,#643,.T.);
#836=ORIENTED_EDGE('',*,*,#554,.F.);
#837=ORIENTED_EDGE('',*,*,#642,.F.);
#838=ORIENTED_EDGE('',*,*,#602,.T.);
#839=ORIENTED_EDGE('',*,*,#644,.T.);
#840=ORIENTED_EDGE('',*,*,#555,.F.);
#841=ORIENTED_EDGE('',*,*,#643,.F.);
#842=ORIENTED_EDGE('',*,*,#601,.T.);
#843=ORIENTED_EDGE('',*,*,#645,.T.);
#844=ORIENTED_EDGE('',*,*,#556,.F.);
#845=ORIENTED_EDGE('',*,*,#644,.F.);
#846=ORIENTED_EDGE('',*,*,#600,.T.);
#847=ORIENTED_EDGE('',*,*,#627,.T.);
#848=ORIENTED_EDGE('',*,*,#557,.F.);
#849=ORIENTED_EDGE('',*,*,#645,.F.);
#850=ORIENTED_EDGE('',*,*,#559,.F.);
#851=ORIENTED_EDGE('',*,*,#646,.T.);
#852=ORIENTED_EDGE('',*,*,#614,.T.);
#853=ORIENTED_EDGE('',*,*,#646,.F.);
#854=ORIENTED_EDGE('',*,*,#609,.T.);
#855=ORIENTED_EDGE('',*,*,#638,.T.);
#856=ORIENTED_EDGE('',*,*,#548,.F.);
#857=ORIENTED_EDGE('',*,*,#647,.F.);
#858=ORIENTED_EDGE('',*,*,#610,.T.);
#859=ORIENTED_EDGE('',*,*,#647,.T.);
#860=ORIENTED_EDGE('',*,*,#547,.F.);
#861=ORIENTED_EDGE('',*,*,#648,.F.);
#862=ORIENTED_EDGE('',*,*,#611,.T.);
#863=ORIENTED_EDGE('',*,*,#648,.T.);
#864=ORIENTED_EDGE('',*,*,#546,.F.);
#865=ORIENTED_EDGE('',*,*,#649,.F.);
#866=ORIENTED_EDGE('',*,*,#612,.T.);
#867=ORIENTED_EDGE('',*,*,#649,.T.);
#868=ORIENTED_EDGE('',*,*,#545,.F.);
#869=ORIENTED_EDGE('',*,*,#618,.F.);
#870=ORIENTED_EDGE('',*,*,#595,.T.);
#871=ORIENTED_EDGE('',*,*,#650,.T.);
#872=ORIENTED_EDGE('',*,*,#542,.F.);
#873=ORIENTED_EDGE('',*,*,#651,.F.);
#874=ORIENTED_EDGE('',*,*,#540,.F.);
#875=ORIENTED_EDGE('',*,*,#652,.T.);
#876=ORIENTED_EDGE('',*,*,#593,.F.);
#877=ORIENTED_EDGE('',*,*,#619,.F.);
#878=ORIENTED_EDGE('',*,*,#587,.T.);
#879=ORIENTED_EDGE('',*,*,#653,.T.);
#880=ORIENTED_EDGE('',*,*,#654,.F.);
#881=ORIENTED_EDGE('',*,*,#616,.T.);
#882=ORIENTED_EDGE('',*,*,#628,.T.);
#883=ORIENTED_EDGE('',*,*,#624,.T.);
#884=ORIENTED_EDGE('',*,*,#655,.F.);
#885=ORIENTED_EDGE('',*,*,#656,.T.);
#886=ORIENTED_EDGE('',*,*,#657,.F.);
#887=ORIENTED_EDGE('',*,*,#658,.T.);
#888=ORIENTED_EDGE('',*,*,#613,.T.);
#889=ORIENTED_EDGE('',*,*,#658,.F.);
#890=ORIENTED_EDGE('',*,*,#654,.T.);
#891=ORIENTED_EDGE('',*,*,#659,.T.);
#892=ORIENTED_EDGE('',*,*,#660,.F.);
#893=ORIENTED_EDGE('',*,*,#633,.F.);
#894=ORIENTED_EDGE('',*,*,#661,.F.);
#895=ORIENTED_EDGE('',*,*,#622,.T.);
#896=ORIENTED_EDGE('',*,*,#662,.F.);
#897=ORIENTED_EDGE('',*,*,#663,.F.);
#898=ORIENTED_EDGE('',*,*,#655,.T.);
#899=ORIENTED_EDGE('',*,*,#623,.F.);
#900=ORIENTED_EDGE('',*,*,#598,.T.);
#901=ORIENTED_EDGE('',*,*,#617,.F.);
#902=ORIENTED_EDGE('',*,*,#664,.F.);
#903=ORIENTED_EDGE('',*,*,#665,.T.);
#904=ORIENTED_EDGE('',*,*,#615,.T.);
#905=ORIENTED_EDGE('',*,*,#665,.F.);
#906=ORIENTED_EDGE('',*,*,#594,.T.);
#907=ORIENTED_EDGE('',*,*,#577,.T.);
#908=ORIENTED_EDGE('',*,*,#562,.F.);
#909=ORIENTED_EDGE('',*,*,#570,.T.);
#910=ORIENTED_EDGE('',*,*,#666,.T.);
#911=ORIENTED_EDGE('',*,*,#667,.F.);
#912=ORIENTED_EDGE('',*,*,#659,.F.);
#913=ORIENTED_EDGE('',*,*,#653,.F.);
#914=ORIENTED_EDGE('',*,*,#590,.T.);
#915=ORIENTED_EDGE('',*,*,#591,.F.);
#916=ORIENTED_EDGE('',*,*,#652,.F.);
#917=ORIENTED_EDGE('',*,*,#539,.F.);
#918=ORIENTED_EDGE('',*,*,#543,.F.);
#919=ORIENTED_EDGE('',*,*,#650,.F.);
#920=ORIENTED_EDGE('',*,*,#569,.T.);
#921=ORIENTED_EDGE('',*,*,#668,.T.);
#922=ORIENTED_EDGE('',*,*,#669,.F.);
#923=ORIENTED_EDGE('',*,*,#666,.F.);
#924=ORIENTED_EDGE('',*,*,#670,.F.);
#925=ORIENTED_EDGE('',*,*,#671,.T.);
#926=ORIENTED_EDGE('',*,*,#571,.T.);
#927=ORIENTED_EDGE('',*,*,#671,.F.);
#928=ORIENTED_EDGE('',*,*,#672,.F.);
#929=ORIENTED_EDGE('',*,*,#673,.T.);
#930=ORIENTED_EDGE('',*,*,#572,.T.);
#931=ORIENTED_EDGE('',*,*,#673,.F.);
#932=ORIENTED_EDGE('',*,*,#674,.F.);
#933=ORIENTED_EDGE('',*,*,#675,.T.);
#934=ORIENTED_EDGE('',*,*,#573,.T.);
#935=ORIENTED_EDGE('',*,*,#675,.F.);
#936=ORIENTED_EDGE('',*,*,#565,.T.);
#937=ORIENTED_EDGE('',*,*,#636,.T.);
#938=ORIENTED_EDGE('',*,*,#676,.F.);
#939=ORIENTED_EDGE('',*,*,#677,.F.);
#940=ORIENTED_EDGE('',*,*,#580,.T.);
#941=ORIENTED_EDGE('',*,*,#574,.F.);
#942=ORIENTED_EDGE('',*,*,#566,.T.);
#943=ORIENTED_EDGE('',*,*,#677,.T.);
#944=ORIENTED_EDGE('',*,*,#678,.F.);
#945=ORIENTED_EDGE('',*,*,#596,.T.);
#946=ORIENTED_EDGE('',*,*,#651,.T.);
#947=ORIENTED_EDGE('',*,*,#541,.F.);
#948=ORIENTED_EDGE('',*,*,#532,.F.);
#949=ORIENTED_EDGE('',*,*,#536,.T.);
#950=ORIENTED_EDGE('',*,*,#631,.F.);
#951=ORIENTED_EDGE('',*,*,#629,.F.);
#952=ORIENTED_EDGE('',*,*,#656,.F.);
#953=ORIENTED_EDGE('',*,*,#663,.T.);
#954=ORIENTED_EDGE('',*,*,#679,.F.);
#955=ORIENTED_EDGE('',*,*,#668,.F.);
#956=ORIENTED_EDGE('',*,*,#568,.T.);
#957=ORIENTED_EDGE('',*,*,#576,.F.);
#958=ORIENTED_EDGE('',*,*,#579,.F.);
#959=ORIENTED_EDGE('',*,*,#669,.T.);
#960=ORIENTED_EDGE('',*,*,#679,.T.);
#961=ORIENTED_EDGE('',*,*,#662,.T.);
#962=ORIENTED_EDGE('',*,*,#621,.T.);
#963=ORIENTED_EDGE('',*,*,#581,.T.);
#964=ORIENTED_EDGE('',*,*,#678,.T.);
#965=ORIENTED_EDGE('',*,*,#676,.T.);
#966=ORIENTED_EDGE('',*,*,#635,.T.);
#967=ORIENTED_EDGE('',*,*,#585,.T.);
#968=ORIENTED_EDGE('',*,*,#634,.T.);
#969=ORIENTED_EDGE('',*,*,#660,.T.);
#970=ORIENTED_EDGE('',*,*,#667,.T.);
#971=ORIENTED_EDGE('',*,*,#657,.T.);
#972=ORIENTED_EDGE('',*,*,#664,.T.);
#973=ORIENTED_EDGE('',*,*,#674,.T.);
#974=ORIENTED_EDGE('',*,*,#672,.T.);
#975=ORIENTED_EDGE('',*,*,#670,.T.);
#976=ORIENTED_EDGE('',*,*,#583,.T.);
#977=ORIENTED_EDGE('',*,*,#620,.T.);
#978=ORIENTED_EDGE('',*,*,#661,.T.);
#979=ORIENTED_EDGE('',*,*,#632,.T.);
#980=TOROIDAL_SURFACE('',#1047,34.000000551343,3.);
#981=TOROIDAL_SURFACE('',#1052,34.000000551343,3.);
#982=TOROIDAL_SURFACE('',#1060,53.0000007450581,3.);
#983=TOROIDAL_SURFACE('',#1070,53.0000007450581,3.);
#984=ADVANCED_FACE('',(#265),#980,.F.);
#985=ADVANCED_FACE('',(#266),#248,.F.);
#986=ADVANCED_FACE('',(#267),#981,.F.);
#987=ADVANCED_FACE('',(#268,#15),#28,.T.);
#988=ADVANCED_FACE('',(#269),#982,.F.);
#989=ADVANCED_FACE('',(#270,#16,#17,#18),#29,.F.);
#990=ADVANCED_FACE('',(#271),#983,.F.);
#991=ADVANCED_FACE('',(#272),#249,.T.);
#992=ADVANCED_FACE('',(#273),#250,.T.);
#993=ADVANCED_FACE('',(#274),#30,.T.);
#994=ADVANCED_FACE('',(#275,#19,#20,#21,#22),#31,.F.);
#995=ADVANCED_FACE('',(#276),#32,.T.);
#996=ADVANCED_FACE('',(#277),#33,.T.);
#997=ADVANCED_FACE('',(#278),#34,.T.);
#998=ADVANCED_FACE('',(#279),#251,.T.);
#999=ADVANCED_FACE('',(#280),#35,.T.);
#1000=ADVANCED_FACE('',(#281),#36,.T.);
#1001=ADVANCED_FACE('',(#282),#37,.T.);
#1002=ADVANCED_FACE('',(#283),#252,.F.);
#1003=ADVANCED_FACE('',(#284),#38,.T.);
#1004=ADVANCED_FACE('',(#285),#39,.T.);
#1005=ADVANCED_FACE('',(#286),#40,.T.);
#1006=ADVANCED_FACE('',(#287),#253,.F.);
#1007=ADVANCED_FACE('',(#288),#41,.T.);
#1008=ADVANCED_FACE('',(#289),#42,.T.);
#1009=ADVANCED_FACE('',(#290),#43,.T.);
#1010=ADVANCED_FACE('',(#291),#44,.T.);
#1011=ADVANCED_FACE('',(#292),#254,.F.);
#1012=ADVANCED_FACE('',(#293),#45,.T.);
#1013=ADVANCED_FACE('',(#294),#46,.T.);
#1014=ADVANCED_FACE('',(#295),#47,.T.);
#1015=ADVANCED_FACE('',(#296),#48,.T.);
#1016=ADVANCED_FACE('',(#297),#255,.T.);
#1017=ADVANCED_FACE('',(#298),#256,.F.);
#1018=ADVANCED_FACE('',(#299),#49,.T.);
#1019=ADVANCED_FACE('',(#300),#50,.T.);
#1020=ADVANCED_FACE('',(#301),#257,.F.);
#1021=ADVANCED_FACE('',(#302),#258,.F.);
#1022=ADVANCED_FACE('',(#303),#259,.F.);
#1023=ADVANCED_FACE('',(#304),#51,.T.);
#1024=ADVANCED_FACE('',(#305),#260,.T.);
#1025=ADVANCED_FACE('',(#306),#261,.F.);
#1026=ADVANCED_FACE('',(#307),#262,.F.);
#1027=ADVANCED_FACE('',(#308),#263,.F.);
#1028=ADVANCED_FACE('',(#309),#264,.F.);
#1029=ADVANCED_FACE('',(#310),#52,.T.);
#1030=ADVANCED_FACE('',(#311),#53,.T.);
#1031=ADVANCED_FACE('',(#312,#23,#24,#25,#26,#27),#54,.T.);
#1032=ADVANCED_FACE('',(#313),#55,.T.);
#1033=CLOSED_SHELL('',(#984,#985,#986,#987,#988,#989,#990,#991,#992,#993,
#994,#995,#996,#997,#998,#999,#1000,#1001,#1002,#1003,#1004,#1005,#1006,
#1007,#1008,#1009,#1010,#1011,#1012,#1013,#1014,#1015,#1016,#1017,#1018,
#1019,#1020,#1021,#1022,#1023,#1024,#1025,#1026,#1027,#1028,#1029,#1030,
#1031,#1032));
#1034=DERIVED_UNIT_ELEMENT(#1036,1.);
#1035=DERIVED_UNIT_ELEMENT(#1807,-3.);
#1036=(
MASS_UNIT()
NAMED_UNIT(*)
SI_UNIT(.KILO.,.GRAM.)
);
#1037=DERIVED_UNIT((#1034,#1035));
#1038=MEASURE_REPRESENTATION_ITEM('density measure',
POSITIVE_RATIO_MEASURE(7850.),#1037);
#1039=PROPERTY_DEFINITION_REPRESENTATION(#1044,#1041);
#1040=PROPERTY_DEFINITION_REPRESENTATION(#1045,#1042);
#1041=REPRESENTATION('material name',(#1043),#1804);
#1042=REPRESENTATION('density',(#1038),#1804);
#1043=DESCRIPTIVE_REPRESENTATION_ITEM('Steel','Steel');
#1044=PROPERTY_DEFINITION('material property','material name',#1814);
#1045=PROPERTY_DEFINITION('material property','density of part',#1814);
#1046=AXIS2_PLACEMENT_3D('',#1430,#1142,#1143);
#1047=AXIS2_PLACEMENT_3D('',#1431,#1144,#1145);
#1048=AXIS2_PLACEMENT_3D('',#1445,#1146,#1147);
#1049=AXIS2_PLACEMENT_3D('',#1457,#1148,#1149);
#1050=AXIS2_PLACEMENT_3D('',#1458,#1150,#1151);
#1051=AXIS2_PLACEMENT_3D('',#1462,#1153,#1154);
#1052=AXIS2_PLACEMENT_3D('',#1464,#1156,#1157);
#1053=AXIS2_PLACEMENT_3D('',#1478,#1158,#1159);
#1054=AXIS2_PLACEMENT_3D('',#1490,#1160,#1161);
#1055=AXIS2_PLACEMENT_3D('',#1491,#1162,#1163);
#1056=AXIS2_PLACEMENT_3D('',#1495,#1165,#1166);
#1057=AXIS2_PLACEMENT_3D('',#1508,#1173,#1174);
#1058=AXIS2_PLACEMENT_3D('',#1516,#1178,#1179);
#1059=AXIS2_PLACEMENT_3D('',#1527,#1185,#1186);
#1060=AXIS2_PLACEMENT_3D('',#1528,#1187,#1188);
#1061=AXIS2_PLACEMENT_3D('',#1542,#1189,#1190);
#1062=AXIS2_PLACEMENT_3D('',#1554,#1191,#1192);
#1063=AXIS2_PLACEMENT_3D('',#1555,#1193,#1194);
#1064=AXIS2_PLACEMENT_3D('',#1559,#1196,#1197);
#1065=AXIS2_PLACEMENT_3D('',#1563,#1199,#1200);
#1066=AXIS2_PLACEMENT_3D('',#1567,#1202,#1203);
#1067=AXIS2_PLACEMENT_3D('',#1570,#1205,#1206);
#1068=AXIS2_PLACEMENT_3D('',#1572,#1207,#1208);
#1069=AXIS2_PLACEMENT_3D('',#1574,#1209,#1210);
#1070=AXIS2_PLACEMENT_3D('',#1575,#1211,#1212);
#1071=AXIS2_PLACEMENT_3D('',#1588,#1213,#1214);
#1072=AXIS2_PLACEMENT_3D('',#1599,#1215,#1216);
#1073=AXIS2_PLACEMENT_3D('',#1603,#1218,#1219);
#1074=AXIS2_PLACEMENT_3D('',#1608,#1222,#1223);
#1075=AXIS2_PLACEMENT_3D('',#1612,#1225,#1226);
#1076=AXIS2_PLACEMENT_3D('',#1616,#1228,#1229);
#1077=AXIS2_PLACEMENT_3D('',#1618,#1231,#1232);
#1078=AXIS2_PLACEMENT_3D('',#1621,#1233,#1234);
#1079=AXIS2_PLACEMENT_3D('',#1625,#1236,#1237);
#1080=AXIS2_PLACEMENT_3D('',#1627,#1239,#1240);
#1081=AXIS2_PLACEMENT_3D('',#1632,#1243,#1244);
#1082=AXIS2_PLACEMENT_3D('',#1633,#1245,#1246);
#1083=AXIS2_PLACEMENT_3D('',#1637,#1248,#1249);
#1084=AXIS2_PLACEMENT_3D('',#1643,#1252,#1253);
#1085=AXIS2_PLACEMENT_3D('',#1655,#1259,#1260);
#1086=AXIS2_PLACEMENT_3D('',#1663,#1264,#1265);
#1087=AXIS2_PLACEMENT_3D('',#1672,#1270,#1271);
#1088=AXIS2_PLACEMENT_3D('',#1674,#1272,#1273);
#1089=AXIS2_PLACEMENT_3D('',#1676,#1274,#1275);
#1090=AXIS2_PLACEMENT_3D('',#1677,#1276,#1277);
#1091=AXIS2_PLACEMENT_3D('',#1683,#1282,#1283);
#1092=AXIS2_PLACEMENT_3D('',#1689,#1287,#1288);
#1093=AXIS2_PLACEMENT_3D('',#1698,#1294,#1295);
#1094=AXIS2_PLACEMENT_3D('',#1700,#1296,#1297);
#1095=AXIS2_PLACEMENT_3D('',#1703,#1299,#1300);
#1096=AXIS2_PLACEMENT_3D('',#1704,#1301,#1302);
#1097=AXIS2_PLACEMENT_3D('',#1706,#1304,#1305);
#1098=AXIS2_PLACEMENT_3D('',#1712,#1309,#1310);
#1099=AXIS2_PLACEMENT_3D('',#1716,#1313,#1314);
#1100=AXIS2_PLACEMENT_3D('',#1719,#1317,#1318);
#1101=AXIS2_PLACEMENT_3D('',#1721,#1320,#1321);
#1102=AXIS2_PLACEMENT_3D('',#1723,#1323,#1324);
#1103=AXIS2_PLACEMENT_3D('',#1725,#1326,#1327);
#1104=AXIS2_PLACEMENT_3D('',#1727,#1329,#1330);
#1105=AXIS2_PLACEMENT_3D('',#1729,#1332,#1333);
#1106=AXIS2_PLACEMENT_3D('',#1731,#1335,#1336);
#1107=AXIS2_PLACEMENT_3D('',#1733,#1338,#1339);
#1108=AXIS2_PLACEMENT_3D('',#1734,#1340,#1341);
#1109=AXIS2_PLACEMENT_3D('',#1736,#1343,#1344);
#1110=AXIS2_PLACEMENT_3D('',#1738,#1346,#1347);
#1111=AXIS2_PLACEMENT_3D('',#1740,#1349,#1350);
#1112=AXIS2_PLACEMENT_3D('',#1742,#1352,#1353);
#1113=AXIS2_PLACEMENT_3D('',#1743,#1354,#1355);
#1114=AXIS2_PLACEMENT_3D('',#1746,#1358,#1359);
#1115=AXIS2_PLACEMENT_3D('',#1748,#1361,#1362);
#1116=AXIS2_PLACEMENT_3D('',#1751,#1364,#1365);
#1117=AXIS2_PLACEMENT_3D('',#1752,#1366,#1367);
#1118=AXIS2_PLACEMENT_3D('',#1754,#1368,#1369);
#1119=AXIS2_PLACEMENT_3D('',#1756,#1371,#1372);
#1120=AXIS2_PLACEMENT_3D('',#1758,#1373,#1374);
#1121=AXIS2_PLACEMENT_3D('',#1760,#1376,#1377);
#1122=AXIS2_PLACEMENT_3D('',#1763,#1379,#1380);
#1123=AXIS2_PLACEMENT_3D('',#1764,#1381,#1382);
#1124=AXIS2_PLACEMENT_3D('',#1766,#1383,#1384);
#1125=AXIS2_PLACEMENT_3D('',#1768,#1386,#1387);
#1126=AXIS2_PLACEMENT_3D('',#1770,#1388,#1389);
#1127=AXIS2_PLACEMENT_3D('',#1772,#1391,#1392);
#1128=AXIS2_PLACEMENT_3D('',#1776,#1395,#1396);
#1129=AXIS2_PLACEMENT_3D('',#1779,#1398,#1399);
#1130=AXIS2_PLACEMENT_3D('',#1780,#1400,#1401);
#1131=AXIS2_PLACEMENT_3D('',#1782,#1402,#1403);
#1132=AXIS2_PLACEMENT_3D('',#1784,#1405,#1406);
#1133=AXIS2_PLACEMENT_3D('',#1786,#1407,#1408);
#1134=AXIS2_PLACEMENT_3D('',#1788,#1410,#1411);
#1135=AXIS2_PLACEMENT_3D('',#1790,#1412,#1413);
#1136=AXIS2_PLACEMENT_3D('',#1792,#1415,#1416);
#1137=AXIS2_PLACEMENT_3D('',#1794,#1417,#1418);
#1138=AXIS2_PLACEMENT_3D('',#1796,#1420,#1421);
#1139=AXIS2_PLACEMENT_3D('',#1798,#1423,#1424);
#1140=AXIS2_PLACEMENT_3D('',#1800,#1426,#1427);
#1141=AXIS2_PLACEMENT_3D('',#1801,#1428,#1429);
#1142=DIRECTION('axis',(0.,0.,1.));
#1143=DIRECTION('refdir',(1.,0.,0.));
#1144=DIRECTION('center_axis',(0.,0.,-1.));
#1145=DIRECTION('ref_axis',(-1.,0.,0.));
#1146=DIRECTION('center_axis',(0.,0.,1.));
#1147=DIRECTION('ref_axis',(-0.91382130542816,-0.40611651252513,0.));
#1148=DIRECTION('center_axis',(0.,0.,-1.));
#1149=DIRECTION('ref_axis',(-0.91382130542816,-0.40611651252513,0.));
#1150=DIRECTION('center_axis',(0.,0.,1.));
#1151=DIRECTION('ref_axis',(-0.936243679766961,-0.351351351351351,0.));
#1152=DIRECTION('',(0.,0.,1.));
#1153=DIRECTION('center_axis',(0.,0.,-1.));
#1154=DIRECTION('ref_axis',(-0.936243679766961,-0.351351351351351,0.));
#1155=DIRECTION('',(0.,0.,1.));
#1156=DIRECTION('center_axis',(0.,0.,-1.));
#1157=DIRECTION('ref_axis',(-1.,0.,0.));
#1158=DIRECTION('center_axis',(0.,0.,-1.));
#1159=DIRECTION('ref_axis',(-0.913821305428159,0.406116512525131,0.));
#1160=DIRECTION('center_axis',(0.,0.,1.));
#1161=DIRECTION('ref_axis',(-0.913821305428159,0.406116512525131,0.));
#1162=DIRECTION('center_axis',(0.,0.,1.));
#1163=DIRECTION('ref_axis',(1.,0.,0.));
#1164=DIRECTION('',(1.,0.,0.));
#1165=DIRECTION('center_axis',(0.,0.,1.));
#1166=DIRECTION('ref_axis',(0.,-1.,0.));
#1167=DIRECTION('',(-1.,0.,0.));
#1168=DIRECTION('',(1.,0.,0.));
#1169=DIRECTION('',(0.821505292466502,-0.570200889555188,0.));
#1170=DIRECTION('',(0.499999999999999,-0.866025403784439,0.));
#1171=DIRECTION('',(0.866025403784438,0.500000000000001,0.));
#1172=DIRECTION('',(-0.500000000000001,0.866025403784438,0.));
#1173=DIRECTION('center_axis',(0.,0.,-1.));
#1174=DIRECTION('ref_axis',(0.995730497898971,0.0923080470699477,0.));
#1175=DIRECTION('',(-1.,0.,0.));
#1176=DIRECTION('',(0.,-1.,0.));
#1177=DIRECTION('',(1.,0.,0.));
#1178=DIRECTION('center_axis',(0.,0.,-1.));
#1179=DIRECTION('ref_axis',(-0.41792413521318,-0.90848193003841,0.));
#1180=DIRECTION('',(0.499999999999999,0.866025403784439,0.));
#1181=DIRECTION('',(-0.866025403784438,0.500000000000001,0.));
#1182=DIRECTION('',(-0.500000000000007,-0.866025403784435,0.));
#1183=DIRECTION('',(-0.821506488698182,-0.570199166104952,0.));
#1184=DIRECTION('',(-1.,0.,0.));
#1185=DIRECTION('center_axis',(0.,0.,-1.));
#1186=DIRECTION('ref_axis',(1.,0.,0.));
#1187=DIRECTION('center_axis',(0.,0.,-1.));
#1188=DIRECTION('ref_axis',(-1.,0.,0.));
#1189=DIRECTION('center_axis',(0.,0.,-1.));
#1190=DIRECTION('ref_axis',(-0.953856095987304,0.300264130638108,0.));
#1191=DIRECTION('center_axis',(0.,0.,1.));
#1192=DIRECTION('ref_axis',(-0.953856095987304,0.300264130638108,0.));
#1193=DIRECTION('center_axis',(0.,0.,1.));
#1194=DIRECTION('ref_axis',(1.,0.,0.));
#1195=DIRECTION('',(1.,0.,0.));
#1196=DIRECTION('center_axis',(0.,0.,-1.));
#1197=DIRECTION('ref_axis',(0.,1.,0.));
#1198=DIRECTION('',(-1.,0.,0.));
#1199=DIRECTION('center_axis',(0.,0.,-1.));
#1200=DIRECTION('ref_axis',(-0.953856095987304,-0.300264130638108,0.));
#1201=DIRECTION('',(1.,0.,0.));
#1202=DIRECTION('center_axis',(0.,0.,1.));
#1203=DIRECTION('ref_axis',(0.,1.,0.));
#1204=DIRECTION('',(-1.,0.,0.));
#1205=DIRECTION('center_axis',(0.,0.,-1.));
#1206=DIRECTION('ref_axis',(1.,0.,0.));
#1207=DIRECTION('center_axis',(0.,0.,-1.));
#1208=DIRECTION('ref_axis',(1.,0.,0.));
#1209=DIRECTION('center_axis',(0.,0.,-1.));
#1210=DIRECTION('ref_axis',(1.,0.,0.));
#1211=DIRECTION('center_axis',(0.,0.,-1.));
#1212=DIRECTION('ref_axis',(-1.,0.,0.));
#1213=DIRECTION('center_axis',(0.,0.,1.));
#1214=DIRECTION('ref_axis',(-0.953856095987304,-0.300264130638108,0.));
#1215=DIRECTION('center_axis',(0.,0.,1.));
#1216=DIRECTION('ref_axis',(-0.9404254356407,0.34,0.));
#1217=DIRECTION('',(0.,0.,1.));
#1218=DIRECTION('center_axis',(0.,0.,1.));
#1219=DIRECTION('ref_axis',(-0.9404254356407,0.34,0.));
#1220=DIRECTION('',(0.,0.,1.));
#1221=DIRECTION('',(0.,0.,-1.));
#1222=DIRECTION('center_axis',(0.,0.,1.));
#1223=DIRECTION('ref_axis',(-0.9404254356407,0.34,0.));
#1224=DIRECTION('',(0.,0.,1.));
#1225=DIRECTION('center_axis',(0.,0.,1.));
#1226=DIRECTION('ref_axis',(-0.9404254356407,0.34,0.));
#1227=DIRECTION('',(0.,0.,1.));
#1228=DIRECTION('center_axis',(0.,0.,1.));
#1229=DIRECTION('ref_axis',(-0.9404254356407,0.34,0.));
#1230=DIRECTION('',(0.,0.,1.));
#1231=DIRECTION('center_axis',(0.,0.,1.));
#1232=DIRECTION('ref_axis',(-0.899996347424833,0.435897435897436,0.));
#1233=DIRECTION('center_axis',(0.,0.,-1.));
#1234=DIRECTION('ref_axis',(-0.899996347424833,0.435897435897436,0.));
#1235=DIRECTION('',(0.,0.,1.));
#1236=DIRECTION('center_axis',(0.,0.,1.));
#1237=DIRECTION('ref_axis',(-0.899996347424833,0.435897435897436,0.));
#1238=DIRECTION('',(0.,0.,1.));
#1239=DIRECTION('center_axis',(0.,0.,1.));
#1240=DIRECTION('ref_axis',(1.,0.,0.));
#1241=DIRECTION('',(-1.,0.,0.));
#1242=DIRECTION('',(1.,0.,0.));
#1243=DIRECTION('center_axis',(0.,0.,-1.));
#1244=DIRECTION('ref_axis',(-0.888198741900269,0.45945945945946,0.));
#1245=DIRECTION('center_axis',(0.,0.,1.));
#1246=DIRECTION('ref_axis',(1.,0.,0.));
#1247=DIRECTION('',(-1.,0.,0.));
#1248=DIRECTION('center_axis',(0.,0.,1.));
#1249=DIRECTION('ref_axis',(0.,-1.,0.));
#1250=DIRECTION('',(1.,0.,0.));
#1251=DIRECTION('',(1.,0.,0.));
#1252=DIRECTION('center_axis',(0.,0.,-1.));
#1253=DIRECTION('ref_axis',(-0.925896295822207,0.377777777777778,0.));
#1254=DIRECTION('',(-1.,0.,0.));
#1255=DIRECTION('',(-0.821506488698182,-0.570199166104952,0.));
#1256=DIRECTION('',(-0.500000000000007,-0.866025403784435,0.));
#1257=DIRECTION('',(-0.866025403784438,0.500000000000001,0.));
#1258=DIRECTION('',(0.5,0.866025403784439,0.));
#1259=DIRECTION('center_axis',(0.,0.,-1.));
#1260=DIRECTION('ref_axis',(-0.41792413521318,-0.90848193003841,0.));
#1261=DIRECTION('',(1.,0.,0.));
#1262=DIRECTION('',(0.,-1.,0.));
#1263=DIRECTION('',(-1.,0.,0.));
#1264=DIRECTION('center_axis',(0.,0.,-1.));
#1265=DIRECTION('ref_axis',(0.995730497898971,0.0923080470699477,0.));
#1266=DIRECTION('',(-0.500000000000001,0.866025403784438,0.));
#1267=DIRECTION('',(0.866025403784438,0.500000000000001,0.));
#1268=DIRECTION('',(0.5,-0.866025403784439,0.));
#1269=DIRECTION('',(0.821505292466502,-0.570200889555188,0.));
#1270=DIRECTION('center_axis',(0.,0.,-1.));
#1271=DIRECTION('ref_axis',(1.,0.,0.));
#1272=DIRECTION('center_axis',(0.,0.,-1.));
#1273=DIRECTION('ref_axis',(1.,0.,0.));
#1274=DIRECTION('center_axis',(0.,0.,-1.));
#1275=DIRECTION('ref_axis',(1.,0.,0.));
#1276=DIRECTION('center_axis',(0.,-1.,0.));
#1277=DIRECTION('ref_axis',(1.,0.,0.));
#1278=DIRECTION('',(1.,0.,0.));
#1279=DIRECTION('',(0.,0.,-1.));
#1280=DIRECTION('',(0.,0.,1.));
#1281=DIRECTION('',(0.,0.,1.));
#1282=DIRECTION('center_axis',(0.,1.,0.));
#1283=DIRECTION('ref_axis',(-1.,0.,0.));
#1284=DIRECTION('',(1.,0.,0.));
#1285=DIRECTION('',(-1.,0.,0.));
#1286=DIRECTION('',(0.,0.,1.));
#1287=DIRECTION('center_axis',(0.,1.,0.));
#1288=DIRECTION('ref_axis',(-1.,0.,0.));
#1289=DIRECTION('',(0.,0.,1.));
#1290=DIRECTION('',(-1.,0.,0.));
#1291=DIRECTION('',(0.,0.,1.));
#1292=DIRECTION('',(-1.,0.,0.));
#1293=DIRECTION('',(0.,0.,1.));
#1294=DIRECTION('center_axis',(0.,0.,1.));
#1295=DIRECTION('ref_axis',(-0.942809041582063,-0.333333333333333,0.));
#1296=DIRECTION('center_axis',(0.,0.,-1.));
#1297=DIRECTION('ref_axis',(-0.942809041582063,-0.333333333333333,0.));
#1298=DIRECTION('',(0.,0.,1.));
#1299=DIRECTION('center_axis',(0.,0.,1.));
#1300=DIRECTION('ref_axis',(-0.942809041582063,-0.333333333333333,0.));
#1301=DIRECTION('center_axis',(0.,0.,1.));
#1302=DIRECTION('ref_axis',(1.,0.,0.));
#1303=DIRECTION('',(1.,0.,0.));
#1304=DIRECTION('center_axis',(0.,-1.,0.));
#1305=DIRECTION('ref_axis',(1.,0.,0.));
#1306=DIRECTION('',(-1.,0.,0.));
#1307=DIRECTION('',(0.,0.,1.));
#1308=DIRECTION('',(1.,0.,0.));
#1309=DIRECTION('center_axis',(0.,-1.,0.));
#1310=DIRECTION('ref_axis',(1.,0.,0.));
#1311=DIRECTION('',(1.,0.,0.));
#1312=DIRECTION('',(0.,0.,1.));
#1313=DIRECTION('center_axis',(0.,0.,1.));
#1314=DIRECTION('ref_axis',(0.995730497898971,0.0923080470699477,0.));
#1315=DIRECTION('',(0.,0.,1.));
#1316=DIRECTION('',(0.,0.,1.));
#1317=DIRECTION('center_axis',(0.,1.,0.));
#1318=DIRECTION('ref_axis',(-1.,0.,0.));
#1319=DIRECTION('',(0.,0.,1.));
#1320=DIRECTION('center_axis',(-1.,0.,0.));
#1321=DIRECTION('ref_axis',(0.,-1.,0.));
#1322=DIRECTION('',(0.,0.,1.));
#1323=DIRECTION('center_axis',(0.,-1.,0.));
#1324=DIRECTION('ref_axis',(1.,0.,0.));
#1325=DIRECTION('',(0.,0.,1.));
#1326=DIRECTION('center_axis',(0.,0.,1.));
#1327=DIRECTION('ref_axis',(-0.41792413521318,-0.90848193003841,0.));
#1328=DIRECTION('',(0.,0.,1.));
#1329=DIRECTION('center_axis',(0.866025403784439,-0.5,0.));
#1330=DIRECTION('ref_axis',(0.5,0.866025403784439,0.));
#1331=DIRECTION('',(0.,0.,1.));
#1332=DIRECTION('center_axis',(0.500000000000001,0.866025403784438,0.));
#1333=DIRECTION('ref_axis',(-0.866025403784438,0.500000000000001,0.));
#1334=DIRECTION('',(0.,0.,1.));
#1335=DIRECTION('center_axis',(-0.866025403784435,0.500000000000007,0.));
#1336=DIRECTION('ref_axis',(-0.500000000000007,-0.866025403784435,0.));
#1337=DIRECTION('',(0.,0.,1.));
#1338=DIRECTION('center_axis',(-0.570199166104952,0.821506488698182,0.));
#1339=DIRECTION('ref_axis',(-0.821506488698182,-0.570199166104952,0.));
#1340=DIRECTION('center_axis',(0.,0.,1.));
#1341=DIRECTION('ref_axis',(1.,0.,0.));
#1342=DIRECTION('',(0.,0.,-1.));
#1343=DIRECTION('center_axis',(0.866025403784438,0.500000000000001,0.));
#1344=DIRECTION('ref_axis',(-0.500000000000001,0.866025403784438,0.));
#1345=DIRECTION('',(0.,0.,1.));
#1346=DIRECTION('center_axis',(0.500000000000001,-0.866025403784438,0.));
#1347=DIRECTION('ref_axis',(0.866025403784438,0.500000000000001,0.));
#1348=DIRECTION('',(0.,0.,1.));
#1349=DIRECTION('center_axis',(-0.866025403784439,-0.5,0.));
#1350=DIRECTION('ref_axis',(0.5,-0.866025403784439,0.));
#1351=DIRECTION('',(0.,0.,1.));
#1352=DIRECTION('center_axis',(-0.570200889555188,-0.821505292466502,0.));
#1353=DIRECTION('ref_axis',(0.821505292466502,-0.570200889555188,0.));
#1354=DIRECTION('center_axis',(0.,0.,1.));
#1355=DIRECTION('ref_axis',(0.,-1.,0.));
#1356=DIRECTION('',(0.,0.,1.));
#1357=DIRECTION('',(0.,0.,1.));
#1358=DIRECTION('center_axis',(0.,0.,1.));
#1359=DIRECTION('ref_axis',(-0.888198741900269,0.45945945945946,0.));
#1360=DIRECTION('',(0.,0.,1.));
#1361=DIRECTION('center_axis',(0.,0.,1.));
#1362=DIRECTION('ref_axis',(1.,0.,0.));
#1363=DIRECTION('',(-1.,0.,0.));
#1364=DIRECTION('center_axis',(0.,0.,-1.));
#1365=DIRECTION('ref_axis',(-0.925896295822207,0.377777777777778,0.));
#1366=DIRECTION('center_axis',(0.,0.,1.));
#1367=DIRECTION('ref_axis',(1.,0.,0.));
#1368=DIRECTION('center_axis',(0.,0.,-1.));
#1369=DIRECTION('ref_axis',(-0.925896295822207,0.377777777777778,0.));
#1370=DIRECTION('',(1.,0.,0.));
#1371=DIRECTION('center_axis',(0.,0.,1.));
#1372=DIRECTION('ref_axis',(1.,0.,0.));
#1373=DIRECTION('center_axis',(0.,0.,-1.));
#1374=DIRECTION('ref_axis',(1.,0.,0.));
#1375=DIRECTION('',(0.,0.,-1.));
#1376=DIRECTION('center_axis',(0.,0.,1.));
#1377=DIRECTION('ref_axis',(-0.925896295822207,0.377777777777778,0.));
#1378=DIRECTION('',(0.,0.,1.));
#1379=DIRECTION('center_axis',(0.,0.,-1.));
#1380=DIRECTION('ref_axis',(-0.925896295822207,0.377777777777778,0.));
#1381=DIRECTION('center_axis',(0.,0.,-1.));
#1382=DIRECTION('ref_axis',(-0.925896295822207,0.377777777777778,0.));
#1383=DIRECTION('center_axis',(0.,0.,-1.));
#1384=DIRECTION('ref_axis',(-0.925896295822207,0.377777777777778,0.));
#1385=DIRECTION('',(0.,0.,1.));
#1386=DIRECTION('center_axis',(0.,0.,1.));
#1387=DIRECTION('ref_axis',(1.,0.,0.));
#1388=DIRECTION('center_axis',(0.,0.,-1.));
#1389=DIRECTION('ref_axis',(1.,0.,0.));
#1390=DIRECTION('',(0.,0.,-1.));
#1391=DIRECTION('center_axis',(0.,1.,0.));
#1392=DIRECTION('ref_axis',(-1.,0.,0.));
#1393=DIRECTION('',(0.,0.,1.));
#1394=DIRECTION('',(-1.,0.,0.));
#1395=DIRECTION('center_axis',(0.,0.,1.));
#1396=DIRECTION('ref_axis',(0.,1.,0.));
#1397=DIRECTION('',(0.,0.,1.));
#1398=DIRECTION('center_axis',(0.,0.,1.));
#1399=DIRECTION('ref_axis',(0.,1.,0.));
#1400=DIRECTION('center_axis',(0.,0.,1.));
#1401=DIRECTION('ref_axis',(1.,0.,0.));
#1402=DIRECTION('center_axis',(0.,0.,-1.));
#1403=DIRECTION('ref_axis',(1.,0.,0.));
#1404=DIRECTION('',(0.,0.,-1.));
#1405=DIRECTION('center_axis',(0.,0.,1.));
#1406=DIRECTION('ref_axis',(1.,0.,0.));
#1407=DIRECTION('center_axis',(0.,0.,-1.));
#1408=DIRECTION('ref_axis',(1.,0.,0.));
#1409=DIRECTION('',(0.,0.,-1.));
#1410=DIRECTION('center_axis',(0.,0.,1.));
#1411=DIRECTION('ref_axis',(1.,0.,0.));
#1412=DIRECTION('center_axis',(0.,0.,-1.));
#1413=DIRECTION('ref_axis',(1.,0.,0.));
#1414=DIRECTION('',(0.,0.,-1.));
#1415=DIRECTION('center_axis',(0.,0.,1.));
#1416=DIRECTION('ref_axis',(0.,1.,0.));
#1417=DIRECTION('center_axis',(0.,0.,-1.));
#1418=DIRECTION('ref_axis',(0.,1.,0.));
#1419=DIRECTION('',(0.,0.,1.));
#1420=DIRECTION('center_axis',(0.,1.,0.));
#1421=DIRECTION('ref_axis',(-1.,0.,0.));
#1422=DIRECTION('',(-1.,0.,0.));
#1423=DIRECTION('center_axis',(0.,-1.,0.));
#1424=DIRECTION('ref_axis',(1.,0.,0.));
#1425=DIRECTION('',(1.,0.,0.));
#1426=DIRECTION('center_axis',(0.,0.,1.));
#1427=DIRECTION('ref_axis',(1.,0.,0.));
#1428=DIRECTION('center_axis',(0.,0.,1.));
#1429=DIRECTION('ref_axis',(1.,0.,0.));
#1430=CARTESIAN_POINT('',(0.,0.,0.));
#1431=CARTESIAN_POINT('Origin',(0.,-125.000001862645,65.));
#1432=CARTESIAN_POINT('',(-31.4165566613327,-138.00000205636,62.));
#1433=CARTESIAN_POINT('',(-34.6410166675689,-138.00000205636,65.));
#1434=CARTESIAN_POINT('Ctrl Pts',(-31.4165566613327,-138.00000205636,62.));
#1435=CARTESIAN_POINT('Ctrl Pts',(-31.8259310649138,-138.00000205636,62.));
#1436=CARTESIAN_POINT('Ctrl Pts',(-32.308792842032,-138.00000205636,62.0903900631758));
#1437=CARTESIAN_POINT('Ctrl Pts',(-33.0532509019035,-138.00000205636,62.386145105145));
#1438=CARTESIAN_POINT('Ctrl Pts',(-33.4502889703042,-138.00000205636,62.6376929107543));
#1439=CARTESIAN_POINT('Ctrl Pts',(-34.0030474526984,-138.00000205636,63.1682941311346));
#1440=CARTESIAN_POINT('Ctrl Pts',(-34.2613253814336,-138.00000205636,63.5361066561869));
#1441=CARTESIAN_POINT('Ctrl Pts',(-34.5523497149154,-138.00000205636,64.2127168002938));
#1442=CARTESIAN_POINT('Ctrl Pts',(-34.6410166675689,-138.00000205636,64.6379871807963));
#1443=CARTESIAN_POINT('Ctrl Pts',(-34.6410166675689,-138.00000205636,65.));
#1444=CARTESIAN_POINT('',(-32.8633539400121,-142.000002115965,65.));
#1445=CARTESIAN_POINT('Origin',(0.,-125.000001862645,65.));
#1446=CARTESIAN_POINT('',(-29.4448642190527,-142.000002115965,62.));
#1447=CARTESIAN_POINT('Ctrl Pts',(-32.8633539400121,-142.000002115965,65.));
#1448=CARTESIAN_POINT('Ctrl Pts',(-32.8633539400121,-142.000002115965,64.644586870211));
#1449=CARTESIAN_POINT('Ctrl Pts',(-32.7731527856956,-142.000002115965,64.2277387186858));
#1450=CARTESIAN_POINT('Ctrl Pts',(-32.476048776375,-142.000002115965,63.5572188742648));
#1451=CARTESIAN_POINT('Ctrl Pts',(-32.2084906513029,-142.000002115965,63.190960155703));
#1452=CARTESIAN_POINT('Ctrl Pts',(-31.6313477683159,-142.000002115965,62.6547373274859));
#1453=CARTESIAN_POINT('Ctrl Pts',(-31.210953247936,-142.000002115965,62.3995546588185));
#1454=CARTESIAN_POINT('Ctrl Pts',(-30.4137552170621,-142.000002115965,62.0933820609688));
#1455=CARTESIAN_POINT('Ctrl Pts',(-29.8890166427484,-142.000002115965,62.));
#1456=CARTESIAN_POINT('Ctrl Pts',(-29.4448642190527,-142.000002115965,62.));
#1457=CARTESIAN_POINT('Origin',(0.,-125.000001862645,62.));
#1458=CARTESIAN_POINT('Origin',(0.,-125.000001862645,0.));
#1459=CARTESIAN_POINT('',(-34.6410166675689,-138.00000205636,105.));
#1460=CARTESIAN_POINT('',(-34.6410166675689,-138.00000205636,0.));
#1461=CARTESIAN_POINT('',(-32.8633539400121,-142.000002115965,105.));
#1462=CARTESIAN_POINT('Origin',(0.,-125.000001862645,105.));
#1463=CARTESIAN_POINT('',(-32.8633539400121,-142.000002115965,0.));
#1464=CARTESIAN_POINT('Origin',(0.,-125.000001862645,65.));
#1465=CARTESIAN_POINT('',(-34.6410166675689,-112.00000166893,65.));
#1466=CARTESIAN_POINT('',(-31.4165566613327,-112.00000166893,62.));
#1467=CARTESIAN_POINT('Ctrl Pts',(-34.6410166675689,-112.00000166893,65.));
#1468=CARTESIAN_POINT('Ctrl Pts',(-34.6410166675689,-112.00000166893,64.6379871807963));
#1469=CARTESIAN_POINT('Ctrl Pts',(-34.5523497149154,-112.00000166893,64.2127168002938));
#1470=CARTESIAN_POINT('Ctrl Pts',(-34.2613253814336,-112.00000166893,63.5361066561869));
#1471=CARTESIAN_POINT('Ctrl Pts',(-34.0030474526984,-112.00000166893,63.1682941311346));
#1472=CARTESIAN_POINT('Ctrl Pts',(-33.4502889703042,-112.00000166893,62.6376929107543));
#1473=CARTESIAN_POINT('Ctrl Pts',(-33.0532509019035,-112.00000166893,62.386145105145));
#1474=CARTESIAN_POINT('Ctrl Pts',(-32.308792842032,-112.00000166893,62.0903900631758));
#1475=CARTESIAN_POINT('Ctrl Pts',(-31.8259310649138,-112.00000166893,62.));
#1476=CARTESIAN_POINT('Ctrl Pts',(-31.4165566613327,-112.00000166893,62.));
#1477=CARTESIAN_POINT('',(-29.4448642190527,-108.000001609325,62.));
#1478=CARTESIAN_POINT('Origin',(0.,-125.000001862645,62.));
#1479=CARTESIAN_POINT('',(-32.8633539400121,-108.000001609325,65.));
#1480=CARTESIAN_POINT('Ctrl Pts',(-29.4448642190527,-108.000001609325,62.));
#1481=CARTESIAN_POINT('Ctrl Pts',(-29.8890166427484,-108.000001609325,62.));
#1482=CARTESIAN_POINT('Ctrl Pts',(-30.4137552170621,-108.000001609325,62.0933820609688));
#1483=CARTESIAN_POINT('Ctrl Pts',(-31.210953247936,-108.000001609325,62.3995546588185));
#1484=CARTESIAN_POINT('Ctrl Pts',(-31.6313477683159,-108.000001609325,62.6547373274859));
#1485=CARTESIAN_POINT('Ctrl Pts',(-32.2084906513029,-108.000001609325,63.190960155703));
#1486=CARTESIAN_POINT('Ctrl Pts',(-32.476048776375,-108.000001609325,63.5572188742648));
#1487=CARTESIAN_POINT('Ctrl Pts',(-32.7731527856956,-108.000001609325,64.2277387186858));
#1488=CARTESIAN_POINT('Ctrl Pts',(-32.8633539400121,-108.000001609325,64.644586870211));
#1489=CARTESIAN_POINT('Ctrl Pts',(-32.8633539400121,-108.000001609325,65.));
#1490=CARTESIAN_POINT('Origin',(0.,-125.000001862645,65.));
#1491=CARTESIAN_POINT('Origin',(-8.82050820712459,-125.000001862645,62.));
#1492=CARTESIAN_POINT('',(0.,-142.000002115965,62.));
#1493=CARTESIAN_POINT('',(-73.0000010877848,-142.000002115965,62.));
#1494=CARTESIAN_POINT('',(2.22044604925031E-15,-108.000001609325,62.));
#1495=CARTESIAN_POINT('Origin',(0.,-125.000001862645,62.));
#1496=CARTESIAN_POINT('',(0.,-108.000001609325,62.));
#1497=CARTESIAN_POINT('',(-10.9544513133374,-112.00000166893,62.));
#1498=CARTESIAN_POINT('',(-73.0000010877848,-112.00000166893,62.));
#1499=CARTESIAN_POINT('',(-7.51148282684509,-114.38974122595,62.));
#1500=CARTESIAN_POINT('',(-10.9544513133374,-112.00000166893,62.));
#1501=CARTESIAN_POINT('',(-6.83923436441766,-115.554109718184,62.));
#1502=CARTESIAN_POINT('',(-6.83923436441766,-115.554109718184,62.));
#1503=CARTESIAN_POINT('',(-4.76077344179224,-114.354109745006,62.));
#1504=CARTESIAN_POINT('',(-4.76077344179224,-114.354109745006,62.));
#1505=CARTESIAN_POINT('',(-5.4330223359039,-113.189740505073,62.));
#1506=CARTESIAN_POINT('',(-5.4330223359039,-113.189740505073,62.));
#1507=CARTESIAN_POINT('',(12.9444966655747,-123.799997232854,62.));
#1508=CARTESIAN_POINT('Origin',(0.,-125.000001862645,62.));
#1509=CARTESIAN_POINT('',(11.5999997407198,-123.799997232854,62.));
#1510=CARTESIAN_POINT('',(11.5999997407198,-123.799997232854,62.));
#1511=CARTESIAN_POINT('',(11.5999997407198,-126.19999717921,62.));
#1512=CARTESIAN_POINT('',(11.5999997407198,-126.19999717921,62.));
#1513=CARTESIAN_POINT('',(12.9444975289431,-126.19999717921,62.));
#1514=CARTESIAN_POINT('',(12.9444975289431,-126.19999717921,62.));
#1515=CARTESIAN_POINT('',(-5.43301383872956,-136.810267129131,62.));
#1516=CARTESIAN_POINT('Origin',(0.,-125.000001862645,62.));
#1517=CARTESIAN_POINT('',(-4.76076537630213,-135.645898636897,62.));
#1518=CARTESIAN_POINT('',(-4.76076537630213,-135.645898636897,62.));
#1519=CARTESIAN_POINT('',(-6.83922629892756,-134.445898663719,62.));
#1520=CARTESIAN_POINT('',(-6.83922629892756,-134.445898663719,62.));
#1521=CARTESIAN_POINT('',(-7.51147519303922,-135.610267903652,62.));
#1522=CARTESIAN_POINT('',(-7.51147519303922,-135.610267903652,62.));
#1523=CARTESIAN_POINT('',(-10.9544513133374,-138.00000205636,62.));
#1524=CARTESIAN_POINT('',(-10.9544513133374,-138.00000205636,62.));
#1525=CARTESIAN_POINT('',(-10.9544513133374,-138.00000205636,62.));
#1526=CARTESIAN_POINT('',(13.9500002235174,-125.000001862645,62.));
#1527=CARTESIAN_POINT('Origin',(15.0000002235174,-125.000001862645,62.));
#1528=CARTESIAN_POINT('Origin',(0.,-125.000001862645,97.));
#1529=CARTESIAN_POINT('',(-48.2804315377277,-112.00000166893,97.));
#1530=CARTESIAN_POINT('',(-51.3809310341839,-112.00000166893,100.));
#1531=CARTESIAN_POINT('Ctrl Pts',(-48.2804315377277,-112.00000166893,97.));
#1532=CARTESIAN_POINT('Ctrl Pts',(-48.2804315377277,-112.00000166893,97.3662547613767));
#1533=CARTESIAN_POINT('Ctrl Pts',(-48.3683702601802,-112.00000166893,97.7968729837341));
#1534=CARTESIAN_POINT('Ctrl Pts',(-48.6562012027529,-112.00000166893,98.4776570437016));
#1535=CARTESIAN_POINT('Ctrl Pts',(-48.9092935333419,-112.00000166893,98.8466507346812));
#1536=CARTESIAN_POINT('Ctrl Pts',(-49.4475138070511,-112.00000166893,99.3737722907144));
#1537=CARTESIAN_POINT('Ctrl Pts',(-49.830031869213,-112.00000166893,99.6230451387002));
#1538=CARTESIAN_POINT('Ctrl Pts',(-50.540172926232,-112.00000166893,99.9115583627693));
#1539=CARTESIAN_POINT('Ctrl Pts',(-50.9948951052744,-112.00000166893,100.));
#1540=CARTESIAN_POINT('Ctrl Pts',(-51.3809310341839,-112.00000166893,100.));
#1541=CARTESIAN_POINT('',(-50.1996022928796,-108.000001609325,100.));
#1542=CARTESIAN_POINT('Origin',(0.,-125.000001862645,100.));
#1543=CARTESIAN_POINT('',(-47.0212724827065,-108.000001609325,97.));
#1544=CARTESIAN_POINT('Ctrl Pts',(-50.1996022928796,-108.000001609325,100.));
#1545=CARTESIAN_POINT('Ctrl Pts',(-49.8012888707033,-108.000001609325,100.));
#1546=CARTESIAN_POINT('Ctrl Pts',(-49.3318209103045,-108.000001609325,99.9102169690275));
#1547=CARTESIAN_POINT('Ctrl Pts',(-48.6014697919615,-108.000001609325,99.6178071947156));
#1548=CARTESIAN_POINT('Ctrl Pts',(-48.2088115074113,-108.000001609325,99.3667120433381));
#1549=CARTESIAN_POINT('Ctrl Pts',(-47.6592946220993,-108.000001609325,98.8369320242668));
#1550=CARTESIAN_POINT('Ctrl Pts',(-47.4014020815234,-108.000001609325,98.468298215555));
#1551=CARTESIAN_POINT('Ctrl Pts',(-47.1101662120285,-108.000001609325,97.7900120499058));
#1552=CARTESIAN_POINT('Ctrl Pts',(-47.0212724827066,-108.000001609325,97.3632600713103));
#1553=CARTESIAN_POINT('Ctrl Pts',(-47.0212724827066,-108.000001609325,97.));
#1554=CARTESIAN_POINT('Origin',(0.,-125.000001862645,97.));
#1555=CARTESIAN_POINT('Origin',(-68.5106369119055,-125.000001862645,100.));
#1556=CARTESIAN_POINT('',(-73.0000010877848,-112.00000166893,100.));
#1557=CARTESIAN_POINT('',(-70.7553189998451,-112.00000166893,100.));
#1558=CARTESIAN_POINT('',(-73.0000010877848,-138.00000205636,100.));
#1559=CARTESIAN_POINT('Origin',(-73.0000010877848,-125.000001862645,100.));
#1560=CARTESIAN_POINT('',(-51.3809310341839,-138.00000205636,100.));
#1561=CARTESIAN_POINT('',(-58.3955342248166,-138.00000205636,100.));
#1562=CARTESIAN_POINT('',(-50.1996022928796,-142.000002115965,100.));
#1563=CARTESIAN_POINT('Origin',(0.,-125.000001862645,100.));
#1564=CARTESIAN_POINT('',(-73.0000010877848,-142.000002115965,100.));
#1565=CARTESIAN_POINT('',(-70.7553189998451,-142.000002115965,100.));
#1566=CARTESIAN_POINT('',(-73.0000010877848,-108.000001609325,100.));
#1567=CARTESIAN_POINT('Origin',(-73.0000010877848,-125.000001862645,100.));
#1568=CARTESIAN_POINT('',(-57.765954697306,-108.000001609325,100.));
#1569=CARTESIAN_POINT('',(-56.0500008195639,-110.000001639128,100.));
#1570=CARTESIAN_POINT('Origin',(-55.0000008195639,-110.000001639128,100.));
#1571=CARTESIAN_POINT('',(-89.0500013113022,-125.000001862645,100.));
#1572=CARTESIAN_POINT('Origin',(-88.0000013113022,-125.000001862645,100.));
#1573=CARTESIAN_POINT('',(-56.0500008195639,-140.000002086163,100.));
#1574=CARTESIAN_POINT('Origin',(-55.0000008195639,-140.000002086163,100.));
#1575=CARTESIAN_POINT('Origin',(0.,-125.000001862645,97.));
#1576=CARTESIAN_POINT('',(-48.2804315377277,-138.00000205636,97.));
#1577=CARTESIAN_POINT('Ctrl Pts',(-51.3809310341839,-138.00000205636,100.));
#1578=CARTESIAN_POINT('Ctrl Pts',(-50.9948951052744,-138.00000205636,100.));
#1579=CARTESIAN_POINT('Ctrl Pts',(-50.540172926232,-138.00000205636,99.9115583627693));
#1580=CARTESIAN_POINT('Ctrl Pts',(-49.830031869213,-138.00000205636,99.6230451387002));
#1581=CARTESIAN_POINT('Ctrl Pts',(-49.4475138070511,-138.00000205636,99.3737722907144));
#1582=CARTESIAN_POINT('Ctrl Pts',(-48.9092935333419,-138.00000205636,98.8466507346812));
#1583=CARTESIAN_POINT('Ctrl Pts',(-48.6562012027529,-138.00000205636,98.4776570437016));
#1584=CARTESIAN_POINT('Ctrl Pts',(-48.3683702601802,-138.00000205636,97.7968729837341));
#1585=CARTESIAN_POINT('Ctrl Pts',(-48.2804315377277,-138.00000205636,97.3662547613767));
#1586=CARTESIAN_POINT('Ctrl Pts',(-48.2804315377277,-138.00000205636,97.));
#1587=CARTESIAN_POINT('',(-47.0212724827065,-142.000002115965,97.));
#1588=CARTESIAN_POINT('Origin',(0.,-125.000001862645,97.));
#1589=CARTESIAN_POINT('Ctrl Pts',(-47.0212724827066,-142.000002115965,97.));
#1590=CARTESIAN_POINT('Ctrl Pts',(-47.0212724827066,-142.000002115965,97.3632600713103));
#1591=CARTESIAN_POINT('Ctrl Pts',(-47.1101662120285,-142.000002115965,97.7900120499058));
#1592=CARTESIAN_POINT('Ctrl Pts',(-47.4014020815234,-142.000002115965,98.468298215555));
#1593=CARTESIAN_POINT('Ctrl Pts',(-47.6592946220993,-142.000002115965,98.8369320242668));
#1594=CARTESIAN_POINT('Ctrl Pts',(-48.2088115074113,-142.000002115965,99.3667120433381));
#1595=CARTESIAN_POINT('Ctrl Pts',(-48.6014697919615,-142.000002115965,99.6178071947156));
#1596=CARTESIAN_POINT('Ctrl Pts',(-49.3318209103045,-142.000002115965,99.9102169690275));
#1597=CARTESIAN_POINT('Ctrl Pts',(-49.8012888707033,-142.000002115965,100.));
#1598=CARTESIAN_POINT('Ctrl Pts',(-50.1996022928796,-142.000002115965,100.));
#1599=CARTESIAN_POINT('Origin',(0.,-125.000001862645,0.));
#1600=CARTESIAN_POINT('',(-47.0212724827065,-108.000001609325,42.));
#1601=CARTESIAN_POINT('',(-47.0212724827065,-108.000001609325,0.));
#1602=CARTESIAN_POINT('',(-47.0212724827065,-142.000002115965,42.));
#1603=CARTESIAN_POINT('Origin',(0.,-125.000001862645,42.));
#1604=CARTESIAN_POINT('',(-47.0212724827065,-142.000002115965,0.));
#1605=CARTESIAN_POINT('',(-48.2804315377277,-138.00000205636,105.));
#1606=CARTESIAN_POINT('',(-48.2804315377277,-138.00000205636,0.));
#1607=CARTESIAN_POINT('',(-49.8397439201785,-129.00000192225,105.));
#1608=CARTESIAN_POINT('Origin',(0.,-125.000001862645,105.));
#1609=CARTESIAN_POINT('',(-49.8397439201785,-129.00000192225,102.));
#1610=CARTESIAN_POINT('',(-49.8397439201785,-129.00000192225,0.));
#1611=CARTESIAN_POINT('',(-49.8397439201785,-121.000001803041,102.));
#1612=CARTESIAN_POINT('Origin',(0.,-125.000001862645,102.));
#1613=CARTESIAN_POINT('',(-49.8397439201785,-121.000001803041,105.));
#1614=CARTESIAN_POINT('',(-49.8397439201785,-121.000001803041,0.));
#1615=CARTESIAN_POINT('',(-48.2804315377277,-112.00000166893,105.));
#1616=CARTESIAN_POINT('Origin',(0.,-125.000001862645,105.));
#1617=CARTESIAN_POINT('',(-48.2804315377277,-112.00000166893,0.));
#1618=CARTESIAN_POINT('Origin',(0.,-125.000001862645,0.));
#1619=CARTESIAN_POINT('',(-36.7695531696095,-112.00000166893,102.));
#1620=CARTESIAN_POINT('',(-35.0998580725971,-108.000001609325,102.));
#1621=CARTESIAN_POINT('Origin',(0.,-125.000001862645,102.));
#1622=CARTESIAN_POINT('',(-36.7695531696095,-112.00000166893,105.));
#1623=CARTESIAN_POINT('',(-36.7695531696095,-112.00000166893,0.));
#1624=CARTESIAN_POINT('',(-35.0998580725971,-108.000001609325,105.));
#1625=CARTESIAN_POINT('Origin',(0.,-125.000001862645,105.));
#1626=CARTESIAN_POINT('',(-35.0998580725971,-108.000001609325,0.));
#1627=CARTESIAN_POINT('Origin',(-34.8164535548108,-110.000001639128,105.));
#1628=CARTESIAN_POINT('',(-32.8633539400121,-108.000001609325,105.));
#1629=CARTESIAN_POINT('',(0.,-108.000001609325,105.));
#1630=CARTESIAN_POINT('',(-34.6410166675689,-112.00000166893,105.));
#1631=CARTESIAN_POINT('',(-73.0000010877848,-112.00000166893,105.));
#1632=CARTESIAN_POINT('Origin',(0.,-125.000001862645,105.));
#1633=CARTESIAN_POINT('Origin',(-44.9728827352944,-110.000001639128,42.));
#1634=CARTESIAN_POINT('',(2.22044604925031E-15,-108.000001609325,42.));
#1635=CARTESIAN_POINT('',(-43.3191083340778,-108.000001609325,42.));
#1636=CARTESIAN_POINT('',(0.,-142.000002115965,42.));
#1637=CARTESIAN_POINT('Origin',(0.,-125.000001862645,42.));
#1638=CARTESIAN_POINT('',(-20.8419310735683,-142.000002115965,42.));
#1639=CARTESIAN_POINT('',(-43.0813190990377,-112.00000166893,42.));
#1640=CARTESIAN_POINT('',(-10.9544513133374,-112.00000166893,42.));
#1641=CARTESIAN_POINT('',(-21.7307624373467,-112.00000166893,42.));
#1642=CARTESIAN_POINT('',(-43.0813190990377,-138.00000205636,42.));
#1643=CARTESIAN_POINT('Origin',(0.,-125.000001862645,42.));
#1644=CARTESIAN_POINT('',(-10.9544513133374,-138.00000205636,42.));
#1645=CARTESIAN_POINT('',(-44.0271009171661,-138.00000205636,42.));
#1646=CARTESIAN_POINT('',(-7.51147519303922,-135.610267903652,42.));
#1647=CARTESIAN_POINT('',(-5.46814796361171,-134.192015585103,42.));
#1648=CARTESIAN_POINT('',(-6.83922629892756,-134.445898663719,42.));
#1649=CARTESIAN_POINT('',(-5.04178988963817,-131.332647479456,42.));
#1650=CARTESIAN_POINT('',(-4.76076537630213,-135.645898636897,42.));
#1651=CARTESIAN_POINT('',(-8.58807320100274,-133.436201434034,42.));
#1652=CARTESIAN_POINT('',(-5.43301383872956,-136.810267129131,42.));
#1653=CARTESIAN_POINT('',(-3.29945319822647,-133.114831698751,42.));
#1654=CARTESIAN_POINT('',(12.9444975289431,-126.19999717921,42.));
#1655=CARTESIAN_POINT('Origin',(0.,-125.000001862645,42.));
#1656=CARTESIAN_POINT('',(11.5999997407198,-126.19999717921,42.));
#1657=CARTESIAN_POINT('',(1.3897457667976,-126.19999717921,42.));
#1658=CARTESIAN_POINT('',(11.5999997407198,-123.799997232854,42.));
#1659=CARTESIAN_POINT('',(11.5999997407198,-124.39999954775,42.));
#1660=CARTESIAN_POINT('',(12.9444966655747,-123.799997232854,42.));
#1661=CARTESIAN_POINT('',(2.06199422922503,-123.799997232854,42.));
#1662=CARTESIAN_POINT('',(-5.4330223359039,-113.189740505073,42.));
#1663=CARTESIAN_POINT('Origin',(0.,-125.000001862645,42.));
#1664=CARTESIAN_POINT('',(-4.76077344179224,-114.354109745006,42.));
#1665=CARTESIAN_POINT('',(-2.96333703250286,-117.46736092927,42.));
#1666=CARTESIAN_POINT('',(-6.83923436441766,-115.554109718184,42.));
#1667=CARTESIAN_POINT('',(-9.62730769506051,-117.163804606151,42.));
#1668=CARTESIAN_POINT('',(-7.51148282684509,-114.38974122595,42.));
#1669=CARTESIAN_POINT('',(-5.377922186342,-118.08517665633,42.));
#1670=CARTESIAN_POINT('',(-7.18963335154518,-114.613134621953,42.));
#1671=CARTESIAN_POINT('',(-46.0500006705523,-140.000002086163,42.));
#1672=CARTESIAN_POINT('Origin',(-45.0000006705523,-140.000002086163,42.));
#1673=CARTESIAN_POINT('',(13.9500002235174,-125.000001862645,42.));
#1674=CARTESIAN_POINT('Origin',(15.0000002235174,-125.000001862645,42.));
#1675=CARTESIAN_POINT('',(-46.0500006705523,-110.000001639128,42.));
#1676=CARTESIAN_POINT('Origin',(-45.0000006705523,-110.000001639128,42.));
#1677=CARTESIAN_POINT('Origin',(-73.0000010877848,-112.00000166893,0.));
#1678=CARTESIAN_POINT('',(-43.0813190990377,-112.00000166893,102.));
#1679=CARTESIAN_POINT('',(-73.0000010877848,-112.00000166893,102.));
#1680=CARTESIAN_POINT('',(-43.0813190990377,-112.00000166893,0.));
#1681=CARTESIAN_POINT('',(-10.9544513133374,-112.00000166893,0.));
#1682=CARTESIAN_POINT('',(-34.6410166675689,-112.00000166893,0.));
#1683=CARTESIAN_POINT('Origin',(-44.8218703299278,-129.00000192225,0.));
#1684=CARTESIAN_POINT('',(-44.8218703299278,-129.00000192225,102.));
#1685=CARTESIAN_POINT('',(-44.8218703299278,-129.00000192225,102.));
#1686=CARTESIAN_POINT('',(-44.8218703299278,-129.00000192225,105.));
#1687=CARTESIAN_POINT('',(-44.8218703299278,-129.00000192225,105.));
#1688=CARTESIAN_POINT('',(-44.8218703299278,-129.00000192225,0.));
#1689=CARTESIAN_POINT('Origin',(-48.2804315377277,-138.00000205636,0.));
#1690=CARTESIAN_POINT('',(-43.0813190990377,-138.00000205636,102.));
#1691=CARTESIAN_POINT('',(-43.0813190990377,-138.00000205636,0.));
#1692=CARTESIAN_POINT('',(-36.7695531696095,-138.00000205636,102.));
#1693=CARTESIAN_POINT('',(-10.9544513133374,-138.00000205636,102.));
#1694=CARTESIAN_POINT('',(-36.7695531696095,-138.00000205636,105.));
#1695=CARTESIAN_POINT('',(-36.7695531696095,-138.00000205636,0.));
#1696=CARTESIAN_POINT('',(-10.9544513133374,-138.00000205636,105.));
#1697=CARTESIAN_POINT('',(-10.9544513133374,-138.00000205636,0.));
#1698=CARTESIAN_POINT('Origin',(0.,-125.000001862645,0.));
#1699=CARTESIAN_POINT('',(-35.0998580725971,-142.000002115965,102.));
#1700=CARTESIAN_POINT('Origin',(0.,-125.000001862645,102.));
#1701=CARTESIAN_POINT('',(-35.0998580725971,-142.000002115965,105.));
#1702=CARTESIAN_POINT('',(-35.0998580725971,-142.000002115965,0.));
#1703=CARTESIAN_POINT('Origin',(0.,-125.000001862645,105.));
#1704=CARTESIAN_POINT('Origin',(-34.8164535548108,-140.000002086163,105.));
#1705=CARTESIAN_POINT('',(-73.0000010877848,-142.000002115965,105.));
#1706=CARTESIAN_POINT('Origin',(-49.8397439201785,-121.000001803041,0.));
#1707=CARTESIAN_POINT('',(-44.8218703299278,-121.000001803041,102.));
#1708=CARTESIAN_POINT('',(-49.8397439201785,-121.000001803041,102.));
#1709=CARTESIAN_POINT('',(-44.8218703299278,-121.000001803041,105.));
#1710=CARTESIAN_POINT('',(-44.8218703299278,-121.000001803041,0.));
#1711=CARTESIAN_POINT('',(-49.8397439201785,-121.000001803041,105.));
#1712=CARTESIAN_POINT('Origin',(-73.0000010877848,-112.00000166893,0.));
#1713=CARTESIAN_POINT('',(-73.0000010877848,-112.00000166893,105.));
#1714=CARTESIAN_POINT('',(-73.0000010877848,-112.00000166893,105.));
#1715=CARTESIAN_POINT('',(-73.0000010877848,-112.00000166893,0.));
#1716=CARTESIAN_POINT('Origin',(0.,-125.000001862645,0.));
#1717=CARTESIAN_POINT('',(12.9444966655747,-123.799997232854,0.));
#1718=CARTESIAN_POINT('',(-5.4330223359039,-113.189740505073,0.));
#1719=CARTESIAN_POINT('Origin',(12.9444966655747,-123.799997232854,0.));
#1720=CARTESIAN_POINT('',(11.5999997407198,-123.799997232854,0.));
#1721=CARTESIAN_POINT('Origin',(11.5999997407198,-123.799997232854,0.));
#1722=CARTESIAN_POINT('',(11.5999997407198,-126.19999717921,0.));
#1723=CARTESIAN_POINT('Origin',(11.5999997407198,-126.19999717921,0.));
#1724=CARTESIAN_POINT('',(12.9444975289431,-126.19999717921,0.));
#1725=CARTESIAN_POINT('Origin',(0.,-125.000001862645,0.));
#1726=CARTESIAN_POINT('',(-5.43301383872956,-136.810267129131,0.));
#1727=CARTESIAN_POINT('Origin',(-5.43301383872956,-136.810267129131,0.));
#1728=CARTESIAN_POINT('',(-4.76076537630213,-135.645898636897,0.));
#1729=CARTESIAN_POINT('Origin',(-4.76076537630213,-135.645898636897,0.));
#1730=CARTESIAN_POINT('',(-6.83922629892756,-134.445898663719,0.));
#1731=CARTESIAN_POINT('Origin',(-6.83922629892756,-134.445898663719,0.));
#1732=CARTESIAN_POINT('',(-7.51147519303922,-135.610267903652,0.));
#1733=CARTESIAN_POINT('Origin',(-7.51147519303922,-135.610267903652,0.));
#1734=CARTESIAN_POINT('Origin',(15.0000002235174,-125.000001862645,0.));
#1735=CARTESIAN_POINT('',(13.9500002235174,-125.000001862645,0.));
#1736=CARTESIAN_POINT('Origin',(-4.76077344179224,-114.354109745006,0.));
#1737=CARTESIAN_POINT('',(-4.76077344179224,-114.354109745006,0.));
#1738=CARTESIAN_POINT('Origin',(-6.83923436441766,-115.554109718184,0.));
#1739=CARTESIAN_POINT('',(-6.83923436441766,-115.554109718184,0.));
#1740=CARTESIAN_POINT('Origin',(-7.51148282684509,-114.38974122595,0.));
#1741=CARTESIAN_POINT('',(-7.51148282684509,-114.38974122595,0.));
#1742=CARTESIAN_POINT('Origin',(-10.9544513133374,-112.00000166893,0.));
#1743=CARTESIAN_POINT('Origin',(0.,-125.000001862645,0.));
#1744=CARTESIAN_POINT('',(2.08189958957322E-15,-108.000001609325,0.));
#1745=CARTESIAN_POINT('',(0.,-142.000002115965,0.));
#1746=CARTESIAN_POINT('Origin',(0.,-125.000001862645,0.));
#1747=CARTESIAN_POINT('',(-32.8633539400121,-108.000001609325,0.));
#1748=CARTESIAN_POINT('Origin',(-37.9723365195249,-110.000001639128,102.));
#1749=CARTESIAN_POINT('',(-41.6653339328612,-108.000001609325,102.));
#1750=CARTESIAN_POINT('',(0.,-108.000001609325,102.));
#1751=CARTESIAN_POINT('Origin',(0.,-125.000001862645,102.));
#1752=CARTESIAN_POINT('Origin',(-37.9723365195249,-140.000002086163,102.));
#1753=CARTESIAN_POINT('',(-41.6653339328612,-142.000002115965,102.));
#1754=CARTESIAN_POINT('Origin',(0.,-125.000001862645,102.));
#1755=CARTESIAN_POINT('',(-73.0000010877848,-142.000002115965,102.));
#1756=CARTESIAN_POINT('Origin',(-45.0000006705523,-140.000002086163,0.));
#1757=CARTESIAN_POINT('',(-46.0500006705523,-140.000002086163,105.));
#1758=CARTESIAN_POINT('Origin',(-45.0000006705523,-140.000002086163,105.));
#1759=CARTESIAN_POINT('',(-46.0500006705523,-140.000002086163,0.));
#1760=CARTESIAN_POINT('Origin',(0.,-125.000001862645,0.));
#1761=CARTESIAN_POINT('',(-41.6653339328612,-108.000001609325,105.));
#1762=CARTESIAN_POINT('',(-41.6653339328612,-108.000001609325,0.));
#1763=CARTESIAN_POINT('Origin',(0.,-125.000001862645,105.));
#1764=CARTESIAN_POINT('Origin',(0.,-125.000001862645,102.));
#1765=CARTESIAN_POINT('',(-41.6653339328612,-142.000002115965,105.));
#1766=CARTESIAN_POINT('Origin',(0.,-125.000001862645,105.));
#1767=CARTESIAN_POINT('',(-41.6653339328612,-142.000002115965,0.));
#1768=CARTESIAN_POINT('Origin',(-45.0000006705523,-110.000001639128,0.));
#1769=CARTESIAN_POINT('',(-46.0500006705523,-110.000001639128,105.));
#1770=CARTESIAN_POINT('Origin',(-45.0000006705523,-110.000001639128,105.));
#1771=CARTESIAN_POINT('',(-46.0500006705523,-110.000001639128,0.));
#1772=CARTESIAN_POINT('Origin',(-47.0212724827065,-108.000001609325,0.));
#1773=CARTESIAN_POINT('',(-73.0000010877848,-108.000001609325,105.));
#1774=CARTESIAN_POINT('',(-73.0000010877848,-108.000001609325,0.));
#1775=CARTESIAN_POINT('',(0.,-108.000001609325,105.));
#1776=CARTESIAN_POINT('Origin',(-73.0000010877848,-125.000001862645,0.));
#1777=CARTESIAN_POINT('',(-73.0000010877848,-142.000002115965,105.));
#1778=CARTESIAN_POINT('',(-73.0000010877848,-142.000002115965,0.));
#1779=CARTESIAN_POINT('Origin',(-73.0000010877848,-125.000001862645,105.));
#1780=CARTESIAN_POINT('Origin',(-55.0000008195639,-110.000001639128,0.));
#1781=CARTESIAN_POINT('',(-56.0500008195639,-110.000001639128,105.));
#1782=CARTESIAN_POINT('Origin',(-55.0000008195639,-110.000001639128,105.));
#1783=CARTESIAN_POINT('',(-56.0500008195639,-110.000001639128,0.));
#1784=CARTESIAN_POINT('Origin',(-88.0000013113022,-125.000001862645,0.));
#1785=CARTESIAN_POINT('',(-89.0500013113022,-125.000001862645,105.));
#1786=CARTESIAN_POINT('Origin',(-88.0000013113022,-125.000001862645,105.));
#1787=CARTESIAN_POINT('',(-89.0500013113022,-125.000001862645,0.));
#1788=CARTESIAN_POINT('Origin',(-55.0000008195639,-140.000002086163,0.));
#1789=CARTESIAN_POINT('',(-56.0500008195639,-140.000002086163,105.));
#1790=CARTESIAN_POINT('Origin',(-55.0000008195639,-140.000002086163,105.));
#1791=CARTESIAN_POINT('',(-56.0500008195639,-140.000002086163,0.));
#1792=CARTESIAN_POINT('Origin',(-73.0000010877848,-125.000001862645,0.));
#1793=CARTESIAN_POINT('',(-73.0000010877848,-138.00000205636,105.));
#1794=CARTESIAN_POINT('Origin',(-73.0000010877848,-125.000001862645,105.));
#1795=CARTESIAN_POINT('',(-73.0000010877848,-138.00000205636,0.));
#1796=CARTESIAN_POINT('Origin',(-48.2804315377277,-138.00000205636,0.));
#1797=CARTESIAN_POINT('',(-10.9544513133374,-138.00000205636,105.));
#1798=CARTESIAN_POINT('Origin',(-73.0000010877848,-142.000002115965,0.));
#1799=CARTESIAN_POINT('',(-73.0000010877848,-142.000002115965,105.));
#1800=CARTESIAN_POINT('Origin',(-68.5106369119055,-125.000001862645,105.));
#1801=CARTESIAN_POINT('Origin',(-47.410935537493,-125.000001862645,102.));
#1802=UNCERTAINTY_MEASURE_WITH_UNIT(LENGTH_MEASURE(0.01),#1806,
'DISTANCE_ACCURACY_VALUE',
'Maximum model space distance between geometric entities at asserted c
onnectivities');
#1803=UNCERTAINTY_MEASURE_WITH_UNIT(LENGTH_MEASURE(0.01),#1806,
'DISTANCE_ACCURACY_VALUE',
'Maximum model space distance between geometric entities at asserted c
onnectivities');
#1804=(
GEOMETRIC_REPRESENTATION_CONTEXT(3)
GLOBAL_UNCERTAINTY_ASSIGNED_CONTEXT((#1802))
GLOBAL_UNIT_ASSIGNED_CONTEXT((#1806,#1808,#1809))
REPRESENTATION_CONTEXT('','3D')
);
#1805=(
GEOMETRIC_REPRESENTATION_CONTEXT(3)
GLOBAL_UNCERTAINTY_ASSIGNED_CONTEXT((#1803))
GLOBAL_UNIT_ASSIGNED_CONTEXT((#1806,#1808,#1809))
REPRESENTATION_CONTEXT('','3D')
);
#1806=(
LENGTH_UNIT()
NAMED_UNIT(*)
SI_UNIT(.MILLI.,.METRE.)
);
#1807=(
LENGTH_UNIT()
NAMED_UNIT(*)
SI_UNIT($,.METRE.)
);
#1808=(
NAMED_UNIT(*)
PLANE_ANGLE_UNIT()
SI_UNIT($,.RADIAN.)
);
#1809=(
NAMED_UNIT(*)
SI_UNIT($,.STERADIAN.)
SOLID_ANGLE_UNIT()
);
#1810=SHAPE_DEFINITION_REPRESENTATION(#1811,#1812);
#1811=PRODUCT_DEFINITION_SHAPE('',$,#1814);
#1812=SHAPE_REPRESENTATION('',(#1046),#1804);
#1813=PRODUCT_DEFINITION_CONTEXT('part definition',#1818,'design');
#1814=PRODUCT_DEFINITION('2025-07-30-21-58-40-536','link2_1',#1815,#1813);
#1815=PRODUCT_DEFINITION_FORMATION('',$,#1820);
#1816=PRODUCT_RELATED_PRODUCT_CATEGORY('link2_1','link2_1',(#1820));
#1817=APPLICATION_PROTOCOL_DEFINITION('international standard',
'automotive_design',2009,#1818);
#1818=APPLICATION_CONTEXT(
'Core Data for Automotive Mechanical Design Process');
#1819=PRODUCT_CONTEXT('part definition',#1818,'mechanical');
#1820=PRODUCT('2025-07-30-21-58-40-536','link2_1',$,(#1819));
#1821=PRESENTATION_STYLE_ASSIGNMENT((#1823));
#1822=PRESENTATION_STYLE_ASSIGNMENT((#1824));
#1823=SURFACE_STYLE_USAGE(.BOTH.,#1825);
#1824=SURFACE_STYLE_USAGE(.BOTH.,#1826);
#1825=SURFACE_SIDE_STYLE('',(#1827));
#1826=SURFACE_SIDE_STYLE('',(#1828));
#1827=SURFACE_STYLE_FILL_AREA(#1829);
#1828=SURFACE_STYLE_FILL_AREA(#1830);
#1829=FILL_AREA_STYLE('Steel - Satin',(#1831));
#1830=FILL_AREA_STYLE('Sunflower yellow PLA',(#1832));
#1831=FILL_AREA_STYLE_COLOUR('Steel - Satin',#1833);
#1832=FILL_AREA_STYLE_COLOUR('Sunflower yellow PLA',#1834);
#1833=COLOUR_RGB('Steel - Satin',0.627450980392157,0.627450980392157,0.627450980392157);
#1834=COLOUR_RGB('Sunflower yellow PLA',1.,0.733333333333333,0.);
ENDSEC;
END-ISO-10303-21;
