ISO-10303-21;
HEADER;
/* Generated by software containing ST-Developer
 * from STEP Tools, Inc. (www.steptools.com) 
 */

FILE_DESCRIPTION(
/* description */ (''),
/* implementation_level */ '2;1');

FILE_NAME(
/* name */ 'shell_1.step',
/* time_stamp */ '2025-08-02T17:18:31+01:00',
/* author */ (''),
/* organization */ (''),
/* preprocessor_version */ 'ST-DEVELOPER v20.1',
/* originating_system */ 'Autodesk Translation Framework v14.10.0.0',
/* authorisation */ '');

FILE_SCHEMA (('AUTOMOTIVE_DESIGN { 1 0 10303 214 3 1 1 }'));
ENDSEC;

DATA;
#10=MECHANICAL_DESIGN_GEOMETRIC_PRESENTATION_REPRESENTATION('',(#13),#663);
#11=SHAPE_REPRESENTATION_RELATIONSHIP('SRR','None',#670,#12);
#12=ADVANCED_BREP_SHAPE_REPRESENTATION('',(#14),#662);
#13=STYLED_ITEM('',(#680),#14);
#14=MANIFOLD_SOLID_BREP('Body1',#353);
#15=(
BOUNDED_SURFACE()
B_SPLINE_SURFACE(1,2,((#634,#635,#636),(#637,#638,#639)),.UNSPECIFIED.,
 .F.,.F.,.F.)
B_SPLINE_SURFACE_WITH_KNOTS((2,2),(3,3),(5.49999991804361,6.99999989569187),
(1.5707963267949,3.14159265358979),.UNSPECIFIED.)
GEOMETRIC_REPRESENTATION_ITEM()
RATIONAL_B_SPLINE_SURFACE(((1.,0.707106781186548,1.),(1.,0.707106781186548,
1.)))
REPRESENTATION_ITEM('')
SURFACE()
);
#16=FACE_BOUND('',#107,.T.);
#17=FACE_BOUND('',#108,.T.);
#18=FACE_BOUND('',#109,.T.);
#19=FACE_BOUND('',#114,.T.);
#20=FACE_BOUND('',#115,.T.);
#21=FACE_BOUND('',#116,.T.);
#22=ELLIPSE('',#377,20.0000002980232,12.5000001862645);
#23=ELLIPSE('',#389,20.0000002980232,12.5000001862645);
#24=ELLIPSE('',#396,20.0000002980232,12.5000001862645);
#25=PLANE('',#375);
#26=PLANE('',#376);
#27=PLANE('',#385);
#28=PLANE('',#388);
#29=PLANE('',#393);
#30=PLANE('',#394);
#31=PLANE('',#395);
#32=PLANE('',#400);
#33=PLANE('',#403);
#34=PLANE('',#406);
#35=LINE('',#552,#57);
#36=LINE('',#554,#58);
#37=LINE('',#560,#59);
#38=LINE('',#564,#60);
#39=LINE('',#566,#61);
#40=LINE('',#568,#62);
#41=LINE('',#581,#63);
#42=LINE('',#584,#64);
#43=LINE('',#612,#65);
#44=LINE('',#615,#66);
#45=LINE('',#624,#67);
#46=LINE('',#625,#68);
#47=LINE('',#628,#69);
#48=LINE('',#630,#70);
#49=LINE('',#631,#71);
#50=LINE('',#633,#72);
#51=LINE('',#642,#73);
#52=LINE('',#644,#74);
#53=LINE('',#646,#75);
#54=LINE('',#649,#76);
#55=LINE('',#654,#77);
#56=LINE('',#658,#78);
#57=VECTOR('',#419,10.);
#58=VECTOR('',#420,10.);
#59=VECTOR('',#425,10.);
#60=VECTOR('',#430,10.);
#61=VECTOR('',#431,10.);
#62=VECTOR('',#432,10.);
#63=VECTOR('',#435,10.);
#64=VECTOR('',#438,10.);
#65=VECTOR('',#461,10.);
#66=VECTOR('',#464,10.);
#67=VECTOR('',#473,10.);
#68=VECTOR('',#474,10.);
#69=VECTOR('',#477,10.);
#70=VECTOR('',#478,10.);
#71=VECTOR('',#479,10.);
#72=VECTOR('',#482,10.);
#73=VECTOR('',#487,1.05);
#74=VECTOR('',#490,1.05);
#75=VECTOR('',#493,1.05);
#76=VECTOR('',#496,10.);
#77=VECTOR('',#503,10.);
#78=VECTOR('',#508,23.0000003427267);
#79=CYLINDRICAL_SURFACE('',#371,25.000000372529);
#80=CYLINDRICAL_SURFACE('',#397,1.05);
#81=CYLINDRICAL_SURFACE('',#398,1.05);
#82=CYLINDRICAL_SURFACE('',#399,1.05);
#83=CYLINDRICAL_SURFACE('',#404,23.0000003427267);
#84=FACE_OUTER_BOUND('',#103,.T.);
#85=FACE_OUTER_BOUND('',#104,.T.);
#86=FACE_OUTER_BOUND('',#105,.T.);
#87=FACE_OUTER_BOUND('',#106,.T.);
#88=FACE_OUTER_BOUND('',#110,.T.);
#89=FACE_OUTER_BOUND('',#111,.T.);
#90=FACE_OUTER_BOUND('',#112,.T.);
#91=FACE_OUTER_BOUND('',#113,.T.);
#92=FACE_OUTER_BOUND('',#117,.T.);
#93=FACE_OUTER_BOUND('',#118,.T.);
#94=FACE_OUTER_BOUND('',#119,.T.);
#95=FACE_OUTER_BOUND('',#120,.T.);
#96=FACE_OUTER_BOUND('',#121,.T.);
#97=FACE_OUTER_BOUND('',#122,.T.);
#98=FACE_OUTER_BOUND('',#123,.T.);
#99=FACE_OUTER_BOUND('',#124,.T.);
#100=FACE_OUTER_BOUND('',#125,.T.);
#101=FACE_OUTER_BOUND('',#126,.T.);
#102=FACE_OUTER_BOUND('',#127,.T.);
#103=EDGE_LOOP('',(#233,#234,#235,#236,#237,#238));
#104=EDGE_LOOP('',(#239,#240,#241,#242,#243,#244,#245));
#105=EDGE_LOOP('',(#246,#247,#248,#249,#250,#251));
#106=EDGE_LOOP('',(#252,#253,#254,#255,#256));
#107=EDGE_LOOP('',(#257));
#108=EDGE_LOOP('',(#258));
#109=EDGE_LOOP('',(#259));
#110=EDGE_LOOP('',(#260,#261,#262,#263,#264,#265));
#111=EDGE_LOOP('',(#266));
#112=EDGE_LOOP('',(#267,#268,#269,#270));
#113=EDGE_LOOP('',(#271,#272,#273,#274,#275));
#114=EDGE_LOOP('',(#276));
#115=EDGE_LOOP('',(#277));
#116=EDGE_LOOP('',(#278));
#117=EDGE_LOOP('',(#279,#280,#281,#282,#283));
#118=EDGE_LOOP('',(#284,#285,#286,#287,#288));
#119=EDGE_LOOP('',(#289,#290,#291,#292));
#120=EDGE_LOOP('',(#293,#294,#295,#296,#297,#298));
#121=EDGE_LOOP('',(#299,#300,#301,#302));
#122=EDGE_LOOP('',(#303,#304,#305,#306));
#123=EDGE_LOOP('',(#307,#308,#309,#310));
#124=EDGE_LOOP('',(#311,#312,#313,#314,#315,#316,#317));
#125=EDGE_LOOP('',(#318,#319,#320,#321));
#126=EDGE_LOOP('',(#322,#323,#324,#325,#326,#327,#328,#329));
#127=EDGE_LOOP('',(#330));
#128=B_SPLINE_CURVE_WITH_KNOTS('',3,(#517,#518,#519,#520,#521,#522,#523,
#524,#525,#526),.UNSPECIFIED.,.F.,.F.,(4,2,2,2,4),(3.06140616508456,3.24039069680072,
3.41937522851688,3.61047674573884,3.67677752944206),.UNSPECIFIED.);
#129=B_SPLINE_CURVE_WITH_KNOTS('',3,(#530,#531,#532,#533,#534,#535,#536,
#537,#538,#539),.UNSPECIFIED.,.F.,.F.,(4,2,2,2,4),(5.83936746411692,6.3002682516969,
6.76116903927687,7.52659663812709,8.2920242369773),.UNSPECIFIED.);
#130=B_SPLINE_CURVE_WITH_KNOTS('',3,(#542,#543,#544,#545,#546,#547,#548,
#549),.UNSPECIFIED.,.F.,.F.,(4,2,2,4),(5.58955953716284,5.96015945232935,
6.33075936749585,7.66359894204587),.UNSPECIFIED.);
#131=B_SPLINE_CURVE_WITH_KNOTS('',3,(#569,#570,#571,#572,#573,#574,#575,
#576,#577,#578),.UNSPECIFIED.,.F.,.F.,(4,2,2,2,4),(0.,0.886689196525106,
1.77337839305021,2.31133532966431,2.8492922662784),.UNSPECIFIED.);
#132=B_SPLINE_CURVE_WITH_KNOTS('',3,(#600,#601,#602,#603,#604,#605,#606,
#607,#608,#609),.UNSPECIFIED.,.F.,.F.,(4,2,2,2,4),(6.85967116265635,7.39762809927045,
7.93558503588454,8.82227423240965,9.70896342893475),.UNSPECIFIED.);
#133=CIRCLE('',#368,25.000000372529);
#134=CIRCLE('',#369,23.0000003427267);
#135=CIRCLE('',#370,33.0000003427267);
#136=CIRCLE('',#372,25.000000372529);
#137=CIRCLE('',#373,25.000000372529);
#138=CIRCLE('',#374,25.000000372529);
#139=CIRCLE('',#378,1.05);
#140=CIRCLE('',#379,1.05);
#141=CIRCLE('',#380,1.05);
#142=CIRCLE('',#382,20.000000372529);
#143=CIRCLE('',#383,5.);
#144=CIRCLE('',#384,25.000000372529);
#145=CIRCLE('',#387,37.000000372529);
#146=CIRCLE('',#390,1.05);
#147=CIRCLE('',#391,1.05);
#148=CIRCLE('',#392,1.05);
#149=CIRCLE('',#401,23.0000003427267);
#150=CIRCLE('',#402,23.0000003427267);
#151=CIRCLE('',#405,23.0000003427267);
#152=VERTEX_POINT('',#513);
#153=VERTEX_POINT('',#514);
#154=VERTEX_POINT('',#516);
#155=VERTEX_POINT('',#527);
#156=VERTEX_POINT('',#529);
#157=VERTEX_POINT('',#540);
#158=VERTEX_POINT('',#551);
#159=VERTEX_POINT('',#553);
#160=VERTEX_POINT('',#555);
#161=VERTEX_POINT('',#557);
#162=VERTEX_POINT('',#559);
#163=VERTEX_POINT('',#563);
#164=VERTEX_POINT('',#565);
#165=VERTEX_POINT('',#567);
#166=VERTEX_POINT('',#580);
#167=VERTEX_POINT('',#582);
#168=VERTEX_POINT('',#585);
#169=VERTEX_POINT('',#587);
#170=VERTEX_POINT('',#589);
#171=VERTEX_POINT('',#592);
#172=VERTEX_POINT('',#598);
#173=VERTEX_POINT('',#611);
#174=VERTEX_POINT('',#613);
#175=VERTEX_POINT('',#616);
#176=VERTEX_POINT('',#618);
#177=VERTEX_POINT('',#620);
#178=VERTEX_POINT('',#623);
#179=VERTEX_POINT('',#627);
#180=VERTEX_POINT('',#629);
#181=VERTEX_POINT('',#648);
#182=VERTEX_POINT('',#650);
#183=VERTEX_POINT('',#656);
#184=EDGE_CURVE('',#152,#153,#133,.T.);
#185=EDGE_CURVE('',#154,#153,#128,.T.);
#186=EDGE_CURVE('',#154,#155,#134,.T.);
#187=EDGE_CURVE('',#155,#156,#129,.F.);
#188=EDGE_CURVE('',#156,#157,#135,.T.);
#189=EDGE_CURVE('',#157,#152,#130,.T.);
#190=EDGE_CURVE('',#153,#158,#35,.T.);
#191=EDGE_CURVE('',#152,#159,#36,.T.);
#192=EDGE_CURVE('',#160,#159,#136,.T.);
#193=EDGE_CURVE('',#161,#160,#137,.T.);
#194=EDGE_CURVE('',#162,#161,#37,.T.);
#195=EDGE_CURVE('',#162,#158,#138,.T.);
#196=EDGE_CURVE('',#157,#163,#38,.T.);
#197=EDGE_CURVE('',#163,#164,#39,.T.);
#198=EDGE_CURVE('',#165,#164,#40,.T.);
#199=EDGE_CURVE('',#159,#165,#131,.T.);
#200=EDGE_CURVE('',#166,#156,#41,.T.);
#201=EDGE_CURVE('',#167,#166,#22,.T.);
#202=EDGE_CURVE('',#163,#167,#42,.T.);
#203=EDGE_CURVE('',#168,#168,#139,.T.);
#204=EDGE_CURVE('',#169,#169,#140,.T.);
#205=EDGE_CURVE('',#170,#170,#141,.T.);
#206=EDGE_CURVE('',#171,#171,#142,.T.);
#207=EDGE_CURVE('',#171,#160,#143,.T.);
#208=EDGE_CURVE('',#161,#159,#144,.T.);
#209=EDGE_CURVE('',#165,#172,#145,.T.);
#210=EDGE_CURVE('',#172,#161,#132,.T.);
#211=EDGE_CURVE('',#164,#173,#43,.T.);
#212=EDGE_CURVE('',#173,#174,#23,.T.);
#213=EDGE_CURVE('',#174,#172,#44,.T.);
#214=EDGE_CURVE('',#175,#175,#146,.T.);
#215=EDGE_CURVE('',#176,#176,#147,.T.);
#216=EDGE_CURVE('',#177,#177,#148,.T.);
#217=EDGE_CURVE('',#178,#162,#45,.T.);
#218=EDGE_CURVE('',#178,#174,#46,.T.);
#219=EDGE_CURVE('',#179,#155,#47,.T.);
#220=EDGE_CURVE('',#179,#180,#48,.T.);
#221=EDGE_CURVE('',#180,#166,#49,.T.);
#222=EDGE_CURVE('',#167,#173,#50,.T.);
#223=EDGE_CURVE('',#180,#178,#24,.T.);
#224=EDGE_CURVE('',#175,#168,#51,.T.);
#225=EDGE_CURVE('',#176,#169,#52,.T.);
#226=EDGE_CURVE('',#177,#170,#53,.T.);
#227=EDGE_CURVE('',#158,#181,#54,.T.);
#228=EDGE_CURVE('',#182,#179,#149,.T.);
#229=EDGE_CURVE('',#181,#182,#150,.T.);
#230=EDGE_CURVE('',#181,#154,#55,.T.);
#231=EDGE_CURVE('',#183,#183,#151,.T.);
#232=EDGE_CURVE('',#183,#182,#56,.T.);
#233=ORIENTED_EDGE('',*,*,#184,.T.);
#234=ORIENTED_EDGE('',*,*,#185,.F.);
#235=ORIENTED_EDGE('',*,*,#186,.T.);
#236=ORIENTED_EDGE('',*,*,#187,.T.);
#237=ORIENTED_EDGE('',*,*,#188,.T.);
#238=ORIENTED_EDGE('',*,*,#189,.T.);
#239=ORIENTED_EDGE('',*,*,#190,.F.);
#240=ORIENTED_EDGE('',*,*,#184,.F.);
#241=ORIENTED_EDGE('',*,*,#191,.T.);
#242=ORIENTED_EDGE('',*,*,#192,.F.);
#243=ORIENTED_EDGE('',*,*,#193,.F.);
#244=ORIENTED_EDGE('',*,*,#194,.F.);
#245=ORIENTED_EDGE('',*,*,#195,.T.);
#246=ORIENTED_EDGE('',*,*,#189,.F.);
#247=ORIENTED_EDGE('',*,*,#196,.T.);
#248=ORIENTED_EDGE('',*,*,#197,.T.);
#249=ORIENTED_EDGE('',*,*,#198,.F.);
#250=ORIENTED_EDGE('',*,*,#199,.F.);
#251=ORIENTED_EDGE('',*,*,#191,.F.);
#252=ORIENTED_EDGE('',*,*,#188,.F.);
#253=ORIENTED_EDGE('',*,*,#200,.F.);
#254=ORIENTED_EDGE('',*,*,#201,.F.);
#255=ORIENTED_EDGE('',*,*,#202,.F.);
#256=ORIENTED_EDGE('',*,*,#196,.F.);
#257=ORIENTED_EDGE('',*,*,#203,.F.);
#258=ORIENTED_EDGE('',*,*,#204,.F.);
#259=ORIENTED_EDGE('',*,*,#205,.F.);
#260=ORIENTED_EDGE('',*,*,#206,.T.);
#261=ORIENTED_EDGE('',*,*,#207,.T.);
#262=ORIENTED_EDGE('',*,*,#192,.T.);
#263=ORIENTED_EDGE('',*,*,#208,.F.);
#264=ORIENTED_EDGE('',*,*,#193,.T.);
#265=ORIENTED_EDGE('',*,*,#207,.F.);
#266=ORIENTED_EDGE('',*,*,#206,.F.);
#267=ORIENTED_EDGE('',*,*,#199,.T.);
#268=ORIENTED_EDGE('',*,*,#209,.T.);
#269=ORIENTED_EDGE('',*,*,#210,.T.);
#270=ORIENTED_EDGE('',*,*,#208,.T.);
#271=ORIENTED_EDGE('',*,*,#209,.F.);
#272=ORIENTED_EDGE('',*,*,#198,.T.);
#273=ORIENTED_EDGE('',*,*,#211,.T.);
#274=ORIENTED_EDGE('',*,*,#212,.T.);
#275=ORIENTED_EDGE('',*,*,#213,.T.);
#276=ORIENTED_EDGE('',*,*,#214,.T.);
#277=ORIENTED_EDGE('',*,*,#215,.T.);
#278=ORIENTED_EDGE('',*,*,#216,.T.);
#279=ORIENTED_EDGE('',*,*,#217,.T.);
#280=ORIENTED_EDGE('',*,*,#194,.T.);
#281=ORIENTED_EDGE('',*,*,#210,.F.);
#282=ORIENTED_EDGE('',*,*,#213,.F.);
#283=ORIENTED_EDGE('',*,*,#218,.F.);
#284=ORIENTED_EDGE('',*,*,#200,.T.);
#285=ORIENTED_EDGE('',*,*,#187,.F.);
#286=ORIENTED_EDGE('',*,*,#219,.F.);
#287=ORIENTED_EDGE('',*,*,#220,.T.);
#288=ORIENTED_EDGE('',*,*,#221,.T.);
#289=ORIENTED_EDGE('',*,*,#202,.T.);
#290=ORIENTED_EDGE('',*,*,#222,.T.);
#291=ORIENTED_EDGE('',*,*,#211,.F.);
#292=ORIENTED_EDGE('',*,*,#197,.F.);
#293=ORIENTED_EDGE('',*,*,#201,.T.);
#294=ORIENTED_EDGE('',*,*,#221,.F.);
#295=ORIENTED_EDGE('',*,*,#223,.T.);
#296=ORIENTED_EDGE('',*,*,#218,.T.);
#297=ORIENTED_EDGE('',*,*,#212,.F.);
#298=ORIENTED_EDGE('',*,*,#222,.F.);
#299=ORIENTED_EDGE('',*,*,#214,.F.);
#300=ORIENTED_EDGE('',*,*,#224,.T.);
#301=ORIENTED_EDGE('',*,*,#203,.T.);
#302=ORIENTED_EDGE('',*,*,#224,.F.);
#303=ORIENTED_EDGE('',*,*,#215,.F.);
#304=ORIENTED_EDGE('',*,*,#225,.T.);
#305=ORIENTED_EDGE('',*,*,#204,.T.);
#306=ORIENTED_EDGE('',*,*,#225,.F.);
#307=ORIENTED_EDGE('',*,*,#216,.F.);
#308=ORIENTED_EDGE('',*,*,#226,.T.);
#309=ORIENTED_EDGE('',*,*,#205,.T.);
#310=ORIENTED_EDGE('',*,*,#226,.F.);
#311=ORIENTED_EDGE('',*,*,#227,.F.);
#312=ORIENTED_EDGE('',*,*,#195,.F.);
#313=ORIENTED_EDGE('',*,*,#217,.F.);
#314=ORIENTED_EDGE('',*,*,#223,.F.);
#315=ORIENTED_EDGE('',*,*,#220,.F.);
#316=ORIENTED_EDGE('',*,*,#228,.F.);
#317=ORIENTED_EDGE('',*,*,#229,.F.);
#318=ORIENTED_EDGE('',*,*,#190,.T.);
#319=ORIENTED_EDGE('',*,*,#227,.T.);
#320=ORIENTED_EDGE('',*,*,#230,.T.);
#321=ORIENTED_EDGE('',*,*,#185,.T.);
#322=ORIENTED_EDGE('',*,*,#231,.T.);
#323=ORIENTED_EDGE('',*,*,#232,.T.);
#324=ORIENTED_EDGE('',*,*,#228,.T.);
#325=ORIENTED_EDGE('',*,*,#219,.T.);
#326=ORIENTED_EDGE('',*,*,#186,.F.);
#327=ORIENTED_EDGE('',*,*,#230,.F.);
#328=ORIENTED_EDGE('',*,*,#229,.T.);
#329=ORIENTED_EDGE('',*,*,#232,.F.);
#330=ORIENTED_EDGE('',*,*,#231,.F.);
#331=TOROIDAL_SURFACE('',#367,33.0000003427267,10.);
#332=TOROIDAL_SURFACE('',#381,20.000000372529,5.);
#333=TOROIDAL_SURFACE('',#386,37.000000372529,12.);
#334=ADVANCED_FACE('',(#84),#331,.T.);
#335=ADVANCED_FACE('',(#85),#79,.T.);
#336=ADVANCED_FACE('',(#86),#25,.T.);
#337=ADVANCED_FACE('',(#87,#16,#17,#18),#26,.T.);
#338=ADVANCED_FACE('',(#88),#332,.T.);
#339=ADVANCED_FACE('',(#89),#27,.F.);
#340=ADVANCED_FACE('',(#90),#333,.F.);
#341=ADVANCED_FACE('',(#91,#19,#20,#21),#28,.F.);
#342=ADVANCED_FACE('',(#92),#29,.T.);
#343=ADVANCED_FACE('',(#93),#30,.T.);
#344=ADVANCED_FACE('',(#94),#31,.T.);
#345=ADVANCED_FACE('',(#95),#15,.T.);
#346=ADVANCED_FACE('',(#96),#80,.F.);
#347=ADVANCED_FACE('',(#97),#81,.F.);
#348=ADVANCED_FACE('',(#98),#82,.F.);
#349=ADVANCED_FACE('',(#99),#32,.T.);
#350=ADVANCED_FACE('',(#100),#33,.T.);
#351=ADVANCED_FACE('',(#101),#83,.F.);
#352=ADVANCED_FACE('',(#102),#34,.T.);
#353=CLOSED_SHELL('',(#334,#335,#336,#337,#338,#339,#340,#341,#342,#343,
#344,#345,#346,#347,#348,#349,#350,#351,#352));
#354=DERIVED_UNIT_ELEMENT(#356,1.);
#355=DERIVED_UNIT_ELEMENT(#665,-3.);
#356=(
MASS_UNIT()
NAMED_UNIT(*)
SI_UNIT(.KILO.,.GRAM.)
);
#357=DERIVED_UNIT((#354,#355));
#358=MEASURE_REPRESENTATION_ITEM('density measure',
POSITIVE_RATIO_MEASURE(7850.),#357);
#359=PROPERTY_DEFINITION_REPRESENTATION(#364,#361);
#360=PROPERTY_DEFINITION_REPRESENTATION(#365,#362);
#361=REPRESENTATION('material name',(#363),#662);
#362=REPRESENTATION('density',(#358),#662);
#363=DESCRIPTIVE_REPRESENTATION_ITEM('Steel','Steel');
#364=PROPERTY_DEFINITION('material property','material name',#672);
#365=PROPERTY_DEFINITION('material property','density of part',#672);
#366=AXIS2_PLACEMENT_3D('',#511,#407,#408);
#367=AXIS2_PLACEMENT_3D('',#512,#409,#410);
#368=AXIS2_PLACEMENT_3D('',#515,#411,#412);
#369=AXIS2_PLACEMENT_3D('',#528,#413,#414);
#370=AXIS2_PLACEMENT_3D('',#541,#415,#416);
#371=AXIS2_PLACEMENT_3D('',#550,#417,#418);
#372=AXIS2_PLACEMENT_3D('',#556,#421,#422);
#373=AXIS2_PLACEMENT_3D('',#558,#423,#424);
#374=AXIS2_PLACEMENT_3D('',#561,#426,#427);
#375=AXIS2_PLACEMENT_3D('',#562,#428,#429);
#376=AXIS2_PLACEMENT_3D('',#579,#433,#434);
#377=AXIS2_PLACEMENT_3D('',#583,#436,#437);
#378=AXIS2_PLACEMENT_3D('',#586,#439,#440);
#379=AXIS2_PLACEMENT_3D('',#588,#441,#442);
#380=AXIS2_PLACEMENT_3D('',#590,#443,#444);
#381=AXIS2_PLACEMENT_3D('',#591,#445,#446);
#382=AXIS2_PLACEMENT_3D('',#593,#447,#448);
#383=AXIS2_PLACEMENT_3D('',#594,#449,#450);
#384=AXIS2_PLACEMENT_3D('',#595,#451,#452);
#385=AXIS2_PLACEMENT_3D('',#596,#453,#454);
#386=AXIS2_PLACEMENT_3D('',#597,#455,#456);
#387=AXIS2_PLACEMENT_3D('',#599,#457,#458);
#388=AXIS2_PLACEMENT_3D('',#610,#459,#460);
#389=AXIS2_PLACEMENT_3D('',#614,#462,#463);
#390=AXIS2_PLACEMENT_3D('',#617,#465,#466);
#391=AXIS2_PLACEMENT_3D('',#619,#467,#468);
#392=AXIS2_PLACEMENT_3D('',#621,#469,#470);
#393=AXIS2_PLACEMENT_3D('',#622,#471,#472);
#394=AXIS2_PLACEMENT_3D('',#626,#475,#476);
#395=AXIS2_PLACEMENT_3D('',#632,#480,#481);
#396=AXIS2_PLACEMENT_3D('',#640,#483,#484);
#397=AXIS2_PLACEMENT_3D('',#641,#485,#486);
#398=AXIS2_PLACEMENT_3D('',#643,#488,#489);
#399=AXIS2_PLACEMENT_3D('',#645,#491,#492);
#400=AXIS2_PLACEMENT_3D('',#647,#494,#495);
#401=AXIS2_PLACEMENT_3D('',#651,#497,#498);
#402=AXIS2_PLACEMENT_3D('',#652,#499,#500);
#403=AXIS2_PLACEMENT_3D('',#653,#501,#502);
#404=AXIS2_PLACEMENT_3D('',#655,#504,#505);
#405=AXIS2_PLACEMENT_3D('',#657,#506,#507);
#406=AXIS2_PLACEMENT_3D('',#659,#509,#510);
#407=DIRECTION('axis',(0.,0.,1.));
#408=DIRECTION('refdir',(1.,0.,0.));
#409=DIRECTION('center_axis',(0.,1.,0.));
#410=DIRECTION('ref_axis',(-0.522808506082433,0.,-0.852450154535651));
#411=DIRECTION('center_axis',(0.,1.,0.));
#412=DIRECTION('ref_axis',(1.,0.,0.));
#413=DIRECTION('center_axis',(0.,-1.,0.));
#414=DIRECTION('ref_axis',(-0.51075391845525,0.,-0.859726953621095));
#415=DIRECTION('center_axis',(0.,1.,0.));
#416=DIRECTION('ref_axis',(-0.51075391845525,0.,-0.859726953621095));
#417=DIRECTION('center_axis',(0.,-1.,0.));
#418=DIRECTION('ref_axis',(1.,0.,0.));
#419=DIRECTION('',(0.,1.,0.));
#420=DIRECTION('',(0.,-1.,0.));
#421=DIRECTION('center_axis',(0.,-1.,0.));
#422=DIRECTION('ref_axis',(-0.919999999999999,0.,0.391918358845311));
#423=DIRECTION('center_axis',(0.,-1.,0.));
#424=DIRECTION('ref_axis',(-0.919999999999999,0.,0.391918358845311));
#425=DIRECTION('',(0.,-1.,0.));
#426=DIRECTION('center_axis',(0.,-1.,0.));
#427=DIRECTION('ref_axis',(1.,0.,0.));
#428=DIRECTION('center_axis',(-1.,0.,0.));
#429=DIRECTION('ref_axis',(0.,0.,-1.));
#430=DIRECTION('',(0.,0.,-1.));
#431=DIRECTION('',(0.,-1.,0.));
#432=DIRECTION('',(0.,0.,-1.));
#433=DIRECTION('center_axis',(0.,1.,0.));
#434=DIRECTION('ref_axis',(1.,0.,0.));
#435=DIRECTION('',(0.,0.,1.));
#436=DIRECTION('center_axis',(0.,1.,0.));
#437=DIRECTION('ref_axis',(1.,0.,0.));
#438=DIRECTION('',(1.,0.,0.));
#439=DIRECTION('center_axis',(0.,1.,0.));
#440=DIRECTION('ref_axis',(1.,0.,0.));
#441=DIRECTION('center_axis',(0.,1.,0.));
#442=DIRECTION('ref_axis',(1.,0.,0.));
#443=DIRECTION('center_axis',(0.,1.,0.));
#444=DIRECTION('ref_axis',(1.,0.,0.));
#445=DIRECTION('center_axis',(0.,-1.,0.));
#446=DIRECTION('ref_axis',(0.,0.,-1.));
#447=DIRECTION('center_axis',(0.,1.,0.));
#448=DIRECTION('ref_axis',(-0.919999999999999,0.,0.391918358845311));
#449=DIRECTION('center_axis',(-1.,0.,0.));
#450=DIRECTION('ref_axis',(0.,0.,1.));
#451=DIRECTION('center_axis',(0.,1.,0.));
#452=DIRECTION('ref_axis',(3.55271362586094E-16,0.,-1.));
#453=DIRECTION('center_axis',(0.,1.,0.));
#454=DIRECTION('ref_axis',(1.,0.,0.));
#455=DIRECTION('center_axis',(0.,-1.,0.));
#456=DIRECTION('ref_axis',(0.,0.,-1.));
#457=DIRECTION('center_axis',(0.,-1.,0.));
#458=DIRECTION('ref_axis',(3.55271362586094E-16,0.,-1.));
#459=DIRECTION('center_axis',(0.,1.,0.));
#460=DIRECTION('ref_axis',(1.,0.,0.));
#461=DIRECTION('',(1.,0.,0.));
#462=DIRECTION('center_axis',(0.,1.,0.));
#463=DIRECTION('ref_axis',(1.,0.,0.));
#464=DIRECTION('',(0.,0.,1.));
#465=DIRECTION('center_axis',(0.,1.,0.));
#466=DIRECTION('ref_axis',(1.,0.,0.));
#467=DIRECTION('center_axis',(0.,1.,0.));
#468=DIRECTION('ref_axis',(1.,0.,0.));
#469=DIRECTION('center_axis',(0.,1.,0.));
#470=DIRECTION('ref_axis',(1.,0.,0.));
#471=DIRECTION('center_axis',(1.,0.,0.));
#472=DIRECTION('ref_axis',(0.,0.,1.));
#473=DIRECTION('',(0.,0.,1.));
#474=DIRECTION('',(0.,-1.,0.));
#475=DIRECTION('center_axis',(-1.,0.,0.));
#476=DIRECTION('ref_axis',(0.,0.,-1.));
#477=DIRECTION('',(0.,-1.,0.));
#478=DIRECTION('',(0.,0.,-1.));
#479=DIRECTION('',(0.,-1.,0.));
#480=DIRECTION('center_axis',(0.,0.,-1.));
#481=DIRECTION('ref_axis',(1.,0.,0.));
#482=DIRECTION('',(0.,-1.,0.));
#483=DIRECTION('center_axis',(0.,1.,0.));
#484=DIRECTION('ref_axis',(1.,0.,0.));
#485=DIRECTION('center_axis',(0.,-1.,0.));
#486=DIRECTION('ref_axis',(1.,0.,0.));
#487=DIRECTION('',(0.,1.,0.));
#488=DIRECTION('center_axis',(0.,-1.,0.));
#489=DIRECTION('ref_axis',(1.,0.,0.));
#490=DIRECTION('',(0.,1.,0.));
#491=DIRECTION('center_axis',(0.,-1.,0.));
#492=DIRECTION('ref_axis',(1.,0.,0.));
#493=DIRECTION('',(0.,1.,0.));
#494=DIRECTION('center_axis',(0.,1.,0.));
#495=DIRECTION('ref_axis',(1.,0.,0.));
#496=DIRECTION('',(0.,0.,-1.));
#497=DIRECTION('center_axis',(0.,1.,0.));
#498=DIRECTION('ref_axis',(-0.478260869565217,0.,-0.878217820727137));
#499=DIRECTION('center_axis',(0.,1.,0.));
#500=DIRECTION('ref_axis',(-0.478260869565217,0.,-0.878217820727137));
#501=DIRECTION('center_axis',(-1.,0.,0.));
#502=DIRECTION('ref_axis',(0.,0.,-1.));
#503=DIRECTION('',(0.,-1.,0.));
#504=DIRECTION('center_axis',(0.,-1.,0.));
#505=DIRECTION('ref_axis',(-0.478260869565217,0.,-0.878217820727137));
#506=DIRECTION('center_axis',(0.,-1.,0.));
#507=DIRECTION('ref_axis',(-0.478260869565217,0.,-0.878217820727137));
#508=DIRECTION('',(0.,1.,0.));
#509=DIRECTION('center_axis',(0.,1.,0.));
#510=DIRECTION('ref_axis',(1.,0.,0.));
#511=CARTESIAN_POINT('',(0.,0.,0.));
#512=CARTESIAN_POINT('Origin',(-65.0000009685755,-146.,209.000003114343));
#513=CARTESIAN_POINT('',(-90.0000013411045,-139.999999960264,209.000003114343));
#514=CARTESIAN_POINT('',(-76.0000011324883,-139.999999960264,231.449947769517));
#515=CARTESIAN_POINT('Origin',(-65.0000009685755,-139.999999960264,209.000003114343));
#516=CARTESIAN_POINT('',(-76.0000011324883,-146.,229.199013292056));
#517=CARTESIAN_POINT('Ctrl Pts',(-76.0000011324883,-146.,229.199013292056));
#518=CARTESIAN_POINT('Ctrl Pts',(-76.0000011324883,-145.403384894279,229.199013292056));
#519=CARTESIAN_POINT('Ctrl Pts',(-76.0000011324883,-144.752883540229,229.264041440893));
#520=CARTESIAN_POINT('Ctrl Pts',(-76.0000011324883,-143.483201606662,229.540446499015));
#521=CARTESIAN_POINT('Ctrl Pts',(-76.0000011324883,-142.863948905866,229.751492011173));
#522=CARTESIAN_POINT('Ctrl Pts',(-76.0000011324883,-141.737685269438,230.254829798483));
#523=CARTESIAN_POINT('Ctrl Pts',(-76.0000011324883,-141.131361657936,230.600673365804));
#524=CARTESIAN_POINT('Ctrl Pts',(-76.0000011324883,-140.373452272173,231.148763210554));
#525=CARTESIAN_POINT('Ctrl Pts',(-76.0000011324883,-140.183199156606,231.296941378146));
#526=CARTESIAN_POINT('Ctrl Pts',(-76.0000011324883,-139.999999960264,231.449947769517));
#527=CARTESIAN_POINT('',(-42.0000006258488,-146.,209.000003114343));
#528=CARTESIAN_POINT('Origin',(-65.0000009685755,-146.,209.000003114343));
#529=CARTESIAN_POINT('',(-42.0000006258488,-136.,185.335683837116));
#530=CARTESIAN_POINT('Ctrl Pts',(-42.0000006258488,-136.,185.335683837116));
#531=CARTESIAN_POINT('Ctrl Pts',(-42.0000006258488,-136.,186.872019795716));
#532=CARTESIAN_POINT('Ctrl Pts',(-42.0000006258488,-136.193346235409,188.541257598783));
#533=CARTESIAN_POINT('Ctrl Pts',(-42.0000006258488,-136.913287386576,191.815034335567));
#534=CARTESIAN_POINT('Ctrl Pts',(-42.0000006258488,-137.435695713622,193.420492545273));
#535=CARTESIAN_POINT('Ctrl Pts',(-42.0000006258488,-138.929524805782,197.22552434434));
#536=CARTESIAN_POINT('Ctrl Pts',(-42.0000006258488,-140.206753235511,199.710422294504));
#537=CARTESIAN_POINT('Ctrl Pts',(-42.0000006258488,-143.046274047047,204.528788567659));
#538=CARTESIAN_POINT('Ctrl Pts',(-42.0000006258488,-144.59548658869,206.869953046981));
#539=CARTESIAN_POINT('Ctrl Pts',(-42.0000006258488,-146.,209.000003114343));
#540=CARTESIAN_POINT('',(-90.0000013411045,-136.,187.459343793108));
#541=CARTESIAN_POINT('Origin',(-65.0000009685755,-136.,209.000003114343));
#542=CARTESIAN_POINT('Ctrl Pts',(-90.0000013411045,-136.,187.459343793108));
#543=CARTESIAN_POINT('Ctrl Pts',(-90.0000013411045,-136.,188.694676843663));
#544=CARTESIAN_POINT('Ctrl Pts',(-90.0000013411045,-136.104409738354,190.046018504199));
#545=CARTESIAN_POINT('Ctrl Pts',(-90.0000013411045,-136.489262794888,192.727019084065));
#546=CARTESIAN_POINT('Ctrl Pts',(-90.0000013411045,-136.76646962672,194.057141598678));
#547=CARTESIAN_POINT('Ctrl Pts',(-90.0000013411045,-138.096028134436,199.577418132447));
#548=CARTESIAN_POINT('Ctrl Pts',(-90.0000013411045,-139.999999960264,204.557204532509));
#549=CARTESIAN_POINT('Ctrl Pts',(-90.0000013411045,-139.999999960264,209.000003114343));
#550=CARTESIAN_POINT('Origin',(-65.0000009685755,0.,209.000003114343));
#551=CARTESIAN_POINT('',(-76.0000011324883,-110.,231.449947769517));
#552=CARTESIAN_POINT('',(-76.0000011324883,0.,231.449947769517));
#553=CARTESIAN_POINT('',(-90.0000013411045,-152.,209.000003114343));
#554=CARTESIAN_POINT('',(-90.0000013411045,0.,209.000003114343));
#555=CARTESIAN_POINT('',(-65.0000009685755,-152.,234.000003486872));
#556=CARTESIAN_POINT('Origin',(-65.0000009685755,-152.,209.000003114343));
#557=CARTESIAN_POINT('',(-40.0000005960464,-152.,209.000003114343));
#558=CARTESIAN_POINT('Origin',(-65.0000009685755,-152.,209.000003114343));
#559=CARTESIAN_POINT('',(-40.0000005960464,-110.,209.000003114343));
#560=CARTESIAN_POINT('',(-40.0000005960464,0.,209.000003114343));
#561=CARTESIAN_POINT('Origin',(-65.0000009685755,-110.,209.000003114343));
#562=CARTESIAN_POINT('Origin',(-90.0000013411045,0.,209.000003114343));
#563=CARTESIAN_POINT('',(-90.0000013411045,-136.,149.500002227724));
#564=CARTESIAN_POINT('',(-90.0000013411045,-136.,194.125002892688));
#565=CARTESIAN_POINT('',(-90.0000013411045,-140.,149.500002227724));
#566=CARTESIAN_POINT('',(-90.0000013411045,0.,149.500002227724));
#567=CARTESIAN_POINT('',(-90.0000013411045,-140.,181.72363955648));
#568=CARTESIAN_POINT('',(-90.0000013411045,-140.,209.000003114343));
#569=CARTESIAN_POINT('Ctrl Pts',(-90.0000013411045,-152.,209.000003114343));
#570=CARTESIAN_POINT('Ctrl Pts',(-90.0000013411045,-150.316783727215,206.57048967575));
#571=CARTESIAN_POINT('Ctrl Pts',(-90.0000013411045,-148.46020110372,203.900323092312));
#572=CARTESIAN_POINT('Ctrl Pts',(-90.0000013411045,-145.057626565172,198.389243837859));
#573=CARTESIAN_POINT('Ctrl Pts',(-90.0000013411045,-143.527242322922,195.538710142224));
#574=CARTESIAN_POINT('Ctrl Pts',(-90.0000013411045,-141.730142119745,191.143061559003));
#575=CARTESIAN_POINT('Ctrl Pts',(-90.0000013411045,-141.099582445262,189.2763116598));
#576=CARTESIAN_POINT('Ctrl Pts',(-90.0000013411045,-140.232066531126,185.463751034435));
#577=CARTESIAN_POINT('Ctrl Pts',(-90.0000013411045,-140.,183.516829345194));
#578=CARTESIAN_POINT('Ctrl Pts',(-90.0000013411045,-140.,181.72363955648));
#579=CARTESIAN_POINT('Origin',(-66.0000009834766,-136.,179.250002671033));
#580=CARTESIAN_POINT('',(-42.0000006258488,-136.,161.937345376887));
#581=CARTESIAN_POINT('',(-42.0000006258488,-136.,170.59367402396));
#582=CARTESIAN_POINT('',(-60.0000008940697,-136.,149.500002227724));
#583=CARTESIAN_POINT('Origin',(-40.0000005960464,-136.,149.500002227724));
#584=CARTESIAN_POINT('',(-78.0000011622906,-136.,149.500002227724));
#585=CARTESIAN_POINT('',(-72.0500010579825,-136.,154.500002302229));
#586=CARTESIAN_POINT('Origin',(-71.0000010579824,-136.,154.500002302229));
#587=CARTESIAN_POINT('',(-72.0500010579825,-136.,169.500002525747));
#588=CARTESIAN_POINT('Origin',(-71.0000010579824,-136.,169.500002525747));
#589=CARTESIAN_POINT('',(-50.0500007301569,-136.,169.500002525747));
#590=CARTESIAN_POINT('Origin',(-49.0000007301569,-136.,169.500002525747));
#591=CARTESIAN_POINT('Origin',(-65.0000009685755,-152.,209.000003114343));
#592=CARTESIAN_POINT('',(-65.0000009685755,-157.,229.000003486872));
#593=CARTESIAN_POINT('Origin',(-65.0000009685755,-157.,209.000003114343));
#594=CARTESIAN_POINT('Origin',(-65.0000009685755,-152.,229.000003486872));
#595=CARTESIAN_POINT('Origin',(-65.0000009685755,-152.,209.000003114343));
#596=CARTESIAN_POINT('Origin',(-65.0000009685755,-157.,209.000003114343));
#597=CARTESIAN_POINT('Origin',(-65.0000009685755,-152.,209.000003114343));
#598=CARTESIAN_POINT('',(-40.0000005960464,-140.,181.72363955648));
#599=CARTESIAN_POINT('Origin',(-65.0000009685755,-140.,209.000003114343));
#600=CARTESIAN_POINT('Ctrl Pts',(-40.0000005960464,-140.,181.72363955648));
#601=CARTESIAN_POINT('Ctrl Pts',(-40.0000005960464,-140.,183.516829345194));
#602=CARTESIAN_POINT('Ctrl Pts',(-40.0000005960464,-140.232066531126,185.463751034435));
#603=CARTESIAN_POINT('Ctrl Pts',(-40.0000005960464,-141.099582445262,189.2763116598));
#604=CARTESIAN_POINT('Ctrl Pts',(-40.0000005960464,-141.730142119745,191.143061559003));
#605=CARTESIAN_POINT('Ctrl Pts',(-40.0000005960464,-143.527242322922,195.538710142224));
#606=CARTESIAN_POINT('Ctrl Pts',(-40.0000005960464,-145.057626565172,198.389243837859));
#607=CARTESIAN_POINT('Ctrl Pts',(-40.0000005960464,-148.46020110372,203.900323092312));
#608=CARTESIAN_POINT('Ctrl Pts',(-40.0000005960464,-150.316783727215,206.57048967575));
#609=CARTESIAN_POINT('Ctrl Pts',(-40.0000005960464,-152.,209.000003114343));
#610=CARTESIAN_POINT('Origin',(-66.0000009834766,-140.,179.250002671033));
#611=CARTESIAN_POINT('',(-60.0000008940697,-140.,149.500002227724));
#612=CARTESIAN_POINT('',(-76.0000011324883,-140.,149.500002227724));
#613=CARTESIAN_POINT('',(-40.0000005960464,-140.,162.000002413988));
#614=CARTESIAN_POINT('Origin',(-40.0000005960464,-140.,149.500002227724));
#615=CARTESIAN_POINT('',(-40.0000005960464,-140.,162.000002413988));
#616=CARTESIAN_POINT('',(-72.0500010579825,-140.,154.500002302229));
#617=CARTESIAN_POINT('Origin',(-71.0000010579824,-140.,154.500002302229));
#618=CARTESIAN_POINT('',(-72.0500010579825,-140.,169.500002525747));
#619=CARTESIAN_POINT('Origin',(-71.0000010579824,-140.,169.500002525747));
#620=CARTESIAN_POINT('',(-50.0500007301569,-140.,169.500002525747));
#621=CARTESIAN_POINT('Origin',(-49.0000007301569,-140.,169.500002525747));
#622=CARTESIAN_POINT('Origin',(-40.0000005960464,0.,162.000002413988));
#623=CARTESIAN_POINT('',(-40.0000005960464,-110.,162.000002413988));
#624=CARTESIAN_POINT('',(-40.0000005960464,-110.,173.734338329802));
#625=CARTESIAN_POINT('',(-40.0000005960464,0.,162.000002413988));
#626=CARTESIAN_POINT('Origin',(-42.0000006258488,0.,209.000003114343));
#627=CARTESIAN_POINT('',(-42.0000006258488,-110.,209.000003114343));
#628=CARTESIAN_POINT('',(-42.0000006258488,0.,209.000003114343));
#629=CARTESIAN_POINT('',(-42.0000006258488,-110.,161.937345376887));
#630=CARTESIAN_POINT('',(-42.0000006258488,-110.,192.335359121412));
#631=CARTESIAN_POINT('',(-42.0000006258488,0.,161.937345376887));
#632=CARTESIAN_POINT('Origin',(-90.0000013411045,0.,149.500002227724));
#633=CARTESIAN_POINT('',(-60.0000008940697,0.,149.500002227724));
#634=CARTESIAN_POINT('Ctrl Pts',(-40.0000005960464,-110.,162.000002413988));
#635=CARTESIAN_POINT('Ctrl Pts',(-60.0000008940697,-110.,162.000002413988));
#636=CARTESIAN_POINT('Ctrl Pts',(-60.0000008940697,-110.,149.500002227724));
#637=CARTESIAN_POINT('Ctrl Pts',(-40.0000005960464,-140.,162.000002413988));
#638=CARTESIAN_POINT('Ctrl Pts',(-60.0000008940697,-140.,162.000002413988));
#639=CARTESIAN_POINT('Ctrl Pts',(-60.0000008940697,-140.,149.500002227724));
#640=CARTESIAN_POINT('Origin',(-40.0000005960464,-110.,149.500002227724));
#641=CARTESIAN_POINT('Origin',(-71.0000010579824,0.,154.500002302229));
#642=CARTESIAN_POINT('',(-72.0500010579825,0.,154.500002302229));
#643=CARTESIAN_POINT('Origin',(-71.0000010579824,0.,169.500002525747));
#644=CARTESIAN_POINT('',(-72.0500010579825,0.,169.500002525747));
#645=CARTESIAN_POINT('Origin',(-49.0000007301569,0.,169.500002525747));
#646=CARTESIAN_POINT('',(-50.0500007301569,0.,169.500002525747));
#647=CARTESIAN_POINT('Origin',(-58.0000008642674,-110.,216.60102374204));
#648=CARTESIAN_POINT('',(-76.0000011324883,-110.,229.199013292056));
#649=CARTESIAN_POINT('',(-76.0000011324883,-110.,224.025485755778));
#650=CARTESIAN_POINT('',(-54.0000008046627,-110.,229.199013292056));
#651=CARTESIAN_POINT('Origin',(-65.0000009685755,-110.,209.000003114343));
#652=CARTESIAN_POINT('Origin',(-65.0000009685755,-110.,209.000003114343));
#653=CARTESIAN_POINT('Origin',(-76.0000011324883,0.,231.449947769517));
#654=CARTESIAN_POINT('',(-76.0000011324883,0.,229.199013292056));
#655=CARTESIAN_POINT('Origin',(-65.0000009685755,0.,209.000003114343));
#656=CARTESIAN_POINT('',(-54.0000008046627,-155.,229.199013292056));
#657=CARTESIAN_POINT('Origin',(-65.0000009685755,-155.,209.000003114343));
#658=CARTESIAN_POINT('',(-54.0000008046627,0.,229.199013292056));
#659=CARTESIAN_POINT('Origin',(-65.0000009685755,-155.,209.000003114343));
#660=UNCERTAINTY_MEASURE_WITH_UNIT(LENGTH_MEASURE(0.01),#664,
'DISTANCE_ACCURACY_VALUE',
'Maximum model space distance between geometric entities at asserted c
onnectivities');
#661=UNCERTAINTY_MEASURE_WITH_UNIT(LENGTH_MEASURE(0.01),#664,
'DISTANCE_ACCURACY_VALUE',
'Maximum model space distance between geometric entities at asserted c
onnectivities');
#662=(
GEOMETRIC_REPRESENTATION_CONTEXT(3)
GLOBAL_UNCERTAINTY_ASSIGNED_CONTEXT((#660))
GLOBAL_UNIT_ASSIGNED_CONTEXT((#664,#666,#667))
REPRESENTATION_CONTEXT('','3D')
);
#663=(
GEOMETRIC_REPRESENTATION_CONTEXT(3)
GLOBAL_UNCERTAINTY_ASSIGNED_CONTEXT((#661))
GLOBAL_UNIT_ASSIGNED_CONTEXT((#664,#666,#667))
REPRESENTATION_CONTEXT('','3D')
);
#664=(
LENGTH_UNIT()
NAMED_UNIT(*)
SI_UNIT(.MILLI.,.METRE.)
);
#665=(
LENGTH_UNIT()
NAMED_UNIT(*)
SI_UNIT($,.METRE.)
);
#666=(
NAMED_UNIT(*)
PLANE_ANGLE_UNIT()
SI_UNIT($,.RADIAN.)
);
#667=(
NAMED_UNIT(*)
SI_UNIT($,.STERADIAN.)
SOLID_ANGLE_UNIT()
);
#668=SHAPE_DEFINITION_REPRESENTATION(#669,#670);
#669=PRODUCT_DEFINITION_SHAPE('',$,#672);
#670=SHAPE_REPRESENTATION('',(#366),#662);
#671=PRODUCT_DEFINITION_CONTEXT('part definition',#676,'design');
#672=PRODUCT_DEFINITION('2025-08-02-17-18-31-600','shell_1',#673,#671);
#673=PRODUCT_DEFINITION_FORMATION('',$,#678);
#674=PRODUCT_RELATED_PRODUCT_CATEGORY('shell_1','shell_1',(#678));
#675=APPLICATION_PROTOCOL_DEFINITION('international standard',
'automotive_design',2009,#676);
#676=APPLICATION_CONTEXT(
'Core Data for Automotive Mechanical Design Process');
#677=PRODUCT_CONTEXT('part definition',#676,'mechanical');
#678=PRODUCT('2025-08-02-17-18-31-600','shell_1',$,(#677));
#679=PRESENTATION_STYLE_ASSIGNMENT((#681));
#680=PRESENTATION_STYLE_ASSIGNMENT((#682));
#681=SURFACE_STYLE_USAGE(.BOTH.,#683);
#682=SURFACE_STYLE_USAGE(.BOTH.,#684);
#683=SURFACE_SIDE_STYLE('',(#685));
#684=SURFACE_SIDE_STYLE('',(#686));
#685=SURFACE_STYLE_FILL_AREA(#687);
#686=SURFACE_STYLE_FILL_AREA(#688);
#687=FILL_AREA_STYLE('Steel - Satin',(#689));
#688=FILL_AREA_STYLE('Sunflower yellow PLA',(#690));
#689=FILL_AREA_STYLE_COLOUR('Steel - Satin',#691);
#690=FILL_AREA_STYLE_COLOUR('Sunflower yellow PLA',#692);
#691=COLOUR_RGB('Steel - Satin',0.627450980392157,0.627450980392157,0.627450980392157);
#692=COLOUR_RGB('Sunflower yellow PLA',1.,0.733333333333333,0.);
ENDSEC;
END-ISO-10303-21;
