ISO-10303-21;
HEADER;
/* Generated by software containing ST-Developer
 * from STEP Tools, Inc. (www.steptools.com) 
 */

FILE_DESCRIPTION(
/* description */ (''),
/* implementation_level */ '2;1');

FILE_NAME(
/* name */ 'shell_2.step',
/* time_stamp */ '2025-08-06T18:57:43+01:00',
/* author */ (''),
/* organization */ (''),
/* preprocessor_version */ 'ST-DEVELOPER v20.1',
/* originating_system */ 'Autodesk Translation Framework v14.10.0.0',
/* authorisation */ '');

FILE_SCHEMA (('AUTOMOTIVE_DESIGN { 1 0 10303 214 3 1 1 }'));
ENDSEC;

DATA;
#10=MECHANICAL_DESIGN_GEOMETRIC_PRESENTATION_REPRESENTATION('',(#17),#184);
#11=ITEM_DEFINED_TRANSFORMATION($,$,#108,#121);
#12=(
REPRESENTATION_RELATIONSHIP($,$,#195,#194)
REPRESENTATION_RELATIONSHIP_WITH_TRANSFORMATION(#11)
SHAPE_REPRESENTATION_RELATIONSHIP()
);
#13=CONTEXT_DEPENDENT_SHAPE_REPRESENTATION(#12,#193);
#14=NEXT_ASSEMBLY_USAGE_OCCURRENCE('Component2:1','Component2:1',
'Component2:1',#197,#198,'Component2:1');
#15=SHAPE_REPRESENTATION_RELATIONSHIP('SRR','None',#195,#16);
#16=ADVANCED_BREP_SHAPE_REPRESENTATION('',(#18),#183);
#17=STYLED_ITEM('',(#209),#18);
#18=MANIFOLD_SOLID_BREP('Body1',#94);
#19=FACE_BOUND('',#33,.T.);
#20=FACE_BOUND('',#36,.T.);
#21=FACE_BOUND('',#39,.T.);
#22=PLANE('',#112);
#23=PLANE('',#116);
#24=PLANE('',#120);
#25=FACE_OUTER_BOUND('',#31,.T.);
#26=FACE_OUTER_BOUND('',#32,.T.);
#27=FACE_OUTER_BOUND('',#34,.T.);
#28=FACE_OUTER_BOUND('',#35,.T.);
#29=FACE_OUTER_BOUND('',#37,.T.);
#30=FACE_OUTER_BOUND('',#38,.T.);
#31=EDGE_LOOP('',(#67,#68,#69,#70));
#32=EDGE_LOOP('',(#71));
#33=EDGE_LOOP('',(#72));
#34=EDGE_LOOP('',(#73,#74,#75,#76));
#35=EDGE_LOOP('',(#77));
#36=EDGE_LOOP('',(#78));
#37=EDGE_LOOP('',(#79,#80,#81,#82));
#38=EDGE_LOOP('',(#83));
#39=EDGE_LOOP('',(#84));
#40=LINE('',#161,#43);
#41=LINE('',#169,#44);
#42=LINE('',#176,#45);
#43=VECTOR('',#130,10.);
#44=VECTOR('',#141,7.);
#45=VECTOR('',#150,10.5000001564622);
#46=CIRCLE('',#110,10.);
#47=CIRCLE('',#111,10.);
#48=CIRCLE('',#113,7.);
#49=CIRCLE('',#115,7.);
#50=CIRCLE('',#117,10.5000001564622);
#51=CIRCLE('',#119,10.5000001564622);
#52=VERTEX_POINT('',#158);
#53=VERTEX_POINT('',#160);
#54=VERTEX_POINT('',#164);
#55=VERTEX_POINT('',#167);
#56=VERTEX_POINT('',#171);
#57=VERTEX_POINT('',#174);
#58=EDGE_CURVE('',#52,#52,#46,.T.);
#59=EDGE_CURVE('',#52,#53,#40,.T.);
#60=EDGE_CURVE('',#53,#53,#47,.T.);
#61=EDGE_CURVE('',#54,#54,#48,.T.);
#62=EDGE_CURVE('',#55,#55,#49,.T.);
#63=EDGE_CURVE('',#55,#54,#41,.T.);
#64=EDGE_CURVE('',#56,#56,#50,.T.);
#65=EDGE_CURVE('',#57,#57,#51,.T.);
#66=EDGE_CURVE('',#57,#56,#42,.T.);
#67=ORIENTED_EDGE('',*,*,#58,.T.);
#68=ORIENTED_EDGE('',*,*,#59,.T.);
#69=ORIENTED_EDGE('',*,*,#60,.T.);
#70=ORIENTED_EDGE('',*,*,#59,.F.);
#71=ORIENTED_EDGE('',*,*,#60,.F.);
#72=ORIENTED_EDGE('',*,*,#61,.F.);
#73=ORIENTED_EDGE('',*,*,#62,.F.);
#74=ORIENTED_EDGE('',*,*,#63,.T.);
#75=ORIENTED_EDGE('',*,*,#61,.T.);
#76=ORIENTED_EDGE('',*,*,#63,.F.);
#77=ORIENTED_EDGE('',*,*,#64,.F.);
#78=ORIENTED_EDGE('',*,*,#58,.F.);
#79=ORIENTED_EDGE('',*,*,#65,.F.);
#80=ORIENTED_EDGE('',*,*,#66,.T.);
#81=ORIENTED_EDGE('',*,*,#64,.T.);
#82=ORIENTED_EDGE('',*,*,#66,.F.);
#83=ORIENTED_EDGE('',*,*,#65,.T.);
#84=ORIENTED_EDGE('',*,*,#62,.T.);
#85=CYLINDRICAL_SURFACE('',#109,10.);
#86=CYLINDRICAL_SURFACE('',#114,7.);
#87=CYLINDRICAL_SURFACE('',#118,10.5000001564622);
#88=ADVANCED_FACE('',(#25),#85,.T.);
#89=ADVANCED_FACE('',(#26,#19),#22,.F.);
#90=ADVANCED_FACE('',(#27),#86,.F.);
#91=ADVANCED_FACE('',(#28,#20),#23,.F.);
#92=ADVANCED_FACE('',(#29),#87,.T.);
#93=ADVANCED_FACE('',(#30,#21),#24,.T.);
#94=CLOSED_SHELL('',(#88,#89,#90,#91,#92,#93));
#95=DERIVED_UNIT_ELEMENT(#97,1.);
#96=DERIVED_UNIT_ELEMENT(#186,-3.);
#97=(
MASS_UNIT()
NAMED_UNIT(*)
SI_UNIT(.KILO.,.GRAM.)
);
#98=DERIVED_UNIT((#95,#96));
#99=MEASURE_REPRESENTATION_ITEM('density measure',
POSITIVE_RATIO_MEASURE(7850.),#98);
#100=PROPERTY_DEFINITION_REPRESENTATION(#105,#102);
#101=PROPERTY_DEFINITION_REPRESENTATION(#106,#103);
#102=REPRESENTATION('material name',(#104),#183);
#103=REPRESENTATION('density',(#99),#183);
#104=DESCRIPTIVE_REPRESENTATION_ITEM('Steel','Steel');
#105=PROPERTY_DEFINITION('material property','material name',#198);
#106=PROPERTY_DEFINITION('material property','density of part',#198);
#107=AXIS2_PLACEMENT_3D('',#155,#122,#123);
#108=AXIS2_PLACEMENT_3D('',#156,#124,#125);
#109=AXIS2_PLACEMENT_3D('',#157,#126,#127);
#110=AXIS2_PLACEMENT_3D('',#159,#128,#129);
#111=AXIS2_PLACEMENT_3D('',#162,#131,#132);
#112=AXIS2_PLACEMENT_3D('',#163,#133,#134);
#113=AXIS2_PLACEMENT_3D('',#165,#135,#136);
#114=AXIS2_PLACEMENT_3D('',#166,#137,#138);
#115=AXIS2_PLACEMENT_3D('',#168,#139,#140);
#116=AXIS2_PLACEMENT_3D('',#170,#142,#143);
#117=AXIS2_PLACEMENT_3D('',#172,#144,#145);
#118=AXIS2_PLACEMENT_3D('',#173,#146,#147);
#119=AXIS2_PLACEMENT_3D('',#175,#148,#149);
#120=AXIS2_PLACEMENT_3D('',#177,#151,#152);
#121=AXIS2_PLACEMENT_3D('',#178,#153,#154);
#122=DIRECTION('axis',(0.,0.,1.));
#123=DIRECTION('refdir',(1.,0.,0.));
#124=DIRECTION('axis',(0.,0.,1.));
#125=DIRECTION('refdir',(1.,0.,0.));
#126=DIRECTION('center_axis',(0.,0.,1.));
#127=DIRECTION('ref_axis',(1.,0.,0.));
#128=DIRECTION('center_axis',(0.,0.,-1.));
#129=DIRECTION('ref_axis',(1.,0.,0.));
#130=DIRECTION('',(0.,0.,-1.));
#131=DIRECTION('center_axis',(0.,0.,1.));
#132=DIRECTION('ref_axis',(1.,0.,0.));
#133=DIRECTION('center_axis',(0.,0.,1.));
#134=DIRECTION('ref_axis',(1.,0.,0.));
#135=DIRECTION('center_axis',(0.,0.,-1.));
#136=DIRECTION('ref_axis',(1.,0.,0.));
#137=DIRECTION('center_axis',(0.,0.,1.));
#138=DIRECTION('ref_axis',(1.,0.,0.));
#139=DIRECTION('center_axis',(0.,0.,-1.));
#140=DIRECTION('ref_axis',(1.,0.,0.));
#141=DIRECTION('',(0.,0.,-1.));
#142=DIRECTION('center_axis',(0.,0.,1.));
#143=DIRECTION('ref_axis',(1.,0.,0.));
#144=DIRECTION('center_axis',(0.,0.,1.));
#145=DIRECTION('ref_axis',(1.,0.,0.));
#146=DIRECTION('center_axis',(0.,0.,1.));
#147=DIRECTION('ref_axis',(1.,0.,0.));
#148=DIRECTION('center_axis',(0.,0.,1.));
#149=DIRECTION('ref_axis',(1.,0.,0.));
#150=DIRECTION('',(0.,0.,-1.));
#151=DIRECTION('center_axis',(0.,0.,1.));
#152=DIRECTION('ref_axis',(1.,0.,0.));
#153=DIRECTION('',(0.,0.,1.));
#154=DIRECTION('',(1.,0.,0.));
#155=CARTESIAN_POINT('',(0.,0.,0.));
#156=CARTESIAN_POINT('',(0.,0.,0.));
#157=CARTESIAN_POINT('Origin',(0.,-125.000001862645,0.));
#158=CARTESIAN_POINT('',(-10.,-125.000001862645,160.));
#159=CARTESIAN_POINT('Origin',(0.,-125.000001862645,160.));
#160=CARTESIAN_POINT('',(-10.,-125.000001862645,150.));
#161=CARTESIAN_POINT('',(-10.,-125.000001862645,0.));
#162=CARTESIAN_POINT('Origin',(0.,-125.000001862645,150.));
#163=CARTESIAN_POINT('Origin',(0.,-125.000001862645,150.));
#164=CARTESIAN_POINT('',(-7.,-125.000001862645,150.));
#165=CARTESIAN_POINT('Origin',(0.,-125.000001862645,150.));
#166=CARTESIAN_POINT('Origin',(0.,-125.000001862645,0.));
#167=CARTESIAN_POINT('',(-7.,-125.000001862645,162.));
#168=CARTESIAN_POINT('Origin',(0.,-125.000001862645,162.));
#169=CARTESIAN_POINT('',(-7.,-125.000001862645,0.));
#170=CARTESIAN_POINT('Origin',(0.,-125.000001862645,160.));
#171=CARTESIAN_POINT('',(-10.5000001564622,-125.000001862645,160.));
#172=CARTESIAN_POINT('Origin',(0.,-125.000001862645,160.));
#173=CARTESIAN_POINT('Origin',(0.,-125.000001862645,0.));
#174=CARTESIAN_POINT('',(-10.5000001564622,-125.000001862645,162.));
#175=CARTESIAN_POINT('Origin',(0.,-125.000001862645,162.));
#176=CARTESIAN_POINT('',(-10.5000001564622,-125.000001862645,0.));
#177=CARTESIAN_POINT('Origin',(0.,-125.000001862645,162.));
#178=CARTESIAN_POINT('',(0.,0.,0.));
#179=UNCERTAINTY_MEASURE_WITH_UNIT(LENGTH_MEASURE(0.01),#185,
'DISTANCE_ACCURACY_VALUE',
'Maximum model space distance between geometric entities at asserted c
onnectivities');
#180=UNCERTAINTY_MEASURE_WITH_UNIT(LENGTH_MEASURE(0.01),#185,
'DISTANCE_ACCURACY_VALUE',
'Maximum model space distance between geometric entities at asserted c
onnectivities');
#181=UNCERTAINTY_MEASURE_WITH_UNIT(LENGTH_MEASURE(0.01),#185,
'DISTANCE_ACCURACY_VALUE',
'Maximum model space distance between geometric entities at asserted c
onnectivities');
#182=(
GEOMETRIC_REPRESENTATION_CONTEXT(3)
GLOBAL_UNCERTAINTY_ASSIGNED_CONTEXT((#179))
GLOBAL_UNIT_ASSIGNED_CONTEXT((#185,#187,#188))
REPRESENTATION_CONTEXT('','3D')
);
#183=(
GEOMETRIC_REPRESENTATION_CONTEXT(3)
GLOBAL_UNCERTAINTY_ASSIGNED_CONTEXT((#180))
GLOBAL_UNIT_ASSIGNED_CONTEXT((#185,#187,#188))
REPRESENTATION_CONTEXT('','3D')
);
#184=(
GEOMETRIC_REPRESENTATION_CONTEXT(3)
GLOBAL_UNCERTAINTY_ASSIGNED_CONTEXT((#181))
GLOBAL_UNIT_ASSIGNED_CONTEXT((#185,#187,#188))
REPRESENTATION_CONTEXT('','3D')
);
#185=(
LENGTH_UNIT()
NAMED_UNIT(*)
SI_UNIT(.MILLI.,.METRE.)
);
#186=(
LENGTH_UNIT()
NAMED_UNIT(*)
SI_UNIT($,.METRE.)
);
#187=(
NAMED_UNIT(*)
PLANE_ANGLE_UNIT()
SI_UNIT($,.RADIAN.)
);
#188=(
NAMED_UNIT(*)
SI_UNIT($,.STERADIAN.)
SOLID_ANGLE_UNIT()
);
#189=SHAPE_DEFINITION_REPRESENTATION(#191,#194);
#190=SHAPE_DEFINITION_REPRESENTATION(#192,#195);
#191=PRODUCT_DEFINITION_SHAPE('',$,#197);
#192=PRODUCT_DEFINITION_SHAPE('',$,#198);
#193=PRODUCT_DEFINITION_SHAPE($,$,#14);
#194=SHAPE_REPRESENTATION('',(#107,#121),#182);
#195=SHAPE_REPRESENTATION('',(#108),#183);
#196=PRODUCT_DEFINITION_CONTEXT('part definition',#204,'design');
#197=PRODUCT_DEFINITION('2025-08-06-18-57-43-790','shell_2',#199,#196);
#198=PRODUCT_DEFINITION('2025-08-06-18-57-43-793','Component2',#200,#196);
#199=PRODUCT_DEFINITION_FORMATION('',$,#206);
#200=PRODUCT_DEFINITION_FORMATION('',$,#207);
#201=PRODUCT_RELATED_PRODUCT_CATEGORY('shell_2','shell_2',(#206));
#202=PRODUCT_RELATED_PRODUCT_CATEGORY('Component2','Component2',(#207));
#203=APPLICATION_PROTOCOL_DEFINITION('international standard',
'automotive_design',2009,#204);
#204=APPLICATION_CONTEXT(
'Core Data for Automotive Mechanical Design Process');
#205=PRODUCT_CONTEXT('part definition',#204,'mechanical');
#206=PRODUCT('2025-08-06-18-57-43-790','shell_2',$,(#205));
#207=PRODUCT('2025-08-06-18-57-43-793','Component2',$,(#205));
#208=PRESENTATION_STYLE_ASSIGNMENT((#210));
#209=PRESENTATION_STYLE_ASSIGNMENT((#211));
#210=SURFACE_STYLE_USAGE(.BOTH.,#212);
#211=SURFACE_STYLE_USAGE(.BOTH.,#213);
#212=SURFACE_SIDE_STYLE('',(#214));
#213=SURFACE_SIDE_STYLE('',(#215));
#214=SURFACE_STYLE_FILL_AREA(#216);
#215=SURFACE_STYLE_FILL_AREA(#217);
#216=FILL_AREA_STYLE('Steel - Satin',(#218));
#217=FILL_AREA_STYLE('Powder Coat - Rough (Black)',(#219));
#218=FILL_AREA_STYLE_COLOUR('Steel - Satin',#220);
#219=FILL_AREA_STYLE_COLOUR('Powder Coat - Rough (Black)',#221);
#220=COLOUR_RGB('Steel - Satin',0.627450980392157,0.627450980392157,0.627450980392157);
#221=COLOUR_RGB('Powder Coat - Rough (Black)',0.0980392156862745,0.0980392156862745,
0.0980392156862745);
ENDSEC;
END-ISO-10303-21;
