ISO-10303-21;
HEADER;
/* Generated by software containing ST-Developer
 * from STEP Tools, Inc. (www.steptools.com) 
 */

FILE_DESCRIPTION(
/* description */ (''),
/* implementation_level */ '2;1');

FILE_NAME(
/* name */ 'base_1.step',
/* time_stamp */ '2025-08-11T20:28:21+01:00',
/* author */ (''),
/* organization */ (''),
/* preprocessor_version */ 'ST-DEVELOPER v20.1',
/* originating_system */ 'Autodesk Translation Framework v14.10.0.0',
/* authorisation */ '');

FILE_SCHEMA (('AUTOMOTIVE_DESIGN { 1 0 10303 214 3 1 1 }'));
ENDSEC;

DATA;
#10=MECHANICAL_DESIGN_GEOMETRIC_PRESENTATION_REPRESENTATION('',(#13),#956);
#11=SHAPE_REPRESENTATION_RELATIONSHIP('SRR','None',#963,#12);
#12=ADVANCED_BREP_SHAPE_REPRESENTATION('',(#14),#955);
#13=STYLED_ITEM('',(#973),#14);
#14=MANIFOLD_SOLID_BREP('Body4',#556);
#15=CYLINDRICAL_SURFACE('',#580,1.55);
#16=CYLINDRICAL_SURFACE('',#582,1.55);
#17=CYLINDRICAL_SURFACE('',#584,1.55);
#18=CYLINDRICAL_SURFACE('',#586,1.55);
#19=CYLINDRICAL_SURFACE('',#588,75.);
#20=CYLINDRICAL_SURFACE('',#591,5.00000007450581);
#21=CYLINDRICAL_SURFACE('',#594,5.00000007450581);
#22=CYLINDRICAL_SURFACE('',#605,1.95);
#23=CYLINDRICAL_SURFACE('',#607,1.95);
#24=CYLINDRICAL_SURFACE('',#609,1.95);
#25=CYLINDRICAL_SURFACE('',#611,1.95);
#26=CYLINDRICAL_SURFACE('',#613,4.99999962747099);
#27=CYLINDRICAL_SURFACE('',#616,5.00000007450581);
#28=CYLINDRICAL_SURFACE('',#619,5.00000007450581);
#29=CYLINDRICAL_SURFACE('',#622,5.00000007450581);
#30=CYLINDRICAL_SURFACE('',#625,5.00000007450581);
#31=CYLINDRICAL_SURFACE('',#628,4.99999962747099);
#32=LINE('',#815,#73);
#33=LINE('',#819,#74);
#34=LINE('',#823,#75);
#35=LINE('',#826,#76);
#36=LINE('',#830,#77);
#37=LINE('',#834,#78);
#38=LINE('',#838,#79);
#39=LINE('',#842,#80);
#40=LINE('',#846,#81);
#41=LINE('',#849,#82);
#42=LINE('',#851,#83);
#43=LINE('',#852,#84);
#44=LINE('',#855,#85);
#45=LINE('',#859,#86);
#46=LINE('',#860,#87);
#47=LINE('',#863,#88);
#48=LINE('',#868,#89);
#49=LINE('',#872,#90);
#50=LINE('',#876,#91);
#51=LINE('',#880,#92);
#52=LINE('',#893,#93);
#53=LINE('',#897,#94);
#54=LINE('',#901,#95);
#55=LINE('',#905,#96);
#56=LINE('',#908,#97);
#57=LINE('',#911,#98);
#58=LINE('',#914,#99);
#59=LINE('',#915,#100);
#60=LINE('',#919,#101);
#61=LINE('',#922,#102);
#62=LINE('',#923,#103);
#63=LINE('',#927,#104);
#64=LINE('',#930,#105);
#65=LINE('',#931,#106);
#66=LINE('',#935,#107);
#67=LINE('',#937,#108);
#68=LINE('',#941,#109);
#69=LINE('',#944,#110);
#70=LINE('',#945,#111);
#71=LINE('',#949,#112);
#72=LINE('',#951,#113);
#73=VECTOR('',#648,10.);
#74=VECTOR('',#651,10.);
#75=VECTOR('',#654,10.);
#76=VECTOR('',#657,10.);
#77=VECTOR('',#662,1.55);
#78=VECTOR('',#667,1.55);
#79=VECTOR('',#672,1.55);
#80=VECTOR('',#677,1.55);
#81=VECTOR('',#682,75.);
#82=VECTOR('',#685,10.);
#83=VECTOR('',#686,10.);
#84=VECTOR('',#687,10.);
#85=VECTOR('',#690,10.);
#86=VECTOR('',#695,10.);
#87=VECTOR('',#696,10.);
#88=VECTOR('',#699,10.);
#89=VECTOR('',#704,10.);
#90=VECTOR('',#707,10.);
#91=VECTOR('',#710,10.);
#92=VECTOR('',#713,10.);
#93=VECTOR('',#728,1.95);
#94=VECTOR('',#733,1.95);
#95=VECTOR('',#738,1.95);
#96=VECTOR('',#743,1.95);
#97=VECTOR('',#746,10.);
#98=VECTOR('',#749,10.);
#99=VECTOR('',#752,10.);
#100=VECTOR('',#753,10.);
#101=VECTOR('',#758,10.);
#102=VECTOR('',#761,10.);
#103=VECTOR('',#762,10.);
#104=VECTOR('',#767,10.);
#105=VECTOR('',#770,10.);
#106=VECTOR('',#771,10.);
#107=VECTOR('',#776,10.);
#108=VECTOR('',#779,10.);
#109=VECTOR('',#784,10.);
#110=VECTOR('',#787,10.);
#111=VECTOR('',#788,10.);
#112=VECTOR('',#793,10.);
#113=VECTOR('',#796,10.);
#114=FACE_BOUND('',#162,.T.);
#115=FACE_BOUND('',#163,.T.);
#116=FACE_BOUND('',#164,.T.);
#117=FACE_BOUND('',#165,.T.);
#118=FACE_BOUND('',#166,.T.);
#119=FACE_BOUND('',#177,.T.);
#120=FACE_BOUND('',#178,.T.);
#121=FACE_BOUND('',#179,.T.);
#122=FACE_BOUND('',#180,.T.);
#123=FACE_BOUND('',#181,.T.);
#124=FACE_BOUND('',#182,.T.);
#125=FACE_BOUND('',#183,.T.);
#126=FACE_BOUND('',#184,.T.);
#127=FACE_BOUND('',#185,.T.);
#128=FACE_BOUND('',#203,.T.);
#129=FACE_BOUND('',#204,.T.);
#130=FACE_BOUND('',#205,.T.);
#131=FACE_BOUND('',#206,.T.);
#132=FACE_BOUND('',#207,.T.);
#133=FACE_OUTER_BOUND('',#161,.T.);
#134=FACE_OUTER_BOUND('',#167,.T.);
#135=FACE_OUTER_BOUND('',#168,.T.);
#136=FACE_OUTER_BOUND('',#169,.T.);
#137=FACE_OUTER_BOUND('',#170,.T.);
#138=FACE_OUTER_BOUND('',#171,.T.);
#139=FACE_OUTER_BOUND('',#172,.T.);
#140=FACE_OUTER_BOUND('',#173,.T.);
#141=FACE_OUTER_BOUND('',#174,.T.);
#142=FACE_OUTER_BOUND('',#175,.T.);
#143=FACE_OUTER_BOUND('',#176,.T.);
#144=FACE_OUTER_BOUND('',#186,.T.);
#145=FACE_OUTER_BOUND('',#187,.T.);
#146=FACE_OUTER_BOUND('',#188,.T.);
#147=FACE_OUTER_BOUND('',#189,.T.);
#148=FACE_OUTER_BOUND('',#190,.T.);
#149=FACE_OUTER_BOUND('',#191,.T.);
#150=FACE_OUTER_BOUND('',#192,.T.);
#151=FACE_OUTER_BOUND('',#193,.T.);
#152=FACE_OUTER_BOUND('',#194,.T.);
#153=FACE_OUTER_BOUND('',#195,.T.);
#154=FACE_OUTER_BOUND('',#196,.T.);
#155=FACE_OUTER_BOUND('',#197,.T.);
#156=FACE_OUTER_BOUND('',#198,.T.);
#157=FACE_OUTER_BOUND('',#199,.T.);
#158=FACE_OUTER_BOUND('',#200,.T.);
#159=FACE_OUTER_BOUND('',#201,.T.);
#160=FACE_OUTER_BOUND('',#202,.T.);
#161=EDGE_LOOP('',(#367));
#162=EDGE_LOOP('',(#368));
#163=EDGE_LOOP('',(#369));
#164=EDGE_LOOP('',(#370));
#165=EDGE_LOOP('',(#371));
#166=EDGE_LOOP('',(#372,#373,#374,#375,#376,#377,#378,#379));
#167=EDGE_LOOP('',(#380,#381,#382,#383));
#168=EDGE_LOOP('',(#384,#385,#386,#387));
#169=EDGE_LOOP('',(#388,#389,#390,#391));
#170=EDGE_LOOP('',(#392,#393,#394,#395));
#171=EDGE_LOOP('',(#396,#397,#398,#399));
#172=EDGE_LOOP('',(#400,#401,#402,#403));
#173=EDGE_LOOP('',(#404,#405,#406,#407));
#174=EDGE_LOOP('',(#408,#409,#410,#411));
#175=EDGE_LOOP('',(#412,#413,#414,#415));
#176=EDGE_LOOP('',(#416));
#177=EDGE_LOOP('',(#417));
#178=EDGE_LOOP('',(#418));
#179=EDGE_LOOP('',(#419));
#180=EDGE_LOOP('',(#420));
#181=EDGE_LOOP('',(#421,#422,#423,#424,#425,#426,#427,#428));
#182=EDGE_LOOP('',(#429));
#183=EDGE_LOOP('',(#430));
#184=EDGE_LOOP('',(#431));
#185=EDGE_LOOP('',(#432));
#186=EDGE_LOOP('',(#433,#434,#435,#436));
#187=EDGE_LOOP('',(#437,#438,#439,#440));
#188=EDGE_LOOP('',(#441,#442,#443,#444));
#189=EDGE_LOOP('',(#445,#446,#447,#448));
#190=EDGE_LOOP('',(#449,#450,#451,#452));
#191=EDGE_LOOP('',(#453,#454,#455,#456));
#192=EDGE_LOOP('',(#457,#458,#459,#460));
#193=EDGE_LOOP('',(#461,#462,#463,#464));
#194=EDGE_LOOP('',(#465,#466,#467,#468));
#195=EDGE_LOOP('',(#469,#470,#471,#472));
#196=EDGE_LOOP('',(#473,#474,#475,#476));
#197=EDGE_LOOP('',(#477,#478,#479,#480));
#198=EDGE_LOOP('',(#481,#482,#483,#484));
#199=EDGE_LOOP('',(#485,#486,#487,#488));
#200=EDGE_LOOP('',(#489,#490,#491,#492));
#201=EDGE_LOOP('',(#493,#494,#495,#496));
#202=EDGE_LOOP('',(#497,#498,#499,#500,#501,#502,#503,#504));
#203=EDGE_LOOP('',(#505,#506,#507,#508,#509,#510,#511,#512));
#204=EDGE_LOOP('',(#513));
#205=EDGE_LOOP('',(#514));
#206=EDGE_LOOP('',(#515));
#207=EDGE_LOOP('',(#516));
#208=CIRCLE('',#571,75.);
#209=CIRCLE('',#572,1.55);
#210=CIRCLE('',#573,1.55);
#211=CIRCLE('',#574,1.55);
#212=CIRCLE('',#575,1.55);
#213=CIRCLE('',#576,5.00000007450581);
#214=CIRCLE('',#577,4.99999962747099);
#215=CIRCLE('',#578,5.00000007450581);
#216=CIRCLE('',#579,5.00000007450581);
#217=CIRCLE('',#581,1.55);
#218=CIRCLE('',#583,1.55);
#219=CIRCLE('',#585,1.55);
#220=CIRCLE('',#587,1.55);
#221=CIRCLE('',#589,75.);
#222=CIRCLE('',#592,5.00000007450581);
#223=CIRCLE('',#595,5.00000007450581);
#224=CIRCLE('',#597,4.99999962747099);
#225=CIRCLE('',#598,5.00000007450581);
#226=CIRCLE('',#599,5.00000007450581);
#227=CIRCLE('',#600,5.00000007450581);
#228=CIRCLE('',#601,1.95);
#229=CIRCLE('',#602,1.95);
#230=CIRCLE('',#603,1.95);
#231=CIRCLE('',#604,1.95);
#232=CIRCLE('',#606,1.95);
#233=CIRCLE('',#608,1.95);
#234=CIRCLE('',#610,1.95);
#235=CIRCLE('',#612,1.95);
#236=CIRCLE('',#614,4.99999962747099);
#237=CIRCLE('',#617,5.00000007450581);
#238=CIRCLE('',#620,5.00000007450581);
#239=CIRCLE('',#623,5.00000007450581);
#240=CIRCLE('',#626,5.00000007450581);
#241=CIRCLE('',#629,4.99999962747099);
#242=VERTEX_POINT('',#801);
#243=VERTEX_POINT('',#803);
#244=VERTEX_POINT('',#805);
#245=VERTEX_POINT('',#807);
#246=VERTEX_POINT('',#809);
#247=VERTEX_POINT('',#811);
#248=VERTEX_POINT('',#812);
#249=VERTEX_POINT('',#814);
#250=VERTEX_POINT('',#816);
#251=VERTEX_POINT('',#818);
#252=VERTEX_POINT('',#820);
#253=VERTEX_POINT('',#822);
#254=VERTEX_POINT('',#824);
#255=VERTEX_POINT('',#828);
#256=VERTEX_POINT('',#832);
#257=VERTEX_POINT('',#836);
#258=VERTEX_POINT('',#840);
#259=VERTEX_POINT('',#844);
#260=VERTEX_POINT('',#848);
#261=VERTEX_POINT('',#850);
#262=VERTEX_POINT('',#854);
#263=VERTEX_POINT('',#858);
#264=VERTEX_POINT('',#862);
#265=VERTEX_POINT('',#866);
#266=VERTEX_POINT('',#867);
#267=VERTEX_POINT('',#869);
#268=VERTEX_POINT('',#871);
#269=VERTEX_POINT('',#873);
#270=VERTEX_POINT('',#875);
#271=VERTEX_POINT('',#877);
#272=VERTEX_POINT('',#879);
#273=VERTEX_POINT('',#882);
#274=VERTEX_POINT('',#884);
#275=VERTEX_POINT('',#886);
#276=VERTEX_POINT('',#888);
#277=VERTEX_POINT('',#891);
#278=VERTEX_POINT('',#895);
#279=VERTEX_POINT('',#899);
#280=VERTEX_POINT('',#903);
#281=VERTEX_POINT('',#907);
#282=VERTEX_POINT('',#909);
#283=VERTEX_POINT('',#913);
#284=VERTEX_POINT('',#917);
#285=VERTEX_POINT('',#921);
#286=VERTEX_POINT('',#925);
#287=VERTEX_POINT('',#929);
#288=VERTEX_POINT('',#933);
#289=VERTEX_POINT('',#939);
#290=VERTEX_POINT('',#943);
#291=VERTEX_POINT('',#947);
#292=EDGE_CURVE('',#242,#242,#208,.T.);
#293=EDGE_CURVE('',#243,#243,#209,.T.);
#294=EDGE_CURVE('',#244,#244,#210,.T.);
#295=EDGE_CURVE('',#245,#245,#211,.T.);
#296=EDGE_CURVE('',#246,#246,#212,.T.);
#297=EDGE_CURVE('',#247,#248,#213,.T.);
#298=EDGE_CURVE('',#249,#247,#32,.T.);
#299=EDGE_CURVE('',#250,#249,#214,.T.);
#300=EDGE_CURVE('',#251,#250,#33,.T.);
#301=EDGE_CURVE('',#252,#251,#215,.T.);
#302=EDGE_CURVE('',#253,#252,#34,.T.);
#303=EDGE_CURVE('',#254,#253,#216,.T.);
#304=EDGE_CURVE('',#248,#254,#35,.T.);
#305=EDGE_CURVE('',#255,#255,#217,.T.);
#306=EDGE_CURVE('',#255,#246,#36,.T.);
#307=EDGE_CURVE('',#256,#256,#218,.T.);
#308=EDGE_CURVE('',#256,#245,#37,.T.);
#309=EDGE_CURVE('',#257,#257,#219,.T.);
#310=EDGE_CURVE('',#257,#244,#38,.T.);
#311=EDGE_CURVE('',#258,#258,#220,.T.);
#312=EDGE_CURVE('',#258,#243,#39,.T.);
#313=EDGE_CURVE('',#259,#259,#221,.T.);
#314=EDGE_CURVE('',#259,#242,#40,.T.);
#315=EDGE_CURVE('',#260,#254,#41,.T.);
#316=EDGE_CURVE('',#261,#260,#42,.T.);
#317=EDGE_CURVE('',#248,#261,#43,.T.);
#318=EDGE_CURVE('',#253,#262,#44,.T.);
#319=EDGE_CURVE('',#260,#262,#222,.T.);
#320=EDGE_CURVE('',#252,#263,#45,.T.);
#321=EDGE_CURVE('',#262,#263,#46,.T.);
#322=EDGE_CURVE('',#251,#264,#47,.T.);
#323=EDGE_CURVE('',#263,#264,#223,.T.);
#324=EDGE_CURVE('',#265,#266,#48,.T.);
#325=EDGE_CURVE('',#266,#267,#224,.T.);
#326=EDGE_CURVE('',#267,#268,#49,.T.);
#327=EDGE_CURVE('',#268,#269,#225,.T.);
#328=EDGE_CURVE('',#269,#270,#50,.T.);
#329=EDGE_CURVE('',#270,#271,#226,.T.);
#330=EDGE_CURVE('',#271,#272,#51,.T.);
#331=EDGE_CURVE('',#272,#265,#227,.T.);
#332=EDGE_CURVE('',#273,#273,#228,.T.);
#333=EDGE_CURVE('',#274,#274,#229,.T.);
#334=EDGE_CURVE('',#275,#275,#230,.T.);
#335=EDGE_CURVE('',#276,#276,#231,.T.);
#336=EDGE_CURVE('',#277,#277,#232,.T.);
#337=EDGE_CURVE('',#277,#276,#52,.T.);
#338=EDGE_CURVE('',#278,#278,#233,.T.);
#339=EDGE_CURVE('',#278,#275,#53,.T.);
#340=EDGE_CURVE('',#279,#279,#234,.T.);
#341=EDGE_CURVE('',#279,#274,#54,.T.);
#342=EDGE_CURVE('',#280,#280,#235,.T.);
#343=EDGE_CURVE('',#280,#273,#55,.T.);
#344=EDGE_CURVE('',#281,#266,#56,.T.);
#345=EDGE_CURVE('',#282,#281,#236,.T.);
#346=EDGE_CURVE('',#267,#282,#57,.T.);
#347=EDGE_CURVE('',#283,#282,#58,.T.);
#348=EDGE_CURVE('',#268,#283,#59,.T.);
#349=EDGE_CURVE('',#284,#283,#237,.T.);
#350=EDGE_CURVE('',#269,#284,#60,.T.);
#351=EDGE_CURVE('',#285,#284,#61,.T.);
#352=EDGE_CURVE('',#270,#285,#62,.T.);
#353=EDGE_CURVE('',#286,#285,#238,.T.);
#354=EDGE_CURVE('',#271,#286,#63,.T.);
#355=EDGE_CURVE('',#287,#286,#64,.T.);
#356=EDGE_CURVE('',#272,#287,#65,.T.);
#357=EDGE_CURVE('',#288,#287,#239,.T.);
#358=EDGE_CURVE('',#265,#288,#66,.T.);
#359=EDGE_CURVE('',#281,#288,#67,.T.);
#360=EDGE_CURVE('',#289,#261,#240,.T.);
#361=EDGE_CURVE('',#247,#289,#68,.T.);
#362=EDGE_CURVE('',#290,#289,#69,.T.);
#363=EDGE_CURVE('',#249,#290,#70,.T.);
#364=EDGE_CURVE('',#291,#290,#241,.T.);
#365=EDGE_CURVE('',#250,#291,#71,.T.);
#366=EDGE_CURVE('',#264,#291,#72,.T.);
#367=ORIENTED_EDGE('',*,*,#292,.F.);
#368=ORIENTED_EDGE('',*,*,#293,.F.);
#369=ORIENTED_EDGE('',*,*,#294,.F.);
#370=ORIENTED_EDGE('',*,*,#295,.F.);
#371=ORIENTED_EDGE('',*,*,#296,.F.);
#372=ORIENTED_EDGE('',*,*,#297,.F.);
#373=ORIENTED_EDGE('',*,*,#298,.F.);
#374=ORIENTED_EDGE('',*,*,#299,.F.);
#375=ORIENTED_EDGE('',*,*,#300,.F.);
#376=ORIENTED_EDGE('',*,*,#301,.F.);
#377=ORIENTED_EDGE('',*,*,#302,.F.);
#378=ORIENTED_EDGE('',*,*,#303,.F.);
#379=ORIENTED_EDGE('',*,*,#304,.F.);
#380=ORIENTED_EDGE('',*,*,#305,.F.);
#381=ORIENTED_EDGE('',*,*,#306,.T.);
#382=ORIENTED_EDGE('',*,*,#296,.T.);
#383=ORIENTED_EDGE('',*,*,#306,.F.);
#384=ORIENTED_EDGE('',*,*,#307,.F.);
#385=ORIENTED_EDGE('',*,*,#308,.T.);
#386=ORIENTED_EDGE('',*,*,#295,.T.);
#387=ORIENTED_EDGE('',*,*,#308,.F.);
#388=ORIENTED_EDGE('',*,*,#309,.F.);
#389=ORIENTED_EDGE('',*,*,#310,.T.);
#390=ORIENTED_EDGE('',*,*,#294,.T.);
#391=ORIENTED_EDGE('',*,*,#310,.F.);
#392=ORIENTED_EDGE('',*,*,#311,.F.);
#393=ORIENTED_EDGE('',*,*,#312,.T.);
#394=ORIENTED_EDGE('',*,*,#293,.T.);
#395=ORIENTED_EDGE('',*,*,#312,.F.);
#396=ORIENTED_EDGE('',*,*,#313,.F.);
#397=ORIENTED_EDGE('',*,*,#314,.T.);
#398=ORIENTED_EDGE('',*,*,#292,.T.);
#399=ORIENTED_EDGE('',*,*,#314,.F.);
#400=ORIENTED_EDGE('',*,*,#304,.T.);
#401=ORIENTED_EDGE('',*,*,#315,.F.);
#402=ORIENTED_EDGE('',*,*,#316,.F.);
#403=ORIENTED_EDGE('',*,*,#317,.F.);
#404=ORIENTED_EDGE('',*,*,#303,.T.);
#405=ORIENTED_EDGE('',*,*,#318,.T.);
#406=ORIENTED_EDGE('',*,*,#319,.F.);
#407=ORIENTED_EDGE('',*,*,#315,.T.);
#408=ORIENTED_EDGE('',*,*,#302,.T.);
#409=ORIENTED_EDGE('',*,*,#320,.T.);
#410=ORIENTED_EDGE('',*,*,#321,.F.);
#411=ORIENTED_EDGE('',*,*,#318,.F.);
#412=ORIENTED_EDGE('',*,*,#301,.T.);
#413=ORIENTED_EDGE('',*,*,#322,.T.);
#414=ORIENTED_EDGE('',*,*,#323,.F.);
#415=ORIENTED_EDGE('',*,*,#320,.F.);
#416=ORIENTED_EDGE('',*,*,#313,.T.);
#417=ORIENTED_EDGE('',*,*,#305,.T.);
#418=ORIENTED_EDGE('',*,*,#307,.T.);
#419=ORIENTED_EDGE('',*,*,#309,.T.);
#420=ORIENTED_EDGE('',*,*,#311,.T.);
#421=ORIENTED_EDGE('',*,*,#324,.T.);
#422=ORIENTED_EDGE('',*,*,#325,.T.);
#423=ORIENTED_EDGE('',*,*,#326,.T.);
#424=ORIENTED_EDGE('',*,*,#327,.T.);
#425=ORIENTED_EDGE('',*,*,#328,.T.);
#426=ORIENTED_EDGE('',*,*,#329,.T.);
#427=ORIENTED_EDGE('',*,*,#330,.T.);
#428=ORIENTED_EDGE('',*,*,#331,.T.);
#429=ORIENTED_EDGE('',*,*,#332,.T.);
#430=ORIENTED_EDGE('',*,*,#333,.T.);
#431=ORIENTED_EDGE('',*,*,#334,.T.);
#432=ORIENTED_EDGE('',*,*,#335,.T.);
#433=ORIENTED_EDGE('',*,*,#336,.F.);
#434=ORIENTED_EDGE('',*,*,#337,.T.);
#435=ORIENTED_EDGE('',*,*,#335,.F.);
#436=ORIENTED_EDGE('',*,*,#337,.F.);
#437=ORIENTED_EDGE('',*,*,#338,.F.);
#438=ORIENTED_EDGE('',*,*,#339,.T.);
#439=ORIENTED_EDGE('',*,*,#334,.F.);
#440=ORIENTED_EDGE('',*,*,#339,.F.);
#441=ORIENTED_EDGE('',*,*,#340,.F.);
#442=ORIENTED_EDGE('',*,*,#341,.T.);
#443=ORIENTED_EDGE('',*,*,#333,.F.);
#444=ORIENTED_EDGE('',*,*,#341,.F.);
#445=ORIENTED_EDGE('',*,*,#342,.F.);
#446=ORIENTED_EDGE('',*,*,#343,.T.);
#447=ORIENTED_EDGE('',*,*,#332,.F.);
#448=ORIENTED_EDGE('',*,*,#343,.F.);
#449=ORIENTED_EDGE('',*,*,#344,.F.);
#450=ORIENTED_EDGE('',*,*,#345,.F.);
#451=ORIENTED_EDGE('',*,*,#346,.F.);
#452=ORIENTED_EDGE('',*,*,#325,.F.);
#453=ORIENTED_EDGE('',*,*,#346,.T.);
#454=ORIENTED_EDGE('',*,*,#347,.F.);
#455=ORIENTED_EDGE('',*,*,#348,.F.);
#456=ORIENTED_EDGE('',*,*,#326,.F.);
#457=ORIENTED_EDGE('',*,*,#348,.T.);
#458=ORIENTED_EDGE('',*,*,#349,.F.);
#459=ORIENTED_EDGE('',*,*,#350,.F.);
#460=ORIENTED_EDGE('',*,*,#327,.F.);
#461=ORIENTED_EDGE('',*,*,#350,.T.);
#462=ORIENTED_EDGE('',*,*,#351,.F.);
#463=ORIENTED_EDGE('',*,*,#352,.F.);
#464=ORIENTED_EDGE('',*,*,#328,.F.);
#465=ORIENTED_EDGE('',*,*,#352,.T.);
#466=ORIENTED_EDGE('',*,*,#353,.F.);
#467=ORIENTED_EDGE('',*,*,#354,.F.);
#468=ORIENTED_EDGE('',*,*,#329,.F.);
#469=ORIENTED_EDGE('',*,*,#354,.T.);
#470=ORIENTED_EDGE('',*,*,#355,.F.);
#471=ORIENTED_EDGE('',*,*,#356,.F.);
#472=ORIENTED_EDGE('',*,*,#330,.F.);
#473=ORIENTED_EDGE('',*,*,#356,.T.);
#474=ORIENTED_EDGE('',*,*,#357,.F.);
#475=ORIENTED_EDGE('',*,*,#358,.F.);
#476=ORIENTED_EDGE('',*,*,#331,.F.);
#477=ORIENTED_EDGE('',*,*,#358,.T.);
#478=ORIENTED_EDGE('',*,*,#359,.F.);
#479=ORIENTED_EDGE('',*,*,#344,.T.);
#480=ORIENTED_EDGE('',*,*,#324,.F.);
#481=ORIENTED_EDGE('',*,*,#297,.T.);
#482=ORIENTED_EDGE('',*,*,#317,.T.);
#483=ORIENTED_EDGE('',*,*,#360,.F.);
#484=ORIENTED_EDGE('',*,*,#361,.F.);
#485=ORIENTED_EDGE('',*,*,#298,.T.);
#486=ORIENTED_EDGE('',*,*,#361,.T.);
#487=ORIENTED_EDGE('',*,*,#362,.F.);
#488=ORIENTED_EDGE('',*,*,#363,.F.);
#489=ORIENTED_EDGE('',*,*,#299,.T.);
#490=ORIENTED_EDGE('',*,*,#363,.T.);
#491=ORIENTED_EDGE('',*,*,#364,.F.);
#492=ORIENTED_EDGE('',*,*,#365,.F.);
#493=ORIENTED_EDGE('',*,*,#300,.T.);
#494=ORIENTED_EDGE('',*,*,#365,.T.);
#495=ORIENTED_EDGE('',*,*,#366,.F.);
#496=ORIENTED_EDGE('',*,*,#322,.F.);
#497=ORIENTED_EDGE('',*,*,#319,.T.);
#498=ORIENTED_EDGE('',*,*,#321,.T.);
#499=ORIENTED_EDGE('',*,*,#323,.T.);
#500=ORIENTED_EDGE('',*,*,#366,.T.);
#501=ORIENTED_EDGE('',*,*,#364,.T.);
#502=ORIENTED_EDGE('',*,*,#362,.T.);
#503=ORIENTED_EDGE('',*,*,#360,.T.);
#504=ORIENTED_EDGE('',*,*,#316,.T.);
#505=ORIENTED_EDGE('',*,*,#359,.T.);
#506=ORIENTED_EDGE('',*,*,#357,.T.);
#507=ORIENTED_EDGE('',*,*,#355,.T.);
#508=ORIENTED_EDGE('',*,*,#353,.T.);
#509=ORIENTED_EDGE('',*,*,#351,.T.);
#510=ORIENTED_EDGE('',*,*,#349,.T.);
#511=ORIENTED_EDGE('',*,*,#347,.T.);
#512=ORIENTED_EDGE('',*,*,#345,.T.);
#513=ORIENTED_EDGE('',*,*,#342,.T.);
#514=ORIENTED_EDGE('',*,*,#340,.T.);
#515=ORIENTED_EDGE('',*,*,#338,.T.);
#516=ORIENTED_EDGE('',*,*,#336,.T.);
#517=PLANE('',#570);
#518=PLANE('',#590);
#519=PLANE('',#593);
#520=PLANE('',#596);
#521=PLANE('',#615);
#522=PLANE('',#618);
#523=PLANE('',#621);
#524=PLANE('',#624);
#525=PLANE('',#627);
#526=PLANE('',#630);
#527=PLANE('',#631);
#528=ADVANCED_FACE('',(#133,#114,#115,#116,#117,#118),#517,.T.);
#529=ADVANCED_FACE('',(#134),#15,.F.);
#530=ADVANCED_FACE('',(#135),#16,.F.);
#531=ADVANCED_FACE('',(#136),#17,.F.);
#532=ADVANCED_FACE('',(#137),#18,.F.);
#533=ADVANCED_FACE('',(#138),#19,.T.);
#534=ADVANCED_FACE('',(#139),#518,.T.);
#535=ADVANCED_FACE('',(#140),#20,.T.);
#536=ADVANCED_FACE('',(#141),#519,.T.);
#537=ADVANCED_FACE('',(#142),#21,.T.);
#538=ADVANCED_FACE('',(#143,#119,#120,#121,#122,#123,#124,#125,#126,#127),
#520,.F.);
#539=ADVANCED_FACE('',(#144),#22,.F.);
#540=ADVANCED_FACE('',(#145),#23,.F.);
#541=ADVANCED_FACE('',(#146),#24,.F.);
#542=ADVANCED_FACE('',(#147),#25,.F.);
#543=ADVANCED_FACE('',(#148),#26,.T.);
#544=ADVANCED_FACE('',(#149),#521,.T.);
#545=ADVANCED_FACE('',(#150),#27,.T.);
#546=ADVANCED_FACE('',(#151),#522,.T.);
#547=ADVANCED_FACE('',(#152),#28,.T.);
#548=ADVANCED_FACE('',(#153),#523,.T.);
#549=ADVANCED_FACE('',(#154),#29,.T.);
#550=ADVANCED_FACE('',(#155),#524,.T.);
#551=ADVANCED_FACE('',(#156),#30,.T.);
#552=ADVANCED_FACE('',(#157),#525,.T.);
#553=ADVANCED_FACE('',(#158),#31,.T.);
#554=ADVANCED_FACE('',(#159),#526,.T.);
#555=ADVANCED_FACE('',(#160,#128,#129,#130,#131,#132),#527,.T.);
#556=CLOSED_SHELL('',(#528,#529,#530,#531,#532,#533,#534,#535,#536,#537,
#538,#539,#540,#541,#542,#543,#544,#545,#546,#547,#548,#549,#550,#551,#552,
#553,#554,#555));
#557=DERIVED_UNIT_ELEMENT(#559,1.);
#558=DERIVED_UNIT_ELEMENT(#958,-3.);
#559=(
MASS_UNIT()
NAMED_UNIT(*)
SI_UNIT(.KILO.,.GRAM.)
);
#560=DERIVED_UNIT((#557,#558));
#561=MEASURE_REPRESENTATION_ITEM('density measure',
POSITIVE_RATIO_MEASURE(7850.),#560);
#562=PROPERTY_DEFINITION_REPRESENTATION(#567,#564);
#563=PROPERTY_DEFINITION_REPRESENTATION(#568,#565);
#564=REPRESENTATION('material name',(#566),#955);
#565=REPRESENTATION('density',(#561),#955);
#566=DESCRIPTIVE_REPRESENTATION_ITEM('Steel','Steel');
#567=PROPERTY_DEFINITION('material property','material name',#965);
#568=PROPERTY_DEFINITION('material property','density of part',#965);
#569=AXIS2_PLACEMENT_3D('',#799,#632,#633);
#570=AXIS2_PLACEMENT_3D('',#800,#634,#635);
#571=AXIS2_PLACEMENT_3D('',#802,#636,#637);
#572=AXIS2_PLACEMENT_3D('',#804,#638,#639);
#573=AXIS2_PLACEMENT_3D('',#806,#640,#641);
#574=AXIS2_PLACEMENT_3D('',#808,#642,#643);
#575=AXIS2_PLACEMENT_3D('',#810,#644,#645);
#576=AXIS2_PLACEMENT_3D('',#813,#646,#647);
#577=AXIS2_PLACEMENT_3D('',#817,#649,#650);
#578=AXIS2_PLACEMENT_3D('',#821,#652,#653);
#579=AXIS2_PLACEMENT_3D('',#825,#655,#656);
#580=AXIS2_PLACEMENT_3D('',#827,#658,#659);
#581=AXIS2_PLACEMENT_3D('',#829,#660,#661);
#582=AXIS2_PLACEMENT_3D('',#831,#663,#664);
#583=AXIS2_PLACEMENT_3D('',#833,#665,#666);
#584=AXIS2_PLACEMENT_3D('',#835,#668,#669);
#585=AXIS2_PLACEMENT_3D('',#837,#670,#671);
#586=AXIS2_PLACEMENT_3D('',#839,#673,#674);
#587=AXIS2_PLACEMENT_3D('',#841,#675,#676);
#588=AXIS2_PLACEMENT_3D('',#843,#678,#679);
#589=AXIS2_PLACEMENT_3D('',#845,#680,#681);
#590=AXIS2_PLACEMENT_3D('',#847,#683,#684);
#591=AXIS2_PLACEMENT_3D('',#853,#688,#689);
#592=AXIS2_PLACEMENT_3D('',#856,#691,#692);
#593=AXIS2_PLACEMENT_3D('',#857,#693,#694);
#594=AXIS2_PLACEMENT_3D('',#861,#697,#698);
#595=AXIS2_PLACEMENT_3D('',#864,#700,#701);
#596=AXIS2_PLACEMENT_3D('',#865,#702,#703);
#597=AXIS2_PLACEMENT_3D('',#870,#705,#706);
#598=AXIS2_PLACEMENT_3D('',#874,#708,#709);
#599=AXIS2_PLACEMENT_3D('',#878,#711,#712);
#600=AXIS2_PLACEMENT_3D('',#881,#714,#715);
#601=AXIS2_PLACEMENT_3D('',#883,#716,#717);
#602=AXIS2_PLACEMENT_3D('',#885,#718,#719);
#603=AXIS2_PLACEMENT_3D('',#887,#720,#721);
#604=AXIS2_PLACEMENT_3D('',#889,#722,#723);
#605=AXIS2_PLACEMENT_3D('',#890,#724,#725);
#606=AXIS2_PLACEMENT_3D('',#892,#726,#727);
#607=AXIS2_PLACEMENT_3D('',#894,#729,#730);
#608=AXIS2_PLACEMENT_3D('',#896,#731,#732);
#609=AXIS2_PLACEMENT_3D('',#898,#734,#735);
#610=AXIS2_PLACEMENT_3D('',#900,#736,#737);
#611=AXIS2_PLACEMENT_3D('',#902,#739,#740);
#612=AXIS2_PLACEMENT_3D('',#904,#741,#742);
#613=AXIS2_PLACEMENT_3D('',#906,#744,#745);
#614=AXIS2_PLACEMENT_3D('',#910,#747,#748);
#615=AXIS2_PLACEMENT_3D('',#912,#750,#751);
#616=AXIS2_PLACEMENT_3D('',#916,#754,#755);
#617=AXIS2_PLACEMENT_3D('',#918,#756,#757);
#618=AXIS2_PLACEMENT_3D('',#920,#759,#760);
#619=AXIS2_PLACEMENT_3D('',#924,#763,#764);
#620=AXIS2_PLACEMENT_3D('',#926,#765,#766);
#621=AXIS2_PLACEMENT_3D('',#928,#768,#769);
#622=AXIS2_PLACEMENT_3D('',#932,#772,#773);
#623=AXIS2_PLACEMENT_3D('',#934,#774,#775);
#624=AXIS2_PLACEMENT_3D('',#936,#777,#778);
#625=AXIS2_PLACEMENT_3D('',#938,#780,#781);
#626=AXIS2_PLACEMENT_3D('',#940,#782,#783);
#627=AXIS2_PLACEMENT_3D('',#942,#785,#786);
#628=AXIS2_PLACEMENT_3D('',#946,#789,#790);
#629=AXIS2_PLACEMENT_3D('',#948,#791,#792);
#630=AXIS2_PLACEMENT_3D('',#950,#794,#795);
#631=AXIS2_PLACEMENT_3D('',#952,#797,#798);
#632=DIRECTION('axis',(0.,0.,1.));
#633=DIRECTION('refdir',(1.,0.,0.));
#634=DIRECTION('center_axis',(0.,0.,1.));
#635=DIRECTION('ref_axis',(1.,0.,0.));
#636=DIRECTION('center_axis',(0.,0.,-1.));
#637=DIRECTION('ref_axis',(1.,0.,0.));
#638=DIRECTION('center_axis',(0.,0.,1.));
#639=DIRECTION('ref_axis',(1.,0.,0.));
#640=DIRECTION('center_axis',(0.,0.,1.));
#641=DIRECTION('ref_axis',(1.,0.,0.));
#642=DIRECTION('center_axis',(0.,0.,1.));
#643=DIRECTION('ref_axis',(1.,0.,0.));
#644=DIRECTION('center_axis',(0.,0.,1.));
#645=DIRECTION('ref_axis',(1.,0.,0.));
#646=DIRECTION('center_axis',(0.,0.,1.));
#647=DIRECTION('ref_axis',(0.,-1.,0.));
#648=DIRECTION('',(1.,-1.49011607867659E-8,0.));
#649=DIRECTION('center_axis',(0.,0.,1.));
#650=DIRECTION('ref_axis',(-1.,0.,0.));
#651=DIRECTION('',(9.93410716964164E-9,-1.,0.));
#652=DIRECTION('center_axis',(0.,0.,1.));
#653=DIRECTION('ref_axis',(0.,1.,0.));
#654=DIRECTION('',(-1.,0.,0.));
#655=DIRECTION('center_axis',(0.,0.,1.));
#656=DIRECTION('ref_axis',(1.,0.,0.));
#657=DIRECTION('',(0.,1.,0.));
#658=DIRECTION('center_axis',(0.,0.,-1.));
#659=DIRECTION('ref_axis',(1.,0.,0.));
#660=DIRECTION('center_axis',(0.,0.,1.));
#661=DIRECTION('ref_axis',(1.,0.,0.));
#662=DIRECTION('',(0.,0.,1.));
#663=DIRECTION('center_axis',(0.,0.,-1.));
#664=DIRECTION('ref_axis',(1.,0.,0.));
#665=DIRECTION('center_axis',(0.,0.,1.));
#666=DIRECTION('ref_axis',(1.,0.,0.));
#667=DIRECTION('',(0.,0.,1.));
#668=DIRECTION('center_axis',(0.,0.,-1.));
#669=DIRECTION('ref_axis',(1.,0.,0.));
#670=DIRECTION('center_axis',(0.,0.,1.));
#671=DIRECTION('ref_axis',(1.,0.,0.));
#672=DIRECTION('',(0.,0.,1.));
#673=DIRECTION('center_axis',(0.,0.,-1.));
#674=DIRECTION('ref_axis',(1.,0.,0.));
#675=DIRECTION('center_axis',(0.,0.,1.));
#676=DIRECTION('ref_axis',(1.,0.,0.));
#677=DIRECTION('',(0.,0.,1.));
#678=DIRECTION('center_axis',(0.,0.,-1.));
#679=DIRECTION('ref_axis',(1.,0.,0.));
#680=DIRECTION('center_axis',(0.,0.,-1.));
#681=DIRECTION('ref_axis',(1.,0.,0.));
#682=DIRECTION('',(0.,0.,1.));
#683=DIRECTION('center_axis',(1.,0.,0.));
#684=DIRECTION('ref_axis',(0.,1.,0.));
#685=DIRECTION('',(0.,0.,-1.));
#686=DIRECTION('',(0.,1.,0.));
#687=DIRECTION('',(0.,0.,1.));
#688=DIRECTION('center_axis',(0.,0.,1.));
#689=DIRECTION('ref_axis',(1.,0.,0.));
#690=DIRECTION('',(0.,0.,1.));
#691=DIRECTION('center_axis',(0.,0.,1.));
#692=DIRECTION('ref_axis',(1.,0.,0.));
#693=DIRECTION('center_axis',(0.,1.,0.));
#694=DIRECTION('ref_axis',(-1.,0.,0.));
#695=DIRECTION('',(0.,0.,1.));
#696=DIRECTION('',(-1.,0.,0.));
#697=DIRECTION('center_axis',(0.,0.,1.));
#698=DIRECTION('ref_axis',(0.,1.,0.));
#699=DIRECTION('',(0.,0.,1.));
#700=DIRECTION('center_axis',(0.,0.,1.));
#701=DIRECTION('ref_axis',(0.,1.,0.));
#702=DIRECTION('center_axis',(0.,0.,1.));
#703=DIRECTION('ref_axis',(1.,0.,0.));
#704=DIRECTION('',(0.,-1.,0.));
#705=DIRECTION('center_axis',(0.,0.,-1.));
#706=DIRECTION('ref_axis',(0.999999999999996,-8.94069738244242E-8,0.));
#707=DIRECTION('',(1.,0.,0.));
#708=DIRECTION('center_axis',(0.,0.,-1.));
#709=DIRECTION('ref_axis',(0.,1.,0.));
#710=DIRECTION('',(0.,1.,0.));
#711=DIRECTION('center_axis',(0.,0.,-1.));
#712=DIRECTION('ref_axis',(-1.,0.,0.));
#713=DIRECTION('',(-1.,0.,0.));
#714=DIRECTION('center_axis',(0.,0.,-1.));
#715=DIRECTION('ref_axis',(0.,-1.,0.));
#716=DIRECTION('center_axis',(0.,0.,1.));
#717=DIRECTION('ref_axis',(1.,0.,0.));
#718=DIRECTION('center_axis',(0.,0.,1.));
#719=DIRECTION('ref_axis',(1.,0.,0.));
#720=DIRECTION('center_axis',(0.,0.,1.));
#721=DIRECTION('ref_axis',(1.,0.,0.));
#722=DIRECTION('center_axis',(0.,0.,1.));
#723=DIRECTION('ref_axis',(1.,0.,0.));
#724=DIRECTION('center_axis',(0.,0.,1.));
#725=DIRECTION('ref_axis',(1.,0.,0.));
#726=DIRECTION('center_axis',(0.,0.,-1.));
#727=DIRECTION('ref_axis',(1.,0.,0.));
#728=DIRECTION('',(0.,0.,-1.));
#729=DIRECTION('center_axis',(0.,0.,1.));
#730=DIRECTION('ref_axis',(1.,0.,0.));
#731=DIRECTION('center_axis',(0.,0.,-1.));
#732=DIRECTION('ref_axis',(1.,0.,0.));
#733=DIRECTION('',(0.,0.,-1.));
#734=DIRECTION('center_axis',(0.,0.,1.));
#735=DIRECTION('ref_axis',(1.,0.,0.));
#736=DIRECTION('center_axis',(0.,0.,-1.));
#737=DIRECTION('ref_axis',(1.,0.,0.));
#738=DIRECTION('',(0.,0.,-1.));
#739=DIRECTION('center_axis',(0.,0.,1.));
#740=DIRECTION('ref_axis',(1.,0.,0.));
#741=DIRECTION('center_axis',(0.,0.,-1.));
#742=DIRECTION('ref_axis',(1.,0.,0.));
#743=DIRECTION('',(0.,0.,-1.));
#744=DIRECTION('center_axis',(0.,0.,1.));
#745=DIRECTION('ref_axis',(0.999999999999996,-8.94069738244242E-8,0.));
#746=DIRECTION('',(0.,0.,-1.));
#747=DIRECTION('center_axis',(0.,0.,1.));
#748=DIRECTION('ref_axis',(0.999999999999996,-8.94069738244242E-8,0.));
#749=DIRECTION('',(0.,0.,1.));
#750=DIRECTION('center_axis',(0.,1.,0.));
#751=DIRECTION('ref_axis',(-1.,0.,0.));
#752=DIRECTION('',(-1.,0.,0.));
#753=DIRECTION('',(0.,0.,1.));
#754=DIRECTION('center_axis',(0.,0.,1.));
#755=DIRECTION('ref_axis',(0.,1.,0.));
#756=DIRECTION('center_axis',(0.,0.,1.));
#757=DIRECTION('ref_axis',(0.,1.,0.));
#758=DIRECTION('',(0.,0.,1.));
#759=DIRECTION('center_axis',(-1.,0.,0.));
#760=DIRECTION('ref_axis',(0.,-1.,0.));
#761=DIRECTION('',(0.,-1.,0.));
#762=DIRECTION('',(0.,0.,1.));
#763=DIRECTION('center_axis',(0.,0.,1.));
#764=DIRECTION('ref_axis',(-1.,0.,0.));
#765=DIRECTION('center_axis',(0.,0.,1.));
#766=DIRECTION('ref_axis',(-1.,0.,0.));
#767=DIRECTION('',(0.,0.,1.));
#768=DIRECTION('center_axis',(0.,-1.,0.));
#769=DIRECTION('ref_axis',(1.,0.,0.));
#770=DIRECTION('',(1.,0.,0.));
#771=DIRECTION('',(0.,0.,1.));
#772=DIRECTION('center_axis',(0.,0.,1.));
#773=DIRECTION('ref_axis',(0.,-1.,0.));
#774=DIRECTION('center_axis',(0.,0.,1.));
#775=DIRECTION('ref_axis',(0.,-1.,0.));
#776=DIRECTION('',(0.,0.,1.));
#777=DIRECTION('center_axis',(1.,0.,0.));
#778=DIRECTION('ref_axis',(0.,1.,0.));
#779=DIRECTION('',(0.,1.,0.));
#780=DIRECTION('center_axis',(0.,0.,1.));
#781=DIRECTION('ref_axis',(0.,-1.,0.));
#782=DIRECTION('center_axis',(0.,0.,1.));
#783=DIRECTION('ref_axis',(0.,-1.,0.));
#784=DIRECTION('',(0.,0.,1.));
#785=DIRECTION('center_axis',(-1.49011607867659E-8,-1.,0.));
#786=DIRECTION('ref_axis',(1.,-1.49011607867659E-8,0.));
#787=DIRECTION('',(1.,-1.49011607867659E-8,0.));
#788=DIRECTION('',(0.,0.,1.));
#789=DIRECTION('center_axis',(0.,0.,1.));
#790=DIRECTION('ref_axis',(-1.,0.,0.));
#791=DIRECTION('center_axis',(0.,0.,1.));
#792=DIRECTION('ref_axis',(-1.,0.,0.));
#793=DIRECTION('',(0.,0.,1.));
#794=DIRECTION('center_axis',(-1.,-9.93410716964164E-9,0.));
#795=DIRECTION('ref_axis',(9.93410716964164E-9,-1.,0.));
#796=DIRECTION('',(9.93410716964164E-9,-1.,0.));
#797=DIRECTION('center_axis',(0.,0.,1.));
#798=DIRECTION('ref_axis',(1.,0.,0.));
#799=CARTESIAN_POINT('',(0.,0.,0.));
#800=CARTESIAN_POINT('Origin',(0.,0.,-20.));
#801=CARTESIAN_POINT('',(-75.,-9.18485099360515E-15,-20.));
#802=CARTESIAN_POINT('Origin',(0.,0.,-20.));
#803=CARTESIAN_POINT('',(70.9500010803342,-1.8982025386784E-16,-20.));
#804=CARTESIAN_POINT('Origin',(72.5000010803342,0.,-20.));
#805=CARTESIAN_POINT('',(-1.55,72.5000010803342,-20.));
#806=CARTESIAN_POINT('Origin',(0.,72.5000010803342,-20.));
#807=CARTESIAN_POINT('',(-1.55,-72.5000010803342,-20.));
#808=CARTESIAN_POINT('Origin',(0.,-72.5000010803342,-20.));
#809=CARTESIAN_POINT('',(-74.0500010803342,-1.8982025386784E-16,-20.));
#810=CARTESIAN_POINT('Origin',(-72.5000010803342,0.,-20.));
#811=CARTESIAN_POINT('',(30.0000004470348,-35.0000005215406,-20.));
#812=CARTESIAN_POINT('',(35.0000005215406,-30.0000004470348,-20.));
#813=CARTESIAN_POINT('Origin',(30.0000004470348,-30.0000004470348,-20.));
#814=CARTESIAN_POINT('',(-30.,-34.999999627471,-20.));
#815=CARTESIAN_POINT('',(-15.0000002607703,-34.9999998509884,-20.));
#816=CARTESIAN_POINT('',(-34.999999627471,-30.,-20.));
#817=CARTESIAN_POINT('Origin',(-30.,-30.,-20.));
#818=CARTESIAN_POINT('',(-35.0000004718631,54.9992959966162,-20.));
#819=CARTESIAN_POINT('',(-35.0000001986787,27.4996478244612,-20.));
#820=CARTESIAN_POINT('',(-30.0000004470348,60.0000008940697,-20.));
#821=CARTESIAN_POINT('Origin',(-30.0000004470348,55.0000008195639,-20.));
#822=CARTESIAN_POINT('',(30.0000004470348,60.0000008940697,-20.));
#823=CARTESIAN_POINT('',(15.0000002235174,60.0000008940697,-20.));
#824=CARTESIAN_POINT('',(35.0000005215406,55.0000008195639,-20.));
#825=CARTESIAN_POINT('Origin',(30.0000004470348,55.0000008195639,-20.));
#826=CARTESIAN_POINT('',(35.0000005215406,-15.0000002235174,-20.));
#827=CARTESIAN_POINT('Origin',(-72.5000010803342,0.,0.));
#828=CARTESIAN_POINT('',(-74.0500010803342,-1.8982025386784E-16,-25.));
#829=CARTESIAN_POINT('Origin',(-72.5000010803342,0.,-25.));
#830=CARTESIAN_POINT('',(-74.0500010803342,1.8982025386784E-16,0.));
#831=CARTESIAN_POINT('Origin',(0.,-72.5000010803342,0.));
#832=CARTESIAN_POINT('',(-1.55,-72.5000010803342,-25.));
#833=CARTESIAN_POINT('Origin',(0.,-72.5000010803342,-25.));
#834=CARTESIAN_POINT('',(-1.55,-72.5000010803342,0.));
#835=CARTESIAN_POINT('Origin',(0.,72.5000010803342,0.));
#836=CARTESIAN_POINT('',(-1.55,72.5000010803342,-25.));
#837=CARTESIAN_POINT('Origin',(0.,72.5000010803342,-25.));
#838=CARTESIAN_POINT('',(-1.55,72.5000010803342,0.));
#839=CARTESIAN_POINT('Origin',(72.5000010803342,0.,0.));
#840=CARTESIAN_POINT('',(70.9500010803342,-1.8982025386784E-16,-25.));
#841=CARTESIAN_POINT('Origin',(72.5000010803342,0.,-25.));
#842=CARTESIAN_POINT('',(70.9500010803342,1.8982025386784E-16,0.));
#843=CARTESIAN_POINT('Origin',(0.,0.,0.));
#844=CARTESIAN_POINT('',(-75.,-9.18485099360515E-15,-25.));
#845=CARTESIAN_POINT('Origin',(0.,0.,-25.));
#846=CARTESIAN_POINT('',(-75.,9.18485099360515E-15,0.));
#847=CARTESIAN_POINT('Origin',(35.0000005215406,-30.0000004470348,0.));
#848=CARTESIAN_POINT('',(35.0000005215406,55.0000008195639,15.));
#849=CARTESIAN_POINT('',(35.0000005215406,55.0000008195639,0.));
#850=CARTESIAN_POINT('',(35.0000005215406,-30.0000004470348,15.));
#851=CARTESIAN_POINT('',(35.0000005215406,55.0000008195639,15.));
#852=CARTESIAN_POINT('',(35.0000005215406,-30.0000004470348,0.));
#853=CARTESIAN_POINT('Origin',(30.0000004470348,55.0000008195639,0.));
#854=CARTESIAN_POINT('',(30.0000004470348,60.0000008940697,15.));
#855=CARTESIAN_POINT('',(30.0000004470348,60.0000008940697,0.));
#856=CARTESIAN_POINT('Origin',(30.0000004470348,55.0000008195639,15.));
#857=CARTESIAN_POINT('Origin',(30.0000004470348,60.0000008940697,0.));
#858=CARTESIAN_POINT('',(-30.0000004470348,60.0000008940697,15.));
#859=CARTESIAN_POINT('',(-30.0000004470348,60.0000008940697,0.));
#860=CARTESIAN_POINT('',(-30.0000004470348,60.0000008940697,15.));
#861=CARTESIAN_POINT('Origin',(-30.0000004470348,55.0000008195639,0.));
#862=CARTESIAN_POINT('',(-35.0000004718631,54.9992959966162,15.));
#863=CARTESIAN_POINT('',(-35.0000004718631,54.9992959966162,0.));
#864=CARTESIAN_POINT('Origin',(-30.0000004470348,55.0000008195639,15.));
#865=CARTESIAN_POINT('Origin',(0.,12.5000001862645,-25.));
#866=CARTESIAN_POINT('',(-30.0000004470348,50.0000007450581,-25.));
#867=CARTESIAN_POINT('',(-30.0000004470348,-25.000000372529,-25.));
#868=CARTESIAN_POINT('',(-30.0000004470348,-25.000000372529,-25.));
#869=CARTESIAN_POINT('',(-25.000000372529,-30.0000004470348,-25.));
#870=CARTESIAN_POINT('Origin',(-30.,-30.,-25.));
#871=CARTESIAN_POINT('',(25.000000372529,-30.0000004470348,-25.));
#872=CARTESIAN_POINT('',(25.000000372529,-30.0000004470348,-25.));
#873=CARTESIAN_POINT('',(30.0000004470348,-25.000000372529,-25.));
#874=CARTESIAN_POINT('Origin',(30.0000004470348,-30.0000004470348,-25.));
#875=CARTESIAN_POINT('',(30.0000004470348,50.0000007450581,-25.));
#876=CARTESIAN_POINT('',(30.0000004470348,50.0000007450581,-25.));
#877=CARTESIAN_POINT('',(25.000000372529,55.0000008195639,-25.));
#878=CARTESIAN_POINT('Origin',(30.0000004470348,55.0000008195639,-25.));
#879=CARTESIAN_POINT('',(-25.000000372529,55.0000008195639,-25.));
#880=CARTESIAN_POINT('',(-25.000000372529,55.0000008195639,-25.));
#881=CARTESIAN_POINT('Origin',(-30.0000004470348,55.0000008195639,-25.));
#882=CARTESIAN_POINT('',(28.0500004470348,55.0000008195639,-25.));
#883=CARTESIAN_POINT('Origin',(30.0000004470348,55.0000008195639,-25.));
#884=CARTESIAN_POINT('',(-31.95,-30.,-25.));
#885=CARTESIAN_POINT('Origin',(-30.,-30.,-25.));
#886=CARTESIAN_POINT('',(-31.9500004470348,55.0000008195639,-25.));
#887=CARTESIAN_POINT('Origin',(-30.0000004470348,55.0000008195639,-25.));
#888=CARTESIAN_POINT('',(28.0500004470348,-30.0000004470348,-25.));
#889=CARTESIAN_POINT('Origin',(30.0000004470348,-30.0000004470348,-25.));
#890=CARTESIAN_POINT('Origin',(30.0000004470348,-30.0000004470348,0.));
#891=CARTESIAN_POINT('',(28.0500004470348,-30.0000004470348,15.));
#892=CARTESIAN_POINT('Origin',(30.0000004470348,-30.0000004470348,15.));
#893=CARTESIAN_POINT('',(28.0500004470348,-30.0000004470348,0.));
#894=CARTESIAN_POINT('Origin',(-30.0000004470348,55.0000008195639,0.));
#895=CARTESIAN_POINT('',(-31.9500004470348,55.0000008195639,15.));
#896=CARTESIAN_POINT('Origin',(-30.0000004470348,55.0000008195639,15.));
#897=CARTESIAN_POINT('',(-31.9500004470348,55.0000008195639,0.));
#898=CARTESIAN_POINT('Origin',(-30.,-30.,0.));
#899=CARTESIAN_POINT('',(-31.95,-30.,15.));
#900=CARTESIAN_POINT('Origin',(-30.,-30.,15.));
#901=CARTESIAN_POINT('',(-31.95,-30.,0.));
#902=CARTESIAN_POINT('Origin',(30.0000004470348,55.0000008195639,0.));
#903=CARTESIAN_POINT('',(28.0500004470348,55.0000008195639,15.));
#904=CARTESIAN_POINT('Origin',(30.0000004470348,55.0000008195639,15.));
#905=CARTESIAN_POINT('',(28.0500004470348,55.0000008195639,0.));
#906=CARTESIAN_POINT('Origin',(-30.,-30.,0.));
#907=CARTESIAN_POINT('',(-30.0000004470348,-25.000000372529,15.));
#908=CARTESIAN_POINT('',(-30.0000004470348,-25.000000372529,0.));
#909=CARTESIAN_POINT('',(-25.000000372529,-30.0000004470348,15.));
#910=CARTESIAN_POINT('Origin',(-30.,-30.,15.));
#911=CARTESIAN_POINT('',(-25.000000372529,-30.0000004470348,0.));
#912=CARTESIAN_POINT('Origin',(25.000000372529,-30.0000004470348,0.));
#913=CARTESIAN_POINT('',(25.000000372529,-30.0000004470348,15.));
#914=CARTESIAN_POINT('',(25.000000372529,-30.0000004470348,15.));
#915=CARTESIAN_POINT('',(25.000000372529,-30.0000004470348,0.));
#916=CARTESIAN_POINT('Origin',(30.0000004470348,-30.0000004470348,0.));
#917=CARTESIAN_POINT('',(30.0000004470348,-25.000000372529,15.));
#918=CARTESIAN_POINT('Origin',(30.0000004470348,-30.0000004470348,15.));
#919=CARTESIAN_POINT('',(30.0000004470348,-25.000000372529,0.));
#920=CARTESIAN_POINT('Origin',(30.0000004470348,50.0000007450581,0.));
#921=CARTESIAN_POINT('',(30.0000004470348,50.0000007450581,15.));
#922=CARTESIAN_POINT('',(30.0000004470348,50.0000007450581,15.));
#923=CARTESIAN_POINT('',(30.0000004470348,50.0000007450581,0.));
#924=CARTESIAN_POINT('Origin',(30.0000004470348,55.0000008195639,0.));
#925=CARTESIAN_POINT('',(25.000000372529,55.0000008195639,15.));
#926=CARTESIAN_POINT('Origin',(30.0000004470348,55.0000008195639,15.));
#927=CARTESIAN_POINT('',(25.000000372529,55.0000008195639,0.));
#928=CARTESIAN_POINT('Origin',(-25.000000372529,55.0000008195639,0.));
#929=CARTESIAN_POINT('',(-25.000000372529,55.0000008195639,15.));
#930=CARTESIAN_POINT('',(-25.000000372529,55.0000008195639,15.));
#931=CARTESIAN_POINT('',(-25.000000372529,55.0000008195639,0.));
#932=CARTESIAN_POINT('Origin',(-30.0000004470348,55.0000008195639,0.));
#933=CARTESIAN_POINT('',(-30.0000004470348,50.0000007450581,15.));
#934=CARTESIAN_POINT('Origin',(-30.0000004470348,55.0000008195639,15.));
#935=CARTESIAN_POINT('',(-30.0000004470348,50.0000007450581,0.));
#936=CARTESIAN_POINT('Origin',(-30.0000004470348,-25.000000372529,0.));
#937=CARTESIAN_POINT('',(-30.0000004470348,-25.000000372529,15.));
#938=CARTESIAN_POINT('Origin',(30.0000004470348,-30.0000004470348,0.));
#939=CARTESIAN_POINT('',(30.0000004470348,-35.0000005215406,15.));
#940=CARTESIAN_POINT('Origin',(30.0000004470348,-30.0000004470348,15.));
#941=CARTESIAN_POINT('',(30.0000004470348,-35.0000005215406,0.));
#942=CARTESIAN_POINT('Origin',(-30.,-34.999999627471,0.));
#943=CARTESIAN_POINT('',(-30.,-34.999999627471,15.));
#944=CARTESIAN_POINT('',(30.0000004470348,-35.0000005215406,15.));
#945=CARTESIAN_POINT('',(-30.,-34.999999627471,0.));
#946=CARTESIAN_POINT('Origin',(-30.,-30.,0.));
#947=CARTESIAN_POINT('',(-34.999999627471,-30.,15.));
#948=CARTESIAN_POINT('Origin',(-30.,-30.,15.));
#949=CARTESIAN_POINT('',(-34.999999627471,-30.,0.));
#950=CARTESIAN_POINT('Origin',(-35.0000004718631,54.9992959966162,0.));
#951=CARTESIAN_POINT('',(-34.999999627471,-30.,15.));
#952=CARTESIAN_POINT('Origin',(0.,12.5000001862645,15.));
#953=UNCERTAINTY_MEASURE_WITH_UNIT(LENGTH_MEASURE(0.01),#957,
'DISTANCE_ACCURACY_VALUE',
'Maximum model space distance between geometric entities at asserted c
onnectivities');
#954=UNCERTAINTY_MEASURE_WITH_UNIT(LENGTH_MEASURE(0.01),#957,
'DISTANCE_ACCURACY_VALUE',
'Maximum model space distance between geometric entities at asserted c
onnectivities');
#955=(
GEOMETRIC_REPRESENTATION_CONTEXT(3)
GLOBAL_UNCERTAINTY_ASSIGNED_CONTEXT((#953))
GLOBAL_UNIT_ASSIGNED_CONTEXT((#957,#959,#960))
REPRESENTATION_CONTEXT('','3D')
);
#956=(
GEOMETRIC_REPRESENTATION_CONTEXT(3)
GLOBAL_UNCERTAINTY_ASSIGNED_CONTEXT((#954))
GLOBAL_UNIT_ASSIGNED_CONTEXT((#957,#959,#960))
REPRESENTATION_CONTEXT('','3D')
);
#957=(
LENGTH_UNIT()
NAMED_UNIT(*)
SI_UNIT(.MILLI.,.METRE.)
);
#958=(
LENGTH_UNIT()
NAMED_UNIT(*)
SI_UNIT($,.METRE.)
);
#959=(
NAMED_UNIT(*)
PLANE_ANGLE_UNIT()
SI_UNIT($,.RADIAN.)
);
#960=(
NAMED_UNIT(*)
SI_UNIT($,.STERADIAN.)
SOLID_ANGLE_UNIT()
);
#961=SHAPE_DEFINITION_REPRESENTATION(#962,#963);
#962=PRODUCT_DEFINITION_SHAPE('',$,#965);
#963=SHAPE_REPRESENTATION('',(#569),#955);
#964=PRODUCT_DEFINITION_CONTEXT('part definition',#969,'design');
#965=PRODUCT_DEFINITION('2025-08-11-20-28-21-242','base_1 (1)',#966,#964);
#966=PRODUCT_DEFINITION_FORMATION('',$,#971);
#967=PRODUCT_RELATED_PRODUCT_CATEGORY('base_1 (1)','base_1 (1)',(#971));
#968=APPLICATION_PROTOCOL_DEFINITION('international standard',
'automotive_design',2009,#969);
#969=APPLICATION_CONTEXT(
'Core Data for Automotive Mechanical Design Process');
#970=PRODUCT_CONTEXT('part definition',#969,'mechanical');
#971=PRODUCT('2025-08-11-20-28-21-242','base_1 (1)',$,(#970));
#972=PRESENTATION_STYLE_ASSIGNMENT((#974));
#973=PRESENTATION_STYLE_ASSIGNMENT((#975));
#974=SURFACE_STYLE_USAGE(.BOTH.,#976);
#975=SURFACE_STYLE_USAGE(.BOTH.,#977);
#976=SURFACE_SIDE_STYLE('',(#978));
#977=SURFACE_SIDE_STYLE('',(#979));
#978=SURFACE_STYLE_FILL_AREA(#980);
#979=SURFACE_STYLE_FILL_AREA(#981);
#980=FILL_AREA_STYLE('Steel - Satin',(#982));
#981=FILL_AREA_STYLE('Powder Coat - Rough (Black)',(#983));
#982=FILL_AREA_STYLE_COLOUR('Steel - Satin',#984);
#983=FILL_AREA_STYLE_COLOUR('Powder Coat - Rough (Black)',#985);
#984=COLOUR_RGB('Steel - Satin',0.627450980392157,0.627450980392157,0.627450980392157);
#985=COLOUR_RGB('Powder Coat - Rough (Black)',0.0980392156862745,0.0980392156862745,
0.0980392156862745);
ENDSEC;
END-ISO-10303-21;
