ISO-10303-21;
HEADER;
/* Generated by software containing ST-Developer
 * from STEP Tools, Inc. (www.steptools.com) 
 */

FILE_DESCRIPTION(
/* description */ (''),
/* implementation_level */ '2;1');

FILE_NAME(
/* name */ 'base_5.step',
/* time_stamp */ '2025-07-29T17:33:57+01:00',
/* author */ (''),
/* organization */ (''),
/* preprocessor_version */ 'ST-DEVELOPER v20.1',
/* originating_system */ 'Autodesk Translation Framework v14.10.0.0',
/* authorisation */ '');

FILE_SCHEMA (('AUTOMOTIVE_DESIGN { 1 0 10303 214 3 1 1 }'));
ENDSEC;

DATA;
#10=MECHANICAL_DESIGN_GEOMETRIC_PRESENTATION_REPRESENTATION('',(#13),#469);
#11=SHAPE_REPRESENTATION_RELATIONSHIP('SRR','None',#476,#12);
#12=ADVANCED_BREP_SHAPE_REPRESENTATION('',(#14),#468);
#13=STYLED_ITEM('',(#486),#14);
#14=MANIFOLD_SOLID_BREP('Body1',#270);
#15=CYLINDRICAL_SURFACE('',#288,10.0000001490116);
#16=CYLINDRICAL_SURFACE('',#298,13.0000001937151);
#17=CYLINDRICAL_SURFACE('',#301,17.0000002533197);
#18=CYLINDRICAL_SURFACE('',#303,1.05);
#19=CYLINDRICAL_SURFACE('',#305,1.05);
#20=CYLINDRICAL_SURFACE('',#307,13.0000001937151);
#21=CYLINDRICAL_SURFACE('',#309,17.0000002533197);
#22=FACE_BOUND('',#45,.T.);
#23=FACE_BOUND('',#48,.T.);
#24=FACE_BOUND('',#49,.T.);
#25=FACE_BOUND('',#50,.T.);
#26=FACE_BOUND('',#62,.T.);
#27=FACE_BOUND('',#63,.T.);
#28=FACE_BOUND('',#64,.T.);
#29=FACE_BOUND('',#65,.T.);
#30=FACE_OUTER_BOUND('',#44,.T.);
#31=FACE_OUTER_BOUND('',#46,.T.);
#32=FACE_OUTER_BOUND('',#47,.T.);
#33=FACE_OUTER_BOUND('',#51,.T.);
#34=FACE_OUTER_BOUND('',#52,.T.);
#35=FACE_OUTER_BOUND('',#53,.T.);
#36=FACE_OUTER_BOUND('',#54,.T.);
#37=FACE_OUTER_BOUND('',#55,.T.);
#38=FACE_OUTER_BOUND('',#56,.T.);
#39=FACE_OUTER_BOUND('',#57,.T.);
#40=FACE_OUTER_BOUND('',#58,.T.);
#41=FACE_OUTER_BOUND('',#59,.T.);
#42=FACE_OUTER_BOUND('',#60,.T.);
#43=FACE_OUTER_BOUND('',#61,.T.);
#44=EDGE_LOOP('',(#179,#180,#181,#182));
#45=EDGE_LOOP('',(#183));
#46=EDGE_LOOP('',(#184,#185,#186,#187));
#47=EDGE_LOOP('',(#188,#189,#190,#191));
#48=EDGE_LOOP('',(#192,#193,#194,#195));
#49=EDGE_LOOP('',(#196));
#50=EDGE_LOOP('',(#197));
#51=EDGE_LOOP('',(#198,#199,#200,#201));
#52=EDGE_LOOP('',(#202,#203,#204,#205,#206,#207,#208));
#53=EDGE_LOOP('',(#209,#210,#211,#212));
#54=EDGE_LOOP('',(#213,#214,#215,#216));
#55=EDGE_LOOP('',(#217,#218,#219,#220));
#56=EDGE_LOOP('',(#221,#222,#223,#224));
#57=EDGE_LOOP('',(#225,#226,#227,#228));
#58=EDGE_LOOP('',(#229,#230,#231,#232));
#59=EDGE_LOOP('',(#233,#234,#235,#236));
#60=EDGE_LOOP('',(#237,#238,#239,#240));
#61=EDGE_LOOP('',(#241,#242,#243,#244));
#62=EDGE_LOOP('',(#245));
#63=EDGE_LOOP('',(#246));
#64=EDGE_LOOP('',(#247));
#65=EDGE_LOOP('',(#248));
#66=LINE('',#399,#86);
#67=LINE('',#402,#87);
#68=LINE('',#408,#88);
#69=LINE('',#414,#89);
#70=LINE('',#417,#90);
#71=LINE('',#422,#91);
#72=LINE('',#425,#92);
#73=LINE('',#431,#93);
#74=LINE('',#432,#94);
#75=LINE('',#436,#95);
#76=LINE('',#437,#96);
#77=LINE('',#440,#97);
#78=LINE('',#442,#98);
#79=LINE('',#443,#99);
#80=LINE('',#446,#100);
#81=LINE('',#451,#101);
#82=LINE('',#455,#102);
#83=LINE('',#457,#103);
#84=LINE('',#462,#104);
#85=LINE('',#464,#105);
#86=VECTOR('',#319,10.);
#87=VECTOR('',#322,10.);
#88=VECTOR('',#329,10.0000001490116);
#89=VECTOR('',#334,10.);
#90=VECTOR('',#337,10.);
#91=VECTOR('',#340,10.);
#92=VECTOR('',#343,10.);
#93=VECTOR('',#350,10.);
#94=VECTOR('',#351,10.);
#95=VECTOR('',#356,13.0000001937151);
#96=VECTOR('',#357,10.);
#97=VECTOR('',#360,10.);
#98=VECTOR('',#361,10.);
#99=VECTOR('',#362,10.);
#100=VECTOR('',#365,10.);
#101=VECTOR('',#372,1.05);
#102=VECTOR('',#377,1.05);
#103=VECTOR('',#380,10.);
#104=VECTOR('',#387,10.);
#105=VECTOR('',#390,10.);
#106=CIRCLE('',#285,13.0000001937151);
#107=CIRCLE('',#286,13.0000001937151);
#108=CIRCLE('',#287,10.0000001490116);
#109=CIRCLE('',#289,10.0000001490116);
#110=CIRCLE('',#291,17.0000002533197);
#111=CIRCLE('',#292,17.0000002533197);
#112=CIRCLE('',#293,13.0000001937151);
#113=CIRCLE('',#294,13.0000001937151);
#114=CIRCLE('',#295,1.05);
#115=CIRCLE('',#296,1.05);
#116=CIRCLE('',#299,13.0000001937151);
#117=CIRCLE('',#302,17.0000002533197);
#118=CIRCLE('',#304,1.05);
#119=CIRCLE('',#306,1.05);
#120=CIRCLE('',#310,17.0000002533197);
#121=VERTEX_POINT('',#395);
#122=VERTEX_POINT('',#396);
#123=VERTEX_POINT('',#398);
#124=VERTEX_POINT('',#400);
#125=VERTEX_POINT('',#403);
#126=VERTEX_POINT('',#406);
#127=VERTEX_POINT('',#410);
#128=VERTEX_POINT('',#411);
#129=VERTEX_POINT('',#413);
#130=VERTEX_POINT('',#415);
#131=VERTEX_POINT('',#418);
#132=VERTEX_POINT('',#419);
#133=VERTEX_POINT('',#421);
#134=VERTEX_POINT('',#423);
#135=VERTEX_POINT('',#426);
#136=VERTEX_POINT('',#428);
#137=VERTEX_POINT('',#434);
#138=VERTEX_POINT('',#439);
#139=VERTEX_POINT('',#441);
#140=VERTEX_POINT('',#445);
#141=VERTEX_POINT('',#449);
#142=VERTEX_POINT('',#453);
#143=VERTEX_POINT('',#460);
#144=EDGE_CURVE('',#121,#122,#106,.T.);
#145=EDGE_CURVE('',#123,#121,#66,.T.);
#146=EDGE_CURVE('',#124,#123,#107,.T.);
#147=EDGE_CURVE('',#122,#124,#67,.T.);
#148=EDGE_CURVE('',#125,#125,#108,.T.);
#149=EDGE_CURVE('',#126,#126,#109,.T.);
#150=EDGE_CURVE('',#126,#125,#68,.T.);
#151=EDGE_CURVE('',#127,#128,#110,.T.);
#152=EDGE_CURVE('',#129,#127,#69,.T.);
#153=EDGE_CURVE('',#130,#129,#111,.T.);
#154=EDGE_CURVE('',#128,#130,#70,.T.);
#155=EDGE_CURVE('',#131,#132,#112,.T.);
#156=EDGE_CURVE('',#133,#131,#71,.T.);
#157=EDGE_CURVE('',#134,#133,#113,.T.);
#158=EDGE_CURVE('',#132,#134,#72,.T.);
#159=EDGE_CURVE('',#135,#135,#114,.T.);
#160=EDGE_CURVE('',#136,#136,#115,.T.);
#161=EDGE_CURVE('',#133,#121,#73,.T.);
#162=EDGE_CURVE('',#131,#123,#74,.T.);
#163=EDGE_CURVE('',#137,#137,#116,.T.);
#164=EDGE_CURVE('',#137,#123,#75,.T.);
#165=EDGE_CURVE('',#132,#124,#76,.T.);
#166=EDGE_CURVE('',#127,#138,#77,.T.);
#167=EDGE_CURVE('',#139,#138,#78,.T.);
#168=EDGE_CURVE('',#129,#139,#79,.T.);
#169=EDGE_CURVE('',#128,#140,#80,.T.);
#170=EDGE_CURVE('',#138,#140,#117,.T.);
#171=EDGE_CURVE('',#141,#141,#118,.T.);
#172=EDGE_CURVE('',#141,#136,#81,.T.);
#173=EDGE_CURVE('',#142,#142,#119,.T.);
#174=EDGE_CURVE('',#142,#135,#82,.T.);
#175=EDGE_CURVE('',#134,#122,#83,.T.);
#176=EDGE_CURVE('',#143,#139,#120,.T.);
#177=EDGE_CURVE('',#130,#143,#84,.T.);
#178=EDGE_CURVE('',#140,#143,#85,.T.);
#179=ORIENTED_EDGE('',*,*,#144,.F.);
#180=ORIENTED_EDGE('',*,*,#145,.F.);
#181=ORIENTED_EDGE('',*,*,#146,.F.);
#182=ORIENTED_EDGE('',*,*,#147,.F.);
#183=ORIENTED_EDGE('',*,*,#148,.F.);
#184=ORIENTED_EDGE('',*,*,#149,.F.);
#185=ORIENTED_EDGE('',*,*,#150,.T.);
#186=ORIENTED_EDGE('',*,*,#148,.T.);
#187=ORIENTED_EDGE('',*,*,#150,.F.);
#188=ORIENTED_EDGE('',*,*,#151,.F.);
#189=ORIENTED_EDGE('',*,*,#152,.F.);
#190=ORIENTED_EDGE('',*,*,#153,.F.);
#191=ORIENTED_EDGE('',*,*,#154,.F.);
#192=ORIENTED_EDGE('',*,*,#155,.F.);
#193=ORIENTED_EDGE('',*,*,#156,.F.);
#194=ORIENTED_EDGE('',*,*,#157,.F.);
#195=ORIENTED_EDGE('',*,*,#158,.F.);
#196=ORIENTED_EDGE('',*,*,#159,.F.);
#197=ORIENTED_EDGE('',*,*,#160,.F.);
#198=ORIENTED_EDGE('',*,*,#145,.T.);
#199=ORIENTED_EDGE('',*,*,#161,.F.);
#200=ORIENTED_EDGE('',*,*,#156,.T.);
#201=ORIENTED_EDGE('',*,*,#162,.T.);
#202=ORIENTED_EDGE('',*,*,#163,.F.);
#203=ORIENTED_EDGE('',*,*,#164,.T.);
#204=ORIENTED_EDGE('',*,*,#162,.F.);
#205=ORIENTED_EDGE('',*,*,#155,.T.);
#206=ORIENTED_EDGE('',*,*,#165,.T.);
#207=ORIENTED_EDGE('',*,*,#146,.T.);
#208=ORIENTED_EDGE('',*,*,#164,.F.);
#209=ORIENTED_EDGE('',*,*,#152,.T.);
#210=ORIENTED_EDGE('',*,*,#166,.T.);
#211=ORIENTED_EDGE('',*,*,#167,.F.);
#212=ORIENTED_EDGE('',*,*,#168,.F.);
#213=ORIENTED_EDGE('',*,*,#151,.T.);
#214=ORIENTED_EDGE('',*,*,#169,.T.);
#215=ORIENTED_EDGE('',*,*,#170,.F.);
#216=ORIENTED_EDGE('',*,*,#166,.F.);
#217=ORIENTED_EDGE('',*,*,#171,.F.);
#218=ORIENTED_EDGE('',*,*,#172,.T.);
#219=ORIENTED_EDGE('',*,*,#160,.T.);
#220=ORIENTED_EDGE('',*,*,#172,.F.);
#221=ORIENTED_EDGE('',*,*,#173,.F.);
#222=ORIENTED_EDGE('',*,*,#174,.T.);
#223=ORIENTED_EDGE('',*,*,#159,.T.);
#224=ORIENTED_EDGE('',*,*,#174,.F.);
#225=ORIENTED_EDGE('',*,*,#144,.T.);
#226=ORIENTED_EDGE('',*,*,#175,.F.);
#227=ORIENTED_EDGE('',*,*,#157,.T.);
#228=ORIENTED_EDGE('',*,*,#161,.T.);
#229=ORIENTED_EDGE('',*,*,#147,.T.);
#230=ORIENTED_EDGE('',*,*,#165,.F.);
#231=ORIENTED_EDGE('',*,*,#158,.T.);
#232=ORIENTED_EDGE('',*,*,#175,.T.);
#233=ORIENTED_EDGE('',*,*,#153,.T.);
#234=ORIENTED_EDGE('',*,*,#168,.T.);
#235=ORIENTED_EDGE('',*,*,#176,.F.);
#236=ORIENTED_EDGE('',*,*,#177,.F.);
#237=ORIENTED_EDGE('',*,*,#154,.T.);
#238=ORIENTED_EDGE('',*,*,#177,.T.);
#239=ORIENTED_EDGE('',*,*,#178,.F.);
#240=ORIENTED_EDGE('',*,*,#169,.F.);
#241=ORIENTED_EDGE('',*,*,#170,.T.);
#242=ORIENTED_EDGE('',*,*,#178,.T.);
#243=ORIENTED_EDGE('',*,*,#176,.T.);
#244=ORIENTED_EDGE('',*,*,#167,.T.);
#245=ORIENTED_EDGE('',*,*,#149,.T.);
#246=ORIENTED_EDGE('',*,*,#163,.T.);
#247=ORIENTED_EDGE('',*,*,#173,.T.);
#248=ORIENTED_EDGE('',*,*,#171,.T.);
#249=PLANE('',#284);
#250=PLANE('',#290);
#251=PLANE('',#297);
#252=PLANE('',#300);
#253=PLANE('',#308);
#254=PLANE('',#311);
#255=PLANE('',#312);
#256=ADVANCED_FACE('',(#30,#22),#249,.F.);
#257=ADVANCED_FACE('',(#31),#15,.F.);
#258=ADVANCED_FACE('',(#32,#23,#24,#25),#250,.F.);
#259=ADVANCED_FACE('',(#33),#251,.T.);
#260=ADVANCED_FACE('',(#34),#16,.F.);
#261=ADVANCED_FACE('',(#35),#252,.T.);
#262=ADVANCED_FACE('',(#36),#17,.T.);
#263=ADVANCED_FACE('',(#37),#18,.F.);
#264=ADVANCED_FACE('',(#38),#19,.F.);
#265=ADVANCED_FACE('',(#39),#20,.F.);
#266=ADVANCED_FACE('',(#40),#253,.T.);
#267=ADVANCED_FACE('',(#41),#21,.T.);
#268=ADVANCED_FACE('',(#42),#254,.T.);
#269=ADVANCED_FACE('',(#43,#26,#27,#28,#29),#255,.T.);
#270=CLOSED_SHELL('',(#256,#257,#258,#259,#260,#261,#262,#263,#264,#265,
#266,#267,#268,#269));
#271=DERIVED_UNIT_ELEMENT(#273,1.);
#272=DERIVED_UNIT_ELEMENT(#471,-3.);
#273=(
MASS_UNIT()
NAMED_UNIT(*)
SI_UNIT(.KILO.,.GRAM.)
);
#274=DERIVED_UNIT((#271,#272));
#275=MEASURE_REPRESENTATION_ITEM('density measure',
POSITIVE_RATIO_MEASURE(7850.),#274);
#276=PROPERTY_DEFINITION_REPRESENTATION(#281,#278);
#277=PROPERTY_DEFINITION_REPRESENTATION(#282,#279);
#278=REPRESENTATION('material name',(#280),#468);
#279=REPRESENTATION('density',(#275),#468);
#280=DESCRIPTIVE_REPRESENTATION_ITEM('Steel','Steel');
#281=PROPERTY_DEFINITION('material property','material name',#478);
#282=PROPERTY_DEFINITION('material property','density of part',#478);
#283=AXIS2_PLACEMENT_3D('',#393,#313,#314);
#284=AXIS2_PLACEMENT_3D('',#394,#315,#316);
#285=AXIS2_PLACEMENT_3D('',#397,#317,#318);
#286=AXIS2_PLACEMENT_3D('',#401,#320,#321);
#287=AXIS2_PLACEMENT_3D('',#404,#323,#324);
#288=AXIS2_PLACEMENT_3D('',#405,#325,#326);
#289=AXIS2_PLACEMENT_3D('',#407,#327,#328);
#290=AXIS2_PLACEMENT_3D('',#409,#330,#331);
#291=AXIS2_PLACEMENT_3D('',#412,#332,#333);
#292=AXIS2_PLACEMENT_3D('',#416,#335,#336);
#293=AXIS2_PLACEMENT_3D('',#420,#338,#339);
#294=AXIS2_PLACEMENT_3D('',#424,#341,#342);
#295=AXIS2_PLACEMENT_3D('',#427,#344,#345);
#296=AXIS2_PLACEMENT_3D('',#429,#346,#347);
#297=AXIS2_PLACEMENT_3D('',#430,#348,#349);
#298=AXIS2_PLACEMENT_3D('',#433,#352,#353);
#299=AXIS2_PLACEMENT_3D('',#435,#354,#355);
#300=AXIS2_PLACEMENT_3D('',#438,#358,#359);
#301=AXIS2_PLACEMENT_3D('',#444,#363,#364);
#302=AXIS2_PLACEMENT_3D('',#447,#366,#367);
#303=AXIS2_PLACEMENT_3D('',#448,#368,#369);
#304=AXIS2_PLACEMENT_3D('',#450,#370,#371);
#305=AXIS2_PLACEMENT_3D('',#452,#373,#374);
#306=AXIS2_PLACEMENT_3D('',#454,#375,#376);
#307=AXIS2_PLACEMENT_3D('',#456,#378,#379);
#308=AXIS2_PLACEMENT_3D('',#458,#381,#382);
#309=AXIS2_PLACEMENT_3D('',#459,#383,#384);
#310=AXIS2_PLACEMENT_3D('',#461,#385,#386);
#311=AXIS2_PLACEMENT_3D('',#463,#388,#389);
#312=AXIS2_PLACEMENT_3D('',#465,#391,#392);
#313=DIRECTION('axis',(0.,0.,1.));
#314=DIRECTION('refdir',(1.,0.,0.));
#315=DIRECTION('center_axis',(0.,0.,1.));
#316=DIRECTION('ref_axis',(1.,0.,0.));
#317=DIRECTION('center_axis',(0.,0.,1.));
#318=DIRECTION('ref_axis',(1.,0.,0.));
#319=DIRECTION('',(0.,1.,0.));
#320=DIRECTION('center_axis',(0.,0.,-1.));
#321=DIRECTION('ref_axis',(1.,0.,0.));
#322=DIRECTION('',(0.,-1.,0.));
#323=DIRECTION('center_axis',(0.,0.,-1.));
#324=DIRECTION('ref_axis',(1.,0.,0.));
#325=DIRECTION('center_axis',(0.,0.,1.));
#326=DIRECTION('ref_axis',(1.,0.,0.));
#327=DIRECTION('center_axis',(0.,0.,-1.));
#328=DIRECTION('ref_axis',(1.,0.,0.));
#329=DIRECTION('',(0.,0.,-1.));
#330=DIRECTION('center_axis',(0.,0.,1.));
#331=DIRECTION('ref_axis',(1.,0.,0.));
#332=DIRECTION('center_axis',(0.,0.,1.));
#333=DIRECTION('ref_axis',(-1.,0.,0.));
#334=DIRECTION('',(0.,-1.,0.));
#335=DIRECTION('center_axis',(0.,0.,1.));
#336=DIRECTION('ref_axis',(1.,0.,0.));
#337=DIRECTION('',(0.,1.,0.));
#338=DIRECTION('center_axis',(0.,0.,-1.));
#339=DIRECTION('ref_axis',(-1.,0.,0.));
#340=DIRECTION('',(0.,-1.,0.));
#341=DIRECTION('center_axis',(0.,0.,-1.));
#342=DIRECTION('ref_axis',(1.,0.,0.));
#343=DIRECTION('',(0.,1.,0.));
#344=DIRECTION('center_axis',(0.,0.,-1.));
#345=DIRECTION('ref_axis',(1.,0.,0.));
#346=DIRECTION('center_axis',(0.,0.,-1.));
#347=DIRECTION('ref_axis',(1.,0.,0.));
#348=DIRECTION('center_axis',(-1.,0.,0.));
#349=DIRECTION('ref_axis',(0.,-1.,0.));
#350=DIRECTION('',(0.,0.,1.));
#351=DIRECTION('',(0.,0.,1.));
#352=DIRECTION('center_axis',(0.,0.,1.));
#353=DIRECTION('ref_axis',(-1.,0.,0.));
#354=DIRECTION('center_axis',(0.,0.,-1.));
#355=DIRECTION('ref_axis',(1.,0.,0.));
#356=DIRECTION('',(0.,0.,-1.));
#357=DIRECTION('',(0.,0.,1.));
#358=DIRECTION('center_axis',(-1.,0.,0.));
#359=DIRECTION('ref_axis',(0.,-1.,0.));
#360=DIRECTION('',(0.,0.,1.));
#361=DIRECTION('',(0.,-1.,0.));
#362=DIRECTION('',(0.,0.,1.));
#363=DIRECTION('center_axis',(0.,0.,1.));
#364=DIRECTION('ref_axis',(-1.,0.,0.));
#365=DIRECTION('',(0.,0.,1.));
#366=DIRECTION('center_axis',(0.,0.,1.));
#367=DIRECTION('ref_axis',(-1.,0.,0.));
#368=DIRECTION('center_axis',(0.,0.,1.));
#369=DIRECTION('ref_axis',(1.,0.,0.));
#370=DIRECTION('center_axis',(0.,0.,-1.));
#371=DIRECTION('ref_axis',(1.,0.,0.));
#372=DIRECTION('',(0.,0.,-1.));
#373=DIRECTION('center_axis',(0.,0.,1.));
#374=DIRECTION('ref_axis',(1.,0.,0.));
#375=DIRECTION('center_axis',(0.,0.,-1.));
#376=DIRECTION('ref_axis',(1.,0.,0.));
#377=DIRECTION('',(0.,0.,-1.));
#378=DIRECTION('center_axis',(0.,0.,1.));
#379=DIRECTION('ref_axis',(1.,0.,0.));
#380=DIRECTION('',(0.,0.,1.));
#381=DIRECTION('center_axis',(1.,0.,0.));
#382=DIRECTION('ref_axis',(0.,1.,0.));
#383=DIRECTION('center_axis',(0.,0.,1.));
#384=DIRECTION('ref_axis',(1.,0.,0.));
#385=DIRECTION('center_axis',(0.,0.,1.));
#386=DIRECTION('ref_axis',(1.,0.,0.));
#387=DIRECTION('',(0.,0.,1.));
#388=DIRECTION('center_axis',(1.,0.,0.));
#389=DIRECTION('ref_axis',(0.,1.,0.));
#390=DIRECTION('',(0.,1.,0.));
#391=DIRECTION('center_axis',(0.,0.,1.));
#392=DIRECTION('ref_axis',(1.,0.,0.));
#393=CARTESIAN_POINT('',(0.,0.,0.));
#394=CARTESIAN_POINT('Origin',(0.,28.0000004172325,130.));
#395=CARTESIAN_POINT('',(13.0000001937151,43.0000006407499,130.));
#396=CARTESIAN_POINT('',(-13.0000001937151,43.0000006407499,130.));
#397=CARTESIAN_POINT('Origin',(0.,43.0000006407499,130.));
#398=CARTESIAN_POINT('',(13.0000001937151,0.,130.));
#399=CARTESIAN_POINT('',(13.0000001937151,35.5000005289912,130.));
#400=CARTESIAN_POINT('',(-13.0000001937151,0.,130.));
#401=CARTESIAN_POINT('Origin',(0.,0.,130.));
#402=CARTESIAN_POINT('',(-13.0000001937151,14.0000002086163,130.));
#403=CARTESIAN_POINT('',(-10.0000001490116,43.0000006407499,130.));
#404=CARTESIAN_POINT('Origin',(0.,43.0000006407499,130.));
#405=CARTESIAN_POINT('Origin',(0.,43.0000006407499,0.));
#406=CARTESIAN_POINT('',(-10.0000001490116,43.0000006407499,133.));
#407=CARTESIAN_POINT('Origin',(0.,43.0000006407499,133.));
#408=CARTESIAN_POINT('',(-10.0000001490116,43.0000006407499,0.));
#409=CARTESIAN_POINT('Origin',(0.,21.500000320375,128.));
#410=CARTESIAN_POINT('',(-17.0000002533197,0.,128.));
#411=CARTESIAN_POINT('',(17.0000002533197,-2.08189958957322E-15,128.));
#412=CARTESIAN_POINT('Origin',(0.,0.,128.));
#413=CARTESIAN_POINT('',(-17.0000002533197,43.0000006407499,128.));
#414=CARTESIAN_POINT('',(-17.0000002533197,32.2500004805624,128.));
#415=CARTESIAN_POINT('',(17.0000002533197,43.0000006407499,128.));
#416=CARTESIAN_POINT('Origin',(0.,43.0000006407499,128.));
#417=CARTESIAN_POINT('',(17.0000002533197,10.7500001601875,128.));
#418=CARTESIAN_POINT('',(13.0000001937151,0.,128.));
#419=CARTESIAN_POINT('',(-13.0000001937151,0.,128.));
#420=CARTESIAN_POINT('Origin',(0.,0.,128.));
#421=CARTESIAN_POINT('',(13.0000001937151,43.0000006407499,128.));
#422=CARTESIAN_POINT('',(13.0000001937151,32.2500004805624,128.));
#423=CARTESIAN_POINT('',(-13.0000001937151,43.0000006407499,128.));
#424=CARTESIAN_POINT('Origin',(0.,43.0000006407499,128.));
#425=CARTESIAN_POINT('',(-13.0000001937151,10.7500001601875,128.));
#426=CARTESIAN_POINT('',(-1.05,58.0000008642673,128.));
#427=CARTESIAN_POINT('Origin',(0.,58.0000008642673,128.));
#428=CARTESIAN_POINT('',(-1.05,-15.0000002235174,128.));
#429=CARTESIAN_POINT('Origin',(0.,-15.0000002235174,128.));
#430=CARTESIAN_POINT('Origin',(13.0000001937151,43.0000006407499,0.));
#431=CARTESIAN_POINT('',(13.0000001937151,43.0000006407499,0.));
#432=CARTESIAN_POINT('',(13.0000001937151,0.,0.));
#433=CARTESIAN_POINT('Origin',(0.,0.,0.));
#434=CARTESIAN_POINT('',(13.0000001937151,1.59204086261482E-15,133.));
#435=CARTESIAN_POINT('Origin',(0.,0.,133.));
#436=CARTESIAN_POINT('',(13.0000001937151,1.59204086261482E-15,0.));
#437=CARTESIAN_POINT('',(-13.0000001937151,0.,0.));
#438=CARTESIAN_POINT('Origin',(-17.0000002533197,43.0000006407499,0.));
#439=CARTESIAN_POINT('',(-17.0000002533197,0.,133.));
#440=CARTESIAN_POINT('',(-17.0000002533197,0.,0.));
#441=CARTESIAN_POINT('',(-17.0000002533197,43.0000006407499,133.));
#442=CARTESIAN_POINT('',(-17.0000002533197,0.,133.));
#443=CARTESIAN_POINT('',(-17.0000002533197,43.0000006407499,0.));
#444=CARTESIAN_POINT('Origin',(0.,0.,0.));
#445=CARTESIAN_POINT('',(17.0000002533197,-2.08189958957322E-15,133.));
#446=CARTESIAN_POINT('',(17.0000002533197,-2.08189958957322E-15,0.));
#447=CARTESIAN_POINT('Origin',(0.,0.,133.));
#448=CARTESIAN_POINT('Origin',(0.,-15.0000002235174,0.));
#449=CARTESIAN_POINT('',(-1.05,-15.0000002235174,133.));
#450=CARTESIAN_POINT('Origin',(0.,-15.0000002235174,133.));
#451=CARTESIAN_POINT('',(-1.05,-15.0000002235174,0.));
#452=CARTESIAN_POINT('Origin',(0.,58.0000008642673,0.));
#453=CARTESIAN_POINT('',(-1.05,58.0000008642673,133.));
#454=CARTESIAN_POINT('Origin',(0.,58.0000008642673,133.));
#455=CARTESIAN_POINT('',(-1.05,58.0000008642673,0.));
#456=CARTESIAN_POINT('Origin',(0.,43.0000006407499,0.));
#457=CARTESIAN_POINT('',(-13.0000001937151,43.0000006407499,0.));
#458=CARTESIAN_POINT('Origin',(-13.0000001937151,0.,0.));
#459=CARTESIAN_POINT('Origin',(0.,43.0000006407499,0.));
#460=CARTESIAN_POINT('',(17.0000002533197,43.0000006407499,133.));
#461=CARTESIAN_POINT('Origin',(0.,43.0000006407499,133.));
#462=CARTESIAN_POINT('',(17.0000002533197,43.0000006407499,0.));
#463=CARTESIAN_POINT('Origin',(17.0000002533197,0.,0.));
#464=CARTESIAN_POINT('',(17.0000002533197,43.0000006407499,133.));
#465=CARTESIAN_POINT('Origin',(0.,21.500000320375,133.));
#466=UNCERTAINTY_MEASURE_WITH_UNIT(LENGTH_MEASURE(0.01),#470,
'DISTANCE_ACCURACY_VALUE',
'Maximum model space distance between geometric entities at asserted c
onnectivities');
#467=UNCERTAINTY_MEASURE_WITH_UNIT(LENGTH_MEASURE(0.01),#470,
'DISTANCE_ACCURACY_VALUE',
'Maximum model space distance between geometric entities at asserted c
onnectivities');
#468=(
GEOMETRIC_REPRESENTATION_CONTEXT(3)
GLOBAL_UNCERTAINTY_ASSIGNED_CONTEXT((#466))
GLOBAL_UNIT_ASSIGNED_CONTEXT((#470,#472,#473))
REPRESENTATION_CONTEXT('','3D')
);
#469=(
GEOMETRIC_REPRESENTATION_CONTEXT(3)
GLOBAL_UNCERTAINTY_ASSIGNED_CONTEXT((#467))
GLOBAL_UNIT_ASSIGNED_CONTEXT((#470,#472,#473))
REPRESENTATION_CONTEXT('','3D')
);
#470=(
LENGTH_UNIT()
NAMED_UNIT(*)
SI_UNIT(.MILLI.,.METRE.)
);
#471=(
LENGTH_UNIT()
NAMED_UNIT(*)
SI_UNIT($,.METRE.)
);
#472=(
NAMED_UNIT(*)
PLANE_ANGLE_UNIT()
SI_UNIT($,.RADIAN.)
);
#473=(
NAMED_UNIT(*)
SI_UNIT($,.STERADIAN.)
SOLID_ANGLE_UNIT()
);
#474=SHAPE_DEFINITION_REPRESENTATION(#475,#476);
#475=PRODUCT_DEFINITION_SHAPE('',$,#478);
#476=SHAPE_REPRESENTATION('',(#283),#468);
#477=PRODUCT_DEFINITION_CONTEXT('part definition',#482,'design');
#478=PRODUCT_DEFINITION('2025-07-29-17-33-56-868','base_5 (1)',#479,#477);
#479=PRODUCT_DEFINITION_FORMATION('',$,#484);
#480=PRODUCT_RELATED_PRODUCT_CATEGORY('base_5 (1)','base_5 (1)',(#484));
#481=APPLICATION_PROTOCOL_DEFINITION('international standard',
'automotive_design',2009,#482);
#482=APPLICATION_CONTEXT(
'Core Data for Automotive Mechanical Design Process');
#483=PRODUCT_CONTEXT('part definition',#482,'mechanical');
#484=PRODUCT('2025-07-29-17-33-56-868','base_5 (1)',$,(#483));
#485=PRESENTATION_STYLE_ASSIGNMENT((#487));
#486=PRESENTATION_STYLE_ASSIGNMENT((#488));
#487=SURFACE_STYLE_USAGE(.BOTH.,#489);
#488=SURFACE_STYLE_USAGE(.BOTH.,#490);
#489=SURFACE_SIDE_STYLE('',(#491));
#490=SURFACE_SIDE_STYLE('',(#492));
#491=SURFACE_STYLE_FILL_AREA(#493);
#492=SURFACE_STYLE_FILL_AREA(#494);
#493=FILL_AREA_STYLE('Steel - Satin',(#495));
#494=FILL_AREA_STYLE('Sunflower yellow PLA',(#496));
#495=FILL_AREA_STYLE_COLOUR('Steel - Satin',#497);
#496=FILL_AREA_STYLE_COLOUR('Sunflower yellow PLA',#498);
#497=COLOUR_RGB('Steel - Satin',0.627450980392157,0.627450980392157,0.627450980392157);
#498=COLOUR_RGB('Sunflower yellow PLA',1.,0.733333333333333,0.);
ENDSEC;
END-ISO-10303-21;
