ISO-10303-21;
HEADER;
/* Generated by software containing ST-Developer
 * from STEP Tools, Inc. (www.steptools.com) 
 */

FILE_DESCRIPTION(
/* description */ (''),
/* implementation_level */ '2;1');

FILE_NAME(
/* name */ 'base_3.step',
/* time_stamp */ '2025-08-05T19:03:57+01:00',
/* author */ (''),
/* organization */ (''),
/* preprocessor_version */ 'ST-DEVELOPER v20.1',
/* originating_system */ 'Autodesk Translation Framework v14.10.0.0',
/* authorisation */ '');

FILE_SCHEMA (('AUTOMOTIVE_DESIGN { 1 0 10303 214 3 1 1 }'));
ENDSEC;

DATA;
#10=MECHANICAL_DESIGN_GEOMETRIC_PRESENTATION_REPRESENTATION('',(#13),#627);
#11=SHAPE_REPRESENTATION_RELATIONSHIP('SRR','None',#634,#12);
#12=ADVANCED_BREP_SHAPE_REPRESENTATION('',(#14),#626);
#13=STYLED_ITEM('',(#644),#14);
#14=MANIFOLD_SOLID_BREP('Body1',#375);
#15=CYLINDRICAL_SURFACE('',#402,1.95);
#16=CYLINDRICAL_SURFACE('',#404,1.95);
#17=CYLINDRICAL_SURFACE('',#406,2.15);
#18=CYLINDRICAL_SURFACE('',#408,1.95);
#19=CYLINDRICAL_SURFACE('',#410,2.15);
#20=CYLINDRICAL_SURFACE('',#412,2.15);
#21=CYLINDRICAL_SURFACE('',#414,1.95);
#22=CYLINDRICAL_SURFACE('',#416,2.15);
#23=FACE_BOUND('',#74,.T.);
#24=FACE_BOUND('',#75,.T.);
#25=FACE_BOUND('',#76,.T.);
#26=FACE_BOUND('',#77,.T.);
#27=FACE_BOUND('',#78,.T.);
#28=FACE_BOUND('',#79,.T.);
#29=FACE_BOUND('',#80,.T.);
#30=FACE_BOUND('',#81,.T.);
#31=FACE_BOUND('',#99,.T.);
#32=FACE_BOUND('',#100,.T.);
#33=FACE_BOUND('',#101,.T.);
#34=FACE_BOUND('',#102,.T.);
#35=FACE_BOUND('',#103,.T.);
#36=FACE_BOUND('',#104,.T.);
#37=FACE_BOUND('',#105,.T.);
#38=FACE_BOUND('',#106,.T.);
#39=CIRCLE('',#390,2.15);
#40=CIRCLE('',#391,1.95);
#41=CIRCLE('',#392,2.15);
#42=CIRCLE('',#393,2.15);
#43=CIRCLE('',#394,1.95);
#44=CIRCLE('',#395,2.15);
#45=CIRCLE('',#396,1.95);
#46=CIRCLE('',#397,1.95);
#47=CIRCLE('',#403,1.95);
#48=CIRCLE('',#405,1.95);
#49=CIRCLE('',#407,2.15);
#50=CIRCLE('',#409,1.95);
#51=CIRCLE('',#411,2.15);
#52=CIRCLE('',#413,2.15);
#53=CIRCLE('',#415,1.95);
#54=CIRCLE('',#417,2.15);
#55=FACE_OUTER_BOUND('',#73,.T.);
#56=FACE_OUTER_BOUND('',#82,.T.);
#57=FACE_OUTER_BOUND('',#83,.T.);
#58=FACE_OUTER_BOUND('',#84,.T.);
#59=FACE_OUTER_BOUND('',#85,.T.);
#60=FACE_OUTER_BOUND('',#86,.T.);
#61=FACE_OUTER_BOUND('',#87,.T.);
#62=FACE_OUTER_BOUND('',#88,.T.);
#63=FACE_OUTER_BOUND('',#89,.T.);
#64=FACE_OUTER_BOUND('',#90,.T.);
#65=FACE_OUTER_BOUND('',#91,.T.);
#66=FACE_OUTER_BOUND('',#92,.T.);
#67=FACE_OUTER_BOUND('',#93,.T.);
#68=FACE_OUTER_BOUND('',#94,.T.);
#69=FACE_OUTER_BOUND('',#95,.T.);
#70=FACE_OUTER_BOUND('',#96,.T.);
#71=FACE_OUTER_BOUND('',#97,.T.);
#72=FACE_OUTER_BOUND('',#98,.T.);
#73=EDGE_LOOP('',(#251,#252,#253,#254,#255,#256,#257,#258));
#74=EDGE_LOOP('',(#259));
#75=EDGE_LOOP('',(#260));
#76=EDGE_LOOP('',(#261));
#77=EDGE_LOOP('',(#262));
#78=EDGE_LOOP('',(#263));
#79=EDGE_LOOP('',(#264));
#80=EDGE_LOOP('',(#265));
#81=EDGE_LOOP('',(#266));
#82=EDGE_LOOP('',(#267,#268,#269,#270));
#83=EDGE_LOOP('',(#271,#272,#273,#274));
#84=EDGE_LOOP('',(#275,#276,#277,#278));
#85=EDGE_LOOP('',(#279,#280,#281,#282));
#86=EDGE_LOOP('',(#283,#284,#285,#286));
#87=EDGE_LOOP('',(#287,#288,#289,#290));
#88=EDGE_LOOP('',(#291,#292,#293,#294));
#89=EDGE_LOOP('',(#295,#296,#297,#298));
#90=EDGE_LOOP('',(#299,#300,#301,#302));
#91=EDGE_LOOP('',(#303,#304,#305,#306));
#92=EDGE_LOOP('',(#307,#308,#309,#310));
#93=EDGE_LOOP('',(#311,#312,#313,#314));
#94=EDGE_LOOP('',(#315,#316,#317,#318));
#95=EDGE_LOOP('',(#319,#320,#321,#322));
#96=EDGE_LOOP('',(#323,#324,#325,#326));
#97=EDGE_LOOP('',(#327,#328,#329,#330));
#98=EDGE_LOOP('',(#331,#332,#333,#334,#335,#336,#337,#338));
#99=EDGE_LOOP('',(#339));
#100=EDGE_LOOP('',(#340));
#101=EDGE_LOOP('',(#341));
#102=EDGE_LOOP('',(#342));
#103=EDGE_LOOP('',(#343));
#104=EDGE_LOOP('',(#344));
#105=EDGE_LOOP('',(#345));
#106=EDGE_LOOP('',(#346));
#107=LINE('',#529,#139);
#108=LINE('',#531,#140);
#109=LINE('',#533,#141);
#110=LINE('',#535,#142);
#111=LINE('',#537,#143);
#112=LINE('',#539,#144);
#113=LINE('',#541,#145);
#114=LINE('',#542,#146);
#115=LINE('',#561,#147);
#116=LINE('',#563,#148);
#117=LINE('',#564,#149);
#118=LINE('',#567,#150);
#119=LINE('',#568,#151);
#120=LINE('',#571,#152);
#121=LINE('',#572,#153);
#122=LINE('',#575,#154);
#123=LINE('',#576,#155);
#124=LINE('',#580,#156);
#125=LINE('',#584,#157);
#126=LINE('',#588,#158);
#127=LINE('',#592,#159);
#128=LINE('',#596,#160);
#129=LINE('',#600,#161);
#130=LINE('',#604,#162);
#131=LINE('',#608,#163);
#132=LINE('',#611,#164);
#133=LINE('',#612,#165);
#134=LINE('',#615,#166);
#135=LINE('',#616,#167);
#136=LINE('',#619,#168);
#137=LINE('',#620,#169);
#138=LINE('',#622,#170);
#139=VECTOR('',#427,10.);
#140=VECTOR('',#428,10.);
#141=VECTOR('',#429,10.);
#142=VECTOR('',#430,10.);
#143=VECTOR('',#431,10.);
#144=VECTOR('',#432,10.);
#145=VECTOR('',#433,10.);
#146=VECTOR('',#434,10.);
#147=VECTOR('',#453,10.);
#148=VECTOR('',#454,10.);
#149=VECTOR('',#455,10.);
#150=VECTOR('',#458,10.);
#151=VECTOR('',#459,10.);
#152=VECTOR('',#462,10.);
#153=VECTOR('',#463,10.);
#154=VECTOR('',#466,10.);
#155=VECTOR('',#467,10.);
#156=VECTOR('',#472,1.95);
#157=VECTOR('',#477,1.95);
#158=VECTOR('',#482,2.15);
#159=VECTOR('',#487,1.95);
#160=VECTOR('',#492,2.15);
#161=VECTOR('',#497,2.15);
#162=VECTOR('',#502,1.95);
#163=VECTOR('',#507,2.15);
#164=VECTOR('',#510,10.);
#165=VECTOR('',#511,10.);
#166=VECTOR('',#514,10.);
#167=VECTOR('',#515,10.);
#168=VECTOR('',#518,10.);
#169=VECTOR('',#519,10.);
#170=VECTOR('',#522,10.);
#171=VERTEX_POINT('',#527);
#172=VERTEX_POINT('',#528);
#173=VERTEX_POINT('',#530);
#174=VERTEX_POINT('',#532);
#175=VERTEX_POINT('',#534);
#176=VERTEX_POINT('',#536);
#177=VERTEX_POINT('',#538);
#178=VERTEX_POINT('',#540);
#179=VERTEX_POINT('',#543);
#180=VERTEX_POINT('',#545);
#181=VERTEX_POINT('',#547);
#182=VERTEX_POINT('',#549);
#183=VERTEX_POINT('',#551);
#184=VERTEX_POINT('',#553);
#185=VERTEX_POINT('',#555);
#186=VERTEX_POINT('',#557);
#187=VERTEX_POINT('',#560);
#188=VERTEX_POINT('',#562);
#189=VERTEX_POINT('',#566);
#190=VERTEX_POINT('',#570);
#191=VERTEX_POINT('',#574);
#192=VERTEX_POINT('',#578);
#193=VERTEX_POINT('',#582);
#194=VERTEX_POINT('',#586);
#195=VERTEX_POINT('',#590);
#196=VERTEX_POINT('',#594);
#197=VERTEX_POINT('',#598);
#198=VERTEX_POINT('',#602);
#199=VERTEX_POINT('',#606);
#200=VERTEX_POINT('',#610);
#201=VERTEX_POINT('',#614);
#202=VERTEX_POINT('',#618);
#203=EDGE_CURVE('',#171,#172,#107,.T.);
#204=EDGE_CURVE('',#173,#171,#108,.T.);
#205=EDGE_CURVE('',#174,#173,#109,.T.);
#206=EDGE_CURVE('',#175,#174,#110,.T.);
#207=EDGE_CURVE('',#176,#175,#111,.T.);
#208=EDGE_CURVE('',#177,#176,#112,.T.);
#209=EDGE_CURVE('',#178,#177,#113,.T.);
#210=EDGE_CURVE('',#172,#178,#114,.T.);
#211=EDGE_CURVE('',#179,#179,#39,.T.);
#212=EDGE_CURVE('',#180,#180,#40,.T.);
#213=EDGE_CURVE('',#181,#181,#41,.T.);
#214=EDGE_CURVE('',#182,#182,#42,.T.);
#215=EDGE_CURVE('',#183,#183,#43,.T.);
#216=EDGE_CURVE('',#184,#184,#44,.T.);
#217=EDGE_CURVE('',#185,#185,#45,.T.);
#218=EDGE_CURVE('',#186,#186,#46,.T.);
#219=EDGE_CURVE('',#174,#187,#115,.T.);
#220=EDGE_CURVE('',#188,#187,#116,.T.);
#221=EDGE_CURVE('',#175,#188,#117,.T.);
#222=EDGE_CURVE('',#173,#189,#118,.T.);
#223=EDGE_CURVE('',#187,#189,#119,.T.);
#224=EDGE_CURVE('',#171,#190,#120,.T.);
#225=EDGE_CURVE('',#189,#190,#121,.T.);
#226=EDGE_CURVE('',#172,#191,#122,.T.);
#227=EDGE_CURVE('',#190,#191,#123,.T.);
#228=EDGE_CURVE('',#192,#192,#47,.T.);
#229=EDGE_CURVE('',#192,#186,#124,.T.);
#230=EDGE_CURVE('',#193,#193,#48,.T.);
#231=EDGE_CURVE('',#193,#185,#125,.T.);
#232=EDGE_CURVE('',#194,#194,#49,.T.);
#233=EDGE_CURVE('',#194,#184,#126,.T.);
#234=EDGE_CURVE('',#195,#195,#50,.T.);
#235=EDGE_CURVE('',#195,#183,#127,.T.);
#236=EDGE_CURVE('',#196,#196,#51,.T.);
#237=EDGE_CURVE('',#196,#182,#128,.T.);
#238=EDGE_CURVE('',#197,#197,#52,.T.);
#239=EDGE_CURVE('',#197,#181,#129,.T.);
#240=EDGE_CURVE('',#198,#198,#53,.T.);
#241=EDGE_CURVE('',#198,#180,#130,.T.);
#242=EDGE_CURVE('',#199,#199,#54,.T.);
#243=EDGE_CURVE('',#199,#179,#131,.T.);
#244=EDGE_CURVE('',#200,#188,#132,.T.);
#245=EDGE_CURVE('',#176,#200,#133,.T.);
#246=EDGE_CURVE('',#201,#200,#134,.T.);
#247=EDGE_CURVE('',#177,#201,#135,.T.);
#248=EDGE_CURVE('',#202,#201,#136,.T.);
#249=EDGE_CURVE('',#178,#202,#137,.T.);
#250=EDGE_CURVE('',#191,#202,#138,.T.);
#251=ORIENTED_EDGE('',*,*,#203,.F.);
#252=ORIENTED_EDGE('',*,*,#204,.F.);
#253=ORIENTED_EDGE('',*,*,#205,.F.);
#254=ORIENTED_EDGE('',*,*,#206,.F.);
#255=ORIENTED_EDGE('',*,*,#207,.F.);
#256=ORIENTED_EDGE('',*,*,#208,.F.);
#257=ORIENTED_EDGE('',*,*,#209,.F.);
#258=ORIENTED_EDGE('',*,*,#210,.F.);
#259=ORIENTED_EDGE('',*,*,#211,.F.);
#260=ORIENTED_EDGE('',*,*,#212,.F.);
#261=ORIENTED_EDGE('',*,*,#213,.F.);
#262=ORIENTED_EDGE('',*,*,#214,.F.);
#263=ORIENTED_EDGE('',*,*,#215,.F.);
#264=ORIENTED_EDGE('',*,*,#216,.F.);
#265=ORIENTED_EDGE('',*,*,#217,.F.);
#266=ORIENTED_EDGE('',*,*,#218,.F.);
#267=ORIENTED_EDGE('',*,*,#206,.T.);
#268=ORIENTED_EDGE('',*,*,#219,.T.);
#269=ORIENTED_EDGE('',*,*,#220,.F.);
#270=ORIENTED_EDGE('',*,*,#221,.F.);
#271=ORIENTED_EDGE('',*,*,#205,.T.);
#272=ORIENTED_EDGE('',*,*,#222,.T.);
#273=ORIENTED_EDGE('',*,*,#223,.F.);
#274=ORIENTED_EDGE('',*,*,#219,.F.);
#275=ORIENTED_EDGE('',*,*,#204,.T.);
#276=ORIENTED_EDGE('',*,*,#224,.T.);
#277=ORIENTED_EDGE('',*,*,#225,.F.);
#278=ORIENTED_EDGE('',*,*,#222,.F.);
#279=ORIENTED_EDGE('',*,*,#203,.T.);
#280=ORIENTED_EDGE('',*,*,#226,.T.);
#281=ORIENTED_EDGE('',*,*,#227,.F.);
#282=ORIENTED_EDGE('',*,*,#224,.F.);
#283=ORIENTED_EDGE('',*,*,#228,.F.);
#284=ORIENTED_EDGE('',*,*,#229,.T.);
#285=ORIENTED_EDGE('',*,*,#218,.T.);
#286=ORIENTED_EDGE('',*,*,#229,.F.);
#287=ORIENTED_EDGE('',*,*,#230,.F.);
#288=ORIENTED_EDGE('',*,*,#231,.T.);
#289=ORIENTED_EDGE('',*,*,#217,.T.);
#290=ORIENTED_EDGE('',*,*,#231,.F.);
#291=ORIENTED_EDGE('',*,*,#232,.F.);
#292=ORIENTED_EDGE('',*,*,#233,.T.);
#293=ORIENTED_EDGE('',*,*,#216,.T.);
#294=ORIENTED_EDGE('',*,*,#233,.F.);
#295=ORIENTED_EDGE('',*,*,#234,.F.);
#296=ORIENTED_EDGE('',*,*,#235,.T.);
#297=ORIENTED_EDGE('',*,*,#215,.T.);
#298=ORIENTED_EDGE('',*,*,#235,.F.);
#299=ORIENTED_EDGE('',*,*,#236,.F.);
#300=ORIENTED_EDGE('',*,*,#237,.T.);
#301=ORIENTED_EDGE('',*,*,#214,.T.);
#302=ORIENTED_EDGE('',*,*,#237,.F.);
#303=ORIENTED_EDGE('',*,*,#238,.F.);
#304=ORIENTED_EDGE('',*,*,#239,.T.);
#305=ORIENTED_EDGE('',*,*,#213,.T.);
#306=ORIENTED_EDGE('',*,*,#239,.F.);
#307=ORIENTED_EDGE('',*,*,#240,.F.);
#308=ORIENTED_EDGE('',*,*,#241,.T.);
#309=ORIENTED_EDGE('',*,*,#212,.T.);
#310=ORIENTED_EDGE('',*,*,#241,.F.);
#311=ORIENTED_EDGE('',*,*,#242,.F.);
#312=ORIENTED_EDGE('',*,*,#243,.T.);
#313=ORIENTED_EDGE('',*,*,#211,.T.);
#314=ORIENTED_EDGE('',*,*,#243,.F.);
#315=ORIENTED_EDGE('',*,*,#207,.T.);
#316=ORIENTED_EDGE('',*,*,#221,.T.);
#317=ORIENTED_EDGE('',*,*,#244,.F.);
#318=ORIENTED_EDGE('',*,*,#245,.F.);
#319=ORIENTED_EDGE('',*,*,#208,.T.);
#320=ORIENTED_EDGE('',*,*,#245,.T.);
#321=ORIENTED_EDGE('',*,*,#246,.F.);
#322=ORIENTED_EDGE('',*,*,#247,.F.);
#323=ORIENTED_EDGE('',*,*,#209,.T.);
#324=ORIENTED_EDGE('',*,*,#247,.T.);
#325=ORIENTED_EDGE('',*,*,#248,.F.);
#326=ORIENTED_EDGE('',*,*,#249,.F.);
#327=ORIENTED_EDGE('',*,*,#210,.T.);
#328=ORIENTED_EDGE('',*,*,#249,.T.);
#329=ORIENTED_EDGE('',*,*,#250,.F.);
#330=ORIENTED_EDGE('',*,*,#226,.F.);
#331=ORIENTED_EDGE('',*,*,#227,.T.);
#332=ORIENTED_EDGE('',*,*,#250,.T.);
#333=ORIENTED_EDGE('',*,*,#248,.T.);
#334=ORIENTED_EDGE('',*,*,#246,.T.);
#335=ORIENTED_EDGE('',*,*,#244,.T.);
#336=ORIENTED_EDGE('',*,*,#220,.T.);
#337=ORIENTED_EDGE('',*,*,#223,.T.);
#338=ORIENTED_EDGE('',*,*,#225,.T.);
#339=ORIENTED_EDGE('',*,*,#242,.T.);
#340=ORIENTED_EDGE('',*,*,#240,.T.);
#341=ORIENTED_EDGE('',*,*,#238,.T.);
#342=ORIENTED_EDGE('',*,*,#236,.T.);
#343=ORIENTED_EDGE('',*,*,#234,.T.);
#344=ORIENTED_EDGE('',*,*,#232,.T.);
#345=ORIENTED_EDGE('',*,*,#230,.T.);
#346=ORIENTED_EDGE('',*,*,#228,.T.);
#347=PLANE('',#389);
#348=PLANE('',#398);
#349=PLANE('',#399);
#350=PLANE('',#400);
#351=PLANE('',#401);
#352=PLANE('',#418);
#353=PLANE('',#419);
#354=PLANE('',#420);
#355=PLANE('',#421);
#356=PLANE('',#422);
#357=ADVANCED_FACE('',(#55,#23,#24,#25,#26,#27,#28,#29,#30),#347,.F.);
#358=ADVANCED_FACE('',(#56),#348,.T.);
#359=ADVANCED_FACE('',(#57),#349,.T.);
#360=ADVANCED_FACE('',(#58),#350,.T.);
#361=ADVANCED_FACE('',(#59),#351,.T.);
#362=ADVANCED_FACE('',(#60),#15,.F.);
#363=ADVANCED_FACE('',(#61),#16,.F.);
#364=ADVANCED_FACE('',(#62),#17,.F.);
#365=ADVANCED_FACE('',(#63),#18,.F.);
#366=ADVANCED_FACE('',(#64),#19,.F.);
#367=ADVANCED_FACE('',(#65),#20,.F.);
#368=ADVANCED_FACE('',(#66),#21,.F.);
#369=ADVANCED_FACE('',(#67),#22,.F.);
#370=ADVANCED_FACE('',(#68),#352,.T.);
#371=ADVANCED_FACE('',(#69),#353,.T.);
#372=ADVANCED_FACE('',(#70),#354,.T.);
#373=ADVANCED_FACE('',(#71),#355,.T.);
#374=ADVANCED_FACE('',(#72,#31,#32,#33,#34,#35,#36,#37,#38),#356,.T.);
#375=CLOSED_SHELL('',(#357,#358,#359,#360,#361,#362,#363,#364,#365,#366,
#367,#368,#369,#370,#371,#372,#373,#374));
#376=DERIVED_UNIT_ELEMENT(#378,1.);
#377=DERIVED_UNIT_ELEMENT(#629,-3.);
#378=(
MASS_UNIT()
NAMED_UNIT(*)
SI_UNIT(.KILO.,.GRAM.)
);
#379=DERIVED_UNIT((#376,#377));
#380=MEASURE_REPRESENTATION_ITEM('density measure',
POSITIVE_RATIO_MEASURE(7850.),#379);
#381=PROPERTY_DEFINITION_REPRESENTATION(#386,#383);
#382=PROPERTY_DEFINITION_REPRESENTATION(#387,#384);
#383=REPRESENTATION('material name',(#385),#626);
#384=REPRESENTATION('density',(#380),#626);
#385=DESCRIPTIVE_REPRESENTATION_ITEM('Steel','Steel');
#386=PROPERTY_DEFINITION('material property','material name',#636);
#387=PROPERTY_DEFINITION('material property','density of part',#636);
#388=AXIS2_PLACEMENT_3D('',#525,#423,#424);
#389=AXIS2_PLACEMENT_3D('',#526,#425,#426);
#390=AXIS2_PLACEMENT_3D('',#544,#435,#436);
#391=AXIS2_PLACEMENT_3D('',#546,#437,#438);
#392=AXIS2_PLACEMENT_3D('',#548,#439,#440);
#393=AXIS2_PLACEMENT_3D('',#550,#441,#442);
#394=AXIS2_PLACEMENT_3D('',#552,#443,#444);
#395=AXIS2_PLACEMENT_3D('',#554,#445,#446);
#396=AXIS2_PLACEMENT_3D('',#556,#447,#448);
#397=AXIS2_PLACEMENT_3D('',#558,#449,#450);
#398=AXIS2_PLACEMENT_3D('',#559,#451,#452);
#399=AXIS2_PLACEMENT_3D('',#565,#456,#457);
#400=AXIS2_PLACEMENT_3D('',#569,#460,#461);
#401=AXIS2_PLACEMENT_3D('',#573,#464,#465);
#402=AXIS2_PLACEMENT_3D('',#577,#468,#469);
#403=AXIS2_PLACEMENT_3D('',#579,#470,#471);
#404=AXIS2_PLACEMENT_3D('',#581,#473,#474);
#405=AXIS2_PLACEMENT_3D('',#583,#475,#476);
#406=AXIS2_PLACEMENT_3D('',#585,#478,#479);
#407=AXIS2_PLACEMENT_3D('',#587,#480,#481);
#408=AXIS2_PLACEMENT_3D('',#589,#483,#484);
#409=AXIS2_PLACEMENT_3D('',#591,#485,#486);
#410=AXIS2_PLACEMENT_3D('',#593,#488,#489);
#411=AXIS2_PLACEMENT_3D('',#595,#490,#491);
#412=AXIS2_PLACEMENT_3D('',#597,#493,#494);
#413=AXIS2_PLACEMENT_3D('',#599,#495,#496);
#414=AXIS2_PLACEMENT_3D('',#601,#498,#499);
#415=AXIS2_PLACEMENT_3D('',#603,#500,#501);
#416=AXIS2_PLACEMENT_3D('',#605,#503,#504);
#417=AXIS2_PLACEMENT_3D('',#607,#505,#506);
#418=AXIS2_PLACEMENT_3D('',#609,#508,#509);
#419=AXIS2_PLACEMENT_3D('',#613,#512,#513);
#420=AXIS2_PLACEMENT_3D('',#617,#516,#517);
#421=AXIS2_PLACEMENT_3D('',#621,#520,#521);
#422=AXIS2_PLACEMENT_3D('',#623,#523,#524);
#423=DIRECTION('axis',(0.,0.,1.));
#424=DIRECTION('refdir',(1.,0.,0.));
#425=DIRECTION('center_axis',(0.,0.,1.));
#426=DIRECTION('ref_axis',(1.,0.,0.));
#427=DIRECTION('',(1.,0.,0.));
#428=DIRECTION('',(0.,1.,0.));
#429=DIRECTION('',(-1.,0.,0.));
#430=DIRECTION('',(0.,1.,0.));
#431=DIRECTION('',(1.,0.,0.));
#432=DIRECTION('',(0.,-1.,0.));
#433=DIRECTION('',(-1.,0.,0.));
#434=DIRECTION('',(0.,1.,0.));
#435=DIRECTION('center_axis',(0.,0.,-1.));
#436=DIRECTION('ref_axis',(1.,0.,0.));
#437=DIRECTION('center_axis',(0.,0.,-1.));
#438=DIRECTION('ref_axis',(1.,0.,0.));
#439=DIRECTION('center_axis',(0.,0.,-1.));
#440=DIRECTION('ref_axis',(1.,0.,0.));
#441=DIRECTION('center_axis',(0.,0.,-1.));
#442=DIRECTION('ref_axis',(1.,0.,0.));
#443=DIRECTION('center_axis',(0.,0.,-1.));
#444=DIRECTION('ref_axis',(1.,0.,0.));
#445=DIRECTION('center_axis',(0.,0.,-1.));
#446=DIRECTION('ref_axis',(1.,0.,0.));
#447=DIRECTION('center_axis',(0.,0.,-1.));
#448=DIRECTION('ref_axis',(1.,0.,0.));
#449=DIRECTION('center_axis',(0.,0.,-1.));
#450=DIRECTION('ref_axis',(1.,0.,0.));
#451=DIRECTION('center_axis',(1.,0.,0.));
#452=DIRECTION('ref_axis',(0.,1.,0.));
#453=DIRECTION('',(0.,0.,1.));
#454=DIRECTION('',(0.,1.,0.));
#455=DIRECTION('',(0.,0.,1.));
#456=DIRECTION('center_axis',(0.,1.,0.));
#457=DIRECTION('ref_axis',(-1.,0.,0.));
#458=DIRECTION('',(0.,0.,1.));
#459=DIRECTION('',(-1.,0.,0.));
#460=DIRECTION('center_axis',(1.,0.,0.));
#461=DIRECTION('ref_axis',(0.,1.,0.));
#462=DIRECTION('',(0.,0.,1.));
#463=DIRECTION('',(0.,1.,0.));
#464=DIRECTION('center_axis',(0.,-1.,0.));
#465=DIRECTION('ref_axis',(1.,0.,0.));
#466=DIRECTION('',(0.,0.,1.));
#467=DIRECTION('',(1.,0.,0.));
#468=DIRECTION('center_axis',(0.,0.,1.));
#469=DIRECTION('ref_axis',(1.,0.,0.));
#470=DIRECTION('center_axis',(0.,0.,-1.));
#471=DIRECTION('ref_axis',(1.,0.,0.));
#472=DIRECTION('',(0.,0.,-1.));
#473=DIRECTION('center_axis',(0.,0.,1.));
#474=DIRECTION('ref_axis',(1.,0.,0.));
#475=DIRECTION('center_axis',(0.,0.,-1.));
#476=DIRECTION('ref_axis',(1.,0.,0.));
#477=DIRECTION('',(0.,0.,-1.));
#478=DIRECTION('center_axis',(0.,0.,1.));
#479=DIRECTION('ref_axis',(1.,0.,0.));
#480=DIRECTION('center_axis',(0.,0.,-1.));
#481=DIRECTION('ref_axis',(1.,0.,0.));
#482=DIRECTION('',(0.,0.,-1.));
#483=DIRECTION('center_axis',(0.,0.,1.));
#484=DIRECTION('ref_axis',(1.,0.,0.));
#485=DIRECTION('center_axis',(0.,0.,-1.));
#486=DIRECTION('ref_axis',(1.,0.,0.));
#487=DIRECTION('',(0.,0.,-1.));
#488=DIRECTION('center_axis',(0.,0.,1.));
#489=DIRECTION('ref_axis',(1.,0.,0.));
#490=DIRECTION('center_axis',(0.,0.,-1.));
#491=DIRECTION('ref_axis',(1.,0.,0.));
#492=DIRECTION('',(0.,0.,-1.));
#493=DIRECTION('center_axis',(0.,0.,1.));
#494=DIRECTION('ref_axis',(1.,0.,0.));
#495=DIRECTION('center_axis',(0.,0.,-1.));
#496=DIRECTION('ref_axis',(1.,0.,0.));
#497=DIRECTION('',(0.,0.,-1.));
#498=DIRECTION('center_axis',(0.,0.,1.));
#499=DIRECTION('ref_axis',(1.,0.,0.));
#500=DIRECTION('center_axis',(0.,0.,-1.));
#501=DIRECTION('ref_axis',(1.,0.,0.));
#502=DIRECTION('',(0.,0.,-1.));
#503=DIRECTION('center_axis',(0.,0.,1.));
#504=DIRECTION('ref_axis',(1.,0.,0.));
#505=DIRECTION('center_axis',(0.,0.,-1.));
#506=DIRECTION('ref_axis',(1.,0.,0.));
#507=DIRECTION('',(0.,0.,-1.));
#508=DIRECTION('center_axis',(0.,-1.,0.));
#509=DIRECTION('ref_axis',(1.,0.,0.));
#510=DIRECTION('',(1.,0.,0.));
#511=DIRECTION('',(0.,0.,1.));
#512=DIRECTION('center_axis',(-1.,0.,0.));
#513=DIRECTION('ref_axis',(0.,-1.,0.));
#514=DIRECTION('',(0.,-1.,0.));
#515=DIRECTION('',(0.,0.,1.));
#516=DIRECTION('center_axis',(0.,1.,0.));
#517=DIRECTION('ref_axis',(-1.,0.,0.));
#518=DIRECTION('',(-1.,0.,0.));
#519=DIRECTION('',(0.,0.,1.));
#520=DIRECTION('center_axis',(1.,0.,0.));
#521=DIRECTION('ref_axis',(0.,1.,0.));
#522=DIRECTION('',(0.,1.,0.));
#523=DIRECTION('center_axis',(0.,0.,1.));
#524=DIRECTION('ref_axis',(1.,0.,0.));
#525=CARTESIAN_POINT('',(0.,0.,0.));
#526=CARTESIAN_POINT('Origin',(0.,9.75000014528632,45.));
#527=CARTESIAN_POINT('',(-11.0000001639128,30.5000004544854,45.));
#528=CARTESIAN_POINT('',(19.0000002831221,30.5000004544854,45.));
#529=CARTESIAN_POINT('',(-5.50000008195639,30.5000004544854,45.));
#530=CARTESIAN_POINT('',(-11.0000001639128,-11.0000001639128,45.));
#531=CARTESIAN_POINT('',(-11.0000001639128,-0.625000009313226,45.));
#532=CARTESIAN_POINT('',(19.0000002831221,-11.0000001639128,45.));
#533=CARTESIAN_POINT('',(9.50000014156103,-11.0000001639128,45.));
#534=CARTESIAN_POINT('',(19.0000002831221,-17.5000002607703,45.));
#535=CARTESIAN_POINT('',(19.0000002831221,-3.875000057742,45.));
#536=CARTESIAN_POINT('',(-19.0000002831221,-17.5000002607703,45.));
#537=CARTESIAN_POINT('',(-9.50000014156103,-17.5000002607703,45.));
#538=CARTESIAN_POINT('',(-19.0000002831221,37.000000551343,45.));
#539=CARTESIAN_POINT('',(-19.0000002831221,23.3750003483146,45.));
#540=CARTESIAN_POINT('',(19.0000002831221,37.000000551343,45.));
#541=CARTESIAN_POINT('',(9.50000014156103,37.000000551343,45.));
#542=CARTESIAN_POINT('',(19.0000002831221,20.1250002998859,45.));
#543=CARTESIAN_POINT('',(12.8499996647239,-14.1999996826053,45.));
#544=CARTESIAN_POINT('Origin',(14.9999996647239,-14.1999996826053,45.));
#545=CARTESIAN_POINT('',(3.04999988824129,33.7999992445111,45.));
#546=CARTESIAN_POINT('Origin',(4.99999988824129,33.7999992445111,45.));
#547=CARTESIAN_POINT('',(-17.1499996647239,-14.1999996826053,45.));
#548=CARTESIAN_POINT('Origin',(-14.9999996647239,-14.1999996826053,45.));
#549=CARTESIAN_POINT('',(-17.1499996647239,33.7999992445111,45.));
#550=CARTESIAN_POINT('Origin',(-14.9999996647239,33.7999992445111,45.));
#551=CARTESIAN_POINT('',(3.04999988824129,-14.1999996826053,45.));
#552=CARTESIAN_POINT('Origin',(4.99999988824129,-14.1999996826053,45.));
#553=CARTESIAN_POINT('',(12.8499996647239,33.7999992445111,45.));
#554=CARTESIAN_POINT('Origin',(14.9999996647239,33.7999992445111,45.));
#555=CARTESIAN_POINT('',(-6.94999988824129,33.7999992445111,45.));
#556=CARTESIAN_POINT('Origin',(-4.99999988824129,33.7999992445111,45.));
#557=CARTESIAN_POINT('',(-6.94999988824129,-14.1999996826053,45.));
#558=CARTESIAN_POINT('Origin',(-4.99999988824129,-14.1999996826053,45.));
#559=CARTESIAN_POINT('Origin',(19.0000002831221,-17.5000002607703,0.));
#560=CARTESIAN_POINT('',(19.0000002831221,-11.0000001639128,55.));
#561=CARTESIAN_POINT('',(19.0000002831221,-11.0000001639128,0.));
#562=CARTESIAN_POINT('',(19.0000002831221,-17.5000002607703,55.));
#563=CARTESIAN_POINT('',(19.0000002831221,-11.0000001639128,55.));
#564=CARTESIAN_POINT('',(19.0000002831221,-17.5000002607703,0.));
#565=CARTESIAN_POINT('Origin',(19.0000002831221,-11.0000001639128,0.));
#566=CARTESIAN_POINT('',(-11.0000001639128,-11.0000001639128,55.));
#567=CARTESIAN_POINT('',(-11.0000001639128,-11.0000001639128,0.));
#568=CARTESIAN_POINT('',(-11.0000001639128,-11.0000001639128,55.));
#569=CARTESIAN_POINT('Origin',(-11.0000001639128,-11.0000001639128,0.));
#570=CARTESIAN_POINT('',(-11.0000001639128,30.5000004544854,55.));
#571=CARTESIAN_POINT('',(-11.0000001639128,30.5000004544854,0.));
#572=CARTESIAN_POINT('',(-11.0000001639128,30.5000004544854,55.));
#573=CARTESIAN_POINT('Origin',(-11.0000001639128,30.5000004544854,0.));
#574=CARTESIAN_POINT('',(19.0000002831221,30.5000004544854,55.));
#575=CARTESIAN_POINT('',(19.0000002831221,30.5000004544854,0.));
#576=CARTESIAN_POINT('',(-11.0000001639128,30.5000004544854,55.));
#577=CARTESIAN_POINT('Origin',(-4.99999988824129,-14.1999996826053,0.));
#578=CARTESIAN_POINT('',(-6.94999988824129,-14.1999996826053,55.));
#579=CARTESIAN_POINT('Origin',(-4.99999988824129,-14.1999996826053,55.));
#580=CARTESIAN_POINT('',(-6.94999988824129,-14.1999996826053,0.));
#581=CARTESIAN_POINT('Origin',(-4.99999988824129,33.7999992445111,0.));
#582=CARTESIAN_POINT('',(-6.94999988824129,33.7999992445111,55.));
#583=CARTESIAN_POINT('Origin',(-4.99999988824129,33.7999992445111,55.));
#584=CARTESIAN_POINT('',(-6.94999988824129,33.7999992445111,0.));
#585=CARTESIAN_POINT('Origin',(14.9999996647239,33.7999992445111,0.));
#586=CARTESIAN_POINT('',(12.8499996647239,33.7999992445111,55.));
#587=CARTESIAN_POINT('Origin',(14.9999996647239,33.7999992445111,55.));
#588=CARTESIAN_POINT('',(12.8499996647239,33.7999992445111,0.));
#589=CARTESIAN_POINT('Origin',(4.99999988824129,-14.1999996826053,0.));
#590=CARTESIAN_POINT('',(3.04999988824129,-14.1999996826053,55.));
#591=CARTESIAN_POINT('Origin',(4.99999988824129,-14.1999996826053,55.));
#592=CARTESIAN_POINT('',(3.04999988824129,-14.1999996826053,0.));
#593=CARTESIAN_POINT('Origin',(-14.9999996647239,33.7999992445111,0.));
#594=CARTESIAN_POINT('',(-17.1499996647239,33.7999992445111,55.));
#595=CARTESIAN_POINT('Origin',(-14.9999996647239,33.7999992445111,55.));
#596=CARTESIAN_POINT('',(-17.1499996647239,33.7999992445111,0.));
#597=CARTESIAN_POINT('Origin',(-14.9999996647239,-14.1999996826053,0.));
#598=CARTESIAN_POINT('',(-17.1499996647239,-14.1999996826053,55.));
#599=CARTESIAN_POINT('Origin',(-14.9999996647239,-14.1999996826053,55.));
#600=CARTESIAN_POINT('',(-17.1499996647239,-14.1999996826053,0.));
#601=CARTESIAN_POINT('Origin',(4.99999988824129,33.7999992445111,0.));
#602=CARTESIAN_POINT('',(3.04999988824129,33.7999992445111,55.));
#603=CARTESIAN_POINT('Origin',(4.99999988824129,33.7999992445111,55.));
#604=CARTESIAN_POINT('',(3.04999988824129,33.7999992445111,0.));
#605=CARTESIAN_POINT('Origin',(14.9999996647239,-14.1999996826053,0.));
#606=CARTESIAN_POINT('',(12.8499996647239,-14.1999996826053,55.));
#607=CARTESIAN_POINT('Origin',(14.9999996647239,-14.1999996826053,55.));
#608=CARTESIAN_POINT('',(12.8499996647239,-14.1999996826053,0.));
#609=CARTESIAN_POINT('Origin',(-19.0000002831221,-17.5000002607703,0.));
#610=CARTESIAN_POINT('',(-19.0000002831221,-17.5000002607703,55.));
#611=CARTESIAN_POINT('',(-11.0000001639128,-17.5000002607703,55.));
#612=CARTESIAN_POINT('',(-19.0000002831221,-17.5000002607703,0.));
#613=CARTESIAN_POINT('Origin',(-19.0000002831221,37.000000551343,0.));
#614=CARTESIAN_POINT('',(-19.0000002831221,37.000000551343,55.));
#615=CARTESIAN_POINT('',(-19.0000002831221,-17.5000002607703,55.));
#616=CARTESIAN_POINT('',(-19.0000002831221,37.000000551343,0.));
#617=CARTESIAN_POINT('Origin',(19.0000002831221,37.000000551343,0.));
#618=CARTESIAN_POINT('',(19.0000002831221,37.000000551343,55.));
#619=CARTESIAN_POINT('',(19.0000002831221,37.000000551343,55.));
#620=CARTESIAN_POINT('',(19.0000002831221,37.000000551343,0.));
#621=CARTESIAN_POINT('Origin',(19.0000002831221,30.5000004544854,0.));
#622=CARTESIAN_POINT('',(19.0000002831221,30.5000004544854,55.));
#623=CARTESIAN_POINT('Origin',(0.,9.75000014528632,55.));
#624=UNCERTAINTY_MEASURE_WITH_UNIT(LENGTH_MEASURE(0.01),#628,
'DISTANCE_ACCURACY_VALUE',
'Maximum model space distance between geometric entities at asserted c
onnectivities');
#625=UNCERTAINTY_MEASURE_WITH_UNIT(LENGTH_MEASURE(0.01),#628,
'DISTANCE_ACCURACY_VALUE',
'Maximum model space distance between geometric entities at asserted c
onnectivities');
#626=(
GEOMETRIC_REPRESENTATION_CONTEXT(3)
GLOBAL_UNCERTAINTY_ASSIGNED_CONTEXT((#624))
GLOBAL_UNIT_ASSIGNED_CONTEXT((#628,#630,#631))
REPRESENTATION_CONTEXT('','3D')
);
#627=(
GEOMETRIC_REPRESENTATION_CONTEXT(3)
GLOBAL_UNCERTAINTY_ASSIGNED_CONTEXT((#625))
GLOBAL_UNIT_ASSIGNED_CONTEXT((#628,#630,#631))
REPRESENTATION_CONTEXT('','3D')
);
#628=(
LENGTH_UNIT()
NAMED_UNIT(*)
SI_UNIT(.MILLI.,.METRE.)
);
#629=(
LENGTH_UNIT()
NAMED_UNIT(*)
SI_UNIT($,.METRE.)
);
#630=(
NAMED_UNIT(*)
PLANE_ANGLE_UNIT()
SI_UNIT($,.RADIAN.)
);
#631=(
NAMED_UNIT(*)
SI_UNIT($,.STERADIAN.)
SOLID_ANGLE_UNIT()
);
#632=SHAPE_DEFINITION_REPRESENTATION(#633,#634);
#633=PRODUCT_DEFINITION_SHAPE('',$,#636);
#634=SHAPE_REPRESENTATION('',(#388),#626);
#635=PRODUCT_DEFINITION_CONTEXT('part definition',#640,'design');
#636=PRODUCT_DEFINITION('2025-08-05-19-03-57-699','base_3 (1)',#637,#635);
#637=PRODUCT_DEFINITION_FORMATION('',$,#642);
#638=PRODUCT_RELATED_PRODUCT_CATEGORY('base_3 (1)','base_3 (1)',(#642));
#639=APPLICATION_PROTOCOL_DEFINITION('international standard',
'automotive_design',2009,#640);
#640=APPLICATION_CONTEXT(
'Core Data for Automotive Mechanical Design Process');
#641=PRODUCT_CONTEXT('part definition',#640,'mechanical');
#642=PRODUCT('2025-08-05-19-03-57-699','base_3 (1)',$,(#641));
#643=PRESENTATION_STYLE_ASSIGNMENT((#645));
#644=PRESENTATION_STYLE_ASSIGNMENT((#646));
#645=SURFACE_STYLE_USAGE(.BOTH.,#647);
#646=SURFACE_STYLE_USAGE(.BOTH.,#648);
#647=SURFACE_SIDE_STYLE('',(#649));
#648=SURFACE_SIDE_STYLE('',(#650));
#649=SURFACE_STYLE_FILL_AREA(#651);
#650=SURFACE_STYLE_FILL_AREA(#652);
#651=FILL_AREA_STYLE('Steel - Satin',(#653));
#652=FILL_AREA_STYLE('Powder Coat - Rough (Black)',(#654));
#653=FILL_AREA_STYLE_COLOUR('Steel - Satin',#655);
#654=FILL_AREA_STYLE_COLOUR('Powder Coat - Rough (Black)',#656);
#655=COLOUR_RGB('Steel - Satin',0.627450980392157,0.627450980392157,0.627450980392157);
#656=COLOUR_RGB('Powder Coat - Rough (Black)',0.0980392156862745,0.0980392156862745,
0.0980392156862745);
ENDSEC;
END-ISO-10303-21;
