ISO-10303-21;
HEADER;
/* Generated by software containing ST-Developer
 * from STEP Tools, Inc. (www.steptools.com) 
 */

FILE_DESCRIPTION(
/* description */ (''),
/* implementation_level */ '2;1');

FILE_NAME(
/* name */ 'base_4.step',
/* time_stamp */ '2025-07-29T20:57:46+01:00',
/* author */ (''),
/* organization */ (''),
/* preprocessor_version */ 'ST-DEVELOPER v20.1',
/* originating_system */ 'Autodesk Translation Framework v14.10.0.0',
/* authorisation */ '');

FILE_SCHEMA (('AUTOMOTIVE_DESIGN { 1 0 10303 214 3 1 1 }'));
ENDSEC;

DATA;
#10=MECHANICAL_DESIGN_GEOMETRIC_PRESENTATION_REPRESENTATION('',(#13),#1340);
#11=SHAPE_REPRESENTATION_RELATIONSHIP('SRR','None',#1347,#12);
#12=ADVANCED_BREP_SHAPE_REPRESENTATION('',(#14),#1339);
#13=STYLED_ITEM('',(#1357),#14);
#14=MANIFOLD_SOLID_BREP('Body1',#781);
#15=CYLINDRICAL_SURFACE('',#806,37.000000551343);
#16=CYLINDRICAL_SURFACE('',#813,13.0000001937151);
#17=CYLINDRICAL_SURFACE('',#818,13.0000001937151);
#18=CYLINDRICAL_SURFACE('',#821,1.05);
#19=CYLINDRICAL_SURFACE('',#823,17.0000002533197);
#20=CYLINDRICAL_SURFACE('',#829,17.0000002533197);
#21=CYLINDRICAL_SURFACE('',#834,13.0000001937151);
#22=CYLINDRICAL_SURFACE('',#838,1.05);
#23=CYLINDRICAL_SURFACE('',#849,1.05);
#24=CYLINDRICAL_SURFACE('',#851,1.05);
#25=CYLINDRICAL_SURFACE('',#856,1.05);
#26=CYLINDRICAL_SURFACE('',#858,1.05);
#27=CYLINDRICAL_SURFACE('',#860,37.000000551343);
#28=FACE_BOUND('',#254,.T.);
#29=FACE_BOUND('',#280,.T.);
#30=FACE_BOUND('',#281,.T.);
#31=FACE_BOUND('',#282,.T.);
#32=FACE_BOUND('',#284,.T.);
#33=FACE_BOUND('',#285,.T.);
#34=FACE_BOUND('',#286,.T.);
#35=FACE_BOUND('',#287,.T.);
#36=FACE_BOUND('',#288,.T.);
#37=FACE_BOUND('',#293,.T.);
#38=FACE_BOUND('',#294,.T.);
#39=FACE_BOUND('',#301,.T.);
#40=FACE_BOUND('',#302,.T.);
#41=LINE('',#1109,#116);
#42=LINE('',#1111,#117);
#43=LINE('',#1113,#118);
#44=LINE('',#1115,#119);
#45=LINE('',#1117,#120);
#46=LINE('',#1121,#121);
#47=LINE('',#1123,#122);
#48=LINE('',#1125,#123);
#49=LINE('',#1129,#124);
#50=LINE('',#1131,#125);
#51=LINE('',#1133,#126);
#52=LINE('',#1135,#127);
#53=LINE('',#1137,#128);
#54=LINE('',#1141,#129);
#55=LINE('',#1144,#130);
#56=LINE('',#1173,#131);
#57=LINE('',#1177,#132);
#58=LINE('',#1180,#133);
#59=LINE('',#1183,#134);
#60=LINE('',#1185,#135);
#61=LINE('',#1186,#136);
#62=LINE('',#1189,#137);
#63=LINE('',#1190,#138);
#64=LINE('',#1193,#139);
#65=LINE('',#1194,#140);
#66=LINE('',#1197,#141);
#67=LINE('',#1198,#142);
#68=LINE('',#1201,#143);
#69=LINE('',#1205,#144);
#70=LINE('',#1206,#145);
#71=LINE('',#1209,#146);
#72=LINE('',#1210,#147);
#73=LINE('',#1213,#148);
#74=LINE('',#1214,#149);
#75=LINE('',#1217,#150);
#76=LINE('',#1221,#151);
#77=LINE('',#1222,#152);
#78=LINE('',#1226,#153);
#79=LINE('',#1229,#154);
#80=LINE('',#1232,#155);
#81=LINE('',#1235,#156);
#82=LINE('',#1237,#157);
#83=LINE('',#1238,#158);
#84=LINE('',#1241,#159);
#85=LINE('',#1242,#160);
#86=LINE('',#1244,#161);
#87=LINE('',#1247,#162);
#88=LINE('',#1249,#163);
#89=LINE('',#1250,#164);
#90=LINE('',#1257,#165);
#91=LINE('',#1261,#166);
#92=LINE('',#1262,#167);
#93=LINE('',#1263,#168);
#94=LINE('',#1269,#169);
#95=LINE('',#1272,#170);
#96=LINE('',#1274,#171);
#97=LINE('',#1275,#172);
#98=LINE('',#1280,#173);
#99=LINE('',#1284,#174);
#100=LINE('',#1285,#175);
#101=LINE('',#1286,#176);
#102=LINE('',#1292,#177);
#103=LINE('',#1294,#178);
#104=LINE('',#1295,#179);
#105=LINE('',#1307,#180);
#106=LINE('',#1311,#181);
#107=LINE('',#1314,#182);
#108=LINE('',#1315,#183);
#109=LINE('',#1317,#184);
#110=LINE('',#1320,#185);
#111=LINE('',#1321,#186);
#112=LINE('',#1325,#187);
#113=LINE('',#1329,#188);
#114=LINE('',#1333,#189);
#115=LINE('',#1335,#190);
#116=VECTOR('',#874,10.);
#117=VECTOR('',#875,10.);
#118=VECTOR('',#876,10.);
#119=VECTOR('',#877,10.);
#120=VECTOR('',#878,10.);
#121=VECTOR('',#881,10.);
#122=VECTOR('',#882,10.);
#123=VECTOR('',#883,10.);
#124=VECTOR('',#886,10.);
#125=VECTOR('',#887,10.);
#126=VECTOR('',#888,10.);
#127=VECTOR('',#889,10.);
#128=VECTOR('',#890,10.);
#129=VECTOR('',#893,10.);
#130=VECTOR('',#896,10.);
#131=VECTOR('',#905,10.);
#132=VECTOR('',#908,10.);
#133=VECTOR('',#911,10.);
#134=VECTOR('',#914,10.);
#135=VECTOR('',#915,10.);
#136=VECTOR('',#916,10.);
#137=VECTOR('',#919,10.);
#138=VECTOR('',#920,10.);
#139=VECTOR('',#923,10.);
#140=VECTOR('',#924,10.);
#141=VECTOR('',#927,10.);
#142=VECTOR('',#928,10.);
#143=VECTOR('',#931,10.);
#144=VECTOR('',#936,10.);
#145=VECTOR('',#937,10.);
#146=VECTOR('',#940,10.);
#147=VECTOR('',#941,10.);
#148=VECTOR('',#944,10.);
#149=VECTOR('',#945,10.);
#150=VECTOR('',#948,10.);
#151=VECTOR('',#953,10.);
#152=VECTOR('',#954,10.);
#153=VECTOR('',#959,1.05);
#154=VECTOR('',#962,10.);
#155=VECTOR('',#965,10.);
#156=VECTOR('',#968,10.);
#157=VECTOR('',#969,10.);
#158=VECTOR('',#970,10.);
#159=VECTOR('',#973,10.);
#160=VECTOR('',#974,10.);
#161=VECTOR('',#977,10.);
#162=VECTOR('',#980,10.);
#163=VECTOR('',#981,10.);
#164=VECTOR('',#982,10.);
#165=VECTOR('',#989,10.);
#166=VECTOR('',#994,10.);
#167=VECTOR('',#995,10.);
#168=VECTOR('',#996,10.);
#169=VECTOR('',#1001,10.);
#170=VECTOR('',#1004,10.);
#171=VECTOR('',#1007,10.);
#172=VECTOR('',#1008,10.);
#173=VECTOR('',#1013,1.05);
#174=VECTOR('',#1018,10.);
#175=VECTOR('',#1019,10.);
#176=VECTOR('',#1020,10.);
#177=VECTOR('',#1027,10.);
#178=VECTOR('',#1028,10.);
#179=VECTOR('',#1029,10.);
#180=VECTOR('',#1042,1.05);
#181=VECTOR('',#1047,1.05);
#182=VECTOR('',#1050,10.);
#183=VECTOR('',#1051,10.);
#184=VECTOR('',#1054,10.);
#185=VECTOR('',#1057,10.);
#186=VECTOR('',#1058,10.);
#187=VECTOR('',#1063,1.05);
#188=VECTOR('',#1068,1.05);
#189=VECTOR('',#1073,10.);
#190=VECTOR('',#1076,10.);
#191=PLANE('',#798);
#192=PLANE('',#809);
#193=PLANE('',#810);
#194=PLANE('',#811);
#195=PLANE('',#812);
#196=PLANE('',#815);
#197=PLANE('',#816);
#198=PLANE('',#817);
#199=PLANE('',#820);
#200=PLANE('',#825);
#201=PLANE('',#826);
#202=PLANE('',#827);
#203=PLANE('',#828);
#204=PLANE('',#833);
#205=PLANE('',#837);
#206=PLANE('',#841);
#207=PLANE('',#842);
#208=PLANE('',#843);
#209=PLANE('',#853);
#210=PLANE('',#854);
#211=PLANE('',#855);
#212=PLANE('',#862);
#213=PLANE('',#863);
#214=FACE_OUTER_BOUND('',#252,.T.);
#215=FACE_OUTER_BOUND('',#253,.T.);
#216=FACE_OUTER_BOUND('',#255,.T.);
#217=FACE_OUTER_BOUND('',#256,.T.);
#218=FACE_OUTER_BOUND('',#257,.T.);
#219=FACE_OUTER_BOUND('',#258,.T.);
#220=FACE_OUTER_BOUND('',#259,.T.);
#221=FACE_OUTER_BOUND('',#260,.T.);
#222=FACE_OUTER_BOUND('',#261,.T.);
#223=FACE_OUTER_BOUND('',#262,.T.);
#224=FACE_OUTER_BOUND('',#263,.T.);
#225=FACE_OUTER_BOUND('',#264,.T.);
#226=FACE_OUTER_BOUND('',#265,.T.);
#227=FACE_OUTER_BOUND('',#266,.T.);
#228=FACE_OUTER_BOUND('',#267,.T.);
#229=FACE_OUTER_BOUND('',#268,.T.);
#230=FACE_OUTER_BOUND('',#269,.T.);
#231=FACE_OUTER_BOUND('',#270,.T.);
#232=FACE_OUTER_BOUND('',#271,.T.);
#233=FACE_OUTER_BOUND('',#272,.T.);
#234=FACE_OUTER_BOUND('',#273,.T.);
#235=FACE_OUTER_BOUND('',#274,.T.);
#236=FACE_OUTER_BOUND('',#275,.T.);
#237=FACE_OUTER_BOUND('',#276,.T.);
#238=FACE_OUTER_BOUND('',#277,.T.);
#239=FACE_OUTER_BOUND('',#278,.T.);
#240=FACE_OUTER_BOUND('',#279,.T.);
#241=FACE_OUTER_BOUND('',#283,.T.);
#242=FACE_OUTER_BOUND('',#289,.T.);
#243=FACE_OUTER_BOUND('',#290,.T.);
#244=FACE_OUTER_BOUND('',#291,.T.);
#245=FACE_OUTER_BOUND('',#292,.T.);
#246=FACE_OUTER_BOUND('',#295,.T.);
#247=FACE_OUTER_BOUND('',#296,.T.);
#248=FACE_OUTER_BOUND('',#297,.T.);
#249=FACE_OUTER_BOUND('',#298,.T.);
#250=FACE_OUTER_BOUND('',#299,.T.);
#251=FACE_OUTER_BOUND('',#300,.T.);
#252=EDGE_LOOP('',(#521,#522,#523,#524));
#253=EDGE_LOOP('',(#525,#526,#527,#528,#529,#530,#531,#532,#533,#534,#535,
#536,#537,#538,#539,#540,#541,#542,#543,#544));
#254=EDGE_LOOP('',(#545));
#255=EDGE_LOOP('',(#546,#547,#548,#549));
#256=EDGE_LOOP('',(#550,#551,#552,#553,#554,#555));
#257=EDGE_LOOP('',(#556,#557,#558,#559));
#258=EDGE_LOOP('',(#560,#561,#562,#563));
#259=EDGE_LOOP('',(#564,#565,#566,#567));
#260=EDGE_LOOP('',(#568,#569,#570,#571));
#261=EDGE_LOOP('',(#572,#573,#574,#575));
#262=EDGE_LOOP('',(#576,#577,#578,#579));
#263=EDGE_LOOP('',(#580,#581,#582,#583));
#264=EDGE_LOOP('',(#584,#585,#586,#587));
#265=EDGE_LOOP('',(#588,#589,#590,#591));
#266=EDGE_LOOP('',(#592,#593,#594,#595));
#267=EDGE_LOOP('',(#596,#597,#598,#599));
#268=EDGE_LOOP('',(#600,#601,#602,#603));
#269=EDGE_LOOP('',(#604,#605,#606,#607));
#270=EDGE_LOOP('',(#608,#609,#610,#611));
#271=EDGE_LOOP('',(#612,#613,#614,#615));
#272=EDGE_LOOP('',(#616,#617,#618,#619,#620,#621,#622));
#273=EDGE_LOOP('',(#623,#624,#625,#626,#627));
#274=EDGE_LOOP('',(#628,#629,#630,#631,#632,#633,#634));
#275=EDGE_LOOP('',(#635,#636,#637,#638));
#276=EDGE_LOOP('',(#639,#640,#641,#642,#643,#644,#645));
#277=EDGE_LOOP('',(#646,#647,#648,#649));
#278=EDGE_LOOP('',(#650,#651,#652,#653,#654,#655,#656));
#279=EDGE_LOOP('',(#657,#658,#659,#660));
#280=EDGE_LOOP('',(#661));
#281=EDGE_LOOP('',(#662));
#282=EDGE_LOOP('',(#663,#664,#665,#666,#667,#668,#669,#670,#671,#672,#673,
#674,#675,#676,#677,#678));
#283=EDGE_LOOP('',(#679,#680,#681,#682,#683,#684,#685,#686));
#284=EDGE_LOOP('',(#687));
#285=EDGE_LOOP('',(#688));
#286=EDGE_LOOP('',(#689));
#287=EDGE_LOOP('',(#690));
#288=EDGE_LOOP('',(#691));
#289=EDGE_LOOP('',(#692,#693,#694,#695));
#290=EDGE_LOOP('',(#696,#697,#698,#699));
#291=EDGE_LOOP('',(#700,#701,#702,#703));
#292=EDGE_LOOP('',(#704,#705,#706,#707,#708));
#293=EDGE_LOOP('',(#709));
#294=EDGE_LOOP('',(#710));
#295=EDGE_LOOP('',(#711,#712,#713,#714,#715));
#296=EDGE_LOOP('',(#716,#717,#718,#719));
#297=EDGE_LOOP('',(#720,#721,#722,#723));
#298=EDGE_LOOP('',(#724,#725,#726,#727,#728,#729));
#299=EDGE_LOOP('',(#730,#731,#732,#733));
#300=EDGE_LOOP('',(#734,#735,#736,#737,#738));
#301=EDGE_LOOP('',(#739));
#302=EDGE_LOOP('',(#740));
#303=CIRCLE('',#796,34.000000551343);
#304=CIRCLE('',#797,37.000000551343);
#305=CIRCLE('',#799,13.0000001937151);
#306=CIRCLE('',#800,13.0000001937151);
#307=CIRCLE('',#801,34.000000551343);
#308=CIRCLE('',#802,17.0000002533197);
#309=CIRCLE('',#803,1.05);
#310=CIRCLE('',#805,37.000000551343);
#311=CIRCLE('',#807,37.000000551343);
#312=CIRCLE('',#808,37.000000551343);
#313=CIRCLE('',#814,13.0000001937151);
#314=CIRCLE('',#819,13.0000001937151);
#315=CIRCLE('',#822,1.05);
#316=CIRCLE('',#824,17.0000002533197);
#317=CIRCLE('',#830,17.0000002533197);
#318=CIRCLE('',#831,17.0000002533197);
#319=CIRCLE('',#832,17.0000002533197);
#320=CIRCLE('',#835,13.0000001937151);
#321=CIRCLE('',#836,13.0000001937151);
#322=CIRCLE('',#839,1.05);
#323=CIRCLE('',#840,1.05);
#324=CIRCLE('',#844,37.000000551343);
#325=CIRCLE('',#845,1.05);
#326=CIRCLE('',#846,1.05);
#327=CIRCLE('',#847,1.05);
#328=CIRCLE('',#848,1.05);
#329=CIRCLE('',#850,1.05);
#330=CIRCLE('',#852,1.05);
#331=CIRCLE('',#857,1.05);
#332=CIRCLE('',#859,1.05);
#333=CIRCLE('',#861,37.000000551343);
#334=B_SPLINE_CURVE_WITH_KNOTS('',3,(#1083,#1084,#1085,#1086,#1087,#1088,
#1089,#1090,#1091,#1092),.UNSPECIFIED.,.F.,.F.,(4,2,2,2,4),(0.,0.108603845761101,
0.220963074926168,0.338467204179736,0.461279525254071),.UNSPECIFIED.);
#335=B_SPLINE_CURVE_WITH_KNOTS('',3,(#1096,#1097,#1098,#1099,#1100,#1101,
#1102,#1103,#1104,#1105),.UNSPECIFIED.,.F.,.F.,(4,2,2,2,4),(1.44233340831635,
1.57557913542505,1.69852468921657,1.81191913330847,1.91854307224516),
 .UNSPECIFIED.);
#336=B_SPLINE_CURVE_WITH_KNOTS('',3,(#1149,#1150,#1151,#1152,#1153,#1154,
#1155,#1156,#1157,#1158),.UNSPECIFIED.,.F.,.F.,(4,2,2,2,4),(1.39025797127368,
1.51307029234801,1.63057442160158,1.74293365076665,1.85153749652775),
 .UNSPECIFIED.);
#337=B_SPLINE_CURVE_WITH_KNOTS('',3,(#1161,#1162,#1163,#1164,#1165,#1166,
#1167,#1168,#1169,#1170),.UNSPECIFIED.,.F.,.F.,(4,2,2,2,4),(0.,0.106623938936692,
0.220018383028589,0.342963936820112,0.476209663928808),.UNSPECIFIED.);
#338=VERTEX_POINT('',#1081);
#339=VERTEX_POINT('',#1082);
#340=VERTEX_POINT('',#1093);
#341=VERTEX_POINT('',#1095);
#342=VERTEX_POINT('',#1108);
#343=VERTEX_POINT('',#1110);
#344=VERTEX_POINT('',#1112);
#345=VERTEX_POINT('',#1114);
#346=VERTEX_POINT('',#1116);
#347=VERTEX_POINT('',#1118);
#348=VERTEX_POINT('',#1120);
#349=VERTEX_POINT('',#1122);
#350=VERTEX_POINT('',#1124);
#351=VERTEX_POINT('',#1126);
#352=VERTEX_POINT('',#1128);
#353=VERTEX_POINT('',#1130);
#354=VERTEX_POINT('',#1132);
#355=VERTEX_POINT('',#1134);
#356=VERTEX_POINT('',#1136);
#357=VERTEX_POINT('',#1138);
#358=VERTEX_POINT('',#1140);
#359=VERTEX_POINT('',#1142);
#360=VERTEX_POINT('',#1145);
#361=VERTEX_POINT('',#1148);
#362=VERTEX_POINT('',#1159);
#363=VERTEX_POINT('',#1172);
#364=VERTEX_POINT('',#1174);
#365=VERTEX_POINT('',#1176);
#366=VERTEX_POINT('',#1178);
#367=VERTEX_POINT('',#1182);
#368=VERTEX_POINT('',#1184);
#369=VERTEX_POINT('',#1188);
#370=VERTEX_POINT('',#1192);
#371=VERTEX_POINT('',#1196);
#372=VERTEX_POINT('',#1200);
#373=VERTEX_POINT('',#1204);
#374=VERTEX_POINT('',#1208);
#375=VERTEX_POINT('',#1212);
#376=VERTEX_POINT('',#1216);
#377=VERTEX_POINT('',#1220);
#378=VERTEX_POINT('',#1224);
#379=VERTEX_POINT('',#1228);
#380=VERTEX_POINT('',#1230);
#381=VERTEX_POINT('',#1234);
#382=VERTEX_POINT('',#1236);
#383=VERTEX_POINT('',#1240);
#384=VERTEX_POINT('',#1246);
#385=VERTEX_POINT('',#1248);
#386=VERTEX_POINT('',#1252);
#387=VERTEX_POINT('',#1254);
#388=VERTEX_POINT('',#1256);
#389=VERTEX_POINT('',#1260);
#390=VERTEX_POINT('',#1265);
#391=VERTEX_POINT('',#1266);
#392=VERTEX_POINT('',#1268);
#393=VERTEX_POINT('',#1270);
#394=VERTEX_POINT('',#1277);
#395=VERTEX_POINT('',#1279);
#396=VERTEX_POINT('',#1283);
#397=VERTEX_POINT('',#1289);
#398=VERTEX_POINT('',#1291);
#399=VERTEX_POINT('',#1293);
#400=VERTEX_POINT('',#1296);
#401=VERTEX_POINT('',#1298);
#402=VERTEX_POINT('',#1300);
#403=VERTEX_POINT('',#1302);
#404=VERTEX_POINT('',#1305);
#405=VERTEX_POINT('',#1309);
#406=VERTEX_POINT('',#1313);
#407=VERTEX_POINT('',#1319);
#408=VERTEX_POINT('',#1323);
#409=VERTEX_POINT('',#1327);
#410=VERTEX_POINT('',#1331);
#411=EDGE_CURVE('',#338,#339,#334,.T.);
#412=EDGE_CURVE('',#339,#340,#303,.T.);
#413=EDGE_CURVE('',#340,#341,#335,.T.);
#414=EDGE_CURVE('',#341,#338,#304,.T.);
#415=EDGE_CURVE('',#342,#339,#41,.T.);
#416=EDGE_CURVE('',#343,#342,#42,.T.);
#417=EDGE_CURVE('',#344,#343,#43,.T.);
#418=EDGE_CURVE('',#345,#344,#44,.T.);
#419=EDGE_CURVE('',#346,#345,#45,.T.);
#420=EDGE_CURVE('',#347,#346,#305,.T.);
#421=EDGE_CURVE('',#348,#347,#46,.T.);
#422=EDGE_CURVE('',#349,#348,#47,.T.);
#423=EDGE_CURVE('',#350,#349,#48,.T.);
#424=EDGE_CURVE('',#351,#350,#306,.T.);
#425=EDGE_CURVE('',#352,#351,#49,.T.);
#426=EDGE_CURVE('',#353,#352,#50,.T.);
#427=EDGE_CURVE('',#354,#353,#51,.T.);
#428=EDGE_CURVE('',#355,#354,#52,.T.);
#429=EDGE_CURVE('',#356,#355,#53,.T.);
#430=EDGE_CURVE('',#357,#356,#307,.T.);
#431=EDGE_CURVE('',#358,#357,#54,.T.);
#432=EDGE_CURVE('',#359,#358,#308,.T.);
#433=EDGE_CURVE('',#340,#359,#55,.T.);
#434=EDGE_CURVE('',#360,#360,#309,.T.);
#435=EDGE_CURVE('',#356,#361,#336,.T.);
#436=EDGE_CURVE('',#361,#362,#310,.T.);
#437=EDGE_CURVE('',#362,#357,#337,.T.);
#438=EDGE_CURVE('',#363,#361,#56,.T.);
#439=EDGE_CURVE('',#363,#364,#311,.T.);
#440=EDGE_CURVE('',#364,#365,#57,.T.);
#441=EDGE_CURVE('',#366,#365,#312,.T.);
#442=EDGE_CURVE('',#366,#362,#58,.T.);
#443=EDGE_CURVE('',#354,#367,#59,.T.);
#444=EDGE_CURVE('',#368,#367,#60,.T.);
#445=EDGE_CURVE('',#355,#368,#61,.T.);
#446=EDGE_CURVE('',#353,#369,#62,.T.);
#447=EDGE_CURVE('',#367,#369,#63,.T.);
#448=EDGE_CURVE('',#352,#370,#64,.T.);
#449=EDGE_CURVE('',#369,#370,#65,.T.);
#450=EDGE_CURVE('',#351,#371,#66,.T.);
#451=EDGE_CURVE('',#370,#371,#67,.T.);
#452=EDGE_CURVE('',#350,#372,#68,.T.);
#453=EDGE_CURVE('',#371,#372,#313,.T.);
#454=EDGE_CURVE('',#349,#373,#69,.T.);
#455=EDGE_CURVE('',#372,#373,#70,.T.);
#456=EDGE_CURVE('',#348,#374,#71,.T.);
#457=EDGE_CURVE('',#373,#374,#72,.T.);
#458=EDGE_CURVE('',#347,#375,#73,.T.);
#459=EDGE_CURVE('',#374,#375,#74,.T.);
#460=EDGE_CURVE('',#346,#376,#75,.T.);
#461=EDGE_CURVE('',#375,#376,#314,.T.);
#462=EDGE_CURVE('',#345,#377,#76,.T.);
#463=EDGE_CURVE('',#376,#377,#77,.T.);
#464=EDGE_CURVE('',#378,#378,#315,.T.);
#465=EDGE_CURVE('',#378,#360,#78,.T.);
#466=EDGE_CURVE('',#358,#379,#79,.T.);
#467=EDGE_CURVE('',#380,#379,#316,.T.);
#468=EDGE_CURVE('',#359,#380,#80,.T.);
#469=EDGE_CURVE('',#342,#381,#81,.T.);
#470=EDGE_CURVE('',#382,#381,#82,.T.);
#471=EDGE_CURVE('',#343,#382,#83,.T.);
#472=EDGE_CURVE('',#383,#382,#84,.T.);
#473=EDGE_CURVE('',#344,#383,#85,.T.);
#474=EDGE_CURVE('',#377,#383,#86,.T.);
#475=EDGE_CURVE('',#384,#366,#87,.T.);
#476=EDGE_CURVE('',#384,#385,#88,.T.);
#477=EDGE_CURVE('',#379,#385,#89,.T.);
#478=EDGE_CURVE('',#386,#384,#317,.T.);
#479=EDGE_CURVE('',#387,#386,#318,.T.);
#480=EDGE_CURVE('',#387,#388,#90,.T.);
#481=EDGE_CURVE('',#385,#388,#319,.T.);
#482=EDGE_CURVE('',#389,#387,#91,.T.);
#483=EDGE_CURVE('',#389,#341,#92,.T.);
#484=EDGE_CURVE('',#388,#380,#93,.T.);
#485=EDGE_CURVE('',#390,#391,#320,.T.);
#486=EDGE_CURVE('',#391,#392,#94,.T.);
#487=EDGE_CURVE('',#393,#392,#321,.T.);
#488=EDGE_CURVE('',#390,#393,#95,.T.);
#489=EDGE_CURVE('',#391,#363,#96,.T.);
#490=EDGE_CURVE('',#392,#368,#97,.T.);
#491=EDGE_CURVE('',#394,#394,#322,.T.);
#492=EDGE_CURVE('',#394,#395,#98,.T.);
#493=EDGE_CURVE('',#395,#395,#323,.T.);
#494=EDGE_CURVE('',#396,#390,#99,.T.);
#495=EDGE_CURVE('',#381,#393,#100,.T.);
#496=EDGE_CURVE('',#396,#338,#101,.T.);
#497=EDGE_CURVE('',#397,#396,#324,.T.);
#498=EDGE_CURVE('',#398,#397,#102,.T.);
#499=EDGE_CURVE('',#399,#398,#103,.T.);
#500=EDGE_CURVE('',#364,#399,#104,.T.);
#501=EDGE_CURVE('',#400,#400,#325,.T.);
#502=EDGE_CURVE('',#401,#401,#326,.T.);
#503=EDGE_CURVE('',#402,#402,#327,.T.);
#504=EDGE_CURVE('',#403,#403,#328,.T.);
#505=EDGE_CURVE('',#404,#404,#329,.T.);
#506=EDGE_CURVE('',#404,#403,#105,.T.);
#507=EDGE_CURVE('',#405,#405,#330,.T.);
#508=EDGE_CURVE('',#405,#402,#106,.T.);
#509=EDGE_CURVE('',#399,#406,#107,.T.);
#510=EDGE_CURVE('',#365,#406,#108,.T.);
#511=EDGE_CURVE('',#406,#386,#109,.T.);
#512=EDGE_CURVE('',#398,#407,#110,.T.);
#513=EDGE_CURVE('',#386,#407,#111,.T.);
#514=EDGE_CURVE('',#408,#408,#331,.T.);
#515=EDGE_CURVE('',#408,#400,#112,.T.);
#516=EDGE_CURVE('',#409,#409,#332,.T.);
#517=EDGE_CURVE('',#409,#401,#113,.T.);
#518=EDGE_CURVE('',#410,#389,#333,.T.);
#519=EDGE_CURVE('',#397,#410,#114,.T.);
#520=EDGE_CURVE('',#407,#410,#115,.T.);
#521=ORIENTED_EDGE('',*,*,#411,.T.);
#522=ORIENTED_EDGE('',*,*,#412,.T.);
#523=ORIENTED_EDGE('',*,*,#413,.T.);
#524=ORIENTED_EDGE('',*,*,#414,.T.);
#525=ORIENTED_EDGE('',*,*,#412,.F.);
#526=ORIENTED_EDGE('',*,*,#415,.F.);
#527=ORIENTED_EDGE('',*,*,#416,.F.);
#528=ORIENTED_EDGE('',*,*,#417,.F.);
#529=ORIENTED_EDGE('',*,*,#418,.F.);
#530=ORIENTED_EDGE('',*,*,#419,.F.);
#531=ORIENTED_EDGE('',*,*,#420,.F.);
#532=ORIENTED_EDGE('',*,*,#421,.F.);
#533=ORIENTED_EDGE('',*,*,#422,.F.);
#534=ORIENTED_EDGE('',*,*,#423,.F.);
#535=ORIENTED_EDGE('',*,*,#424,.F.);
#536=ORIENTED_EDGE('',*,*,#425,.F.);
#537=ORIENTED_EDGE('',*,*,#426,.F.);
#538=ORIENTED_EDGE('',*,*,#427,.F.);
#539=ORIENTED_EDGE('',*,*,#428,.F.);
#540=ORIENTED_EDGE('',*,*,#429,.F.);
#541=ORIENTED_EDGE('',*,*,#430,.F.);
#542=ORIENTED_EDGE('',*,*,#431,.F.);
#543=ORIENTED_EDGE('',*,*,#432,.F.);
#544=ORIENTED_EDGE('',*,*,#433,.F.);
#545=ORIENTED_EDGE('',*,*,#434,.F.);
#546=ORIENTED_EDGE('',*,*,#435,.T.);
#547=ORIENTED_EDGE('',*,*,#436,.T.);
#548=ORIENTED_EDGE('',*,*,#437,.T.);
#549=ORIENTED_EDGE('',*,*,#430,.T.);
#550=ORIENTED_EDGE('',*,*,#436,.F.);
#551=ORIENTED_EDGE('',*,*,#438,.F.);
#552=ORIENTED_EDGE('',*,*,#439,.T.);
#553=ORIENTED_EDGE('',*,*,#440,.T.);
#554=ORIENTED_EDGE('',*,*,#441,.F.);
#555=ORIENTED_EDGE('',*,*,#442,.T.);
#556=ORIENTED_EDGE('',*,*,#428,.T.);
#557=ORIENTED_EDGE('',*,*,#443,.T.);
#558=ORIENTED_EDGE('',*,*,#444,.F.);
#559=ORIENTED_EDGE('',*,*,#445,.F.);
#560=ORIENTED_EDGE('',*,*,#427,.T.);
#561=ORIENTED_EDGE('',*,*,#446,.T.);
#562=ORIENTED_EDGE('',*,*,#447,.F.);
#563=ORIENTED_EDGE('',*,*,#443,.F.);
#564=ORIENTED_EDGE('',*,*,#426,.T.);
#565=ORIENTED_EDGE('',*,*,#448,.T.);
#566=ORIENTED_EDGE('',*,*,#449,.F.);
#567=ORIENTED_EDGE('',*,*,#446,.F.);
#568=ORIENTED_EDGE('',*,*,#425,.T.);
#569=ORIENTED_EDGE('',*,*,#450,.T.);
#570=ORIENTED_EDGE('',*,*,#451,.F.);
#571=ORIENTED_EDGE('',*,*,#448,.F.);
#572=ORIENTED_EDGE('',*,*,#424,.T.);
#573=ORIENTED_EDGE('',*,*,#452,.T.);
#574=ORIENTED_EDGE('',*,*,#453,.F.);
#575=ORIENTED_EDGE('',*,*,#450,.F.);
#576=ORIENTED_EDGE('',*,*,#423,.T.);
#577=ORIENTED_EDGE('',*,*,#454,.T.);
#578=ORIENTED_EDGE('',*,*,#455,.F.);
#579=ORIENTED_EDGE('',*,*,#452,.F.);
#580=ORIENTED_EDGE('',*,*,#422,.T.);
#581=ORIENTED_EDGE('',*,*,#456,.T.);
#582=ORIENTED_EDGE('',*,*,#457,.F.);
#583=ORIENTED_EDGE('',*,*,#454,.F.);
#584=ORIENTED_EDGE('',*,*,#421,.T.);
#585=ORIENTED_EDGE('',*,*,#458,.T.);
#586=ORIENTED_EDGE('',*,*,#459,.F.);
#587=ORIENTED_EDGE('',*,*,#456,.F.);
#588=ORIENTED_EDGE('',*,*,#420,.T.);
#589=ORIENTED_EDGE('',*,*,#460,.T.);
#590=ORIENTED_EDGE('',*,*,#461,.F.);
#591=ORIENTED_EDGE('',*,*,#458,.F.);
#592=ORIENTED_EDGE('',*,*,#419,.T.);
#593=ORIENTED_EDGE('',*,*,#462,.T.);
#594=ORIENTED_EDGE('',*,*,#463,.F.);
#595=ORIENTED_EDGE('',*,*,#460,.F.);
#596=ORIENTED_EDGE('',*,*,#464,.F.);
#597=ORIENTED_EDGE('',*,*,#465,.T.);
#598=ORIENTED_EDGE('',*,*,#434,.T.);
#599=ORIENTED_EDGE('',*,*,#465,.F.);
#600=ORIENTED_EDGE('',*,*,#432,.T.);
#601=ORIENTED_EDGE('',*,*,#466,.T.);
#602=ORIENTED_EDGE('',*,*,#467,.F.);
#603=ORIENTED_EDGE('',*,*,#468,.F.);
#604=ORIENTED_EDGE('',*,*,#416,.T.);
#605=ORIENTED_EDGE('',*,*,#469,.T.);
#606=ORIENTED_EDGE('',*,*,#470,.F.);
#607=ORIENTED_EDGE('',*,*,#471,.F.);
#608=ORIENTED_EDGE('',*,*,#417,.T.);
#609=ORIENTED_EDGE('',*,*,#471,.T.);
#610=ORIENTED_EDGE('',*,*,#472,.F.);
#611=ORIENTED_EDGE('',*,*,#473,.F.);
#612=ORIENTED_EDGE('',*,*,#418,.T.);
#613=ORIENTED_EDGE('',*,*,#473,.T.);
#614=ORIENTED_EDGE('',*,*,#474,.F.);
#615=ORIENTED_EDGE('',*,*,#462,.F.);
#616=ORIENTED_EDGE('',*,*,#475,.F.);
#617=ORIENTED_EDGE('',*,*,#476,.T.);
#618=ORIENTED_EDGE('',*,*,#477,.F.);
#619=ORIENTED_EDGE('',*,*,#466,.F.);
#620=ORIENTED_EDGE('',*,*,#431,.T.);
#621=ORIENTED_EDGE('',*,*,#437,.F.);
#622=ORIENTED_EDGE('',*,*,#442,.F.);
#623=ORIENTED_EDGE('',*,*,#478,.F.);
#624=ORIENTED_EDGE('',*,*,#479,.F.);
#625=ORIENTED_EDGE('',*,*,#480,.T.);
#626=ORIENTED_EDGE('',*,*,#481,.F.);
#627=ORIENTED_EDGE('',*,*,#476,.F.);
#628=ORIENTED_EDGE('',*,*,#482,.F.);
#629=ORIENTED_EDGE('',*,*,#483,.T.);
#630=ORIENTED_EDGE('',*,*,#413,.F.);
#631=ORIENTED_EDGE('',*,*,#433,.T.);
#632=ORIENTED_EDGE('',*,*,#468,.T.);
#633=ORIENTED_EDGE('',*,*,#484,.F.);
#634=ORIENTED_EDGE('',*,*,#480,.F.);
#635=ORIENTED_EDGE('',*,*,#485,.T.);
#636=ORIENTED_EDGE('',*,*,#486,.T.);
#637=ORIENTED_EDGE('',*,*,#487,.F.);
#638=ORIENTED_EDGE('',*,*,#488,.F.);
#639=ORIENTED_EDGE('',*,*,#489,.T.);
#640=ORIENTED_EDGE('',*,*,#438,.T.);
#641=ORIENTED_EDGE('',*,*,#435,.F.);
#642=ORIENTED_EDGE('',*,*,#429,.T.);
#643=ORIENTED_EDGE('',*,*,#445,.T.);
#644=ORIENTED_EDGE('',*,*,#490,.F.);
#645=ORIENTED_EDGE('',*,*,#486,.F.);
#646=ORIENTED_EDGE('',*,*,#491,.F.);
#647=ORIENTED_EDGE('',*,*,#492,.T.);
#648=ORIENTED_EDGE('',*,*,#493,.T.);
#649=ORIENTED_EDGE('',*,*,#492,.F.);
#650=ORIENTED_EDGE('',*,*,#494,.T.);
#651=ORIENTED_EDGE('',*,*,#488,.T.);
#652=ORIENTED_EDGE('',*,*,#495,.F.);
#653=ORIENTED_EDGE('',*,*,#469,.F.);
#654=ORIENTED_EDGE('',*,*,#415,.T.);
#655=ORIENTED_EDGE('',*,*,#411,.F.);
#656=ORIENTED_EDGE('',*,*,#496,.F.);
#657=ORIENTED_EDGE('',*,*,#477,.T.);
#658=ORIENTED_EDGE('',*,*,#481,.T.);
#659=ORIENTED_EDGE('',*,*,#484,.T.);
#660=ORIENTED_EDGE('',*,*,#467,.T.);
#661=ORIENTED_EDGE('',*,*,#464,.T.);
#662=ORIENTED_EDGE('',*,*,#491,.T.);
#663=ORIENTED_EDGE('',*,*,#490,.T.);
#664=ORIENTED_EDGE('',*,*,#444,.T.);
#665=ORIENTED_EDGE('',*,*,#447,.T.);
#666=ORIENTED_EDGE('',*,*,#449,.T.);
#667=ORIENTED_EDGE('',*,*,#451,.T.);
#668=ORIENTED_EDGE('',*,*,#453,.T.);
#669=ORIENTED_EDGE('',*,*,#455,.T.);
#670=ORIENTED_EDGE('',*,*,#457,.T.);
#671=ORIENTED_EDGE('',*,*,#459,.T.);
#672=ORIENTED_EDGE('',*,*,#461,.T.);
#673=ORIENTED_EDGE('',*,*,#463,.T.);
#674=ORIENTED_EDGE('',*,*,#474,.T.);
#675=ORIENTED_EDGE('',*,*,#472,.T.);
#676=ORIENTED_EDGE('',*,*,#470,.T.);
#677=ORIENTED_EDGE('',*,*,#495,.T.);
#678=ORIENTED_EDGE('',*,*,#487,.T.);
#679=ORIENTED_EDGE('',*,*,#439,.F.);
#680=ORIENTED_EDGE('',*,*,#489,.F.);
#681=ORIENTED_EDGE('',*,*,#485,.F.);
#682=ORIENTED_EDGE('',*,*,#494,.F.);
#683=ORIENTED_EDGE('',*,*,#497,.F.);
#684=ORIENTED_EDGE('',*,*,#498,.F.);
#685=ORIENTED_EDGE('',*,*,#499,.F.);
#686=ORIENTED_EDGE('',*,*,#500,.F.);
#687=ORIENTED_EDGE('',*,*,#501,.F.);
#688=ORIENTED_EDGE('',*,*,#502,.F.);
#689=ORIENTED_EDGE('',*,*,#493,.F.);
#690=ORIENTED_EDGE('',*,*,#503,.F.);
#691=ORIENTED_EDGE('',*,*,#504,.F.);
#692=ORIENTED_EDGE('',*,*,#505,.F.);
#693=ORIENTED_EDGE('',*,*,#506,.T.);
#694=ORIENTED_EDGE('',*,*,#504,.T.);
#695=ORIENTED_EDGE('',*,*,#506,.F.);
#696=ORIENTED_EDGE('',*,*,#507,.F.);
#697=ORIENTED_EDGE('',*,*,#508,.T.);
#698=ORIENTED_EDGE('',*,*,#503,.T.);
#699=ORIENTED_EDGE('',*,*,#508,.F.);
#700=ORIENTED_EDGE('',*,*,#500,.T.);
#701=ORIENTED_EDGE('',*,*,#509,.T.);
#702=ORIENTED_EDGE('',*,*,#510,.F.);
#703=ORIENTED_EDGE('',*,*,#440,.F.);
#704=ORIENTED_EDGE('',*,*,#475,.T.);
#705=ORIENTED_EDGE('',*,*,#441,.T.);
#706=ORIENTED_EDGE('',*,*,#510,.T.);
#707=ORIENTED_EDGE('',*,*,#511,.T.);
#708=ORIENTED_EDGE('',*,*,#478,.T.);
#709=ORIENTED_EDGE('',*,*,#507,.T.);
#710=ORIENTED_EDGE('',*,*,#505,.T.);
#711=ORIENTED_EDGE('',*,*,#499,.T.);
#712=ORIENTED_EDGE('',*,*,#512,.T.);
#713=ORIENTED_EDGE('',*,*,#513,.F.);
#714=ORIENTED_EDGE('',*,*,#511,.F.);
#715=ORIENTED_EDGE('',*,*,#509,.F.);
#716=ORIENTED_EDGE('',*,*,#514,.F.);
#717=ORIENTED_EDGE('',*,*,#515,.T.);
#718=ORIENTED_EDGE('',*,*,#501,.T.);
#719=ORIENTED_EDGE('',*,*,#515,.F.);
#720=ORIENTED_EDGE('',*,*,#516,.F.);
#721=ORIENTED_EDGE('',*,*,#517,.T.);
#722=ORIENTED_EDGE('',*,*,#502,.T.);
#723=ORIENTED_EDGE('',*,*,#517,.F.);
#724=ORIENTED_EDGE('',*,*,#414,.F.);
#725=ORIENTED_EDGE('',*,*,#483,.F.);
#726=ORIENTED_EDGE('',*,*,#518,.F.);
#727=ORIENTED_EDGE('',*,*,#519,.F.);
#728=ORIENTED_EDGE('',*,*,#497,.T.);
#729=ORIENTED_EDGE('',*,*,#496,.T.);
#730=ORIENTED_EDGE('',*,*,#498,.T.);
#731=ORIENTED_EDGE('',*,*,#519,.T.);
#732=ORIENTED_EDGE('',*,*,#520,.F.);
#733=ORIENTED_EDGE('',*,*,#512,.F.);
#734=ORIENTED_EDGE('',*,*,#513,.T.);
#735=ORIENTED_EDGE('',*,*,#520,.T.);
#736=ORIENTED_EDGE('',*,*,#518,.T.);
#737=ORIENTED_EDGE('',*,*,#482,.T.);
#738=ORIENTED_EDGE('',*,*,#479,.T.);
#739=ORIENTED_EDGE('',*,*,#516,.T.);
#740=ORIENTED_EDGE('',*,*,#514,.T.);
#741=TOROIDAL_SURFACE('',#795,34.000000551343,3.);
#742=TOROIDAL_SURFACE('',#804,34.000000551343,3.);
#743=ADVANCED_FACE('',(#214),#741,.F.);
#744=ADVANCED_FACE('',(#215,#28),#191,.F.);
#745=ADVANCED_FACE('',(#216),#742,.F.);
#746=ADVANCED_FACE('',(#217),#15,.F.);
#747=ADVANCED_FACE('',(#218),#192,.T.);
#748=ADVANCED_FACE('',(#219),#193,.T.);
#749=ADVANCED_FACE('',(#220),#194,.T.);
#750=ADVANCED_FACE('',(#221),#195,.T.);
#751=ADVANCED_FACE('',(#222),#16,.F.);
#752=ADVANCED_FACE('',(#223),#196,.T.);
#753=ADVANCED_FACE('',(#224),#197,.T.);
#754=ADVANCED_FACE('',(#225),#198,.T.);
#755=ADVANCED_FACE('',(#226),#17,.F.);
#756=ADVANCED_FACE('',(#227),#199,.T.);
#757=ADVANCED_FACE('',(#228),#18,.F.);
#758=ADVANCED_FACE('',(#229),#19,.T.);
#759=ADVANCED_FACE('',(#230),#200,.T.);
#760=ADVANCED_FACE('',(#231),#201,.T.);
#761=ADVANCED_FACE('',(#232),#202,.T.);
#762=ADVANCED_FACE('',(#233),#203,.T.);
#763=ADVANCED_FACE('',(#234),#20,.T.);
#764=ADVANCED_FACE('',(#235),#204,.T.);
#765=ADVANCED_FACE('',(#236),#21,.F.);
#766=ADVANCED_FACE('',(#237),#205,.T.);
#767=ADVANCED_FACE('',(#238),#22,.F.);
#768=ADVANCED_FACE('',(#239),#206,.T.);
#769=ADVANCED_FACE('',(#240,#29,#30,#31),#207,.T.);
#770=ADVANCED_FACE('',(#241,#32,#33,#34,#35,#36),#208,.F.);
#771=ADVANCED_FACE('',(#242),#23,.F.);
#772=ADVANCED_FACE('',(#243),#24,.F.);
#773=ADVANCED_FACE('',(#244),#209,.T.);
#774=ADVANCED_FACE('',(#245,#37,#38),#210,.T.);
#775=ADVANCED_FACE('',(#246),#211,.T.);
#776=ADVANCED_FACE('',(#247),#25,.F.);
#777=ADVANCED_FACE('',(#248),#26,.F.);
#778=ADVANCED_FACE('',(#249),#27,.F.);
#779=ADVANCED_FACE('',(#250),#212,.T.);
#780=ADVANCED_FACE('',(#251,#39,#40),#213,.T.);
#781=CLOSED_SHELL('',(#743,#744,#745,#746,#747,#748,#749,#750,#751,#752,
#753,#754,#755,#756,#757,#758,#759,#760,#761,#762,#763,#764,#765,#766,#767,
#768,#769,#770,#771,#772,#773,#774,#775,#776,#777,#778,#779,#780));
#782=DERIVED_UNIT_ELEMENT(#784,1.);
#783=DERIVED_UNIT_ELEMENT(#1342,-3.);
#784=(
MASS_UNIT()
NAMED_UNIT(*)
SI_UNIT(.KILO.,.GRAM.)
);
#785=DERIVED_UNIT((#782,#783));
#786=MEASURE_REPRESENTATION_ITEM('density measure',
POSITIVE_RATIO_MEASURE(7850.),#785);
#787=PROPERTY_DEFINITION_REPRESENTATION(#792,#789);
#788=PROPERTY_DEFINITION_REPRESENTATION(#793,#790);
#789=REPRESENTATION('material name',(#791),#1339);
#790=REPRESENTATION('density',(#786),#1339);
#791=DESCRIPTIVE_REPRESENTATION_ITEM('Steel','Steel');
#792=PROPERTY_DEFINITION('material property','material name',#1349);
#793=PROPERTY_DEFINITION('material property','density of part',#1349);
#794=AXIS2_PLACEMENT_3D('',#1079,#864,#865);
#795=AXIS2_PLACEMENT_3D('',#1080,#866,#867);
#796=AXIS2_PLACEMENT_3D('',#1094,#868,#869);
#797=AXIS2_PLACEMENT_3D('',#1106,#870,#871);
#798=AXIS2_PLACEMENT_3D('',#1107,#872,#873);
#799=AXIS2_PLACEMENT_3D('',#1119,#879,#880);
#800=AXIS2_PLACEMENT_3D('',#1127,#884,#885);
#801=AXIS2_PLACEMENT_3D('',#1139,#891,#892);
#802=AXIS2_PLACEMENT_3D('',#1143,#894,#895);
#803=AXIS2_PLACEMENT_3D('',#1146,#897,#898);
#804=AXIS2_PLACEMENT_3D('',#1147,#899,#900);
#805=AXIS2_PLACEMENT_3D('',#1160,#901,#902);
#806=AXIS2_PLACEMENT_3D('',#1171,#903,#904);
#807=AXIS2_PLACEMENT_3D('',#1175,#906,#907);
#808=AXIS2_PLACEMENT_3D('',#1179,#909,#910);
#809=AXIS2_PLACEMENT_3D('',#1181,#912,#913);
#810=AXIS2_PLACEMENT_3D('',#1187,#917,#918);
#811=AXIS2_PLACEMENT_3D('',#1191,#921,#922);
#812=AXIS2_PLACEMENT_3D('',#1195,#925,#926);
#813=AXIS2_PLACEMENT_3D('',#1199,#929,#930);
#814=AXIS2_PLACEMENT_3D('',#1202,#932,#933);
#815=AXIS2_PLACEMENT_3D('',#1203,#934,#935);
#816=AXIS2_PLACEMENT_3D('',#1207,#938,#939);
#817=AXIS2_PLACEMENT_3D('',#1211,#942,#943);
#818=AXIS2_PLACEMENT_3D('',#1215,#946,#947);
#819=AXIS2_PLACEMENT_3D('',#1218,#949,#950);
#820=AXIS2_PLACEMENT_3D('',#1219,#951,#952);
#821=AXIS2_PLACEMENT_3D('',#1223,#955,#956);
#822=AXIS2_PLACEMENT_3D('',#1225,#957,#958);
#823=AXIS2_PLACEMENT_3D('',#1227,#960,#961);
#824=AXIS2_PLACEMENT_3D('',#1231,#963,#964);
#825=AXIS2_PLACEMENT_3D('',#1233,#966,#967);
#826=AXIS2_PLACEMENT_3D('',#1239,#971,#972);
#827=AXIS2_PLACEMENT_3D('',#1243,#975,#976);
#828=AXIS2_PLACEMENT_3D('',#1245,#978,#979);
#829=AXIS2_PLACEMENT_3D('',#1251,#983,#984);
#830=AXIS2_PLACEMENT_3D('',#1253,#985,#986);
#831=AXIS2_PLACEMENT_3D('',#1255,#987,#988);
#832=AXIS2_PLACEMENT_3D('',#1258,#990,#991);
#833=AXIS2_PLACEMENT_3D('',#1259,#992,#993);
#834=AXIS2_PLACEMENT_3D('',#1264,#997,#998);
#835=AXIS2_PLACEMENT_3D('',#1267,#999,#1000);
#836=AXIS2_PLACEMENT_3D('',#1271,#1002,#1003);
#837=AXIS2_PLACEMENT_3D('',#1273,#1005,#1006);
#838=AXIS2_PLACEMENT_3D('',#1276,#1009,#1010);
#839=AXIS2_PLACEMENT_3D('',#1278,#1011,#1012);
#840=AXIS2_PLACEMENT_3D('',#1281,#1014,#1015);
#841=AXIS2_PLACEMENT_3D('',#1282,#1016,#1017);
#842=AXIS2_PLACEMENT_3D('',#1287,#1021,#1022);
#843=AXIS2_PLACEMENT_3D('',#1288,#1023,#1024);
#844=AXIS2_PLACEMENT_3D('',#1290,#1025,#1026);
#845=AXIS2_PLACEMENT_3D('',#1297,#1030,#1031);
#846=AXIS2_PLACEMENT_3D('',#1299,#1032,#1033);
#847=AXIS2_PLACEMENT_3D('',#1301,#1034,#1035);
#848=AXIS2_PLACEMENT_3D('',#1303,#1036,#1037);
#849=AXIS2_PLACEMENT_3D('',#1304,#1038,#1039);
#850=AXIS2_PLACEMENT_3D('',#1306,#1040,#1041);
#851=AXIS2_PLACEMENT_3D('',#1308,#1043,#1044);
#852=AXIS2_PLACEMENT_3D('',#1310,#1045,#1046);
#853=AXIS2_PLACEMENT_3D('',#1312,#1048,#1049);
#854=AXIS2_PLACEMENT_3D('',#1316,#1052,#1053);
#855=AXIS2_PLACEMENT_3D('',#1318,#1055,#1056);
#856=AXIS2_PLACEMENT_3D('',#1322,#1059,#1060);
#857=AXIS2_PLACEMENT_3D('',#1324,#1061,#1062);
#858=AXIS2_PLACEMENT_3D('',#1326,#1064,#1065);
#859=AXIS2_PLACEMENT_3D('',#1328,#1066,#1067);
#860=AXIS2_PLACEMENT_3D('',#1330,#1069,#1070);
#861=AXIS2_PLACEMENT_3D('',#1332,#1071,#1072);
#862=AXIS2_PLACEMENT_3D('',#1334,#1074,#1075);
#863=AXIS2_PLACEMENT_3D('',#1336,#1077,#1078);
#864=DIRECTION('axis',(0.,0.,1.));
#865=DIRECTION('refdir',(1.,0.,0.));
#866=DIRECTION('center_axis',(0.,0.,1.));
#867=DIRECTION('ref_axis',(1.,0.,0.));
#868=DIRECTION('center_axis',(0.,0.,1.));
#869=DIRECTION('ref_axis',(-0.406116512525131,0.913821305428159,0.));
#870=DIRECTION('center_axis',(0.,0.,-1.));
#871=DIRECTION('ref_axis',(-0.406116512525131,0.913821305428159,0.));
#872=DIRECTION('center_axis',(0.,0.,1.));
#873=DIRECTION('ref_axis',(1.,0.,0.));
#874=DIRECTION('',(0.,1.,0.));
#875=DIRECTION('',(-0.570200027829987,0.821505890583069,0.));
#876=DIRECTION('',(-0.866025403784438,0.500000000000001,0.));
#877=DIRECTION('',(0.5,0.866025403784439,0.));
#878=DIRECTION('',(0.866025403784438,-0.500000000000001,0.));
#879=DIRECTION('center_axis',(0.,0.,-1.));
#880=DIRECTION('ref_axis',(-0.908481779695628,0.417924462027606,0.));
#881=DIRECTION('',(-1.03219152795726E-16,-1.,0.));
#882=DIRECTION('',(-1.,0.,0.));
#883=DIRECTION('',(-1.03219152795726E-16,1.,0.));
#884=DIRECTION('center_axis',(0.,0.,-1.));
#885=DIRECTION('ref_axis',(0.0923076888689629,-0.995730531105515,0.));
#886=DIRECTION('',(0.866025403784439,0.499999999999999,0.));
#887=DIRECTION('',(0.5,-0.866025403784439,0.));
#888=DIRECTION('',(-0.866025403784439,-0.5,0.));
#889=DIRECTION('',(-0.570200027829986,-0.82150589058307,0.));
#890=DIRECTION('',(0.,-1.,0.));
#891=DIRECTION('center_axis',(0.,0.,1.));
#892=DIRECTION('ref_axis',(0.406116512525131,0.913821305428159,0.));
#893=DIRECTION('',(0.,1.,0.));
#894=DIRECTION('center_axis',(0.,0.,1.));
#895=DIRECTION('ref_axis',(-1.,0.,0.));
#896=DIRECTION('',(0.,-1.,0.));
#897=DIRECTION('center_axis',(0.,0.,-1.));
#898=DIRECTION('ref_axis',(1.,0.,0.));
#899=DIRECTION('center_axis',(0.,0.,1.));
#900=DIRECTION('ref_axis',(1.,0.,0.));
#901=DIRECTION('center_axis',(0.,0.,-1.));
#902=DIRECTION('ref_axis',(0.406116512525131,0.913821305428159,0.));
#903=DIRECTION('center_axis',(0.,0.,1.));
#904=DIRECTION('ref_axis',(0.675675675675676,0.737199010647884,0.));
#905=DIRECTION('',(0.,0.,1.));
#906=DIRECTION('center_axis',(0.,0.,-1.));
#907=DIRECTION('ref_axis',(0.675675675675676,0.737199010647884,0.));
#908=DIRECTION('',(0.,0.,1.));
#909=DIRECTION('center_axis',(0.,0.,-1.));
#910=DIRECTION('ref_axis',(0.675675675675676,0.737199010647884,0.));
#911=DIRECTION('',(0.,0.,1.));
#912=DIRECTION('center_axis',(-0.82150589058307,0.570200027829986,0.));
#913=DIRECTION('ref_axis',(-0.570200027829986,-0.82150589058307,0.));
#914=DIRECTION('',(0.,0.,1.));
#915=DIRECTION('',(-0.570200027829986,-0.82150589058307,0.));
#916=DIRECTION('',(0.,0.,1.));
#917=DIRECTION('center_axis',(-0.5,0.866025403784439,0.));
#918=DIRECTION('ref_axis',(-0.866025403784439,-0.5,0.));
#919=DIRECTION('',(0.,0.,1.));
#920=DIRECTION('',(-0.866025403784439,-0.5,0.));
#921=DIRECTION('center_axis',(-0.866025403784439,-0.5,0.));
#922=DIRECTION('ref_axis',(0.5,-0.866025403784439,0.));
#923=DIRECTION('',(0.,0.,1.));
#924=DIRECTION('',(0.5,-0.866025403784439,0.));
#925=DIRECTION('center_axis',(0.499999999999999,-0.866025403784439,0.));
#926=DIRECTION('ref_axis',(0.866025403784439,0.499999999999999,0.));
#927=DIRECTION('',(0.,0.,1.));
#928=DIRECTION('',(0.866025403784439,0.499999999999999,0.));
#929=DIRECTION('center_axis',(0.,0.,1.));
#930=DIRECTION('ref_axis',(0.0923076888689629,-0.995730531105515,0.));
#931=DIRECTION('',(0.,0.,1.));
#932=DIRECTION('center_axis',(0.,0.,-1.));
#933=DIRECTION('ref_axis',(0.0923076888689629,-0.995730531105515,0.));
#934=DIRECTION('center_axis',(1.,1.03219152795726E-16,0.));
#935=DIRECTION('ref_axis',(-1.03219152795726E-16,1.,0.));
#936=DIRECTION('',(0.,0.,1.));
#937=DIRECTION('',(-1.03219152795726E-16,1.,0.));
#938=DIRECTION('center_axis',(0.,1.,0.));
#939=DIRECTION('ref_axis',(-1.,0.,0.));
#940=DIRECTION('',(0.,0.,1.));
#941=DIRECTION('',(-1.,0.,0.));
#942=DIRECTION('center_axis',(-1.,1.03219152795726E-16,0.));
#943=DIRECTION('ref_axis',(-1.03219152795726E-16,-1.,0.));
#944=DIRECTION('',(0.,0.,1.));
#945=DIRECTION('',(-1.03219152795726E-16,-1.,0.));
#946=DIRECTION('center_axis',(0.,0.,1.));
#947=DIRECTION('ref_axis',(-0.908481779695628,0.417924462027606,0.));
#948=DIRECTION('',(0.,0.,1.));
#949=DIRECTION('center_axis',(0.,0.,-1.));
#950=DIRECTION('ref_axis',(-0.908481779695628,0.417924462027606,0.));
#951=DIRECTION('center_axis',(-0.500000000000001,-0.866025403784438,0.));
#952=DIRECTION('ref_axis',(0.866025403784438,-0.500000000000001,0.));
#953=DIRECTION('',(0.,0.,1.));
#954=DIRECTION('',(0.866025403784438,-0.500000000000001,0.));
#955=DIRECTION('center_axis',(0.,0.,1.));
#956=DIRECTION('ref_axis',(1.,0.,0.));
#957=DIRECTION('center_axis',(0.,0.,-1.));
#958=DIRECTION('ref_axis',(1.,0.,0.));
#959=DIRECTION('',(0.,0.,-1.));
#960=DIRECTION('center_axis',(0.,0.,1.));
#961=DIRECTION('ref_axis',(-1.,0.,0.));
#962=DIRECTION('',(0.,0.,1.));
#963=DIRECTION('center_axis',(0.,0.,1.));
#964=DIRECTION('ref_axis',(-1.,0.,0.));
#965=DIRECTION('',(0.,0.,1.));
#966=DIRECTION('center_axis',(0.821505890583069,0.570200027829987,0.));
#967=DIRECTION('ref_axis',(-0.570200027829987,0.821505890583069,0.));
#968=DIRECTION('',(0.,0.,1.));
#969=DIRECTION('',(-0.570200027829987,0.821505890583069,0.));
#970=DIRECTION('',(0.,0.,1.));
#971=DIRECTION('center_axis',(0.500000000000001,0.866025403784438,0.));
#972=DIRECTION('ref_axis',(-0.866025403784438,0.500000000000001,0.));
#973=DIRECTION('',(-0.866025403784438,0.500000000000001,0.));
#974=DIRECTION('',(0.,0.,1.));
#975=DIRECTION('center_axis',(0.866025403784439,-0.5,0.));
#976=DIRECTION('ref_axis',(0.5,0.866025403784439,0.));
#977=DIRECTION('',(0.5,0.866025403784439,0.));
#978=DIRECTION('center_axis',(1.,0.,0.));
#979=DIRECTION('ref_axis',(0.,1.,0.));
#980=DIRECTION('',(0.,-1.,0.));
#981=DIRECTION('',(0.,0.,1.));
#982=DIRECTION('',(0.,1.,0.));
#983=DIRECTION('center_axis',(0.,0.,1.));
#984=DIRECTION('ref_axis',(1.,0.,0.));
#985=DIRECTION('center_axis',(0.,0.,-1.));
#986=DIRECTION('ref_axis',(1.,0.,0.));
#987=DIRECTION('center_axis',(0.,0.,-1.));
#988=DIRECTION('ref_axis',(1.,0.,0.));
#989=DIRECTION('',(0.,0.,1.));
#990=DIRECTION('center_axis',(0.,0.,1.));
#991=DIRECTION('ref_axis',(1.,0.,0.));
#992=DIRECTION('center_axis',(-1.,0.,0.));
#993=DIRECTION('ref_axis',(0.,-1.,0.));
#994=DIRECTION('',(0.,1.,0.));
#995=DIRECTION('',(0.,0.,1.));
#996=DIRECTION('',(0.,-1.,0.));
#997=DIRECTION('center_axis',(0.,0.,1.));
#998=DIRECTION('ref_axis',(1.,0.,0.));
#999=DIRECTION('center_axis',(0.,0.,-1.));
#1000=DIRECTION('ref_axis',(1.,0.,0.));
#1001=DIRECTION('',(0.,0.,1.));
#1002=DIRECTION('center_axis',(0.,0.,-1.));
#1003=DIRECTION('ref_axis',(1.,0.,0.));
#1004=DIRECTION('',(0.,0.,1.));
#1005=DIRECTION('center_axis',(-1.,0.,0.));
#1006=DIRECTION('ref_axis',(0.,-1.,0.));
#1007=DIRECTION('',(0.,-1.,0.));
#1008=DIRECTION('',(0.,-1.,0.));
#1009=DIRECTION('center_axis',(0.,0.,1.));
#1010=DIRECTION('ref_axis',(1.,0.,0.));
#1011=DIRECTION('center_axis',(0.,0.,-1.));
#1012=DIRECTION('ref_axis',(1.,0.,0.));
#1013=DIRECTION('',(0.,0.,-1.));
#1014=DIRECTION('center_axis',(0.,0.,-1.));
#1015=DIRECTION('ref_axis',(1.,0.,0.));
#1016=DIRECTION('center_axis',(1.,0.,0.));
#1017=DIRECTION('ref_axis',(0.,1.,0.));
#1018=DIRECTION('',(0.,1.,0.));
#1019=DIRECTION('',(0.,1.,0.));
#1020=DIRECTION('',(0.,0.,1.));
#1021=DIRECTION('center_axis',(0.,0.,1.));
#1022=DIRECTION('ref_axis',(1.,0.,0.));
#1023=DIRECTION('center_axis',(0.,0.,1.));
#1024=DIRECTION('ref_axis',(1.,0.,0.));
#1025=DIRECTION('center_axis',(0.,0.,-1.));
#1026=DIRECTION('ref_axis',(-0.351351351351351,0.936243679766961,0.));
#1027=DIRECTION('',(0.,-1.,0.));
#1028=DIRECTION('',(-1.,0.,0.));
#1029=DIRECTION('',(0.,1.,0.));
#1030=DIRECTION('center_axis',(0.,0.,-1.));
#1031=DIRECTION('ref_axis',(1.,0.,0.));
#1032=DIRECTION('center_axis',(0.,0.,-1.));
#1033=DIRECTION('ref_axis',(1.,0.,0.));
#1034=DIRECTION('center_axis',(0.,0.,-1.));
#1035=DIRECTION('ref_axis',(1.,0.,0.));
#1036=DIRECTION('center_axis',(0.,0.,-1.));
#1037=DIRECTION('ref_axis',(1.,0.,0.));
#1038=DIRECTION('center_axis',(0.,0.,1.));
#1039=DIRECTION('ref_axis',(1.,0.,0.));
#1040=DIRECTION('center_axis',(0.,0.,-1.));
#1041=DIRECTION('ref_axis',(1.,0.,0.));
#1042=DIRECTION('',(0.,0.,-1.));
#1043=DIRECTION('center_axis',(0.,0.,1.));
#1044=DIRECTION('ref_axis',(1.,0.,0.));
#1045=DIRECTION('center_axis',(0.,0.,-1.));
#1046=DIRECTION('ref_axis',(1.,0.,0.));
#1047=DIRECTION('',(0.,0.,-1.));
#1048=DIRECTION('center_axis',(1.,0.,0.));
#1049=DIRECTION('ref_axis',(0.,1.,0.));
#1050=DIRECTION('',(0.,0.,1.));
#1051=DIRECTION('',(0.,1.,0.));
#1052=DIRECTION('center_axis',(0.,0.,1.));
#1053=DIRECTION('ref_axis',(1.,0.,0.));
#1054=DIRECTION('',(-1.,0.,0.));
#1055=DIRECTION('center_axis',(0.,1.,0.));
#1056=DIRECTION('ref_axis',(-1.,0.,0.));
#1057=DIRECTION('',(0.,0.,1.));
#1058=DIRECTION('',(-1.,0.,0.));
#1059=DIRECTION('center_axis',(0.,0.,1.));
#1060=DIRECTION('ref_axis',(1.,0.,0.));
#1061=DIRECTION('center_axis',(0.,0.,-1.));
#1062=DIRECTION('ref_axis',(1.,0.,0.));
#1063=DIRECTION('',(0.,0.,-1.));
#1064=DIRECTION('center_axis',(0.,0.,1.));
#1065=DIRECTION('ref_axis',(1.,0.,0.));
#1066=DIRECTION('center_axis',(0.,0.,-1.));
#1067=DIRECTION('ref_axis',(1.,0.,0.));
#1068=DIRECTION('',(0.,0.,-1.));
#1069=DIRECTION('center_axis',(0.,0.,1.));
#1070=DIRECTION('ref_axis',(-0.351351351351351,0.936243679766961,0.));
#1071=DIRECTION('center_axis',(0.,0.,-1.));
#1072=DIRECTION('ref_axis',(-0.351351351351351,0.936243679766961,0.));
#1073=DIRECTION('',(0.,0.,1.));
#1074=DIRECTION('center_axis',(-1.,0.,0.));
#1075=DIRECTION('ref_axis',(0.,-1.,0.));
#1076=DIRECTION('',(0.,-1.,0.));
#1077=DIRECTION('center_axis',(0.,0.,1.));
#1078=DIRECTION('ref_axis',(1.,0.,0.));
#1079=CARTESIAN_POINT('',(0.,0.,0.));
#1080=CARTESIAN_POINT('Origin',(0.,0.,105.));
#1081=CARTESIAN_POINT('',(-13.0000001937151,34.6410166675689,105.));
#1082=CARTESIAN_POINT('',(-13.0000001937151,31.4165566613327,108.));
#1083=CARTESIAN_POINT('Ctrl Pts',(-13.0000001937151,34.6410166675689,105.));
#1084=CARTESIAN_POINT('Ctrl Pts',(-13.0000001937151,34.6410166675689,105.362012819204));
#1085=CARTESIAN_POINT('Ctrl Pts',(-13.0000001937151,34.5523497149154,105.787283199706));
#1086=CARTESIAN_POINT('Ctrl Pts',(-13.0000001937151,34.2613253814336,106.463893343813));
#1087=CARTESIAN_POINT('Ctrl Pts',(-13.0000001937151,34.0030474526984,106.831705868865));
#1088=CARTESIAN_POINT('Ctrl Pts',(-13.0000001937151,33.4502889703042,107.362307089246));
#1089=CARTESIAN_POINT('Ctrl Pts',(-13.0000001937151,33.0532509019035,107.613854894855));
#1090=CARTESIAN_POINT('Ctrl Pts',(-13.0000001937151,32.308792842032,107.909609936824));
#1091=CARTESIAN_POINT('Ctrl Pts',(-13.0000001937151,31.8259310649139,108.));
#1092=CARTESIAN_POINT('Ctrl Pts',(-13.0000001937151,31.4165566613327,108.));
#1093=CARTESIAN_POINT('',(-17.0000002533197,29.4448642190527,108.));
#1094=CARTESIAN_POINT('Origin',(0.,0.,108.));
#1095=CARTESIAN_POINT('',(-17.0000002533197,32.8633539400121,105.));
#1096=CARTESIAN_POINT('Ctrl Pts',(-17.0000002533197,29.4448642190527,108.));
#1097=CARTESIAN_POINT('Ctrl Pts',(-17.0000002533197,29.8890166427484,108.));
#1098=CARTESIAN_POINT('Ctrl Pts',(-17.0000002533197,30.4137552170621,107.906617939031));
#1099=CARTESIAN_POINT('Ctrl Pts',(-17.0000002533197,31.210953247936,107.600445341181));
#1100=CARTESIAN_POINT('Ctrl Pts',(-17.0000002533197,31.631347768316,107.345262672514));
#1101=CARTESIAN_POINT('Ctrl Pts',(-17.0000002533197,32.2084906513029,106.809039844297));
#1102=CARTESIAN_POINT('Ctrl Pts',(-17.0000002533197,32.476048776375,106.442781125735));
#1103=CARTESIAN_POINT('Ctrl Pts',(-17.0000002533197,32.7731527856957,105.772261281314));
#1104=CARTESIAN_POINT('Ctrl Pts',(-17.0000002533197,32.8633539400121,105.355413129789));
#1105=CARTESIAN_POINT('Ctrl Pts',(-17.0000002533197,32.8633539400121,105.));
#1106=CARTESIAN_POINT('Origin',(0.,0.,105.));
#1107=CARTESIAN_POINT('Origin',(0.,8.82050820712459,108.));
#1108=CARTESIAN_POINT('',(-13.0000001937151,10.9544513133374,108.));
#1109=CARTESIAN_POINT('',(-13.0000001937151,9.88747976023098,108.));
#1110=CARTESIAN_POINT('',(-10.6102633388519,7.51147900994258,108.));
#1111=CARTESIAN_POINT('',(-9.19200559232495,5.4681485359491,108.));
#1112=CARTESIAN_POINT('',(-9.44589447276729,6.83923033167261,108.));
#1113=CARTESIAN_POINT('',(-6.33264328850393,5.04179392238324,108.));
#1114=CARTESIAN_POINT('',(-10.6458944459452,4.76076940904719,108.));
#1115=CARTESIAN_POINT('',(-8.43619840723596,8.58807521737526,108.));
#1116=CARTESIAN_POINT('',(-11.8102633120298,5.43301808731715,108.));
#1117=CARTESIAN_POINT('',(-8.11482769472414,3.29945733889279,108.));
#1118=CARTESIAN_POINT('',(-1.19999997317791,-12.9444970972597,108.));
#1119=CARTESIAN_POINT('Origin',(0.,0.,108.));
#1120=CARTESIAN_POINT('',(-1.19999997317791,-11.5999997407198,108.));
#1121=CARTESIAN_POINT('',(-1.19999997317791,-1.3897457667976,108.));
#1122=CARTESIAN_POINT('',(1.19999997317791,-11.5999997407198,108.));
#1123=CARTESIAN_POINT('',(0.599999986588955,-11.5999997407198,108.));
#1124=CARTESIAN_POINT('',(1.19999997317791,-12.9444970972597,108.));
#1125=CARTESIAN_POINT('',(1.19999997317791,-2.06199444506757,108.));
#1126=CARTESIAN_POINT('',(11.8102633120298,5.43301808731715,108.));
#1127=CARTESIAN_POINT('Origin',(0.,0.,108.));
#1128=CARTESIAN_POINT('',(10.6458944459452,4.76076940904718,108.));
#1129=CARTESIAN_POINT('',(7.53264326168183,2.96333299975781,108.));
#1130=CARTESIAN_POINT('',(9.44589447276729,6.83923033167261,108.));
#1131=CARTESIAN_POINT('',(7.83619842064701,9.62730567868797,108.));
#1132=CARTESIAN_POINT('',(10.6102633388519,7.51147900994257,108.));
#1133=CARTESIAN_POINT('',(6.91482772154623,5.37791826151822,108.));
#1134=CARTESIAN_POINT('',(13.0000001937151,10.9544513133374,108.));
#1135=CARTESIAN_POINT('',(10.3868740197566,7.18963468764649,108.));
#1136=CARTESIAN_POINT('',(13.0000001937151,31.4165566613327,108.));
#1137=CARTESIAN_POINT('',(13.0000001937151,21.7307624373468,108.));
#1138=CARTESIAN_POINT('',(17.0000002533197,29.4448642190527,108.));
#1139=CARTESIAN_POINT('Origin',(0.,0.,108.));
#1140=CARTESIAN_POINT('',(17.0000002533197,-2.22044604925031E-15,108.));
#1141=CARTESIAN_POINT('',(17.0000002533197,4.41025410356229,108.));
#1142=CARTESIAN_POINT('',(-17.0000002533197,0.,108.));
#1143=CARTESIAN_POINT('Origin',(0.,0.,108.));
#1144=CARTESIAN_POINT('',(-17.0000002533197,20.8419310735683,108.));
#1145=CARTESIAN_POINT('',(-1.05,-15.0000002235174,108.));
#1146=CARTESIAN_POINT('Origin',(0.,-15.0000002235174,108.));
#1147=CARTESIAN_POINT('Origin',(0.,0.,105.));
#1148=CARTESIAN_POINT('',(13.0000001937151,34.6410166675689,105.));
#1149=CARTESIAN_POINT('Ctrl Pts',(13.0000001937151,31.4165566613327,108.));
#1150=CARTESIAN_POINT('Ctrl Pts',(13.0000001937151,31.8259310649138,108.));
#1151=CARTESIAN_POINT('Ctrl Pts',(13.0000001937151,32.308792842032,107.909609936824));
#1152=CARTESIAN_POINT('Ctrl Pts',(13.0000001937151,33.0532509019035,107.613854894855));
#1153=CARTESIAN_POINT('Ctrl Pts',(13.0000001937151,33.4502889703042,107.362307089246));
#1154=CARTESIAN_POINT('Ctrl Pts',(13.0000001937151,34.0030474526984,106.831705868865));
#1155=CARTESIAN_POINT('Ctrl Pts',(13.0000001937151,34.2613253814336,106.463893343813));
#1156=CARTESIAN_POINT('Ctrl Pts',(13.0000001937151,34.5523497149154,105.787283199706));
#1157=CARTESIAN_POINT('Ctrl Pts',(13.0000001937151,34.6410166675689,105.362012819204));
#1158=CARTESIAN_POINT('Ctrl Pts',(13.0000001937151,34.6410166675689,105.));
#1159=CARTESIAN_POINT('',(17.0000002533197,32.8633539400121,105.));
#1160=CARTESIAN_POINT('Origin',(0.,0.,105.));
#1161=CARTESIAN_POINT('Ctrl Pts',(17.0000002533197,32.8633539400121,105.));
#1162=CARTESIAN_POINT('Ctrl Pts',(17.0000002533197,32.8633539400121,105.355413129789));
#1163=CARTESIAN_POINT('Ctrl Pts',(17.0000002533197,32.7731527856956,105.772261281314));
#1164=CARTESIAN_POINT('Ctrl Pts',(17.0000002533197,32.476048776375,106.442781125735));
#1165=CARTESIAN_POINT('Ctrl Pts',(17.0000002533197,32.2084906513029,106.809039844297));
#1166=CARTESIAN_POINT('Ctrl Pts',(17.0000002533197,31.6313477683159,107.345262672514));
#1167=CARTESIAN_POINT('Ctrl Pts',(17.0000002533197,31.210953247936,107.600445341181));
#1168=CARTESIAN_POINT('Ctrl Pts',(17.0000002533197,30.4137552170621,107.906617939031));
#1169=CARTESIAN_POINT('Ctrl Pts',(17.0000002533197,29.8890166427484,108.));
#1170=CARTESIAN_POINT('Ctrl Pts',(17.0000002533197,29.4448642190527,108.));
#1171=CARTESIAN_POINT('Origin',(0.,0.,0.));
#1172=CARTESIAN_POINT('',(13.0000001937151,34.6410166675689,70.));
#1173=CARTESIAN_POINT('',(13.0000001937151,34.6410166675689,0.));
#1174=CARTESIAN_POINT('',(25.000000372529,27.2763638004212,70.));
#1175=CARTESIAN_POINT('Origin',(0.,0.,70.));
#1176=CARTESIAN_POINT('',(25.000000372529,27.2763638004212,75.));
#1177=CARTESIAN_POINT('',(25.000000372529,27.2763638004212,0.));
#1178=CARTESIAN_POINT('',(17.0000002533197,32.8633539400121,75.));
#1179=CARTESIAN_POINT('Origin',(0.,0.,75.));
#1180=CARTESIAN_POINT('',(17.0000002533197,32.8633539400121,0.));
#1181=CARTESIAN_POINT('Origin',(13.0000001937151,10.9544513133374,0.));
#1182=CARTESIAN_POINT('',(10.6102633388519,7.51147900994257,128.));
#1183=CARTESIAN_POINT('',(10.6102633388519,7.51147900994258,0.));
#1184=CARTESIAN_POINT('',(13.0000001937151,10.9544513133374,128.));
#1185=CARTESIAN_POINT('',(13.0000001937151,10.9544513133374,128.));
#1186=CARTESIAN_POINT('',(13.0000001937151,10.9544513133374,0.));
#1187=CARTESIAN_POINT('Origin',(10.6102633388519,7.51147900994258,0.));
#1188=CARTESIAN_POINT('',(9.44589447276729,6.83923033167261,128.));
#1189=CARTESIAN_POINT('',(9.44589447276729,6.83923033167261,0.));
#1190=CARTESIAN_POINT('',(10.6102633388519,7.51147900994258,128.));
#1191=CARTESIAN_POINT('Origin',(9.44589447276729,6.83923033167261,0.));
#1192=CARTESIAN_POINT('',(10.6458944459452,4.76076940904718,128.));
#1193=CARTESIAN_POINT('',(10.6458944459452,4.76076940904718,0.));
#1194=CARTESIAN_POINT('',(9.44589447276729,6.83923033167261,128.));
#1195=CARTESIAN_POINT('Origin',(10.6458944459452,4.76076940904718,0.));
#1196=CARTESIAN_POINT('',(11.8102633120298,5.43301808731715,128.));
#1197=CARTESIAN_POINT('',(11.8102633120298,5.43301808731714,0.));
#1198=CARTESIAN_POINT('',(10.6458944459452,4.76076940904718,128.));
#1199=CARTESIAN_POINT('Origin',(0.,0.,0.));
#1200=CARTESIAN_POINT('',(1.19999997317791,-12.9444970972597,128.));
#1201=CARTESIAN_POINT('',(1.19999997317791,-12.9444970972597,0.));
#1202=CARTESIAN_POINT('Origin',(0.,0.,128.));
#1203=CARTESIAN_POINT('Origin',(1.19999997317791,-12.9444970972597,0.));
#1204=CARTESIAN_POINT('',(1.19999997317791,-11.5999997407198,128.));
#1205=CARTESIAN_POINT('',(1.19999997317791,-11.5999997407198,0.));
#1206=CARTESIAN_POINT('',(1.19999997317791,-12.9444970972597,128.));
#1207=CARTESIAN_POINT('Origin',(1.19999997317791,-11.5999997407198,0.));
#1208=CARTESIAN_POINT('',(-1.19999997317791,-11.5999997407198,128.));
#1209=CARTESIAN_POINT('',(-1.19999997317791,-11.5999997407198,0.));
#1210=CARTESIAN_POINT('',(1.19999997317791,-11.5999997407198,128.));
#1211=CARTESIAN_POINT('Origin',(-1.19999997317791,-11.5999997407198,0.));
#1212=CARTESIAN_POINT('',(-1.19999997317791,-12.9444970972597,128.));
#1213=CARTESIAN_POINT('',(-1.19999997317791,-12.9444970972597,0.));
#1214=CARTESIAN_POINT('',(-1.19999997317791,-11.5999997407198,128.));
#1215=CARTESIAN_POINT('Origin',(0.,0.,0.));
#1216=CARTESIAN_POINT('',(-11.8102633120298,5.43301808731715,128.));
#1217=CARTESIAN_POINT('',(-11.8102633120298,5.43301808731715,0.));
#1218=CARTESIAN_POINT('Origin',(0.,0.,128.));
#1219=CARTESIAN_POINT('Origin',(-11.8102633120298,5.43301808731715,0.));
#1220=CARTESIAN_POINT('',(-10.6458944459452,4.76076940904719,128.));
#1221=CARTESIAN_POINT('',(-10.6458944459452,4.76076940904719,0.));
#1222=CARTESIAN_POINT('',(-11.8102633120298,5.43301808731715,128.));
#1223=CARTESIAN_POINT('Origin',(0.,-15.0000002235174,0.));
#1224=CARTESIAN_POINT('',(-1.05,-15.0000002235174,128.));
#1225=CARTESIAN_POINT('Origin',(0.,-15.0000002235174,128.));
#1226=CARTESIAN_POINT('',(-1.05,-15.0000002235174,0.));
#1227=CARTESIAN_POINT('Origin',(0.,0.,0.));
#1228=CARTESIAN_POINT('',(17.0000002533197,-2.22044604925031E-15,128.));
#1229=CARTESIAN_POINT('',(17.0000002533197,-2.08189958957322E-15,0.));
#1230=CARTESIAN_POINT('',(-17.0000002533197,0.,128.));
#1231=CARTESIAN_POINT('Origin',(0.,0.,128.));
#1232=CARTESIAN_POINT('',(-17.0000002533197,0.,0.));
#1233=CARTESIAN_POINT('Origin',(-10.6102633388519,7.51147900994258,0.));
#1234=CARTESIAN_POINT('',(-13.0000001937151,10.9544513133374,128.));
#1235=CARTESIAN_POINT('',(-13.0000001937151,10.9544513133374,0.));
#1236=CARTESIAN_POINT('',(-10.6102633388519,7.51147900994258,128.));
#1237=CARTESIAN_POINT('',(-10.6102633388519,7.51147900994258,128.));
#1238=CARTESIAN_POINT('',(-10.6102633388519,7.51147900994258,0.));
#1239=CARTESIAN_POINT('Origin',(-9.44589447276729,6.83923033167261,0.));
#1240=CARTESIAN_POINT('',(-9.44589447276729,6.83923033167261,128.));
#1241=CARTESIAN_POINT('',(-9.44589447276729,6.83923033167261,128.));
#1242=CARTESIAN_POINT('',(-9.44589447276729,6.83923033167261,0.));
#1243=CARTESIAN_POINT('Origin',(-10.6458944459452,4.76076940904719,0.));
#1244=CARTESIAN_POINT('',(-10.6458944459452,4.76076940904719,128.));
#1245=CARTESIAN_POINT('Origin',(17.0000002533197,32.8633539400121,0.));
#1246=CARTESIAN_POINT('',(17.0000002533197,43.0000006407499,75.));
#1247=CARTESIAN_POINT('',(17.0000002533197,0.,75.));
#1248=CARTESIAN_POINT('',(17.0000002533197,43.0000006407499,128.));
#1249=CARTESIAN_POINT('',(17.0000002533197,43.0000006407499,0.));
#1250=CARTESIAN_POINT('',(17.0000002533197,0.,128.));
#1251=CARTESIAN_POINT('Origin',(0.,43.0000006407499,0.));
#1252=CARTESIAN_POINT('',(0.,60.0000008940697,75.));
#1253=CARTESIAN_POINT('Origin',(0.,43.0000006407499,75.));
#1254=CARTESIAN_POINT('',(-17.0000002533197,43.0000006407499,75.));
#1255=CARTESIAN_POINT('Origin',(0.,43.0000006407499,75.));
#1256=CARTESIAN_POINT('',(-17.0000002533197,43.0000006407499,128.));
#1257=CARTESIAN_POINT('',(-17.0000002533197,43.0000006407499,0.));
#1258=CARTESIAN_POINT('Origin',(0.,43.0000006407499,128.));
#1259=CARTESIAN_POINT('Origin',(-17.0000002533197,43.0000006407499,0.));
#1260=CARTESIAN_POINT('',(-17.0000002533197,32.8633539400121,75.));
#1261=CARTESIAN_POINT('',(-17.0000002533197,0.,75.));
#1262=CARTESIAN_POINT('',(-17.0000002533197,32.8633539400121,0.));
#1263=CARTESIAN_POINT('',(-17.0000002533197,0.,128.));
#1264=CARTESIAN_POINT('Origin',(0.,43.0000006407499,0.));
#1265=CARTESIAN_POINT('',(-13.0000001937151,43.0000006407499,70.));
#1266=CARTESIAN_POINT('',(13.0000001937151,43.0000006407499,70.));
#1267=CARTESIAN_POINT('Origin',(0.,43.0000006407499,70.));
#1268=CARTESIAN_POINT('',(13.0000001937151,43.0000006407499,128.));
#1269=CARTESIAN_POINT('',(13.0000001937151,43.0000006407499,0.));
#1270=CARTESIAN_POINT('',(-13.0000001937151,43.0000006407499,128.));
#1271=CARTESIAN_POINT('Origin',(0.,43.0000006407499,128.));
#1272=CARTESIAN_POINT('',(-13.0000001937151,43.0000006407499,0.));
#1273=CARTESIAN_POINT('Origin',(13.0000001937151,43.0000006407499,0.));
#1274=CARTESIAN_POINT('',(13.0000001937151,44.7158390288954,70.));
#1275=CARTESIAN_POINT('',(13.0000001937151,10.9544513133374,128.));
#1276=CARTESIAN_POINT('Origin',(0.,58.0000008642673,0.));
#1277=CARTESIAN_POINT('',(-1.05,58.0000008642673,128.));
#1278=CARTESIAN_POINT('Origin',(0.,58.0000008642673,128.));
#1279=CARTESIAN_POINT('',(-1.05,58.0000008642673,70.));
#1280=CARTESIAN_POINT('',(-1.05,58.0000008642673,0.));
#1281=CARTESIAN_POINT('Origin',(0.,58.0000008642673,70.));
#1282=CARTESIAN_POINT('Origin',(-13.0000001937151,34.6410166675689,0.));
#1283=CARTESIAN_POINT('',(-13.0000001937151,34.6410166675689,70.));
#1284=CARTESIAN_POINT('',(-13.0000001937151,40.5363470423049,70.));
#1285=CARTESIAN_POINT('',(-13.0000001937151,10.9544513133374,128.));
#1286=CARTESIAN_POINT('',(-13.0000001937151,34.6410166675689,0.));
#1287=CARTESIAN_POINT('Origin',(0.,46.4316774170409,128.));
#1288=CARTESIAN_POINT('Origin',(0.,21.500000320375,70.));
#1289=CARTESIAN_POINT('',(-25.000000372529,27.2763638004212,70.));
#1290=CARTESIAN_POINT('Origin',(0.,0.,70.));
#1291=CARTESIAN_POINT('',(-25.000000372529,60.0000008940697,70.));
#1292=CARTESIAN_POINT('',(-25.000000372529,40.7500006072223,70.));
#1293=CARTESIAN_POINT('',(25.000000372529,60.0000008940697,70.));
#1294=CARTESIAN_POINT('',(0.,60.0000008940697,70.));
#1295=CARTESIAN_POINT('',(25.000000372529,24.3881820603981,70.));
#1296=CARTESIAN_POINT('',(-23.0500003278255,57.0000008493662,70.));
#1297=CARTESIAN_POINT('Origin',(-22.0000003278255,57.0000008493662,70.));
#1298=CARTESIAN_POINT('',(-23.0500003278255,43.0000006407499,70.));
#1299=CARTESIAN_POINT('Origin',(-22.0000003278255,43.0000006407499,70.));
#1300=CARTESIAN_POINT('',(20.9500003278255,57.0000008493662,70.));
#1301=CARTESIAN_POINT('Origin',(22.0000003278255,57.0000008493662,70.));
#1302=CARTESIAN_POINT('',(20.9500003278255,43.0000006407499,70.));
#1303=CARTESIAN_POINT('Origin',(22.0000003278255,43.0000006407499,70.));
#1304=CARTESIAN_POINT('Origin',(22.0000003278255,43.0000006407499,0.));
#1305=CARTESIAN_POINT('',(20.9500003278255,43.0000006407499,75.));
#1306=CARTESIAN_POINT('Origin',(22.0000003278255,43.0000006407499,75.));
#1307=CARTESIAN_POINT('',(20.9500003278255,43.0000006407499,0.));
#1308=CARTESIAN_POINT('Origin',(22.0000003278255,57.0000008493662,0.));
#1309=CARTESIAN_POINT('',(20.9500003278255,57.0000008493662,75.));
#1310=CARTESIAN_POINT('Origin',(22.0000003278255,57.0000008493662,75.));
#1311=CARTESIAN_POINT('',(20.9500003278255,57.0000008493662,0.));
#1312=CARTESIAN_POINT('Origin',(25.000000372529,27.2763638004212,0.));
#1313=CARTESIAN_POINT('',(25.000000372529,60.0000008940697,75.));
#1314=CARTESIAN_POINT('',(25.000000372529,60.0000008940697,0.));
#1315=CARTESIAN_POINT('',(25.000000372529,27.2763638004212,75.));
#1316=CARTESIAN_POINT('Origin',(0.,21.500000320375,75.));
#1317=CARTESIAN_POINT('',(25.000000372529,60.0000008940697,75.));
#1318=CARTESIAN_POINT('Origin',(0.,60.0000008940697,0.));
#1319=CARTESIAN_POINT('',(-25.000000372529,60.0000008940697,75.));
#1320=CARTESIAN_POINT('',(-25.000000372529,60.0000008940697,0.));
#1321=CARTESIAN_POINT('',(25.000000372529,60.0000008940697,75.));
#1322=CARTESIAN_POINT('Origin',(-22.0000003278255,57.0000008493662,0.));
#1323=CARTESIAN_POINT('',(-23.0500003278255,57.0000008493662,75.));
#1324=CARTESIAN_POINT('Origin',(-22.0000003278255,57.0000008493662,75.));
#1325=CARTESIAN_POINT('',(-23.0500003278255,57.0000008493662,0.));
#1326=CARTESIAN_POINT('Origin',(-22.0000003278255,43.0000006407499,0.));
#1327=CARTESIAN_POINT('',(-23.0500003278255,43.0000006407499,75.));
#1328=CARTESIAN_POINT('Origin',(-22.0000003278255,43.0000006407499,75.));
#1329=CARTESIAN_POINT('',(-23.0500003278255,43.0000006407499,0.));
#1330=CARTESIAN_POINT('Origin',(0.,0.,0.));
#1331=CARTESIAN_POINT('',(-25.000000372529,27.2763638004212,75.));
#1332=CARTESIAN_POINT('Origin',(0.,0.,75.));
#1333=CARTESIAN_POINT('',(-25.000000372529,27.2763638004212,0.));
#1334=CARTESIAN_POINT('Origin',(-25.000000372529,60.0000008940697,0.));
#1335=CARTESIAN_POINT('',(-25.000000372529,60.0000008940697,75.));
#1336=CARTESIAN_POINT('Origin',(0.,21.500000320375,75.));
#1337=UNCERTAINTY_MEASURE_WITH_UNIT(LENGTH_MEASURE(0.01),#1341,
'DISTANCE_ACCURACY_VALUE',
'Maximum model space distance between geometric entities at asserted c
onnectivities');
#1338=UNCERTAINTY_MEASURE_WITH_UNIT(LENGTH_MEASURE(0.01),#1341,
'DISTANCE_ACCURACY_VALUE',
'Maximum model space distance between geometric entities at asserted c
onnectivities');
#1339=(
GEOMETRIC_REPRESENTATION_CONTEXT(3)
GLOBAL_UNCERTAINTY_ASSIGNED_CONTEXT((#1337))
GLOBAL_UNIT_ASSIGNED_CONTEXT((#1341,#1343,#1344))
REPRESENTATION_CONTEXT('','3D')
);
#1340=(
GEOMETRIC_REPRESENTATION_CONTEXT(3)
GLOBAL_UNCERTAINTY_ASSIGNED_CONTEXT((#1338))
GLOBAL_UNIT_ASSIGNED_CONTEXT((#1341,#1343,#1344))
REPRESENTATION_CONTEXT('','3D')
);
#1341=(
LENGTH_UNIT()
NAMED_UNIT(*)
SI_UNIT(.MILLI.,.METRE.)
);
#1342=(
LENGTH_UNIT()
NAMED_UNIT(*)
SI_UNIT($,.METRE.)
);
#1343=(
NAMED_UNIT(*)
PLANE_ANGLE_UNIT()
SI_UNIT($,.RADIAN.)
);
#1344=(
NAMED_UNIT(*)
SI_UNIT($,.STERADIAN.)
SOLID_ANGLE_UNIT()
);
#1345=SHAPE_DEFINITION_REPRESENTATION(#1346,#1347);
#1346=PRODUCT_DEFINITION_SHAPE('',$,#1349);
#1347=SHAPE_REPRESENTATION('',(#794),#1339);
#1348=PRODUCT_DEFINITION_CONTEXT('part definition',#1353,'design');
#1349=PRODUCT_DEFINITION('2025-07-29-20-57-45-993','base_4 (1)',#1350,#1348);
#1350=PRODUCT_DEFINITION_FORMATION('',$,#1355);
#1351=PRODUCT_RELATED_PRODUCT_CATEGORY('base_4 (1)','base_4 (1)',(#1355));
#1352=APPLICATION_PROTOCOL_DEFINITION('international standard',
'automotive_design',2009,#1353);
#1353=APPLICATION_CONTEXT(
'Core Data for Automotive Mechanical Design Process');
#1354=PRODUCT_CONTEXT('part definition',#1353,'mechanical');
#1355=PRODUCT('2025-07-29-20-57-45-993','base_4 (1)',$,(#1354));
#1356=PRESENTATION_STYLE_ASSIGNMENT((#1358));
#1357=PRESENTATION_STYLE_ASSIGNMENT((#1359));
#1358=SURFACE_STYLE_USAGE(.BOTH.,#1360);
#1359=SURFACE_STYLE_USAGE(.BOTH.,#1361);
#1360=SURFACE_SIDE_STYLE('',(#1362));
#1361=SURFACE_SIDE_STYLE('',(#1363));
#1362=SURFACE_STYLE_FILL_AREA(#1364);
#1363=SURFACE_STYLE_FILL_AREA(#1365);
#1364=FILL_AREA_STYLE('Steel - Satin',(#1366));
#1365=FILL_AREA_STYLE('Sunflower yellow PLA',(#1367));
#1366=FILL_AREA_STYLE_COLOUR('Steel - Satin',#1368);
#1367=FILL_AREA_STYLE_COLOUR('Sunflower yellow PLA',#1369);
#1368=COLOUR_RGB('Steel - Satin',0.627450980392157,0.627450980392157,0.627450980392157);
#1369=COLOUR_RGB('Sunflower yellow PLA',1.,0.733333333333333,0.);
ENDSEC;
END-ISO-10303-21;
