ISO-10303-21;
HEADER;
/* Generated by software containing ST-Developer
 * from STEP Tools, Inc. (www.steptools.com) 
 */

FILE_DESCRIPTION(
/* description */ (''),
/* implementation_level */ '2;1');

FILE_NAME(
/* name */ 'base_0.step',
/* time_stamp */ '2025-08-11T20:28:14+01:00',
/* author */ (''),
/* organization */ (''),
/* preprocessor_version */ 'ST-DEVELOPER v20.1',
/* originating_system */ 'Autodesk Translation Framework v14.10.0.0',
/* authorisation */ '');

FILE_SCHEMA (('AUTOMOTIVE_DESIGN { 1 0 10303 214 3 1 1 }'));
ENDSEC;

DATA;
#10=MECHANICAL_DESIGN_GEOMETRIC_PRESENTATION_REPRESENTATION('',(#13),#844);
#11=SHAPE_REPRESENTATION_RELATIONSHIP('SRR','None',#851,#12);
#12=ADVANCED_BREP_SHAPE_REPRESENTATION('',(#14),#843);
#13=STYLED_ITEM('',(#861),#14);
#14=MANIFOLD_SOLID_BREP('Body2',#485);
#15=FACE_BOUND('',#74,.T.);
#16=FACE_BOUND('',#75,.T.);
#17=FACE_BOUND('',#76,.T.);
#18=FACE_BOUND('',#77,.T.);
#19=FACE_BOUND('',#78,.T.);
#20=FACE_BOUND('',#80,.T.);
#21=FACE_BOUND('',#82,.T.);
#22=FACE_BOUND('',#84,.T.);
#23=FACE_BOUND('',#86,.T.);
#24=FACE_BOUND('',#88,.T.);
#25=FACE_BOUND('',#107,.T.);
#26=FACE_BOUND('',#108,.T.);
#27=FACE_BOUND('',#109,.T.);
#28=FACE_BOUND('',#110,.T.);
#29=FACE_BOUND('',#111,.T.);
#30=FACE_BOUND('',#112,.T.);
#31=FACE_BOUND('',#113,.T.);
#32=FACE_BOUND('',#114,.T.);
#33=FACE_BOUND('',#115,.T.);
#34=PLANE('',#508);
#35=PLANE('',#513);
#36=PLANE('',#516);
#37=PLANE('',#519);
#38=PLANE('',#522);
#39=PLANE('',#525);
#40=PLANE('',#527);
#41=PLANE('',#530);
#42=PLANE('',#553);
#43=PLANE('',#556);
#44=PLANE('',#557);
#45=FACE_OUTER_BOUND('',#71,.T.);
#46=FACE_OUTER_BOUND('',#72,.T.);
#47=FACE_OUTER_BOUND('',#73,.T.);
#48=FACE_OUTER_BOUND('',#79,.T.);
#49=FACE_OUTER_BOUND('',#81,.T.);
#50=FACE_OUTER_BOUND('',#83,.T.);
#51=FACE_OUTER_BOUND('',#85,.T.);
#52=FACE_OUTER_BOUND('',#87,.T.);
#53=FACE_OUTER_BOUND('',#89,.T.);
#54=FACE_OUTER_BOUND('',#90,.T.);
#55=FACE_OUTER_BOUND('',#91,.T.);
#56=FACE_OUTER_BOUND('',#92,.T.);
#57=FACE_OUTER_BOUND('',#93,.T.);
#58=FACE_OUTER_BOUND('',#94,.T.);
#59=FACE_OUTER_BOUND('',#95,.T.);
#60=FACE_OUTER_BOUND('',#96,.T.);
#61=FACE_OUTER_BOUND('',#97,.T.);
#62=FACE_OUTER_BOUND('',#98,.T.);
#63=FACE_OUTER_BOUND('',#99,.T.);
#64=FACE_OUTER_BOUND('',#100,.T.);
#65=FACE_OUTER_BOUND('',#101,.T.);
#66=FACE_OUTER_BOUND('',#102,.T.);
#67=FACE_OUTER_BOUND('',#103,.T.);
#68=FACE_OUTER_BOUND('',#104,.T.);
#69=FACE_OUTER_BOUND('',#105,.T.);
#70=FACE_OUTER_BOUND('',#106,.T.);
#71=EDGE_LOOP('',(#316,#317,#318,#319));
#72=EDGE_LOOP('',(#320,#321,#322,#323,#324,#325,#326));
#73=EDGE_LOOP('',(#327));
#74=EDGE_LOOP('',(#328));
#75=EDGE_LOOP('',(#329));
#76=EDGE_LOOP('',(#330));
#77=EDGE_LOOP('',(#331));
#78=EDGE_LOOP('',(#332));
#79=EDGE_LOOP('',(#333,#334,#335,#336));
#80=EDGE_LOOP('',(#337));
#81=EDGE_LOOP('',(#338,#339,#340,#341));
#82=EDGE_LOOP('',(#342));
#83=EDGE_LOOP('',(#343,#344,#345,#346));
#84=EDGE_LOOP('',(#347));
#85=EDGE_LOOP('',(#348,#349,#350,#351));
#86=EDGE_LOOP('',(#352));
#87=EDGE_LOOP('',(#353));
#88=EDGE_LOOP('',(#354));
#89=EDGE_LOOP('',(#355,#356,#357,#358,#359));
#90=EDGE_LOOP('',(#360,#361,#362,#363));
#91=EDGE_LOOP('',(#364,#365,#366,#367,#368));
#92=EDGE_LOOP('',(#369,#370,#371,#372));
#93=EDGE_LOOP('',(#373,#374,#375,#376));
#94=EDGE_LOOP('',(#377,#378,#379,#380));
#95=EDGE_LOOP('',(#381,#382,#383,#384));
#96=EDGE_LOOP('',(#385,#386,#387,#388));
#97=EDGE_LOOP('',(#389,#390,#391,#392));
#98=EDGE_LOOP('',(#393,#394,#395,#396));
#99=EDGE_LOOP('',(#397,#398,#399,#400));
#100=EDGE_LOOP('',(#401,#402,#403,#404));
#101=EDGE_LOOP('',(#405,#406,#407,#408));
#102=EDGE_LOOP('',(#409,#410,#411,#412));
#103=EDGE_LOOP('',(#413,#414,#415,#416,#417));
#104=EDGE_LOOP('',(#418,#419,#420,#421));
#105=EDGE_LOOP('',(#422,#423,#424,#425,#426));
#106=EDGE_LOOP('',(#427,#428,#429,#430,#431,#432,#433,#434));
#107=EDGE_LOOP('',(#435));
#108=EDGE_LOOP('',(#436));
#109=EDGE_LOOP('',(#437));
#110=EDGE_LOOP('',(#438));
#111=EDGE_LOOP('',(#439));
#112=EDGE_LOOP('',(#440));
#113=EDGE_LOOP('',(#441));
#114=EDGE_LOOP('',(#442));
#115=EDGE_LOOP('',(#443));
#116=LINE('',#714,#147);
#117=LINE('',#721,#148);
#118=LINE('',#739,#149);
#119=LINE('',#742,#150);
#120=LINE('',#747,#151);
#121=LINE('',#750,#152);
#122=LINE('',#755,#153);
#123=LINE('',#758,#154);
#124=LINE('',#763,#155);
#125=LINE('',#766,#156);
#126=LINE('',#774,#157);
#127=LINE('',#776,#158);
#128=LINE('',#777,#159);
#129=LINE('',#780,#160);
#130=LINE('',#784,#161);
#131=LINE('',#785,#162);
#132=LINE('',#788,#163);
#133=LINE('',#793,#164);
#134=LINE('',#797,#165);
#135=LINE('',#801,#166);
#136=LINE('',#805,#167);
#137=LINE('',#809,#168);
#138=LINE('',#813,#169);
#139=LINE('',#817,#170);
#140=LINE('',#821,#171);
#141=LINE('',#825,#172);
#142=LINE('',#829,#173);
#143=LINE('',#832,#174);
#144=LINE('',#833,#175);
#145=LINE('',#837,#176);
#146=LINE('',#839,#177);
#147=VECTOR('',#564,70.0000010430813);
#148=VECTOR('',#571,75.0000011175871);
#149=VECTOR('',#592,10.);
#150=VECTOR('',#595,10.);
#151=VECTOR('',#600,10.);
#152=VECTOR('',#603,10.);
#153=VECTOR('',#608,10.);
#154=VECTOR('',#611,10.);
#155=VECTOR('',#616,10.);
#156=VECTOR('',#619,10.);
#157=VECTOR('',#628,10.);
#158=VECTOR('',#629,10.);
#159=VECTOR('',#630,10.);
#160=VECTOR('',#633,10.);
#161=VECTOR('',#638,10.);
#162=VECTOR('',#639,10.);
#163=VECTOR('',#642,10.);
#164=VECTOR('',#649,2.);
#165=VECTOR('',#654,1.50000002235174);
#166=VECTOR('',#659,1.50000002235174);
#167=VECTOR('',#664,1.50000002235174);
#168=VECTOR('',#669,2.);
#169=VECTOR('',#674,1.50000002235174);
#170=VECTOR('',#679,2.);
#171=VECTOR('',#684,2.);
#172=VECTOR('',#689,60.);
#173=VECTOR('',#694,10.);
#174=VECTOR('',#697,10.);
#175=VECTOR('',#698,10.);
#176=VECTOR('',#703,10.);
#177=VECTOR('',#706,10.);
#178=CIRCLE('',#500,70.0000010430813);
#179=CIRCLE('',#501,70.0000010430813);
#180=CIRCLE('',#503,75.0000011175871);
#181=CIRCLE('',#504,75.0000011175871);
#182=CIRCLE('',#505,75.0000011175871);
#183=CIRCLE('',#506,75.0000011175871);
#184=CIRCLE('',#507,75.0000011175871);
#185=CIRCLE('',#509,1.50000002235174);
#186=CIRCLE('',#510,1.50000002235174);
#187=CIRCLE('',#511,1.50000002235174);
#188=CIRCLE('',#512,1.50000002235174);
#189=CIRCLE('',#514,5.);
#190=CIRCLE('',#515,2.);
#191=CIRCLE('',#517,5.);
#192=CIRCLE('',#518,2.);
#193=CIRCLE('',#520,5.);
#194=CIRCLE('',#521,2.);
#195=CIRCLE('',#523,5.);
#196=CIRCLE('',#524,2.);
#197=CIRCLE('',#526,60.);
#198=CIRCLE('',#529,5.);
#199=CIRCLE('',#532,5.);
#200=CIRCLE('',#534,2.);
#201=CIRCLE('',#536,1.50000002235174);
#202=CIRCLE('',#538,1.50000002235174);
#203=CIRCLE('',#540,1.50000002235174);
#204=CIRCLE('',#542,2.);
#205=CIRCLE('',#544,1.50000002235174);
#206=CIRCLE('',#546,2.);
#207=CIRCLE('',#548,2.);
#208=CIRCLE('',#550,60.);
#209=CIRCLE('',#552,5.);
#210=CIRCLE('',#555,5.);
#211=VERTEX_POINT('',#711);
#212=VERTEX_POINT('',#713);
#213=VERTEX_POINT('',#717);
#214=VERTEX_POINT('',#718);
#215=VERTEX_POINT('',#720);
#216=VERTEX_POINT('',#723);
#217=VERTEX_POINT('',#725);
#218=VERTEX_POINT('',#729);
#219=VERTEX_POINT('',#731);
#220=VERTEX_POINT('',#733);
#221=VERTEX_POINT('',#735);
#222=VERTEX_POINT('',#738);
#223=VERTEX_POINT('',#740);
#224=VERTEX_POINT('',#743);
#225=VERTEX_POINT('',#746);
#226=VERTEX_POINT('',#748);
#227=VERTEX_POINT('',#751);
#228=VERTEX_POINT('',#754);
#229=VERTEX_POINT('',#756);
#230=VERTEX_POINT('',#759);
#231=VERTEX_POINT('',#762);
#232=VERTEX_POINT('',#764);
#233=VERTEX_POINT('',#767);
#234=VERTEX_POINT('',#770);
#235=VERTEX_POINT('',#773);
#236=VERTEX_POINT('',#775);
#237=VERTEX_POINT('',#779);
#238=VERTEX_POINT('',#783);
#239=VERTEX_POINT('',#787);
#240=VERTEX_POINT('',#791);
#241=VERTEX_POINT('',#795);
#242=VERTEX_POINT('',#799);
#243=VERTEX_POINT('',#803);
#244=VERTEX_POINT('',#807);
#245=VERTEX_POINT('',#811);
#246=VERTEX_POINT('',#815);
#247=VERTEX_POINT('',#819);
#248=VERTEX_POINT('',#823);
#249=VERTEX_POINT('',#827);
#250=VERTEX_POINT('',#831);
#251=VERTEX_POINT('',#835);
#252=EDGE_CURVE('',#211,#211,#178,.T.);
#253=EDGE_CURVE('',#211,#212,#116,.T.);
#254=EDGE_CURVE('',#212,#212,#179,.T.);
#255=EDGE_CURVE('',#213,#214,#180,.T.);
#256=EDGE_CURVE('',#213,#215,#117,.T.);
#257=EDGE_CURVE('',#215,#215,#181,.T.);
#258=EDGE_CURVE('',#216,#213,#182,.T.);
#259=EDGE_CURVE('',#217,#216,#183,.T.);
#260=EDGE_CURVE('',#214,#217,#184,.T.);
#261=EDGE_CURVE('',#218,#218,#185,.T.);
#262=EDGE_CURVE('',#219,#219,#186,.T.);
#263=EDGE_CURVE('',#220,#220,#187,.T.);
#264=EDGE_CURVE('',#221,#221,#188,.T.);
#265=EDGE_CURVE('',#222,#214,#118,.T.);
#266=EDGE_CURVE('',#223,#222,#189,.T.);
#267=EDGE_CURVE('',#213,#223,#119,.T.);
#268=EDGE_CURVE('',#224,#224,#190,.T.);
#269=EDGE_CURVE('',#225,#217,#120,.T.);
#270=EDGE_CURVE('',#226,#225,#191,.T.);
#271=EDGE_CURVE('',#214,#226,#121,.T.);
#272=EDGE_CURVE('',#227,#227,#192,.T.);
#273=EDGE_CURVE('',#228,#216,#122,.T.);
#274=EDGE_CURVE('',#229,#228,#193,.T.);
#275=EDGE_CURVE('',#217,#229,#123,.T.);
#276=EDGE_CURVE('',#230,#230,#194,.T.);
#277=EDGE_CURVE('',#231,#213,#124,.T.);
#278=EDGE_CURVE('',#232,#231,#195,.T.);
#279=EDGE_CURVE('',#216,#232,#125,.T.);
#280=EDGE_CURVE('',#233,#233,#196,.T.);
#281=EDGE_CURVE('',#234,#234,#197,.T.);
#282=EDGE_CURVE('',#229,#235,#126,.T.);
#283=EDGE_CURVE('',#236,#235,#127,.T.);
#284=EDGE_CURVE('',#225,#236,#128,.T.);
#285=EDGE_CURVE('',#228,#237,#129,.T.);
#286=EDGE_CURVE('',#235,#237,#198,.T.);
#287=EDGE_CURVE('',#232,#238,#130,.T.);
#288=EDGE_CURVE('',#237,#238,#131,.T.);
#289=EDGE_CURVE('',#231,#239,#132,.T.);
#290=EDGE_CURVE('',#238,#239,#199,.T.);
#291=EDGE_CURVE('',#240,#240,#200,.T.);
#292=EDGE_CURVE('',#240,#233,#133,.T.);
#293=EDGE_CURVE('',#241,#241,#201,.T.);
#294=EDGE_CURVE('',#241,#221,#134,.T.);
#295=EDGE_CURVE('',#242,#242,#202,.T.);
#296=EDGE_CURVE('',#242,#220,#135,.T.);
#297=EDGE_CURVE('',#243,#243,#203,.T.);
#298=EDGE_CURVE('',#243,#219,#136,.T.);
#299=EDGE_CURVE('',#244,#244,#204,.T.);
#300=EDGE_CURVE('',#244,#227,#137,.T.);
#301=EDGE_CURVE('',#245,#245,#205,.T.);
#302=EDGE_CURVE('',#245,#218,#138,.T.);
#303=EDGE_CURVE('',#246,#246,#206,.T.);
#304=EDGE_CURVE('',#246,#230,#139,.T.);
#305=EDGE_CURVE('',#247,#247,#207,.T.);
#306=EDGE_CURVE('',#247,#224,#140,.T.);
#307=EDGE_CURVE('',#248,#248,#208,.T.);
#308=EDGE_CURVE('',#248,#234,#141,.T.);
#309=EDGE_CURVE('',#249,#236,#209,.T.);
#310=EDGE_CURVE('',#226,#249,#142,.T.);
#311=EDGE_CURVE('',#250,#249,#143,.T.);
#312=EDGE_CURVE('',#222,#250,#144,.T.);
#313=EDGE_CURVE('',#251,#250,#210,.T.);
#314=EDGE_CURVE('',#223,#251,#145,.T.);
#315=EDGE_CURVE('',#239,#251,#146,.T.);
#316=ORIENTED_EDGE('',*,*,#252,.F.);
#317=ORIENTED_EDGE('',*,*,#253,.T.);
#318=ORIENTED_EDGE('',*,*,#254,.F.);
#319=ORIENTED_EDGE('',*,*,#253,.F.);
#320=ORIENTED_EDGE('',*,*,#255,.F.);
#321=ORIENTED_EDGE('',*,*,#256,.T.);
#322=ORIENTED_EDGE('',*,*,#257,.F.);
#323=ORIENTED_EDGE('',*,*,#256,.F.);
#324=ORIENTED_EDGE('',*,*,#258,.F.);
#325=ORIENTED_EDGE('',*,*,#259,.F.);
#326=ORIENTED_EDGE('',*,*,#260,.F.);
#327=ORIENTED_EDGE('',*,*,#257,.T.);
#328=ORIENTED_EDGE('',*,*,#254,.T.);
#329=ORIENTED_EDGE('',*,*,#261,.T.);
#330=ORIENTED_EDGE('',*,*,#262,.T.);
#331=ORIENTED_EDGE('',*,*,#263,.T.);
#332=ORIENTED_EDGE('',*,*,#264,.T.);
#333=ORIENTED_EDGE('',*,*,#255,.T.);
#334=ORIENTED_EDGE('',*,*,#265,.F.);
#335=ORIENTED_EDGE('',*,*,#266,.F.);
#336=ORIENTED_EDGE('',*,*,#267,.F.);
#337=ORIENTED_EDGE('',*,*,#268,.F.);
#338=ORIENTED_EDGE('',*,*,#260,.T.);
#339=ORIENTED_EDGE('',*,*,#269,.F.);
#340=ORIENTED_EDGE('',*,*,#270,.F.);
#341=ORIENTED_EDGE('',*,*,#271,.F.);
#342=ORIENTED_EDGE('',*,*,#272,.F.);
#343=ORIENTED_EDGE('',*,*,#259,.T.);
#344=ORIENTED_EDGE('',*,*,#273,.F.);
#345=ORIENTED_EDGE('',*,*,#274,.F.);
#346=ORIENTED_EDGE('',*,*,#275,.F.);
#347=ORIENTED_EDGE('',*,*,#276,.F.);
#348=ORIENTED_EDGE('',*,*,#258,.T.);
#349=ORIENTED_EDGE('',*,*,#277,.F.);
#350=ORIENTED_EDGE('',*,*,#278,.F.);
#351=ORIENTED_EDGE('',*,*,#279,.F.);
#352=ORIENTED_EDGE('',*,*,#280,.F.);
#353=ORIENTED_EDGE('',*,*,#252,.T.);
#354=ORIENTED_EDGE('',*,*,#281,.F.);
#355=ORIENTED_EDGE('',*,*,#269,.T.);
#356=ORIENTED_EDGE('',*,*,#275,.T.);
#357=ORIENTED_EDGE('',*,*,#282,.T.);
#358=ORIENTED_EDGE('',*,*,#283,.F.);
#359=ORIENTED_EDGE('',*,*,#284,.F.);
#360=ORIENTED_EDGE('',*,*,#274,.T.);
#361=ORIENTED_EDGE('',*,*,#285,.T.);
#362=ORIENTED_EDGE('',*,*,#286,.F.);
#363=ORIENTED_EDGE('',*,*,#282,.F.);
#364=ORIENTED_EDGE('',*,*,#273,.T.);
#365=ORIENTED_EDGE('',*,*,#279,.T.);
#366=ORIENTED_EDGE('',*,*,#287,.T.);
#367=ORIENTED_EDGE('',*,*,#288,.F.);
#368=ORIENTED_EDGE('',*,*,#285,.F.);
#369=ORIENTED_EDGE('',*,*,#278,.T.);
#370=ORIENTED_EDGE('',*,*,#289,.T.);
#371=ORIENTED_EDGE('',*,*,#290,.F.);
#372=ORIENTED_EDGE('',*,*,#287,.F.);
#373=ORIENTED_EDGE('',*,*,#291,.F.);
#374=ORIENTED_EDGE('',*,*,#292,.T.);
#375=ORIENTED_EDGE('',*,*,#280,.T.);
#376=ORIENTED_EDGE('',*,*,#292,.F.);
#377=ORIENTED_EDGE('',*,*,#293,.F.);
#378=ORIENTED_EDGE('',*,*,#294,.T.);
#379=ORIENTED_EDGE('',*,*,#264,.F.);
#380=ORIENTED_EDGE('',*,*,#294,.F.);
#381=ORIENTED_EDGE('',*,*,#295,.F.);
#382=ORIENTED_EDGE('',*,*,#296,.T.);
#383=ORIENTED_EDGE('',*,*,#263,.F.);
#384=ORIENTED_EDGE('',*,*,#296,.F.);
#385=ORIENTED_EDGE('',*,*,#297,.F.);
#386=ORIENTED_EDGE('',*,*,#298,.T.);
#387=ORIENTED_EDGE('',*,*,#262,.F.);
#388=ORIENTED_EDGE('',*,*,#298,.F.);
#389=ORIENTED_EDGE('',*,*,#299,.F.);
#390=ORIENTED_EDGE('',*,*,#300,.T.);
#391=ORIENTED_EDGE('',*,*,#272,.T.);
#392=ORIENTED_EDGE('',*,*,#300,.F.);
#393=ORIENTED_EDGE('',*,*,#301,.F.);
#394=ORIENTED_EDGE('',*,*,#302,.T.);
#395=ORIENTED_EDGE('',*,*,#261,.F.);
#396=ORIENTED_EDGE('',*,*,#302,.F.);
#397=ORIENTED_EDGE('',*,*,#303,.F.);
#398=ORIENTED_EDGE('',*,*,#304,.T.);
#399=ORIENTED_EDGE('',*,*,#276,.T.);
#400=ORIENTED_EDGE('',*,*,#304,.F.);
#401=ORIENTED_EDGE('',*,*,#305,.F.);
#402=ORIENTED_EDGE('',*,*,#306,.T.);
#403=ORIENTED_EDGE('',*,*,#268,.T.);
#404=ORIENTED_EDGE('',*,*,#306,.F.);
#405=ORIENTED_EDGE('',*,*,#307,.F.);
#406=ORIENTED_EDGE('',*,*,#308,.T.);
#407=ORIENTED_EDGE('',*,*,#281,.T.);
#408=ORIENTED_EDGE('',*,*,#308,.F.);
#409=ORIENTED_EDGE('',*,*,#270,.T.);
#410=ORIENTED_EDGE('',*,*,#284,.T.);
#411=ORIENTED_EDGE('',*,*,#309,.F.);
#412=ORIENTED_EDGE('',*,*,#310,.F.);
#413=ORIENTED_EDGE('',*,*,#265,.T.);
#414=ORIENTED_EDGE('',*,*,#271,.T.);
#415=ORIENTED_EDGE('',*,*,#310,.T.);
#416=ORIENTED_EDGE('',*,*,#311,.F.);
#417=ORIENTED_EDGE('',*,*,#312,.F.);
#418=ORIENTED_EDGE('',*,*,#266,.T.);
#419=ORIENTED_EDGE('',*,*,#312,.T.);
#420=ORIENTED_EDGE('',*,*,#313,.F.);
#421=ORIENTED_EDGE('',*,*,#314,.F.);
#422=ORIENTED_EDGE('',*,*,#277,.T.);
#423=ORIENTED_EDGE('',*,*,#267,.T.);
#424=ORIENTED_EDGE('',*,*,#314,.T.);
#425=ORIENTED_EDGE('',*,*,#315,.F.);
#426=ORIENTED_EDGE('',*,*,#289,.F.);
#427=ORIENTED_EDGE('',*,*,#290,.T.);
#428=ORIENTED_EDGE('',*,*,#315,.T.);
#429=ORIENTED_EDGE('',*,*,#313,.T.);
#430=ORIENTED_EDGE('',*,*,#311,.T.);
#431=ORIENTED_EDGE('',*,*,#309,.T.);
#432=ORIENTED_EDGE('',*,*,#283,.T.);
#433=ORIENTED_EDGE('',*,*,#286,.T.);
#434=ORIENTED_EDGE('',*,*,#288,.T.);
#435=ORIENTED_EDGE('',*,*,#307,.T.);
#436=ORIENTED_EDGE('',*,*,#305,.T.);
#437=ORIENTED_EDGE('',*,*,#303,.T.);
#438=ORIENTED_EDGE('',*,*,#301,.T.);
#439=ORIENTED_EDGE('',*,*,#299,.T.);
#440=ORIENTED_EDGE('',*,*,#297,.T.);
#441=ORIENTED_EDGE('',*,*,#295,.T.);
#442=ORIENTED_EDGE('',*,*,#293,.T.);
#443=ORIENTED_EDGE('',*,*,#291,.T.);
#444=CYLINDRICAL_SURFACE('',#499,70.0000010430813);
#445=CYLINDRICAL_SURFACE('',#502,75.0000011175871);
#446=CYLINDRICAL_SURFACE('',#528,5.);
#447=CYLINDRICAL_SURFACE('',#531,5.);
#448=CYLINDRICAL_SURFACE('',#533,2.);
#449=CYLINDRICAL_SURFACE('',#535,1.50000002235174);
#450=CYLINDRICAL_SURFACE('',#537,1.50000002235174);
#451=CYLINDRICAL_SURFACE('',#539,1.50000002235174);
#452=CYLINDRICAL_SURFACE('',#541,2.);
#453=CYLINDRICAL_SURFACE('',#543,1.50000002235174);
#454=CYLINDRICAL_SURFACE('',#545,2.);
#455=CYLINDRICAL_SURFACE('',#547,2.);
#456=CYLINDRICAL_SURFACE('',#549,60.);
#457=CYLINDRICAL_SURFACE('',#551,5.);
#458=CYLINDRICAL_SURFACE('',#554,5.);
#459=ADVANCED_FACE('',(#45),#444,.F.);
#460=ADVANCED_FACE('',(#46),#445,.T.);
#461=ADVANCED_FACE('',(#47,#15,#16,#17,#18,#19),#34,.T.);
#462=ADVANCED_FACE('',(#48,#20),#35,.T.);
#463=ADVANCED_FACE('',(#49,#21),#36,.T.);
#464=ADVANCED_FACE('',(#50,#22),#37,.T.);
#465=ADVANCED_FACE('',(#51,#23),#38,.T.);
#466=ADVANCED_FACE('',(#52,#24),#39,.T.);
#467=ADVANCED_FACE('',(#53),#40,.T.);
#468=ADVANCED_FACE('',(#54),#446,.T.);
#469=ADVANCED_FACE('',(#55),#41,.T.);
#470=ADVANCED_FACE('',(#56),#447,.T.);
#471=ADVANCED_FACE('',(#57),#448,.F.);
#472=ADVANCED_FACE('',(#58),#449,.F.);
#473=ADVANCED_FACE('',(#59),#450,.F.);
#474=ADVANCED_FACE('',(#60),#451,.F.);
#475=ADVANCED_FACE('',(#61),#452,.F.);
#476=ADVANCED_FACE('',(#62),#453,.F.);
#477=ADVANCED_FACE('',(#63),#454,.F.);
#478=ADVANCED_FACE('',(#64),#455,.F.);
#479=ADVANCED_FACE('',(#65),#456,.F.);
#480=ADVANCED_FACE('',(#66),#457,.T.);
#481=ADVANCED_FACE('',(#67),#42,.T.);
#482=ADVANCED_FACE('',(#68),#458,.T.);
#483=ADVANCED_FACE('',(#69),#43,.T.);
#484=ADVANCED_FACE('',(#70,#25,#26,#27,#28,#29,#30,#31,#32,#33),#44,.F.);
#485=CLOSED_SHELL('',(#459,#460,#461,#462,#463,#464,#465,#466,#467,#468,
#469,#470,#471,#472,#473,#474,#475,#476,#477,#478,#479,#480,#481,#482,#483,
#484));
#486=DERIVED_UNIT_ELEMENT(#488,1.);
#487=DERIVED_UNIT_ELEMENT(#846,-3.);
#488=(
MASS_UNIT()
NAMED_UNIT(*)
SI_UNIT(.KILO.,.GRAM.)
);
#489=DERIVED_UNIT((#486,#487));
#490=MEASURE_REPRESENTATION_ITEM('density measure',
POSITIVE_RATIO_MEASURE(7850.),#489);
#491=PROPERTY_DEFINITION_REPRESENTATION(#496,#493);
#492=PROPERTY_DEFINITION_REPRESENTATION(#497,#494);
#493=REPRESENTATION('material name',(#495),#843);
#494=REPRESENTATION('density',(#490),#843);
#495=DESCRIPTIVE_REPRESENTATION_ITEM('Steel','Steel');
#496=PROPERTY_DEFINITION('material property','material name',#853);
#497=PROPERTY_DEFINITION('material property','density of part',#853);
#498=AXIS2_PLACEMENT_3D('',#709,#558,#559);
#499=AXIS2_PLACEMENT_3D('',#710,#560,#561);
#500=AXIS2_PLACEMENT_3D('',#712,#562,#563);
#501=AXIS2_PLACEMENT_3D('',#715,#565,#566);
#502=AXIS2_PLACEMENT_3D('',#716,#567,#568);
#503=AXIS2_PLACEMENT_3D('',#719,#569,#570);
#504=AXIS2_PLACEMENT_3D('',#722,#572,#573);
#505=AXIS2_PLACEMENT_3D('',#724,#574,#575);
#506=AXIS2_PLACEMENT_3D('',#726,#576,#577);
#507=AXIS2_PLACEMENT_3D('',#727,#578,#579);
#508=AXIS2_PLACEMENT_3D('',#728,#580,#581);
#509=AXIS2_PLACEMENT_3D('',#730,#582,#583);
#510=AXIS2_PLACEMENT_3D('',#732,#584,#585);
#511=AXIS2_PLACEMENT_3D('',#734,#586,#587);
#512=AXIS2_PLACEMENT_3D('',#736,#588,#589);
#513=AXIS2_PLACEMENT_3D('',#737,#590,#591);
#514=AXIS2_PLACEMENT_3D('',#741,#593,#594);
#515=AXIS2_PLACEMENT_3D('',#744,#596,#597);
#516=AXIS2_PLACEMENT_3D('',#745,#598,#599);
#517=AXIS2_PLACEMENT_3D('',#749,#601,#602);
#518=AXIS2_PLACEMENT_3D('',#752,#604,#605);
#519=AXIS2_PLACEMENT_3D('',#753,#606,#607);
#520=AXIS2_PLACEMENT_3D('',#757,#609,#610);
#521=AXIS2_PLACEMENT_3D('',#760,#612,#613);
#522=AXIS2_PLACEMENT_3D('',#761,#614,#615);
#523=AXIS2_PLACEMENT_3D('',#765,#617,#618);
#524=AXIS2_PLACEMENT_3D('',#768,#620,#621);
#525=AXIS2_PLACEMENT_3D('',#769,#622,#623);
#526=AXIS2_PLACEMENT_3D('',#771,#624,#625);
#527=AXIS2_PLACEMENT_3D('',#772,#626,#627);
#528=AXIS2_PLACEMENT_3D('',#778,#631,#632);
#529=AXIS2_PLACEMENT_3D('',#781,#634,#635);
#530=AXIS2_PLACEMENT_3D('',#782,#636,#637);
#531=AXIS2_PLACEMENT_3D('',#786,#640,#641);
#532=AXIS2_PLACEMENT_3D('',#789,#643,#644);
#533=AXIS2_PLACEMENT_3D('',#790,#645,#646);
#534=AXIS2_PLACEMENT_3D('',#792,#647,#648);
#535=AXIS2_PLACEMENT_3D('',#794,#650,#651);
#536=AXIS2_PLACEMENT_3D('',#796,#652,#653);
#537=AXIS2_PLACEMENT_3D('',#798,#655,#656);
#538=AXIS2_PLACEMENT_3D('',#800,#657,#658);
#539=AXIS2_PLACEMENT_3D('',#802,#660,#661);
#540=AXIS2_PLACEMENT_3D('',#804,#662,#663);
#541=AXIS2_PLACEMENT_3D('',#806,#665,#666);
#542=AXIS2_PLACEMENT_3D('',#808,#667,#668);
#543=AXIS2_PLACEMENT_3D('',#810,#670,#671);
#544=AXIS2_PLACEMENT_3D('',#812,#672,#673);
#545=AXIS2_PLACEMENT_3D('',#814,#675,#676);
#546=AXIS2_PLACEMENT_3D('',#816,#677,#678);
#547=AXIS2_PLACEMENT_3D('',#818,#680,#681);
#548=AXIS2_PLACEMENT_3D('',#820,#682,#683);
#549=AXIS2_PLACEMENT_3D('',#822,#685,#686);
#550=AXIS2_PLACEMENT_3D('',#824,#687,#688);
#551=AXIS2_PLACEMENT_3D('',#826,#690,#691);
#552=AXIS2_PLACEMENT_3D('',#828,#692,#693);
#553=AXIS2_PLACEMENT_3D('',#830,#695,#696);
#554=AXIS2_PLACEMENT_3D('',#834,#699,#700);
#555=AXIS2_PLACEMENT_3D('',#836,#701,#702);
#556=AXIS2_PLACEMENT_3D('',#838,#704,#705);
#557=AXIS2_PLACEMENT_3D('',#840,#707,#708);
#558=DIRECTION('axis',(0.,0.,1.));
#559=DIRECTION('refdir',(1.,0.,0.));
#560=DIRECTION('center_axis',(0.,0.,-1.));
#561=DIRECTION('ref_axis',(1.,0.,0.));
#562=DIRECTION('center_axis',(0.,0.,1.));
#563=DIRECTION('ref_axis',(1.,0.,0.));
#564=DIRECTION('',(0.,0.,1.));
#565=DIRECTION('center_axis',(0.,0.,-1.));
#566=DIRECTION('ref_axis',(1.,0.,0.));
#567=DIRECTION('center_axis',(0.,0.,-1.));
#568=DIRECTION('ref_axis',(1.,0.,0.));
#569=DIRECTION('center_axis',(0.,0.,-1.));
#570=DIRECTION('ref_axis',(1.,0.,0.));
#571=DIRECTION('',(0.,0.,1.));
#572=DIRECTION('center_axis',(0.,0.,1.));
#573=DIRECTION('ref_axis',(1.,0.,0.));
#574=DIRECTION('center_axis',(0.,0.,-1.));
#575=DIRECTION('ref_axis',(1.,0.,0.));
#576=DIRECTION('center_axis',(0.,0.,-1.));
#577=DIRECTION('ref_axis',(1.,0.,0.));
#578=DIRECTION('center_axis',(0.,0.,-1.));
#579=DIRECTION('ref_axis',(1.,0.,0.));
#580=DIRECTION('center_axis',(0.,0.,1.));
#581=DIRECTION('ref_axis',(1.,0.,0.));
#582=DIRECTION('center_axis',(0.,0.,-1.));
#583=DIRECTION('ref_axis',(1.,0.,0.));
#584=DIRECTION('center_axis',(0.,0.,-1.));
#585=DIRECTION('ref_axis',(1.,0.,0.));
#586=DIRECTION('center_axis',(0.,0.,-1.));
#587=DIRECTION('ref_axis',(1.,0.,0.));
#588=DIRECTION('center_axis',(0.,0.,-1.));
#589=DIRECTION('ref_axis',(1.,0.,0.));
#590=DIRECTION('center_axis',(0.,0.,1.));
#591=DIRECTION('ref_axis',(1.,0.,0.));
#592=DIRECTION('',(1.,0.,0.));
#593=DIRECTION('center_axis',(0.,0.,-1.));
#594=DIRECTION('ref_axis',(0.,1.,0.));
#595=DIRECTION('',(0.,1.,0.));
#596=DIRECTION('center_axis',(0.,0.,1.));
#597=DIRECTION('ref_axis',(1.,0.,0.));
#598=DIRECTION('center_axis',(0.,0.,1.));
#599=DIRECTION('ref_axis',(1.,0.,0.));
#600=DIRECTION('',(0.,-1.,0.));
#601=DIRECTION('center_axis',(0.,0.,-1.));
#602=DIRECTION('ref_axis',(1.,0.,0.));
#603=DIRECTION('',(1.,0.,0.));
#604=DIRECTION('center_axis',(0.,0.,1.));
#605=DIRECTION('ref_axis',(1.,0.,0.));
#606=DIRECTION('center_axis',(0.,0.,1.));
#607=DIRECTION('ref_axis',(1.,0.,0.));
#608=DIRECTION('',(-1.,0.,0.));
#609=DIRECTION('center_axis',(0.,0.,-1.));
#610=DIRECTION('ref_axis',(0.,-1.,0.));
#611=DIRECTION('',(0.,-1.,0.));
#612=DIRECTION('center_axis',(0.,0.,1.));
#613=DIRECTION('ref_axis',(1.,0.,0.));
#614=DIRECTION('center_axis',(0.,0.,1.));
#615=DIRECTION('ref_axis',(1.,0.,0.));
#616=DIRECTION('',(0.,1.,0.));
#617=DIRECTION('center_axis',(0.,0.,-1.));
#618=DIRECTION('ref_axis',(-1.,0.,0.));
#619=DIRECTION('',(-1.,0.,0.));
#620=DIRECTION('center_axis',(0.,0.,1.));
#621=DIRECTION('ref_axis',(1.,0.,0.));
#622=DIRECTION('center_axis',(0.,0.,1.));
#623=DIRECTION('ref_axis',(1.,0.,0.));
#624=DIRECTION('center_axis',(0.,0.,1.));
#625=DIRECTION('ref_axis',(1.,0.,0.));
#626=DIRECTION('center_axis',(1.,0.,0.));
#627=DIRECTION('ref_axis',(0.,-1.,0.));
#628=DIRECTION('',(0.,0.,-1.));
#629=DIRECTION('',(0.,-1.,0.));
#630=DIRECTION('',(0.,0.,-1.));
#631=DIRECTION('center_axis',(0.,0.,-1.));
#632=DIRECTION('ref_axis',(0.,-1.,0.));
#633=DIRECTION('',(0.,0.,-1.));
#634=DIRECTION('center_axis',(0.,0.,-1.));
#635=DIRECTION('ref_axis',(0.,-1.,0.));
#636=DIRECTION('center_axis',(0.,-1.,0.));
#637=DIRECTION('ref_axis',(-1.,0.,0.));
#638=DIRECTION('',(0.,0.,-1.));
#639=DIRECTION('',(-1.,0.,0.));
#640=DIRECTION('center_axis',(0.,0.,-1.));
#641=DIRECTION('ref_axis',(-1.,0.,0.));
#642=DIRECTION('',(0.,0.,-1.));
#643=DIRECTION('center_axis',(0.,0.,-1.));
#644=DIRECTION('ref_axis',(-1.,0.,0.));
#645=DIRECTION('center_axis',(0.,0.,-1.));
#646=DIRECTION('ref_axis',(1.,0.,0.));
#647=DIRECTION('center_axis',(0.,0.,1.));
#648=DIRECTION('ref_axis',(1.,0.,0.));
#649=DIRECTION('',(0.,0.,1.));
#650=DIRECTION('center_axis',(0.,0.,-1.));
#651=DIRECTION('ref_axis',(1.,0.,0.));
#652=DIRECTION('center_axis',(0.,0.,1.));
#653=DIRECTION('ref_axis',(1.,0.,0.));
#654=DIRECTION('',(0.,0.,1.));
#655=DIRECTION('center_axis',(0.,0.,-1.));
#656=DIRECTION('ref_axis',(1.,0.,0.));
#657=DIRECTION('center_axis',(0.,0.,1.));
#658=DIRECTION('ref_axis',(1.,0.,0.));
#659=DIRECTION('',(0.,0.,1.));
#660=DIRECTION('center_axis',(0.,0.,-1.));
#661=DIRECTION('ref_axis',(1.,0.,0.));
#662=DIRECTION('center_axis',(0.,0.,1.));
#663=DIRECTION('ref_axis',(1.,0.,0.));
#664=DIRECTION('',(0.,0.,1.));
#665=DIRECTION('center_axis',(0.,0.,-1.));
#666=DIRECTION('ref_axis',(1.,0.,0.));
#667=DIRECTION('center_axis',(0.,0.,1.));
#668=DIRECTION('ref_axis',(1.,0.,0.));
#669=DIRECTION('',(0.,0.,1.));
#670=DIRECTION('center_axis',(0.,0.,-1.));
#671=DIRECTION('ref_axis',(1.,0.,0.));
#672=DIRECTION('center_axis',(0.,0.,1.));
#673=DIRECTION('ref_axis',(1.,0.,0.));
#674=DIRECTION('',(0.,0.,1.));
#675=DIRECTION('center_axis',(0.,0.,-1.));
#676=DIRECTION('ref_axis',(1.,0.,0.));
#677=DIRECTION('center_axis',(0.,0.,1.));
#678=DIRECTION('ref_axis',(1.,0.,0.));
#679=DIRECTION('',(0.,0.,1.));
#680=DIRECTION('center_axis',(0.,0.,-1.));
#681=DIRECTION('ref_axis',(1.,0.,0.));
#682=DIRECTION('center_axis',(0.,0.,1.));
#683=DIRECTION('ref_axis',(1.,0.,0.));
#684=DIRECTION('',(0.,0.,1.));
#685=DIRECTION('center_axis',(0.,0.,-1.));
#686=DIRECTION('ref_axis',(1.,0.,0.));
#687=DIRECTION('center_axis',(0.,0.,1.));
#688=DIRECTION('ref_axis',(1.,0.,0.));
#689=DIRECTION('',(0.,0.,1.));
#690=DIRECTION('center_axis',(0.,0.,-1.));
#691=DIRECTION('ref_axis',(1.,0.,0.));
#692=DIRECTION('center_axis',(0.,0.,-1.));
#693=DIRECTION('ref_axis',(1.,0.,0.));
#694=DIRECTION('',(0.,0.,-1.));
#695=DIRECTION('center_axis',(0.,1.,0.));
#696=DIRECTION('ref_axis',(1.,0.,0.));
#697=DIRECTION('',(1.,0.,0.));
#698=DIRECTION('',(0.,0.,-1.));
#699=DIRECTION('center_axis',(0.,0.,-1.));
#700=DIRECTION('ref_axis',(0.,1.,0.));
#701=DIRECTION('center_axis',(0.,0.,-1.));
#702=DIRECTION('ref_axis',(0.,1.,0.));
#703=DIRECTION('',(0.,0.,-1.));
#704=DIRECTION('center_axis',(-1.,0.,0.));
#705=DIRECTION('ref_axis',(0.,1.,0.));
#706=DIRECTION('',(0.,1.,0.));
#707=DIRECTION('center_axis',(0.,0.,1.));
#708=DIRECTION('ref_axis',(1.,0.,0.));
#709=CARTESIAN_POINT('',(0.,0.,0.));
#710=CARTESIAN_POINT('Origin',(0.,0.,0.));
#711=CARTESIAN_POINT('',(-70.0000010430813,-8.57252772177209E-15,-20.));
#712=CARTESIAN_POINT('Origin',(0.,0.,-20.));
#713=CARTESIAN_POINT('',(-70.0000010430813,-8.57252772177209E-15,0.));
#714=CARTESIAN_POINT('',(-70.0000010430813,8.57252772177209E-15,0.));
#715=CARTESIAN_POINT('Origin',(0.,0.,0.));
#716=CARTESIAN_POINT('Origin',(0.,0.,0.));
#717=CARTESIAN_POINT('',(-75.0000011175871,-9.1848511304701E-15,-20.));
#718=CARTESIAN_POINT('',(0.,75.,-20.));
#719=CARTESIAN_POINT('Origin',(0.,0.,-20.));
#720=CARTESIAN_POINT('',(-75.0000011175871,-9.1848511304701E-15,0.));
#721=CARTESIAN_POINT('',(-75.0000011175871,9.1848511304701E-15,0.));
#722=CARTESIAN_POINT('Origin',(0.,0.,0.));
#723=CARTESIAN_POINT('',(0.,-75.,-20.));
#724=CARTESIAN_POINT('Origin',(0.,0.,-20.));
#725=CARTESIAN_POINT('',(75.,0.,-20.));
#726=CARTESIAN_POINT('Origin',(0.,0.,-20.));
#727=CARTESIAN_POINT('Origin',(0.,0.,-20.));
#728=CARTESIAN_POINT('Origin',(0.,0.,0.));
#729=CARTESIAN_POINT('',(71.0000010579824,-1.83697022609402E-16,0.));
#730=CARTESIAN_POINT('Origin',(72.5000010803342,0.,0.));
#731=CARTESIAN_POINT('',(-1.50000002235174,72.5000010803342,0.));
#732=CARTESIAN_POINT('Origin',(0.,72.5000010803342,0.));
#733=CARTESIAN_POINT('',(-74.0000011026859,-1.83697022609402E-16,0.));
#734=CARTESIAN_POINT('Origin',(-72.5000010803342,0.,0.));
#735=CARTESIAN_POINT('',(-1.50000002235174,-72.5000010803342,0.));
#736=CARTESIAN_POINT('Origin',(0.,-72.5000010803342,0.));
#737=CARTESIAN_POINT('Origin',(0.,0.,-20.));
#738=CARTESIAN_POINT('',(-70.,75.,-20.));
#739=CARTESIAN_POINT('',(-35.,75.,-20.));
#740=CARTESIAN_POINT('',(-75.,70.,-20.));
#741=CARTESIAN_POINT('Origin',(-70.,70.,-20.));
#742=CARTESIAN_POINT('',(-75.,-35.,-20.));
#743=CARTESIAN_POINT('',(-72.,70.,-20.));
#744=CARTESIAN_POINT('Origin',(-70.,70.,-20.));
#745=CARTESIAN_POINT('Origin',(0.,0.,-20.));
#746=CARTESIAN_POINT('',(75.,70.,-20.));
#747=CARTESIAN_POINT('',(75.,35.,-20.));
#748=CARTESIAN_POINT('',(70.,75.,-20.));
#749=CARTESIAN_POINT('Origin',(70.,70.,-20.));
#750=CARTESIAN_POINT('',(-35.,75.,-20.));
#751=CARTESIAN_POINT('',(68.,70.,-20.));
#752=CARTESIAN_POINT('Origin',(70.,70.,-20.));
#753=CARTESIAN_POINT('Origin',(0.,0.,-20.));
#754=CARTESIAN_POINT('',(70.,-75.,-20.));
#755=CARTESIAN_POINT('',(35.,-75.,-20.));
#756=CARTESIAN_POINT('',(75.,-70.,-20.));
#757=CARTESIAN_POINT('Origin',(70.,-70.,-20.));
#758=CARTESIAN_POINT('',(75.,35.,-20.));
#759=CARTESIAN_POINT('',(68.,-70.,-20.));
#760=CARTESIAN_POINT('Origin',(70.,-70.,-20.));
#761=CARTESIAN_POINT('Origin',(0.,0.,-20.));
#762=CARTESIAN_POINT('',(-75.,-70.,-20.));
#763=CARTESIAN_POINT('',(-75.,-35.,-20.));
#764=CARTESIAN_POINT('',(-70.,-75.,-20.));
#765=CARTESIAN_POINT('Origin',(-70.,-70.,-20.));
#766=CARTESIAN_POINT('',(35.,-75.,-20.));
#767=CARTESIAN_POINT('',(-72.,-70.,-20.));
#768=CARTESIAN_POINT('Origin',(-70.,-70.,-20.));
#769=CARTESIAN_POINT('Origin',(0.,0.,-20.));
#770=CARTESIAN_POINT('',(-60.,-7.34788079488412E-15,-20.));
#771=CARTESIAN_POINT('Origin',(0.,0.,-20.));
#772=CARTESIAN_POINT('Origin',(75.,70.,0.));
#773=CARTESIAN_POINT('',(75.,-70.,-25.));
#774=CARTESIAN_POINT('',(75.,-70.,0.));
#775=CARTESIAN_POINT('',(75.,70.,-25.));
#776=CARTESIAN_POINT('',(75.,70.,-25.));
#777=CARTESIAN_POINT('',(75.,70.,0.));
#778=CARTESIAN_POINT('Origin',(70.,-70.,0.));
#779=CARTESIAN_POINT('',(70.,-75.,-25.));
#780=CARTESIAN_POINT('',(70.,-75.,0.));
#781=CARTESIAN_POINT('Origin',(70.,-70.,-25.));
#782=CARTESIAN_POINT('Origin',(70.,-75.,0.));
#783=CARTESIAN_POINT('',(-70.,-75.,-25.));
#784=CARTESIAN_POINT('',(-70.,-75.,0.));
#785=CARTESIAN_POINT('',(70.,-75.,-25.));
#786=CARTESIAN_POINT('Origin',(-70.,-70.,0.));
#787=CARTESIAN_POINT('',(-75.,-70.,-25.));
#788=CARTESIAN_POINT('',(-75.,-70.,0.));
#789=CARTESIAN_POINT('Origin',(-70.,-70.,-25.));
#790=CARTESIAN_POINT('Origin',(-70.,-70.,0.));
#791=CARTESIAN_POINT('',(-72.,-70.,-25.));
#792=CARTESIAN_POINT('Origin',(-70.,-70.,-25.));
#793=CARTESIAN_POINT('',(-72.,-70.,0.));
#794=CARTESIAN_POINT('Origin',(0.,-72.5000010803342,0.));
#795=CARTESIAN_POINT('',(-1.50000002235174,-72.5000010803342,-25.));
#796=CARTESIAN_POINT('Origin',(0.,-72.5000010803342,-25.));
#797=CARTESIAN_POINT('',(-1.50000002235174,-72.5000010803342,0.));
#798=CARTESIAN_POINT('Origin',(-72.5000010803342,0.,0.));
#799=CARTESIAN_POINT('',(-74.0000011026859,-1.83697022609402E-16,-25.));
#800=CARTESIAN_POINT('Origin',(-72.5000010803342,0.,-25.));
#801=CARTESIAN_POINT('',(-74.0000011026859,1.83697022609402E-16,0.));
#802=CARTESIAN_POINT('Origin',(0.,72.5000010803342,0.));
#803=CARTESIAN_POINT('',(-1.50000002235174,72.5000010803342,-25.));
#804=CARTESIAN_POINT('Origin',(0.,72.5000010803342,-25.));
#805=CARTESIAN_POINT('',(-1.50000002235174,72.5000010803342,0.));
#806=CARTESIAN_POINT('Origin',(70.,70.,0.));
#807=CARTESIAN_POINT('',(68.,70.,-25.));
#808=CARTESIAN_POINT('Origin',(70.,70.,-25.));
#809=CARTESIAN_POINT('',(68.,70.,0.));
#810=CARTESIAN_POINT('Origin',(72.5000010803342,0.,0.));
#811=CARTESIAN_POINT('',(71.0000010579824,-1.83697022609402E-16,-25.));
#812=CARTESIAN_POINT('Origin',(72.5000010803342,0.,-25.));
#813=CARTESIAN_POINT('',(71.0000010579824,1.83697022609402E-16,0.));
#814=CARTESIAN_POINT('Origin',(70.,-70.,0.));
#815=CARTESIAN_POINT('',(68.,-70.,-25.));
#816=CARTESIAN_POINT('Origin',(70.,-70.,-25.));
#817=CARTESIAN_POINT('',(68.,-70.,0.));
#818=CARTESIAN_POINT('Origin',(-70.,70.,0.));
#819=CARTESIAN_POINT('',(-72.,70.,-25.));
#820=CARTESIAN_POINT('Origin',(-70.,70.,-25.));
#821=CARTESIAN_POINT('',(-72.,70.,0.));
#822=CARTESIAN_POINT('Origin',(0.,0.,0.));
#823=CARTESIAN_POINT('',(-60.,-7.34788079488412E-15,-25.));
#824=CARTESIAN_POINT('Origin',(0.,0.,-25.));
#825=CARTESIAN_POINT('',(-60.,7.34788079488412E-15,0.));
#826=CARTESIAN_POINT('Origin',(70.,70.,0.));
#827=CARTESIAN_POINT('',(70.,75.,-25.));
#828=CARTESIAN_POINT('Origin',(70.,70.,-25.));
#829=CARTESIAN_POINT('',(70.,75.,0.));
#830=CARTESIAN_POINT('Origin',(-70.,75.,0.));
#831=CARTESIAN_POINT('',(-70.,75.,-25.));
#832=CARTESIAN_POINT('',(-70.,75.,-25.));
#833=CARTESIAN_POINT('',(-70.,75.,0.));
#834=CARTESIAN_POINT('Origin',(-70.,70.,0.));
#835=CARTESIAN_POINT('',(-75.,70.,-25.));
#836=CARTESIAN_POINT('Origin',(-70.,70.,-25.));
#837=CARTESIAN_POINT('',(-75.,70.,0.));
#838=CARTESIAN_POINT('Origin',(-75.,-70.,0.));
#839=CARTESIAN_POINT('',(-75.,-70.,-25.));
#840=CARTESIAN_POINT('Origin',(0.,0.,-25.));
#841=UNCERTAINTY_MEASURE_WITH_UNIT(LENGTH_MEASURE(0.01),#845,
'DISTANCE_ACCURACY_VALUE',
'Maximum model space distance between geometric entities at asserted c
onnectivities');
#842=UNCERTAINTY_MEASURE_WITH_UNIT(LENGTH_MEASURE(0.01),#845,
'DISTANCE_ACCURACY_VALUE',
'Maximum model space distance between geometric entities at asserted c
onnectivities');
#843=(
GEOMETRIC_REPRESENTATION_CONTEXT(3)
GLOBAL_UNCERTAINTY_ASSIGNED_CONTEXT((#841))
GLOBAL_UNIT_ASSIGNED_CONTEXT((#845,#847,#848))
REPRESENTATION_CONTEXT('','3D')
);
#844=(
GEOMETRIC_REPRESENTATION_CONTEXT(3)
GLOBAL_UNCERTAINTY_ASSIGNED_CONTEXT((#842))
GLOBAL_UNIT_ASSIGNED_CONTEXT((#845,#847,#848))
REPRESENTATION_CONTEXT('','3D')
);
#845=(
LENGTH_UNIT()
NAMED_UNIT(*)
SI_UNIT(.MILLI.,.METRE.)
);
#846=(
LENGTH_UNIT()
NAMED_UNIT(*)
SI_UNIT($,.METRE.)
);
#847=(
NAMED_UNIT(*)
PLANE_ANGLE_UNIT()
SI_UNIT($,.RADIAN.)
);
#848=(
NAMED_UNIT(*)
SI_UNIT($,.STERADIAN.)
SOLID_ANGLE_UNIT()
);
#849=SHAPE_DEFINITION_REPRESENTATION(#850,#851);
#850=PRODUCT_DEFINITION_SHAPE('',$,#853);
#851=SHAPE_REPRESENTATION('',(#498),#843);
#852=PRODUCT_DEFINITION_CONTEXT('part definition',#857,'design');
#853=PRODUCT_DEFINITION('2025-08-11-20-28-13-838','base_0',#854,#852);
#854=PRODUCT_DEFINITION_FORMATION('',$,#859);
#855=PRODUCT_RELATED_PRODUCT_CATEGORY('base_0','base_0',(#859));
#856=APPLICATION_PROTOCOL_DEFINITION('international standard',
'automotive_design',2009,#857);
#857=APPLICATION_CONTEXT(
'Core Data for Automotive Mechanical Design Process');
#858=PRODUCT_CONTEXT('part definition',#857,'mechanical');
#859=PRODUCT('2025-08-11-20-28-13-838','base_0',$,(#858));
#860=PRESENTATION_STYLE_ASSIGNMENT((#862));
#861=PRESENTATION_STYLE_ASSIGNMENT((#863));
#862=SURFACE_STYLE_USAGE(.BOTH.,#864);
#863=SURFACE_STYLE_USAGE(.BOTH.,#865);
#864=SURFACE_SIDE_STYLE('',(#866));
#865=SURFACE_SIDE_STYLE('',(#867));
#866=SURFACE_STYLE_FILL_AREA(#868);
#867=SURFACE_STYLE_FILL_AREA(#869);
#868=FILL_AREA_STYLE('Steel - Satin',(#870));
#869=FILL_AREA_STYLE('Powder Coat - Rough (Black)',(#871));
#870=FILL_AREA_STYLE_COLOUR('Steel - Satin',#872);
#871=FILL_AREA_STYLE_COLOUR('Powder Coat - Rough (Black)',#873);
#872=COLOUR_RGB('Steel - Satin',0.627450980392157,0.627450980392157,0.627450980392157);
#873=COLOUR_RGB('Powder Coat - Rough (Black)',0.0980392156862745,0.0980392156862745,
0.0980392156862745);
ENDSEC;
END-ISO-10303-21;
